<svg width="32" height="32" viewBox="0 0 32 32" fill="none" xmlns="http://www.w3.org/2000/svg">
<mask id="path-1-inside-1_18670_44111" fill="white">
<path fill-rule="evenodd" clip-rule="evenodd" d="M15.9996 25.9998C21.5223 25.9998 25.9993 21.5227 25.9993 15.9999C25.9993 10.4771 21.5223 6 15.9996 6C10.477 6 6 10.4771 6 15.9999C6 17.7664 6.45804 19.426 7.26184 20.8662C7.2869 20.9111 7.2942 20.9638 7.28172 21.0137L6.20179 25.3335C6.16517 25.4799 6.29785 25.6126 6.44432 25.576L10.653 24.5238C10.7054 24.5107 10.7609 24.5195 10.8071 24.5476C12.3206 25.4691 14.0982 25.9998 15.9996 25.9998Z"/>
</mask>
<path d="M10.653 24.5238L10.1679 22.5836L10.653 24.5238ZM10.8071 24.5476L11.8471 22.8393L10.8071 24.5476ZM6.20179 25.3335L8.14207 25.8185L6.20179 25.3335ZM6.44432 25.576L6.9294 27.5163L6.44432 25.576ZM7.26184 20.8662L9.00827 19.8916L7.26184 20.8662ZM7.28172 21.0137L9.22201 21.4988L7.28172 21.0137ZM23.9993 15.9999C23.9993 20.4182 20.4177 23.9998 15.9996 23.9998V27.9998C22.6269 27.9998 27.9993 22.6272 27.9993 15.9999H23.9993ZM15.9996 8C20.4177 8 23.9993 11.5816 23.9993 15.9999H27.9993C27.9993 9.37259 22.6269 4 15.9996 4V8ZM8 15.9999C8 11.5816 11.5816 8 15.9996 8V4C9.37238 4 4 9.37259 4 15.9999H8ZM9.00827 19.8916C8.36647 18.7416 8 17.4165 8 15.9999H4C4 18.1163 4.54962 20.1104 5.51541 21.8409L9.00827 19.8916ZM8.14207 25.8185L9.22201 21.4988L5.34144 20.5287L4.2615 24.8484L8.14207 25.8185ZM10.1679 22.5836L5.95925 23.6357L6.9294 27.5163L11.1381 26.4641L10.1679 22.5836ZM15.9996 23.9998C14.4753 23.9998 13.0562 23.5754 11.8471 22.8393L9.76707 26.2559C11.5851 27.3627 13.721 27.9998 15.9996 27.9998V23.9998ZM11.1381 26.4641C10.6631 26.5829 10.1702 26.5014 9.76707 26.2559L11.8471 22.8393C11.3516 22.5376 10.7478 22.4386 10.1679 22.5836L11.1381 26.4641ZM4.2615 24.8484C3.85869 26.4596 5.31816 27.9191 6.9294 27.5163L5.95925 23.6357C7.27754 23.3062 8.47164 24.5003 8.14207 25.8185L4.2615 24.8484ZM5.51541 21.8409C5.29661 21.4488 5.22852 20.9803 5.34144 20.5287L9.22201 21.4988C9.35987 20.9474 9.27719 20.3734 9.00827 19.8916L5.51541 21.8409Z" fill="white" mask="url(#path-1-inside-1_18670_44111)"/>
<path d="M13.8105 13.4186C13.8315 12.8972 14.2861 11.8545 15.9375 11.8545C18.0017 11.8545 18.1894 13.137 18.1894 13.9816C18.1894 15.8234 16.0647 16.0938 15.3897 16.1333C15.278 16.1398 15.1873 16.2318 15.1882 16.3437L15.2034 18.1694" stroke="white" stroke-width="2"/>
<circle cx="15.2578" cy="20.1943" r="1" fill="white"/>
</svg>
