<svg width="21" height="20" viewBox="0 0 21 20" fill="none" xmlns="http://www.w3.org/2000/svg">
<path d="M19.5547 6.94C19.5443 6.84813 19.5242 6.75763 19.4947 6.67V6.58C19.4466 6.47718 19.3825 6.38267 19.3047 6.3L13.3047 0.3C13.222 0.222216 13.1275 0.158081 13.0247 0.11C12.9948 0.10576 12.9645 0.10576 12.9347 0.11C12.8331 0.0517412 12.7209 0.0143442 12.6047 0H8.55469C7.75904 0 6.99598 0.316071 6.43337 0.87868C5.87076 1.44129 5.55469 2.20435 5.55469 3V4H4.55469C3.75904 4 2.99598 4.31607 2.43337 4.87868C1.87076 5.44129 1.55469 6.20435 1.55469 7V17C1.55469 17.7956 1.87076 18.5587 2.43337 19.1213C2.99598 19.6839 3.75904 20 4.55469 20H12.5547C13.3503 20 14.1134 19.6839 14.676 19.1213C15.2386 18.5587 15.5547 17.7956 15.5547 17V16H16.5547C17.3503 16 18.1134 15.6839 18.676 15.1213C19.2386 14.5587 19.5547 13.7956 19.5547 13V7V6.94ZM13.5547 3.41L16.1447 6H14.5547C14.2895 6 14.0351 5.89464 13.8476 5.70711C13.66 5.51957 13.5547 5.26522 13.5547 5V3.41ZM13.5547 17C13.5547 17.2652 13.4493 17.5196 13.2618 17.7071C13.0743 17.8946 12.8199 18 12.5547 18H4.55469C4.28947 18 4.03512 17.8946 3.84758 17.7071C3.66004 17.5196 3.55469 17.2652 3.55469 17V7C3.55469 6.73478 3.66004 6.48043 3.84758 6.29289C4.03512 6.10536 4.28947 6 4.55469 6H5.55469V13C5.55469 13.7956 5.87076 14.5587 6.43337 15.1213C6.99598 15.6839 7.75904 16 8.55469 16H13.5547V17ZM17.5547 13C17.5547 13.2652 17.4493 13.5196 17.2618 13.7071C17.0743 13.8946 16.8199 14 16.5547 14H8.55469C8.28947 14 8.03512 13.8946 7.84758 13.7071C7.66004 13.5196 7.55469 13.2652 7.55469 13V3C7.55469 2.73478 7.66004 2.48043 7.84758 2.29289C8.03512 2.10536 8.28947 2 8.55469 2H11.5547V5C11.5547 5.79565 11.8708 6.55871 12.4334 7.12132C12.996 7.68393 13.759 8 14.5547 8H17.5547V13Z" fill="white"/>
</svg>
