<svg width="20" height="20" viewBox="0 0 20 20" fill="none" xmlns="http://www.w3.org/2000/svg">
<path d="M3.44335 18.8308H1.3395C1.21993 18.8308 1.10526 18.7833 1.02072 18.6988C0.936169 18.6142 0.888672 18.4996 0.888672 18.38V4.25413C0.888672 4.13456 0.936169 4.01989 1.02072 3.93535C1.10526 3.8508 1.21993 3.8033 1.3395 3.8033H3.44335C3.56292 3.8033 3.67758 3.8508 3.76213 3.93535C3.84668 4.01989 3.89417 4.13456 3.89417 4.25413V18.38C3.89417 18.4996 3.84668 18.6142 3.76213 18.6988C3.67758 18.7833 3.56292 18.8308 3.44335 18.8308ZM9.30408 8.61211V6.65853C9.30408 6.53896 9.25658 6.42429 9.17204 6.33975C9.08749 6.2552 8.97282 6.2077 8.85325 6.2077H4.9461C4.82653 6.2077 4.71187 6.2552 4.62732 6.33975C4.54277 6.42429 4.49528 6.53896 4.49528 6.65853V8.61211H9.30408ZM4.49528 16.4264V18.38C4.49528 18.4996 4.54277 18.6142 4.62732 18.6988C4.71187 18.7833 4.82653 18.8308 4.9461 18.8308H8.85325C8.97282 18.8308 9.08749 18.7833 9.17204 18.6988C9.25658 18.6142 9.30408 18.4996 9.30408 18.38V16.4264H4.49528ZM4.49528 9.81431H9.30408V15.2242H4.49528V9.81431ZM13.061 18.8308H10.356C10.2364 18.8308 10.1218 18.7833 10.0372 18.6988C9.95268 18.6142 9.90518 18.4996 9.90518 18.38V2.45083C9.90518 2.33126 9.95268 2.21659 10.0372 2.13204C10.1218 2.0475 10.2364 2 10.356 2H13.061C13.1805 2 13.2952 2.0475 13.3797 2.13204C13.4643 2.21659 13.5118 2.33126 13.5118 2.45083V18.38C13.5118 18.4996 13.4643 18.6142 13.3797 18.6988C13.2952 18.7833 13.1805 18.8308 13.061 18.8308ZM14.1505 4.58098L15.2775 18.3999C15.2825 18.4605 15.2997 18.5195 15.3281 18.5732C15.3565 18.627 15.3954 18.6745 15.4427 18.7128C15.4899 18.7511 15.5443 18.7795 15.6028 18.7962C15.6612 18.813 15.7225 18.8177 15.7828 18.8102L18.4938 18.472C18.6092 18.4576 18.7146 18.3991 18.7879 18.3088C18.8612 18.2185 18.8967 18.1033 18.8871 17.9874L17.7571 4.22445C17.7521 4.16467 17.7352 4.10649 17.7075 4.05331C17.6797 4.00013 17.6416 3.95302 17.5955 3.91474C17.5493 3.87647 17.4959 3.84779 17.4385 3.8304C17.3811 3.813 17.3208 3.80724 17.2611 3.81345L14.5513 4.09559C14.4344 4.10822 14.327 4.16605 14.2521 4.25673C14.1772 4.34741 14.1408 4.46377 14.1505 4.58098Z" fill="white"/>
</svg>
