<svg width="21" height="20" viewBox="0 0 21 20" fill="none" xmlns="http://www.w3.org/2000/svg">
<path d="M10.7656 18C13.1231 18 15.384 17.1571 17.051 15.6569C18.718 14.1566 19.6545 12.1217 19.6545 10C19.6545 7.87827 18.718 5.84344 17.051 4.34315C15.384 2.84285 13.1231 2 10.7656 2" fill="white"/>
<path d="M10.7656 18C13.1231 18 15.384 17.1571 17.051 15.6569C18.718 14.1566 19.6545 12.1217 19.6545 10C19.6545 7.87827 18.718 5.84344 17.051 4.34315C15.384 2.84285 13.1231 2 10.7656 2" stroke="#02215F" stroke-width="2.5" stroke-linecap="round"/>
<path d="M1.875 10H12.9861M12.9861 10L9.65278 7M12.9861 10L9.65278 13" stroke="#02215F" stroke-width="2.5" stroke-linecap="round" stroke-linejoin="round"/>
</svg>
