<svg width="331" height="70" viewBox="0 0 331 70" fill="none" xmlns="http://www.w3.org/2000/svg">
<path d="M0 34C0 15.2223 15.2223 0 34 0H297C315.778 0 331 15.2223 331 34V36C331 54.7777 315.778 70 297 70H34C15.2223 70 0 54.7777 0 36V34Z" fill="url(#paint0_linear_7427_174823)"/>
<path d="M136.649 47.252C134.801 47.252 133.145 46.952 131.681 46.352C130.217 45.752 129.041 44.864 128.153 43.688C127.289 42.512 126.833 41.096 126.785 39.44H133.337C133.433 40.376 133.757 41.096 134.309 41.6C134.861 42.08 135.581 42.32 136.469 42.32C137.381 42.32 138.101 42.116 138.629 41.708C139.157 41.276 139.421 40.688 139.421 39.944C139.421 39.32 139.205 38.804 138.773 38.396C138.365 37.988 137.849 37.652 137.225 37.388C136.625 37.124 135.761 36.824 134.633 36.488C133.001 35.984 131.669 35.48 130.637 34.976C129.605 34.472 128.717 33.728 127.973 32.744C127.229 31.76 126.857 30.476 126.857 28.892C126.857 26.54 127.709 24.704 129.413 23.384C131.117 22.04 133.337 21.368 136.073 21.368C138.857 21.368 141.101 22.04 142.805 23.384C144.509 24.704 145.421 26.552 145.541 28.928H138.881C138.833 28.112 138.533 27.476 137.981 27.02C137.429 26.54 136.721 26.3 135.857 26.3C135.113 26.3 134.513 26.504 134.057 26.912C133.601 27.296 133.373 27.86 133.373 28.604C133.373 29.42 133.757 30.056 134.525 30.512C135.293 30.968 136.493 31.46 138.125 31.988C139.757 32.54 141.077 33.068 142.085 33.572C143.117 34.076 144.005 34.808 144.749 35.768C145.493 36.728 145.865 37.964 145.865 39.476C145.865 40.916 145.493 42.224 144.749 43.4C144.029 44.576 142.973 45.512 141.581 46.208C140.189 46.904 138.545 47.252 136.649 47.252ZM161.93 47L155.81 38.576V47H149.654V20.36H155.81V35.084L161.894 26.912H169.49L161.138 36.992L169.562 47H161.93ZM175.004 24.824C173.924 24.824 173.036 24.512 172.34 23.888C171.668 23.24 171.332 22.448 171.332 21.512C171.332 20.552 171.668 19.76 172.34 19.136C173.036 18.488 173.924 18.164 175.004 18.164C176.06 18.164 176.924 18.488 177.596 19.136C178.292 19.76 178.64 20.552 178.64 21.512C178.64 22.448 178.292 23.24 177.596 23.888C176.924 24.512 176.06 24.824 175.004 24.824ZM178.064 26.912V47H171.908V26.912H178.064ZM188.681 29.756C189.281 28.82 190.109 28.064 191.165 27.488C192.221 26.912 193.457 26.624 194.873 26.624C196.529 26.624 198.029 27.044 199.373 27.884C200.717 28.724 201.773 29.924 202.541 31.484C203.333 33.044 203.729 34.856 203.729 36.92C203.729 38.984 203.333 40.808 202.541 42.392C201.773 43.952 200.717 45.164 199.373 46.028C198.029 46.868 196.529 47.288 194.873 47.288C193.481 47.288 192.245 47 191.165 46.424C190.109 45.848 189.281 45.104 188.681 44.192V56.576H182.525V26.912H188.681V29.756ZM197.465 36.92C197.465 35.384 197.033 34.184 196.169 33.32C195.329 32.432 194.285 31.988 193.037 31.988C191.813 31.988 190.769 32.432 189.905 33.32C189.065 34.208 188.645 35.42 188.645 36.956C188.645 38.492 189.065 39.704 189.905 40.592C190.769 41.48 191.813 41.924 193.037 41.924C194.261 41.924 195.305 41.48 196.169 40.592C197.033 39.68 197.465 38.456 197.465 36.92Z" fill="#C0BFBF"/>
<defs>
<linearGradient id="paint0_linear_7427_174823" x1="-2.46614e-06" y1="35" x2="331" y2="35" gradientUnits="userSpaceOnUse">
<stop stop-color="#A80E32"/>
<stop offset="1" stop-color="#BA1B4D"/>
</linearGradient>
</defs>
</svg>
