<svg width="23" height="21" viewBox="0 0 23 21" fill="none" xmlns="http://www.w3.org/2000/svg">
<path fill-rule="evenodd" clip-rule="evenodd" d="M1.21466 0.189474C1.15742 0.188926 1.10065 0.200169 1.04761 0.222553C0.994574 0.244937 0.946332 0.278018 0.90567 0.319885C0.865008 0.361752 0.832732 0.411576 0.810706 0.466479C0.788681 0.521382 0.777341 0.580275 0.777344 0.639757V13.2999C0.777358 13.3858 0.800973 13.4698 0.845409 13.5421C0.889845 13.6145 0.953251 13.6721 1.02816 13.7082L6.51693 16.3577C6.57538 16.386 6.63915 16.4003 6.70361 16.3997C6.76542 16.3992 6.82641 16.3849 6.88249 16.3579L9.14622 15.2648C9.18418 14.8961 9.24624 14.5297 9.34556 14.1756L6.95616 15.3293L6.8922 3.69286L11.8625 1.29357L11.8892 6.12925C12.0511 5.99449 12.2245 5.87542 12.4073 5.77353L12.3822 1.22981L17.244 3.57651V8.75837C17.2449 8.80219 17.2449 8.84603 17.244 8.88985V12.1128C17.4983 12.3127 17.7281 12.5449 17.9183 12.8129C17.9876 12.9093 18.051 13.0089 18.1107 13.1105V3.28941C18.1107 3.20355 18.0871 3.11949 18.0427 3.04711C17.9982 2.97474 17.9348 2.91707 17.8599 2.88091L12.3711 0.23144C12.3126 0.203172 12.2487 0.188834 12.1842 0.189474C12.1225 0.190037 12.0617 0.204283 12.0057 0.23126L6.69945 2.79265L1.3932 0.23144C1.33724 0.204401 1.27637 0.190093 1.21466 0.189474ZM1.64401 1.34544L6.37168 3.62748L6.43598 15.3258L1.64401 13.0121V1.34544Z" fill="white"/>
<path d="M16.9999 5.2832C14.9287 5.2832 13.25 6.93265 13.25 8.96719C13.25 11.0017 14.9287 12.6512 16.9999 12.6512C19.0706 12.6512 20.7498 11.0017 20.7498 8.96719C20.7498 6.93265 19.0706 5.2832 16.9999 5.2832ZM16.9999 13.1971C12.8575 13.1971 11 15.0222 11 19.0915V19.5827C11.0187 20.5504 11.4542 20.5789 12.375 20.5651H21.6248C22.7985 20.5641 23.0078 20.5663 22.9998 19.5827V19.0915C22.9998 15.0222 21.1418 13.1971 16.9999 13.1971Z" fill="white"/>
</svg>
