<svg width="18" height="17" viewBox="0 0 18 17" fill="none" xmlns="http://www.w3.org/2000/svg">
<path d="M0 14.6648C0 15.1271 0.17779 15.5705 0.494257 15.8974C0.810725 16.2243 1.23995 16.4079 1.6875 16.4079H16.3125C16.7601 16.4079 17.1893 16.2243 17.5057 15.8974C17.8222 15.5705 18 15.1271 18 14.6648V6.53016C18 6.06785 17.8222 5.62448 17.5057 5.29758C17.1893 4.97067 16.7601 4.78702 16.3125 4.78702H1.6875C1.23995 4.78702 0.810725 4.97067 0.494257 5.29758C0.17779 5.62448 0 6.06785 0 6.53016L0 14.6648ZM2.25 3.04389C2.25 3.19799 2.30926 3.34579 2.41475 3.45475C2.52024 3.56372 2.66332 3.62494 2.8125 3.62494H15.1875C15.3367 3.62494 15.4798 3.56372 15.5852 3.45475C15.6907 3.34579 15.75 3.19799 15.75 3.04389C15.75 2.88979 15.6907 2.742 15.5852 2.63303C15.4798 2.52407 15.3367 2.46285 15.1875 2.46285H2.8125C2.66332 2.46285 2.52024 2.52407 2.41475 2.63303C2.30926 2.742 2.25 2.88979 2.25 3.04389ZM4.5 0.719716C4.5 0.873818 4.55926 1.02161 4.66475 1.13058C4.77024 1.23954 4.91332 1.30076 5.0625 1.30076H12.9375C13.0867 1.30076 13.2298 1.23954 13.3352 1.13058C13.4407 1.02161 13.5 0.873818 13.5 0.719716C13.5 0.565613 13.4407 0.417823 13.3352 0.308856C13.2298 0.199889 13.0867 0.138672 12.9375 0.138672H5.0625C4.91332 0.138672 4.77024 0.199889 4.66475 0.308856C4.55926 0.417823 4.5 0.565613 4.5 0.719716Z" fill="white"/>
</svg>
