<svg width="32" height="32" viewBox="0 0 32 32" fill="none" xmlns="http://www.w3.org/2000/svg">
<path fill-rule="evenodd" clip-rule="evenodd" d="M20.7952 11.8596L19.3217 12.5576L18.5961 12.9013L14.7963 14.7012C14.7546 14.721 14.721 14.7546 14.7012 14.7963L12.9013 18.5961L12.5576 19.3217L11.8596 20.7952L11.7895 20.9432C11.7091 21.113 11.8861 21.29 12.0559 21.2096L12.2039 21.1395L13.6774 20.4415L14.403 20.0978L18.2028 18.2979C18.2445 18.2781 18.2781 18.2445 18.2979 18.2028L20.0978 14.403L20.4415 13.6774L21.1395 12.2039L21.2096 12.0559C21.29 11.8861 21.113 11.7091 20.9432 11.7895L20.7952 11.8596ZM17.1932 15.7789L17.2445 15.7546L17.2202 15.8059C17.3934 15.9857 17.4999 16.2302 17.4999 16.4996C17.4999 17.0519 17.0522 17.4996 16.4999 17.4996C16.2306 17.4996 15.9862 17.3931 15.8064 17.22L15.7546 17.2445L15.7791 17.1927C15.6062 17.013 15.4999 16.7687 15.4999 16.4996C15.4999 15.9473 15.9476 15.4996 16.4999 15.4996C16.7691 15.4996 17.0134 15.6059 17.1932 15.7789Z" fill="#384466"/>
<path d="M25.4993 16.4999C25.4993 21.4704 21.47 25.4998 16.4996 25.4998C11.5293 25.4998 7.5 21.4704 7.5 16.4999C7.5 11.5294 11.5293 7.5 16.4996 7.5C21.47 7.5 25.4993 11.5294 25.4993 16.4999Z" stroke="#384466" stroke-width="2"/>
</svg>
