<svg width="32" height="32" viewBox="0 0 32 32" fill="none" xmlns="http://www.w3.org/2000/svg">
<mask id="path-1-inside-1_13507_94013" fill="white">
<path fill-rule="evenodd" clip-rule="evenodd" d="M23.9993 15.9999C23.9993 20.4182 20.4177 23.9998 15.9996 23.9998C11.5816 23.9998 8 20.4182 8 15.9999C8 11.5816 11.5816 8 15.9996 8C20.4177 8 23.9993 11.5816 23.9993 15.9999ZM25.9993 15.9999C25.9993 21.5227 21.5223 25.9998 15.9996 25.9998C14.0982 25.9998 12.3206 25.4691 10.8071 24.5476C10.7609 24.5195 10.7054 24.5107 10.653 24.5238L6.44432 25.576C6.29785 25.6126 6.16517 25.4799 6.20179 25.3335L7.28172 21.0137C7.2942 20.9638 7.2869 20.9111 7.26184 20.8662C6.45804 19.426 6 17.7664 6 15.9999C6 10.4771 10.477 6 15.9996 6C21.5223 6 25.9993 10.4771 25.9993 15.9999Z"/>
</mask>
<path d="M7.28172 21.0137L9.22201 21.4988L7.28172 21.0137ZM7.26184 20.8662L5.51541 21.8409L7.26184 20.8662ZM6.44432 25.576L6.9294 27.5163L6.44432 25.576ZM6.20179 25.3335L8.14207 25.8185L6.20179 25.3335ZM10.8071 24.5476L11.8471 22.8393L10.8071 24.5476ZM10.653 24.5238L10.1679 22.5836L10.653 24.5238ZM15.9996 25.9998C21.5223 25.9998 25.9993 21.5227 25.9993 15.9999H21.9993C21.9993 19.3137 19.3131 21.9998 15.9996 21.9998V25.9998ZM6 15.9999C6 21.5227 10.477 25.9998 15.9996 25.9998V21.9998C12.6862 21.9998 10 19.3137 10 15.9999H6ZM15.9996 6C10.477 6 6 10.4771 6 15.9999H10C10 12.6862 12.6862 10 15.9996 10V6ZM25.9993 15.9999C25.9993 10.4771 21.5223 6 15.9996 6V10C19.3131 10 21.9993 12.6862 21.9993 15.9999H25.9993ZM15.9996 27.9998C22.6269 27.9998 27.9993 22.6272 27.9993 15.9999H23.9993C23.9993 20.4182 20.4177 23.9998 15.9996 23.9998V27.9998ZM9.76707 26.2559C11.5851 27.3627 13.721 27.9998 15.9996 27.9998V23.9998C14.4753 23.9998 13.0562 23.5754 11.8471 22.8393L9.76707 26.2559ZM10.1679 22.5836L5.95925 23.6357L6.9294 27.5163L11.1381 26.4641L10.1679 22.5836ZM8.14207 25.8185L9.22201 21.4988L5.34144 20.5287L4.2615 24.8484L8.14207 25.8185ZM4 15.9999C4 18.1163 4.54962 20.1104 5.51541 21.8409L9.00827 19.8916C8.36647 18.7416 8 17.4165 8 15.9999H4ZM15.9996 4C9.37238 4 4 9.37259 4 15.9999H8C8 11.5816 11.5816 8 15.9996 8V4ZM27.9993 15.9999C27.9993 9.37259 22.6269 4 15.9996 4V8C20.4177 8 23.9993 11.5816 23.9993 15.9999H27.9993ZM9.22201 21.4988C9.35987 20.9474 9.27719 20.3734 9.00827 19.8916L5.51541 21.8409C5.29661 21.4488 5.22852 20.9803 5.34144 20.5287L9.22201 21.4988ZM5.95925 23.6357C7.27754 23.3062 8.47164 24.5003 8.14207 25.8185L4.2615 24.8484C3.85869 26.4596 5.31816 27.9191 6.9294 27.5163L5.95925 23.6357ZM11.8471 22.8393C11.3516 22.5376 10.7478 22.4386 10.1679 22.5836L11.1381 26.4641C10.6631 26.5829 10.1702 26.5014 9.76707 26.2559L11.8471 22.8393Z" fill="#384466" mask="url(#path-1-inside-1_13507_94013)"/>
<path d="M13.8105 13.4181C13.8315 12.8967 14.2861 11.854 15.9375 11.854C18.0017 11.854 18.1894 13.1365 18.1894 13.9811C18.1894 15.8229 16.0647 16.0933 15.3897 16.1328C15.278 16.1393 15.1873 16.2313 15.1882 16.3432L15.2034 18.1689" stroke="#384466" stroke-width="2"/>
<circle cx="15.2578" cy="20.1943" r="1" fill="#384466"/>
</svg>
