<svg width="32" height="32" viewBox="0 0 32 32" fill="none" xmlns="http://www.w3.org/2000/svg">
<path d="M13.9979 9.72414L17.8682 7.76683L18.5597 12.0485L19.5469 11.8891L18.5597 12.0485C18.6097 12.3582 18.7555 12.6443 18.9766 12.8668L22.0342 15.9429L18.1757 17.9236C17.8967 18.0669 17.6696 18.294 17.5263 18.573L15.5456 22.4315L12.4695 19.3739C12.247 19.1528 11.9608 19.007 11.6512 18.957L7.36953 18.2655L9.32683 14.3952C9.46839 14.1153 9.51864 13.798 9.4705 13.4881L8.805 9.20231L13.0908 9.86781C13.4007 9.91594 13.718 9.86569 13.9979 9.72414ZM22.5162 16.4279C22.5161 16.4277 22.5159 16.4276 22.5157 16.4274L22.5162 16.4279ZM22.6419 15.6309C22.6421 15.6308 22.6423 15.6307 22.6425 15.6306L22.6419 15.6309ZM18.4778 7.45859L18.4785 7.45823L18.2528 7.01204L18.4785 7.45823C18.4782 7.45835 18.478 7.45847 18.4778 7.45859Z" stroke="#384466" stroke-width="2"/>
<path d="M20.1738 20.1372L24.2171 24.2712" stroke="#384466" stroke-width="2"/>
</svg>
