<svg width="32" height="32" viewBox="0 0 32 32" fill="none" xmlns="http://www.w3.org/2000/svg">
<circle cx="16" cy="16" r="16" fill="#32285A"/>
<path d="M5.45797 18.1032L5.9051 20.2983C5.93497 20.4446 5.90897 20.5795 5.82727 20.7027C5.74557 20.826 5.63291 20.9022 5.48929 20.9314C5.34275 20.9612 5.20775 20.9353 5.08429 20.8537C4.96082 20.7721 4.88423 20.6581 4.85444 20.5118L3.78201 15.2479C3.75456 15.098 3.78077 14.9646 3.8608 14.8478C3.94308 14.7274 4.05691 14.6495 4.20228 14.6138L7.49512 13.9449C8.2027 13.8225 8.77344 14.0022 9.20736 14.484C9.43225 14.7339 9.57813 15.0228 9.64486 15.3506C9.66991 15.4736 9.68356 15.6003 9.68575 15.7309C9.69619 16.2318 9.54797 16.6505 9.24117 16.9871C9.00037 17.2433 8.68269 17.4221 8.28827 17.5236L9.80907 19.2355C9.87033 19.3114 9.91019 19.3947 9.92867 19.4855C9.93765 19.5294 9.94247 19.5757 9.9432 19.6242C9.93378 19.7725 9.87172 19.8948 9.75701 19.9913C9.68509 20.0577 9.60514 20.0998 9.51723 20.1177C9.47036 20.1272 9.42049 20.1297 9.3677 20.1252C9.21985 20.1186 9.09792 20.0596 9.00198 19.948L7.07581 17.7745L5.45797 18.1032ZM5.24331 17.0496L8.01301 16.4868C8.36413 16.4124 8.562 16.2153 8.60668 15.8953C8.61982 15.7951 8.61661 15.6967 8.5969 15.6001C8.57368 15.4859 8.52666 15.3751 8.45591 15.2676C8.31441 15.0525 8.12961 14.9544 7.90152 14.9733L7.70978 14.9985L4.94008 15.5613L5.24331 17.0496ZM8.88815 14.5351C8.53973 14.1731 8.0885 14.0483 7.53455 14.1609C7.46716 14.1746 7.39889 14.1915 7.32975 14.2117C7.27878 14.2311 7.25593 14.2541 7.26133 14.2804C7.26849 14.3156 7.29988 14.3274 7.35559 14.3161C7.80171 14.2438 8.29301 14.3482 8.82952 14.6293C8.86296 14.6439 8.88851 14.6494 8.90611 14.6458C8.91195 14.6446 8.91838 14.6387 8.92539 14.6281C8.93006 14.6211 8.93123 14.6117 8.92882 14.6C8.92524 14.5824 8.91166 14.5608 8.88815 14.5351Z" fill="white"/>
<path d="M11.5531 17.3314C11.5823 17.4748 11.5561 17.6081 11.4744 17.7314C11.3933 17.8576 11.2794 17.9356 11.1329 17.9653C10.9893 17.9945 10.8554 17.9669 10.7314 17.8824C10.6079 17.8007 10.5316 17.6882 10.5024 17.5448L9.78594 14.0282C9.75674 13.8848 9.78302 13.7514 9.86473 13.6281C9.94584 13.5019 10.0582 13.4243 10.2018 13.3951C10.3484 13.3653 10.4837 13.3927 10.6077 13.4772C10.7312 13.5588 10.8075 13.6713 10.8367 13.8147L11.5531 17.3314ZM10.6322 13.71C10.5592 13.6212 10.4661 13.5685 10.3527 13.5519C10.2994 13.5444 10.2492 13.5455 10.2023 13.555C10.1613 13.5633 10.1247 13.5784 10.0925 13.6001C10.0656 13.6179 10.053 13.6311 10.0548 13.6398C10.0409 13.6914 10.036 13.7275 10.0402 13.7479C10.0426 13.7597 10.0497 13.7643 10.0614 13.7619C10.1141 13.736 10.1624 13.7186 10.2064 13.7097C10.3471 13.6811 10.4654 13.7302 10.5614 13.8569C10.5755 13.8663 10.5855 13.8704 10.5914 13.8691C10.6257 13.7982 10.6441 13.7609 10.6465 13.7574C10.6488 13.7538 10.6493 13.7492 10.6482 13.7433C10.6464 13.7345 10.6411 13.7234 10.6322 13.71Z" fill="white"/>
<path d="M12.7655 17.0897C12.6932 17.0495 12.6197 17.0035 12.5451 16.9516C12.0371 16.6006 11.7208 16.1193 11.5962 15.5076L11.5899 15.4768C11.4676 14.8464 11.5795 14.272 11.9256 13.7536C12.1842 13.3598 12.5345 13.0721 12.9768 12.8909C13.1238 12.8336 13.2721 12.7897 13.4216 12.7593C13.7176 12.6992 14.0194 12.6974 14.327 12.7537C14.7818 12.8442 15.1776 13.0564 15.5142 13.3903C15.845 13.7255 16.058 14.1196 16.1534 14.5727C16.244 15.0175 16.2038 15.4569 16.0328 15.891C15.8618 16.325 15.5923 16.6724 15.2241 16.9331C14.9567 17.1185 14.6609 17.2472 14.3367 17.3191C14.021 17.4321 13.8067 17.5487 13.6939 17.6692C13.5132 17.8461 13.3984 18.0614 13.3494 18.3152C13.3217 18.4793 13.324 18.6404 13.3562 18.7984C13.3729 18.8804 13.397 18.9609 13.4283 19.0398C13.5413 19.3095 13.7323 19.513 14.0013 19.6503C14.2652 19.7919 14.5437 19.8328 14.8367 19.7733C14.9804 19.7441 15.1139 19.7703 15.2374 19.8519C15.3643 19.9358 15.4424 20.0495 15.4717 20.1929C15.5009 20.3363 15.4734 20.4714 15.3894 20.5982C15.3077 20.7215 15.195 20.7978 15.0514 20.8269C14.5936 20.9169 14.1453 20.8738 13.7066 20.6978C13.2607 20.5171 12.9105 20.2362 12.6558 19.8552C12.4814 19.5981 12.3643 19.323 12.3047 19.0304C12.2731 18.8753 12.2576 18.7168 12.2583 18.5552C12.2561 18.0801 12.3834 17.6489 12.6402 17.2614C12.6799 17.2016 12.7217 17.1443 12.7655 17.0897ZM14.1222 16.2655C14.458 16.1911 14.7205 16.0113 14.9096 15.726C15.104 15.4366 15.1668 15.1236 15.0983 14.7869C15.0399 14.5002 14.8951 14.2613 14.6639 14.0706C14.4298 13.8804 14.1661 13.7846 13.8728 13.7832C13.7813 13.7835 13.6931 13.7923 13.6081 13.8096C13.3765 13.8566 13.1693 13.9703 12.9863 14.1508C12.7378 14.3994 12.6133 14.6944 12.6126 15.0359C12.6129 15.1273 12.6214 15.214 12.6381 15.2959C12.6947 15.574 12.8416 15.8078 13.0786 15.9974C13.3856 16.2459 13.7334 16.3352 14.1222 16.2655ZM14.9614 13.306C14.7795 13.1175 14.536 13.0008 14.2308 12.9561C14.0383 12.9251 13.8556 12.9272 13.6827 12.9623C13.6035 12.9784 13.5259 13.0018 13.4498 13.0325C13.3988 13.052 13.3757 13.0734 13.3805 13.0968L13.3814 13.1013C13.3879 13.1334 13.4182 13.1471 13.4721 13.1423C13.9893 13.089 14.4659 13.1735 14.9019 13.3959C14.936 13.4134 14.9617 13.4203 14.9793 13.4167C14.9852 13.4155 14.992 13.4111 14.9996 13.4034C15.0036 13.3934 15.0045 13.3827 15.0021 13.3709C14.9985 13.3533 14.985 13.3318 14.9614 13.306ZM15.2592 20.0715C15.1862 19.9827 15.093 19.93 14.9798 19.9133C14.9263 19.9059 14.8762 19.907 14.8293 19.9165C14.7883 19.9249 14.7517 19.9399 14.7195 19.9617C14.6925 19.9793 14.6674 20.0134 14.6441 20.0638C14.633 20.0844 14.6287 20.1005 14.6311 20.1122C14.6341 20.1268 14.6503 20.1312 14.6795 20.1252L14.6883 20.1235C14.741 20.0975 14.7894 20.0801 14.8333 20.0711C14.974 20.0425 15.0924 20.0917 15.1884 20.2185C15.1955 20.2231 15.202 20.2248 15.2078 20.2236C15.2225 20.2207 15.2365 20.2072 15.2498 20.1831C15.2709 20.1514 15.2796 20.1267 15.2761 20.1092L15.2751 20.1048C15.2734 20.0961 15.268 20.0849 15.2592 20.0715Z" fill="white"/>
<path d="M15.827 10.9816C15.7978 10.8382 15.824 10.7049 15.9057 10.5816C15.9897 10.4548 16.1035 10.3768 16.2472 10.3476C16.3908 10.3185 16.5261 10.3458 16.653 10.4297C16.7765 10.5114 16.8529 10.6239 16.8821 10.7673L17.2067 12.3609C17.5435 12.0365 17.9244 11.8311 18.3494 11.7448C18.5047 11.7132 18.6648 11.6974 18.8297 11.6974C19.293 11.6947 19.7196 11.8261 20.1094 12.0912C20.4815 12.3448 20.7677 12.686 20.968 13.1147L21.1094 13.5614L21.4671 15.3175C21.497 15.4639 21.471 15.5987 21.3893 15.722C21.3047 15.8459 21.1905 15.9223 21.0469 15.9516C20.9033 15.9807 20.7683 15.9548 20.6419 15.8738C20.5185 15.7922 20.4419 15.6782 20.412 15.5319L20.0542 13.7758C19.8952 13.2198 19.5691 12.8929 19.0761 12.7949C18.9106 12.7615 18.7487 12.7609 18.5905 12.793C18.5055 12.8103 18.4237 12.836 18.3452 12.8703C18.1092 12.9701 17.9208 13.1242 17.7801 13.3326C17.6896 13.4729 17.6283 13.6209 17.5959 13.7769C17.5821 13.8437 17.5824 14.0098 17.5967 14.2751L17.9544 16.0312C17.9843 16.1775 17.9583 16.3123 17.8766 16.4356C17.792 16.5594 17.6779 16.636 17.5342 16.6652C17.3906 16.6943 17.2556 16.6685 17.1292 16.5874C17.0058 16.5059 16.9291 16.3919 16.8993 16.2456L15.827 10.9816ZM16.667 10.6555C16.594 10.5667 16.5008 10.514 16.3876 10.4974C16.3342 10.4899 16.284 10.491 16.2372 10.5005C16.1961 10.5089 16.1595 10.5239 16.1273 10.5457C16.1004 10.5634 16.0753 10.5974 16.052 10.6479C16.0409 10.6684 16.0365 10.6845 16.0389 10.6962C16.0419 10.7109 16.0581 10.7152 16.0873 10.7093L16.0962 10.7074C16.1489 10.6816 16.1972 10.6641 16.2412 10.6552C16.3819 10.6266 16.5002 10.6756 16.5962 10.8024C16.6033 10.8071 16.6098 10.8089 16.6156 10.8077C16.6303 10.8047 16.6443 10.7912 16.6577 10.7672C16.6787 10.7354 16.6874 10.7108 16.6839 10.6932L16.683 10.6888C16.6812 10.6801 16.6758 10.6689 16.667 10.6555ZM19.9068 12.265C19.7249 12.0764 19.4813 11.9598 19.1762 11.9151C18.9836 11.8841 18.801 11.8861 18.628 11.9213C18.5489 11.9374 18.4712 11.9608 18.3951 11.9915C18.3441 12.011 18.321 12.0325 18.3258 12.0559L18.3267 12.0603C18.3332 12.0924 18.3635 12.1061 18.4174 12.1012C18.9346 12.048 19.4112 12.1325 19.8472 12.3548C19.8813 12.3723 19.9071 12.3792 19.9247 12.3757C19.9306 12.3745 19.9373 12.3701 19.9449 12.3624C19.949 12.3525 19.9498 12.3416 19.9474 12.3299C19.9438 12.3124 19.9303 12.2907 19.9068 12.265Z" fill="white"/>
<path d="M24.4646 15.257C23.9957 15.3522 23.5312 15.3049 23.0713 15.1148C22.5762 14.9167 22.2425 14.605 22.0704 14.1798L21.7765 13.0736L21.5993 12.1815L21.5114 12.1994C21.3677 12.2286 21.2345 12.2038 21.1117 12.1251C20.9853 12.0441 20.9069 11.929 20.8764 11.7797C20.8473 11.6363 20.875 11.5027 20.9597 11.3788C21.0407 11.2526 21.1532 11.1749 21.2967 11.1458L21.3846 11.1279L21.1351 9.90297C21.1059 9.75955 21.1319 9.62473 21.213 9.49852C21.2947 9.3753 21.4088 9.29874 21.5553 9.269C21.7019 9.23917 21.8358 9.26688 21.9568 9.35197C22.0832 9.43298 22.161 9.54519 22.1902 9.68861L22.4354 10.9144L23.1608 10.7671C23.3044 10.7378 23.4382 10.7655 23.5623 10.85C23.6887 10.931 23.7664 11.0432 23.7956 11.1867C23.826 11.3359 23.799 11.4725 23.7143 11.5964C23.632 11.7167 23.519 11.7915 23.3755 11.8207L22.65 11.9681L22.8315 12.8593C22.8382 12.8915 22.8581 12.9971 22.8916 13.1763C22.9024 13.2442 22.9131 13.3045 22.9238 13.3572C22.9351 13.4127 22.9467 13.4623 22.9587 13.5056C23.031 13.756 23.1504 13.9298 23.3167 14.0272C23.6136 14.2107 23.9246 14.2694 24.25 14.2033C24.3965 14.1735 24.5312 14.198 24.6541 14.2767C24.7781 14.3612 24.8551 14.4766 24.8849 14.6229C24.9147 14.7693 24.8888 14.9041 24.807 15.0274C24.7253 15.1507 24.6112 15.2272 24.4646 15.257ZM21.9795 9.57596C21.9065 9.48715 21.8133 9.43451 21.7002 9.41788C21.6467 9.41045 21.5966 9.41147 21.5497 9.42102C21.5087 9.42933 21.4721 9.44442 21.4398 9.46615C21.4129 9.4838 21.3858 9.51522 21.3584 9.56043C21.3513 9.58624 21.3491 9.60498 21.3515 9.61671C21.3545 9.63137 21.3707 9.63567 21.3999 9.62969L21.4087 9.62794C21.4614 9.60199 21.5097 9.58456 21.5537 9.57559C21.6944 9.54701 21.8128 9.59615 21.9088 9.72295C21.9158 9.72761 21.9224 9.72936 21.9281 9.72812C21.9428 9.72513 21.9568 9.71165 21.9703 9.68758C21.9913 9.65587 22 9.63122 21.9964 9.61372L21.9956 9.60928C21.9938 9.60053 21.9884 9.58945 21.9795 9.57596ZM23.5806 11.0521C23.5076 10.9633 23.4143 10.9105 23.3011 10.894C23.2477 10.8866 23.1975 10.8876 23.1506 10.8971L22.9396 10.94C22.9215 10.9711 22.9148 10.9983 22.9196 11.0217C22.9208 11.0276 22.9237 11.0346 22.9285 11.0428C22.9462 11.0697 22.9773 11.0801 23.0219 11.0742C23.0665 11.0681 23.1107 11.0607 23.1547 11.0517C23.2953 11.0231 23.4137 11.0723 23.5097 11.1991C23.5168 11.2037 23.5233 11.2055 23.5291 11.2042C23.5438 11.2012 23.5579 11.1878 23.5712 11.1637C23.5922 11.132 23.6009 11.1073 23.5974 11.0898L23.5964 11.0854C23.5947 11.0766 23.5894 11.0656 23.5806 11.0521Z" fill="white"/>
<path d="M18.2 17.5747C17.6579 17.6595 17.2198 17.925 16.8857 18.3712C16.5555 18.8255 16.431 19.3284 16.5121 19.8799C16.5813 20.3502 16.7937 20.751 17.1493 21.0822C17.5053 21.4164 17.9173 21.595 18.3853 21.6182C18.5271 21.6261 18.6643 21.6204 18.7966 21.6011C19.1742 21.546 19.5186 21.3799 19.8297 21.1029C20.2475 20.7274 20.4692 20.2632 20.4949 19.7105C20.5022 19.5693 20.496 19.4315 20.4762 19.2972C20.4301 18.9836 20.3106 18.6879 20.1177 18.4101C19.8401 18.0159 19.4767 17.7559 19.0274 17.6298C18.7601 17.5544 18.4844 17.536 18.2 17.5747ZM18.0601 16.5656C18.9027 16.457 19.6516 16.658 20.3067 17.1686C20.7035 17.4739 21.0079 17.8585 21.2197 18.3222C21.3444 18.5957 21.4279 18.8766 21.4703 19.165C21.4996 19.3637 21.5081 19.5655 21.496 19.7703C21.4664 20.3722 21.2696 20.92 20.9059 21.4134C20.5452 21.9092 20.0855 22.258 19.5268 22.4597C19.3373 22.5302 19.1447 22.5797 18.9489 22.6082C18.6624 22.6501 18.3678 22.6473 18.0651 22.6C17.5618 22.5276 17.1086 22.3364 16.7054 22.0263C16.2184 21.6627 15.8724 21.187 15.6678 20.5992C15.5991 20.4005 15.5499 20.2004 15.5203 19.9988C15.4635 19.6125 15.4823 19.2237 15.5767 18.8325C15.7208 18.2424 16.0185 17.74 16.4699 17.3252C16.9166 16.9169 17.437 16.6652 18.0311 16.5699L18.0601 16.5656ZM20.1256 17.3152C19.9616 17.1189 19.6751 16.9605 19.266 16.8401C18.9395 16.7448 18.6728 16.7122 18.4661 16.7423C18.4192 16.7492 18.3756 16.7584 18.335 16.77C18.2871 16.7885 18.2645 16.8075 18.2674 16.8271C18.2724 16.8606 18.3012 16.8751 18.354 16.8702C18.8749 16.8514 19.4467 17.0254 20.0693 17.392C20.0978 17.4136 20.1204 17.4232 20.1369 17.4208C20.1451 17.4195 20.1514 17.4143 20.1557 17.4052C20.1604 17.3987 20.1617 17.3885 20.1597 17.3745C20.1572 17.3578 20.1458 17.3379 20.1256 17.3152Z" fill="#FF3A6A"/>
<path d="M21.6329 18.0827C21.6052 17.9468 21.6306 17.8204 21.7091 17.7034C21.7843 17.5841 21.8887 17.5109 22.0225 17.4838C22.2682 17.4339 22.4494 17.5212 22.5662 17.7458C22.8713 17.4441 23.2366 17.2487 23.6619 17.1594C24.0904 17.0724 24.5047 17.1108 24.9048 17.275C25.4195 17.4852 25.8096 17.8651 26.075 18.4147C26.1382 18.5433 26.1884 18.6991 26.2257 18.8821L26.5646 20.5457C26.5928 20.6844 26.5691 20.8119 26.4933 20.9284C26.4203 21.0443 26.3142 21.1164 26.175 21.1446C26.0412 21.1718 25.9167 21.1466 25.8014 21.069C25.6834 20.9919 25.6102 20.8841 25.582 20.7454L25.243 19.0817C25.1956 18.8489 25.0877 18.647 24.9193 18.4762C24.7476 18.3032 24.5493 18.1948 24.3244 18.1509C24.1673 18.1193 24.0164 18.1182 23.8717 18.1476C23.7352 18.1753 23.6031 18.2311 23.4752 18.3148C23.2133 18.4806 23.0448 18.714 22.9698 19.0152C22.9265 19.1799 22.9214 19.3571 22.9544 19.5467L23.2934 21.2103C23.3215 21.349 23.2978 21.4765 23.222 21.593C23.1463 21.7094 23.0402 21.7815 22.9037 21.8092C22.7699 21.8364 22.6454 21.8112 22.5302 21.7336C22.4121 21.6565 22.3389 21.5487 22.3107 21.41L21.6329 18.0827ZM25.1395 17.6734C24.9749 17.4932 24.7503 17.3815 24.4657 17.3383C24.2836 17.3088 24.1133 17.3102 23.955 17.3424C23.8786 17.3579 23.8063 17.3798 23.7382 17.4081C23.6907 17.4264 23.6692 17.4466 23.6738 17.4688L23.6746 17.473C23.6808 17.5035 23.709 17.5165 23.7593 17.5121C24.2384 17.4638 24.6828 17.5453 25.0925 17.7566C25.1216 17.7738 25.1443 17.7808 25.1607 17.7774C25.1689 17.7758 25.1751 17.7717 25.1795 17.7649C25.186 17.755 25.1884 17.7458 25.1867 17.7375C25.1827 17.7181 25.167 17.6968 25.1395 17.6734ZM22.4137 17.7508C22.3454 17.6665 22.2583 17.6164 22.1528 17.6002C22.103 17.593 22.0563 17.5938 22.0126 17.6027C21.9744 17.6105 21.9404 17.6247 21.9104 17.6452C21.8854 17.6618 21.8621 17.6939 21.8405 17.7416C21.8302 17.7611 21.8263 17.7763 21.8286 17.7874C21.8313 17.8013 21.8464 17.8054 21.8737 17.7999L21.8819 17.7982C21.9309 17.7738 21.9759 17.7574 22.0169 17.7491C22.1479 17.7225 22.2583 17.7694 22.3482 17.8897C22.3548 17.8941 22.3608 17.8958 22.3663 17.8947C22.38 17.892 22.393 17.8792 22.4053 17.8565C22.4249 17.8265 22.4329 17.8032 22.4295 17.7865L22.4287 17.7824C22.427 17.7741 22.422 17.7636 22.4137 17.7508Z" fill="#FF3A6A"/>
<path d="M27.8019 18.6163C27.8294 18.7511 27.8083 18.876 27.7386 18.9912C27.6679 19.101 27.5686 19.1688 27.4409 19.1948C27.3157 19.2202 27.1991 19.1963 27.091 19.1228C26.9819 19.0439 26.9135 18.9371 26.8861 18.8024L26.229 15.5768C26.202 15.4448 26.2237 15.3226 26.2939 15.2101C26.3635 15.0949 26.4609 15.0246 26.5862 14.9991C26.7139 14.9732 26.8324 14.9996 26.9415 15.0785C27.0502 15.1547 27.1179 15.2588 27.1448 15.3907L27.8019 18.6163ZM27.7711 20.8156C27.6459 20.8411 27.5291 20.8157 27.4204 20.7396C27.3113 20.6608 27.2432 20.5553 27.2163 20.4233C27.1894 20.2913 27.2111 20.169 27.2812 20.0565C27.3509 19.9413 27.4483 19.871 27.5734 19.8457C27.7012 19.8197 27.8196 19.8461 27.9288 19.9249C28.0375 20.0011 28.1052 20.1052 28.1321 20.2372C28.1591 20.3693 28.1376 20.4929 28.068 20.6081C27.9979 20.7205 27.8989 20.7898 27.7711 20.8156ZM26.9619 15.2764C26.8972 15.1941 26.8151 15.1435 26.7154 15.1244C26.6687 15.1171 26.6262 15.1173 26.5878 15.1251C26.5495 15.1329 26.5165 15.1466 26.4885 15.1663C26.4703 15.1813 26.462 15.1927 26.4636 15.2008L26.4661 15.213C26.4688 15.2264 26.4804 15.2311 26.5009 15.2269C26.6593 15.1948 26.8064 15.2252 26.9425 15.3183C26.9544 15.3243 26.9628 15.3267 26.9679 15.3257C26.9705 15.3252 26.9728 15.3233 26.9747 15.3201C26.9793 15.3164 26.9813 15.3132 26.9808 15.3105C26.9787 15.2997 26.9723 15.2883 26.9619 15.2764ZM27.9847 20.0819C27.9201 19.9997 27.8383 19.9503 27.7391 19.934C27.6924 19.9266 27.6486 19.9271 27.6078 19.9354C27.5721 19.9427 27.5402 19.9561 27.5123 19.9759C27.4889 19.9919 27.4673 20.0229 27.4475 20.069C27.4379 20.0878 27.4343 20.1026 27.4365 20.1133C27.4392 20.1268 27.4534 20.131 27.4789 20.1257L27.4866 20.1242C27.5324 20.1009 27.5744 20.0853 27.6127 20.0775C27.7354 20.0526 27.8392 20.0988 27.9243 20.2163C27.9306 20.2206 27.9362 20.2223 27.9413 20.2213C27.9541 20.2186 27.9662 20.2064 27.9777 20.1844C27.9958 20.1555 28.0031 20.1329 27.9998 20.1168L27.999 20.1127C27.9974 20.1046 27.9926 20.0944 27.9847 20.0819Z" fill="#FF3A6A"/>
<path d="M9.76745 11.3715L10.3337 10.4706C10.3755 10.4022 10.4353 10.3592 10.5131 10.3416C10.5894 10.3243 10.6612 10.3374 10.7284 10.381C10.7953 10.4231 10.8374 10.4822 10.8547 10.5584C10.8727 10.6378 10.8607 10.7107 10.8186 10.7775L10.2518 11.6762L11.1517 12.2422C11.219 12.2859 11.2614 12.3465 11.2791 12.4243C11.2964 12.5004 11.2842 12.5727 11.2424 12.641C11.2003 12.7078 11.1411 12.7499 11.0648 12.7672C10.987 12.7848 10.9146 12.7726 10.8478 12.7306L9.94677 12.1599L9.37631 13.0643C9.33419 13.1311 9.27497 13.1731 9.19875 13.1904C9.12084 13.2081 9.04848 13.1959 8.9816 13.1538C8.91443 13.1102 8.87216 13.0503 8.85478 12.9741C8.83711 12.8964 8.84916 12.8233 8.89092 12.755L9.45773 11.8563L8.55776 11.2903C8.49088 11.2483 8.44846 11.1876 8.43042 11.1083C8.41312 11.0321 8.42546 10.9606 8.46759 10.8938C8.50935 10.8255 8.56915 10.7825 8.64706 10.7648C8.72335 10.7476 8.79505 10.7607 8.8623 10.8043L9.76745 11.3715ZM10.7609 10.4914C10.7209 10.4449 10.6705 10.4179 10.6098 10.4104C10.5813 10.4071 10.5545 10.4082 10.5296 10.4139C10.5078 10.4188 10.4885 10.4273 10.4715 10.4393C10.4574 10.4491 10.4433 10.4662 10.4292 10.4906C10.4257 10.5045 10.4247 10.5145 10.4262 10.5207C10.4279 10.5285 10.4366 10.5306 10.4522 10.5271L10.4568 10.5261C10.4847 10.5115 10.5102 10.5016 10.5336 10.4964C10.6083 10.4794 10.6721 10.5042 10.7249 10.5707C10.7287 10.5731 10.7322 10.574 10.7353 10.5732C10.7431 10.5715 10.7504 10.5641 10.7573 10.5511C10.7681 10.5339 10.7725 10.5207 10.7704 10.5113L10.7698 10.509C10.7688 10.5043 10.7658 10.4985 10.7609 10.4914ZM8.49679 11.0221C8.49541 11.0306 8.49533 11.0372 8.49636 11.0418L8.49687 11.0442C8.49898 11.0535 8.50869 11.0636 8.52585 11.0744C8.53768 11.0831 8.54746 11.0866 8.55528 11.0849C8.55842 11.0841 8.56112 11.0819 8.56353 11.0781C8.58237 10.9953 8.62917 10.9454 8.70393 10.9285C8.7273 10.9232 8.7546 10.9211 8.786 10.9222L8.79067 10.9211C8.80622 10.9176 8.81309 10.9119 8.81134 10.9042C8.80995 10.8979 8.80469 10.8893 8.79564 10.8783C8.77235 10.8623 8.75219 10.853 8.73526 10.8503C8.71481 10.8467 8.69364 10.8475 8.67188 10.8524C8.64698 10.858 8.6223 10.8685 8.59799 10.8839C8.54652 10.9168 8.51278 10.9629 8.49679 11.0221Z" fill="#FF3A6A"/>
</svg>
