<svg width="220" height="220" viewBox="0 0 220 220" fill="none" xmlns="http://www.w3.org/2000/svg">
<g filter="url(#filter0_d_13308_147305)">
<circle cx="106" cy="102" r="94" fill="#32285A"/>
<path d="M44.0653 114.357L46.6922 127.253C46.8677 128.113 46.715 128.905 46.235 129.629C45.755 130.354 45.0931 130.801 44.2493 130.973C43.3884 131.148 42.5953 130.995 41.8699 130.516C41.1446 130.037 40.6946 129.367 40.5196 128.507L34.2191 97.5821C34.0578 96.7014 34.2118 95.9179 34.6819 95.2317C35.1654 94.5245 35.8341 94.0665 36.6882 93.8571L56.0336 89.9269C60.1906 89.2077 63.5437 90.2636 66.093 93.0942C67.4142 94.5626 68.2713 96.2597 68.6633 98.1856C68.8105 98.9079 68.8907 99.6528 68.9035 100.42C68.9649 103.362 68.0941 105.822 66.2916 107.8C64.8769 109.305 63.0106 110.356 60.6933 110.952L69.628 121.009C69.9879 121.455 70.2221 121.945 70.3307 122.478C70.3834 122.736 70.4117 123.008 70.416 123.293C70.3607 124.164 69.9961 124.883 69.3222 125.449C68.8997 125.84 68.43 126.087 67.9135 126.192C67.6381 126.248 67.3451 126.263 67.035 126.236C66.1664 126.198 65.45 125.851 64.8864 125.195L53.5701 112.426L44.0653 114.357ZM42.8042 108.167L59.0762 104.861C61.139 104.424 62.3015 103.266 62.564 101.385C62.6412 100.797 62.6223 100.219 62.5065 99.6515C62.3701 98.9807 62.0939 98.3296 61.6782 97.6977C60.8469 96.4341 59.7612 95.8579 58.4212 95.9689L57.2947 96.1171L41.0227 99.4232L42.8042 108.167ZM64.2176 93.3944C62.1707 91.2676 59.5197 90.5347 56.2652 91.1961C55.8693 91.2766 55.4682 91.376 55.062 91.4942C54.7626 91.6086 54.6283 91.7435 54.6601 91.8982C54.7021 92.1046 54.8866 92.1745 55.2139 92.1081C57.8348 91.6831 60.7212 92.2961 63.8732 93.9479C64.0696 94.0336 64.2198 94.0657 64.3232 94.0447C64.3575 94.0378 64.3952 94.0031 64.4364 93.941C64.4639 93.8995 64.4707 93.8446 64.4566 93.7757C64.4355 93.6724 64.3558 93.5456 64.2176 93.3944Z" fill="white"/>
<path d="M79.8716 109.822C80.0432 110.664 79.8892 111.448 79.4092 112.172C78.9326 112.913 78.2639 113.372 77.403 113.546C76.5592 113.718 75.7729 113.555 75.0442 113.059C74.3188 112.579 73.8701 111.918 73.6985 111.076L69.4896 90.4158C69.318 89.5732 69.4725 88.7897 69.9525 88.0654C70.429 87.3239 71.0892 86.8677 71.9329 86.6963C72.7939 86.5211 73.5887 86.6822 74.3175 87.1787C75.0429 87.658 75.4911 88.319 75.6627 89.1615L79.8716 109.822ZM74.4616 88.546C74.0322 88.0247 73.4853 87.715 72.8196 87.6173C72.506 87.5736 72.2113 87.5796 71.9359 87.6357C71.6949 87.6846 71.4795 87.7732 71.2908 87.9009C71.1325 88.005 71.0587 88.0825 71.069 88.1339C70.9875 88.4372 70.9588 88.6488 70.9832 88.7692C70.9974 88.8381 71.039 88.8655 71.1076 88.8514C71.4173 88.6989 71.7013 88.5965 71.9595 88.5443C72.7861 88.3764 73.4815 88.6646 74.0455 89.4096C74.1283 89.4644 74.1871 89.4884 74.2214 89.4811C74.4235 89.0643 74.5316 88.8454 74.5453 88.8248C74.559 88.8039 74.562 88.7764 74.5551 88.7422C74.5448 88.6903 74.5135 88.6252 74.4616 88.546Z" fill="white"/>
<path d="M86.9942 108.401C86.5695 108.165 86.1376 107.895 85.6992 107.59C82.7149 105.528 80.8567 102.701 80.1245 99.1069L80.0876 98.9261C79.3691 95.2225 80.0262 91.8475 82.0599 88.8023C83.5789 86.4883 85.6374 84.7984 88.2356 83.7335C89.0995 83.3968 89.9707 83.1394 90.8488 82.9608C92.5878 82.6074 94.3611 82.5966 96.1678 82.9278C98.8402 83.4594 101.165 84.7059 103.143 86.6678C105.086 88.6369 106.338 90.9522 106.898 93.6141C107.43 96.2275 107.195 98.8092 106.19 101.359C105.185 103.909 103.602 105.95 101.439 107.482C99.8676 108.571 98.1299 109.327 96.2253 109.75C94.3701 110.413 93.1111 111.098 92.4484 111.806C91.3871 112.845 90.7124 114.111 90.4245 115.602C90.262 116.566 90.2757 117.512 90.4649 118.44C90.5627 118.922 90.7042 119.395 90.8882 119.859C91.5518 121.443 92.674 122.639 94.2547 123.445C95.8049 124.277 97.441 124.518 99.1628 124.168C100.007 123.996 100.791 124.15 101.516 124.629C102.262 125.122 102.721 125.79 102.893 126.633C103.065 127.475 102.903 128.269 102.41 129.014C101.93 129.738 101.268 130.187 100.424 130.358C97.7344 130.886 95.1006 130.633 92.523 129.599C89.9038 128.538 87.8461 126.887 86.3499 124.649C85.3251 123.138 84.6371 121.523 84.2871 119.803C84.1013 118.892 84.0104 117.961 84.0142 117.011C84.0014 114.22 84.7495 111.687 86.2581 109.411C86.4915 109.059 86.7368 108.723 86.9942 108.401ZM94.9646 103.559C96.9378 103.122 98.4799 102.066 99.5909 100.39C100.733 98.6897 101.102 96.8507 100.699 94.873C100.356 93.1883 99.5055 91.785 98.1474 90.6644C96.7722 89.5468 95.2228 88.9843 93.4997 88.9762C92.9622 88.9779 92.4436 89.0293 91.9443 89.1308C90.5841 89.4071 89.3663 90.0754 88.2914 91.1356C86.8316 92.5963 86.0998 94.3294 86.096 96.3359C86.0977 96.8726 86.1479 97.3819 86.2457 97.8634C86.5785 99.4967 87.4412 100.87 88.8335 101.984C90.6373 103.444 92.6808 103.969 94.9646 103.559ZM99.895 86.1726C98.8265 85.0649 97.3959 84.3795 95.6029 84.1169C94.4722 83.9348 93.3985 83.9468 92.3827 84.1533C91.9177 84.248 91.4618 84.385 91.0144 84.5658C90.7149 84.6802 90.579 84.8061 90.6073 84.9436L90.6124 84.9698C90.651 85.1587 90.8286 85.2392 91.1456 85.2105C94.1839 84.8978 96.9841 85.3943 99.5454 86.7003C99.7457 86.8031 99.8972 86.8438 100.001 86.8228C100.035 86.8156 100.075 86.7899 100.119 86.7449C100.143 86.6862 100.148 86.6228 100.134 86.5538C100.113 86.4506 100.034 86.3238 99.895 86.1726ZM101.645 125.92C101.216 125.398 100.668 125.088 100.003 124.991C99.6891 124.947 99.3944 124.953 99.119 125.009C98.878 125.058 98.6631 125.146 98.4739 125.275C98.3156 125.378 98.168 125.578 98.0312 125.875C97.966 125.995 97.9407 126.09 97.9548 126.159C97.972 126.245 98.0672 126.27 98.2392 126.235L98.2907 126.225C98.6004 126.073 98.8844 125.97 99.1426 125.918C99.9692 125.75 100.665 126.038 101.229 126.783C101.27 126.81 101.308 126.82 101.343 126.814C101.429 126.796 101.511 126.717 101.59 126.575C101.713 126.389 101.765 126.244 101.744 126.141L101.738 126.115C101.728 126.064 101.697 125.998 101.645 125.92Z" fill="white"/>
<path d="M104.982 72.5145C104.81 71.6719 104.964 70.8889 105.444 70.1645C105.938 69.4196 106.607 68.9613 107.451 68.7899C108.294 68.6186 109.089 68.7792 109.835 69.2723C110.56 69.752 111.009 70.413 111.181 71.2556L113.088 80.6182C115.067 78.712 117.304 77.5053 119.801 76.9982C120.714 76.8127 121.654 76.7201 122.623 76.7201C125.345 76.7043 127.851 77.4758 130.141 79.0337C132.327 80.5235 134.009 82.5278 135.185 85.0466L136.016 87.6712L138.118 97.9882C138.293 98.8479 138.141 99.6399 137.661 100.364C137.163 101.092 136.493 101.541 135.649 101.713C134.805 101.885 134.012 101.732 133.27 101.256C132.544 100.777 132.094 100.107 131.919 99.2476L129.817 88.9305C128.883 85.6643 126.967 83.7435 124.071 83.1678C123.098 82.9716 122.147 82.9678 121.217 83.1567C120.718 83.2582 120.238 83.4094 119.777 83.6107C118.39 84.1967 117.283 85.1023 116.456 86.3265C115.925 87.1507 115.565 88.0207 115.375 88.937C115.293 89.3293 115.295 90.3051 115.379 91.8639L117.481 102.181C117.656 103.041 117.503 103.833 117.023 104.557C116.526 105.284 115.856 105.734 115.012 105.906C114.168 106.077 113.375 105.925 112.633 105.449C111.907 104.97 111.457 104.3 111.282 103.44L104.982 72.5145ZM109.917 70.5989C109.488 70.0771 108.941 69.7674 108.275 69.6698C107.962 69.6261 107.667 69.6325 107.392 69.6882C107.151 69.7375 106.935 69.8257 106.746 69.9538C106.588 70.0574 106.441 70.2575 106.304 70.5539C106.239 70.6747 106.213 70.7694 106.227 70.8379C106.245 70.924 106.34 70.9497 106.512 70.9146L106.563 70.9039C106.873 70.7518 107.157 70.649 107.415 70.5967C108.242 70.4288 108.937 70.7171 109.501 71.462C109.543 71.4894 109.581 71.4997 109.615 71.4929C109.701 71.4753 109.784 71.3961 109.863 71.2547C109.986 71.0684 110.037 70.9236 110.016 70.8204L110.011 70.7947C110 70.7432 109.969 70.6777 109.917 70.5989ZM128.951 80.0545C127.882 78.9468 126.451 78.2614 124.658 77.9988C123.527 77.8167 122.454 77.8287 121.438 78.0352C120.973 78.1299 120.517 78.2674 120.07 78.4477C119.77 78.5621 119.635 78.6885 119.662 78.826L119.668 78.8517C119.706 79.0406 119.884 79.1211 120.201 79.0924C123.239 78.7797 126.039 79.2762 128.601 80.5822C128.801 80.685 128.953 80.7257 129.056 80.7047C129.09 80.6979 129.13 80.6718 129.174 80.6268C129.199 80.5685 129.204 80.5047 129.19 80.4357C129.168 80.3329 129.089 80.2057 128.951 80.0545Z" fill="white"/>
<path d="M155.732 97.6338C152.978 98.1933 150.249 97.9153 147.547 96.7985C144.638 95.6347 142.677 93.8034 141.666 91.3052L139.939 84.8066L138.898 79.5656L138.382 79.6706C137.538 79.8419 136.755 79.6963 136.034 79.2341C135.291 78.7582 134.831 78.0818 134.652 77.2049C134.481 76.3623 134.643 75.5772 135.141 74.8494C135.617 74.1079 136.277 73.6517 137.121 73.4803L137.637 73.3754L136.171 66.179C136 65.3364 136.153 64.5443 136.629 63.8029C137.109 63.0789 137.779 62.6291 138.64 62.4544C139.502 62.2792 140.288 62.442 140.999 62.9418C141.742 63.4178 142.199 64.077 142.37 64.9196L143.811 72.1212L148.072 71.2554C148.916 71.0837 149.702 71.2465 150.431 71.7429C151.174 72.2188 151.63 72.8781 151.802 73.7207C151.981 74.5975 151.822 75.4003 151.324 76.1276C150.841 76.8348 150.177 77.2743 149.334 77.4457L145.071 78.3114L146.138 83.5472C146.177 83.7366 146.294 84.3572 146.491 85.4097C146.554 85.8085 146.617 86.1628 146.68 86.4725C146.747 86.7989 146.815 87.0898 146.885 87.3442C147.31 88.8156 148.011 89.8368 148.988 90.4087C150.732 91.4869 152.56 91.8317 154.472 91.4436C155.332 91.2684 156.124 91.4123 156.845 91.8745C157.574 92.371 158.026 93.0491 158.201 93.9088C158.376 94.7685 158.224 95.5606 157.744 96.2849C157.264 97.0093 156.594 97.4586 155.732 97.6338ZM141.132 64.2578C140.703 63.736 140.156 63.4268 139.491 63.3291C139.177 63.2854 138.883 63.2914 138.607 63.3475C138.366 63.3963 138.151 63.485 137.962 63.6127C137.804 63.7163 137.644 63.9009 137.483 64.1665C137.442 64.3182 137.429 64.4283 137.443 64.4972C137.46 64.5833 137.555 64.6086 137.727 64.5735L137.779 64.5632C138.089 64.4107 138.372 64.3083 138.631 64.2556C139.457 64.0877 140.153 64.3764 140.717 65.1213C140.758 65.1488 140.797 65.159 140.83 65.1518C140.917 65.1342 140.999 65.0549 141.078 64.9136C141.201 64.7272 141.253 64.5825 141.231 64.4797L141.227 64.4535C141.216 64.4021 141.184 64.337 141.132 64.2578ZM150.539 72.9299C150.11 72.4082 149.562 72.0985 148.896 72.0012C148.583 71.9575 148.288 71.9635 148.012 72.0196L146.773 72.2715C146.666 72.454 146.627 72.6142 146.656 72.7517C146.662 72.786 146.68 72.8275 146.708 72.8755C146.811 73.0336 146.994 73.0948 147.256 73.0597C147.518 73.0241 147.778 72.9805 148.036 72.9278C148.863 72.7598 149.558 73.0486 150.122 73.7935C150.164 73.8209 150.202 73.8312 150.236 73.8239C150.323 73.8063 150.405 73.7271 150.484 73.5857C150.607 73.3994 150.658 73.2546 150.638 73.1518L150.632 73.1257C150.621 73.0743 150.59 73.0091 150.539 72.9299Z" fill="white"/>
<path d="M118.927 111.25C115.742 111.748 113.168 113.308 111.205 115.93C109.265 118.598 108.534 121.553 109.01 124.793C109.416 127.556 110.664 129.911 112.754 131.857C114.845 133.82 117.266 134.869 120.015 135.005C120.848 135.052 121.654 135.018 122.431 134.905C124.65 134.581 126.673 133.606 128.501 131.978C130.955 129.772 132.258 127.045 132.409 123.798C132.452 122.968 132.416 122.159 132.299 121.369C132.028 119.528 131.327 117.79 130.193 116.158C128.562 113.842 126.427 112.314 123.788 111.574C122.217 111.131 120.597 111.023 118.927 111.25ZM118.104 105.322C123.055 104.684 127.455 105.865 131.303 108.864C133.635 110.658 135.423 112.917 136.667 115.642C137.4 117.249 137.89 118.899 138.14 120.593C138.312 121.761 138.362 122.946 138.291 124.149C138.116 127.686 136.96 130.903 134.823 133.803C132.705 136.715 130.004 138.764 126.721 139.949C125.608 140.363 124.477 140.655 123.327 140.822C121.643 141.068 119.912 141.052 118.134 140.774C115.177 140.348 112.514 139.225 110.146 137.403C107.284 135.267 105.252 132.473 104.05 129.019C103.646 127.852 103.357 126.676 103.183 125.492C102.849 123.222 102.96 120.938 103.515 118.64C104.361 115.173 106.11 112.221 108.762 109.784C111.387 107.386 114.444 105.907 117.934 105.347L118.104 105.322ZM130.239 109.725C129.276 108.572 127.592 107.642 125.189 106.934C123.271 106.374 121.704 106.183 120.49 106.36C120.214 106.4 119.958 106.454 119.72 106.523C119.438 106.631 119.305 106.743 119.323 106.858C119.352 107.055 119.521 107.14 119.831 107.111C122.892 107.001 126.251 108.023 129.909 110.177C130.076 110.304 130.209 110.36 130.306 110.346C130.354 110.338 130.391 110.308 130.416 110.254C130.444 110.216 130.451 110.156 130.439 110.074C130.425 109.976 130.358 109.859 130.239 109.725Z" fill="#FF3A6A"/>
<path d="M139.094 114.234C138.931 113.435 139.081 112.693 139.542 112.006C139.983 111.305 140.597 110.875 141.383 110.715C142.826 110.422 143.891 110.935 144.577 112.254C146.37 110.482 148.516 109.334 151.014 108.81C153.532 108.298 155.966 108.524 158.317 109.489C161.34 110.723 163.632 112.955 165.191 116.184C165.563 116.94 165.858 117.855 166.076 118.93L168.068 128.704C168.234 129.519 168.094 130.268 167.649 130.952C167.22 131.633 166.596 132.057 165.779 132.223C164.993 132.383 164.261 132.234 163.584 131.778C162.891 131.325 162.461 130.692 162.295 129.877L160.304 120.103C160.025 118.735 159.391 117.549 158.402 116.546C157.393 115.529 156.228 114.892 154.906 114.635C153.983 114.449 153.097 114.442 152.247 114.615C151.445 114.778 150.669 115.106 149.917 115.597C148.379 116.571 147.389 117.943 146.948 119.712C146.694 120.68 146.664 121.721 146.858 122.835L148.849 132.609C149.015 133.423 148.875 134.173 148.43 134.857C147.985 135.541 147.362 135.965 146.56 136.127C145.774 136.287 145.043 136.139 144.365 135.683C143.672 135.23 143.242 134.596 143.076 133.782L139.094 114.234ZM159.695 111.829C158.728 110.771 157.409 110.114 155.737 109.86C154.667 109.687 153.666 109.695 152.736 109.885C152.287 109.976 151.863 110.104 151.462 110.271C151.184 110.378 151.057 110.497 151.084 110.627L151.089 110.652C151.126 110.831 151.291 110.908 151.587 110.881C154.401 110.598 157.012 111.077 159.419 112.318C159.59 112.419 159.724 112.46 159.82 112.44C159.868 112.431 159.905 112.406 159.93 112.367C159.968 112.308 159.982 112.255 159.972 112.206C159.949 112.092 159.857 111.967 159.695 111.829ZM143.681 112.284C143.28 111.789 142.768 111.494 142.148 111.399C141.856 111.357 141.581 111.362 141.325 111.414C141.1 111.46 140.9 111.543 140.724 111.663C140.577 111.761 140.44 111.95 140.314 112.23C140.253 112.344 140.23 112.434 140.243 112.499C140.26 112.58 140.348 112.605 140.509 112.572L140.557 112.562C140.845 112.419 141.109 112.323 141.35 112.274C142.119 112.118 142.768 112.393 143.296 113.1C143.335 113.126 143.371 113.136 143.403 113.13C143.483 113.113 143.559 113.038 143.632 112.905C143.747 112.729 143.794 112.592 143.774 112.494L143.769 112.469C143.759 112.421 143.73 112.359 143.681 112.284Z" fill="#FF3A6A"/>
<path d="M175.333 117.369C175.494 118.161 175.37 118.895 174.961 119.572C174.546 120.217 173.963 120.616 173.212 120.768C172.477 120.918 171.792 120.777 171.157 120.345C170.516 119.882 170.114 119.254 169.953 118.463L166.092 99.5125C165.934 98.7367 166.061 98.0188 166.473 97.3578C166.883 96.681 167.455 96.2681 168.191 96.1186C168.941 95.9661 169.637 96.1216 170.278 96.5846C170.917 97.0323 171.315 97.644 171.473 98.4193L175.333 117.369ZM175.152 130.291C174.417 130.44 173.73 130.291 173.092 129.844C172.451 129.381 172.051 128.761 171.892 127.986C171.735 127.21 171.862 126.491 172.274 125.83C172.683 125.154 173.256 124.741 173.991 124.592C174.742 124.439 175.437 124.594 176.079 125.058C176.717 125.505 177.115 126.117 177.273 126.892C177.432 127.668 177.305 128.394 176.897 129.071C176.484 129.732 175.903 130.138 175.152 130.291ZM170.398 97.7476C170.018 97.264 169.535 96.9667 168.95 96.8545C168.675 96.8117 168.426 96.813 168.2 96.8584C167.975 96.9042 167.781 96.9852 167.617 97.1008C167.51 97.1886 167.461 97.2559 167.471 97.3034L167.485 97.375C167.501 97.4538 167.569 97.4812 167.69 97.4568C168.62 97.2679 169.485 97.4465 170.284 97.9935C170.354 98.0286 170.404 98.0432 170.434 98.0372C170.449 98.0342 170.462 98.0231 170.474 98.0042C170.501 97.9824 170.512 97.9635 170.509 97.9477C170.497 97.8843 170.459 97.8175 170.398 97.7476ZM176.407 125.98C176.028 125.497 175.547 125.207 174.964 125.111C174.69 125.068 174.433 125.071 174.193 125.119C173.983 125.162 173.795 125.241 173.631 125.357C173.494 125.451 173.367 125.633 173.251 125.904C173.195 126.015 173.173 126.101 173.186 126.165C173.203 126.244 173.286 126.268 173.435 126.237L173.48 126.228C173.75 126.091 173.997 126 174.222 125.954C174.942 125.808 175.552 126.079 176.052 126.769C176.089 126.795 176.122 126.805 176.152 126.799C176.227 126.783 176.298 126.711 176.366 126.582C176.472 126.412 176.515 126.279 176.496 126.185L176.491 126.161C176.481 126.113 176.454 126.053 176.407 125.98Z" fill="#FF3A6A"/>
<path d="M69.3839 74.8082L72.7109 69.515C72.9562 69.1136 73.3075 68.8609 73.7648 68.7572C74.2131 68.6557 74.6347 68.7328 75.0294 68.9889C75.4223 69.2361 75.6698 69.5835 75.7715 70.0311C75.8774 70.4972 75.8066 70.926 75.5595 71.3183L72.2296 76.5983L77.5164 79.9232C77.9115 80.1798 78.1607 80.5362 78.265 80.9928C78.3666 81.4405 78.295 81.865 78.0492 82.2664C77.8021 82.6587 77.4542 82.9059 77.006 83.0074C76.5487 83.1111 76.1232 83.0395 75.7307 82.7924L70.4374 79.4396L67.086 84.753C66.8385 85.1454 66.4906 85.3925 66.0428 85.494C65.5851 85.5977 65.16 85.5262 64.767 85.279C64.3724 85.0229 64.124 84.6707 64.0219 84.2231C63.9181 83.7665 63.9889 83.3373 64.2343 82.9359L67.5643 77.6564L62.277 74.331C61.884 74.0838 61.6348 73.7274 61.5289 73.2614C61.4272 72.8138 61.4997 72.394 61.7472 72.0016C61.9926 71.6002 62.3439 71.3475 62.8016 71.2438C63.2498 71.1423 63.6711 71.2194 64.0661 71.4756L69.3839 74.8082ZM75.2202 69.6375C74.9852 69.3642 74.6892 69.2057 74.3327 69.1616C74.165 69.1419 74.0076 69.1487 73.8613 69.1821C73.7335 69.2108 73.6198 69.2609 73.5203 69.3312C73.4371 69.3886 73.3543 69.4893 73.2715 69.6328C73.2513 69.7141 73.2453 69.7733 73.2539 69.8097C73.2642 69.8555 73.3153 69.8679 73.4066 69.8469L73.4341 69.8409C73.5975 69.7557 73.7476 69.6974 73.8849 69.6666C74.3242 69.5668 74.6986 69.7124 75.0088 70.1031C75.0311 70.1172 75.0517 70.1224 75.0701 70.1181C75.1156 70.1078 75.1589 70.0645 75.1992 69.9879C75.2627 69.8872 75.2884 69.8092 75.276 69.7544L75.2726 69.7407C75.2666 69.7133 75.249 69.679 75.2202 69.6375ZM61.9188 72.7551C61.9106 72.8052 61.9102 72.8437 61.9162 72.8712L61.9192 72.8849C61.9317 72.9397 61.9887 72.9988 62.0895 73.0622C62.159 73.1136 62.2165 73.1342 62.2624 73.1239C62.2808 73.1196 62.2967 73.1063 62.3108 73.084C62.4215 72.5979 62.6965 72.3049 63.1357 72.2055C63.273 72.1742 63.4334 72.1618 63.6179 72.1682L63.6453 72.1618C63.7367 72.1412 63.777 72.1078 63.7667 72.0624C63.7586 72.0256 63.7277 71.975 63.6745 71.9103C63.5377 71.8165 63.4193 71.7617 63.3197 71.7459C63.1996 71.7249 63.0752 71.7291 62.9474 71.7583C62.8011 71.7913 62.6562 71.8529 62.5133 71.9433C62.2109 72.1365 62.0127 72.4072 61.9188 72.7551Z" fill="#FF3A6A"/>
</g>
<path d="M154.972 146.33C155.553 146.352 156.053 146.555 156.47 146.937C156.885 147.31 157.141 147.777 157.239 148.338C157.38 149.147 157.206 149.84 156.719 150.418C156.24 150.984 155.494 151.355 154.483 151.531L149.972 152.315L148.29 142.632L152.649 141.874C153.633 141.703 154.439 141.795 155.07 142.15C155.709 142.503 156.095 143.066 156.23 143.838C156.329 144.408 156.259 144.908 156.021 145.338C155.793 145.766 155.443 146.097 154.972 146.33ZM151.329 146.139L152.874 145.871C153.26 145.804 153.54 145.67 153.714 145.469C153.895 145.258 153.957 144.986 153.899 144.655C153.842 144.324 153.692 144.09 153.45 143.952C153.217 143.812 152.908 143.776 152.522 143.843L150.977 144.112L151.329 146.139ZM153.738 149.699C154.134 149.631 154.422 149.49 154.603 149.279C154.792 149.057 154.857 148.775 154.798 148.435C154.738 148.095 154.577 147.848 154.314 147.695C154.059 147.54 153.735 147.497 153.339 147.566L151.629 147.863L152 150.001L153.738 149.699ZM160.069 142.532L160.41 144.49L163.568 143.941L163.885 145.762L160.726 146.311L161.095 148.435L164.668 147.814L164.996 149.704L159.065 150.735L157.382 141.052L163.313 140.021L163.642 141.911L160.069 142.532ZM171.81 138.545L172.139 140.434L169.573 140.88L170.927 148.673L168.569 149.083L167.214 141.29L164.649 141.736L164.32 139.846L171.81 138.545ZM180.407 145.264L176.793 145.892L176.511 147.703L174.042 148.132L175.863 137.84L178.594 137.366L183.78 146.44L181.284 146.874L180.407 145.264ZM179.484 143.549L177.668 140.212L177.097 143.963L179.484 143.549Z" fill="white"/>
<defs>
<filter id="filter0_d_13308_147305" x="0" y="0" width="220" height="220" filterUnits="userSpaceOnUse" color-interpolation-filters="sRGB">
<feFlood flood-opacity="0" result="BackgroundImageFix"/>
<feColorMatrix in="SourceAlpha" type="matrix" values="0 0 0 0 0 0 0 0 0 0 0 0 0 0 0 0 0 0 127 0" result="hardAlpha"/>
<feOffset dx="4" dy="8"/>
<feGaussianBlur stdDeviation="8"/>
<feComposite in2="hardAlpha" operator="out"/>
<feColorMatrix type="matrix" values="0 0 0 0 0 0 0 0 0 0 0 0 0 0 0 0 0 0 0.25 0"/>
<feBlend mode="normal" in2="BackgroundImageFix" result="effect1_dropShadow_13308_147305"/>
<feBlend mode="normal" in="SourceGraphic" in2="effect1_dropShadow_13308_147305" result="shape"/>
</filter>
</defs>
</svg>
