<svg width="160" height="157" viewBox="0 0 160 157" fill="none" xmlns="http://www.w3.org/2000/svg">
<path d="M10.9016 23.0482C7.9381 37.5269 13.9004 49.2609 17.2519 53.318L15.241 66.5479C7.0279 58.6735 3.2812 47.7439 2.43449 43.2634C-2.64585 28.1284 0.740949 9.81832 7.83226 11.1942C13.9623 12.3836 11.8189 18.7793 10.9016 23.0482Z" fill="#7432A0"/>
<path d="M10.375 60.8315C12.1531 56.5133 15.0672 53.1758 16.302 52.0469L17.2545 53.2111L15.2436 66.5468C13.2115 64.7687 11.1512 61.9957 10.375 60.8315Z" fill="#470F6B"/>
<path d="M124.396 13.5901C128.982 27.6395 124.389 39.9738 121.519 44.3848L125.017 57.3013C132.284 48.5465 134.767 37.2625 135.101 32.7149C138.432 17.1016 132.991 -0.706461 126.102 1.46459C120.146 3.34134 123.001 9.45279 124.396 13.5901Z" fill="#7432A0"/>
<path d="M129.207 51.0717C126.951 46.9829 123.677 43.9974 122.322 43.0158L121.508 44.2805L125.018 57.3022C126.835 55.3051 128.568 52.3164 129.207 51.0717Z" fill="#470F6B"/>
<path d="M72.1812 2.93694C48.7274 0.481483 40.4649 14.9673 39.2654 22.5171C40.1968 30.4762 32.1036 35.5705 27.9406 37.1229C10.6889 51.7286 15.0283 73.743 18.8385 78.8233C21.8867 82.8875 19.403 86.0909 17.7801 87.1846C-3.21827 106.49 9.41886 129.308 20.3203 138.305C53.7653 163.113 106.685 155.274 129.017 147.936C169.659 123.805 162.356 107.929 149.443 101.684C136.531 95.44 129.228 86.232 129.017 76.9182C128.805 67.6044 129.44 45.1666 111.765 36.0645C94.0899 26.9623 102.028 32.466 94.4074 19.3419C88.3111 8.84275 77.0498 4.03061 72.1812 2.93694Z" fill="#7432A0"/>
<path d="M93.1345 22.5162C91.8644 15.9965 85.9022 10.9092 83.0798 9.1805C78.6346 5.56423 73.4485 4.84112 80.5397 11.0856C86.2127 16.0812 87.7367 20.3994 89.4302 24.5271C92.0788 30.9833 93.4167 25.1974 93.1345 22.5162Z" fill="#AF6ADC"/>
<path d="M122.456 52.6791C121.609 45.0587 112.577 39.3434 108.167 37.4383C104.357 35.4263 98.1127 36.0624 107.638 41.1427C115.259 45.2069 115.047 49.6097 117.799 54.3725C122.371 63.1783 122.808 56.9126 122.456 52.6791Z" fill="#AF6ADC"/>
<ellipse cx="122.346" cy="62.8437" rx="1.79926" ry="2.22261" fill="#AF6ADC"/>
<ellipse cx="41.854" cy="24.1074" rx="1.3759" ry="2.75181" transform="rotate(10.1456 41.854 24.1074)" fill="#AF6ADC"/>
<path d="M20.8495 51.729C21.6116 43.9392 27.8702 38.605 30.9042 36.9115C35.0319 34.5831 36.937 35.2181 31.3276 39.875C26.84 43.6006 24.5186 47.6365 23.9188 49.1888C21.2094 60.0267 20.7437 55.398 20.8495 51.729Z" fill="#AF6ADC"/>
<path d="M58.4218 47.8128C53.5109 47.5588 50.5192 44.8846 49.6372 43.5792C47.9085 41.6389 45.1497 39.0282 47.9438 44.1084C51.4365 50.4587 55.9875 50.7763 59.0569 50.7763C62.2143 50.7763 64.5605 48.1303 58.4218 47.8128Z" fill="#AF6ADC"/>
<path d="M16.088 92.7961C17.7814 88.2239 14.3946 91.6672 12.4895 93.9603C9.93956 97.0297 8.44642 104.184 9.63182 108.672C11.1136 114.281 13.6537 112.8 13.1245 107.825C12.5953 102.851 13.9712 98.5114 16.088 92.7961Z" fill="#AF6ADC"/>
<path d="M71.5445 89.8294C62.4847 92.5388 52.7405 90.1116 49.0009 88.5593C45.1907 86.9717 39.7082 85.5535 48.26 92.5812C58.9497 101.366 70.7372 97.8513 73.4496 95.8622C76.6248 93.5337 82.8693 86.4425 71.5445 89.8294Z" fill="#470F6B"/>
<path d="M101.917 100.733C122.492 90.5725 128.059 70.6749 128.27 61.9961C128.27 82.3171 131.446 92.6893 149.438 101.474C167.431 110.259 159.493 123.488 147.321 136.93C137.584 147.683 117.087 152.065 108.055 152.912C51.981 165.091 21.3007 142.871 12.9342 130.199C12.9247 130.184 12.9154 130.17 12.9062 130.156C12.9155 130.17 12.9249 130.184 12.9342 130.199C15.4923 133.999 33.0119 138.383 41.4827 140.105C82.0401 148.318 105.445 129.768 112.077 119.467C126.302 101.94 111.23 99.6747 101.917 100.733Z" fill="#470F6B"/>
<path d="M147.006 102.32C137.692 99.5256 132.683 93.8173 131.342 91.3125C130.566 93.147 130.326 97.6417 135.575 100.944C140.825 104.246 146.018 107.259 147.959 108.353C150.005 109.693 154.013 111.57 153.674 108.353C153.335 105.135 149.088 102.99 147.006 102.32Z" fill="#7432A0"/>
<circle cx="64.247" cy="27.3876" r="19.2626" fill="#470F6B"/>
<circle cx="64.2523" cy="27.389" r="16.2992" fill="#F5F5F5"/>
<ellipse cx="64.2516" cy="27.3884" rx="11.6423" ry="11.6423" fill="url(#paint0_radial_30605_485850)"/>
<circle cx="63.8239" cy="27.5974" r="5.50361" fill="#221F38"/>
<path d="M65.4915 61.7184C53.5577 61.7184 44.1728 54.8499 40 48.8095C42.1252 54.8398 52.0796 64.1608 65.4915 64.1608C78.7991 64.1608 88.8966 54.7708 91 48.7422C86.8083 54.7994 77.3333 61.7184 65.4915 61.7184" fill="white"/>
<path d="M65.4915 60.3644C53.5577 60.3644 44.1728 54.6113 40 48.5704C42.1252 54.6012 52.0797 63.9225 65.4915 63.9225C78.7991 63.9225 88.8966 54.5313 91 48.5039C86.8083 54.5608 77.3333 60.3644 65.4915 60.3644Z" fill="#3B375D"/>
<path fill-rule="evenodd" clip-rule="evenodd" d="M65.8722 63.921C68.8433 63.8809 71.6505 63.3744 74.2399 62.5456C73.9647 64.451 72.8091 65.4303 72.0387 65.6586C71.5785 65.7423 70.0554 65.8594 67.6452 65.6586C66.7506 65.584 66.1973 64.8846 65.8722 63.921ZM55.4258 62.1172C57.989 63.0611 60.7949 63.6967 63.7912 63.8735C63.1456 65.6406 61.0698 66.0922 57.9797 65.7832C56.1408 65.5993 55.5179 63.894 55.4258 62.1172Z" fill="white"/>
<path fill-rule="evenodd" clip-rule="evenodd" d="M65.4832 60.3638C65.4859 60.3638 65.4887 60.3638 65.4915 60.3638C68.4792 60.3638 71.3163 59.9944 73.9558 59.3446C74.3159 60.6132 74.3738 61.6733 74.249 62.5414C71.6594 63.3711 68.8519 63.8784 65.8805 63.9193C65.5332 62.8889 65.4468 61.5568 65.4832 60.3638ZM55.725 59.0195C58.2917 59.749 61.0687 60.2162 64.0137 60.3343L64.0137 62.5187C64.0137 63.0367 63.941 63.486 63.7999 63.8724C60.8037 63.6964 57.9978 63.0616 55.4345 62.1185C55.3757 60.9909 55.531 59.8344 55.725 59.0195Z" fill="white"/>
<defs>
<radialGradient id="paint0_radial_30605_485850" cx="0" cy="0" r="1" gradientUnits="userSpaceOnUse" gradientTransform="translate(64.2516 27.3884) rotate(90) scale(11.6423)">
<stop offset="0.375" stop-color="#E5B8CF"/>
<stop offset="0.901042" stop-color="#18BC29"/>
</radialGradient>
</defs>
</svg>
