<svg width="185" height="110" viewBox="0 0 185 110" fill="none" xmlns="http://www.w3.org/2000/svg">
<path d="M2.43901 62.0455C5.86805 90.5461 28.7193 91.0718 39.7164 87.7721L41.2686 88.3029V89.782C44.2148 96.6808 54.8776 107.873 76.2033 99.9656C105.916 117.937 119.578 102.283 122.837 96.6808C123.238 95.9907 126.312 96.8324 127.072 96.6808C156.961 107.627 168.015 89.9976 171.985 77.5492C186.921 65.1415 185.064 51.8036 172.471 46.6819C172.307 45.9996 172.145 45.2938 171.985 44.5636C165.916 16.8558 141.089 15.6463 129.434 18.505C109.143 -6.36678 87.3934 2.59235 78.3062 11.9081C76.9883 13.2591 76.2045 11.187 73.7515 10.1167C53.4948 1.27887 38.2508 18.0535 33.4473 28.0691C21.6824 27.5193 -0.990036 33.545 2.43901 62.0455Z" fill="white" stroke="black" stroke-width="3"/>
</svg>
