<svg width="16" height="18" viewBox="0 0 16 18" fill="none" xmlns="http://www.w3.org/2000/svg">
<path fill-rule="evenodd" clip-rule="evenodd" d="M8.92163 5.59383L13.604 3.94133L10.1589 0.422813L9.75865 2.09573C8.54438 1.82769 7.27492 1.83919 6.05237 2.13977C4.2711 2.57771 2.69791 3.60267 1.59693 5.04253C0.495957 6.48239 -0.0657492 8.24947 0.00612963 10.0471C0.0780085 11.8447 0.779096 13.5633 1.99167 14.9144C3.20425 16.2655 4.85446 17.1668 6.66524 17.4669C8.47601 17.767 10.3371 17.4477 11.9359 16.5626C13.5348 15.6775 14.774 14.2804 15.4456 12.6061C16.1172 10.9317 16.1803 9.08198 15.6242 7.36747L13.9324 7.89401C14.3651 9.22808 14.316 10.6674 13.7934 11.9702C13.2709 13.273 12.3066 14.36 11.0625 15.0488C9.81845 15.7375 8.37036 15.9859 6.96139 15.7524C5.55242 15.5189 4.26838 14.8176 3.32488 13.7663C2.38137 12.715 1.83585 11.3777 1.77992 9.97901C1.72399 8.5803 2.16106 7.20533 3.01773 6.08497C3.8744 4.96461 5.09851 4.16709 6.48451 3.82632C7.4308 3.59367 8.41321 3.58359 9.35354 3.7888L8.92163 5.59383Z" fill="#1B376F"/>
</svg>
