<svg width="15" height="16" viewBox="0 0 15 16" fill="none" xmlns="http://www.w3.org/2000/svg">
<path d="M12.6869 14.715L7.88867 9.91682L3.09045 14.715C2.83593 14.9696 2.49074 15.1125 2.1308 15.1125C1.77087 15.1125 1.42567 14.9696 1.17116 14.715C0.916645 14.4605 0.77366 14.1153 0.77366 13.7554C0.77366 13.3955 0.916645 13.0503 1.17116 12.7958L5.96938 7.99753L1.17116 3.1993C0.916644 2.94479 0.77366 2.5996 0.77366 2.23966C0.77366 1.87972 0.916644 1.53453 1.17116 1.28001C1.42567 1.0255 1.77087 0.882516 2.1308 0.882516C2.49074 0.882516 2.83593 1.0255 3.09045 1.28001L7.88867 6.07824L12.6869 1.28001C12.9414 1.0255 13.2866 0.882516 13.6465 0.882516C14.0065 0.882516 14.3517 1.0255 14.6062 1.28001C14.8607 1.53453 15.0037 1.87972 15.0037 2.23966C15.0037 2.5996 14.8607 2.94479 14.6062 3.1993L9.80796 7.99753L14.6062 12.7958C14.8607 13.0503 15.0037 13.3955 15.0037 13.7554C15.0037 14.1153 14.8607 14.4605 14.6062 14.715C14.3517 14.9696 14.0065 15.1125 13.6465 15.1125C13.2866 15.1125 12.9414 14.9696 12.6869 14.715Z" fill="white"/>
</svg>
