<svg width="2829" height="1457" viewBox="0 0 2829 1457" fill="none" xmlns="http://www.w3.org/2000/svg">
<path d="M183.232 959.924L231.685 1197.97C234.921 1213.84 232.104 1228.46 223.251 1241.83C214.397 1255.2 202.189 1263.46 186.626 1266.62C170.746 1269.86 156.117 1267.04 142.738 1258.2C129.359 1249.35 121.059 1236.99 117.831 1221.12L1.61867 650.284C-1.35625 634.027 1.48417 619.565 10.1558 606.899C19.0726 593.844 31.4075 585.392 47.1604 581.525L403.985 508.98C480.661 495.704 542.509 515.195 589.531 567.443C613.9 594.548 629.708 625.875 636.94 661.424C639.653 674.755 641.133 688.505 641.37 702.667C642.502 756.979 626.44 802.388 593.194 838.894C567.1 866.671 532.675 886.066 489.934 897.073L654.734 1082.71C661.372 1090.94 665.692 1099.98 667.694 1109.82C668.667 1114.58 669.189 1119.6 669.268 1124.87C668.247 1140.94 661.522 1154.21 649.092 1164.67C641.299 1171.88 632.635 1176.45 623.109 1178.38C618.03 1179.42 612.626 1179.69 606.905 1179.2C590.883 1178.49 577.67 1172.08 567.274 1159.98L358.547 924.28L183.232 959.924ZM159.97 845.662L460.105 784.637C498.154 776.572 519.596 755.192 524.438 720.489C525.862 709.625 525.514 698.958 523.378 688.482C520.862 676.099 515.767 664.081 508.1 652.418C492.766 629.093 472.741 618.458 448.024 620.506L427.247 623.242L127.112 684.267L159.97 845.662ZM554.939 572.986C517.183 533.728 468.286 520.2 408.258 532.408C400.955 533.894 393.557 535.729 386.065 537.911C380.542 540.022 378.066 542.513 378.651 545.367C379.426 549.178 382.829 550.467 388.865 549.242C437.208 541.398 490.448 552.713 548.586 583.202C552.209 584.783 554.979 585.376 556.885 584.989C557.518 584.862 558.215 584.222 558.974 583.075C559.481 582.308 559.607 581.296 559.346 580.023C558.958 578.118 557.487 575.777 554.939 572.986Z" fill="white"/>
<path d="M843.682 876.23C846.847 891.783 844.006 906.245 835.153 919.607C826.363 933.294 814.028 941.754 798.148 944.98C782.585 948.143 768.082 945.146 754.64 935.982C741.261 927.127 732.985 914.926 729.82 899.374L652.187 518.025C649.022 502.473 651.87 488.011 660.724 474.64C669.514 460.954 681.691 452.533 697.254 449.37C713.133 446.136 727.794 449.109 741.237 458.273C754.616 467.121 762.884 479.321 766.049 494.874L843.682 876.23ZM743.895 483.512C735.975 473.889 725.888 468.173 713.608 466.37C707.824 465.563 702.389 465.674 697.309 466.71C692.863 467.611 688.891 469.248 685.41 471.604C682.49 473.525 681.129 474.957 681.319 475.905C679.816 481.503 679.286 485.409 679.737 487.631C679.998 488.904 680.765 489.41 682.031 489.149C687.744 486.335 692.981 484.445 697.744 483.48C712.991 480.381 725.816 485.702 736.221 499.452C737.748 500.464 738.832 500.907 739.465 500.773C743.191 493.079 745.185 489.039 745.438 488.659C745.691 488.272 745.747 487.766 745.62 487.133C745.43 486.176 744.853 484.975 743.895 483.512Z" fill="white"/>
<path d="M975.047 850.001C967.214 845.645 959.246 840.656 951.16 835.026C896.116 796.97 861.841 744.777 848.335 678.438L847.655 675.102C834.402 606.739 846.524 544.44 884.034 488.231C912.051 445.518 950.021 414.325 997.944 394.669C1013.88 388.454 1029.95 383.702 1046.14 380.405C1078.22 373.881 1110.93 373.684 1144.25 379.796C1193.55 389.608 1236.43 412.617 1272.91 448.831C1308.75 485.179 1331.84 527.915 1342.17 577.048C1351.99 625.288 1347.64 672.943 1329.11 720.013C1310.57 767.082 1281.37 804.75 1241.48 833.025C1212.49 853.125 1180.44 867.08 1145.31 874.884C1111.09 887.132 1087.87 899.783 1075.65 912.845C1056.07 932.027 1043.63 955.384 1038.32 982.908C1035.32 1000.7 1035.57 1018.17 1039.06 1035.31C1040.87 1044.19 1043.48 1052.92 1046.87 1061.49C1059.11 1090.73 1079.81 1112.8 1108.97 1127.69C1137.56 1143.04 1167.74 1147.48 1199.5 1141.02C1215.06 1137.86 1229.53 1140.7 1242.91 1149.55C1256.67 1158.65 1265.13 1170.97 1268.3 1186.53C1271.46 1202.08 1268.49 1216.73 1259.38 1230.48C1250.53 1243.85 1238.32 1252.12 1222.76 1255.28C1173.15 1265.04 1124.57 1260.37 1077.02 1241.28C1028.71 1221.69 990.76 1191.22 963.163 1149.9C944.261 1122.02 931.57 1092.2 925.114 1060.46C921.688 1043.64 920.011 1026.46 920.082 1008.93C919.844 957.408 933.643 910.647 961.47 868.63C965.774 862.138 970.299 855.932 975.047 850.001ZM1122.06 760.622C1158.46 752.557 1186.9 733.059 1207.39 702.119C1228.45 670.737 1235.27 636.793 1227.84 600.287C1221.51 569.189 1205.82 543.286 1180.77 522.602C1155.4 501.973 1126.82 491.591 1095.04 491.441C1085.13 491.472 1075.56 492.421 1066.35 494.295C1041.26 499.395 1018.8 511.73 998.973 531.299C972.048 558.262 958.55 590.253 958.479 627.289C958.51 637.196 959.436 646.597 961.24 655.485C967.38 685.633 983.291 710.991 1008.97 731.549C1042.24 758.503 1079.94 768.189 1122.06 760.622ZM1213 439.69C1193.29 419.243 1166.91 406.592 1133.83 401.745C1112.98 398.385 1093.17 398.606 1074.44 402.417C1065.86 404.165 1057.45 406.695 1049.2 410.032C1043.68 412.143 1041.17 414.467 1041.69 417.006L1041.78 417.488C1042.5 420.975 1045.77 422.461 1051.62 421.932C1107.66 416.16 1159.31 425.324 1206.55 449.432C1210.25 451.329 1213.04 452.08 1214.95 451.693C1215.59 451.559 1216.32 451.084 1217.14 450.254C1217.58 449.171 1217.67 448 1217.42 446.727C1217.03 444.822 1215.56 442.481 1213 439.69ZM1245.27 1173.36C1237.36 1163.73 1227.27 1158.01 1215 1156.21C1209.2 1155.4 1203.77 1155.52 1198.69 1156.55C1194.24 1157.46 1190.28 1159.09 1186.79 1161.45C1183.87 1163.37 1181.15 1167.06 1178.62 1172.53C1177.42 1174.76 1176.95 1176.51 1177.22 1177.78C1177.53 1179.36 1179.29 1179.84 1182.46 1179.19L1183.41 1179C1189.12 1176.18 1194.36 1174.29 1199.12 1173.32C1214.37 1170.22 1227.2 1175.55 1237.6 1189.3C1238.37 1189.8 1239.07 1189.99 1239.7 1189.86C1241.29 1189.54 1242.81 1188.08 1244.26 1185.47C1246.54 1182.03 1247.49 1179.35 1247.1 1177.45L1247 1176.97C1246.81 1176.03 1246.23 1174.82 1245.27 1173.36Z" fill="white"/>
<path d="M1306.84 187.599C1303.68 172.046 1306.52 157.593 1315.37 144.222C1324.48 130.472 1336.81 122.012 1352.38 118.849C1367.94 115.686 1382.6 118.651 1396.36 127.752C1409.74 136.608 1418.01 148.808 1421.18 164.361L1456.36 337.181C1492.85 301.996 1534.13 279.722 1580.18 270.36C1597.02 266.937 1614.36 265.229 1632.22 265.229C1682.43 264.936 1728.66 279.177 1770.9 307.934C1811.23 335.434 1842.24 372.43 1863.94 418.923L1879.26 467.368L1918.03 657.805C1921.27 673.674 1918.45 688.294 1909.6 701.664C1900.43 715.098 1888.06 723.392 1872.5 726.563C1856.93 729.726 1842.3 726.911 1828.61 718.126C1815.23 709.279 1806.93 696.92 1803.69 681.051L1764.92 490.614C1747.69 430.324 1712.36 394.87 1658.94 384.243C1641 380.622 1623.45 380.551 1606.3 384.037C1597.09 385.911 1588.23 388.703 1579.73 392.419C1554.15 403.235 1533.74 419.95 1518.49 442.548C1508.69 457.761 1502.04 473.82 1498.53 490.733C1497.03 497.975 1497.06 515.987 1498.61 544.76L1537.38 735.197C1540.62 751.066 1537.8 765.686 1528.95 779.049C1519.78 792.483 1507.41 800.785 1491.85 803.948C1476.29 807.11 1461.66 804.303 1447.96 795.519C1434.58 786.671 1426.27 774.313 1423.05 758.444L1306.84 187.599ZM1397.87 152.24C1389.96 142.609 1379.86 136.893 1367.59 135.09C1361.81 134.283 1356.37 134.402 1351.29 135.43C1346.84 136.339 1342.87 137.968 1339.38 140.332C1336.47 142.245 1333.75 145.938 1331.23 151.41C1330.02 153.639 1329.55 155.387 1329.81 156.652C1330.13 158.241 1331.88 158.715 1335.06 158.067L1336.01 157.869C1341.73 155.062 1346.96 153.165 1351.73 152.2C1366.97 149.101 1379.8 154.422 1390.2 168.172C1390.97 168.678 1391.67 168.868 1392.3 168.741C1393.89 168.417 1395.41 166.954 1396.86 164.345C1399.14 160.906 1400.08 158.233 1399.7 156.328L1399.6 155.853C1399.4 154.904 1398.83 153.695 1397.87 152.24ZM1748.94 326.776C1729.23 306.329 1702.84 293.678 1669.77 288.831C1648.91 285.47 1629.11 285.692 1610.37 289.503C1601.8 291.25 1593.38 293.788 1585.13 297.117C1579.61 299.228 1577.11 301.561 1577.62 304.099L1577.72 304.573C1578.43 308.06 1581.71 309.547 1587.55 309.017C1643.6 303.245 1695.24 312.409 1742.49 336.517C1746.18 338.415 1748.98 339.166 1750.89 338.779C1751.52 338.652 1752.25 338.17 1753.07 337.34C1753.52 336.264 1753.61 335.086 1753.35 333.813C1752.96 331.915 1751.49 329.567 1748.94 326.776Z" fill="white"/>
<path d="M2242.92 651.24C2192.11 661.567 2141.77 656.435 2091.93 635.822C2038.28 614.339 2002.12 580.537 1983.47 534.424L1951.62 414.469L1932.42 317.729L1922.89 319.666C1907.33 322.828 1892.89 320.14 1879.58 311.609C1865.89 302.824 1857.39 290.339 1854.09 274.154C1850.93 258.601 1853.93 244.108 1863.11 230.674C1871.89 216.987 1884.08 208.566 1899.63 205.404L1909.16 203.466L1882.11 70.6311C1878.96 55.0783 1881.77 40.4585 1890.56 26.7717C1899.41 13.4091 1911.78 5.1069 1927.65 1.88089C1943.54 -1.35302 1958.05 1.6516 1971.16 10.8789C1984.86 19.6634 1993.29 31.8321 1996.46 47.3849L2023.03 180.315L2101.63 164.335C2117.19 161.165 2131.69 164.169 2145.14 173.333C2158.84 182.118 2167.26 194.287 2170.42 209.839C2173.72 226.025 2170.78 240.842 2161.61 254.268C2152.7 267.322 2140.45 275.435 2124.89 278.597L2046.28 294.577L2065.95 391.223C2066.67 394.718 2068.83 406.175 2072.46 425.602C2073.63 432.963 2074.79 439.502 2075.95 445.219C2077.18 451.244 2078.43 456.613 2079.73 461.309C2087.57 488.469 2100.5 507.319 2118.52 517.875C2150.7 537.777 2184.4 544.142 2219.66 536.978C2235.54 533.744 2250.13 536.401 2263.45 544.932C2276.89 554.096 2285.23 566.613 2288.46 582.482C2291.69 598.351 2288.88 612.971 2280.02 626.341C2271.16 639.712 2258.81 648.006 2242.92 651.24ZM1973.62 35.1688C1965.71 25.5382 1955.62 19.8295 1943.35 18.0267C1937.56 17.2202 1932.13 17.3309 1927.05 18.3667C1922.6 19.2681 1918.64 20.9048 1915.14 23.2611C1912.23 25.1745 1909.28 28.5824 1906.32 33.4847C1905.55 36.2837 1905.31 38.3157 1905.56 39.5887C1905.89 41.178 1907.65 41.6445 1910.81 40.9962L1911.77 40.8064C1917.48 37.9915 1922.71 36.1018 1927.48 35.1293C1942.73 32.0298 1955.55 37.359 1965.97 51.109C1966.72 51.6151 1967.43 51.8048 1968.05 51.6704C1969.64 51.3462 1971.16 49.8835 1972.62 47.2742C1974.9 43.8347 1975.85 41.1622 1975.45 39.2645L1975.36 38.7822C1975.17 37.8334 1974.58 36.6316 1973.62 35.1688ZM2147.12 195.243C2139.21 185.613 2129.1 179.896 2116.83 178.101C2111.05 177.295 2105.61 177.405 2100.53 178.441L2077.66 183.09C2075.7 186.459 2074.98 189.416 2075.5 191.954C2075.63 192.587 2075.94 193.354 2076.46 194.239C2078.37 197.157 2081.74 198.287 2086.58 197.639C2091.41 196.983 2096.21 196.176 2100.97 195.204C2116.21 192.104 2129.03 197.434 2139.44 211.184C2140.21 211.69 2140.91 211.879 2141.54 211.745C2143.14 211.421 2144.66 209.958 2146.11 207.349C2148.38 203.909 2149.33 201.237 2148.95 199.339L2148.84 198.857C2148.65 197.908 2148.08 196.706 2147.12 195.243Z" fill="white"/>
<path d="M1564.04 902.587C1505.29 911.782 1457.81 940.579 1421.61 988.969C1385.83 1038.23 1372.34 1092.76 1381.13 1152.57C1388.62 1203.57 1411.64 1247.03 1450.18 1282.95C1488.76 1319.19 1533.4 1338.56 1584.11 1341.08C1599.49 1341.94 1614.34 1341.32 1628.68 1339.23C1669.6 1333.25 1706.92 1315.24 1740.64 1285.2C1785.91 1244.48 1809.93 1194.14 1812.72 1134.2C1813.51 1118.89 1812.84 1103.95 1810.7 1089.38C1805.7 1055.38 1792.75 1023.31 1771.85 993.184C1741.77 950.439 1702.38 922.235 1653.7 908.564C1624.73 900.389 1594.85 898.396 1564.04 902.587ZM1548.87 793.164C1640.19 781.382 1721.34 803.182 1792.33 858.553C1835.33 891.66 1868.3 933.36 1891.26 983.656C1904.77 1013.31 1913.82 1043.77 1918.42 1075.04C1921.59 1096.6 1922.52 1118.48 1921.2 1140.69C1917.99 1205.97 1896.67 1265.36 1857.25 1318.88C1818.17 1372.64 1768.36 1410.46 1707.81 1432.33C1687.28 1439.98 1666.41 1445.35 1645.19 1448.45C1614.14 1452.98 1582.21 1452.68 1549.42 1447.55C1494.88 1439.7 1445.76 1418.96 1402.07 1385.34C1349.3 1345.91 1311.81 1294.32 1289.63 1230.58C1282.19 1209.03 1276.86 1187.33 1273.65 1165.47C1267.5 1123.58 1269.53 1081.42 1279.77 1038.99C1295.38 974.998 1327.64 920.512 1376.56 875.537C1424.96 831.259 1481.35 803.957 1545.73 793.622L1548.87 793.164ZM1772.7 874.446C1754.93 853.161 1723.88 835.987 1679.55 822.925C1644.16 812.591 1615.27 809.056 1592.87 812.322C1587.79 813.065 1583.06 814.069 1578.67 815.327C1573.47 817.327 1571.03 819.391 1571.34 821.518C1571.88 825.155 1575.01 826.72 1580.73 826.191C1637.17 824.151 1699.13 843.016 1766.6 882.78C1769.69 885.121 1772.13 886.156 1773.92 885.895C1774.82 885.761 1775.5 885.2 1775.96 884.203C1776.47 883.508 1776.61 882.401 1776.39 880.882C1776.12 879.064 1774.89 876.913 1772.7 874.446Z" fill="#FF3A6A"/>
<path d="M1936.02 957.658C1933.03 942.92 1935.78 929.209 1944.28 916.527C1952.43 903.591 1963.75 895.653 1978.24 892.711C2004.87 887.295 2024.5 896.767 2037.16 921.121C2070.23 888.41 2109.81 867.212 2155.89 857.534C2202.33 848.093 2247.23 852.268 2290.59 870.074C2346.36 892.861 2388.62 934.056 2417.39 993.658C2424.24 1007.61 2429.68 1024.5 2433.71 1044.35L2470.44 1224.76C2473.5 1239.8 2470.93 1253.63 2462.72 1266.26C2454.81 1278.83 2443.3 1286.65 2428.22 1289.71C2413.73 1292.66 2400.24 1289.92 2387.74 1281.5C2374.95 1273.14 2367.02 1261.45 2363.96 1246.41L2327.23 1066C2322.09 1040.74 2310.4 1018.85 2292.15 1000.33C2273.55 981.569 2252.05 969.811 2227.69 965.059C2210.66 961.628 2194.31 961.509 2178.63 964.695C2163.84 967.7 2149.52 973.749 2135.66 982.826C2107.29 1000.81 2089.02 1026.12 2080.89 1058.78C2076.2 1076.64 2075.65 1095.85 2079.23 1116.42L2115.96 1296.83C2119.01 1311.87 2116.44 1325.7 2108.23 1338.33C2100.02 1350.95 2088.52 1358.77 2073.73 1361.78C2059.24 1364.73 2045.75 1361.99 2033.26 1353.57C2020.46 1345.21 2012.53 1333.52 2009.48 1318.48L1936.02 957.658ZM2316.02 913.277C2298.17 893.731 2273.84 881.618 2243 876.929C2223.26 873.735 2204.81 873.885 2187.66 877.38C2179.37 879.064 2171.54 881.436 2164.16 884.504C2159.02 886.489 2156.69 888.679 2157.18 891.09L2157.27 891.541C2157.95 894.846 2161 896.261 2166.45 895.779C2218.37 890.545 2266.53 899.385 2310.92 922.299C2314.07 924.165 2316.54 924.916 2318.31 924.552C2319.2 924.378 2319.88 923.928 2320.34 923.2C2321.05 922.117 2321.31 921.129 2321.13 920.227C2320.7 918.124 2318.99 915.807 2316.02 913.277ZM2020.64 921.666C2013.23 912.526 2003.8 907.086 1992.37 905.339C1986.97 904.556 1981.91 904.643 1977.17 905.607C1973.03 906.453 1969.34 907.987 1966.1 910.209C1963.38 912.012 1960.86 915.499 1958.53 920.67C1957.41 922.781 1956.98 924.434 1957.23 925.635C1957.53 927.138 1959.16 927.588 1962.12 926.988L1963 926.806C1968.32 924.157 1973.19 922.386 1977.63 921.484C1991.83 918.598 2003.8 923.682 2013.54 936.729C2014.26 937.211 2014.91 937.393 2015.5 937.274C2016.98 936.974 2018.39 935.59 2019.73 933.123C2021.85 929.874 2022.72 927.351 2022.34 925.541L2022.26 925.09C2022.08 924.188 2021.54 923.05 2020.64 921.666Z" fill="#FF3A6A"/>
<path d="M2604.46 1015.54C2607.43 1030.15 2605.15 1043.7 2597.6 1056.19C2589.93 1068.09 2579.18 1075.45 2565.34 1078.27C2551.77 1081.03 2539.14 1078.43 2527.43 1070.46C2515.6 1061.91 2508.19 1050.33 2505.22 1035.71L2434.01 685.921C2431.09 671.602 2433.44 658.35 2441.04 646.15C2448.59 633.657 2459.14 626.035 2472.72 623.275C2486.55 620.461 2499.39 623.331 2511.22 631.878C2523 640.141 2530.34 651.432 2533.25 665.743L2604.46 1015.54ZM2601.12 1254.04C2587.56 1256.8 2574.89 1254.05 2563.12 1245.79C2551.29 1237.24 2543.91 1225.8 2541 1211.49C2538.08 1197.17 2540.43 1183.91 2548.04 1171.71C2555.58 1159.22 2566.14 1151.6 2579.7 1148.85C2593.55 1146.03 2606.38 1148.89 2618.21 1157.45C2629.99 1165.7 2637.32 1176.99 2640.24 1191.31C2643.16 1205.63 2640.84 1219.03 2633.3 1231.53C2625.69 1243.72 2614.96 1251.23 2601.12 1254.04ZM2513.43 653.345C2506.42 644.418 2497.52 638.931 2486.72 636.859C2481.65 636.069 2477.05 636.092 2472.9 636.931C2468.74 637.777 2465.17 639.271 2462.14 641.406C2460.16 643.027 2459.26 644.268 2459.44 645.146L2459.71 646.466C2460 647.921 2461.26 648.427 2463.47 647.976C2480.64 644.49 2496.58 647.787 2511.32 657.884C2512.61 658.532 2513.53 658.801 2514.09 658.69C2514.36 658.635 2514.62 658.429 2514.82 658.081C2515.32 657.678 2515.53 657.33 2515.48 657.038C2515.25 655.867 2514.55 654.634 2513.43 653.345ZM2624.27 1174.47C2617.27 1165.55 2608.4 1160.2 2597.65 1158.43C2592.59 1157.63 2587.85 1157.68 2583.42 1158.59C2579.55 1159.38 2576.09 1160.83 2573.07 1162.97C2570.54 1164.71 2568.2 1168.07 2566.05 1173.07C2565.02 1175.11 2564.62 1176.71 2564.86 1177.88C2565.16 1179.34 2566.69 1179.79 2569.45 1179.22L2570.29 1179.06C2575.25 1176.53 2579.8 1174.84 2583.96 1174C2597.25 1171.29 2608.5 1176.31 2617.73 1189.04C2618.4 1189.51 2619.01 1189.69 2619.56 1189.58C2620.95 1189.3 2622.26 1187.97 2623.51 1185.58C2625.46 1182.45 2626.26 1180 2625.91 1178.25L2625.82 1177.81C2625.64 1176.93 2625.12 1175.82 2624.27 1174.47Z" fill="#FF3A6A"/>
<path d="M650.238 229.913L711.604 132.208C716.129 124.799 722.609 120.134 731.044 118.221C739.312 116.347 747.089 117.77 754.368 122.498C761.616 127.061 766.181 133.473 768.056 141.736C770.01 150.338 768.705 158.253 764.148 165.496L702.726 262.956L800.242 324.329C807.529 329.065 812.126 335.644 814.049 344.073C815.924 352.335 814.603 360.171 810.069 367.58C805.512 374.822 799.095 379.385 790.827 381.259C782.393 383.172 774.544 381.852 767.305 377.289L669.67 315.402L607.853 413.479C603.288 420.722 596.871 425.284 588.611 427.158C580.169 429.071 572.328 427.751 565.081 423.189C557.802 418.46 553.221 411.961 551.338 403.698C549.423 395.27 550.728 387.347 555.254 379.938L616.675 282.486L519.151 221.105C511.904 216.543 507.307 209.964 505.353 201.361C503.478 193.099 504.815 185.35 509.38 178.107C513.906 170.699 520.386 166.034 528.828 164.12C537.096 162.246 544.866 163.669 552.152 168.398L650.238 229.913ZM757.889 134.469C753.553 129.425 748.094 126.499 741.519 125.685C738.426 125.321 735.522 125.448 732.824 126.064C730.466 126.594 728.369 127.519 726.534 128.816C724.999 129.876 723.472 131.734 721.945 134.382C721.573 135.885 721.462 136.976 721.62 137.648C721.81 138.494 722.752 138.723 724.437 138.336L724.943 138.225C727.958 136.652 730.727 135.576 733.259 135.007C741.361 133.165 748.268 135.853 753.989 143.064C754.4 143.325 754.78 143.42 755.12 143.341C755.959 143.151 756.758 142.353 757.502 140.937C758.672 139.079 759.147 137.64 758.918 136.628L758.854 136.375C758.744 135.869 758.419 135.236 757.889 134.469ZM512.545 192.016C512.395 192.941 512.387 193.652 512.497 194.158L512.553 194.411C512.782 195.423 513.835 196.515 515.694 197.685C516.976 198.634 518.036 199.013 518.882 198.823C519.223 198.744 519.515 198.499 519.776 198.088C521.818 189.114 526.889 183.705 534.991 181.871C537.523 181.294 540.482 181.065 543.884 181.183L544.391 181.065C546.076 180.685 546.82 180.068 546.63 179.23C546.48 178.55 545.91 177.617 544.929 176.423C542.405 174.692 540.221 173.68 538.386 173.387C536.17 173 533.876 173.079 531.518 173.616C528.82 174.225 526.146 175.364 523.511 177.032C517.933 180.598 514.278 185.595 512.545 192.016Z" fill="#FF3A6A"/>
<path d="M2669.21 620.712L2673.38 642.191L2644.22 647.855L2661.42 736.435L2634.62 741.643L2617.41 653.063L2588.25 658.728L2584.08 637.249L2669.21 620.712Z" fill="white"/>
<path d="M2807.3 593.887L2828.68 703.945L2801.87 709.153L2789.05 643.149L2777.26 713.935L2755.62 718.137L2718 656.789L2730.85 722.949L2704.04 728.157L2682.66 618.098L2714.33 611.946L2760.02 682.141L2775.79 600.008L2807.3 593.887Z" fill="white"/>
</svg>
