<svg width="2797" height="1791" viewBox="0 0 2797 1791" fill="none" xmlns="http://www.w3.org/2000/svg">
<path d="M184.817 969.689L233.774 1210.21C237.044 1226.24 234.198 1241.01 225.252 1254.52C216.307 1268.03 203.971 1276.38 188.247 1279.58C172.202 1282.85 157.42 1280 143.902 1271.06C130.384 1262.12 121.998 1249.63 118.736 1233.6L1.31511 656.827C-1.69075 640.402 1.17921 625.79 9.941 612.991C18.9506 599.801 31.4138 591.261 47.3305 587.354L407.867 514.054C485.34 500.64 547.831 520.333 595.342 573.125C619.964 600.512 635.937 632.165 643.244 668.084C645.986 681.554 647.481 695.447 647.721 709.755C648.864 764.632 632.635 810.514 599.043 847.399C572.678 875.465 537.894 895.062 494.709 906.183L661.223 1093.75C667.93 1102.07 672.295 1111.2 674.318 1121.15C675.301 1125.96 675.829 1131.03 675.909 1136.35C674.877 1152.59 668.082 1166 655.523 1176.57C647.649 1183.84 638.895 1188.46 629.27 1190.42C624.137 1191.47 618.677 1191.74 612.897 1191.24C596.709 1190.52 583.358 1184.05 572.854 1171.83L361.955 933.674L184.817 969.689ZM161.314 854.238L464.57 792.578C503.015 784.429 524.68 762.827 529.572 727.763C531.011 716.786 530.66 706.008 528.501 695.423C525.959 682.912 520.811 670.768 513.064 658.984C497.571 635.417 477.337 624.671 452.363 626.74L431.37 629.505L128.113 691.165L161.314 854.238ZM560.39 578.726C522.242 539.06 472.837 525.391 412.184 537.726C404.805 539.228 397.33 541.081 389.76 543.286C384.18 545.419 381.677 547.936 382.269 550.82C383.052 554.671 386.49 555.973 392.59 554.735C441.435 546.809 495.229 558.242 553.971 589.048C557.632 590.646 560.43 591.245 562.357 590.853C562.997 590.725 563.7 590.078 564.468 588.92C564.979 588.145 565.107 587.122 564.843 585.836C564.452 583.911 562.965 581.546 560.39 578.726Z" fill="white"/>
<path d="M852.136 885.123C855.334 900.837 852.464 915.449 843.518 928.951C834.636 942.78 822.173 951.328 806.128 954.588C790.404 957.783 775.75 954.756 762.168 945.496C748.649 936.548 740.287 924.221 737.089 908.507L658.649 523.192C655.451 507.478 658.329 492.866 667.275 479.356C676.157 465.527 688.46 457.018 704.185 453.823C720.229 450.555 735.043 453.559 748.625 462.818C762.144 471.758 770.498 484.085 773.696 499.8L852.136 885.123ZM751.311 488.32C743.309 478.597 733.116 472.821 720.709 470.999C714.865 470.184 709.373 470.296 704.241 471.343C699.748 472.254 695.735 473.907 692.217 476.288C689.267 478.229 687.892 479.675 688.084 480.634C686.565 486.29 686.03 490.237 686.485 492.482C686.749 493.768 687.525 494.28 688.804 494.016C694.576 491.172 699.868 489.262 704.68 488.288C720.086 485.156 733.044 490.533 743.557 504.426C745.1 505.448 746.195 505.896 746.835 505.76C750.6 497.987 752.614 493.904 752.87 493.521C753.126 493.129 753.182 492.618 753.054 491.979C752.862 491.012 752.279 489.798 751.311 488.32Z" fill="white"/>
<path d="M984.868 858.621C976.954 854.219 968.903 849.178 960.733 843.49C905.117 805.039 870.485 752.302 856.839 685.274L856.151 681.902C842.761 612.829 855.008 549.882 892.909 493.088C921.217 449.931 959.582 418.414 1008 398.553C1024.1 392.273 1040.34 387.472 1056.71 384.141C1089.11 377.55 1122.16 377.35 1155.83 383.525C1205.64 393.44 1248.97 416.688 1285.83 453.278C1322.04 490.004 1345.37 533.185 1355.81 582.83C1365.73 631.571 1361.34 679.721 1342.61 727.281C1323.88 774.84 1294.38 812.9 1254.07 841.469C1224.79 861.777 1192.4 875.878 1156.91 883.763C1122.33 896.138 1098.87 908.921 1086.52 922.119C1066.74 941.5 1054.16 965.1 1048.8 992.91C1045.77 1010.89 1046.02 1028.54 1049.55 1045.85C1051.37 1054.83 1054.01 1063.65 1057.44 1072.31C1069.81 1101.85 1090.72 1124.16 1120.18 1139.2C1149.07 1154.71 1179.56 1159.2 1211.65 1152.67C1227.38 1149.47 1242 1152.34 1255.52 1161.28C1269.42 1170.48 1277.96 1182.93 1281.17 1198.65C1284.37 1214.36 1281.36 1229.16 1272.16 1243.06C1263.21 1256.57 1250.88 1264.92 1235.15 1268.12C1185.03 1277.98 1135.94 1273.26 1087.91 1253.97C1039.09 1234.17 1000.74 1203.39 972.861 1161.64C953.762 1133.47 940.939 1103.34 934.416 1071.27C930.954 1054.27 929.259 1036.91 929.331 1019.2C929.092 967.145 943.034 919.898 971.15 877.444C975.499 870.885 980.071 864.613 984.868 858.621ZM1133.41 768.313C1170.18 760.164 1198.92 740.463 1219.63 709.201C1240.91 677.492 1247.79 643.195 1240.29 606.31C1233.89 574.888 1218.04 548.716 1192.73 527.817C1167.1 506.973 1138.22 496.483 1106.11 496.332C1096.09 496.363 1086.43 497.322 1077.12 499.216C1051.77 504.369 1029.08 516.832 1009.04 536.605C981.838 563.847 968.2 596.171 968.128 633.592C968.16 643.603 969.095 653.102 970.918 662.082C977.121 692.544 993.198 718.165 1019.15 738.937C1052.76 766.172 1090.85 775.958 1133.41 768.313ZM1225.3 444.043C1205.38 423.383 1178.72 410.6 1145.31 405.703C1124.23 402.308 1104.22 402.531 1085.29 406.382C1076.63 408.148 1068.13 410.704 1059.79 414.076C1054.21 416.209 1051.68 418.558 1052.2 421.122L1052.3 421.609C1053.02 425.133 1056.33 426.635 1062.24 426.099C1118.86 420.267 1171.05 429.527 1218.78 453.885C1222.52 455.803 1225.34 456.562 1227.26 456.17C1227.91 456.034 1228.65 455.555 1229.48 454.716C1229.93 453.622 1230.01 452.439 1229.76 451.153C1229.37 449.228 1227.88 446.863 1225.3 444.043ZM1257.91 1185.34C1249.91 1175.61 1239.71 1169.84 1227.31 1168.02C1221.46 1167.2 1215.97 1167.32 1210.84 1168.36C1206.34 1169.28 1202.34 1170.92 1198.81 1173.31C1195.86 1175.25 1193.11 1178.98 1190.56 1184.51C1189.35 1186.76 1188.88 1188.52 1189.14 1189.81C1189.46 1191.41 1191.23 1191.89 1194.44 1191.23L1195.4 1191.04C1201.17 1188.2 1206.46 1186.29 1211.28 1185.3C1226.68 1182.17 1239.64 1187.56 1250.15 1201.45C1250.93 1201.95 1251.64 1202.14 1252.28 1202.02C1253.89 1201.69 1255.42 1200.21 1256.88 1197.58C1259.19 1194.1 1260.14 1191.4 1259.75 1189.47L1259.65 1188.99C1259.46 1188.04 1258.87 1186.81 1257.91 1185.34Z" fill="white"/>
<path d="M1320.11 189.331C1316.92 173.616 1319.79 159.012 1328.73 145.503C1337.93 131.61 1350.4 123.061 1366.12 119.866C1381.85 116.67 1396.66 119.666 1410.56 128.861C1424.08 137.809 1432.44 150.136 1435.64 165.851L1471.18 340.469C1508.06 304.917 1549.77 282.412 1596.29 272.953C1613.31 269.494 1630.83 267.768 1648.88 267.768C1699.61 267.472 1746.32 281.861 1789 310.917C1829.74 338.703 1861.08 376.084 1883.01 423.06L1898.49 472.01L1937.66 664.427C1940.93 680.461 1938.08 695.233 1929.14 708.743C1919.87 722.316 1907.38 730.697 1891.65 733.9C1875.93 737.096 1861.15 734.252 1847.31 725.376C1833.79 716.436 1825.4 703.949 1822.13 687.915L1782.96 495.497C1765.55 434.581 1729.85 398.757 1675.87 388.02C1657.75 384.361 1640.01 384.289 1622.69 387.812C1613.39 389.706 1604.43 392.526 1595.84 396.281C1569.99 407.21 1549.37 424.099 1533.96 446.932C1524.06 462.303 1517.34 478.529 1513.8 495.617C1512.28 502.935 1512.31 521.135 1513.88 550.207L1553.05 742.624C1556.32 758.659 1553.48 773.43 1544.53 786.932C1535.26 800.506 1522.77 808.894 1507.04 812.09C1491.32 815.285 1476.54 812.449 1462.7 803.573C1449.18 794.634 1440.79 782.147 1437.53 766.112L1320.11 189.331ZM1412.09 153.604C1404.09 143.873 1393.89 138.097 1381.49 136.275C1375.65 135.461 1370.16 135.58 1365.03 136.619C1360.53 137.538 1356.52 139.183 1352.99 141.572C1350.05 143.505 1347.3 147.236 1344.75 152.765C1343.54 155.018 1343.06 156.783 1343.32 158.062C1343.65 159.667 1345.42 160.147 1348.62 159.492L1349.59 159.292C1355.36 156.456 1360.65 154.538 1365.47 153.564C1380.87 150.432 1393.83 155.809 1404.34 169.702C1405.12 170.213 1405.82 170.405 1406.46 170.277C1408.07 169.949 1409.6 168.471 1411.07 165.835C1413.38 162.36 1414.33 159.659 1413.93 157.734L1413.84 157.255C1413.64 156.296 1413.06 155.074 1412.09 153.604ZM1766.81 329.955C1746.9 309.295 1720.23 296.513 1686.82 291.616C1665.74 288.22 1645.74 288.444 1626.8 292.295C1618.14 294.06 1609.64 296.625 1601.3 299.988C1595.72 302.121 1593.19 304.478 1593.71 307.042L1593.81 307.522C1594.53 311.045 1597.84 312.547 1603.74 312.012C1660.38 306.18 1712.56 315.439 1760.29 339.798C1764.02 341.715 1766.85 342.474 1768.78 342.083C1769.42 341.955 1770.15 341.468 1770.99 340.629C1771.43 339.542 1771.53 338.352 1771.27 337.066C1770.87 335.148 1769.39 332.775 1766.81 329.955Z" fill="white"/>
<path d="M2265.93 657.793C2214.59 668.227 2163.73 663.042 2113.37 642.214C2059.16 620.508 2022.63 586.354 2003.78 539.762L1971.6 418.559L1952.2 320.812L1942.57 322.77C1926.85 325.965 1912.26 323.249 1898.81 314.629C1884.97 305.753 1876.39 293.138 1873.05 276.784C1869.86 261.07 1872.89 246.426 1882.17 232.852C1891.04 219.023 1903.35 210.515 1919.07 207.319L1928.69 205.362L1901.37 71.145C1898.18 55.4304 1901.02 40.6586 1909.9 26.8294C1918.84 13.3279 1931.34 4.93928 1947.38 1.67972C1963.44 -1.58782 1978.09 1.44804 1991.34 10.7713C2005.18 19.6472 2013.7 31.9424 2016.9 47.657L2043.75 181.97L2123.17 165.824C2138.89 162.62 2153.54 165.656 2167.13 174.915C2180.97 183.791 2189.48 196.087 2192.67 211.801C2196.01 228.155 2193.04 243.126 2183.78 256.692C2174.77 269.882 2162.39 278.079 2146.67 281.274L2067.24 297.42L2087.12 395.071C2087.84 398.602 2090.03 410.179 2093.7 429.808C2094.88 437.246 2096.05 443.853 2097.22 449.629C2098.46 455.716 2099.73 461.141 2101.04 465.887C2108.96 493.329 2122.03 512.375 2140.24 523.041C2172.74 543.149 2206.8 549.58 2242.43 542.342C2258.47 539.075 2273.22 541.759 2286.67 550.379C2300.25 559.639 2308.68 572.285 2311.94 588.32C2315.2 604.354 2312.36 619.126 2303.41 632.635C2294.47 646.145 2281.98 654.525 2265.93 657.793ZM1993.83 35.3138C1985.84 25.5831 1975.64 19.815 1963.24 17.9935C1957.39 17.1786 1951.9 17.2904 1946.77 18.337C1942.28 19.2478 1938.27 20.9015 1934.74 23.2823C1931.79 25.2156 1928.82 28.6589 1925.82 33.6122C1925.05 36.4403 1924.81 38.4935 1925.06 39.7797C1925.39 41.3855 1927.17 41.8569 1930.36 41.2018L1931.33 41.0101C1937.1 38.1659 1942.39 36.2566 1947.21 35.2739C1962.61 32.1422 1975.57 37.5268 1986.09 51.4199C1986.85 51.9312 1987.57 52.1229 1988.2 51.9871C1989.81 51.6595 1991.34 50.1816 1992.82 47.5451C1995.12 44.0699 1996.08 41.3696 1995.68 39.4522L1995.59 38.9649C1995.39 38.0062 1994.8 36.7918 1993.83 35.3138ZM2169.13 197.053C2161.14 187.322 2150.93 181.546 2138.53 179.733C2132.68 178.918 2127.19 179.03 2122.05 180.076L2098.95 184.774C2096.97 188.177 2096.24 191.165 2096.77 193.73C2096.89 194.369 2097.21 195.144 2097.73 196.039C2099.67 198.987 2103.07 200.129 2107.96 199.474C2112.84 198.811 2117.69 197.996 2122.5 197.013C2137.9 193.882 2150.86 199.266 2161.38 213.159C2162.15 213.671 2162.86 213.862 2163.49 213.726C2165.11 213.399 2166.64 211.921 2168.11 209.285C2170.4 205.809 2171.36 203.109 2170.98 201.192L2170.87 200.704C2170.67 199.746 2170.1 198.531 2169.13 197.053Z" fill="white"/>
<path d="M1579.99 911.753C1520.63 921.045 1472.65 950.141 1436.07 999.034C1399.92 1048.81 1386.29 1103.91 1395.17 1164.34C1402.74 1215.87 1426 1259.78 1464.94 1296.08C1503.92 1332.69 1549.03 1352.26 1600.27 1354.8C1615.8 1355.68 1630.81 1355.04 1645.3 1352.94C1686.65 1346.9 1724.36 1328.7 1758.42 1298.35C1804.16 1257.2 1828.43 1206.34 1831.25 1145.78C1832.06 1130.3 1831.38 1115.21 1829.21 1100.49C1824.16 1066.13 1811.08 1033.73 1789.96 1003.29C1759.56 960.103 1719.77 931.606 1670.58 917.793C1641.31 909.532 1611.12 907.519 1579.99 911.753ZM1564.66 801.192C1656.92 789.288 1738.92 811.314 1810.65 867.262C1854.1 900.712 1887.42 942.847 1910.61 993.665C1924.26 1023.63 1933.41 1054.41 1938.05 1086C1941.26 1107.78 1942.19 1129.89 1940.87 1152.33C1937.62 1218.29 1916.08 1278.3 1876.25 1332.37C1836.76 1386.7 1786.43 1424.91 1725.25 1447.01C1704.51 1454.73 1683.42 1460.17 1661.98 1463.29C1630.61 1467.87 1598.35 1467.57 1565.21 1462.39C1510.11 1454.45 1460.48 1433.5 1416.33 1399.53C1363.01 1359.69 1325.14 1307.57 1302.73 1243.16C1295.2 1221.39 1289.82 1199.46 1286.58 1177.37C1280.36 1135.04 1282.41 1092.44 1292.76 1049.57C1308.53 984.917 1341.13 929.865 1390.55 884.422C1439.46 839.684 1496.44 812.097 1561.49 801.655L1564.66 801.192ZM1790.81 883.32C1772.86 861.813 1741.49 844.461 1696.7 831.263C1660.95 820.821 1631.75 817.25 1609.12 820.55C1603.99 821.301 1599.2 822.315 1594.77 823.585C1589.52 825.607 1587.05 827.692 1587.37 829.841C1587.91 833.516 1591.07 835.098 1596.85 834.562C1653.88 832.501 1716.48 851.563 1784.66 891.741C1787.78 894.105 1790.25 895.152 1792.05 894.888C1792.96 894.752 1793.64 894.185 1794.11 893.179C1794.63 892.476 1794.77 891.357 1794.55 889.823C1794.27 887.986 1793.03 885.813 1790.81 883.32Z" fill="#FF3A6A"/>
<path d="M1955.84 967.398C1952.81 952.507 1955.59 938.653 1964.19 925.839C1972.42 912.769 1983.85 904.748 1998.5 901.776C2025.4 896.303 2045.24 905.874 2058.03 930.481C2091.44 897.43 2131.43 876.011 2177.99 866.232C2224.91 856.693 2270.28 860.911 2314.09 878.903C2370.44 901.928 2413.15 943.551 2442.21 1003.77C2449.13 1017.87 2454.63 1034.94 2458.71 1054.99L2495.82 1237.28C2498.91 1252.47 2496.31 1266.45 2488.01 1279.21C2480.02 1291.91 2468.4 1299.81 2453.16 1302.9C2438.51 1305.88 2424.88 1303.12 2412.25 1294.61C2399.33 1286.16 2391.32 1274.35 2388.23 1259.15L2351.12 1076.86C2345.92 1051.35 2334.11 1029.23 2315.67 1010.52C2296.88 991.557 2275.16 979.678 2250.53 974.876C2233.33 971.409 2216.81 971.289 2200.97 974.509C2186.03 977.544 2171.56 983.656 2157.55 992.828C2128.88 1010.99 2110.43 1036.58 2102.22 1069.57C2097.47 1087.62 2096.91 1107.03 2100.54 1127.81L2137.65 1310.1C2140.73 1325.29 2138.13 1339.27 2129.84 1352.03C2121.55 1364.78 2109.92 1372.69 2094.98 1375.72C2080.33 1378.7 2066.7 1375.94 2054.08 1367.43C2041.15 1358.98 2033.14 1347.17 2030.06 1331.97L1955.84 967.398ZM2339.78 922.555C2321.76 902.806 2297.16 890.567 2266.01 885.829C2246.07 882.602 2227.42 882.754 2210.09 886.285C2201.72 887.987 2193.81 890.383 2186.35 893.483C2181.15 895.488 2178.8 897.701 2179.3 900.138L2179.38 900.593C2180.07 903.933 2183.16 905.363 2188.67 904.876C2241.12 899.587 2289.78 908.519 2334.63 931.671C2337.82 933.556 2340.31 934.315 2342.1 933.948C2343 933.772 2343.68 933.317 2344.16 932.582C2344.87 931.487 2345.13 930.489 2344.95 929.578C2344.52 927.453 2342.79 925.112 2339.78 922.555ZM2041.33 931.032C2033.85 921.796 2024.32 916.3 2012.77 914.534C2007.31 913.743 2002.2 913.831 1997.42 914.806C1993.23 915.661 1989.5 917.211 1986.23 919.456C1983.48 921.277 1980.93 924.8 1978.57 930.025C1977.45 932.158 1977.02 933.828 1977.26 935.042C1977.57 936.56 1979.21 937.016 1982.2 936.409L1983.1 936.225C1988.47 933.548 1993.4 931.759 1997.88 930.848C2012.22 927.932 2024.32 933.069 2034.16 946.251C2034.89 946.738 2035.54 946.922 2036.14 946.802C2037.64 946.499 2039.06 945.101 2040.41 942.608C2042.55 939.325 2043.43 936.776 2043.06 934.947L2042.97 934.491C2042.79 933.58 2042.24 932.43 2041.33 931.032Z" fill="#FF3A6A"/>
<path d="M2631.23 1025.88C2634.23 1040.64 2631.92 1054.33 2624.29 1066.96C2616.55 1078.98 2605.68 1086.42 2591.7 1089.26C2577.99 1092.05 2565.22 1089.42 2553.39 1081.37C2541.44 1072.73 2533.96 1061.03 2530.95 1046.26L2459 692.834C2456.05 678.366 2458.43 664.976 2466.11 652.649C2473.74 640.026 2484.4 632.324 2498.12 629.536C2512.09 626.692 2525.07 629.592 2537.02 638.228C2548.92 646.577 2556.33 657.985 2559.28 672.446L2631.23 1025.88ZM2627.85 1266.86C2614.15 1269.65 2601.35 1266.87 2589.45 1258.53C2577.5 1249.89 2570.05 1238.33 2567.1 1223.87C2564.16 1209.4 2566.54 1196 2574.22 1183.68C2581.84 1171.05 2592.51 1163.35 2606.21 1160.58C2620.2 1157.73 2633.17 1160.62 2645.12 1169.26C2657.02 1177.6 2664.43 1189.01 2667.38 1203.48C2670.33 1217.95 2667.98 1231.49 2660.36 1244.11C2652.68 1256.43 2641.84 1264.02 2627.85 1266.86ZM2539.25 659.919C2532.17 650.899 2523.17 645.355 2512.26 643.262C2507.15 642.463 2502.49 642.487 2498.3 643.333C2494.1 644.188 2490.49 645.698 2487.42 647.855C2485.42 649.493 2484.51 650.747 2484.7 651.634L2484.97 652.968C2485.26 654.438 2486.54 654.95 2488.77 654.494C2506.12 650.971 2522.23 654.302 2537.12 664.505C2538.43 665.16 2539.35 665.431 2539.91 665.319C2540.19 665.263 2540.45 665.056 2540.66 664.704C2541.16 664.297 2541.38 663.945 2541.32 663.65C2541.09 662.467 2540.39 661.221 2539.25 659.919ZM2651.24 1186.46C2644.17 1177.45 2635.21 1172.04 2624.35 1170.25C2619.23 1169.45 2614.45 1169.5 2609.97 1170.41C2606.06 1171.21 2602.57 1172.68 2599.51 1174.85C2596.95 1176.6 2594.59 1179.99 2592.42 1185.05C2591.37 1187.11 2590.97 1188.73 2591.21 1189.91C2591.52 1191.39 2593.07 1191.84 2595.86 1191.27L2596.7 1191.1C2601.72 1188.54 2606.31 1186.84 2610.51 1185.99C2623.94 1183.25 2635.31 1188.32 2644.63 1201.19C2645.31 1201.66 2645.93 1201.84 2646.49 1201.73C2647.89 1201.44 2649.21 1200.1 2650.48 1197.69C2652.45 1194.53 2653.26 1192.05 2652.9 1190.28L2652.81 1189.84C2652.63 1188.95 2652.11 1187.83 2651.24 1186.46Z" fill="#FF3A6A"/>
<path d="M656.68 232.084L718.684 133.363C723.257 125.877 729.804 121.164 738.326 119.23C746.68 117.337 754.539 118.775 761.894 123.552C769.216 128.162 773.829 134.641 775.724 142.99C777.698 151.682 776.379 159.679 771.775 166.997L709.715 265.471L808.245 327.482C815.607 332.268 820.252 338.915 822.195 347.431C824.089 355.78 822.754 363.697 818.174 371.183C813.569 378.501 807.086 383.11 798.731 385.004C790.209 386.937 782.279 385.603 774.964 380.993L676.314 318.463L613.855 417.559C609.242 424.877 602.758 429.487 594.412 431.381C585.882 433.314 577.96 431.98 570.637 427.37C563.282 422.593 558.654 416.025 556.751 407.677C554.816 399.16 556.136 391.155 560.708 383.67L622.768 285.204L524.23 223.184C516.907 218.575 512.263 211.928 510.288 203.236C508.393 194.887 509.744 187.058 514.357 179.74C518.93 172.254 525.477 167.54 534.007 165.607C542.361 163.714 550.212 165.152 557.575 169.929L656.68 232.084ZM765.451 135.648C761.07 130.551 755.554 127.595 748.911 126.772C745.785 126.404 742.851 126.532 740.125 127.155C737.743 127.691 735.624 128.625 733.77 129.936C732.219 131.006 730.676 132.884 729.133 135.56C728.757 137.078 728.645 138.18 728.805 138.859C728.997 139.714 729.948 139.946 731.651 139.554L732.163 139.443C735.209 137.853 738.007 136.766 740.565 136.191C748.751 134.33 755.73 137.046 761.51 144.332C761.926 144.596 762.309 144.691 762.653 144.612C763.5 144.42 764.308 143.613 765.059 142.183C766.242 140.305 766.722 138.851 766.49 137.829L766.426 137.573C766.314 137.062 765.987 136.423 765.451 135.648ZM517.555 193.793C517.403 194.727 517.395 195.446 517.507 195.958L517.563 196.213C517.795 197.236 518.858 198.338 520.737 199.521C522.032 200.479 523.103 200.863 523.958 200.671C524.302 200.591 524.598 200.344 524.862 199.928C526.924 190.861 532.049 185.396 540.235 183.543C542.793 182.959 545.783 182.728 549.22 182.847L549.732 182.728C551.435 182.344 552.186 181.721 551.994 180.874C551.843 180.187 551.267 179.244 550.276 178.038C547.726 176.288 545.519 175.266 543.664 174.97C541.426 174.579 539.108 174.659 536.725 175.202C533.999 175.817 531.297 176.967 528.635 178.653C522.999 182.256 519.306 187.305 517.555 193.793Z" fill="#FF3A6A"/>
<path d="M2655.5 592.638C2670.03 589.814 2683.72 590.666 2696.56 595.192C2709.35 599.468 2720.15 606.862 2728.95 617.373C2737.7 627.633 2743.49 640.03 2746.31 654.563C2749.14 669.096 2748.43 682.883 2744.21 695.926C2739.98 708.968 2732.76 719.991 2722.55 728.995C2712.29 737.749 2699.89 743.537 2685.36 746.36C2670.58 749.232 2656.79 748.53 2644 744.254C2631.16 739.728 2620.33 732.209 2611.53 721.698C2602.73 711.187 2596.92 698.665 2594.09 684.132C2591.27 669.599 2592 655.937 2596.27 643.145C2600.5 630.103 2607.74 619.205 2618 610.452C2628.22 601.447 2640.71 595.509 2655.5 592.638ZM2682.44 731.326C2700.48 727.822 2713.89 719.236 2722.68 705.568C2731.72 691.852 2734.46 675.848 2730.9 657.556C2727.35 639.265 2718.82 625.451 2705.3 616.116C2692.04 606.731 2676.39 603.791 2658.35 607.296C2640.05 610.849 2626.52 619.459 2617.73 633.127C2609.19 646.746 2606.7 662.701 2610.26 680.993C2613.81 699.284 2622.09 713.146 2635.11 722.579C2648.37 731.964 2664.15 734.879 2682.44 731.326ZM2701.15 646.954C2702.32 652.968 2701.69 658.421 2699.26 663.313C2697.03 667.907 2693.33 671.615 2688.16 674.44L2715.27 701.547L2691.66 706.523L2667.78 679.959L2661.39 681.2L2667.23 711.268L2647.69 715.065L2631.99 634.257L2668.07 627.248C2676.59 625.593 2683.79 626.534 2689.68 630.071C2695.82 633.559 2699.64 639.187 2701.15 646.954ZM2658.25 665.039L2673.66 662.045C2676.42 661.51 2678.53 660.32 2679.99 658.476C2681.7 656.583 2682.29 654.259 2681.75 651.503C2681.22 648.746 2679.83 646.937 2677.58 646.073C2675.53 644.91 2673.13 644.597 2670.38 645.132L2654.97 648.126L2658.25 665.039Z" fill="white"/>
<path d="M1977.42 1624.62C1993.33 1624.91 2007.09 1630.17 2018.7 1640.4C2030.26 1650.37 2037.52 1663 2040.49 1678.29C2044.77 1700.34 2040.41 1719.39 2027.4 1735.43C2014.59 1751.18 1994.41 1761.73 1966.85 1767.08L1843.94 1790.94L1792.72 1527.08L1911.49 1504.03C1938.3 1498.82 1960.42 1500.9 1977.84 1510.26C1995.51 1519.57 2006.38 1534.75 2010.47 1555.8C2013.48 1571.33 2011.86 1585.04 2005.58 1596.92C1999.56 1608.75 1990.17 1617.98 1977.42 1624.62ZM1877.72 1621.35L1919.81 1613.18C1930.34 1611.14 1937.92 1607.32 1942.55 1601.74C1947.39 1595.86 1948.94 1588.41 1947.19 1579.39C1945.43 1570.37 1941.21 1564.04 1934.53 1560.4C1928.09 1556.71 1919.61 1555.89 1909.09 1557.93L1866.99 1566.1L1877.72 1621.35ZM1945.5 1717.4C1956.28 1715.31 1964.08 1711.32 1968.92 1705.44C1973.96 1699.26 1975.59 1691.54 1973.79 1682.27C1971.99 1673 1967.44 1666.34 1960.16 1662.29C1953.12 1658.2 1944.22 1657.19 1933.44 1659.29L1886.84 1668.33L1898.15 1726.59L1945.5 1717.4Z" fill="white"/>
<path d="M2114.75 1518L2125.11 1571.38L2211.18 1554.67L2220.81 1604.28L2134.74 1620.99L2145.98 1678.87L2243.32 1659.97L2253.32 1711.47L2091.7 1742.84L2040.48 1478.99L2202.1 1447.61L2212.1 1499.11L2114.75 1518Z" fill="white"/>
<path d="M2433.64 1402.67L2443.63 1454.16L2373.72 1467.73L2414.95 1680.09L2350.67 1692.57L2309.45 1480.21L2239.54 1493.78L2229.54 1442.29L2433.64 1402.67Z" fill="white"/>
<path d="M2672.32 1581.77L2573.84 1600.88L2567.1 1650.55L2499.82 1663.61L2544.07 1381.23L2618.49 1366.78L2765.18 1612.1L2697.15 1625.31L2672.32 1581.77ZM2646.15 1535.36L2594.69 1445.12L2581.12 1547.99L2646.15 1535.36Z" fill="white"/>
</svg>
