<svg width="61" height="43" viewBox="0 0 61 43" fill="none" xmlns="http://www.w3.org/2000/svg">
<path d="M44.2206 36.4728C44.5393 36.4849 44.8129 36.5957 45.0413 36.8051C45.2689 37.0095 45.4094 37.2654 45.4628 37.5727C45.5398 38.0161 45.4449 38.3959 45.1781 38.7122C44.9154 39.0226 44.5069 39.2259 43.9527 39.3222L41.4814 39.7517L40.5594 34.4463L42.9476 34.0313C43.4867 33.9376 43.9289 33.9879 44.2741 34.1823C44.6243 34.3757 44.8362 34.6841 44.9098 35.1073C44.9641 35.4197 44.926 35.6936 44.7956 35.9291C44.6703 36.1637 44.4786 36.3449 44.2206 36.4728ZM42.2248 36.368L43.0712 36.221C43.2828 36.1842 43.4362 36.1108 43.5313 36.0009C43.6305 35.885 43.6644 35.7364 43.6328 35.555C43.6013 35.3736 43.5193 35.2451 43.3868 35.1695C43.2593 35.0931 43.0898 35.0732 42.8782 35.11L42.0317 35.2571L42.2248 36.368ZM43.5447 38.3187C43.7614 38.281 43.9193 38.2043 44.0186 38.0884C44.122 37.9666 44.1575 37.8125 44.1251 37.6261C44.0927 37.4397 44.0043 37.3045 43.86 37.2206C43.7207 37.1358 43.5427 37.1122 43.3261 37.1499L42.3889 37.3127L42.5925 38.4842L43.5447 38.3187ZM47.0135 34.3914L47.2 35.4646L48.9307 35.1638L49.104 36.1614L47.3733 36.4622L47.5756 37.626L49.533 37.2859L49.7129 38.3213L46.4632 38.886L45.5412 33.5806L48.791 33.0159L48.9709 34.0513L47.0135 34.3914ZM53.4466 32.2069L53.6265 33.2423L52.2208 33.4865L52.9628 37.7566L51.6704 37.9811L50.9284 33.7111L49.5227 33.9554L49.3428 32.92L53.4466 32.2069ZM58.1569 35.8885L56.1768 36.2326L56.0222 37.2249L54.6694 37.46L55.6671 31.821L57.1635 31.561L60.0051 36.5328L58.6372 36.7705L58.1569 35.8885ZM57.651 34.9487L56.656 33.1207L56.3436 35.1759L57.651 34.9487Z" fill="white"/>
<path d="M4.0159 21.0801L5.08063 26.311C5.15174 26.6597 5.08985 26.981 4.8953 27.2748C4.70075 27.5686 4.43248 27.7501 4.09049 27.8196C3.74155 27.8907 3.42008 27.8289 3.12608 27.6344C2.83208 27.44 2.6497 27.1684 2.57876 26.8197L0.0250757 14.276C-0.0402964 13.9187 0.0221202 13.6009 0.212673 13.3226C0.408615 13.0357 0.679666 12.85 1.02583 12.765L8.86682 11.1709C10.5517 10.8792 11.9108 11.3075 12.9441 12.4556C13.4796 13.0512 13.8269 13.7396 13.9858 14.5208C14.0455 14.8137 14.078 15.1159 14.0832 15.427C14.1081 16.6205 13.7551 17.6184 13.0246 18.4206C12.4512 19.0309 11.6947 19.4571 10.7555 19.699L14.3769 23.7783C14.5227 23.9591 14.6177 24.1577 14.6616 24.374C14.683 24.4786 14.6945 24.589 14.6962 24.7047C14.6738 25.0579 14.526 25.3495 14.2529 25.5793C14.0816 25.7376 13.8913 25.838 13.6819 25.8806C13.5703 25.9034 13.4516 25.9093 13.3259 25.8985C12.9738 25.8829 12.6834 25.7421 12.455 25.4763L7.86834 20.2969L4.0159 21.0801ZM3.50475 18.5693L10.1 17.2283C10.9361 17.0511 11.4073 16.5813 11.5137 15.8187C11.545 15.5799 11.5373 15.3456 11.4904 15.1153C11.4351 14.8432 11.3231 14.5791 11.1547 14.3229C10.8177 13.8103 10.3777 13.5766 9.83454 13.6216L9.37798 13.6817L2.7827 15.0227L3.50475 18.5693ZM12.1839 12.5774C11.3543 11.7147 10.2798 11.4175 8.96071 11.6857C8.80024 11.7184 8.63767 11.7587 8.47303 11.8066C8.35167 11.853 8.29725 11.9078 8.31012 11.9705C8.32716 12.0542 8.40192 12.0826 8.53457 12.0556C9.59687 11.8833 10.7668 12.1319 12.0443 12.8019C12.124 12.8366 12.1848 12.8497 12.2267 12.8411C12.2406 12.8384 12.2559 12.8243 12.2726 12.7991C12.2837 12.7822 12.2865 12.76 12.2808 12.732C12.2723 12.6902 12.2399 12.6387 12.1839 12.5774Z" fill="white"/>
<path d="M18.5288 19.2408C18.5983 19.5826 18.5359 19.9004 18.3413 20.194C18.1482 20.4948 17.8771 20.6807 17.5282 20.7516C17.1862 20.8211 16.8675 20.7552 16.5721 20.5538C16.2781 20.3592 16.0963 20.0911 16.0267 19.7494L14.3208 11.3695C14.2512 11.0277 14.3138 10.7099 14.5084 10.4161C14.7015 10.1154 14.9691 9.93034 15.3111 9.86084C15.66 9.78978 15.9822 9.8551 16.2776 10.0565C16.5716 10.2509 16.7533 10.519 16.8228 10.8608L18.5288 19.2408ZM16.336 10.6111C16.162 10.3996 15.9403 10.274 15.6705 10.2344C15.5434 10.2167 15.4239 10.2191 15.3123 10.2419C15.2146 10.2617 15.1273 10.2976 15.0508 10.3494C14.9867 10.3916 14.9568 10.4231 14.9609 10.4439C14.9279 10.567 14.9163 10.6528 14.9262 10.7016C14.9319 10.7296 14.9488 10.7407 14.9766 10.735C15.1021 10.6731 15.2172 10.6316 15.3219 10.6104C15.6569 10.5423 15.9387 10.6592 16.1674 10.9614C16.2009 10.9836 16.2248 10.9933 16.2387 10.9904C16.3206 10.8213 16.3644 10.7325 16.3699 10.7242C16.3755 10.7157 16.3767 10.7046 16.3739 10.6907C16.3698 10.6696 16.3571 10.6432 16.336 10.6111Z" fill="white"/>
<path d="M21.4156 18.6646C21.2435 18.5689 21.0684 18.4593 20.8907 18.3356C19.6812 17.4993 18.928 16.3524 18.6312 14.8946L18.6163 14.8213C18.325 13.3191 18.5914 11.9501 19.4157 10.715C20.0313 9.77637 20.8657 9.09093 21.9188 8.65899C22.2689 8.52242 22.622 8.418 22.9779 8.34555C23.6828 8.20221 24.4015 8.19786 25.1338 8.33217C26.217 8.54779 27.1593 9.0534 27.961 9.84917C28.7486 10.6479 29.2559 11.587 29.483 12.6667C29.6988 13.7267 29.6031 14.7739 29.1959 15.8082C28.7886 16.8425 28.1469 17.6703 27.2702 18.2916C26.6334 18.7333 25.9291 19.0399 25.1571 19.2114C24.4052 19.4806 23.8949 19.7586 23.6263 20.0456C23.1961 20.4671 22.9227 20.9804 22.806 21.5852C22.7401 21.9761 22.7457 22.3601 22.8223 22.7366C22.862 22.9319 22.9194 23.1237 22.9939 23.3119C23.2629 23.9544 23.7177 24.4395 24.3584 24.7667C24.9867 25.1039 25.6499 25.2016 26.3477 25.0596C26.6897 24.9901 27.0077 25.0525 27.3017 25.2469C27.6041 25.4469 27.7899 25.7178 27.8596 26.0595C27.9292 26.4013 27.8638 26.7233 27.6637 27.0254C27.4691 27.3192 27.2009 27.501 26.8589 27.5705C25.7688 27.7849 24.7013 27.6822 23.6565 27.2627C22.5949 26.8322 21.7609 26.1627 21.1545 25.2547C20.7391 24.6421 20.4602 23.9867 20.3184 23.2893C20.2431 22.9197 20.2062 22.5422 20.2078 22.157C20.2026 21.0248 20.5058 19.9973 21.1173 19.074C21.2119 18.9313 21.3113 18.7949 21.4156 18.6646ZM24.6461 16.7006C25.4459 16.5234 26.0709 16.0949 26.5212 15.415C26.9841 14.7254 27.1338 13.9795 26.9705 13.1773C26.8314 12.494 26.4867 11.9248 25.9362 11.4702C25.3788 11.0169 24.7508 10.7888 24.0524 10.7855C23.8346 10.7862 23.6244 10.807 23.422 10.8482C22.8707 10.9603 22.3771 11.2313 21.9414 11.6614C21.3497 12.2538 21.0531 12.9568 21.0516 13.7707C21.0522 13.9884 21.0726 14.195 21.1122 14.3903C21.2471 15.0528 21.5968 15.61 22.1611 16.0617C22.8922 16.654 23.7205 16.8669 24.6461 16.7006ZM26.6445 9.64831C26.2114 9.199 25.6316 8.921 24.9049 8.8145C24.4466 8.74065 24.0114 8.74552 23.5997 8.82926C23.4112 8.86766 23.2264 8.92326 23.0451 8.99658C22.9237 9.04297 22.8686 9.09406 22.8801 9.14983L22.8821 9.16043C22.8978 9.23705 22.9698 9.26972 23.0983 9.25808C24.3297 9.13124 25.4647 9.33261 26.5028 9.86237C26.584 9.90407 26.6454 9.92058 26.6873 9.91206C26.7014 9.90911 26.7174 9.89869 26.7354 9.88044C26.7452 9.85664 26.7471 9.83092 26.7415 9.80295C26.733 9.76108 26.7007 9.70965 26.6445 9.64831ZM27.3537 25.7702C27.1798 25.5586 26.958 25.433 26.6883 25.3934C26.5611 25.3757 26.4416 25.3783 26.33 25.4009C26.2323 25.4208 26.1452 25.4566 26.0685 25.5086C26.0044 25.5506 25.9445 25.6318 25.8891 25.752C25.8627 25.801 25.8524 25.8394 25.8581 25.8674C25.8651 25.9021 25.9037 25.9125 25.9734 25.8983L25.9943 25.8941C26.1198 25.8323 26.2349 25.7908 26.3396 25.7694C26.6746 25.7013 26.9564 25.8184 27.1851 26.1205C27.2019 26.1315 27.2174 26.1356 27.2313 26.1329C27.2662 26.1257 27.2996 26.0936 27.3314 26.0363C27.3815 25.9607 27.4024 25.902 27.3939 25.8601L27.3916 25.8497C27.3874 25.8288 27.3747 25.8022 27.3537 25.7702Z" fill="white"/>
<path d="M28.7063 4.10846C28.6368 3.7667 28.6992 3.44909 28.8937 3.15528C29.0939 2.85313 29.3649 2.66722 29.7069 2.59772C30.0489 2.52822 30.371 2.59338 30.6734 2.79336C30.9674 2.98796 31.1493 3.25605 31.2188 3.59781L31.9918 7.39543C32.7938 6.62225 33.7009 6.1328 34.7127 5.92709C35.0827 5.85185 35.4638 5.81432 35.8564 5.81432C36.9597 5.80789 37.9756 6.12081 38.9037 6.75274C39.7898 7.35703 40.4714 8.17 40.9483 9.19164L41.2849 10.2562L42.1368 14.4409C42.2079 14.7896 42.146 15.1109 41.9515 15.4047C41.75 15.6999 41.4782 15.8822 41.1362 15.9518C40.7942 16.0213 40.4728 15.9595 40.1718 15.7665C39.8778 15.572 39.6954 15.3005 39.6243 14.9517L38.7724 10.767C38.3937 9.44219 37.6173 8.6631 36.4433 8.42958C36.0492 8.35001 35.6636 8.34844 35.2868 8.42507C35.0844 8.46624 34.8897 8.52758 34.7028 8.60924C34.1407 8.84693 33.6922 9.21423 33.3571 9.7108C33.1417 10.0451 32.9957 10.398 32.9186 10.7696C32.8856 10.9288 32.8863 11.3246 32.9204 11.9568L33.7723 16.1416C33.8434 16.4903 33.7815 16.8116 33.587 17.1052C33.3855 17.4004 33.1137 17.5828 32.7717 17.6523C32.4297 17.7218 32.1083 17.6601 31.8073 17.4671C31.5133 17.2727 31.3308 17.0011 31.2598 16.6524L28.7063 4.10846ZM30.7066 3.33146C30.5327 3.11983 30.3109 2.99421 30.0412 2.9546C29.9141 2.93688 29.7947 2.93948 29.6831 2.96207C29.5854 2.98205 29.4981 3.01784 29.4214 3.06979C29.3574 3.11184 29.2976 3.19298 29.2422 3.31321C29.2157 3.36221 29.2053 3.40061 29.211 3.42841C29.2182 3.46333 29.2566 3.47376 29.3263 3.45951L29.3473 3.45517C29.4729 3.39349 29.588 3.35179 29.6926 3.33059C30.0277 3.26248 30.3095 3.37941 30.5381 3.68156C30.555 3.69268 30.5703 3.69685 30.5842 3.69407C30.6191 3.68695 30.6525 3.6548 30.6845 3.59747C30.7346 3.52189 30.7553 3.46316 30.7468 3.42129L30.7447 3.41086C30.7403 3.39001 30.7276 3.36343 30.7066 3.33146ZM38.4212 7.16678C37.9881 6.71747 37.4081 6.43947 36.6815 6.33296C36.2231 6.25912 35.7881 6.26398 35.3762 6.34773C35.1879 6.38613 35.0029 6.4419 34.8216 6.51505C34.7002 6.56144 34.6453 6.6127 34.6566 6.66847L34.6587 6.67889C34.6743 6.75552 34.7465 6.78818 34.8748 6.77654C36.1064 6.64971 37.2412 6.85108 38.2793 7.38084C38.3605 7.42254 38.4221 7.43904 38.464 7.43053C38.4779 7.42775 38.4939 7.41715 38.512 7.39891C38.5217 7.37528 38.5238 7.34939 38.518 7.32142C38.5095 7.27972 38.4772 7.22811 38.4212 7.16678Z" fill="white"/>
<path d="M49.2761 14.297C48.1596 14.5239 47.0535 14.4111 45.9583 13.9582C44.7794 13.4861 43.9848 12.7433 43.575 11.73L42.8751 9.09408L42.4531 6.96827L42.2438 7.01084C41.9018 7.08034 41.5845 7.02126 41.2921 6.83379C40.9911 6.64075 40.8044 6.36641 40.7319 6.01074C40.6625 5.66898 40.7284 5.3505 40.9301 5.0553C41.1231 4.75454 41.3908 4.5695 41.7326 4.5L41.942 4.45743L41.3477 1.53846C41.2783 1.1967 41.3402 0.875438 41.5332 0.57468C41.7278 0.281045 41.9995 0.0986089 42.3484 0.0277196C42.6976 -0.0433435 43.0162 0.022681 43.3045 0.225445C43.6055 0.41848 43.7908 0.685878 43.8603 1.02764L44.4442 3.9487L46.1715 3.59755C46.5133 3.52788 46.832 3.5939 47.1276 3.79528C47.4285 3.98831 47.6135 4.25571 47.683 4.59747C47.7555 4.95314 47.691 5.27874 47.4895 5.57377C47.2936 5.86062 47.0245 6.03889 46.6826 6.10839L44.9552 6.45953L45.3874 8.58326C45.4032 8.66006 45.4507 8.91182 45.5305 9.33872C45.5562 9.50048 45.5816 9.64417 45.6071 9.76979C45.6341 9.90218 45.6617 10.0202 45.6902 10.1234C45.8624 10.7202 46.1466 11.1344 46.5427 11.3664C47.2496 11.8037 47.9903 11.9436 48.7652 11.7861C49.1139 11.7151 49.4347 11.7735 49.7273 11.9609C50.0227 12.1623 50.206 12.4373 50.2769 12.7861C50.3478 13.1348 50.2861 13.456 50.0914 13.7498C49.8968 14.0436 49.6253 14.2259 49.2761 14.297ZM43.3586 0.7592C43.1847 0.547574 42.9629 0.422128 42.6934 0.382514C42.5661 0.364791 42.4467 0.367224 42.3351 0.389985C42.2373 0.409792 42.1502 0.445758 42.0734 0.497535C42.0094 0.539583 41.9447 0.614468 41.8795 0.722192C41.8627 0.783699 41.8575 0.828351 41.863 0.856325C41.8701 0.891248 41.9087 0.9015 41.9783 0.887252L41.9993 0.883082C42.1249 0.821228 42.2398 0.779703 42.3446 0.758332C42.6796 0.690222 42.9615 0.807328 43.1903 1.10948C43.2068 1.1206 43.2224 1.12477 43.2362 1.12181C43.2711 1.11469 43.3045 1.08255 43.3365 1.02521C43.3866 0.949628 43.4074 0.890901 43.3987 0.849201L43.3968 0.838603C43.3925 0.817753 43.3796 0.791343 43.3586 0.7592ZM47.171 4.27673C46.9972 4.06511 46.7751 3.93949 46.5055 3.90005C46.3784 3.88233 46.2589 3.88476 46.1472 3.90752L45.6447 4.00968C45.6016 4.0837 45.5858 4.14868 45.5972 4.20445C45.6 4.21835 45.607 4.23521 45.6183 4.25467C45.6603 4.31878 45.7344 4.34363 45.8406 4.32938C45.9469 4.31496 46.0522 4.29724 46.1569 4.27587C46.4917 4.20776 46.7736 4.32486 47.0024 4.62701C47.0192 4.63813 47.0345 4.6423 47.0485 4.63935C47.0836 4.63222 47.117 4.60008 47.1488 4.54274C47.1987 4.46716 47.2195 4.40844 47.2112 4.36674L47.2088 4.35614C47.2046 4.33529 47.1921 4.30888 47.171 4.27673Z" fill="white"/>
<path d="M34.3584 19.8199C33.0675 20.022 32.0242 20.6548 31.2286 21.7181C30.4424 22.8006 30.1459 23.9989 30.3391 25.3132C30.5038 26.4339 31.0095 27.3889 31.8564 28.1783C32.7041 28.9746 33.6853 29.4003 34.7995 29.4555C35.1373 29.4744 35.4639 29.4607 35.7789 29.4149C36.6781 29.2835 37.4982 28.8877 38.239 28.2276C39.2339 27.3328 39.7617 26.2267 39.8229 24.9096C39.8405 24.573 39.8257 24.2448 39.7786 23.9246C39.6687 23.1775 39.3843 22.4727 38.9249 21.8108C38.2639 20.8715 37.3984 20.2517 36.3286 19.9513C35.6921 19.7716 35.0355 19.7279 34.3584 19.8199ZM34.0252 17.4154C36.0317 17.1566 37.815 17.6356 39.3749 18.8523C40.3198 19.5798 41.0445 20.4962 41.5489 21.6014C41.8458 22.2531 42.0447 22.9224 42.1457 23.6096C42.2154 24.0832 42.2358 24.564 42.2069 25.052C42.1363 26.4865 41.6678 27.7917 40.8016 28.9676C39.9429 30.1491 38.8483 30.9802 37.5177 31.4607C37.0665 31.6288 36.6079 31.7469 36.1417 31.8148C35.4593 31.9146 34.7578 31.908 34.0371 31.7952C32.8387 31.6227 31.7594 31.1669 30.7993 30.4282C29.6397 29.5617 28.8159 28.4281 28.3286 27.0274C28.165 26.5539 28.048 26.077 27.9774 25.5966C27.8421 24.676 27.8868 23.7496 28.1118 22.8173C28.4548 21.4111 29.1638 20.2138 30.2386 19.2256C31.3023 18.2526 32.5414 17.6526 33.9561 17.4255L34.0252 17.4154ZM38.9435 19.2016C38.553 18.7338 37.8708 18.3565 36.8967 18.0694C36.1191 17.8423 35.4842 17.7647 34.992 17.8364C34.8804 17.8528 34.7764 17.8748 34.6799 17.9025C34.5657 17.9464 34.512 17.9918 34.5189 18.0385C34.5307 18.1184 34.5994 18.1528 34.7251 18.1412C35.9654 18.0964 37.327 18.5109 38.8097 19.3847C38.8775 19.4361 38.9312 19.4589 38.9705 19.4532C38.9901 19.4502 39.0051 19.4379 39.0153 19.416C39.0265 19.4007 39.0296 19.3764 39.0247 19.343C39.0188 19.303 38.9917 19.2558 38.9435 19.2016Z" fill="#FF3A6A"/>
<path d="M42.5324 21.0301C42.4665 20.7062 42.527 20.4049 42.7139 20.1262C42.8929 19.842 43.1416 19.6675 43.4601 19.6029C44.0451 19.4839 44.4767 19.692 44.7548 20.2272C45.4814 19.5084 46.3512 19.0425 47.3638 18.8299C48.3842 18.6224 49.3709 18.7142 50.3236 19.1054C51.5492 19.6062 52.478 20.5114 53.1101 21.8211C53.2605 22.1276 53.3801 22.4989 53.4688 22.935L54.2759 26.8994C54.3431 27.2299 54.2866 27.5338 54.1062 27.8113C53.9323 28.0875 53.6795 28.2594 53.3481 28.3266C53.0296 28.3914 52.7332 28.3313 52.4585 28.1463C52.1775 27.9626 52.0033 27.7056 51.936 27.3752L51.129 23.4108C51.016 22.8558 50.759 22.3747 50.3581 21.9678C49.9493 21.5555 49.4769 21.2971 48.9414 21.1927C48.5673 21.1173 48.2081 21.1147 47.8635 21.1847C47.5385 21.2507 47.2238 21.3836 46.9192 21.5831C46.2958 21.9782 45.8943 22.5345 45.7158 23.2521C45.6127 23.6446 45.6005 24.0668 45.6793 24.5187L46.4863 28.4832C46.5534 28.8136 46.4969 29.1175 46.3165 29.395C46.1362 29.6725 45.8834 29.8443 45.5584 29.9103C45.2399 29.9751 44.9435 29.915 44.6689 29.73C44.3878 29.5463 44.2136 29.2894 44.1465 28.9589L42.5324 21.0301ZM50.8824 20.0548C50.4904 19.6253 49.9556 19.3591 49.278 19.2561C48.8442 19.1859 48.4388 19.1892 48.0619 19.266C47.8798 19.303 47.7077 19.3551 47.5455 19.4225C47.4325 19.4661 47.3814 19.5143 47.3921 19.5673L47.3941 19.5772C47.409 19.6498 47.4761 19.6809 47.5959 19.6703C48.7366 19.5553 49.7949 19.7495 50.7705 20.2531C50.8397 20.2941 50.8939 20.3106 50.9328 20.3026C50.9523 20.2987 50.9673 20.2888 50.9775 20.2729C50.993 20.2491 50.9987 20.2273 50.9947 20.2075C50.9854 20.1613 50.9478 20.1104 50.8824 20.0548ZM44.3916 20.2392C44.2289 20.0383 44.0217 19.9188 43.7704 19.8804C43.6519 19.8632 43.5406 19.8651 43.4366 19.8863C43.3455 19.9049 43.2645 19.9386 43.1932 19.9874C43.1336 20.027 43.0781 20.1036 43.0268 20.2173C43.0023 20.2637 42.9929 20.3 42.9983 20.3264C43.0049 20.3594 43.0407 20.3693 43.1058 20.3561L43.1252 20.3521C43.2421 20.2939 43.3492 20.255 43.4467 20.2352C43.7586 20.1717 44.0217 20.2835 44.2357 20.5701C44.2515 20.5807 44.2658 20.5847 44.2788 20.5821C44.3113 20.5755 44.3423 20.5451 44.3716 20.4909C44.4182 20.4195 44.4374 20.3641 44.4292 20.3243L44.4273 20.3144C44.4233 20.2946 44.4115 20.2696 44.3916 20.2392Z" fill="#FF3A6A"/>
<path d="M57.2208 22.302C57.2862 22.623 57.2359 22.9208 57.07 23.1954C56.9016 23.4569 56.6653 23.6186 56.3612 23.6805C56.063 23.7411 55.7854 23.6839 55.5281 23.5088C55.2681 23.321 55.1054 23.0664 55.04 22.7454L53.4753 15.0589C53.4111 14.7442 53.4628 14.453 53.6298 14.185C53.7957 13.9104 54.0276 13.7429 54.326 13.6823C54.6299 13.6204 54.9121 13.6835 55.172 13.8713C55.4307 14.0529 55.592 14.301 55.656 14.6155L57.2208 22.302ZM57.1474 27.5429C56.8494 27.6035 56.5711 27.5431 56.3124 27.3617C56.0524 27.1739 55.8904 26.9224 55.8262 26.608C55.7623 26.2933 55.8139 26.0019 55.981 25.7338C56.1468 25.4593 56.3788 25.2918 56.6768 25.2315C56.981 25.1695 57.263 25.2324 57.523 25.4204C57.7818 25.6018 57.943 25.8499 58.0072 26.1646C58.0713 26.4792 58.0202 26.7737 57.8545 27.0482C57.6874 27.3162 57.4517 27.4812 57.1474 27.5429ZM55.2205 14.3431C55.0665 14.1469 54.8709 14.0263 54.6335 13.9808C54.5223 13.9634 54.4211 13.9639 54.3298 13.9824C54.2385 14.001 54.1599 14.0338 54.0934 14.0807C54.0499 14.1163 54.0301 14.1436 54.0341 14.1629L54.04 14.1919C54.0464 14.2239 54.0741 14.235 54.1227 14.2251C54.5 14.1485 54.8503 14.2209 55.1743 14.4428C55.2026 14.457 55.2228 14.463 55.2349 14.4605C55.241 14.4593 55.2466 14.4548 55.2511 14.4471C55.2621 14.4383 55.2667 14.4306 55.2655 14.4242C55.2605 14.3985 55.2452 14.3714 55.2205 14.3431ZM57.6561 25.7945C57.5023 25.5985 57.3074 25.4809 57.0713 25.4419C56.96 25.4244 56.8558 25.4256 56.7585 25.4454C56.6735 25.4628 56.5975 25.4948 56.5311 25.5418C56.4754 25.5799 56.424 25.6537 56.3769 25.7637C56.3541 25.8085 56.3454 25.8436 56.3506 25.8694C56.3572 25.9015 56.3909 25.9114 56.4516 25.8989L56.4699 25.8952C56.5791 25.8396 56.679 25.8026 56.7703 25.784C57.0624 25.7246 57.3096 25.8348 57.5123 26.1147C57.5271 26.1249 57.5405 26.1289 57.5527 26.1265C57.5831 26.1202 57.612 26.0911 57.6394 26.0386C57.6824 25.9698 57.6999 25.9159 57.6921 25.8775L57.6902 25.8678C57.6862 25.8485 57.6749 25.8242 57.6561 25.7945Z" fill="#FF3A6A"/>
<path d="M14.278 5.03862L15.6264 2.89161C15.7259 2.72881 15.8683 2.6263 16.0536 2.58425C16.2353 2.54307 16.4062 2.57435 16.5662 2.67825C16.7254 2.7785 16.8257 2.91941 16.8669 3.10098C16.9099 3.29002 16.8812 3.46394 16.7811 3.62309L15.4314 5.76471L17.5742 7.11335C17.7343 7.21742 17.8354 7.36198 17.8776 7.5472C17.9188 7.72877 17.8898 7.90095 17.7901 8.06375C17.69 8.22291 17.549 8.32316 17.3673 8.36434C17.182 8.40639 17.0095 8.37737 16.8504 8.27712L14.705 6.91719L13.3466 9.07236C13.2463 9.23152 13.1053 9.33177 12.9238 9.37295C12.7382 9.41499 12.5659 9.38598 12.4067 9.28573C12.2467 9.18182 12.1461 9.039 12.1047 8.85744C12.0626 8.67222 12.0913 8.49812 12.1908 8.33532L13.5404 6.19387L11.3974 4.84506C11.2382 4.74481 11.1371 4.60025 11.0942 4.41122C11.053 4.22965 11.0824 4.05937 11.1827 3.90022C11.2821 3.73742 11.4245 3.63491 11.6101 3.59286C11.7917 3.55168 11.9625 3.58296 12.1226 3.68686L14.278 5.03862ZM16.6435 2.9413C16.5483 2.83045 16.4283 2.76617 16.2838 2.74827C16.2158 2.74028 16.152 2.74306 16.0927 2.75661C16.0409 2.76825 15.9948 2.78858 15.9545 2.81707C15.9208 2.84036 15.8872 2.88119 15.8537 2.93939C15.8455 2.97241 15.8431 2.99638 15.8465 3.01115C15.8507 3.02974 15.8714 3.03478 15.9084 3.02627L15.9196 3.02383C15.9858 2.98926 16.0467 2.96563 16.1023 2.95312C16.2803 2.91264 16.4321 2.97171 16.5578 3.13017C16.5669 3.1359 16.5752 3.13799 16.5827 3.13625C16.6011 3.13208 16.6187 3.11453 16.635 3.08343C16.6607 3.0426 16.6712 3.01098 16.6661 2.98874L16.6647 2.98318C16.6623 2.97206 16.6552 2.95816 16.6435 2.9413ZM11.2522 4.20584C11.2489 4.22617 11.2488 4.24181 11.2512 4.25293L11.2524 4.25849C11.2575 4.28073 11.2806 4.30471 11.3214 4.33042C11.3496 4.35127 11.3729 4.35961 11.3915 4.35544C11.399 4.3537 11.4054 4.34832 11.4112 4.33928C11.456 4.14208 11.5675 4.02324 11.7455 3.98293C11.8011 3.97024 11.8662 3.9652 11.9409 3.96781L11.952 3.9652C11.9891 3.95686 12.0054 3.94331 12.0012 3.92489C11.9979 3.90995 11.9854 3.88945 11.9639 3.86321C11.9084 3.82516 11.8604 3.80292 11.8201 3.79649C11.7714 3.78798 11.721 3.78972 11.6692 3.80153C11.6099 3.81491 11.5511 3.83993 11.4932 3.87659C11.3706 3.95495 11.2903 4.06476 11.2522 4.20584Z" fill="#FF3A6A"/>
</svg>
