<svg width="185" height="61" viewBox="0 0 185 61" fill="none" xmlns="http://www.w3.org/2000/svg">
<path fill-rule="evenodd" clip-rule="evenodd" d="M184.841 6.06061L174.999 0H9.9994L0.158205 6.06061L9.9994 12.5L0.9455 18.4242L9.9994 24L0.256617 30L9.9994 36L0.158203 42.0606L9.9994 48.5L0.158203 54.9394L9.9994 61H174.999L184.841 54.9394L174.999 48.5L184.841 42.0606L174.999 36L184.742 30L174.999 24L184.053 18.4242L174.999 12.5L184.841 6.06061Z" fill="url(#paint0_linear_5700_171655)"/>
<path d="M12.0694 30.3639C12.0694 28.876 12.4122 27.5414 13.0977 26.3598C13.7979 25.1783 14.7387 24.2594 15.9203 23.603C17.1164 22.932 18.4219 22.5965 19.8368 22.5965C21.4559 22.5965 22.8927 22.9976 24.1471 23.7999C25.4162 24.5876 26.3351 25.7107 26.904 27.1694H23.9065C23.5126 26.3671 22.9656 25.7691 22.2655 25.3752C21.5653 24.9814 20.7557 24.7845 19.8368 24.7845C18.8303 24.7845 17.9332 25.0106 17.1455 25.4628C16.3579 25.9149 15.7379 26.5641 15.2857 27.4101C14.8481 28.2561 14.6293 29.2407 14.6293 30.3639C14.6293 31.4871 14.8481 32.4717 15.2857 33.3177C15.7379 34.1637 16.3579 34.8201 17.1455 35.2869C17.9332 35.7391 18.8303 35.9652 19.8368 35.9652C20.7557 35.9652 21.5653 35.7682 22.2655 35.3744C22.9656 34.9806 23.5126 34.3825 23.9065 33.5802H26.904C26.3351 35.0389 25.4162 36.1621 24.1471 36.9498C22.8927 37.7374 21.4559 38.1313 19.8368 38.1313C18.4073 38.1313 17.1018 37.8031 15.9203 37.1467C14.7387 36.4757 13.7979 35.5494 13.0977 34.3679C12.4122 33.1864 12.0694 31.8517 12.0694 30.3639ZM35.053 38.1969C33.9152 38.1969 32.8868 37.9417 31.9679 37.4311C31.0489 36.906 30.3269 36.1767 29.8018 35.2431C29.2766 34.295 29.0141 33.201 29.0141 31.9611C29.0141 30.7358 29.2839 29.6491 29.8236 28.701C30.3633 27.7529 31.1 27.0235 32.0335 26.513C32.9671 26.0025 34.01 25.7472 35.1624 25.7472C36.3147 25.7472 37.3577 26.0025 38.2912 26.513C39.2247 27.0235 39.9614 27.7529 40.5011 28.701C41.0408 29.6491 41.3106 30.7358 41.3106 31.9611C41.3106 33.1864 41.0335 34.2731 40.4792 35.2212C39.9249 36.1694 39.1664 36.906 38.2037 37.4311C37.2555 37.9417 36.2053 38.1969 35.053 38.1969ZM35.053 36.0308C35.6948 36.0308 36.2928 35.8776 36.8471 35.5713C37.416 35.265 37.8755 34.8055 38.2256 34.1929C38.5756 33.5802 38.7507 32.8363 38.7507 31.9611C38.7507 31.0859 38.5829 30.3493 38.2474 29.7512C37.9119 29.1386 37.4671 28.6791 36.9128 28.3728C36.3585 28.0665 35.7604 27.9133 35.1186 27.9133C34.4768 27.9133 33.8787 28.0665 33.3244 28.3728C32.7847 28.6791 32.3544 29.1386 32.0335 29.7512C31.7126 30.3493 31.5522 31.0859 31.5522 31.9611C31.5522 33.2593 31.8804 34.2658 32.5368 34.9806C33.2077 35.6807 34.0465 36.0308 35.053 36.0308ZM58.3704 25.7472C59.3185 25.7472 60.1645 25.9441 60.9085 26.338C61.667 26.7318 62.2577 27.3153 62.6807 28.0884C63.1183 28.8615 63.3371 29.795 63.3371 30.889V38H60.8647V31.261C60.8647 30.1815 60.5948 29.3574 60.0551 28.7885C59.5154 28.2051 58.7788 27.9133 57.8453 27.9133C56.9117 27.9133 56.1678 28.2051 55.6135 28.7885C55.0738 29.3574 54.8039 30.1815 54.8039 31.261V38H52.3315V31.261C52.3315 30.1815 52.0616 29.3574 51.5219 28.7885C50.9822 28.2051 50.2456 27.9133 49.3121 27.9133C48.3785 27.9133 47.6346 28.2051 47.0803 28.7885C46.5406 29.3574 46.2707 30.1815 46.2707 31.261V38H43.7764V25.9441H46.2707V27.3226C46.6792 26.8266 47.197 26.4401 47.8242 26.1629C48.4514 25.8858 49.1224 25.7472 49.8372 25.7472C50.7999 25.7472 51.6605 25.9514 52.419 26.3598C53.1775 26.7683 53.761 27.359 54.1694 28.1321C54.5341 27.4028 55.103 26.8266 55.8761 26.4036C56.6491 25.966 57.4806 25.7472 58.3704 25.7472ZM67.7801 24.3469C67.328 24.3469 66.9487 24.1937 66.6424 23.8874C66.3361 23.5811 66.1829 23.2018 66.1829 22.7496C66.1829 22.2975 66.3361 21.9182 66.6424 21.6119C66.9487 21.3056 67.328 21.1524 67.7801 21.1524C68.2177 21.1524 68.5897 21.3056 68.896 21.6119C69.2023 21.9182 69.3555 22.2975 69.3555 22.7496C69.3555 23.2018 69.2023 23.5811 68.896 23.8874C68.5897 24.1937 68.2177 24.3469 67.7801 24.3469ZM69.0054 25.9441V38H66.5111V25.9441H69.0054ZM78.3629 25.7472C79.311 25.7472 80.157 25.9441 80.901 26.338C81.6595 26.7318 82.2502 27.3153 82.6732 28.0884C83.0963 28.8615 83.3078 29.795 83.3078 30.889V38H80.8353V31.261C80.8353 30.1815 80.5655 29.3574 80.0258 28.7885C79.486 28.2051 78.7494 27.9133 77.8159 27.9133C76.8823 27.9133 76.1384 28.2051 75.5841 28.7885C75.0444 29.3574 74.7746 30.1815 74.7746 31.261V38H72.2802V25.9441H74.7746V27.3226C75.183 26.8266 75.7008 26.4401 76.328 26.1629C76.9698 25.8858 77.6481 25.7472 78.3629 25.7472ZM91.3468 25.7472C92.2803 25.7472 93.1045 25.9368 93.8192 26.3161C94.5486 26.6807 95.1174 27.1402 95.5259 27.6945V25.9441H98.0421V38.1969C98.0421 39.3055 97.8087 40.2901 97.3419 41.1507C96.8751 42.0259 96.1968 42.7115 95.3071 43.2074C94.4319 43.7034 93.3816 43.9514 92.1563 43.9514C90.5226 43.9514 89.1661 43.5648 88.0867 42.7917C87.0072 42.0332 86.3946 40.9976 86.2487 39.6848H88.7212C88.9108 40.312 89.3119 40.8152 89.9246 41.1945C90.5518 41.5883 91.2957 41.7852 92.1563 41.7852C93.1628 41.7852 93.9724 41.4789 94.585 40.8663C95.2122 40.2536 95.5259 39.3639 95.5259 38.1969V36.184C95.1028 36.7528 94.5267 37.2342 93.7973 37.628C93.0826 38.0073 92.2657 38.1969 91.3468 38.1969C90.2965 38.1969 89.3338 37.9344 88.4586 37.4092C87.598 36.8695 86.9124 36.1256 86.4019 35.1775C85.906 34.2148 85.658 33.1281 85.658 31.9174C85.658 30.7067 85.906 29.6345 86.4019 28.701C86.9124 27.7675 87.598 27.0454 88.4586 26.5349C89.3338 26.0098 90.2965 25.7472 91.3468 25.7472ZM95.5259 31.9611C95.5259 31.1297 95.3508 30.4076 95.0007 29.795C94.6652 29.1824 94.2204 28.7156 93.6661 28.3947C93.1118 28.0738 92.5137 27.9133 91.8719 27.9133C91.2301 27.9133 90.632 28.0738 90.0777 28.3947C89.5234 28.701 89.0713 29.1605 88.7212 29.7731C88.3857 30.3712 88.2179 31.0859 88.2179 31.9174C88.2179 32.7488 88.3857 33.4781 88.7212 34.1054C89.0713 34.7326 89.5234 35.2139 90.0777 35.5494C90.6466 35.8703 91.2447 36.0308 91.8719 36.0308C92.5137 36.0308 93.1118 35.8703 93.6661 35.5494C94.2204 35.2285 94.6652 34.7618 95.0007 34.1491C95.3508 33.5219 95.5259 32.7926 95.5259 31.9611ZM112.012 38.1532C110.991 38.1532 110.072 37.9781 109.256 37.628C108.439 37.2634 107.797 36.7528 107.33 36.0964C106.863 35.44 106.63 34.6742 106.63 33.799H109.299C109.358 34.4554 109.613 34.9951 110.065 35.4182C110.532 35.8412 111.181 36.0527 112.012 36.0527C112.873 36.0527 113.544 35.8485 114.025 35.44C114.507 35.017 114.747 34.4773 114.747 33.8209C114.747 33.3104 114.594 32.8947 114.288 32.5738C113.996 32.2529 113.624 32.0049 113.172 31.8298C112.734 31.6548 112.122 31.4652 111.334 31.261C110.342 30.9984 109.533 30.7358 108.905 30.4733C108.293 30.1961 107.768 29.7731 107.33 29.2042C106.893 28.6354 106.674 27.8769 106.674 26.9287C106.674 26.0535 106.893 25.2877 107.33 24.6313C107.768 23.9749 108.38 23.4717 109.168 23.1216C109.956 22.7715 110.867 22.5965 111.903 22.5965C113.376 22.5965 114.58 22.9684 115.513 23.7124C116.461 24.4417 116.986 25.4482 117.089 26.7318H114.332C114.288 26.1775 114.025 25.7034 113.544 25.3096C113.063 24.9158 112.428 24.7188 111.64 24.7188C110.926 24.7188 110.342 24.9012 109.89 25.2658C109.438 25.6305 109.212 26.1556 109.212 26.8412C109.212 27.308 109.35 27.6945 109.628 28.0008C109.919 28.2926 110.284 28.526 110.722 28.701C111.159 28.876 111.757 29.0657 112.516 29.2699C113.522 29.547 114.339 29.8242 114.966 30.1013C115.608 30.3785 116.148 30.8088 116.585 31.3922C117.038 31.9611 117.264 32.7269 117.264 33.6896C117.264 34.4627 117.052 35.1921 116.629 35.8776C116.221 36.5632 115.615 37.1175 114.813 37.5405C114.025 37.9489 113.092 38.1532 112.012 38.1532ZM125.436 38.1969C124.298 38.1969 123.27 37.9417 122.351 37.4311C121.432 36.906 120.71 36.1767 120.185 35.2431C119.66 34.295 119.397 33.201 119.397 31.9611C119.397 30.7358 119.667 29.6491 120.207 28.701C120.747 27.7529 121.483 27.0235 122.417 26.513C123.35 26.0025 124.393 25.7472 125.546 25.7472C126.698 25.7472 127.741 26.0025 128.674 26.513C129.608 27.0235 130.345 27.7529 130.884 28.701C131.424 29.6491 131.694 30.7358 131.694 31.9611C131.694 33.1864 131.417 34.2731 130.862 35.2212C130.308 36.1694 129.55 36.906 128.587 37.4311C127.639 37.9417 126.589 38.1969 125.436 38.1969ZM125.436 36.0308C126.078 36.0308 126.676 35.8776 127.23 35.5713C127.799 35.265 128.259 34.8055 128.609 34.1929C128.959 33.5802 129.134 32.8363 129.134 31.9611C129.134 31.0859 128.966 30.3493 128.631 29.7512C128.295 29.1386 127.85 28.6791 127.296 28.3728C126.742 28.0665 126.144 27.9133 125.502 27.9133C124.86 27.9133 124.262 28.0665 123.708 28.3728C123.168 28.6791 122.738 29.1386 122.417 29.7512C122.096 30.3493 121.935 31.0859 121.935 31.9611C121.935 33.2593 122.264 34.2658 122.92 34.9806C123.591 35.6807 124.43 36.0308 125.436 36.0308ZM139.389 38.1969C138.251 38.1969 137.223 37.9417 136.304 37.4311C135.385 36.906 134.663 36.1767 134.138 35.2431C133.613 34.295 133.35 33.201 133.35 31.9611C133.35 30.7358 133.62 29.6491 134.16 28.701C134.699 27.7529 135.436 27.0235 136.369 26.513C137.303 26.0025 138.346 25.7472 139.498 25.7472C140.651 25.7472 141.694 26.0025 142.627 26.513C143.561 27.0235 144.297 27.7529 144.837 28.701C145.377 29.6491 145.647 30.7358 145.647 31.9611C145.647 33.1864 145.369 34.2731 144.815 35.2212C144.261 36.1694 143.502 36.906 142.54 37.4311C141.592 37.9417 140.541 38.1969 139.389 38.1969ZM139.389 36.0308C140.031 36.0308 140.629 35.8776 141.183 35.5713C141.752 35.265 142.211 34.8055 142.562 34.1929C142.912 33.5802 143.087 32.8363 143.087 31.9611C143.087 31.0859 142.919 30.3493 142.583 29.7512C142.248 29.1386 141.803 28.6791 141.249 28.3728C140.694 28.0665 140.096 27.9133 139.455 27.9133C138.813 27.9133 138.215 28.0665 137.66 28.3728C137.121 28.6791 136.69 29.1386 136.369 29.7512C136.049 30.3493 135.888 31.0859 135.888 31.9611C135.888 33.2593 136.216 34.2658 136.873 34.9806C137.544 35.6807 138.382 36.0308 139.389 36.0308ZM154.195 25.7472C155.143 25.7472 155.989 25.9441 156.733 26.338C157.492 26.7318 158.082 27.3153 158.505 28.0884C158.928 28.8615 159.14 29.795 159.14 30.889V38H156.667V31.261C156.667 30.1815 156.398 29.3574 155.858 28.7885C155.318 28.2051 154.582 27.9133 153.648 27.9133C152.714 27.9133 151.971 28.2051 151.416 28.7885C150.877 29.3574 150.607 30.1815 150.607 31.261V38H148.112V25.9441H150.607V27.3226C151.015 26.8266 151.533 26.4401 152.16 26.1629C152.802 25.8858 153.48 25.7472 154.195 25.7472ZM165.45 22.7934L165.166 33.4052H163.087L162.803 22.7934H165.45ZM164.203 38.1532C163.751 38.1532 163.372 38 163.065 37.6937C162.759 37.3874 162.606 37.0081 162.606 36.5559C162.606 36.1037 162.759 35.7245 163.065 35.4182C163.372 35.1118 163.751 34.9587 164.203 34.9587C164.641 34.9587 165.013 35.1118 165.319 35.4182C165.625 35.7245 165.779 36.1037 165.779 36.5559C165.779 37.0081 165.625 37.3874 165.319 37.6937C165.013 38 164.641 38.1532 164.203 38.1532ZM172.48 22.7934L172.196 33.4052H170.117L169.833 22.7934H172.48ZM171.233 38.1532C170.781 38.1532 170.402 38 170.095 37.6937C169.789 37.3874 169.636 37.0081 169.636 36.5559C169.636 36.1037 169.789 35.7245 170.095 35.4182C170.402 35.1118 170.781 34.9587 171.233 34.9587C171.671 34.9587 172.043 35.1118 172.349 35.4182C172.655 35.7245 172.808 36.1037 172.808 36.5559C172.808 37.0081 172.655 37.3874 172.349 37.6937C172.043 38 171.671 38.1532 171.233 38.1532Z" fill="white"/>
<defs>
<linearGradient id="paint0_linear_5700_171655" x1="0.158202" y1="30.5" x2="184.841" y2="30.5" gradientUnits="userSpaceOnUse">
<stop stop-color="#159EFA"/>
<stop offset="1" stop-color="#19BCFB"/>
</linearGradient>
</defs>
</svg>
