<svg width="214" height="118" viewBox="0 0 214 118" fill="none" xmlns="http://www.w3.org/2000/svg">
<path d="M14.8086 77.7328L18.7348 97.0217C18.9971 98.3075 18.7688 99.4922 18.0514 100.576C17.334 101.659 16.3448 102.329 15.0837 102.585C13.797 102.847 12.6115 102.619 11.5274 101.902C10.4433 101.185 9.77075 100.184 9.50918 98.8976L0.0924667 52.6425C-0.148593 51.3252 0.0815681 50.1534 0.784231 49.127C1.50677 48.0692 2.50627 47.3843 3.78273 47.071L32.6964 41.1926C38.9095 40.1169 43.9211 41.6962 47.7312 45.9299C49.7059 48.1262 50.9868 50.6647 51.5728 53.5453C51.7927 54.6255 51.9126 55.7396 51.9318 56.8871C52.0235 61.2881 50.722 64.9676 48.0281 67.9257C45.9137 70.1765 43.1242 71.7481 39.6609 72.6399L53.0147 87.6822C53.5526 88.3492 53.9026 89.0815 54.0648 89.8792C54.1437 90.2649 54.186 90.6717 54.1924 91.0984C54.1097 92.401 53.5647 93.4761 52.5575 94.3237C51.926 94.9074 51.224 95.2777 50.4521 95.4347C50.0405 95.5186 49.6026 95.5404 49.1391 95.5007C47.8409 95.443 46.7702 94.924 45.9278 93.9438L29.0145 74.8446L14.8086 77.7328ZM12.9238 68.4741L37.2439 63.5292C40.327 62.8757 42.0644 61.1433 42.4568 58.3313C42.5722 57.4509 42.544 56.5866 42.3709 55.7377C42.167 54.7344 41.7541 53.7605 41.1329 52.8155C39.8904 50.9254 38.2677 50.0637 36.2649 50.2296L34.5813 50.4513L10.2612 55.3962L12.9238 68.4741ZM44.9283 46.3791C41.8689 43.198 37.9068 42.1018 33.0426 43.091C32.4509 43.2114 31.8514 43.3601 31.2443 43.5369C30.7968 43.708 30.5961 43.9098 30.6436 44.1411C30.7064 44.4499 30.9821 44.5544 31.4712 44.455C35.3885 43.8195 39.7025 44.7363 44.4134 47.2068C44.7071 47.335 44.9315 47.383 45.086 47.3516C45.1373 47.3414 45.1937 47.2895 45.2552 47.1966C45.2963 47.1344 45.3065 47.0524 45.2854 46.9493C45.254 46.7949 45.1347 46.6052 44.9283 46.3791Z" fill="white"/>
<path d="M68.3247 70.9506C68.5812 72.2108 68.351 73.3827 67.6336 74.4654C66.9213 75.5745 65.9218 76.26 64.6351 76.5214C63.374 76.7777 62.1988 76.5349 61.1096 75.7923C60.0255 75.0747 59.3549 74.0861 59.0984 72.8259L52.8078 41.9251C52.5513 40.6648 52.7821 39.493 53.4995 38.4096C54.2118 37.3005 55.1985 36.6182 56.4596 36.3619C57.7463 36.0999 58.9343 36.3408 60.0235 37.0833C61.1077 37.8003 61.7776 38.7889 62.0341 40.0491L68.3247 70.9506ZM60.239 39.1284C59.5972 38.3487 58.7798 37.8855 57.7848 37.7394C57.3161 37.6741 56.8757 37.683 56.4641 37.767C56.1038 37.84 55.7819 37.9726 55.4998 38.1635C55.2633 38.3192 55.153 38.4352 55.1684 38.5121C55.0466 38.9657 55.0036 39.2822 55.0401 39.4622C55.0613 39.5654 55.1235 39.6064 55.2261 39.5853C55.689 39.3572 56.1134 39.204 56.4993 39.1259C57.7348 38.8747 58.774 39.3059 59.6171 40.4201C59.7408 40.5021 59.8286 40.538 59.8799 40.5271C60.1819 39.9037 60.3435 39.5763 60.364 39.5455C60.3845 39.5141 60.389 39.4731 60.3787 39.4219C60.3633 39.3443 60.3165 39.247 60.239 39.1284Z" fill="white"/>
<path d="M78.9703 68.8257C78.3356 68.4727 77.69 68.0684 77.0348 67.6122C72.5745 64.5285 69.7972 60.2993 68.7028 54.9239L68.6477 54.6535C67.5738 49.114 68.556 44.066 71.5955 39.5112C73.8657 36.0502 76.9424 33.5227 80.8257 31.9299C82.1169 31.4263 83.419 31.0412 84.7314 30.7741C87.3304 30.2455 89.9808 30.2295 92.6812 30.7247C96.6754 31.5198 100.15 33.3843 103.106 36.3187C106.011 39.2639 107.881 42.7269 108.719 46.7082C109.514 50.6171 109.162 54.4786 107.66 58.2926C106.158 62.1067 103.792 65.159 100.559 67.4501C98.2108 69.0788 95.6137 70.2096 92.7671 70.842C89.9943 71.8344 88.1126 72.8595 87.1221 73.918C85.536 75.4723 84.5275 77.3649 84.0973 79.5952C83.8543 81.0367 83.8748 82.4527 84.1576 83.8411C84.3037 84.5612 84.5153 85.2685 84.7903 85.9624C85.7822 88.3317 87.4593 90.1205 89.8218 91.327C92.1388 92.5706 94.584 92.9306 97.1575 92.4072C98.4185 92.1509 99.5911 92.3809 100.675 93.0979C101.79 93.8353 102.476 94.8342 102.733 96.0944C102.989 97.3547 102.748 98.5419 102.01 99.656C101.293 100.739 100.303 101.41 99.0424 101.666C95.0226 102.457 91.0861 102.078 87.2336 100.531C83.319 98.9436 80.2435 96.475 78.0073 93.1267C76.4757 90.8676 75.4474 88.4509 74.9242 85.8791C74.6466 84.5164 74.5107 83.1241 74.5165 81.7037C74.4972 77.5289 75.6153 73.7398 77.8701 70.3352C78.2189 69.8092 78.5856 69.3062 78.9703 68.8257ZM90.8829 61.5833C93.832 60.9297 96.1368 59.3498 97.7973 56.8427C99.504 54.2998 100.056 51.5493 99.454 48.5912C98.9411 46.0713 97.6697 43.9724 95.6399 42.2964C93.5845 40.6248 91.2688 39.7835 88.6935 39.7714C87.8901 39.7739 87.115 39.8508 86.3688 40.0027C84.3358 40.4159 82.5157 41.4154 80.909 43.0011C78.7273 45.1859 77.6336 47.7782 77.6278 50.7792C77.6304 51.582 77.7054 52.3438 77.8515 53.0639C78.3491 55.5069 79.6383 57.5616 81.7194 59.2274C84.4153 61.4115 87.4696 62.1964 90.8829 61.5833ZM98.2519 35.578C96.6548 33.9212 94.5167 32.896 91.8369 32.5033C90.1469 32.231 88.5422 32.2489 87.024 32.5578C86.329 32.6994 85.6475 32.9044 84.9788 33.1748C84.5313 33.3458 84.3281 33.5342 84.3704 33.7398L84.3781 33.7789C84.4358 34.0615 84.7012 34.1819 85.175 34.139C89.716 33.6713 93.9012 34.4139 97.7293 36.3673C98.0287 36.5211 98.2551 36.582 98.4096 36.5506C98.4615 36.5397 98.5205 36.5013 98.5872 36.434C98.6231 36.3462 98.6301 36.2514 98.6096 36.1482C98.5782 35.9938 98.4589 35.8042 98.2519 35.578ZM100.867 95.0276C100.226 94.2473 99.4078 93.784 98.4134 93.638C97.9441 93.5726 97.5037 93.5822 97.0921 93.6655C96.7318 93.7392 96.4106 93.8712 96.1278 94.0628C95.8913 94.2178 95.6707 94.517 95.4662 94.9604C95.3688 95.141 95.3309 95.2826 95.3521 95.3858C95.3777 95.5139 95.5201 95.5524 95.7771 95.4998L95.8541 95.4845C96.317 95.2564 96.7414 95.1032 97.1273 95.0244C98.3628 94.7733 99.402 95.2051 100.245 96.3193C100.307 96.3596 100.364 96.375 100.416 96.3648C100.544 96.3385 100.668 96.22 100.785 96.0085C100.97 95.7298 101.046 95.5133 101.015 95.3589L101.007 95.3204C100.991 95.2436 100.945 95.1455 100.867 95.0276Z" fill="white"/>
<path d="M105.855 15.15C105.598 13.8898 105.828 12.7186 106.546 11.6352C107.284 10.521 108.283 9.83545 109.544 9.57917C110.805 9.32289 111.993 9.56315 113.108 10.3006C114.192 11.0182 114.863 12.0068 115.12 13.267L117.97 27.2707C120.927 24.4196 124.272 22.6148 128.003 21.8562C129.368 21.5788 130.773 21.4404 132.221 21.4404C136.289 21.4167 140.035 22.5706 143.458 24.9008C146.725 27.1291 149.238 30.127 150.997 33.8943L152.238 37.8198L155.38 53.251C155.642 54.5369 155.414 55.7215 154.696 56.8049C153.953 57.8935 152.951 58.5656 151.69 58.8225C150.429 59.0788 149.244 58.8507 148.134 58.1389C147.05 57.4219 146.377 56.4205 146.115 55.1347L142.973 39.7035C141.577 34.8181 138.714 31.9453 134.385 31.0842C132.932 30.7907 131.51 30.785 130.12 31.0675C129.374 31.2194 128.656 31.4455 127.967 31.7466C125.894 32.6231 124.24 33.9776 123.005 35.8087C122.21 37.0414 121.672 38.3426 121.388 39.7131C121.266 40.3 121.268 41.7595 121.394 44.091L124.536 59.5221C124.798 60.808 124.57 61.9927 123.852 63.0755C123.109 64.164 122.107 64.8367 120.846 65.093C119.585 65.3493 118.399 65.1218 117.29 64.41C116.206 63.6931 115.532 62.6917 115.271 61.4058L105.855 15.15ZM113.231 12.2848C112.59 11.5045 111.772 11.0412 110.777 10.8952C110.309 10.8298 109.868 10.8394 109.457 10.9227C109.096 10.9964 108.774 11.1284 108.492 11.3199C108.256 11.475 108.035 11.7742 107.831 12.2176C107.733 12.3982 107.695 12.5398 107.716 12.6423C107.742 12.7711 107.884 12.8096 108.141 12.757L108.219 12.741C108.681 12.5136 109.106 12.3598 109.492 12.2816C110.727 12.0305 111.766 12.4617 112.61 13.5758C112.672 13.6168 112.728 13.6322 112.779 13.622C112.908 13.5957 113.031 13.4772 113.149 13.2657C113.334 12.987 113.41 12.7705 113.379 12.6161L113.371 12.5776C113.355 12.5007 113.308 12.4027 113.231 12.2848ZM141.678 26.4276C140.081 24.7707 137.943 23.7456 135.263 23.3529C133.573 23.0806 131.969 23.0985 130.45 23.4073C129.756 23.5489 129.073 23.7546 128.405 24.0243C127.957 24.1954 127.755 24.3844 127.796 24.5901L127.804 24.6285C127.862 24.911 128.128 25.0315 128.601 24.9886C133.143 24.5209 137.327 25.2634 141.155 27.2169C141.455 27.3707 141.682 27.4316 141.836 27.4002C141.887 27.3899 141.946 27.3508 142.013 27.2836C142.049 27.1964 142.057 27.101 142.036 26.9978C142.004 26.844 141.885 26.6537 141.678 26.4276Z" fill="white"/>
<path d="M181.706 52.72C177.589 53.5568 173.51 53.1409 169.472 51.4706C165.124 49.7299 162.194 46.9909 160.683 43.2543L158.102 33.5343L156.546 25.6954L155.774 25.8524C154.513 26.1087 153.343 25.8908 152.265 25.1995C151.155 24.4877 150.466 23.476 150.199 22.1645C149.943 20.9043 150.186 19.7299 150.93 18.6413C151.641 17.5323 152.629 16.8499 153.889 16.5937L154.661 16.4367L152.47 5.67299C152.214 4.41273 152.442 3.22809 153.154 2.11904C153.871 1.03626 154.873 0.363529 156.16 0.102127C157.447 -0.15992 158.623 0.0835457 159.686 0.831238C160.795 1.54305 161.479 2.52908 161.735 3.78934L163.888 14.5607L170.258 13.2659C171.518 13.009 172.693 13.2524 173.783 13.995C174.893 14.7068 175.575 15.6928 175.831 16.9531C176.099 18.2646 175.861 19.4653 175.118 20.5532C174.395 21.611 173.403 22.2683 172.142 22.5246L165.772 23.8194L167.366 31.6507C167.424 31.9339 167.599 32.8622 167.894 34.4364C167.989 35.0329 168.082 35.5628 168.176 36.026C168.276 36.5142 168.378 36.9492 168.483 37.3298C169.118 39.5306 170.166 41.058 171.626 41.9134C174.233 43.526 176.964 44.0418 179.822 43.4613C181.108 43.1992 182.291 43.4145 183.37 44.1058C184.459 44.8484 185.135 45.8626 185.396 47.1485C185.658 48.4344 185.43 49.619 184.712 50.7024C183.995 51.7859 182.993 52.458 181.706 52.72ZM159.885 2.79946C159.244 2.01909 158.426 1.55651 157.432 1.41043C156.963 1.34508 156.522 1.35405 156.111 1.43798C155.75 1.51102 155.429 1.64365 155.146 1.83457C154.91 1.98962 154.671 2.26576 154.431 2.66299C154.369 2.8898 154.35 3.05445 154.37 3.15761C154.396 3.28639 154.539 3.32419 154.795 3.27165L154.873 3.25628C155.336 3.02819 155.759 2.87506 156.146 2.79626C157.381 2.5451 158.421 2.97693 159.264 4.0911C159.325 4.13211 159.383 4.14748 159.434 4.13659C159.562 4.11032 159.686 3.99179 159.804 3.78036C159.988 3.50166 160.065 3.28511 160.033 3.13134L160.026 3.09226C160.01 3.01538 159.963 2.91799 159.885 2.79946ZM173.943 15.7704C173.302 14.99 172.483 14.5268 171.489 14.3813C171.02 14.316 170.58 14.325 170.168 14.4089L168.315 14.7856C168.156 15.0586 168.098 15.2982 168.14 15.5038C168.15 15.5551 168.176 15.6172 168.218 15.689C168.373 15.9254 168.646 16.017 169.037 15.9645C169.429 15.9113 169.818 15.846 170.204 15.7672C171.438 15.516 172.478 15.9478 173.321 17.062C173.384 17.103 173.44 17.1184 173.491 17.1075C173.621 17.0812 173.744 16.9627 173.861 16.7513C174.045 16.4726 174.122 16.256 174.091 16.1022L174.082 16.0632C174.067 15.9863 174.021 15.8889 173.943 15.7704Z" fill="white"/>
<path d="M126.697 73.0858C121.936 73.8309 118.089 76.1643 115.155 80.0854C112.256 84.0769 111.163 88.4958 111.875 93.342C112.482 97.4745 114.347 100.996 117.47 103.907C120.596 106.843 124.214 108.413 128.323 108.617C129.569 108.687 130.773 108.636 131.935 108.467C135.25 107.983 138.275 106.523 141.006 104.089C144.675 100.79 146.621 96.7108 146.847 91.8537C146.912 90.6127 146.857 89.4024 146.683 88.2216C146.278 85.4666 145.229 82.8679 143.536 80.4269C141.098 76.9633 137.907 74.6779 133.962 73.5701C131.615 72.9077 129.193 72.7462 126.697 73.0858ZM125.468 64.2192C132.867 63.2645 139.443 65.0309 145.195 69.5177C148.679 72.2003 151.351 75.5794 153.211 79.6548C154.306 82.0581 155.04 84.5261 155.412 87.06C155.669 88.8066 155.744 90.5794 155.638 92.3791C155.378 97.6687 153.65 102.482 150.456 106.818C147.289 111.175 143.253 114.239 138.346 116.011C136.683 116.631 134.991 117.066 133.273 117.317C130.756 117.685 128.169 117.66 125.512 117.245C121.093 116.608 117.113 114.928 113.572 112.204C109.296 109.008 106.258 104.828 104.461 99.6632C103.858 97.9173 103.427 96.1585 103.166 94.387C102.668 90.9926 102.832 87.5764 103.662 84.1384C104.927 78.9533 107.541 74.5382 111.505 70.8939C115.427 67.306 119.996 65.0937 125.213 64.2563L125.468 64.2192ZM143.604 70.8055C142.164 69.0808 139.648 67.6892 136.056 66.6307C133.189 65.7934 130.848 65.507 129.033 65.7716C128.621 65.8318 128.238 65.9132 127.882 66.015C127.461 66.1771 127.263 66.3444 127.288 66.5167C127.332 66.8114 127.585 66.9383 128.049 66.8954C132.622 66.7301 137.643 68.2588 143.11 71.4808C143.361 71.6705 143.559 71.7544 143.704 71.7333C143.776 71.7224 143.831 71.6769 143.869 71.5961C143.91 71.5398 143.921 71.4501 143.904 71.3271C143.882 71.1797 143.782 71.0054 143.604 70.8055Z" fill="#FF3A6A"/>
<path d="M156.838 77.5487C156.595 76.3544 156.818 75.2435 157.507 74.2158C158.168 73.1676 159.085 72.5243 160.259 72.286C162.417 71.8471 164.008 72.6147 165.034 74.588C167.713 71.9375 170.92 70.2198 174.654 69.4355C178.417 68.6706 182.055 69.0088 185.568 70.4517C190.088 72.2982 193.513 75.6362 195.844 80.4658C196.398 81.596 196.839 82.9651 197.166 84.5733L200.142 99.1921C200.39 100.411 200.182 101.531 199.517 102.554C198.875 103.573 197.943 104.207 196.721 104.455C195.547 104.694 194.454 104.472 193.441 103.79C192.405 103.112 191.762 102.165 191.514 100.946L188.538 86.3275C188.121 84.2811 187.174 82.507 185.695 81.0065C184.188 79.4862 182.446 78.5334 180.472 78.1484C179.092 77.8703 177.767 77.8607 176.497 78.1189C175.298 78.3624 174.138 78.8525 173.015 79.588C170.716 81.045 169.235 83.0965 168.577 85.7426C168.197 87.1899 168.152 88.7468 168.442 90.4132L171.418 105.032C171.666 106.251 171.458 107.371 170.792 108.394C170.127 109.418 169.195 110.051 167.997 110.295C166.822 110.534 165.729 110.312 164.717 109.63C163.68 108.952 163.038 108.005 162.79 106.786L156.838 77.5487ZM187.629 73.9525C186.183 72.3687 184.211 71.3871 181.713 71.0072C180.113 70.7483 178.618 70.7605 177.228 71.0437C176.557 71.1802 175.922 71.3724 175.324 71.621C174.907 71.7818 174.719 71.9592 174.759 72.1547L174.766 72.1912C174.821 72.459 175.068 72.5737 175.51 72.5346C179.716 72.1105 183.619 72.8268 187.216 74.6835C187.471 74.8347 187.671 74.8956 187.815 74.8661C187.887 74.852 187.942 74.8155 187.98 74.7565C188.037 74.6688 188.058 74.5887 188.043 74.5156C188.009 74.3452 187.87 74.1575 187.629 73.9525ZM163.694 74.6322C163.094 73.8916 162.33 73.4508 161.404 73.3092C160.966 73.2458 160.556 73.2528 160.173 73.331C159.837 73.3995 159.538 73.5238 159.275 73.7039C159.055 73.8499 158.851 74.1325 158.662 74.5515C158.571 74.7226 158.536 74.8565 158.556 74.9539C158.581 75.0756 158.713 75.1121 158.953 75.0634L159.024 75.0487C159.455 74.8341 159.85 74.6905 160.21 74.6175C161.36 74.3836 162.33 74.7956 163.119 75.8528C163.178 75.8918 163.23 75.9066 163.278 75.897C163.398 75.8726 163.512 75.7605 163.621 75.5606C163.792 75.2973 163.863 75.0929 163.833 74.9462L163.826 74.9097C163.811 74.8366 163.767 74.7444 163.694 74.6322Z" fill="#FF3A6A"/>
<path d="M211.002 82.2385C211.243 83.4225 211.057 84.5206 210.446 85.5329C209.825 86.4972 208.953 87.0937 207.832 87.3218C206.732 87.5454 205.709 87.3346 204.76 86.6888C203.801 85.9962 203.201 85.0575 202.96 83.8735L197.19 55.5297C196.954 54.3694 197.144 53.2956 197.76 52.307C198.372 51.2947 199.227 50.6771 200.327 50.4535C201.448 50.2254 202.488 50.458 203.447 51.1506C204.401 51.8201 204.996 52.735 205.232 53.8947L211.002 82.2385ZM210.731 101.564C209.632 101.788 208.606 101.565 207.652 100.896C206.693 100.204 206.096 99.2765 205.859 98.1169C205.623 96.9566 205.814 95.8821 206.43 94.8935C207.042 93.8812 207.897 93.2636 208.996 93.0413C210.118 92.8125 211.157 93.0445 212.116 93.7377C213.071 94.4066 213.665 95.3215 213.901 96.4818C214.138 97.6421 213.95 98.7281 213.339 99.7404C212.722 100.728 211.853 101.337 210.731 101.564ZM203.626 52.8901C203.058 52.1667 202.336 51.7221 201.461 51.5542C201.051 51.4901 200.678 51.4921 200.341 51.56C200.005 51.6285 199.715 51.7496 199.469 51.9226C199.309 52.054 199.236 52.1545 199.251 52.2257L199.272 52.3327C199.296 52.4505 199.398 52.4916 199.578 52.455C200.969 52.1725 202.261 52.4397 203.455 53.2578C203.56 53.3104 203.634 53.3321 203.679 53.3232C203.701 53.3187 203.722 53.302 203.738 53.2738C203.779 53.2412 203.796 53.213 203.792 53.1893C203.773 53.0944 203.717 52.9945 203.626 52.8901ZM212.607 95.1171C212.04 94.3944 211.321 93.9607 210.45 93.8171C210.04 93.7524 209.656 93.7569 209.297 93.83C208.983 93.894 208.703 94.0119 208.458 94.1855C208.253 94.3259 208.063 94.5982 207.89 95.0037C207.806 95.169 207.774 95.2984 207.793 95.3933C207.817 95.5118 207.942 95.5483 208.165 95.5022L208.233 95.4887C208.635 95.2837 209.004 95.1472 209.341 95.0787C210.418 94.8596 211.329 95.2658 212.077 96.2979C212.131 96.3357 212.181 96.3505 212.226 96.3415C212.338 96.3184 212.444 96.2108 212.545 96.0173C212.704 95.7636 212.769 95.565 212.74 95.4234L212.733 95.3875C212.718 95.3164 212.676 95.2267 212.607 95.1171Z" fill="#FF3A6A"/>
<path d="M52.6499 18.5797L57.6224 10.6626C57.9891 10.0623 58.5142 9.6843 59.1976 9.52925C59.8675 9.3774 60.4978 9.49273 61.0876 9.87586C61.6749 10.2455 62.0448 10.7652 62.1967 11.4347C62.3551 12.1318 62.2493 12.7731 61.88 13.36L56.903 21.2572L64.8048 26.2303C65.3953 26.6141 65.7677 27.1471 65.9235 27.8301C66.0755 28.4996 65.9684 29.1346 65.601 29.7349C65.2318 30.3218 64.7118 30.6915 64.0419 30.8433C63.3584 30.9984 62.7224 30.8914 62.1358 30.5217L54.2244 25.5069L49.2154 33.4542C48.8455 34.041 48.3255 34.4107 47.6562 34.5626C46.9721 34.7176 46.3368 34.6106 45.7495 34.2409C45.1597 33.8578 44.7885 33.3311 44.6359 32.6616C44.4808 31.9786 44.5866 31.3367 44.9533 30.7363L49.9303 22.8397L42.0279 17.866C41.4406 17.4963 41.0681 16.9633 40.9098 16.2662C40.7578 15.5966 40.8662 14.9688 41.2361 14.3819C41.6028 13.7816 42.1279 13.4035 42.8119 13.2485C43.4819 13.0966 44.1115 13.212 44.702 13.5951L52.6499 18.5797ZM61.3729 10.8459C61.0216 10.4371 60.5792 10.2001 60.0464 10.1341C59.7957 10.1046 59.5605 10.1148 59.3418 10.1648C59.1508 10.2077 58.9809 10.2827 58.8321 10.3878C58.7078 10.4736 58.584 10.6242 58.4603 10.8388C58.4302 10.9606 58.4212 11.049 58.434 11.1034C58.4494 11.172 58.5257 11.1906 58.6623 11.1592L58.7033 11.1502C58.9475 11.0227 59.1719 10.9356 59.3771 10.8894C60.0336 10.7402 60.5933 10.958 61.0568 11.5423C61.0902 11.5635 61.1209 11.5711 61.1485 11.5647C61.2165 11.5494 61.2812 11.4847 61.3415 11.37C61.4364 11.2194 61.4748 11.1028 61.4562 11.0208L61.4511 11.0003C61.4421 10.9593 61.4158 10.908 61.3729 10.8459ZM41.4925 15.5089C41.4803 15.5838 41.4797 15.6415 41.4887 15.6825L41.4932 15.703C41.5118 15.785 41.597 15.8734 41.7477 15.9683C41.8516 16.0451 41.9375 16.0759 42.0061 16.0605C42.0336 16.0541 42.0573 16.0342 42.0785 16.0009C42.2439 15.2737 42.6549 14.8355 43.3114 14.6869C43.5165 14.6401 43.7563 14.6215 44.032 14.6311L44.073 14.6215C44.2096 14.5908 44.2698 14.5408 44.2545 14.4729C44.2423 14.4178 44.1961 14.3422 44.1166 14.2454C43.9121 14.1051 43.7352 14.0231 43.5864 13.9994C43.4069 13.968 43.221 13.9744 43.0299 14.018C42.8113 14.0673 42.5946 14.1596 42.3811 14.2948C41.9291 14.5837 41.6329 14.9886 41.4925 15.5089Z" fill="#FF3A6A"/>
</svg>
