<svg width="72" height="37" viewBox="0 0 72 37" fill="none" xmlns="http://www.w3.org/2000/svg">
<path d="M4.55576 23.912L5.76362 29.846C5.84429 30.2416 5.77407 30.6061 5.55336 30.9394C5.33266 31.2727 5.02833 31.4787 4.64037 31.5575C4.24452 31.6381 3.87983 31.568 3.54631 31.3474C3.21279 31.1268 3.00589 30.8188 2.92542 30.4232L0.0284466 16.1932C-0.0457134 15.7879 0.0250937 15.4274 0.241262 15.1117C0.463545 14.7862 0.771033 14.5755 1.16373 14.4791L10.0588 12.6707C11.9702 12.3398 13.512 12.8256 14.6841 14.1281C15.2916 14.8038 15.6857 15.5847 15.8659 16.4709C15.9336 16.8032 15.9705 17.146 15.9764 17.499C16.0046 18.8529 15.6042 19.9849 14.7754 20.8949C14.125 21.5873 13.2668 22.0708 12.2013 22.3452L16.3095 26.9728C16.475 27.178 16.5827 27.4033 16.6326 27.6487C16.6568 27.7674 16.6699 27.8925 16.6718 28.0238C16.6464 28.4245 16.4787 28.7553 16.1689 29.016C15.9746 29.1956 15.7586 29.3095 15.5212 29.3578C15.3946 29.3836 15.2598 29.3903 15.1172 29.3781C14.7178 29.3604 14.3885 29.2007 14.1293 28.8992L8.92607 23.0235L4.55576 23.912ZM3.97589 21.0636L11.4578 19.5424C12.4063 19.3413 12.9408 18.8084 13.0615 17.9433C13.097 17.6724 13.0883 17.4065 13.035 17.1454C12.9723 16.8367 12.8453 16.5371 12.6542 16.2464C12.2719 15.6649 11.7727 15.3998 11.1566 15.4509L10.6386 15.5191L3.15677 17.0403L3.97589 21.0636ZM13.8218 14.2663C12.8806 13.2876 11.6617 12.9504 10.1653 13.2547C9.98324 13.2918 9.79883 13.3375 9.61205 13.3919C9.47438 13.4445 9.41264 13.5066 9.42724 13.5778C9.44657 13.6728 9.53138 13.7049 9.68187 13.6744C10.887 13.4788 12.2142 13.7609 13.6634 14.5209C13.7538 14.5604 13.8228 14.5751 13.8703 14.5655C13.8861 14.5623 13.9035 14.5464 13.9224 14.5178C13.935 14.4987 13.9382 14.4734 13.9317 14.4417C13.922 14.3942 13.8853 14.3358 13.8218 14.2663Z" fill="#FFFBF6"/>
<path d="M21.0196 21.8261C21.0985 22.2138 21.0277 22.5743 20.807 22.9074C20.5879 23.2486 20.2804 23.4595 19.8846 23.54C19.4966 23.6188 19.1351 23.5441 18.8 23.3156C18.4664 23.0949 18.2601 22.7908 18.1812 22.4031L16.246 12.8967C16.1671 12.509 16.2381 12.1485 16.4588 11.8152C16.6779 11.474 16.9815 11.2641 17.3694 11.1852C17.7653 11.1046 18.1308 11.1787 18.4659 11.4071C18.7994 11.6277 19.0055 11.9318 19.0844 12.3195L21.0196 21.8261ZM18.5321 12.0363C18.3347 11.7964 18.0832 11.6539 17.7771 11.609C17.6329 11.5889 17.4974 11.5916 17.3708 11.6175C17.26 11.6399 17.161 11.6807 17.0742 11.7395C17.0014 11.7874 16.9675 11.823 16.9722 11.8467C16.9347 11.9862 16.9215 12.0836 16.9328 12.139C16.9393 12.1707 16.9584 12.1833 16.99 12.1768C17.1324 12.1067 17.2629 12.0596 17.3817 12.0355C17.7617 11.9583 18.0814 12.0909 18.3408 12.4337C18.3789 12.4589 18.4059 12.4699 18.4217 12.4666C18.5146 12.2748 18.5643 12.1741 18.5706 12.1646C18.5769 12.155 18.5783 12.1424 18.5751 12.1266C18.5704 12.1027 18.556 12.0728 18.5321 12.0363Z" fill="#FFFBF6"/>
<path d="M24.2943 21.1721C24.0991 21.0635 23.9005 20.9391 23.6989 20.7987C22.3267 19.8501 21.4723 18.549 21.1356 16.8953L21.1187 16.8121C20.7883 15.1079 21.0905 13.5549 22.0255 12.1537C22.7239 11.089 23.6705 10.3114 24.8651 9.82137C25.2624 9.66644 25.6629 9.54799 26.0667 9.46579C26.8663 9.30318 27.6816 9.29825 28.5124 9.45061C29.7411 9.69522 30.8101 10.2688 31.7196 11.1715C32.6131 12.0776 33.1886 13.143 33.4462 14.3678C33.6909 15.5703 33.5825 16.7583 33.1205 17.9317C32.6584 19.105 31.9304 20.044 30.936 20.7489C30.2135 21.2499 29.4145 21.5978 28.5388 21.7923C27.6858 22.0977 27.1069 22.413 26.8022 22.7387C26.3142 23.2168 26.004 23.7991 25.8716 24.4852C25.7969 24.9287 25.8032 25.3643 25.8901 25.7914C25.9351 26.013 26.0002 26.2306 26.0848 26.444C26.3899 27.1729 26.9059 27.7232 27.6327 28.0944C28.3455 28.477 29.0978 28.5877 29.8895 28.4267C30.2774 28.3479 30.6382 28.4186 30.9717 28.6392C31.3147 28.8661 31.5255 29.1733 31.6046 29.5611C31.6835 29.9488 31.6093 30.314 31.3823 30.6568C31.1616 30.9901 30.8573 31.1962 30.4693 31.2751C29.2327 31.5183 28.0217 31.4018 26.8365 30.926C25.6322 30.4376 24.686 29.6781 23.9981 28.6481C23.5269 27.9531 23.2105 27.2096 23.0496 26.4184C22.9642 25.9992 22.9224 25.5709 22.9241 25.1339C22.9182 23.8495 23.2622 22.6839 23.9559 21.6364C24.0632 21.4746 24.176 21.3199 24.2943 21.1721ZM27.9591 18.944C28.8664 18.7429 29.5755 18.2569 30.0863 17.4856C30.6113 16.7033 30.7812 15.8571 30.596 14.9471C30.4382 14.1719 30.0471 13.5262 29.4226 13.0105C28.7903 12.4963 28.0779 12.2375 27.2856 12.2337C27.0384 12.2345 26.8 12.2582 26.5704 12.3049C25.945 12.432 25.385 12.7395 24.8908 13.2273C24.2196 13.8995 23.8831 14.697 23.8813 15.6202C23.8821 15.8672 23.9052 16.1015 23.9502 16.3231C24.1032 17.0746 24.4998 17.7068 25.1401 18.2192C25.9694 18.8912 26.9091 19.1326 27.9591 18.944ZM30.2261 10.9437C29.7348 10.434 29.0771 10.1186 28.2526 9.99778C27.7327 9.91401 27.239 9.91953 26.772 10.0145C26.5582 10.0581 26.3485 10.1212 26.1428 10.2043C26.0051 10.257 25.9426 10.3149 25.9556 10.3782L25.958 10.3902C25.9757 10.4771 26.0574 10.5142 26.2032 10.501C27.6002 10.3571 28.8877 10.5855 30.0654 11.1865C30.1575 11.2338 30.2271 11.2526 30.2747 11.2429C30.2906 11.2395 30.3088 11.2277 30.3293 11.207C30.3403 11.18 30.3425 11.1508 30.3362 11.1191C30.3265 11.0716 30.2898 11.0133 30.2261 10.9437ZM31.0307 29.2329C30.8334 28.9928 30.5818 28.8503 30.2758 28.8053C30.1315 28.7852 29.996 28.7882 29.8693 28.8138C29.7585 28.8365 29.6597 28.8771 29.5727 28.936C29.4999 28.9837 29.4321 29.0758 29.3692 29.2122C29.3392 29.2678 29.3275 29.3113 29.334 29.3431C29.3419 29.3825 29.3857 29.3943 29.4648 29.3781L29.4885 29.3734C29.6309 29.3032 29.7615 29.2561 29.8802 29.2319C30.2603 29.1546 30.58 29.2875 30.8393 29.6302C30.8585 29.6427 30.876 29.6474 30.8918 29.6442C30.9314 29.6361 30.9693 29.5997 31.0054 29.5346C31.0622 29.4489 31.0859 29.3823 31.0762 29.3348L31.0737 29.3229C31.0689 29.2993 31.0545 29.2691 31.0307 29.2329Z" fill="#FFFBF6"/>
<path d="M32.5654 4.66273C32.4865 4.27503 32.5573 3.91472 32.778 3.58141C33.005 3.23865 33.3125 3.02774 33.7004 2.9489C34.0884 2.87006 34.4539 2.94398 34.7969 3.17084C35.1304 3.3916 35.3367 3.69573 35.4156 4.08344L36.2925 8.39156C37.2023 7.51445 38.2313 6.9592 39.3792 6.72583C39.7989 6.64048 40.2313 6.59791 40.6766 6.59791C41.9283 6.59062 43.0807 6.9456 44.1335 7.66247C45.1388 8.348 45.912 9.27026 46.453 10.4292L46.8348 11.6369L47.8013 16.3842C47.882 16.7798 47.8117 17.1442 47.591 17.4775C47.3624 17.8124 47.0542 18.0192 46.6662 18.0982C46.2782 18.177 45.9136 18.1069 45.5722 17.8879C45.2386 17.6673 45.0317 17.3593 44.9511 16.9637L43.9846 12.2164C43.555 10.7135 42.6742 9.82964 41.3425 9.56473C40.8953 9.47446 40.4579 9.47269 40.0305 9.55961C39.8009 9.60632 39.58 9.6759 39.368 9.76854C38.7303 10.0382 38.2214 10.4549 37.8414 11.0182C37.597 11.3974 37.4313 11.7977 37.3439 12.2193C37.3065 12.3999 37.3073 12.8489 37.3459 13.5662L38.3124 18.3134C38.393 18.709 38.3228 19.0735 38.1021 19.4066C37.8735 19.7415 37.5652 19.9484 37.1773 20.0273C36.7893 20.1061 36.4246 20.0361 36.0832 19.8172C35.7497 19.5966 35.5426 19.2885 35.4621 18.8929L32.5654 4.66273ZM34.8345 3.78128C34.6373 3.5412 34.3856 3.3987 34.0797 3.35376C33.9355 3.33365 33.8 3.33661 33.6734 3.36223C33.5626 3.3849 33.4636 3.4255 33.3766 3.48444C33.304 3.53214 33.2362 3.62418 33.1732 3.76058C33.1433 3.81616 33.1314 3.85972 33.1379 3.89126C33.146 3.93088 33.1896 3.94271 33.2687 3.92654L33.2926 3.92162C33.435 3.85164 33.5655 3.80434 33.6843 3.78029C34.0643 3.70303 34.3841 3.83568 34.6434 4.17844C34.6625 4.19106 34.6799 4.19579 34.6957 4.19264C34.7353 4.18455 34.7732 4.14809 34.8095 4.08305C34.8663 3.9973 34.8898 3.93068 34.8801 3.88318L34.8777 3.87136C34.8728 3.8477 34.8584 3.81754 34.8345 3.78128ZM43.5862 8.13217C43.0949 7.62246 42.4369 7.30709 41.6127 7.18627C41.0926 7.1025 40.5991 7.10802 40.1318 7.20302C39.9182 7.24658 39.7084 7.30985 39.5027 7.39283C39.365 7.44546 39.3027 7.50361 39.3155 7.56688L39.3179 7.5787C39.3356 7.66563 39.4175 7.70268 39.563 7.68948C40.9602 7.54559 42.2476 7.77403 43.4253 8.37501C43.5174 8.42231 43.5872 8.44104 43.6347 8.43138C43.6505 8.42823 43.6686 8.4162 43.6892 8.39551C43.7002 8.3687 43.7026 8.33933 43.6961 8.3076C43.6864 8.26029 43.6497 8.20175 43.5862 8.13217Z" fill="#FFFBF6"/>
<path d="M55.9004 16.2187C54.6337 16.4761 53.3789 16.3482 52.1366 15.8344C50.7991 15.2988 49.8978 14.4562 49.4329 13.3067L48.6388 10.3164L48.1601 7.90481L47.9227 7.9531C47.5347 8.03195 47.1747 7.96493 46.843 7.75225C46.5016 7.53327 46.2898 7.22204 46.2075 6.81857C46.1288 6.43086 46.2036 6.06957 46.4324 5.73469C46.6513 5.3935 46.955 5.18358 47.3428 5.10474L47.5803 5.05645L46.9061 1.74508C46.8274 1.35738 46.8976 0.99293 47.1166 0.651742C47.3373 0.318634 47.6455 0.111673 48.0414 0.0312538C48.4374 -0.0493622 48.799 0.0255375 49.126 0.25556C49.4674 0.474544 49.6776 0.777888 49.7565 1.16559L50.4188 4.47932L52.3784 4.08097C52.7661 4.00194 53.1277 4.07683 53.463 4.30528C53.8044 4.52426 54.0142 4.82761 54.0931 5.21531C54.1754 5.61879 54.1022 5.98816 53.8736 6.32285C53.6513 6.64827 53.346 6.8505 52.9582 6.92934L50.9985 7.32769L51.4888 9.73691C51.5068 9.82403 51.5606 10.1096 51.6512 10.5939C51.6804 10.7774 51.7091 10.9404 51.7381 11.0829C51.7687 11.2331 51.8001 11.367 51.8324 11.484C52.0277 12.1611 52.3502 12.631 52.7995 12.8941C53.6014 13.3902 54.4416 13.5489 55.3207 13.3703C55.7164 13.2897 56.0802 13.356 56.4122 13.5686C56.7473 13.7971 56.9552 14.1091 57.0356 14.5047C57.1161 14.9003 57.0461 15.2647 56.8252 15.598C56.6045 15.9313 56.2964 16.1381 55.9004 16.2187ZM49.1873 0.861067C48.9901 0.620993 48.7384 0.478683 48.4327 0.433743C48.2883 0.413638 48.1528 0.416397 48.0262 0.442218C47.9154 0.464688 47.8165 0.505489 47.7294 0.564227C47.6568 0.611926 47.5834 0.696878 47.5094 0.819084C47.4903 0.888859 47.4844 0.939514 47.4907 0.971248C47.4988 1.01087 47.5426 1.0225 47.6215 1.00633L47.6453 1.0016C47.7877 0.931433 47.9181 0.884326 48.037 0.860082C48.4171 0.782816 48.7368 0.915665 48.9964 1.25843C49.0151 1.27104 49.0329 1.27577 49.0485 1.27242C49.0881 1.26434 49.126 1.22788 49.1623 1.16283C49.2191 1.07709 49.2427 1.01047 49.2329 0.963166L49.2307 0.951143C49.2258 0.927491 49.2112 0.897531 49.1873 0.861067ZM53.5123 4.85146C53.315 4.61138 53.0632 4.46888 52.7573 4.42413C52.6131 4.40403 52.4776 4.40679 52.3508 4.43261L51.7807 4.54851C51.7318 4.63247 51.7139 4.70619 51.7269 4.76946C51.7301 4.78523 51.7379 4.80435 51.7508 4.82643C51.7985 4.89916 51.8825 4.92734 52.003 4.91118C52.1235 4.89482 52.2431 4.87472 52.3618 4.85047C52.7417 4.77321 53.0614 4.90606 53.3209 5.24882C53.3401 5.26144 53.3574 5.26617 53.3732 5.26282C53.4131 5.25473 53.4509 5.21827 53.487 5.15323C53.5436 5.06749 53.5673 5.00086 53.5578 4.95356L53.5551 4.94153C53.5503 4.91788 53.5361 4.88792 53.5123 4.85146Z" fill="#FFFBF6"/>
<path d="M38.9772 22.4849C37.5128 22.7142 36.3292 23.432 35.4266 24.6383C34.5347 25.8663 34.1984 27.2257 34.4176 28.7166C34.6044 29.9879 35.1781 31.0714 36.1388 31.9669C37.1005 32.8702 38.2135 33.3531 39.4776 33.4158C39.8608 33.4373 40.2312 33.4217 40.5886 33.3697C41.6087 33.2206 42.5391 32.7716 43.3795 32.0228C44.5081 31.0077 45.1069 29.753 45.1763 28.2587C45.1962 27.8769 45.1794 27.5046 45.126 27.1413C45.0013 26.2938 44.6787 25.4943 44.1576 24.7434C43.4077 23.6778 42.4259 22.9747 41.2123 22.6339C40.4902 22.4301 39.7453 22.3805 38.9772 22.4849ZM38.5991 19.7572C40.8754 19.4635 42.8984 20.0069 44.668 21.3872C45.74 22.2125 46.5621 23.2521 47.1342 24.5058C47.4711 25.2452 47.6967 26.0044 47.8113 26.784C47.8904 27.3213 47.9135 27.8667 47.8808 28.4203C47.8007 30.0476 47.2691 31.5283 46.2865 32.8623C45.3124 34.2026 44.0706 35.1454 42.5612 35.6906C42.0493 35.8812 41.529 36.0152 41.0003 36.0923C40.2261 36.2054 39.4303 36.1979 38.6127 36.07C37.2532 35.8743 36.0288 35.3573 34.9396 34.5192C33.6241 33.5362 32.6896 32.2503 32.1368 30.6612C31.9512 30.1241 31.8184 29.5831 31.7383 29.0381C31.5849 27.9938 31.6356 26.9428 31.8908 25.8852C32.2799 24.29 33.0843 22.9318 34.3036 21.8106C35.5102 20.7068 36.9159 20.0262 38.5208 19.7686L38.5991 19.7572ZM44.1787 21.7834C43.7357 21.2528 42.9617 20.8247 41.8566 20.4991C40.9746 20.2415 40.2543 20.1534 39.6959 20.2348C39.5693 20.2533 39.4514 20.2783 39.3419 20.3097C39.2123 20.3595 39.1514 20.411 39.1593 20.464C39.1727 20.5547 39.2506 20.5937 39.3932 20.5805C40.8003 20.5296 42.3448 20.9999 44.0268 21.9912C44.1037 22.0495 44.1647 22.0753 44.2092 22.0688C44.2315 22.0655 44.2485 22.0515 44.2601 22.0267C44.2728 22.0093 44.2763 21.9817 44.2708 21.9439C44.2641 21.8985 44.2333 21.8449 44.1787 21.7834Z" fill="#FF3A6A"/>
<path d="M48.2499 23.8583C48.1752 23.4909 48.2438 23.1491 48.4558 22.833C48.659 22.5105 48.941 22.3126 49.3024 22.2393C49.9661 22.1043 50.4556 22.3404 50.7712 22.9475C51.5954 22.132 52.5822 21.6036 53.7309 21.3623C54.8884 21.127 56.0077 21.2311 57.0886 21.675C58.4789 22.243 59.5325 23.2699 60.2496 24.7557C60.4203 25.1034 60.556 25.5246 60.6565 26.0194L61.5721 30.5167C61.6484 30.8916 61.5843 31.2363 61.3796 31.5511C61.1824 31.8645 60.8956 32.0594 60.5197 32.1357C60.1583 32.2092 59.822 32.141 59.5104 31.9311C59.1917 31.7228 58.9941 31.4313 58.9177 31.0564L58.0022 26.559C57.874 25.9295 57.5825 25.3837 57.1276 24.9221C56.6639 24.4543 56.128 24.1612 55.5206 24.0428C55.0961 23.9572 54.6886 23.9543 54.2977 24.0337C53.9291 24.1086 53.5721 24.2594 53.2265 24.4857C52.5193 24.9339 52.0638 25.565 51.8613 26.3791C51.7443 26.8243 51.7305 27.3033 51.8199 27.816L52.7354 32.3133C52.8116 32.6882 52.7475 33.0329 52.5427 33.3477C52.3382 33.6625 52.0514 33.8574 51.6828 33.9323C51.3215 34.0059 50.9852 33.9377 50.6737 33.7277C50.3548 33.5194 50.1572 33.2279 50.0811 32.853L48.2499 23.8583ZM57.7225 22.7519C57.2777 22.2647 56.671 21.9627 55.9024 21.8458C55.4103 21.7662 54.9504 21.77 54.5228 21.8571C54.3163 21.8991 54.121 21.9582 53.937 22.0347C53.8088 22.0841 53.7508 22.1387 53.763 22.1989L53.7652 22.2101C53.7821 22.2925 53.8583 22.3278 53.9942 22.3157C55.2882 22.1853 56.4888 22.4056 57.5955 22.9768C57.674 23.0234 57.7355 23.0421 57.7797 23.033C57.8018 23.0287 57.8187 23.0174 57.8304 22.9993C57.8479 22.9723 57.8544 22.9477 57.8499 22.9252C57.8392 22.8728 57.7966 22.815 57.7225 22.7519ZM50.3592 22.9611C50.1745 22.7332 49.9394 22.5976 49.6544 22.554C49.5199 22.5345 49.3937 22.5367 49.2757 22.5607C49.1724 22.5818 49.0805 22.6201 48.9996 22.6755C48.932 22.7204 48.869 22.8073 48.8109 22.9362C48.7831 22.9889 48.7724 23.0301 48.7785 23.06C48.786 23.0975 48.8266 23.1087 48.9004 23.0937L48.9225 23.0892C49.055 23.0232 49.1765 22.979 49.2872 22.9565C49.641 22.8846 49.9394 23.0113 50.1822 23.3366C50.2002 23.3486 50.2164 23.3531 50.2311 23.3502C50.268 23.3427 50.3031 23.3082 50.3365 23.2467C50.3893 23.1657 50.411 23.1028 50.4018 23.0576L50.3996 23.0464C50.395 23.0239 50.3816 22.9956 50.3592 22.9611Z" fill="#FF3A6A"/>
<path d="M64.9131 25.2982C64.9872 25.6625 64.9302 26.0003 64.742 26.3117C64.5509 26.6084 64.2829 26.7919 63.9379 26.862C63.5997 26.9308 63.2847 26.866 62.9928 26.6673C62.6979 26.4542 62.5133 26.1655 62.4391 25.8012L60.664 17.0815C60.5913 16.7245 60.6498 16.3942 60.8394 16.0901C61.0275 15.7786 61.2907 15.5886 61.6291 15.5198C61.9739 15.4497 62.294 15.5212 62.5888 15.7343C62.8823 15.9403 63.0654 16.2217 63.1379 16.5785L64.9131 25.2982ZM64.8298 31.2437C64.4918 31.3125 64.176 31.2439 63.8825 31.0381C63.5876 30.825 63.4038 30.5398 63.331 30.1831C63.2585 29.8261 63.317 29.4956 63.5066 29.1914C63.6947 28.88 63.9578 28.69 64.2959 28.6216C64.6411 28.5512 64.961 28.6226 65.2558 28.8359C65.5495 29.0416 65.7324 29.3231 65.8051 29.6801C65.8779 30.037 65.8199 30.3711 65.632 30.6825C65.4424 30.9865 65.175 31.1737 64.8298 31.2437ZM62.6439 16.2694C62.4691 16.0469 62.2472 15.9101 61.978 15.8585C61.8518 15.8388 61.737 15.8393 61.6334 15.8602C61.5299 15.8813 61.4407 15.9186 61.3652 15.9718C61.3159 16.0122 61.2934 16.0431 61.2979 16.065L61.3047 16.0979C61.312 16.1342 61.3433 16.1468 61.3985 16.1356C61.8265 16.0487 62.224 16.1309 62.5914 16.3826C62.6236 16.3987 62.6464 16.4054 62.6602 16.4027C62.6671 16.4013 62.6735 16.3962 62.6786 16.3875C62.691 16.3774 62.6963 16.3688 62.695 16.3615C62.6892 16.3323 62.6719 16.3016 62.6439 16.2694ZM65.4069 29.2602C65.2324 29.0379 65.0113 28.9045 64.7434 28.8603C64.6172 28.8404 64.4991 28.8418 64.3886 28.8642C64.2922 28.884 64.206 28.9202 64.1306 28.9736C64.0675 29.0168 64.0091 29.1006 63.9557 29.2253C63.9298 29.2762 63.92 29.316 63.9259 29.3452C63.9334 29.3816 63.9717 29.3929 64.0405 29.3787L64.0612 29.3745C64.1851 29.3115 64.2985 29.2695 64.402 29.2484C64.7334 29.181 65.0138 29.306 65.2438 29.6235C65.2606 29.6351 65.2758 29.6397 65.2896 29.6369C65.3241 29.6298 65.3568 29.5967 65.388 29.5372C65.4367 29.4591 65.4566 29.398 65.4478 29.3544L65.4456 29.3434C65.441 29.3215 65.4282 29.2939 65.4069 29.2602Z" fill="#FF3A6A"/>
<path d="M16.1971 5.7142L17.7269 3.27857C17.8397 3.09388 18.0012 2.97759 18.2115 2.92989C18.4176 2.88318 18.6115 2.91866 18.7929 3.03653C18.9736 3.15026 19.0874 3.31011 19.1342 3.51608C19.1829 3.73053 19.1503 3.92783 19.0367 4.10838L17.5056 6.5379L19.9365 8.06783C20.1182 8.1859 20.2327 8.34989 20.2807 8.56C20.3274 8.76598 20.2945 8.96131 20.1815 9.14599C20.0679 9.32654 19.9079 9.44027 19.7018 9.48699C19.4915 9.53469 19.2959 9.50177 19.1154 9.38804L16.6816 7.8453L15.1406 10.2902C15.0268 10.4707 14.8668 10.5845 14.6609 10.6312C14.4504 10.6789 14.255 10.646 14.0743 10.5322C13.8929 10.4144 13.7787 10.2523 13.7317 10.0464C13.684 9.83626 13.7165 9.63876 13.8294 9.45407L15.3605 7.02475L12.9294 5.49462C12.7487 5.38089 12.6341 5.2169 12.5854 5.00245C12.5387 4.79648 12.572 4.60331 12.6858 4.42277C12.7986 4.23808 12.9601 4.12179 13.1706 4.07409C13.3767 4.02737 13.5704 4.06285 13.752 4.18072L16.1971 5.7142ZM18.8807 3.33494C18.7726 3.20919 18.6365 3.13626 18.4726 3.11596C18.3955 3.10689 18.3231 3.11005 18.2559 3.12542C18.1971 3.13863 18.1448 3.16169 18.0991 3.19401C18.0608 3.22042 18.0227 3.26674 17.9847 3.33277C17.9754 3.37022 17.9726 3.39743 17.9766 3.41418C17.9813 3.43527 18.0048 3.44098 18.0468 3.43133L18.0594 3.42857C18.1346 3.38934 18.2036 3.36254 18.2667 3.34835C18.4687 3.30242 18.6409 3.36944 18.7835 3.5492C18.7937 3.5557 18.8032 3.55807 18.8117 3.55609C18.8326 3.55136 18.8525 3.53146 18.871 3.49617C18.9002 3.44985 18.9121 3.41398 18.9064 3.38875L18.9048 3.38244C18.902 3.36983 18.8939 3.35406 18.8807 3.33494ZM12.7647 4.76947C12.7609 4.79253 12.7607 4.81027 12.7635 4.82289L12.7649 4.8292C12.7706 4.85443 12.7968 4.88163 12.8432 4.9108C12.8751 4.93445 12.9016 4.94391 12.9227 4.93918C12.9311 4.93721 12.9384 4.9311 12.945 4.92085C12.9958 4.69714 13.1223 4.56232 13.3242 4.51659C13.3873 4.5022 13.4611 4.49648 13.5459 4.49944L13.5585 4.49648C13.6006 4.48702 13.6191 4.47165 13.6144 4.45075C13.6106 4.4338 13.5964 4.41054 13.572 4.38078C13.509 4.33762 13.4546 4.31239 13.4088 4.30509C13.3536 4.29544 13.2964 4.29741 13.2376 4.31081C13.1704 4.32599 13.1037 4.35437 13.038 4.39596C12.899 4.48485 12.8079 4.60942 12.7647 4.76947Z" fill="#FF3A6A"/>
<path d="M66.7557 16.2974L66.8677 16.8312L66.1389 16.9623L66.6007 19.1638L65.9306 19.2843L65.4688 17.0828L64.74 17.2139L64.628 16.6801L66.7557 16.2974ZM70.2071 15.6766L70.7809 18.4119L70.1109 18.5324L69.7668 16.892L69.4957 18.6431L68.955 18.7403L67.9909 17.2074L68.3358 18.8517L67.6658 18.9722L67.092 16.2369L67.8835 16.0945L69.0527 17.8494L69.4195 15.8182L70.2071 15.6766Z" fill="#FFFBF6"/>
</svg>
