<svg width="31" height="30" viewBox="0 0 31 30" fill="none" xmlns="http://www.w3.org/2000/svg">
<path d="M4.55076 29.026H1.04434C0.845067 29.026 0.653952 28.9468 0.513042 28.8059C0.372131 28.665 0.292969 28.4739 0.292969 28.2746V4.73149C0.292969 4.53221 0.372131 4.3411 0.513042 4.20019C0.653952 4.05927 0.845067 3.98011 1.04434 3.98011H4.55076C4.75004 3.98011 4.94116 4.05927 5.08207 4.20019C5.22298 4.3411 5.30214 4.53221 5.30214 4.73149V28.2746C5.30214 28.4739 5.22298 28.665 5.08207 28.8059C4.94116 28.9468 4.75004 29.026 4.55076 29.026ZM14.3186 11.9948V8.73882C14.3186 8.53955 14.2395 8.34843 14.0986 8.20752C13.9577 8.06661 13.7666 7.98745 13.5673 7.98745H7.05535C6.85607 7.98745 6.66496 8.06661 6.52405 8.20752C6.38314 8.34843 6.30397 8.53955 6.30397 8.73882V11.9948H14.3186ZM6.30397 25.0186V28.2746C6.30397 28.4739 6.38314 28.665 6.52405 28.8059C6.66496 28.9468 6.85607 29.026 7.05535 29.026H13.5673C13.7666 29.026 13.9577 28.9468 14.0986 28.8059C14.2395 28.665 14.3186 28.4739 14.3186 28.2746V25.0186H6.30397ZM6.30397 13.9985H14.3186V23.015H6.30397V13.9985ZM20.5801 29.026H16.0719C15.8726 29.026 15.6815 28.9468 15.5406 28.8059C15.3996 28.665 15.3205 28.4739 15.3205 28.2746V1.72599C15.3205 1.52671 15.3996 1.33559 15.5406 1.19468C15.6815 1.05377 15.8726 0.974609 16.0719 0.974609H20.5801C20.7794 0.974609 20.9705 1.05377 21.1114 1.19468C21.2523 1.33559 21.3315 1.52671 21.3315 1.72599V28.2746C21.3315 28.4739 21.2523 28.665 21.1114 28.8059C20.9705 28.9468 20.7794 29.026 20.5801 29.026ZM22.3959 5.27624L24.2744 28.3078C24.2827 28.4088 24.3114 28.507 24.3587 28.5967C24.406 28.6863 24.4709 28.7654 24.5496 28.8293C24.6283 28.8932 24.7191 28.9405 24.8165 28.9684C24.9139 28.9962 25.016 29.0041 25.1165 28.9915L29.6348 28.428C29.8272 28.4039 30.0028 28.3065 30.125 28.1559C30.2472 28.0054 30.3064 27.8135 30.2904 27.6203L28.4069 4.68202C28.3986 4.58239 28.3706 4.48542 28.3243 4.39679C28.2781 4.30816 28.2146 4.22964 28.1376 4.16585C28.0606 4.10205 27.9717 4.05426 27.876 4.02527C27.7804 3.99628 27.6799 3.98668 27.5804 3.99702L23.064 4.46725C22.8692 4.48831 22.6902 4.58469 22.5654 4.73583C22.4406 4.88696 22.3798 5.08089 22.3959 5.27624Z" fill="white"/>
</svg>
