<svg width="21" height="20" viewBox="0 0 21 20" fill="none" xmlns="http://www.w3.org/2000/svg">
<path d="M18.9925 5.0351C18.7387 4.78141 18.3946 4.63889 18.0357 4.63889C17.6769 4.63889 17.3328 4.78141 17.079 5.0351L10.3805 11.7336L3.68201 5.0351C3.42679 4.7886 3.08496 4.6522 2.73014 4.65528C2.37533 4.65836 2.03592 4.80068 1.78502 5.05158C1.53412 5.30248 1.39181 5.64189 1.38872 5.9967C1.38564 6.35151 1.52204 6.69334 1.76854 6.94857L9.42377 14.6038C9.67754 14.8575 10.0217 15 10.3805 15C10.7393 15 11.0835 14.8575 11.3372 14.6038L18.9925 6.94857C19.2462 6.6948 19.3887 6.35066 19.3887 5.99183C19.3887 5.633 19.2462 5.28887 18.9925 5.0351Z" fill="white"/>
</svg>
