<svg width="21" height="21" viewBox="0 0 21 21" fill="none" xmlns="http://www.w3.org/2000/svg">
<path d="M3.08204 19.0938C2.42677 19.0938 1.79833 18.8334 1.33498 18.3701C0.871635 17.9067 0.611328 17.2783 0.611328 16.623V13.0934C0.611328 12.8126 0.722888 12.5433 0.921466 12.3447C1.12004 12.1461 1.38937 12.0346 1.67021 12.0346C1.95104 12.0346 2.22037 12.1461 2.41895 12.3447C2.61752 12.5433 2.72908 12.8126 2.72908 13.0934V16.623C2.72908 16.8179 2.88721 16.976 3.08204 16.976H17.9063C18 16.976 18.0897 16.9388 18.1559 16.8726C18.2221 16.8064 18.2593 16.7166 18.2593 16.623V13.0934C18.2593 12.8126 18.3709 12.5433 18.5694 12.3447C18.768 12.1461 19.0373 12.0346 19.3182 12.0346C19.599 12.0346 19.8683 12.1461 20.0669 12.3447C20.2655 12.5433 20.3771 12.8126 20.3771 13.0934V16.623C20.3771 17.2783 20.1167 17.9067 19.6534 18.3701C19.1901 18.8334 18.5616 19.0938 17.9063 19.0938H3.08204Z" fill="white"/>
<path d="M15.8309 5.9919C15.9292 6.09016 16.0072 6.20682 16.0603 6.33521C16.1135 6.4636 16.1409 6.6012 16.1409 6.74017C16.1409 6.87914 16.1135 7.01674 16.0603 7.14513C16.0072 7.27352 15.9292 7.39018 15.8309 7.48844C15.7327 7.58671 15.616 7.66466 15.4876 7.71784C15.3592 7.77102 15.2216 7.79839 15.0827 7.79839C14.9437 7.79839 14.8061 7.77102 14.6777 7.71784C14.5493 7.66466 14.4327 7.58671 14.3344 7.48844L11.5531 4.70853V12.7405C11.5531 13.0213 11.4415 13.2906 11.2429 13.4892C11.0444 13.6878 10.775 13.7994 10.4942 13.7994C10.2134 13.7994 9.94403 13.6878 9.74545 13.4892C9.54687 13.2906 9.43531 13.0213 9.43531 12.7405V4.70853L6.65399 7.48844C6.55573 7.58671 6.43907 7.66466 6.31068 7.71784C6.18229 7.77102 6.04469 7.79839 5.90572 7.79839C5.76675 7.79839 5.62915 7.77102 5.50076 7.71784C5.37237 7.66466 5.25571 7.58671 5.15745 7.48844C5.05918 7.39018 4.98123 7.27352 4.92805 7.14513C4.87487 7.01674 4.8475 6.87914 4.8475 6.74017C4.8475 6.6012 4.87487 6.4636 4.92805 6.33521C4.98123 6.20682 5.05918 6.09016 5.15745 5.9919L9.74592 1.40342C9.94446 1.20513 10.2136 1.09375 10.4942 1.09375C10.7748 1.09375 11.0439 1.20513 11.2425 1.40342L15.8309 5.9919Z" fill="white"/>
</svg>
