<svg width="21" height="18" viewBox="0 0 21 18" fill="none" xmlns="http://www.w3.org/2000/svg">
<path d="M9.91853 14.3525C10.015 14.4486 10.0915 14.5628 10.1437 14.6885C10.1959 14.8142 10.2227 14.949 10.2227 15.0851C10.2227 15.2213 10.1959 15.3561 10.1437 15.4818C10.0915 15.6075 10.015 15.7217 9.91853 15.8178L9.47723 16.2591C9.00878 16.7293 8.45177 17.1019 7.8384 17.3555C7.22502 17.6091 6.56747 17.7385 5.90375 17.7364C4.90422 17.7367 3.92706 17.4405 3.09587 16.8854C2.26469 16.3302 1.61685 15.541 1.2343 14.6176C0.851756 13.6942 0.751696 12.678 0.946783 11.6977C1.14187 10.7174 1.62334 9.81699 2.33027 9.11038L5.32541 6.11524C5.96248 5.47826 6.75822 5.02314 7.63026 4.79699C8.50229 4.57084 9.41893 4.58188 10.2853 4.82896C11.1516 5.07605 11.9362 5.5502 12.5577 6.20233C13.1792 6.85446 13.6152 7.66087 13.8204 8.53807C13.8544 8.67144 13.8614 8.81026 13.8411 8.94638C13.8207 9.08251 13.7734 9.2132 13.7019 9.33081C13.6304 9.44841 13.5361 9.55056 13.4246 9.63127C13.3132 9.71198 13.1867 9.76963 13.0526 9.80083C12.9186 9.83204 12.7796 9.83617 12.644 9.81299C12.5083 9.78982 12.3786 9.7398 12.2625 9.66586C12.1464 9.59192 12.0463 9.49556 11.9679 9.38241C11.8895 9.26927 11.8345 9.14162 11.8061 9.00695C11.6843 8.48914 11.4265 8.01325 11.0592 7.62848C10.6919 7.24371 10.2285 6.96402 9.71689 6.81832C9.2053 6.67263 8.66407 6.66622 8.14917 6.79976C7.63427 6.9333 7.16438 7.20193 6.78807 7.5779L3.79293 10.573C3.37543 10.9902 3.09102 11.5218 2.97566 12.1006C2.8603 12.6794 2.91917 13.2794 3.14484 13.8248C3.37051 14.3701 3.75283 14.8363 4.24346 15.1644C4.73408 15.4924 5.31097 15.6676 5.90117 15.6678C6.29332 15.6689 6.68181 15.5923 7.04413 15.4423C7.40646 15.2923 7.73543 15.0718 8.01199 14.7938L8.45242 14.3525C8.54853 14.256 8.66276 14.1793 8.78856 14.1271C8.91436 14.0748 9.04925 14.0479 9.18548 14.0479C9.32171 14.0479 9.4566 14.0748 9.5824 14.1271C9.70819 14.1793 9.82243 14.256 9.91853 14.3525ZM19.3694 1.97807C18.4214 1.03041 17.1359 0.498047 15.7955 0.498047C14.4551 0.498047 13.1695 1.03041 12.2216 1.97807L11.7811 2.4185C11.5868 2.61281 11.4777 2.87634 11.4777 3.15113C11.4777 3.42591 11.5868 3.68945 11.7811 3.88375C11.9754 4.07805 12.239 4.18721 12.5137 4.18721C12.7885 4.18721 13.0521 4.07805 13.2464 3.88375L13.6877 3.44245C14.2477 2.8824 15.0073 2.56777 15.7993 2.56777C16.5914 2.56777 17.351 2.8824 17.911 3.44245C18.4711 4.0025 18.7857 4.7621 18.7857 5.55413C18.7857 6.34617 18.4711 7.10576 17.911 7.66581L14.9107 10.6566C14.6342 10.9347 14.3052 11.1551 13.9429 11.3051C13.5805 11.4551 13.1921 11.5318 12.7999 11.5306C12.1272 11.5301 11.4743 11.3024 10.9473 10.8844C10.4202 10.4664 10.0498 9.88254 9.89612 9.2276C9.83395 8.96037 9.66816 8.72879 9.43524 8.5838C9.20231 8.43881 8.92133 8.39228 8.65411 8.45446C8.38688 8.51664 8.1553 8.68242 8.01031 8.91535C7.86532 9.14827 7.8188 9.42925 7.88098 9.69648C8.1405 10.8056 8.76711 11.7946 9.65918 12.503C10.5512 13.2114 11.6565 13.5977 12.7956 13.5992H12.7999C13.4639 13.601 14.1217 13.4712 14.7353 13.2171C15.3488 12.9631 15.9058 12.59 16.3742 12.1193L19.3694 9.12417C19.8387 8.65498 20.2109 8.09795 20.4649 7.48488C20.7189 6.87181 20.8496 6.21471 20.8496 5.55112C20.8496 4.88752 20.7189 4.23042 20.4649 3.61735C20.2109 3.00428 19.8387 2.44725 19.3694 1.97807Z" fill="white"/>
</svg>
