<svg width="21" height="20" viewBox="0 0 21 20" fill="none" xmlns="http://www.w3.org/2000/svg">
<path d="M16.4 15.39C16.14 14.59 15.39 14 14.5 14H13.5V11C13.5 10.7348 13.3946 10.4804 13.2071 10.2929C13.0196 10.1054 12.7652 10 12.5 10H6.5V8H8.5C8.76522 8 9.01957 7.89464 9.20711 7.70711C9.39464 7.51957 9.5 7.26522 9.5 7V5H11.5C12.0304 5 12.5391 4.78929 12.9142 4.41421C13.2893 4.03914 13.5 3.53043 13.5 3V2.59C14.6965 3.07237 15.7582 3.83747 16.5944 4.81983C17.4306 5.8022 18.0163 6.97255 18.3013 8.23071C18.5864 9.48887 18.5623 10.7974 18.2312 12.0442C17.9001 13.291 17.2717 14.4391 16.4 15.39ZM9.5 17.93C5.55 17.44 2.5 14.08 2.5 10C2.5 9.38 2.58 8.78 2.71 8.21L7.5 13V14C7.5 14.5304 7.71071 15.0391 8.08579 15.4142C8.46086 15.7893 8.96957 16 9.5 16M10.5 0C9.18678 0 7.88642 0.258658 6.67317 0.761205C5.45991 1.26375 4.35752 2.00035 3.42893 2.92893C1.55357 4.8043 0.5 7.34784 0.5 10C0.5 12.6522 1.55357 15.1957 3.42893 17.0711C4.35752 17.9997 5.45991 18.7362 6.67317 19.2388C7.88642 19.7413 9.18678 20 10.5 20C13.1522 20 15.6957 18.9464 17.5711 17.0711C19.4464 15.1957 20.5 12.6522 20.5 10C20.5 8.68678 20.2413 7.38642 19.7388 6.17317C19.2362 4.95991 18.4997 3.85752 17.5711 2.92893C16.6425 2.00035 15.5401 1.26375 14.3268 0.761205C13.1136 0.258658 11.8132 0 10.5 0Z" fill="white"/>
</svg>
