<svg width="21" height="18" viewBox="0 0 21 18" fill="none" xmlns="http://www.w3.org/2000/svg">
<path d="M7.96609 4.58777C7.96609 3.44087 8.89856 2.5084 10.0455 2.5084H11.0851C12.232 2.5084 13.1645 3.44087 13.1645 4.58777V4.70473C13.1645 5.41302 12.8039 6.07257 12.2093 6.4527L10.8382 7.33319C10.4356 7.59202 10.1045 7.94778 9.87517 8.36785C9.64583 8.78793 9.52564 9.25886 9.52561 9.73746V9.78295C9.52561 10.358 9.99022 10.8226 10.5653 10.8226C11.1404 10.8226 11.605 10.358 11.605 9.78295V9.73746C11.605 9.47104 11.7414 9.22411 11.9624 9.08116L13.3335 8.20068C14.5226 7.43391 15.2439 6.11806 15.2439 4.70149V4.58452C15.2439 2.28747 13.3822 0.425781 11.0851 0.425781H10.0455C7.7484 0.42903 5.88672 2.29072 5.88672 4.58777C5.88672 5.16285 6.35133 5.62745 6.9264 5.62745C7.50148 5.62745 7.96609 5.16285 7.96609 4.58777ZM10.5653 14.9846C10.91 14.9846 11.2405 14.8477 11.4843 14.604C11.728 14.3602 11.8649 14.0297 11.8649 13.685C11.8649 13.3403 11.728 13.0098 11.4843 12.7661C11.2405 12.5223 10.91 12.3854 10.5653 12.3854C10.2206 12.3854 9.89006 12.5223 9.64634 12.7661C9.40262 13.0098 9.26569 13.3403 9.26569 13.685C9.26569 14.0297 9.40262 14.3602 9.64634 14.604C9.89006 14.8477 10.2206 14.9846 10.5653 14.9846Z" fill="#384466"/>
<path d="M15.3579 9.75776C15.661 9.10768 16.436 8.82561 17.0861 9.12875L17.6754 9.40354C18.3254 9.70668 18.6075 10.4817 18.3044 11.1317L18.2734 11.198C18.0862 11.5995 17.7075 11.878 17.27 11.9363L16.2602 12.073C15.9636 12.1133 15.6819 12.2274 15.4408 12.4049C15.1998 12.5824 15.0072 12.8176 14.8807 13.0888L14.8687 13.1146C14.7167 13.4406 14.8572 13.8267 15.1832 13.9787C15.5092 14.1307 15.8953 13.9902 16.0473 13.6642L16.0593 13.6384C16.1297 13.4874 16.2723 13.3835 16.4354 13.3609L17.4452 13.2242C18.3219 13.1039 19.0785 12.5487 19.4529 11.7458L19.4838 11.6795C20.0909 10.3775 19.5278 8.83022 18.2258 8.2231L17.6365 7.9483C16.3337 7.34302 14.7864 7.90618 14.1793 9.20817C14.0273 9.53412 14.1678 9.92027 14.4938 10.0723C14.8197 10.2243 15.2059 10.0837 15.3579 9.75776ZM14.0832 16.3378C14.2785 16.4289 14.5021 16.4386 14.7046 16.3649C14.9072 16.2912 15.0722 16.14 15.1633 15.9446C15.2544 15.7493 15.2641 15.5257 15.1904 15.3231C15.1167 15.1206 14.9655 14.9556 14.7701 14.8645C14.5748 14.7734 14.3512 14.7636 14.1487 14.8374C13.9461 14.9111 13.7811 15.0623 13.69 15.2576C13.5989 15.453 13.5892 15.6766 13.6629 15.8791C13.7366 16.0817 13.8878 16.2467 14.0832 16.3378Z" fill="#384466"/>
<path d="M2.86165 11.1298C2.55852 10.4797 2.84059 9.70471 3.49066 9.40157L4.07996 9.12678C4.73003 8.82364 5.50502 9.10572 5.80815 9.75579L5.83907 9.82209C6.02627 10.2235 5.99618 10.6927 5.75965 11.0653L5.21522 11.9268C5.05545 12.1799 4.96179 12.469 4.94283 12.7678C4.92387 13.0665 4.98021 13.3652 5.1067 13.6365L5.11872 13.6622C5.27072 13.9882 5.65686 14.1287 5.98282 13.9767C6.30877 13.8247 6.44932 13.4386 6.29732 13.1126L6.2853 13.0869C6.21488 12.9359 6.22696 12.7598 6.31441 12.6204L6.85883 11.759C7.33018 11.01 7.39122 10.0736 7.01681 9.27065L6.9859 9.20436C6.37877 7.90237 4.8315 7.33921 3.52951 7.94634L2.94021 8.22113C1.63908 8.8301 1.07592 10.3774 1.68305 11.6794C1.83504 12.0053 2.22119 12.1459 2.54714 11.9939C2.8731 11.8419 3.01365 11.4557 2.86165 11.1298ZM7.08286 16.3358C7.27822 16.2447 7.4294 16.0797 7.50312 15.8771C7.57685 15.6746 7.56709 15.451 7.47599 15.2557C7.38489 15.0603 7.21991 14.9091 7.01735 14.8354C6.81479 14.7617 6.59123 14.7714 6.39587 14.8625C6.2005 14.9536 6.04933 15.1186 5.9756 15.3212C5.90187 15.5237 5.91164 15.7473 6.00274 15.9427C6.09384 16.138 6.25881 16.2892 6.46138 16.3629C6.66394 16.4366 6.88749 16.4269 7.08286 16.3358Z" fill="#384466"/>
</svg>
