<svg width="20" height="20" viewBox="0 0 20 20" fill="none" xmlns="http://www.w3.org/2000/svg">
<path d="M11.9976 9.99864V18.753C12.042 19.0863 11.9309 19.4418 11.6754 19.6751C11.5726 19.7781 11.4505 19.8598 11.3161 19.9156C11.1817 19.9713 11.0376 20 10.8921 20C10.7466 20 10.6026 19.9713 10.4682 19.9156C10.3338 19.8598 10.2117 19.7781 10.1089 19.6751L7.87589 17.4421C7.75479 17.3236 7.66271 17.1787 7.60682 17.0188C7.55094 16.8588 7.53276 16.6881 7.55371 16.52V9.99864H7.52038L1.12125 1.79976C0.94084 1.56815 0.859435 1.27456 0.894824 0.983122C0.930212 0.691686 1.07952 0.426105 1.31011 0.244411C1.5212 0.0888769 1.7545 0 1.99891 0H17.5524C17.7968 0 18.0301 0.0888769 18.2411 0.244411C18.4717 0.426105 18.621 0.691686 18.6564 0.983122C18.6918 1.27456 18.6104 1.56815 18.43 1.79976L12.0309 9.99864H11.9976Z" fill="white"/>
</svg>
