<svg width="21" height="13" viewBox="0 0 21 13" fill="none" xmlns="http://www.w3.org/2000/svg">
<path d="M20.3888 0.959105C20.0949 0.665292 19.6963 0.500237 19.2807 0.500237C18.8652 0.500237 18.4666 0.665292 18.1727 0.959105L10.4148 8.71699L2.65692 0.959105C2.36133 0.673618 1.96544 0.515649 1.55451 0.519219C1.14358 0.522791 0.750498 0.687616 0.459917 0.978197C0.169336 1.26878 0.00451088 1.66186 0.000940323 2.07279C-0.00263023 2.48372 0.15534 2.87961 0.440826 3.1752L9.30676 12.0411C9.60066 12.3349 9.99923 12.5 10.4148 12.5C10.8304 12.5 11.2289 12.3349 11.5229 12.0411L20.3888 3.1752C20.6826 2.88129 20.8477 2.48273 20.8477 2.06715C20.8477 1.65157 20.6826 1.25301 20.3888 0.959105Z" fill="white"/>
</svg>
