<svg width="21" height="20" viewBox="0 0 21 20" fill="none" xmlns="http://www.w3.org/2000/svg">
<path d="M18.7288 11.3571H11.9431V18.1429C11.9431 18.5028 11.8001 18.848 11.5456 19.1025C11.2911 19.357 10.9459 19.5 10.5859 19.5C10.226 19.5 9.88081 19.357 9.62629 19.1025C9.37178 18.848 9.22879 18.5028 9.22879 18.1429V11.3571H2.44308C2.08314 11.3571 1.73795 11.2142 1.48344 10.9596C1.22892 10.7051 1.08594 10.3599 1.08594 10C1.08594 9.64006 1.22892 9.29487 1.48344 9.04035C1.73795 8.78584 2.08314 8.64286 2.44308 8.64286H9.22879V1.85714C9.22879 1.49721 9.37178 1.15201 9.62629 0.897498C9.88081 0.642984 10.226 0.5 10.5859 0.5C10.9459 0.5 11.2911 0.642984 11.5456 0.897498C11.8001 1.15201 11.9431 1.49721 11.9431 1.85714V8.64286H18.7288C19.0887 8.64286 19.4339 8.78584 19.6884 9.04035C19.943 9.29487 20.0859 9.64006 20.0859 10C20.0859 10.3599 19.943 10.7051 19.6884 10.9596C19.4339 11.2142 19.0887 11.3571 18.7288 11.3571Z" fill="white"/>
</svg>
