<svg width="23" height="21" viewBox="0 0 23 21" fill="none" xmlns="http://www.w3.org/2000/svg">
<path d="M7.99602 6.05123C7.99602 4.79707 9.12899 3.77739 10.5225 3.77739H11.7858C13.1793 3.77739 14.3122 4.79707 14.3122 6.05123V6.17913C14.3122 6.95366 13.8741 7.67489 13.1516 8.09058L11.4857 9.05341C10.9966 9.33644 10.5943 9.72548 10.3156 10.1848C10.037 10.6442 9.89092 11.1592 9.89089 11.6825V11.7323C9.89089 12.3611 10.4554 12.8692 11.1541 12.8692C11.8529 12.8692 12.4174 12.3611 12.4174 11.7323V11.6825C12.4174 11.3912 12.5832 11.1212 12.8516 10.9649L14.5175 10.002C15.9624 9.16355 16.8387 7.72463 16.8387 6.17558V6.04768C16.8387 3.5358 14.5767 1.5 11.7858 1.5H10.5225C7.73153 1.50355 5.46954 3.53935 5.46954 6.05123C5.46954 6.68009 6.03405 7.18815 6.73278 7.18815C7.43151 7.18815 7.99602 6.68009 7.99602 6.05123ZM11.1541 17.4204C11.5729 17.4204 11.9746 17.2707 12.2707 17.0042C12.5668 16.7377 12.7332 16.3762 12.7332 15.9993C12.7332 15.6224 12.5668 15.2609 12.2707 14.9944C11.9746 14.7279 11.5729 14.5781 11.1541 14.5781C10.7353 14.5781 10.3337 14.7279 10.0376 14.9944C9.74144 15.2609 9.57508 15.6224 9.57508 15.9993C9.57508 16.3762 9.74144 16.7377 10.0376 17.0042C10.3337 17.2707 10.7353 17.4204 11.1541 17.4204Z" fill="#EB147C"/>
<path d="M16.9766 11.7042C17.3449 10.9933 18.2866 10.6849 19.0764 11.0164L19.7924 11.3169C20.5823 11.6483 20.925 12.4958 20.5567 13.2067L20.5191 13.2792C20.2917 13.7182 19.8315 14.0227 19.3 14.0865L18.073 14.236C17.7126 14.28 17.3703 14.4049 17.0774 14.5989C16.7846 14.793 16.5506 15.0502 16.3969 15.3468L16.3823 15.375C16.1976 15.7314 16.3684 16.1537 16.7644 16.3199C17.1605 16.4861 17.6296 16.3324 17.8143 15.976L17.8289 15.9478C17.9145 15.7827 18.0877 15.6691 18.2858 15.6443L19.5128 15.4948C20.578 15.3633 21.4973 14.7562 21.9522 13.8782L21.9898 13.8057C22.7275 12.3819 22.0432 10.6899 20.4612 10.026L19.7452 9.72552C18.1622 9.06363 16.2823 9.67946 15.5446 11.1032C15.3599 11.4597 15.5307 11.8819 15.9267 12.0481C16.3228 12.2143 16.7919 12.0606 16.9766 11.7042ZM15.4278 18.8996C15.6652 18.9992 15.9368 19.0099 16.1829 18.9293C16.4291 18.8486 16.6295 18.6833 16.7402 18.4697C16.8509 18.256 16.8628 18.0116 16.7732 17.7901C16.6836 17.5686 16.4999 17.3882 16.2625 17.2885C16.0252 17.1889 15.7535 17.1783 15.5074 17.2589C15.2613 17.3395 15.0609 17.5048 14.9502 17.7184C14.8395 17.9321 14.8276 18.1765 14.9172 18.398C15.0068 18.6196 15.1905 18.8 15.4278 18.8996Z" fill="#EB147C"/>
<path d="M1.7934 13.2061C1.42509 12.4953 1.76781 11.6478 2.55767 11.3163L3.27368 11.0158C4.06354 10.6843 5.00516 10.9928 5.37348 11.7037L5.41104 11.7762C5.6385 12.2152 5.60194 12.7282 5.31454 13.1357L4.65306 14.0777C4.45893 14.3544 4.34513 14.6707 4.32209 14.9973C4.29905 15.324 4.36751 15.6506 4.52119 15.9473L4.5358 15.9754C4.72048 16.3319 5.18965 16.4856 5.5857 16.3194C5.98174 16.1532 6.15251 15.7309 5.96783 15.3745L5.95322 15.3463C5.86766 15.1811 5.88234 14.9886 5.98859 14.8362L6.65008 13.8942C7.22278 13.0752 7.29694 12.0512 6.84203 11.1731L6.80447 11.1007C6.06679 9.6769 4.18682 9.06107 2.60487 9.72497L1.88886 10.0255C0.307952 10.6914 -0.376303 12.3834 0.361371 13.8071C0.54605 14.1636 1.01522 14.3173 1.41127 14.151C1.80732 13.9848 1.97808 13.5626 1.7934 13.2061ZM6.92227 18.899C7.15965 18.7994 7.34333 18.619 7.43291 18.3975C7.52249 18.176 7.51063 17.9315 7.39994 17.7179C7.28925 17.5043 7.0888 17.3389 6.84268 17.2583C6.59656 17.1777 6.32494 17.1884 6.08757 17.288C5.85019 17.3876 5.66651 17.568 5.57693 17.7895C5.48735 18.011 5.49921 18.2555 5.6099 18.4691C5.72059 18.6828 5.92104 18.8481 6.16716 18.9287C6.41328 19.0093 6.6849 18.9987 6.92227 18.899Z" fill="#EB147C"/>
</svg>
