<svg width="3431" height="3430" viewBox="0 0 3431 3430" fill="none" xmlns="http://www.w3.org/2000/svg">
<circle cx="1715.5" cy="1715" r="1715" fill="#32285A"/>
<path d="M545.761 1929.59L594.719 2170.11C597.988 2186.15 595.142 2200.92 586.197 2214.43C577.251 2227.94 564.916 2236.29 549.191 2239.48C533.146 2242.75 518.365 2239.91 504.846 2230.97C491.328 2222.03 482.942 2209.54 479.68 2193.51L362.259 1616.73C359.254 1600.31 362.124 1585.69 370.885 1572.9C379.895 1559.71 392.358 1551.17 408.275 1547.26L768.811 1473.96C846.284 1460.54 908.776 1480.24 956.286 1533.03C980.909 1560.42 996.881 1592.07 1004.19 1627.99C1006.93 1641.46 1008.43 1655.35 1008.66 1669.66C1009.81 1724.54 993.58 1770.42 959.987 1807.3C933.622 1835.37 898.839 1854.97 855.653 1866.09L1022.17 2053.66C1028.87 2061.97 1033.24 2071.1 1035.26 2081.05C1036.25 2085.86 1036.77 2090.93 1036.85 2096.25C1035.82 2112.5 1029.03 2125.9 1016.47 2136.47C1008.59 2143.75 999.839 2148.37 990.214 2150.32C985.082 2151.37 979.621 2151.64 973.842 2151.15C957.653 2150.43 944.303 2143.96 933.798 2131.73L722.9 1893.58L545.761 1929.59ZM522.258 1814.14L825.515 1752.48C863.96 1744.33 885.624 1722.73 890.517 1687.67C891.956 1676.69 891.604 1665.91 889.445 1655.33C886.903 1642.82 881.755 1630.67 874.008 1618.89C858.515 1595.32 838.282 1584.58 813.307 1586.64L792.314 1589.41L489.058 1651.07L522.258 1814.14ZM921.335 1538.63C883.186 1498.96 833.781 1485.29 773.128 1497.63C765.749 1499.13 758.275 1500.99 750.704 1503.19C745.124 1505.32 742.622 1507.84 743.213 1510.72C743.997 1514.57 747.434 1515.88 753.534 1514.64C802.379 1506.71 856.173 1518.15 914.915 1548.95C918.577 1550.55 921.375 1551.15 923.301 1550.76C923.941 1550.63 924.644 1549.98 925.412 1548.82C925.924 1548.05 926.051 1547.03 925.788 1545.74C925.396 1543.82 923.909 1541.45 921.335 1538.63Z" fill="white"/>
<path d="M1213.07 1845.02C1216.27 1860.73 1213.4 1875.34 1204.45 1888.85C1195.57 1902.67 1183.11 1911.22 1167.06 1914.48C1151.34 1917.68 1136.68 1914.65 1123.1 1905.39C1109.58 1896.44 1101.22 1884.12 1098.02 1868.4L1019.58 1483.09C1016.38 1467.37 1019.26 1452.76 1028.21 1439.25C1037.09 1425.42 1049.39 1416.91 1065.12 1413.72C1081.16 1410.45 1095.98 1413.45 1109.56 1422.71C1123.08 1431.65 1131.43 1443.98 1134.63 1459.69L1213.07 1845.02ZM1112.24 1448.21C1104.24 1438.49 1094.05 1432.72 1081.64 1430.89C1075.8 1430.08 1070.31 1430.19 1065.17 1431.24C1060.68 1432.15 1056.67 1433.8 1053.15 1436.18C1050.2 1438.12 1048.82 1439.57 1049.02 1440.53C1047.5 1446.19 1046.96 1450.13 1047.42 1452.38C1047.68 1453.66 1048.46 1454.17 1049.74 1453.91C1055.51 1451.07 1060.8 1449.16 1065.61 1448.18C1081.02 1445.05 1093.98 1450.43 1104.49 1464.32C1106.03 1465.34 1107.13 1465.79 1107.77 1465.65C1111.53 1457.88 1113.55 1453.8 1113.8 1453.42C1114.06 1453.02 1114.11 1452.51 1113.99 1451.87C1113.79 1450.91 1113.21 1449.69 1112.24 1448.21Z" fill="white"/>
<path d="M1345.82 1818.53C1337.91 1814.12 1329.86 1809.08 1321.69 1803.39C1266.07 1764.94 1231.44 1712.21 1217.79 1645.18L1217.11 1641.81C1203.72 1572.73 1215.96 1509.79 1253.87 1452.99C1282.17 1409.84 1320.54 1378.32 1368.96 1358.46C1385.06 1352.18 1401.3 1347.38 1417.66 1344.04C1450.07 1337.45 1483.12 1337.25 1516.79 1343.43C1566.6 1353.34 1609.92 1376.59 1646.79 1413.18C1683 1449.91 1706.33 1493.09 1716.77 1542.73C1726.69 1591.48 1722.29 1639.63 1703.57 1687.18C1684.84 1734.74 1655.33 1772.8 1615.03 1801.37C1585.74 1821.68 1553.36 1835.78 1517.86 1843.67C1483.29 1856.04 1459.82 1868.83 1447.47 1882.02C1427.69 1901.4 1415.12 1925 1409.75 1952.81C1406.72 1970.79 1406.98 1988.45 1410.51 2005.76C1412.33 2014.74 1414.97 2023.56 1418.4 2032.21C1430.76 2061.75 1451.68 2084.06 1481.14 2099.1C1510.03 2114.61 1540.52 2119.1 1572.61 2112.57C1588.33 2109.38 1602.95 2112.25 1616.47 2121.19C1630.37 2130.38 1638.92 2142.84 1642.13 2158.55C1645.32 2174.26 1642.32 2189.07 1633.12 2202.96C1624.17 2216.47 1611.84 2224.83 1596.11 2228.02C1545.99 2237.88 1496.9 2233.16 1448.86 2213.87C1400.05 2194.08 1361.7 2163.3 1333.82 2121.54C1314.72 2093.37 1301.9 2063.24 1295.37 2031.17C1291.91 2014.18 1290.22 1996.82 1290.29 1979.11C1290.05 1927.05 1303.99 1879.8 1332.11 1837.35C1336.45 1830.79 1341.03 1824.52 1345.82 1818.53ZM1494.37 1728.22C1531.14 1720.07 1559.88 1700.37 1580.59 1669.11C1601.87 1637.4 1608.75 1603.1 1601.24 1566.21C1594.85 1534.79 1578.99 1508.62 1553.68 1487.72C1528.05 1466.88 1499.18 1456.39 1467.07 1456.24C1457.05 1456.27 1447.38 1457.23 1438.08 1459.12C1412.73 1464.27 1390.03 1476.74 1370 1496.51C1342.79 1523.75 1329.16 1556.08 1329.08 1593.5C1329.12 1603.51 1330.05 1613.01 1331.87 1621.99C1338.08 1652.45 1354.15 1678.07 1380.1 1698.84C1413.72 1726.08 1451.8 1735.86 1494.37 1728.22ZM1586.25 1403.95C1566.34 1383.29 1539.68 1370.5 1506.26 1365.61C1485.19 1362.21 1465.18 1362.44 1446.25 1366.29C1437.58 1368.05 1429.08 1370.61 1420.75 1373.98C1415.17 1376.11 1412.63 1378.46 1413.16 1381.03L1413.26 1381.51C1413.98 1385.04 1417.29 1386.54 1423.19 1386C1479.82 1380.17 1532 1389.43 1579.74 1413.79C1583.47 1415.71 1586.29 1416.47 1588.22 1416.07C1588.87 1415.94 1589.6 1415.46 1590.43 1414.62C1590.88 1413.53 1590.97 1412.34 1590.71 1411.06C1590.32 1409.13 1588.84 1406.77 1586.25 1403.95ZM1618.86 2145.25C1610.87 2135.52 1600.67 2129.74 1588.27 2127.92C1582.42 2127.1 1576.92 2127.22 1571.79 2128.26C1567.3 2129.18 1563.29 2130.83 1559.77 2133.22C1556.82 2135.15 1554.07 2138.88 1551.52 2144.41C1550.3 2146.66 1549.83 2148.43 1550.1 2149.71C1550.41 2151.31 1552.19 2151.79 1555.4 2151.14L1556.35 2150.94C1562.13 2148.1 1567.42 2146.19 1572.23 2145.21C1587.64 2142.08 1600.6 2147.46 1611.11 2161.35C1611.88 2161.86 1612.59 2162.05 1613.23 2161.92C1614.84 2161.59 1616.38 2160.12 1617.84 2157.48C1620.14 2154 1621.1 2151.3 1620.71 2149.38L1620.61 2148.9C1620.41 2147.94 1619.83 2146.72 1618.86 2145.25Z" fill="white"/>
<path d="M1681.05 1149.21C1677.85 1133.5 1680.72 1118.89 1689.66 1105.38C1698.86 1091.49 1711.33 1082.94 1727.05 1079.75C1742.78 1076.55 1757.59 1079.55 1771.49 1088.74C1785.01 1097.69 1793.37 1110.02 1796.57 1125.73L1832.11 1300.35C1868.99 1264.8 1910.7 1242.29 1957.23 1232.83C1974.24 1229.37 1991.76 1227.65 2009.81 1227.65C2060.54 1227.35 2107.25 1241.74 2149.93 1270.8C2190.68 1298.58 2222.01 1335.97 2243.94 1382.94L2259.42 1431.89L2298.59 1624.31C2301.86 1640.34 2299.01 1655.11 2290.07 1668.62C2280.8 1682.2 2268.31 1690.58 2252.58 1693.78C2236.86 1696.98 2222.08 1694.13 2208.24 1685.26C2194.72 1676.32 2186.33 1663.83 2183.06 1647.8L2143.89 1455.38C2126.48 1394.46 2090.78 1358.64 2036.8 1347.9C2018.68 1344.24 2000.95 1344.17 1983.62 1347.69C1974.32 1349.59 1965.36 1352.41 1956.77 1356.16C1930.92 1367.09 1910.3 1383.98 1894.89 1406.81C1884.99 1422.18 1878.27 1438.41 1874.73 1455.5C1873.21 1462.82 1873.24 1481.02 1874.81 1510.09L1913.98 1702.51C1917.25 1718.54 1914.41 1733.31 1905.46 1746.81C1896.2 1760.39 1883.7 1768.77 1867.98 1771.97C1852.25 1775.17 1837.47 1772.33 1823.63 1763.45C1810.11 1754.51 1801.72 1742.03 1798.46 1725.99L1681.05 1149.21ZM1773.02 1113.48C1765.03 1103.75 1754.82 1097.98 1742.43 1096.16C1736.58 1095.34 1731.09 1095.46 1725.96 1096.5C1721.46 1097.42 1717.45 1099.06 1713.93 1101.45C1710.98 1103.39 1708.23 1107.12 1705.68 1112.65C1704.47 1114.9 1703.99 1116.66 1704.25 1117.94C1704.58 1119.55 1706.35 1120.03 1709.55 1119.37L1710.52 1119.17C1716.29 1116.34 1721.58 1114.42 1726.4 1113.44C1741.8 1110.31 1754.76 1115.69 1765.27 1129.58C1766.05 1130.09 1766.75 1130.29 1767.39 1130.16C1769 1129.83 1770.53 1128.35 1772 1125.72C1774.31 1122.24 1775.26 1119.54 1774.87 1117.61L1774.77 1117.14C1774.57 1116.18 1773.99 1114.95 1773.02 1113.48ZM2127.74 1289.84C2107.83 1269.18 2081.16 1256.39 2047.75 1251.5C2026.67 1248.1 2006.67 1248.32 1987.73 1252.18C1979.07 1253.94 1970.57 1256.51 1962.23 1259.87C1956.65 1262 1954.12 1264.36 1954.64 1266.92L1954.74 1267.4C1955.46 1270.93 1958.78 1272.43 1964.68 1271.89C2021.31 1266.06 2073.49 1275.32 2121.22 1299.68C2124.95 1301.6 2127.78 1302.36 2129.71 1301.96C2130.35 1301.84 2131.09 1301.35 2131.92 1300.51C2132.36 1299.42 2132.46 1298.23 2132.2 1296.95C2131.81 1295.03 2130.32 1292.66 2127.74 1289.84Z" fill="white"/>
<path d="M2626.87 1617.7C2575.53 1628.13 2524.67 1622.95 2474.31 1602.12C2420.1 1580.41 2383.57 1546.26 2364.73 1499.67L2332.54 1378.47L2313.14 1280.72L2303.52 1282.68C2287.79 1285.87 2273.2 1283.16 2259.75 1274.54C2245.92 1265.66 2237.33 1253.04 2234 1236.69C2230.81 1220.98 2233.84 1206.33 2243.11 1192.76C2251.98 1178.93 2264.3 1170.42 2280.01 1167.23L2289.64 1165.27L2262.31 1031.05C2259.12 1015.34 2261.97 1000.56 2270.84 986.736C2279.79 973.234 2292.28 964.846 2308.33 961.586C2324.38 958.318 2339.03 961.354 2352.29 970.678C2366.13 979.553 2374.65 991.849 2377.85 1007.56L2404.69 1141.88L2484.12 1125.73C2499.83 1122.53 2514.49 1125.56 2528.08 1134.82C2541.91 1143.7 2550.42 1155.99 2553.62 1171.71C2556.95 1188.06 2553.99 1203.03 2544.72 1216.6C2535.71 1229.79 2523.34 1237.98 2507.62 1241.18L2428.19 1257.33L2448.06 1354.98C2448.79 1358.51 2450.97 1370.08 2454.64 1389.71C2455.82 1397.15 2456.99 1403.76 2458.17 1409.54C2459.41 1415.62 2460.68 1421.05 2461.99 1425.79C2469.9 1453.24 2482.97 1472.28 2501.18 1482.95C2533.69 1503.06 2567.74 1509.49 2603.37 1502.25C2619.41 1498.98 2634.16 1501.67 2647.62 1510.29C2661.2 1519.54 2669.62 1532.19 2672.89 1548.23C2676.15 1564.26 2673.31 1579.03 2664.36 1592.54C2655.41 1606.05 2642.92 1614.43 2626.87 1617.7ZM2354.78 995.22C2346.78 985.489 2336.58 979.721 2324.19 977.9C2318.34 977.085 2312.85 977.197 2307.71 978.243C2303.22 979.154 2299.21 980.808 2295.68 983.189C2292.74 985.122 2289.77 988.565 2286.77 993.518C2285.99 996.347 2285.75 998.4 2286.01 999.686C2286.34 1001.29 2288.11 1001.76 2291.31 1001.11L2292.28 1000.92C2298.05 998.072 2303.33 996.163 2308.15 995.18C2323.56 992.048 2336.52 997.433 2347.04 1011.33C2347.8 1011.84 2348.52 1012.03 2349.15 1011.89C2350.75 1011.57 2352.29 1010.09 2353.76 1007.45C2356.06 1003.98 2357.02 1001.28 2356.62 999.358L2356.53 998.871C2356.33 997.912 2355.74 996.698 2354.78 995.22ZM2530.07 1156.96C2522.08 1147.23 2511.87 1141.45 2499.47 1139.64C2493.63 1138.82 2488.14 1138.94 2483 1139.98L2459.89 1144.68C2457.91 1148.08 2457.18 1151.07 2457.71 1153.64C2457.84 1154.28 2458.16 1155.05 2458.68 1155.94C2460.61 1158.89 2464.02 1160.04 2468.9 1159.38C2473.79 1158.72 2478.63 1157.9 2483.44 1156.92C2498.84 1153.79 2511.8 1159.17 2522.32 1173.07C2523.1 1173.58 2523.8 1173.77 2524.44 1173.63C2526.05 1173.31 2527.59 1171.83 2529.05 1169.19C2531.35 1165.72 2532.31 1163.02 2531.92 1161.1L2531.81 1160.61C2531.62 1159.65 2531.04 1158.44 2530.07 1156.96Z" fill="white"/>
<path d="M1940.94 1871.64C1881.58 1880.93 1833.61 1910.02 1797.03 1958.92C1760.88 2008.69 1747.25 2063.79 1756.13 2124.22C1763.7 2175.75 1786.96 2219.67 1825.9 2255.96C1864.88 2292.57 1909.99 2312.15 1961.22 2314.69C1976.76 2315.56 1991.77 2314.93 2006.26 2312.82C2047.6 2306.78 2085.31 2288.58 2119.38 2258.23C2165.12 2217.08 2189.39 2166.23 2192.2 2105.66C2193.01 2090.19 2192.33 2075.09 2190.17 2060.37C2185.11 2026.02 2172.03 1993.61 2150.91 1963.18C2120.52 1919.99 2080.72 1891.49 2031.53 1877.68C2002.27 1869.42 1972.07 1867.4 1940.94 1871.64ZM1925.62 1761.07C2017.88 1749.17 2099.88 1771.2 2171.6 1827.14C2215.05 1860.6 2248.37 1902.73 2271.56 1953.55C2285.22 1983.52 2294.36 2014.29 2299.01 2045.89C2302.21 2067.66 2303.15 2089.77 2301.82 2112.21C2298.58 2178.17 2277.03 2238.18 2237.2 2292.25C2197.72 2346.58 2147.39 2384.79 2086.21 2406.89C2065.46 2414.62 2044.37 2420.05 2022.94 2423.17C1991.56 2427.76 1959.31 2427.45 1926.17 2422.27C1871.06 2414.34 1821.44 2393.38 1777.29 2359.41C1723.97 2319.57 1686.09 2267.45 1663.68 2203.04C1656.16 2181.27 1650.78 2159.34 1647.53 2137.25C1641.32 2094.92 1643.37 2052.33 1653.71 2009.46C1669.49 1944.8 1702.09 1889.75 1751.51 1844.31C1800.42 1799.57 1857.39 1771.98 1922.44 1761.54L1925.62 1761.07ZM2151.77 1843.2C2133.81 1821.7 2102.44 1804.34 2057.65 1791.15C2021.9 1780.7 1992.71 1777.13 1970.07 1780.43C1964.94 1781.18 1960.16 1782.2 1955.72 1783.47C1950.47 1785.49 1948 1787.57 1948.32 1789.72C1948.87 1793.4 1952.02 1794.98 1957.8 1794.45C2014.83 1792.38 2077.44 1811.45 2145.61 1851.62C2148.73 1853.99 2151.2 1855.03 2153.01 1854.77C2153.91 1854.64 2154.6 1854.07 2155.07 1853.06C2155.58 1852.36 2155.73 1851.24 2155.5 1849.71C2155.23 1847.87 2153.98 1845.7 2151.77 1843.2Z" fill="#FF3A6A"/>
<path d="M2316.78 1927.29C2313.75 1912.4 2316.54 1898.55 2325.13 1885.73C2333.36 1872.66 2344.8 1864.64 2359.44 1861.67C2386.34 1856.2 2406.18 1865.77 2418.98 1890.37C2452.38 1857.32 2492.38 1835.9 2538.94 1826.12C2585.86 1816.59 2631.23 1820.8 2675.03 1838.8C2731.39 1861.82 2774.09 1903.44 2803.16 1963.67C2810.07 1977.76 2815.57 1994.83 2819.65 2014.88L2856.76 2197.17C2859.86 2212.37 2857.26 2226.34 2848.96 2239.1C2840.96 2251.8 2829.34 2259.7 2814.1 2262.79C2799.46 2265.77 2785.83 2263.01 2773.2 2254.5C2760.28 2246.06 2752.27 2234.24 2749.17 2219.04L2712.06 2036.76C2706.87 2011.24 2695.05 1989.12 2676.62 1970.41C2657.82 1951.45 2636.1 1939.57 2611.48 1934.77C2594.28 1931.3 2577.76 1931.18 2561.91 1934.4C2546.97 1937.44 2532.5 1943.55 2518.5 1952.72C2489.83 1970.89 2471.37 1996.47 2463.16 2029.46C2458.42 2047.51 2457.86 2066.92 2461.48 2087.7L2498.59 2269.99C2501.68 2285.19 2499.08 2299.16 2490.78 2311.92C2482.49 2324.68 2470.87 2332.58 2455.93 2335.61C2441.28 2338.59 2427.65 2335.83 2415.03 2327.32C2402.1 2318.88 2394.09 2307.06 2391 2291.87L2316.78 1927.29ZM2700.73 1882.45C2682.7 1862.7 2658.11 1850.46 2626.96 1845.72C2607.01 1842.49 2588.37 1842.65 2571.04 1846.18C2562.67 1847.88 2554.75 1850.28 2547.29 1853.38C2542.1 1855.38 2539.75 1857.59 2540.24 1860.03L2540.33 1860.49C2541.02 1863.83 2544.1 1865.26 2549.61 1864.77C2602.06 1859.48 2650.72 1868.41 2695.58 1891.56C2698.76 1893.45 2701.26 1894.21 2703.05 1893.84C2703.94 1893.66 2704.63 1893.21 2705.1 1892.47C2705.81 1891.38 2706.08 1890.38 2705.89 1889.47C2705.46 1887.35 2703.73 1885 2700.73 1882.45ZM2402.28 1890.92C2394.79 1881.69 2385.26 1876.19 2373.71 1874.43C2368.26 1873.64 2363.14 1873.72 2358.36 1874.7C2354.17 1875.55 2350.45 1877.1 2347.17 1879.35C2344.43 1881.17 2341.88 1884.69 2339.52 1889.92C2338.39 1892.05 2337.96 1893.72 2338.21 1894.93C2338.51 1896.45 2340.16 1896.91 2343.15 1896.3L2344.04 1896.12C2349.42 1893.44 2354.34 1891.65 2358.83 1890.74C2373.17 1887.82 2385.26 1892.96 2395.1 1906.14C2395.83 1906.63 2396.49 1906.81 2397.09 1906.69C2398.58 1906.39 2400.01 1904.99 2401.36 1902.5C2403.5 1899.22 2404.38 1896.67 2404 1894.84L2403.91 1894.38C2403.73 1893.47 2403.19 1892.32 2402.28 1890.92Z" fill="#FF3A6A"/>
<path d="M2992.17 1985.77C2995.18 2000.53 2992.87 2014.23 2985.24 2026.85C2977.49 2038.87 2966.63 2046.31 2952.65 2049.16C2938.94 2051.94 2926.17 2049.32 2914.34 2041.26C2902.39 2032.63 2894.9 2020.92 2891.9 2006.16L2819.95 1652.73C2817 1638.26 2819.37 1624.87 2827.06 1612.54C2834.68 1599.92 2845.35 1592.22 2859.06 1589.43C2873.04 1586.59 2886.01 1589.49 2897.96 1598.12C2909.86 1606.47 2917.28 1617.88 2920.22 1632.34L2992.17 1985.77ZM2988.8 2226.75C2975.09 2229.54 2962.3 2226.76 2950.4 2218.42C2938.45 2209.78 2931 2198.22 2928.05 2183.76C2925.11 2169.3 2927.48 2155.9 2935.16 2143.57C2942.79 2130.95 2953.45 2123.25 2967.16 2120.47C2981.15 2117.62 2994.11 2120.51 3006.06 2129.16C3017.97 2137.5 3025.38 2148.91 3028.33 2163.38C3031.28 2177.84 3028.93 2191.39 3021.31 2204.01C3013.63 2216.33 3002.79 2223.92 2988.8 2226.75ZM2900.2 1619.81C2893.11 1610.79 2884.12 1605.25 2873.21 1603.16C2868.09 1602.36 2863.44 1602.38 2859.24 1603.23C2855.04 1604.08 2851.43 1605.59 2848.37 1607.75C2846.37 1609.39 2845.46 1610.64 2845.64 1611.53L2845.91 1612.86C2846.21 1614.33 2847.48 1614.84 2849.72 1614.39C2867.07 1610.87 2883.18 1614.2 2898.07 1624.4C2899.37 1625.05 2900.3 1625.33 2900.86 1625.21C2901.14 1625.16 2901.39 1624.95 2901.6 1624.6C2902.11 1624.19 2902.32 1623.84 2902.27 1623.54C2902.03 1622.36 2901.33 1621.12 2900.2 1619.81ZM3012.19 2146.36C3005.11 2137.35 2996.15 2131.94 2985.3 2130.15C2980.18 2129.34 2975.39 2129.4 2970.91 2130.31C2967 2131.11 2963.51 2132.58 2960.46 2134.74C2957.9 2136.49 2955.53 2139.89 2953.37 2144.95C2952.32 2147.01 2951.92 2148.62 2952.16 2149.8C2952.46 2151.28 2954.01 2151.74 2956.8 2151.16L2957.64 2150.99C2962.66 2148.44 2967.26 2146.73 2971.46 2145.88C2984.89 2143.15 2996.26 2148.21 3005.58 2161.08C3006.26 2161.55 3006.87 2161.74 3007.43 2161.63C3008.83 2161.34 3010.16 2160 3011.42 2157.58C3013.4 2154.42 3014.2 2151.94 3013.84 2150.18L3013.75 2149.73C3013.57 2148.84 3013.05 2147.73 3012.19 2146.36Z" fill="#FF3A6A"/>
<path d="M1017.61 1191.99L1079.62 1093.27C1084.19 1085.78 1090.74 1081.07 1099.26 1079.14C1107.61 1077.24 1115.47 1078.68 1122.83 1083.46C1130.15 1088.07 1134.76 1094.55 1136.66 1102.9C1138.63 1111.59 1137.31 1119.58 1132.71 1126.9L1070.65 1225.38L1169.18 1287.39C1176.54 1292.17 1181.18 1298.82 1183.13 1307.34C1185.02 1315.68 1183.69 1323.6 1179.11 1331.09C1174.5 1338.41 1168.02 1343.02 1159.66 1344.91C1151.14 1346.84 1143.21 1345.51 1135.9 1340.9L1037.25 1278.37L974.787 1377.46C970.174 1384.78 963.691 1389.39 955.345 1391.29C946.815 1393.22 938.893 1391.88 931.57 1387.28C924.215 1382.5 919.586 1375.93 917.684 1367.58C915.749 1359.07 917.068 1351.06 921.641 1343.57L983.701 1245.11L885.163 1183.09C877.84 1178.48 873.195 1171.83 871.221 1163.14C869.326 1154.79 870.677 1146.96 875.29 1139.64C879.863 1132.16 886.41 1127.45 894.94 1125.51C903.294 1123.62 911.144 1125.06 918.507 1129.83L1017.61 1191.99ZM1126.38 1095.55C1122 1090.46 1116.49 1087.5 1109.84 1086.68C1106.72 1086.31 1103.78 1086.44 1101.06 1087.06C1098.68 1087.6 1096.56 1088.53 1094.7 1089.84C1093.15 1090.91 1091.61 1092.79 1090.07 1095.47C1089.69 1096.98 1089.58 1098.09 1089.74 1098.76C1089.93 1099.62 1090.88 1099.85 1092.58 1099.46L1093.1 1099.35C1096.14 1097.76 1098.94 1096.67 1101.5 1096.1C1109.68 1094.23 1116.66 1096.95 1122.44 1104.24C1122.86 1104.5 1123.24 1104.6 1123.59 1104.52C1124.43 1104.33 1125.24 1103.52 1125.99 1102.09C1127.18 1100.21 1127.65 1098.76 1127.42 1097.73L1127.36 1097.48C1127.25 1096.97 1126.92 1096.33 1126.38 1095.55ZM878.488 1153.7C878.336 1154.63 878.328 1155.35 878.44 1155.86L878.496 1156.12C878.727 1157.14 879.791 1158.24 881.669 1159.43C882.964 1160.38 884.036 1160.77 884.891 1160.58C885.235 1160.5 885.531 1160.25 885.794 1159.83C887.857 1150.77 892.981 1145.3 901.167 1143.45C903.726 1142.86 906.716 1142.63 910.153 1142.75L910.665 1142.63C912.368 1142.25 913.119 1141.63 912.927 1140.78C912.775 1140.09 912.2 1139.15 911.208 1137.94C908.658 1136.19 906.452 1135.17 904.597 1134.88C902.359 1134.48 900.04 1134.56 897.658 1135.11C894.932 1135.72 892.23 1136.87 889.568 1138.56C883.932 1142.16 880.238 1147.21 878.488 1153.7Z" fill="#FF3A6A"/>
<path d="M3016.44 1552.53C3030.97 1549.71 3044.66 1550.56 3057.5 1555.09C3070.29 1559.36 3081.09 1566.76 3089.89 1577.27C3098.65 1587.53 3104.43 1599.92 3107.26 1614.46C3110.08 1628.99 3109.38 1642.78 3105.15 1655.82C3100.92 1668.86 3093.7 1679.88 3083.49 1688.89C3073.23 1697.64 3060.84 1703.43 3046.3 1706.25C3031.52 1709.13 3017.73 1708.42 3004.94 1704.15C2992.1 1699.62 2981.28 1692.1 2972.48 1681.59C2963.67 1671.08 2957.86 1658.56 2955.04 1644.03C2952.22 1629.49 2952.94 1615.83 2957.22 1603.04C2961.44 1590 2968.69 1579.1 2978.95 1570.35C2989.16 1561.34 3001.66 1555.4 3016.44 1552.53ZM3043.38 1691.22C3061.42 1687.72 3074.84 1679.13 3083.62 1665.46C3092.66 1651.75 3095.4 1635.74 3091.85 1617.45C3088.29 1599.16 3079.76 1585.34 3066.25 1576.01C3052.98 1566.62 3037.33 1563.68 3019.29 1567.19C3001 1570.74 2987.46 1579.35 2978.67 1593.02C2970.14 1606.64 2967.65 1622.59 2971.2 1640.89C2974.75 1659.18 2983.04 1673.04 2996.05 1682.47C3009.31 1691.86 3025.09 1694.77 3043.38 1691.22ZM3062.1 1606.85C3063.26 1612.86 3062.63 1618.31 3060.2 1623.21C3057.98 1627.8 3054.28 1631.51 3049.1 1634.33L3076.21 1661.44L3052.61 1666.42L3028.72 1639.85L3022.33 1641.09L3028.18 1671.16L3008.63 1674.96L2992.93 1594.15L3029.02 1587.14C3037.53 1585.49 3044.74 1586.43 3050.63 1589.96C3056.76 1593.45 3060.59 1599.08 3062.1 1606.85ZM3019.19 1624.93L3034.6 1621.94C3037.36 1621.4 3039.47 1620.21 3040.93 1618.37C3042.64 1616.48 3043.23 1614.15 3042.7 1611.4C3042.16 1608.64 3040.77 1606.83 3038.52 1605.97C3036.48 1604.8 3034.08 1604.49 3031.32 1605.03L3015.91 1608.02L3019.19 1624.93Z" fill="white"/>
</svg>
