<svg width="2798" height="1473" viewBox="0 0 2798 1473" fill="none" xmlns="http://www.w3.org/2000/svg">
<path d="M185.538 970.236L234.495 1210.76C237.765 1226.79 234.919 1241.56 225.973 1255.07C217.027 1268.58 204.692 1276.93 188.967 1280.13C172.923 1283.39 158.141 1280.55 144.623 1271.61C131.104 1262.67 122.718 1250.18 119.457 1234.15L2.03582 657.374C-0.970052 640.949 1.89992 626.337 10.6617 613.538C19.6713 600.348 32.1345 591.808 48.0512 587.901L408.587 514.601C486.06 501.187 548.552 520.88 596.062 573.672C620.685 601.059 636.658 632.712 643.964 668.631C646.707 682.101 648.201 695.994 648.441 710.302C649.584 765.179 633.356 811.061 599.764 847.946C573.398 876.012 538.615 895.609 495.43 906.73L661.944 1094.3C668.651 1102.62 673.016 1111.75 675.038 1121.69C676.022 1126.5 676.549 1131.58 676.629 1136.9C675.598 1153.14 668.803 1166.54 656.244 1177.11C648.369 1184.39 639.616 1189.01 629.99 1190.97C624.858 1192.01 619.398 1192.28 613.618 1191.79C597.429 1191.07 584.079 1184.6 573.574 1172.38L362.676 934.221L185.538 970.236ZM162.034 854.785L465.291 793.125C503.736 784.976 525.401 763.374 530.293 728.31C531.732 717.332 531.38 706.555 529.222 695.97C526.68 683.459 521.531 671.315 513.785 659.531C498.292 635.963 478.058 625.218 453.084 627.287L432.091 630.051L128.834 691.711L162.034 854.785ZM561.111 579.273C522.962 539.607 473.557 525.937 412.904 538.273C405.526 539.775 398.051 541.628 390.48 543.833C384.9 545.966 382.398 548.483 382.99 551.367C383.773 555.218 387.211 556.52 393.31 555.281C442.156 547.356 495.949 558.789 554.692 589.595C558.353 591.192 561.151 591.792 563.078 591.4C563.717 591.272 564.421 590.625 565.188 589.467C565.7 588.692 565.828 587.669 565.564 586.383C565.172 584.458 563.685 582.093 561.111 579.273Z" fill="white"/>
<path d="M852.857 885.659C856.054 901.373 853.184 915.985 844.239 929.487C835.357 943.316 822.894 951.864 806.849 955.124C791.124 958.32 776.471 955.292 762.888 946.032C749.37 937.085 741.008 924.757 737.81 909.043L659.37 523.728C656.172 508.014 659.05 493.402 667.996 479.892C676.877 466.063 689.181 457.555 704.906 454.359C720.95 451.091 735.764 454.095 749.346 463.355C762.864 472.294 771.218 484.622 774.416 500.336L852.857 885.659ZM752.032 488.856C744.03 479.133 733.837 473.357 721.43 471.535C715.586 470.721 710.094 470.832 704.961 471.879C700.469 472.79 696.456 474.444 692.938 476.824C689.988 478.766 688.613 480.212 688.805 481.17C687.286 486.827 686.75 490.773 687.206 493.018C687.47 494.304 688.245 494.816 689.524 494.552C695.296 491.708 700.589 489.799 705.401 488.824C720.806 485.692 733.765 491.069 744.278 504.962C745.821 505.984 746.916 506.432 747.555 506.296C751.321 498.523 753.335 494.44 753.591 494.057C753.847 493.665 753.903 493.154 753.775 492.515C753.583 491.548 752.999 490.334 752.032 488.856Z" fill="white"/>
<path d="M985.589 859.169C977.674 854.767 969.624 849.726 961.454 844.038C905.837 805.586 871.206 752.85 857.56 685.822L856.872 682.45C843.482 613.376 855.729 550.43 893.63 493.636C921.938 450.479 960.303 418.962 1008.72 399.101C1024.82 392.821 1041.06 388.02 1057.43 384.688C1089.83 378.097 1122.88 377.898 1156.56 384.073C1206.36 393.988 1249.69 417.236 1286.55 453.826C1322.77 490.552 1346.09 533.733 1356.53 583.377C1366.45 632.119 1362.06 680.269 1343.33 727.828C1324.6 775.388 1295.1 813.448 1254.79 842.017C1225.51 862.325 1193.12 876.426 1157.63 884.311C1123.05 896.686 1099.59 909.469 1087.24 922.667C1067.46 942.048 1054.88 965.648 1049.52 993.458C1046.49 1011.43 1046.75 1029.09 1050.27 1046.4C1052.09 1055.38 1054.73 1064.2 1058.16 1072.85C1070.53 1102.4 1091.44 1124.7 1120.9 1139.75C1149.79 1155.25 1180.28 1159.74 1212.37 1153.22C1228.1 1150.02 1242.72 1152.89 1256.24 1161.83C1270.14 1171.02 1278.68 1183.48 1281.89 1199.19C1285.09 1214.91 1282.08 1229.71 1272.88 1243.61C1263.94 1257.11 1251.6 1265.47 1235.88 1268.67C1185.75 1278.53 1136.67 1273.8 1088.63 1254.52C1039.81 1234.72 1001.47 1203.94 973.581 1162.19C954.483 1134.02 941.66 1103.88 935.136 1071.82C931.675 1054.82 929.98 1037.46 930.052 1019.75C929.812 967.693 943.754 920.446 971.87 877.992C976.219 871.433 980.792 865.161 985.589 859.169ZM1134.13 768.86C1170.91 760.712 1199.64 741.01 1220.35 709.749C1241.63 678.04 1248.51 643.743 1241.01 606.857C1234.61 575.436 1218.76 549.264 1193.45 528.364C1167.82 507.521 1138.94 497.031 1106.83 496.879C1096.81 496.911 1087.15 497.87 1077.84 499.763C1052.49 504.916 1029.8 517.379 1009.76 537.152C982.559 564.395 968.921 596.719 968.849 634.14C968.881 644.151 969.816 653.65 971.639 662.629C977.842 693.092 993.919 718.713 1019.87 739.485C1053.48 766.719 1091.57 776.506 1134.13 768.86ZM1226.02 444.591C1206.1 423.931 1179.44 411.148 1146.03 406.251C1124.95 402.856 1104.94 403.079 1086.01 406.93C1077.35 408.696 1068.85 411.252 1060.51 414.624C1054.93 416.757 1052.4 419.105 1052.92 421.67L1053.02 422.157C1053.74 425.68 1057.05 427.182 1062.96 426.647C1119.58 420.815 1171.77 430.074 1219.5 454.433C1223.24 456.351 1226.06 457.11 1227.98 456.718C1228.63 456.582 1229.37 456.103 1230.2 455.264C1230.65 454.17 1230.73 452.987 1230.48 451.701C1230.09 449.776 1228.6 447.411 1226.02 444.591ZM1258.63 1185.89C1250.63 1176.16 1240.43 1170.38 1228.03 1168.56C1222.18 1167.75 1216.69 1167.87 1211.56 1168.91C1207.06 1169.83 1203.06 1171.47 1199.53 1173.86C1196.58 1175.79 1193.83 1179.52 1191.28 1185.05C1190.07 1187.31 1189.6 1189.07 1189.86 1190.36C1190.18 1191.96 1191.95 1192.43 1195.16 1191.78L1196.12 1191.59C1201.89 1188.74 1207.18 1186.83 1212 1185.85C1227.4 1182.72 1240.36 1188.1 1250.87 1202C1251.65 1202.5 1252.36 1202.69 1253 1202.57C1254.61 1202.24 1256.14 1200.76 1257.6 1198.12C1259.91 1194.65 1260.87 1191.95 1260.47 1190.02L1260.37 1189.54C1260.18 1188.58 1259.59 1187.36 1258.63 1185.89Z" fill="white"/>
<path d="M1320.83 189.853C1317.64 174.139 1320.51 159.535 1329.45 146.025C1338.65 132.132 1351.12 123.584 1366.84 120.388C1382.57 117.193 1397.38 120.188 1411.28 129.384C1424.8 138.332 1433.16 150.659 1436.36 166.373L1471.9 340.991C1508.78 305.44 1550.49 282.935 1597.01 273.475C1614.03 270.016 1631.55 268.291 1649.6 268.291C1700.33 267.995 1747.04 282.383 1789.72 311.44C1830.46 339.226 1861.8 376.607 1883.73 423.583L1899.21 472.532L1938.38 664.95C1941.65 680.984 1938.8 695.756 1929.86 709.265C1920.59 722.839 1908.1 731.219 1892.37 734.423C1876.65 737.618 1861.87 734.774 1848.03 725.898C1834.51 716.959 1826.12 704.472 1822.85 688.438L1783.68 496.02C1766.27 435.103 1730.57 399.28 1676.59 388.543C1658.47 384.884 1640.74 384.812 1623.41 388.335C1614.11 390.228 1605.15 393.048 1596.56 396.803C1570.71 407.732 1550.09 424.621 1534.68 447.454C1524.78 462.825 1518.06 479.051 1514.52 496.14C1513 503.458 1513.03 521.657 1514.6 550.729L1553.77 743.147C1557.04 759.181 1554.2 773.953 1545.25 787.455C1535.99 801.028 1523.49 809.417 1507.77 812.612C1492.04 815.808 1477.26 812.972 1463.42 804.096C1449.9 795.156 1441.51 782.669 1438.25 766.635L1320.83 189.853ZM1412.81 154.126C1404.81 144.395 1394.61 138.619 1382.21 136.798C1376.37 135.983 1370.88 136.103 1365.75 137.141C1361.25 138.06 1357.24 139.706 1353.71 142.095C1350.77 144.028 1348.02 147.759 1345.47 153.287C1344.26 155.54 1343.78 157.306 1344.04 158.584C1344.37 160.19 1346.14 160.669 1349.34 160.014L1350.31 159.814C1356.08 156.978 1361.37 155.061 1366.19 154.086C1381.59 150.954 1394.55 156.331 1405.06 170.224C1405.84 170.736 1406.54 170.927 1407.18 170.799C1408.79 170.472 1410.32 168.994 1411.79 166.358C1414.1 162.882 1415.05 160.182 1414.66 158.257L1414.56 157.777C1414.36 156.819 1413.78 155.596 1412.81 154.126ZM1767.53 330.478C1747.62 309.818 1720.95 297.035 1687.54 292.138C1666.46 288.743 1646.46 288.966 1627.52 292.817C1618.86 294.583 1610.36 297.147 1602.02 300.511C1596.44 302.644 1593.91 305 1594.43 307.565L1594.53 308.044C1595.25 311.568 1598.57 313.069 1604.46 312.534C1661.1 306.702 1713.28 315.961 1761.01 340.32C1764.74 342.238 1767.57 342.997 1769.5 342.605C1770.14 342.477 1770.87 341.99 1771.71 341.151C1772.15 340.065 1772.25 338.874 1771.99 337.588C1771.59 335.671 1770.11 333.298 1767.53 330.478Z" fill="white"/>
<path d="M2266.65 658.341C2215.31 668.774 2164.45 663.59 2114.09 642.762C2059.88 621.056 2023.35 586.902 2004.5 540.31L1972.32 419.107L1952.92 321.36L1943.29 323.318C1927.57 326.513 1912.98 323.797 1899.53 315.177C1885.69 306.301 1877.11 293.686 1873.77 277.332C1870.58 261.618 1873.61 246.974 1882.89 233.4C1891.76 219.571 1904.07 211.063 1919.79 207.867L1929.41 205.91L1902.09 71.6928C1898.9 55.9783 1901.75 41.2064 1910.62 27.3773C1919.56 13.8757 1932.06 5.48713 1948.1 2.22757C1964.16 -1.03997 1978.81 1.99589 1992.07 11.3192C2005.9 20.1951 2014.43 32.4903 2017.62 48.2048L2044.47 182.518L2123.89 166.372C2139.61 163.168 2154.26 166.204 2167.85 175.463C2181.69 184.339 2190.2 196.634 2193.39 212.349C2196.73 228.703 2193.76 243.674 2184.5 257.24C2175.49 270.43 2163.11 278.627 2147.4 281.822L2067.96 297.968L2087.84 395.619C2088.56 399.15 2090.75 410.726 2094.42 430.356C2095.6 437.793 2096.77 444.4 2097.94 450.177C2099.18 456.264 2100.45 461.689 2101.76 466.434C2109.68 493.877 2122.75 512.923 2140.96 523.588C2173.46 543.697 2207.52 550.128 2243.15 542.89C2259.19 539.623 2273.94 542.307 2287.39 550.927C2300.97 560.187 2309.4 572.833 2312.66 588.867C2315.92 604.902 2313.09 619.673 2304.13 633.183C2295.19 646.693 2282.7 655.073 2266.65 658.341ZM1994.55 35.8617C1986.56 26.131 1976.36 20.3628 1963.97 18.5413C1958.11 17.7264 1952.62 17.8383 1947.49 18.8848C1943 19.7956 1938.99 21.4494 1935.46 23.8301C1932.52 25.7635 1929.54 29.2068 1926.54 34.16C1925.77 36.9882 1925.53 39.0413 1925.78 40.3276C1926.11 41.9334 1927.89 42.4048 1931.08 41.7497L1932.05 41.5579C1937.82 38.7138 1943.11 36.8044 1947.93 35.8218C1963.33 32.69 1976.29 38.0747 1986.81 51.9677C1987.57 52.479 1988.29 52.6708 1988.92 52.5349C1990.53 52.2074 1992.07 50.7294 1993.54 48.093C1995.84 44.6177 1996.8 41.9174 1996.4 40L1996.31 39.5127C1996.11 38.554 1995.52 37.3397 1994.55 35.8617ZM2169.85 197.601C2161.86 187.87 2151.65 182.094 2139.25 180.281C2133.41 179.466 2127.91 179.578 2122.77 180.624L2099.67 185.322C2097.69 188.725 2096.96 191.713 2097.49 194.278C2097.61 194.917 2097.93 195.692 2098.45 196.586C2100.39 199.534 2103.79 200.677 2108.68 200.022C2113.56 199.359 2118.41 198.544 2123.22 197.561C2138.62 194.429 2151.58 199.814 2162.1 213.707C2162.87 214.218 2163.58 214.41 2164.22 214.274C2165.83 213.947 2167.37 212.469 2168.83 209.832C2171.12 206.357 2172.08 203.657 2171.7 201.739L2171.59 201.252C2171.39 200.293 2170.82 199.079 2169.85 197.601Z" fill="white"/>
<path d="M1580.71 912.278C1521.35 921.569 1473.38 950.665 1436.79 999.559C1400.64 1049.33 1387.01 1104.43 1395.89 1164.86C1403.47 1216.39 1426.72 1260.31 1465.66 1296.6C1504.64 1333.22 1549.75 1352.79 1600.99 1355.33C1616.52 1356.2 1631.54 1355.57 1646.02 1353.46C1687.37 1347.42 1725.08 1329.22 1759.14 1298.87C1804.88 1257.73 1829.16 1206.87 1831.97 1146.3C1832.78 1130.83 1832.1 1115.74 1829.93 1101.01C1824.88 1066.66 1811.8 1034.26 1790.68 1003.82C1760.28 960.628 1720.49 932.131 1671.3 918.317C1642.03 910.057 1611.84 908.043 1580.71 912.278ZM1565.38 801.716C1657.64 789.813 1739.64 811.839 1811.37 867.786C1854.82 901.237 1888.14 943.371 1911.33 994.19C1924.98 1024.16 1934.13 1054.93 1938.77 1086.53C1941.98 1108.31 1942.91 1130.41 1941.59 1152.85C1938.34 1218.81 1916.8 1278.83 1876.97 1332.9C1837.49 1387.22 1787.15 1425.43 1725.97 1447.53C1705.23 1455.26 1684.14 1460.69 1662.71 1463.81C1631.33 1468.4 1599.07 1468.1 1565.93 1462.91C1510.83 1454.98 1461.2 1434.02 1417.06 1400.05C1363.73 1360.21 1325.86 1308.09 1303.45 1243.68C1295.93 1221.91 1290.55 1199.98 1287.3 1177.89C1281.08 1135.57 1283.13 1092.97 1293.48 1050.1C1309.25 985.442 1341.85 930.389 1391.27 884.947C1440.18 840.208 1497.16 812.622 1562.21 802.18L1565.38 801.716ZM1791.53 883.844C1773.58 862.338 1742.21 844.985 1697.42 831.787C1661.67 821.346 1632.47 817.774 1609.84 821.074C1604.71 821.825 1599.93 822.84 1595.49 824.11C1590.24 826.131 1587.77 828.216 1588.09 830.365C1588.63 834.04 1591.79 835.622 1597.57 835.087C1654.6 833.026 1717.2 852.088 1785.38 892.265C1788.5 894.63 1790.97 895.676 1792.77 895.413C1793.68 895.277 1794.36 894.71 1794.84 893.703C1795.35 893 1795.49 891.881 1795.27 890.348C1795 888.51 1793.75 886.337 1791.53 883.844Z" fill="white"/>
<path d="M1956.56 967.933C1953.53 953.042 1956.31 939.189 1964.91 926.374C1973.14 913.304 1984.57 905.283 1999.22 902.311C2026.12 896.838 2045.96 906.409 2058.75 931.016C2092.16 897.965 2132.16 876.546 2178.71 866.767C2225.63 857.228 2271 861.447 2314.81 879.438C2371.16 902.463 2413.87 944.086 2442.93 1004.31C2449.85 1018.4 2455.35 1035.47 2459.43 1055.53L2496.54 1237.81C2499.63 1253.01 2497.03 1266.98 2488.73 1279.74C2480.74 1292.44 2469.12 1300.34 2453.88 1303.44C2439.23 1306.42 2425.6 1303.65 2412.97 1295.14C2400.05 1286.7 2392.04 1274.88 2388.95 1259.69L2351.84 1077.4C2346.64 1051.88 2334.83 1029.76 2316.39 1011.05C2297.6 992.092 2275.88 980.213 2251.25 975.411C2234.05 971.944 2217.53 971.824 2201.69 975.044C2186.75 978.08 2172.28 984.191 2158.27 993.363C2129.6 1011.53 2111.15 1037.11 2102.94 1070.11C2098.2 1088.15 2097.64 1107.57 2101.26 1128.35L2138.37 1310.63C2141.45 1325.83 2138.85 1339.8 2130.56 1352.56C2122.27 1365.32 2110.64 1373.22 2095.7 1376.26C2081.06 1379.24 2067.43 1376.47 2054.8 1367.96C2041.88 1359.52 2033.86 1347.7 2030.78 1332.51L1956.56 967.933ZM2340.5 923.091C2322.48 903.342 2297.89 891.102 2266.73 886.365C2246.79 883.137 2228.14 883.289 2210.81 886.82C2202.44 888.522 2194.53 890.918 2187.07 894.018C2181.87 896.023 2179.52 898.236 2180.02 900.673L2180.11 901.129C2180.79 904.468 2183.88 905.898 2189.39 905.411C2241.84 900.122 2290.5 909.054 2335.35 932.206C2338.54 934.092 2341.03 934.851 2342.82 934.483C2343.72 934.307 2344.4 933.852 2344.88 933.117C2345.59 932.022 2345.85 931.024 2345.67 930.113C2345.24 927.988 2343.51 925.647 2340.5 923.091ZM2042.05 931.567C2034.57 922.332 2025.04 916.835 2013.49 915.069C2008.04 914.279 2002.92 914.366 1998.14 915.341C1993.95 916.196 1990.22 917.746 1986.95 919.991C1984.2 921.812 1981.65 925.335 1979.3 930.56C1978.17 932.693 1977.74 934.363 1977.98 935.578C1978.29 937.095 1979.94 937.551 1982.92 936.944L1983.82 936.76C1989.19 934.084 1994.12 932.294 1998.6 931.383C2012.94 928.467 2025.04 933.604 2034.88 946.786C2035.61 947.274 2036.26 947.457 2036.86 947.338C2038.36 947.034 2039.78 945.636 2041.13 943.143C2043.27 939.86 2044.15 937.311 2043.78 935.482L2043.69 935.026C2043.51 934.116 2042.96 932.965 2042.05 931.567Z" fill="white"/>
<path d="M2631.95 1026.41C2634.95 1041.18 2632.64 1054.87 2625.01 1067.49C2617.27 1079.52 2606.4 1086.95 2592.42 1089.8C2578.71 1092.59 2565.94 1089.96 2554.11 1081.91C2542.16 1073.27 2534.68 1061.56 2531.67 1046.8L2459.72 693.371C2456.77 678.903 2459.15 665.513 2466.83 653.186C2474.46 640.563 2485.12 632.862 2498.84 630.073C2512.81 627.229 2525.79 630.129 2537.74 638.765C2549.64 647.114 2557.06 658.523 2560 672.983L2631.95 1026.41ZM2628.57 1267.4C2614.87 1270.18 2602.07 1267.4 2590.18 1259.06C2578.22 1250.43 2570.77 1238.87 2567.82 1224.41C2564.88 1209.94 2567.26 1196.54 2574.94 1184.21C2582.57 1171.59 2593.23 1163.89 2606.93 1161.12C2620.92 1158.26 2633.89 1161.16 2645.84 1169.8C2657.74 1178.14 2665.15 1189.55 2668.1 1204.02C2671.05 1218.49 2668.7 1232.03 2661.09 1244.65C2653.4 1256.97 2642.56 1264.56 2628.57 1267.4ZM2539.97 660.456C2532.89 651.436 2523.89 645.892 2512.98 643.799C2507.87 643 2503.21 643.024 2499.02 643.871C2494.82 644.725 2491.21 646.235 2488.14 648.392C2486.15 650.03 2485.23 651.284 2485.42 652.171L2485.69 653.505C2485.99 654.975 2487.26 655.487 2489.5 655.031C2506.84 651.508 2522.95 654.84 2537.84 665.042C2539.15 665.697 2540.08 665.968 2540.63 665.857C2540.91 665.801 2541.17 665.593 2541.38 665.241C2541.88 664.834 2542.1 664.482 2542.04 664.187C2541.81 663.004 2541.11 661.758 2539.97 660.456ZM2651.96 1187C2644.89 1177.99 2635.93 1172.58 2625.07 1170.79C2619.95 1169.99 2615.17 1170.04 2610.69 1170.95C2606.78 1171.75 2603.29 1173.22 2600.23 1175.39C2597.67 1177.14 2595.31 1180.53 2593.14 1185.59C2592.09 1187.65 2591.69 1189.26 2591.93 1190.45C2592.24 1191.92 2593.79 1192.38 2596.58 1191.8L2597.42 1191.64C2602.44 1189.08 2607.04 1187.38 2611.23 1186.52C2624.66 1183.79 2636.03 1188.86 2645.35 1201.73C2646.03 1202.2 2646.65 1202.38 2647.21 1202.27C2648.61 1201.98 2649.93 1200.64 2651.2 1198.23C2653.17 1195.06 2653.98 1192.59 2653.62 1190.82L2653.53 1190.37C2653.35 1189.49 2652.83 1188.37 2651.96 1187Z" fill="white"/>
<path d="M657.401 232.632L719.405 133.911C723.978 126.425 730.525 121.711 739.047 119.778C747.401 117.885 755.259 119.323 762.614 124.1C769.937 128.71 774.55 135.189 776.444 143.538C778.419 152.23 777.1 160.227 772.495 167.545L710.435 266.019L808.965 328.03C816.328 332.816 820.973 339.462 822.916 347.979C824.81 356.327 823.475 364.245 818.894 371.73C814.29 379.048 807.806 383.658 799.452 385.552C790.93 387.485 783 386.151 775.685 381.541L677.035 319.01L614.575 418.107C609.963 425.425 603.479 430.035 595.133 431.928C586.603 433.862 578.681 432.528 571.358 427.918C564.003 423.14 559.374 416.573 557.472 408.225C555.537 399.708 556.856 391.703 561.429 384.217L623.489 285.752L524.951 223.732C517.628 219.123 512.983 212.476 511.009 203.784C509.114 195.435 510.465 187.606 515.078 180.288C519.651 172.802 526.198 168.088 534.728 166.155C543.082 164.261 550.932 165.699 558.295 170.477L657.401 232.632ZM766.172 136.196C761.791 131.099 756.275 128.143 749.631 127.32C746.506 126.952 743.572 127.08 740.846 127.703C738.463 128.239 736.345 129.173 734.49 130.483C732.939 131.554 731.396 133.431 729.854 136.108C729.478 137.626 729.366 138.728 729.526 139.407C729.718 140.262 730.669 140.494 732.372 140.102L732.883 139.991C735.929 138.401 738.727 137.314 741.285 136.739C749.472 134.877 756.451 137.594 762.231 144.88C762.646 145.143 763.03 145.239 763.374 145.159C764.221 144.968 765.029 144.161 765.78 142.731C766.963 140.853 767.443 139.399 767.211 138.377L767.147 138.121C767.035 137.61 766.707 136.971 766.172 136.196ZM518.276 194.34C518.124 195.275 518.116 195.994 518.228 196.505L518.284 196.761C518.515 197.784 519.579 198.886 521.457 200.069C522.752 201.027 523.824 201.411 524.679 201.219C525.023 201.139 525.319 200.891 525.582 200.476C527.645 191.408 532.769 185.944 540.956 184.09C543.514 183.507 546.504 183.275 549.941 183.395L550.453 183.275C552.156 182.892 552.907 182.269 552.715 181.422C552.563 180.735 551.988 179.792 550.996 178.586C548.446 176.836 546.24 175.814 544.385 175.518C542.147 175.127 539.828 175.206 537.446 175.75C534.72 176.365 532.018 177.515 529.356 179.201C523.72 182.804 520.026 187.853 518.276 194.34Z" fill="white"/>
<path d="M2656.22 593.174C2670.75 590.351 2684.44 591.202 2697.28 595.729C2710.07 600.004 2720.87 607.398 2729.67 617.909C2738.42 628.169 2744.21 640.566 2747.03 655.099C2749.86 669.632 2749.16 683.419 2744.93 696.462C2740.7 709.504 2733.48 720.527 2723.27 729.531C2713.01 738.285 2700.61 744.073 2686.08 746.896C2671.3 749.768 2657.51 749.066 2644.72 744.79C2631.88 740.264 2621.06 732.745 2612.25 722.234C2603.45 711.723 2597.64 699.201 2594.82 684.668C2591.99 670.135 2592.72 656.473 2596.99 643.682C2601.22 630.639 2608.47 619.741 2618.73 610.988C2628.94 601.983 2641.44 596.045 2656.22 593.174ZM2683.16 731.862C2701.2 728.358 2714.61 719.772 2723.4 706.104C2732.44 692.388 2735.18 676.384 2731.62 658.092C2728.07 639.801 2719.54 625.988 2706.02 616.652C2692.76 607.267 2677.11 604.327 2659.07 607.832C2640.77 611.385 2627.24 619.995 2618.45 633.663C2609.91 647.282 2607.42 663.237 2610.98 681.529C2614.53 699.82 2622.81 713.682 2635.83 723.116C2649.09 732.5 2664.87 735.416 2683.16 731.862ZM2701.87 647.491C2703.04 653.504 2702.41 658.957 2699.98 663.85C2697.75 668.443 2694.05 672.152 2688.88 674.976L2715.99 702.083L2692.38 707.059L2668.5 680.495L2662.11 681.737L2667.95 711.805L2648.41 715.601L2632.71 634.793L2668.79 627.784C2677.31 626.129 2684.51 627.07 2690.4 630.607C2696.54 634.095 2700.36 639.723 2701.87 647.491ZM2658.97 665.575L2674.38 662.582C2677.14 662.046 2679.25 660.856 2680.71 659.012C2682.42 657.119 2683.01 654.795 2682.47 652.039C2681.94 649.283 2680.55 647.473 2678.3 646.609C2676.25 645.447 2673.85 645.133 2671.1 645.668L2655.69 648.662L2658.97 665.575Z" fill="white"/>
</svg>
