<svg width="21" height="24" viewBox="0 0 21 24" fill="none" xmlns="http://www.w3.org/2000/svg">
<path d="M0 6.09552C0 5.87179 0.0888751 5.65723 0.247074 5.49903C0.405273 5.34083 0.619837 5.25195 0.843564 5.25195H11.5287C11.7524 5.25195 11.967 5.34083 12.1252 5.49903C12.2834 5.65723 12.3723 5.87179 12.3723 6.09552C12.3723 6.31924 12.2834 6.53381 12.1252 6.69201C11.967 6.85021 11.7524 6.93908 11.5287 6.93908H0.843564C0.619837 6.93908 0.405273 6.85021 0.247074 6.69201C0.0888751 6.53381 0 6.31924 0 6.09552ZM0 11.7193C0 11.4956 0.0888751 11.281 0.247074 11.1228C0.405273 10.9646 0.619837 10.8757 0.843564 10.8757H7.0297C7.25343 10.8757 7.46799 10.9646 7.62619 11.1228C7.78439 11.281 7.87327 11.4956 7.87327 11.7193C7.87327 11.943 7.78439 12.1576 7.62619 12.3158C7.46799 12.474 7.25343 12.5628 7.0297 12.5628H0.843564C0.619837 12.5628 0.405273 12.474 0.247074 12.3158C0.0888751 12.1576 0 11.943 0 11.7193ZM0 17.343C0 17.1193 0.0888751 16.9047 0.247074 16.7465C0.405273 16.5883 0.619837 16.4995 0.843564 16.4995H4.7802C5.00392 16.4995 5.21849 16.5883 5.37669 16.7465C5.53489 16.9047 5.62376 17.1193 5.62376 17.343C5.62376 17.5668 5.53489 17.7813 5.37669 17.9395C5.21849 18.0977 5.00392 18.1866 4.7802 18.1866H0.843564C0.619837 18.1866 0.405273 18.0977 0.247074 17.9395C0.0888751 17.7813 0 17.5668 0 17.343Z" fill="#384466"/>
<path d="M16.8929 5.53302V16.4319L19.3898 13.9349C19.467 13.852 19.5602 13.7856 19.6636 13.7395C19.7671 13.6933 19.8788 13.6686 19.9921 13.6666C20.1053 13.6646 20.2179 13.6854 20.3229 13.7278C20.4279 13.7703 20.5233 13.8334 20.6034 13.9135C20.6836 13.9936 20.7467 14.089 20.7891 14.1941C20.8316 14.2991 20.8524 14.4116 20.8504 14.5249C20.8484 14.6381 20.8236 14.7498 20.7775 14.8533C20.7314 14.9568 20.6649 15.0499 20.582 15.1272L16.6454 19.0638C16.4872 19.2218 16.2728 19.3105 16.0493 19.3105C15.8257 19.3105 15.6113 19.2218 15.4532 19.0638L11.5165 15.1272C11.4337 15.0499 11.3672 14.9568 11.3211 14.8533C11.275 14.7498 11.2502 14.6381 11.2482 14.5249C11.2462 14.4116 11.267 14.2991 11.3094 14.1941C11.3519 14.089 11.415 13.9936 11.4951 13.9135C11.5752 13.8334 11.6706 13.7703 11.7757 13.7278C11.8807 13.6854 11.9932 13.6646 12.1065 13.6666C12.2198 13.6686 12.3315 13.6933 12.4349 13.7395C12.5384 13.7856 12.6315 13.852 12.7088 13.9349L15.2057 16.4319V5.53302C15.2057 5.30929 15.2946 5.09473 15.4528 4.93653C15.611 4.77833 15.8256 4.68945 16.0493 4.68945C16.273 4.68945 16.4876 4.77833 16.6458 4.93653C16.804 5.09473 16.8929 5.30929 16.8929 5.53302Z" fill="#384466"/>
</svg>
