<svg width="33" height="30" viewBox="0 0 33 30" fill="none" xmlns="http://www.w3.org/2000/svg">
<path d="M4.55357 30H0.803571C0.590451 30 0.38606 29.9153 0.235361 29.7646C0.0846618 29.6139 0 29.4095 0 29.1964V4.01786C0 3.80474 0.0846618 3.60035 0.235361 3.44965C0.38606 3.29895 0.590451 3.21429 0.803571 3.21429H4.55357C4.76669 3.21429 4.97108 3.29895 5.12178 3.44965C5.27248 3.60035 5.35714 3.80474 5.35714 4.01786V29.1964C5.35714 29.4095 5.27248 29.6139 5.12178 29.7646C4.97108 29.9153 4.76669 30 4.55357 30ZM15 11.7857V8.30357C15 8.09045 14.9153 7.88606 14.7646 7.73536C14.6139 7.58466 14.4095 7.5 14.1964 7.5H7.23214C7.01902 7.5 6.81463 7.58466 6.66393 7.73536C6.51323 7.88606 6.42857 8.09045 6.42857 8.30357V11.7857H15ZM6.42857 25.7143V29.1964C6.42857 29.4095 6.51323 29.6139 6.66393 29.7646C6.81463 29.9153 7.01902 30 7.23214 30H14.1964C14.4095 30 14.6139 29.9153 14.7646 29.7646C14.9153 29.6139 15 29.4095 15 29.1964V25.7143H6.42857ZM6.42857 13.9286H15V23.5714H6.42857V13.9286ZM21.6964 30H16.875C16.6619 30 16.4575 29.9153 16.3068 29.7646C16.1561 29.6139 16.0714 29.4095 16.0714 29.1964V0.803571C16.0714 0.590451 16.1561 0.386059 16.3068 0.235361C16.4575 0.0846616 16.6619 0 16.875 0H21.6964C21.9096 0 22.1139 0.0846616 22.2646 0.235361C22.4153 0.386059 22.5 0.590451 22.5 0.803571V29.1964C22.5 29.4095 22.4153 29.6139 22.2646 29.7646C22.1139 29.9153 21.9096 30 21.6964 30ZM23.6384 4.60045L25.6473 29.2319C25.6562 29.3399 25.6869 29.445 25.7375 29.5409C25.7881 29.6367 25.8575 29.7214 25.9417 29.7897C26.0258 29.858 26.1229 29.9086 26.2271 29.9384C26.3313 29.9682 26.4405 29.9766 26.548 29.9632L31.3801 29.3605C31.5859 29.3348 31.7737 29.2305 31.9044 29.0695C32.035 28.9085 32.0984 28.7033 32.0813 28.4967L30.067 3.96496C30.0581 3.85841 30.0281 3.7547 29.9786 3.65991C29.9291 3.56512 29.8613 3.48115 29.7789 3.41292C29.6966 3.3447 29.6015 3.29359 29.4992 3.26258C29.3969 3.23158 29.2894 3.22131 29.183 3.23237L24.3529 3.73527C24.1445 3.75779 23.9531 3.86086 23.8196 4.0225C23.6861 4.18413 23.6211 4.39153 23.6384 4.60045Z" fill="white"/>
</svg>
