<svg width="479" height="421" viewBox="0 0 479 421" fill="none" xmlns="http://www.w3.org/2000/svg">
<path d="M0 12.2161C0 5.62035 5.34689 0.273438 11.9426 0.273438H467.004C473.599 0.273438 478.946 5.62033 478.946 12.2161V408.211C478.946 414.807 473.599 420.154 467.004 420.154H11.9426C5.34688 420.154 0 414.807 0 408.211V12.2161Z" fill="white"/>
<path d="M44.1133 44.8855C44.1133 45.678 43.9222 46.421 43.5401 47.1144C43.1722 47.8078 42.5849 48.3668 41.7782 48.7914C40.9857 49.2159 39.981 49.4282 38.7639 49.4282H36.2803V55.1172H33.3084V40.3004H38.7639C39.9102 40.3004 40.8867 40.4985 41.6933 40.8947C42.5 41.291 43.1014 41.8358 43.4977 42.5293C43.9081 43.2227 44.1133 44.0081 44.1133 44.8855ZM38.6366 47.0295C39.4574 47.0295 40.0659 46.8455 40.4621 46.4776C40.8584 46.0955 41.0565 45.5648 41.0565 44.8855C41.0565 43.442 40.2499 42.7203 38.6366 42.7203H36.2803V47.0295H38.6366ZM52.8462 43.1873C53.7378 43.1873 54.5303 43.3854 55.2237 43.7817C55.9172 44.1638 56.4549 44.7369 56.837 45.5011C57.2333 46.2512 57.4314 47.1569 57.4314 48.2182V55.1172H54.4595V48.6216C54.4595 47.6876 54.226 46.9729 53.759 46.4776C53.292 45.9681 52.6552 45.7134 51.8485 45.7134C51.0277 45.7134 50.3768 45.9681 49.8956 46.4776C49.4286 46.9729 49.1951 47.6876 49.1951 48.6216V55.1172H46.2232V39.4088H49.1951V44.8218C49.5772 44.3124 50.0867 43.9161 50.7235 43.6331C51.3603 43.3359 52.0679 43.1873 52.8462 43.1873ZM59.4933 49.1947C59.4933 48.006 59.7268 46.9517 60.1938 46.0318C60.6749 45.1119 61.3188 44.4044 62.1255 43.9091C62.9463 43.4137 63.8591 43.1661 64.8638 43.1661C65.7412 43.1661 66.5054 43.343 67.1564 43.6968C67.8215 44.0506 68.3522 44.4963 68.7485 45.0341V43.3571H71.7416V55.1172H68.7485V53.3978C68.3664 53.9497 67.8357 54.4096 67.1564 54.7775C66.4913 55.1313 65.72 55.3082 64.8426 55.3082C63.852 55.3082 62.9463 55.0535 62.1255 54.544C61.3188 54.0346 60.6749 53.3199 60.1938 52.4001C59.7268 51.4661 59.4933 50.3976 59.4933 49.1947ZM68.7485 49.2372C68.7485 48.5154 68.607 47.8998 68.3239 47.3904C68.0409 46.8668 67.6588 46.4705 67.1776 46.2016C66.6965 45.9186 66.1799 45.7771 65.628 45.7771C65.0761 45.7771 64.5667 45.9115 64.0996 46.1804C63.6326 46.4493 63.2505 46.8455 62.9534 47.3691C62.6703 47.8786 62.5288 48.4871 62.5288 49.1947C62.5288 49.9023 62.6703 50.525 62.9534 51.0627C63.2505 51.5863 63.6326 51.9897 64.0996 52.2727C64.5808 52.5557 65.0903 52.6972 65.628 52.6972C66.1799 52.6972 66.6965 52.5628 67.1776 52.2939C67.6588 52.0109 68.0409 51.6146 68.3239 51.1052C68.607 50.5816 68.7485 49.9589 68.7485 49.2372ZM79.1443 55.3082C78.182 55.3082 77.3188 55.1384 76.5546 54.7988C75.7904 54.445 75.1819 53.9709 74.729 53.3765C74.2903 52.7822 74.0497 52.1241 74.0073 51.4024H77.0003C77.057 51.8552 77.2763 52.2302 77.6584 52.5274C78.0547 52.8246 78.5429 52.9732 79.1231 52.9732C79.6892 52.9732 80.1279 52.86 80.4392 52.6336C80.7647 52.4071 80.9274 52.117 80.9274 51.7632C80.9274 51.3811 80.7293 51.0981 80.3331 50.9141C79.951 50.716 79.3354 50.5037 78.4863 50.2773C77.6089 50.065 76.8871 49.8457 76.3211 49.6193C75.7692 49.3928 75.288 49.0461 74.8776 48.5791C74.4813 48.1121 74.2832 47.4824 74.2832 46.6899C74.2832 46.0389 74.4672 45.4445 74.8351 44.9067C75.2172 44.369 75.755 43.9444 76.4484 43.6331C77.156 43.3218 77.9839 43.1661 78.9321 43.1661C80.3331 43.1661 81.4511 43.5199 82.286 44.2275C83.121 44.9209 83.5809 45.862 83.6658 47.0507H80.8213C80.7789 46.5837 80.5807 46.2158 80.2269 45.9469C79.8873 45.6639 79.4274 45.5223 78.8471 45.5223C78.3094 45.5223 77.8919 45.6214 77.5947 45.8195C77.3117 46.0177 77.1702 46.2936 77.1702 46.6474C77.1702 47.0436 77.3683 47.3479 77.7645 47.5602C78.1608 47.7583 78.7764 47.9635 79.6113 48.1758C80.4604 48.3881 81.1609 48.6074 81.7129 48.8338C82.2648 49.0603 82.7389 49.4141 83.1351 49.8952C83.5455 50.3622 83.7578 50.9849 83.7719 51.7632C83.7719 52.4425 83.5809 53.051 83.1988 53.5888C82.8308 54.1266 82.2931 54.5511 81.5855 54.8625C80.8921 55.1596 80.0783 55.3082 79.1443 55.3082ZM97.1436 48.9824C97.1436 49.407 97.1153 49.7891 97.0587 50.1287H88.4616C88.5323 50.9778 88.8295 51.6429 89.3531 52.1241C89.8767 52.6053 90.5206 52.8458 91.2848 52.8458C92.3887 52.8458 93.1741 52.3718 93.6411 51.4236H96.8464C96.5068 52.5557 95.8558 53.4897 94.8935 54.2256C93.9312 54.9474 92.7495 55.3082 91.3485 55.3082C90.2164 55.3082 89.1974 55.0606 88.2917 54.5653C87.4002 54.0558 86.6997 53.3412 86.1902 52.4213C85.6949 51.5014 85.4472 50.4401 85.4472 49.2372C85.4472 48.0201 85.6949 46.9517 86.1902 46.0318C86.6855 45.1119 87.379 44.4044 88.2705 43.9091C89.1621 43.4137 90.1881 43.1661 91.3485 43.1661C92.4665 43.1661 93.4642 43.4067 94.3416 43.8878C95.2331 44.369 95.9195 45.0553 96.4007 45.9469C96.896 46.8243 97.1436 47.8361 97.1436 48.9824ZM94.0656 48.1333C94.0515 47.3691 93.7755 46.7606 93.2378 46.3078C92.7 45.8408 92.0419 45.6073 91.2636 45.6073C90.5277 45.6073 89.905 45.8337 89.3956 46.2865C88.9003 46.7252 88.596 47.3408 88.4828 48.1333H94.0656ZM103.67 42.3807V39.6423H108.786V55.1172H105.729V42.3807H103.67ZM113.378 55.2658C112.84 55.2658 112.394 55.103 112.041 54.7775C111.701 54.4379 111.531 54.0204 111.531 53.5251C111.531 53.0298 111.701 52.6194 112.041 52.2939C112.394 51.9543 112.84 51.7845 113.378 51.7845C113.901 51.7845 114.333 51.9543 114.673 52.2939C115.012 52.6194 115.182 53.0298 115.182 53.5251C115.182 54.0204 115.012 54.4379 114.673 54.7775C114.333 55.103 113.901 55.2658 113.378 55.2658ZM113.378 46.4776C112.84 46.4776 112.394 46.3148 112.041 45.9893C111.701 45.6497 111.531 45.2322 111.531 44.7369C111.531 44.2416 111.701 43.8312 112.041 43.5057C112.394 43.1661 112.84 42.9963 113.378 42.9963C113.901 42.9963 114.333 43.1661 114.673 43.5057C115.012 43.8312 115.182 44.2416 115.182 44.7369C115.182 45.2322 115.012 45.6497 114.673 45.9893C114.333 46.3148 113.901 46.4776 113.378 46.4776ZM125.732 52.6123H132.397V55.1172H122.293V52.8246L128.916 42.8052H122.293V40.3004H132.397V42.5929L125.732 52.6123ZM136.434 41.9561C135.911 41.9561 135.472 41.7934 135.118 41.4679C134.778 41.1282 134.609 40.7108 134.609 40.2155C134.609 39.7202 134.778 39.3098 135.118 38.9843C135.472 38.6446 135.911 38.4748 136.434 38.4748C136.958 38.4748 137.389 38.6446 137.729 38.9843C138.083 39.3098 138.26 39.7202 138.26 40.2155C138.26 40.7108 138.083 41.1282 137.729 41.4679C137.389 41.7934 136.958 41.9561 136.434 41.9561ZM137.899 43.3571V55.1172H134.927V43.3571H137.899ZM145.441 43.1661C146.319 43.1661 147.09 43.343 147.755 43.6968C148.42 44.0364 148.944 44.4822 149.326 45.0341V43.3571H152.319V55.2021C152.319 56.2918 152.1 57.2612 151.661 58.1103C151.222 58.9735 150.564 59.6528 149.687 60.1481C148.809 60.6576 147.748 60.9123 146.503 60.9123C144.833 60.9123 143.46 60.5231 142.385 59.7448C141.323 58.9664 140.722 57.9051 140.58 56.5607H143.531C143.687 57.0984 144.019 57.523 144.529 57.8343C145.052 58.1598 145.682 58.3225 146.418 58.3225C147.281 58.3225 147.982 58.0607 148.519 57.5371C149.057 57.0277 149.326 56.2493 149.326 55.2021V53.3765C148.944 53.9284 148.413 54.3884 147.734 54.7563C147.069 55.1243 146.305 55.3082 145.441 55.3082C144.451 55.3082 143.545 55.0535 142.724 54.544C141.903 54.0346 141.252 53.3199 140.771 52.4001C140.304 51.4661 140.071 50.3976 140.071 49.1947C140.071 48.006 140.304 46.9517 140.771 46.0318C141.252 45.1119 141.896 44.4044 142.703 43.9091C143.524 43.4137 144.437 43.1661 145.441 43.1661ZM149.326 49.2372C149.326 48.5154 149.185 47.8998 148.901 47.3904C148.618 46.8668 148.236 46.4705 147.755 46.2016C147.274 45.9186 146.757 45.7771 146.206 45.7771C145.654 45.7771 145.144 45.9115 144.677 46.1804C144.21 46.4493 143.828 46.8455 143.531 47.3691C143.248 47.8786 143.106 48.4871 143.106 49.1947C143.106 49.9023 143.248 50.525 143.531 51.0627C143.828 51.5863 144.21 51.9897 144.677 52.2727C145.158 52.5557 145.668 52.6972 146.206 52.6972C146.757 52.6972 147.274 52.5628 147.755 52.2939C148.236 52.0109 148.618 51.6146 148.901 51.1052C149.185 50.5816 149.326 49.9589 149.326 49.2372ZM165.672 45.7983H163.612V55.1172H160.598V45.7983H159.261V43.3571H160.598V42.7628C160.598 41.3193 161.009 40.2579 161.829 39.5786C162.65 38.8994 163.888 38.5809 165.544 38.6234V41.1282C164.822 41.1141 164.32 41.2344 164.037 41.4891C163.754 41.7438 163.612 42.2038 163.612 42.8689V43.3571H165.672V45.7983ZM172.819 55.3082C171.687 55.3082 170.668 55.0606 169.763 54.5653C168.857 54.0558 168.142 53.3412 167.619 52.4213C167.109 51.5014 166.855 50.4401 166.855 49.2372C166.855 48.0343 167.116 46.9729 167.64 46.053C168.178 45.1332 168.906 44.4256 169.826 43.9303C170.746 43.4208 171.772 43.1661 172.904 43.1661C174.036 43.1661 175.062 43.4208 175.982 43.9303C176.902 44.4256 177.624 45.1332 178.148 46.053C178.685 46.9729 178.954 48.0343 178.954 49.2372C178.954 50.4401 178.678 51.5014 178.126 52.4213C177.589 53.3412 176.853 54.0558 175.919 54.5653C174.999 55.0606 173.966 55.3082 172.819 55.3082ZM172.819 52.7185C173.357 52.7185 173.86 52.5911 174.327 52.3364C174.808 52.0675 175.19 51.6713 175.473 51.1476C175.756 50.624 175.897 49.9872 175.897 49.2372C175.897 48.1192 175.6 47.263 175.006 46.6686C174.426 46.0601 173.711 45.7558 172.862 45.7558C172.013 45.7558 171.298 46.0601 170.718 46.6686C170.152 47.263 169.869 48.1192 169.869 49.2372C169.869 50.3551 170.145 51.2184 170.697 51.8269C171.263 52.4213 171.97 52.7185 172.819 52.7185ZM184.106 45.1827C184.488 44.56 184.983 44.0718 185.592 43.718C186.215 43.3642 186.922 43.1873 187.715 43.1873V46.3078H186.929C185.995 46.3078 185.288 46.5271 184.807 46.9658C184.34 47.4045 184.106 48.1687 184.106 49.2584V55.1172H181.134V43.3571H184.106V45.1827ZM198.235 45.7983V51.4873C198.235 51.8835 198.327 52.1736 198.511 52.3576C198.709 52.5274 199.034 52.6123 199.487 52.6123H200.867V55.1172H198.999C196.494 55.1172 195.242 53.9001 195.242 51.4661V45.7983H193.841V43.3571H195.242V40.449H198.235V43.3571H200.867V45.7983H198.235ZM209.627 43.1873C210.519 43.1873 211.311 43.3854 212.005 43.7817C212.698 44.1638 213.236 44.7369 213.618 45.5011C214.014 46.2512 214.212 47.1569 214.212 48.2182V55.1172H211.241V48.6216C211.241 47.6876 211.007 46.9729 210.54 46.4776C210.073 45.9681 209.436 45.7134 208.63 45.7134C207.809 45.7134 207.158 45.9681 206.677 46.4776C206.21 46.9729 205.976 47.6876 205.976 48.6216V55.1172H203.004V39.4088H205.976V44.8218C206.358 44.3124 206.868 43.9161 207.505 43.6331C208.141 43.3359 208.849 43.1873 209.627 43.1873ZM227.971 48.9824C227.971 49.407 227.942 49.7891 227.886 50.1287H219.289C219.359 50.9778 219.657 51.6429 220.18 52.1241C220.704 52.6053 221.348 52.8458 222.112 52.8458C223.216 52.8458 224.001 52.3718 224.468 51.4236H227.674C227.334 52.5557 226.683 53.4897 225.721 54.2256C224.758 54.9474 223.577 55.3082 222.176 55.3082C221.043 55.3082 220.025 55.0606 219.119 54.5653C218.227 54.0558 217.527 53.3412 217.017 52.4213C216.522 51.5014 216.274 50.4401 216.274 49.2372C216.274 48.0201 216.522 46.9517 217.017 46.0318C217.513 45.1119 218.206 44.4044 219.098 43.9091C219.989 43.4137 221.015 43.1661 222.176 43.1661C223.294 43.1661 224.291 43.4067 225.169 43.8878C226.06 44.369 226.747 45.0553 227.228 45.9469C227.723 46.8243 227.971 47.8361 227.971 48.9824ZM224.893 48.1333C224.879 47.3691 224.603 46.7606 224.065 46.3078C223.527 45.8408 222.869 45.6073 222.091 45.6073C221.355 45.6073 220.732 45.8337 220.223 46.2865C219.727 46.7252 219.423 47.3408 219.31 48.1333H224.893ZM240.59 45.7983H238.531V55.1172H235.516V45.7983H234.179V43.3571H235.516V42.7628C235.516 41.3193 235.927 40.2579 236.748 39.5786C237.568 38.8994 238.807 38.5809 240.462 38.6234V41.1282C239.741 41.1141 239.238 41.2344 238.955 41.4891C238.672 41.7438 238.531 42.2038 238.531 42.8689V43.3571H240.59V45.7983ZM241.752 49.1947C241.752 48.006 241.985 46.9517 242.452 46.0318C242.933 45.1119 243.577 44.4044 244.384 43.9091C245.205 43.4137 246.117 43.1661 247.122 43.1661C248 43.1661 248.764 43.343 249.415 43.6968C250.08 44.0506 250.61 44.4963 251.007 45.0341V43.3571H254V55.1172H251.007V53.3978C250.625 53.9497 250.094 54.4096 249.415 54.7775C248.75 55.1313 247.978 55.3082 247.101 55.3082C246.11 55.3082 245.205 55.0535 244.384 54.544C243.577 54.0346 242.933 53.3199 242.452 52.4001C241.985 51.4661 241.752 50.3976 241.752 49.1947ZM251.007 49.2372C251.007 48.5154 250.865 47.8998 250.582 47.3904C250.299 46.8668 249.917 46.4705 249.436 46.2016C248.955 45.9186 248.438 45.7771 247.886 45.7771C247.334 45.7771 246.825 45.9115 246.358 46.1804C245.891 46.4493 245.509 46.8455 245.212 47.3691C244.929 47.8786 244.787 48.4871 244.787 49.1947C244.787 49.9023 244.929 50.525 245.212 51.0627C245.509 51.5863 245.891 51.9897 246.358 52.2727C246.839 52.5557 247.349 52.6972 247.886 52.6972C248.438 52.6972 248.955 52.5628 249.436 52.2939C249.917 52.0109 250.299 51.6146 250.582 51.1052C250.865 50.5816 251.007 49.9589 251.007 49.2372ZM256.138 49.2372C256.138 48.0201 256.386 46.9587 256.881 46.053C257.376 45.1332 258.063 44.4256 258.94 43.9303C259.818 43.4208 260.822 43.1661 261.955 43.1661C263.412 43.1661 264.615 43.534 265.563 44.2699C266.526 44.9917 267.169 46.0106 267.495 47.3267H264.29C264.12 46.8172 263.83 46.421 263.419 46.1379C263.023 45.8408 262.528 45.6922 261.933 45.6922C261.084 45.6922 260.412 46.0035 259.917 46.6262C259.421 47.2347 259.174 48.105 259.174 49.2372C259.174 50.3551 259.421 51.2255 259.917 51.8481C260.412 52.4567 261.084 52.7609 261.933 52.7609C263.136 52.7609 263.922 52.2232 264.29 51.1476H267.495C267.169 52.4213 266.526 53.4331 265.563 54.1832C264.601 54.9332 263.398 55.3082 261.955 55.3082C260.822 55.3082 259.818 55.0606 258.94 54.5653C258.063 54.0558 257.376 53.3482 256.881 52.4425C256.386 51.5227 256.138 50.4542 256.138 49.2372ZM273.132 45.7983V51.4873C273.132 51.8835 273.224 52.1736 273.408 52.3576C273.606 52.5274 273.932 52.6123 274.385 52.6123H275.764V55.1172H273.896C271.391 55.1172 270.139 53.9001 270.139 51.4661V45.7983H268.738V43.3571H270.139V40.449H273.132V43.3571H275.764V45.7983H273.132ZM282.402 55.3082C281.44 55.3082 280.577 55.1384 279.812 54.7988C279.048 54.445 278.44 53.9709 277.987 53.3765C277.548 52.7822 277.307 52.1241 277.265 51.4024H280.258C280.315 51.8552 280.534 52.2302 280.916 52.5274C281.312 52.8246 281.801 52.9732 282.381 52.9732C282.947 52.9732 283.386 52.86 283.697 52.6336C284.022 52.4071 284.185 52.117 284.185 51.7632C284.185 51.3811 283.987 51.0981 283.591 50.9141C283.209 50.716 282.593 50.5037 281.744 50.2773C280.867 50.065 280.145 49.8457 279.579 49.6193C279.027 49.3928 278.546 49.0461 278.135 48.5791C277.739 48.1121 277.541 47.4824 277.541 46.6899C277.541 46.0389 277.725 45.4445 278.093 44.9067C278.475 44.369 279.013 43.9444 279.706 43.6331C280.414 43.3218 281.242 43.1661 282.19 43.1661C283.591 43.1661 284.709 43.5199 285.544 44.2275C286.379 44.9209 286.839 45.862 286.924 47.0507H284.079C284.037 46.5837 283.838 46.2158 283.485 45.9469C283.145 45.6639 282.685 45.5223 282.105 45.5223C281.567 45.5223 281.15 45.6214 280.852 45.8195C280.569 46.0177 280.428 46.2936 280.428 46.6474C280.428 47.0436 280.626 47.3479 281.022 47.5602C281.419 47.7583 282.034 47.9635 282.869 48.1758C283.718 48.3881 284.419 48.6074 284.971 48.8338C285.523 49.0603 285.997 49.4141 286.393 49.8952C286.803 50.3622 287.016 50.9849 287.03 51.7632C287.03 52.4425 286.839 53.051 286.457 53.5888C286.089 54.1266 285.551 54.5511 284.843 54.8625C284.15 55.1596 283.336 55.3082 282.402 55.3082Z" fill="#4700B2"/>
<path d="M53.2735 100.935C53.2735 99.4919 53.599 98.197 54.25 97.0507C54.901 95.8903 55.7855 94.9846 56.9035 94.3336C58.0356 93.6826 59.288 93.3571 60.6607 93.3571C62.274 93.3571 63.6821 93.7463 64.885 94.5246C66.0879 95.303 66.9653 96.4068 67.5172 97.8361H65.2034C64.793 96.9446 64.1987 96.2582 63.4203 95.7771C62.6561 95.2959 61.7363 95.0553 60.6607 95.0553C59.6277 95.0553 58.7007 95.2959 57.8799 95.7771C57.0591 96.2582 56.4152 96.9446 55.9482 97.8361C55.4812 98.7135 55.2477 99.7466 55.2477 100.935C55.2477 102.11 55.4812 103.143 55.9482 104.035C56.4152 104.912 57.0591 105.591 57.8799 106.072C58.7007 106.554 59.6277 106.794 60.6607 106.794C61.7363 106.794 62.6561 106.561 63.4203 106.094C64.1987 105.612 64.793 104.926 65.2034 104.035H67.5172C66.9653 105.45 66.0879 106.546 64.885 107.325C63.6821 108.089 62.274 108.471 60.6607 108.471C59.288 108.471 58.0356 108.153 56.9035 107.516C55.7855 106.865 54.901 105.966 54.25 104.82C53.599 103.674 53.2735 102.379 53.2735 100.935ZM69.671 102.485C69.671 101.296 69.9116 100.256 70.3927 99.3645C70.8739 98.4588 71.5319 97.7583 72.3669 97.263C73.216 96.7677 74.1571 96.52 75.1901 96.52C76.2091 96.52 77.0935 96.7394 77.8436 97.1781C78.5936 97.6168 79.1526 98.1687 79.5206 98.8338V96.7111H81.4735V108.344H79.5206V106.179C79.1385 106.858 78.5653 107.424 77.8011 107.877C77.0511 108.315 76.1737 108.535 75.1689 108.535C74.1358 108.535 73.2018 108.28 72.3669 107.771C71.5319 107.261 70.8739 106.546 70.3927 105.627C69.9116 104.707 69.671 103.66 69.671 102.485ZM79.5206 102.506C79.5206 101.629 79.3437 100.865 78.9899 100.214C78.6361 99.5626 78.1549 99.0673 77.5464 98.7277C76.952 98.3739 76.294 98.197 75.5722 98.197C74.8505 98.197 74.1924 98.3668 73.5981 98.7065C73.0037 99.0461 72.5296 99.5414 72.1758 100.192C71.822 100.843 71.6451 101.608 71.6451 102.485C71.6451 103.377 71.822 104.155 72.1758 104.82C72.5296 105.471 73.0037 105.973 73.5981 106.327C74.1924 106.667 74.8505 106.837 75.5722 106.837C76.294 106.837 76.952 106.667 77.5464 106.327C78.1549 105.973 78.6361 105.471 78.9899 104.82C79.3437 104.155 79.5206 103.384 79.5206 102.506ZM90.4056 96.4988C91.8208 96.4988 92.9671 96.9304 93.8445 97.7937C94.7219 98.6428 95.1606 99.874 95.1606 101.487V108.344H93.2501V101.763C93.2501 100.603 92.96 99.7183 92.3798 99.1098C91.7996 98.4871 91.0071 98.1758 90.0023 98.1758C88.9834 98.1758 88.1697 98.4942 87.5612 99.131C86.9668 99.7678 86.6696 100.695 86.6696 101.912V108.344H84.7379V96.7111H86.6696V98.3668C87.0517 97.7724 87.5682 97.3125 88.2192 96.987C88.8843 96.6615 89.6131 96.4988 90.4056 96.4988ZM113.995 96.7111L106.99 113.82H104.994L107.287 108.216L102.596 96.7111H104.74L108.391 106.136L111.999 96.7111H113.995ZM121.01 108.535C119.92 108.535 118.93 108.287 118.038 107.792C117.161 107.297 116.467 106.596 115.958 105.69C115.462 104.77 115.215 103.709 115.215 102.506C115.215 101.317 115.47 100.27 115.979 99.3645C116.503 98.4446 117.21 97.7441 118.102 97.263C118.993 96.7677 119.991 96.52 121.095 96.52C122.199 96.52 123.196 96.7677 124.088 97.263C124.979 97.7441 125.68 98.4376 126.189 99.3433C126.713 100.249 126.975 101.303 126.975 102.506C126.975 103.709 126.706 104.77 126.168 105.69C125.645 106.596 124.93 107.297 124.024 107.792C123.119 108.287 122.114 108.535 121.01 108.535ZM121.01 106.837C121.703 106.837 122.354 106.674 122.963 106.348C123.571 106.023 124.06 105.535 124.428 104.884C124.81 104.233 125.001 103.44 125.001 102.506C125.001 101.572 124.817 100.78 124.449 100.129C124.081 99.4777 123.6 98.9966 123.005 98.6852C122.411 98.3597 121.767 98.197 121.074 98.197C120.366 98.197 119.715 98.3597 119.121 98.6852C118.54 98.9966 118.073 99.4777 117.72 100.129C117.366 100.78 117.189 101.572 117.189 102.506C117.189 103.454 117.359 104.254 117.698 104.905C118.052 105.556 118.519 106.044 119.099 106.37C119.68 106.681 120.317 106.837 121.01 106.837ZM139.831 96.7111V108.344H137.9V106.624C137.532 107.219 137.015 107.686 136.35 108.025C135.699 108.351 134.977 108.514 134.185 108.514C133.279 108.514 132.465 108.33 131.744 107.962C131.022 107.58 130.449 107.013 130.024 106.263C129.614 105.513 129.409 104.601 129.409 103.525V96.7111H131.319V103.27C131.319 104.417 131.609 105.301 132.189 105.924C132.77 106.532 133.562 106.837 134.567 106.837C135.6 106.837 136.414 106.518 137.008 105.881C137.602 105.245 137.9 104.318 137.9 103.101V96.7111H139.831ZM153.55 96.52C154.554 96.52 155.432 96.7394 156.182 97.1781C156.946 97.6168 157.512 98.1687 157.88 98.8338V96.7111H159.833V108.598C159.833 109.66 159.607 110.601 159.154 111.422C158.701 112.257 158.05 112.908 157.201 113.375C156.366 113.842 155.389 114.075 154.271 114.075C152.743 114.075 151.469 113.714 150.45 112.993C149.431 112.271 148.83 111.287 148.646 110.042H150.557C150.769 110.75 151.207 111.316 151.873 111.74C152.538 112.179 153.337 112.398 154.271 112.398C155.333 112.398 156.196 112.066 156.861 111.401C157.54 110.735 157.88 109.801 157.88 108.598V106.157C157.498 106.837 156.932 107.403 156.182 107.856C155.432 108.308 154.554 108.535 153.55 108.535C152.517 108.535 151.575 108.28 150.726 107.771C149.891 107.261 149.233 106.546 148.752 105.627C148.271 104.707 148.03 103.66 148.03 102.485C148.03 101.296 148.271 100.256 148.752 99.3645C149.233 98.4588 149.891 97.7583 150.726 97.263C151.575 96.7677 152.517 96.52 153.55 96.52ZM157.88 102.506C157.88 101.629 157.703 100.865 157.349 100.214C156.996 99.5626 156.514 99.0673 155.906 98.7277C155.311 98.3739 154.653 98.197 153.932 98.197C153.21 98.197 152.552 98.3668 151.958 98.7065C151.363 99.0461 150.889 99.5414 150.535 100.192C150.181 100.843 150.005 101.608 150.005 102.485C150.005 103.377 150.181 104.155 150.535 104.82C150.889 105.471 151.363 105.973 151.958 106.327C152.552 106.667 153.21 106.837 153.932 106.837C154.653 106.837 155.311 106.667 155.906 106.327C156.514 105.973 156.996 105.471 157.349 104.82C157.703 104.155 157.88 103.384 157.88 102.506ZM173.414 96.7111V108.344H171.482V106.624C171.114 107.219 170.598 107.686 169.933 108.025C169.282 108.351 168.56 108.514 167.767 108.514C166.862 108.514 166.048 108.33 165.326 107.962C164.604 107.58 164.031 107.013 163.607 106.263C163.196 105.513 162.991 104.601 162.991 103.525V96.7111H164.902V103.27C164.902 104.417 165.192 105.301 165.772 105.924C166.352 106.532 167.145 106.837 168.149 106.837C169.183 106.837 169.996 106.518 170.591 105.881C171.185 105.245 171.482 104.318 171.482 103.101V96.7111H173.414ZM187.289 102.082C187.289 102.45 187.268 102.839 187.226 103.249H177.928C177.999 104.395 178.388 105.294 179.095 105.945C179.817 106.582 180.687 106.9 181.706 106.9C182.541 106.9 183.235 106.709 183.787 106.327C184.353 105.931 184.749 105.407 184.975 104.756H187.056C186.744 105.874 186.122 106.787 185.188 107.495C184.254 108.188 183.093 108.535 181.706 108.535C180.603 108.535 179.612 108.287 178.735 107.792C177.871 107.297 177.192 106.596 176.697 105.69C176.201 104.77 175.954 103.709 175.954 102.506C175.954 101.303 176.194 100.249 176.675 99.3433C177.157 98.4376 177.829 97.7441 178.692 97.263C179.57 96.7677 180.574 96.52 181.706 96.52C182.81 96.52 183.787 96.7606 184.636 97.2418C185.485 97.7229 186.136 98.388 186.589 99.2371C187.056 100.072 187.289 101.02 187.289 102.082ZM185.294 101.678C185.294 100.942 185.131 100.313 184.806 99.7891C184.48 99.2513 184.034 98.848 183.468 98.5791C182.916 98.2961 182.301 98.1545 181.622 98.1545C180.645 98.1545 179.81 98.4659 179.117 99.0885C178.437 99.7112 178.048 100.574 177.949 101.678H185.294ZM193.957 108.535C193.066 108.535 192.266 108.386 191.558 108.089C190.851 107.778 190.292 107.353 189.882 106.815C189.471 106.263 189.245 105.634 189.202 104.926H191.198C191.254 105.506 191.523 105.98 192.004 106.348C192.5 106.716 193.143 106.9 193.936 106.9C194.672 106.9 195.252 106.738 195.677 106.412C196.101 106.087 196.313 105.676 196.313 105.181C196.313 104.671 196.087 104.296 195.634 104.056C195.181 103.801 194.481 103.553 193.533 103.313C192.669 103.086 191.962 102.86 191.41 102.634C190.872 102.393 190.405 102.046 190.009 101.593C189.627 101.126 189.436 100.518 189.436 99.7678C189.436 99.1735 189.613 98.6286 189.966 98.1333C190.32 97.638 190.823 97.2488 191.474 96.9658C192.125 96.6686 192.868 96.52 193.702 96.52C194.99 96.52 196.03 96.8455 196.823 97.4965C197.615 98.1475 198.04 99.039 198.097 100.171H196.165C196.122 99.5626 195.875 99.0744 195.422 98.7065C194.983 98.3385 194.389 98.1545 193.639 98.1545C192.945 98.1545 192.393 98.3031 191.983 98.6003C191.573 98.8975 191.367 99.2867 191.367 99.7678C191.367 100.15 191.488 100.468 191.728 100.723C191.983 100.964 192.294 101.162 192.662 101.317C193.044 101.459 193.568 101.622 194.233 101.806C195.068 102.032 195.747 102.259 196.271 102.485C196.795 102.697 197.24 103.023 197.608 103.461C197.99 103.9 198.189 104.473 198.203 105.181C198.203 105.818 198.026 106.391 197.672 106.9C197.318 107.41 196.816 107.813 196.165 108.11C195.528 108.393 194.792 108.535 193.957 108.535ZM205.048 108.535C204.156 108.535 203.357 108.386 202.649 108.089C201.941 107.778 201.382 107.353 200.972 106.815C200.562 106.263 200.335 105.634 200.293 104.926H202.288C202.345 105.506 202.614 105.98 203.095 106.348C203.59 106.716 204.234 106.9 205.027 106.9C205.762 106.9 206.343 106.738 206.767 106.412C207.192 106.087 207.404 105.676 207.404 105.181C207.404 104.671 207.178 104.296 206.725 104.056C206.272 103.801 205.571 103.553 204.623 103.313C203.76 103.086 203.052 102.86 202.5 102.634C201.963 102.393 201.496 102.046 201.099 101.593C200.717 101.126 200.526 100.518 200.526 99.7678C200.526 99.1735 200.703 98.6286 201.057 98.1333C201.411 97.638 201.913 97.2488 202.564 96.9658C203.215 96.6686 203.958 96.52 204.793 96.52C206.081 96.52 207.121 96.8455 207.913 97.4965C208.706 98.1475 209.131 99.039 209.187 100.171H207.255C207.213 99.5626 206.965 99.0744 206.512 98.7065C206.074 98.3385 205.479 98.1545 204.729 98.1545C204.036 98.1545 203.484 98.3031 203.074 98.6003C202.663 98.8975 202.458 99.2867 202.458 99.7678C202.458 100.15 202.578 100.468 202.819 100.723C203.074 100.964 203.385 101.162 203.753 101.317C204.135 101.459 204.659 101.622 205.324 101.806C206.159 102.032 206.838 102.259 207.362 102.485C207.885 102.697 208.331 103.023 208.699 103.461C209.081 103.9 209.279 104.473 209.293 105.181C209.293 105.818 209.116 106.391 208.763 106.9C208.409 107.41 207.906 107.813 207.255 108.11C206.619 108.393 205.883 108.535 205.048 108.535ZM220.036 98.3031V105.16C220.036 105.726 220.156 106.129 220.397 106.37C220.637 106.596 221.055 106.709 221.649 106.709H223.071V108.344H221.331C220.255 108.344 219.448 108.096 218.911 107.601C218.373 107.105 218.104 106.292 218.104 105.16V98.3031H216.597V96.7111H218.104V93.7817H220.036V96.7111H223.071V98.3031H220.036ZM231.186 96.4988C232.063 96.4988 232.856 96.6898 233.563 97.0719C234.271 97.4399 234.823 97.9989 235.219 98.7489C235.629 99.4989 235.834 100.412 235.834 101.487V108.344H233.924V101.763C233.924 100.603 233.634 99.7183 233.054 99.1098C232.473 98.4871 231.681 98.1758 230.676 98.1758C229.657 98.1758 228.844 98.4942 228.235 99.131C227.641 99.7678 227.343 100.695 227.343 101.912V108.344H225.412V92.6354H227.343V98.3668C227.726 97.7724 228.249 97.3125 228.914 96.987C229.594 96.6615 230.351 96.4988 231.186 96.4988ZM249.604 102.082C249.604 102.45 249.582 102.839 249.54 103.249H240.242C240.313 104.395 240.702 105.294 241.41 105.945C242.132 106.582 243.002 106.9 244.021 106.9C244.856 106.9 245.549 106.709 246.101 106.327C246.667 105.931 247.063 105.407 247.29 104.756H249.37C249.059 105.874 248.436 106.787 247.502 107.495C246.568 108.188 245.408 108.535 244.021 108.535C242.917 108.535 241.926 108.287 241.049 107.792C240.186 107.297 239.506 106.596 239.011 105.69C238.516 104.77 238.268 103.709 238.268 102.506C238.268 101.303 238.509 100.249 238.99 99.3433C239.471 98.4376 240.143 97.7441 241.007 97.263C241.884 96.7677 242.889 96.52 244.021 96.52C245.125 96.52 246.101 96.7606 246.95 97.2418C247.799 97.7229 248.45 98.388 248.903 99.2371C249.37 100.072 249.604 101.02 249.604 102.082ZM247.608 101.678C247.608 100.942 247.446 100.313 247.12 99.7891C246.795 99.2513 246.349 98.848 245.783 98.5791C245.231 98.2961 244.615 98.1545 243.936 98.1545C242.959 98.1545 242.124 98.4659 241.431 99.0885C240.752 99.7112 240.363 100.574 240.264 101.678H247.608ZM338.85 102.485C338.85 101.296 339.091 100.256 339.572 99.3645C340.053 98.4588 340.711 97.7583 341.546 97.263C342.395 96.7677 343.336 96.52 344.369 96.52C345.388 96.52 346.273 96.7394 347.023 97.1781C347.773 97.6168 348.332 98.1687 348.7 98.8338V96.7111H350.653V108.344H348.7V106.179C348.318 106.858 347.744 107.424 346.98 107.877C346.23 108.315 345.353 108.535 344.348 108.535C343.315 108.535 342.381 108.28 341.546 107.771C340.711 107.261 340.053 106.546 339.572 105.627C339.091 104.707 338.85 103.66 338.85 102.485ZM348.7 102.506C348.7 101.629 348.523 100.865 348.169 100.214C347.815 99.5626 347.334 99.0673 346.726 98.7277C346.131 98.3739 345.473 98.197 344.751 98.197C344.03 98.197 343.372 98.3668 342.777 98.7065C342.183 99.0461 341.709 99.5414 341.355 100.192C341.001 100.843 340.824 101.608 340.824 102.485C340.824 103.377 341.001 104.155 341.355 104.82C341.709 105.471 342.183 105.973 342.777 106.327C343.372 106.667 344.03 106.837 344.751 106.837C345.473 106.837 346.131 106.667 346.726 106.327C347.334 105.973 347.815 105.471 348.169 104.82C348.523 104.155 348.7 103.384 348.7 102.506ZM359.585 96.4988C361 96.4988 362.146 96.9304 363.024 97.7937C363.901 98.6428 364.34 99.874 364.34 101.487V108.344H362.429V101.763C362.429 100.603 362.139 99.7183 361.559 99.1098C360.979 98.4871 360.186 98.1758 359.182 98.1758C358.163 98.1758 357.349 98.4942 356.74 99.131C356.146 99.7678 355.849 100.695 355.849 101.912V108.344H353.917V96.7111H355.849V98.3668C356.231 97.7724 356.747 97.3125 357.398 96.987C358.064 96.6615 358.792 96.4988 359.585 96.4988ZM371.613 108.535C370.722 108.535 369.922 108.386 369.215 108.089C368.507 107.778 367.948 107.353 367.538 106.815C367.127 106.263 366.901 105.634 366.858 104.926H368.854C368.91 105.506 369.179 105.98 369.66 106.348C370.156 106.716 370.8 106.9 371.592 106.9C372.328 106.9 372.908 106.738 373.333 106.412C373.757 106.087 373.97 105.676 373.97 105.181C373.97 104.671 373.743 104.296 373.29 104.056C372.838 103.801 372.137 103.553 371.189 103.313C370.326 103.086 369.618 102.86 369.066 102.634C368.528 102.393 368.061 102.046 367.665 101.593C367.283 101.126 367.092 100.518 367.092 99.7678C367.092 99.1735 367.269 98.6286 367.623 98.1333C367.976 97.638 368.479 97.2488 369.13 96.9658C369.781 96.6686 370.524 96.52 371.359 96.52C372.646 96.52 373.687 96.8455 374.479 97.4965C375.272 98.1475 375.696 99.039 375.753 100.171H373.821C373.779 99.5626 373.531 99.0744 373.078 98.7065C372.639 98.3385 372.045 98.1545 371.295 98.1545C370.602 98.1545 370.05 98.3031 369.639 98.6003C369.229 98.8975 369.024 99.2867 369.024 99.7678C369.024 100.15 369.144 100.468 369.384 100.723C369.639 100.964 369.951 101.162 370.318 101.317C370.701 101.459 371.224 101.622 371.889 101.806C372.724 102.032 373.404 102.259 373.927 102.485C374.451 102.697 374.897 103.023 375.265 103.461C375.647 103.9 375.845 104.473 375.859 105.181C375.859 105.818 375.682 106.391 375.328 106.9C374.974 107.41 374.472 107.813 373.821 108.11C373.184 108.393 372.448 108.535 371.613 108.535ZM394.082 96.7111L390.452 108.344H388.457L385.655 99.1098L382.853 108.344H380.857L377.206 96.7111H379.18L381.855 106.476L384.742 96.7111H386.716L389.539 106.497L392.171 96.7111H394.082ZM406.613 102.082C406.613 102.45 406.592 102.839 406.549 103.249H397.251C397.322 104.395 397.711 105.294 398.419 105.945C399.141 106.582 400.011 106.9 401.03 106.9C401.865 106.9 402.558 106.709 403.11 106.327C403.676 105.931 404.073 105.407 404.299 104.756H406.379C406.068 105.874 405.445 106.787 404.511 107.495C403.577 108.188 402.417 108.535 401.03 108.535C399.926 108.535 398.935 108.287 398.058 107.792C397.195 107.297 396.516 106.596 396.02 105.69C395.525 104.77 395.277 103.709 395.277 102.506C395.277 101.303 395.518 100.249 395.999 99.3433C396.48 98.4376 397.152 97.7441 398.016 97.263C398.893 96.7677 399.898 96.52 401.03 96.52C402.134 96.52 403.11 96.7606 403.959 97.2418C404.808 97.7229 405.459 98.388 405.912 99.2371C406.379 100.072 406.613 101.02 406.613 102.082ZM404.617 101.678C404.617 100.942 404.455 100.313 404.129 99.7891C403.804 99.2513 403.358 98.848 402.792 98.5791C402.24 98.2961 401.624 98.1545 400.945 98.1545C399.969 98.1545 399.134 98.4659 398.44 99.0885C397.761 99.7112 397.372 100.574 397.273 101.678H404.617ZM411.094 98.6003C411.434 97.9352 411.915 97.4186 412.538 97.0507C413.175 96.6828 413.946 96.4988 414.852 96.4988V98.4942H414.342C412.177 98.4942 411.094 99.6688 411.094 102.018V108.344H409.163V96.7111H411.094V98.6003ZM420.86 93.3571C422.261 93.3571 423.393 93.7534 424.256 94.5459C425.12 95.3383 425.551 96.3997 425.551 97.73C425.551 99.2159 425.091 100.32 424.171 101.041C423.252 101.749 422.006 102.103 420.435 102.103L420.372 104.119H418.695L418.61 100.766H419.225C420.626 100.766 421.723 100.553 422.516 100.129C423.308 99.7041 423.704 98.9046 423.704 97.73C423.704 96.8809 423.45 96.2087 422.94 95.7134C422.431 95.2181 421.744 94.9704 420.881 94.9704C420.004 94.9704 419.31 95.211 418.801 95.6921C418.306 96.1591 418.058 96.803 418.058 97.6238H416.232C416.232 96.7747 416.423 96.0318 416.805 95.395C417.188 94.744 417.725 94.2416 418.419 93.8878C419.126 93.534 419.94 93.3571 420.86 93.3571ZM419.523 108.471C419.155 108.471 418.843 108.344 418.589 108.089C418.334 107.834 418.206 107.523 418.206 107.155C418.206 106.787 418.334 106.476 418.589 106.221C418.843 105.966 419.155 105.839 419.523 105.839C419.876 105.839 420.174 105.966 420.414 106.221C420.669 106.476 420.796 106.787 420.796 107.155C420.796 107.523 420.669 107.834 420.414 108.089C420.174 108.344 419.876 108.471 419.523 108.471Z" fill="#1B376F"/>
<path d="M257.091 102.506C257.091 101.303 257.332 100.256 257.813 99.3645C258.294 98.4588 258.959 97.7583 259.808 97.263C260.671 96.7677 261.655 96.52 262.759 96.52C264.188 96.52 265.363 96.8667 266.283 97.5602C267.217 98.2536 267.832 99.2159 268.129 100.447H266.049C265.851 99.7395 265.462 99.1805 264.882 98.7701C264.315 98.3597 263.608 98.1545 262.759 98.1545C261.655 98.1545 260.763 98.5366 260.084 99.3008C259.405 100.051 259.065 101.119 259.065 102.506C259.065 103.907 259.405 104.99 260.084 105.754C260.763 106.518 261.655 106.9 262.759 106.9C263.608 106.9 264.315 106.702 264.882 106.306C265.448 105.91 265.837 105.344 266.049 104.608H268.129C267.818 105.796 267.195 106.752 266.261 107.473C265.327 108.181 264.16 108.535 262.759 108.535C261.655 108.535 260.671 108.287 259.808 107.792C258.959 107.297 258.294 106.596 257.813 105.69C257.332 104.785 257.091 103.723 257.091 102.506ZM275.78 108.535C274.691 108.535 273.7 108.287 272.808 107.792C271.931 107.297 271.238 106.596 270.728 105.69C270.233 104.77 269.985 103.709 269.985 102.506C269.985 101.317 270.24 100.27 270.749 99.3645C271.273 98.4446 271.98 97.7441 272.872 97.263C273.764 96.7677 274.761 96.52 275.865 96.52C276.969 96.52 277.967 96.7677 278.858 97.263C279.75 97.7441 280.45 98.4376 280.96 99.3433C281.483 100.249 281.745 101.303 281.745 102.506C281.745 103.709 281.476 104.77 280.938 105.69C280.415 106.596 279.7 107.297 278.795 107.792C277.889 108.287 276.884 108.535 275.78 108.535ZM275.78 106.837C276.474 106.837 277.125 106.674 277.733 106.348C278.342 106.023 278.83 105.535 279.198 104.884C279.58 104.233 279.771 103.44 279.771 102.506C279.771 101.572 279.587 100.78 279.219 100.129C278.851 99.4777 278.37 98.9966 277.776 98.6852C277.181 98.3597 276.537 98.197 275.844 98.197C275.136 98.197 274.485 98.3597 273.891 98.6852C273.311 98.9966 272.844 99.4777 272.49 100.129C272.136 100.78 271.959 101.572 271.959 102.506C271.959 103.454 272.129 104.254 272.469 104.905C272.822 105.556 273.289 106.044 273.87 106.37C274.45 106.681 275.087 106.837 275.78 106.837ZM286.217 98.6003C286.556 97.9352 287.037 97.4186 287.66 97.0507C288.297 96.6828 289.068 96.4988 289.974 96.4988V98.4942H289.464C287.299 98.4942 286.217 99.6688 286.217 102.018V108.344H284.285V96.7111H286.217V98.6003ZM294.136 98.6003C294.475 97.9352 294.956 97.4186 295.579 97.0507C296.216 96.6828 296.987 96.4988 297.893 96.4988V98.4942H297.383C295.218 98.4942 294.136 99.6688 294.136 102.018V108.344H292.204V96.7111H294.136V98.6003ZM310.736 102.082C310.736 102.45 310.715 102.839 310.673 103.249H301.375C301.446 104.395 301.835 105.294 302.543 105.945C303.264 106.582 304.135 106.9 305.154 106.9C305.989 106.9 306.682 106.709 307.234 106.327C307.8 105.931 308.196 105.407 308.423 104.756H310.503C310.192 105.874 309.569 106.787 308.635 107.495C307.701 108.188 306.541 108.535 305.154 108.535C304.05 108.535 303.059 108.287 302.182 107.792C301.319 107.297 300.639 106.596 300.144 105.69C299.649 104.77 299.401 103.709 299.401 102.506C299.401 101.303 299.642 100.249 300.123 99.3433C300.604 98.4376 301.276 97.7441 302.139 97.263C303.017 96.7677 304.021 96.52 305.154 96.52C306.257 96.52 307.234 96.7606 308.083 97.2418C308.932 97.7229 309.583 98.388 310.036 99.2371C310.503 100.072 310.736 101.02 310.736 102.082ZM308.741 101.678C308.741 100.942 308.578 100.313 308.253 99.7891C307.927 99.2513 307.482 98.848 306.916 98.5791C306.364 98.2961 305.748 98.1545 305.069 98.1545C304.092 98.1545 303.257 98.4659 302.564 99.0885C301.885 99.7112 301.495 100.574 301.396 101.678H308.741ZM312.565 102.506C312.565 101.303 312.805 100.256 313.286 99.3645C313.767 98.4588 314.433 97.7583 315.282 97.263C316.145 96.7677 317.128 96.52 318.232 96.52C319.662 96.52 320.836 96.8667 321.756 97.5602C322.69 98.2536 323.306 99.2159 323.603 100.447H321.523C321.324 99.7395 320.935 99.1805 320.355 98.7701C319.789 98.3597 319.081 98.1545 318.232 98.1545C317.128 98.1545 316.237 98.5366 315.558 99.3008C314.878 100.051 314.539 101.119 314.539 102.506C314.539 103.907 314.878 104.99 315.558 105.754C316.237 106.518 317.128 106.9 318.232 106.9C319.081 106.9 319.789 106.702 320.355 106.306C320.921 105.91 321.31 105.344 321.523 104.608H323.603C323.291 105.796 322.669 106.752 321.735 107.473C320.801 108.181 319.633 108.535 318.232 108.535C317.128 108.535 316.145 108.287 315.282 107.792C314.433 107.297 313.767 106.596 313.286 105.69C312.805 104.785 312.565 103.723 312.565 102.506ZM328.537 98.3031V105.16C328.537 105.726 328.657 106.129 328.897 106.37C329.138 106.596 329.556 106.709 330.15 106.709H331.572V108.344H329.831C328.756 108.344 327.949 108.096 327.412 107.601C326.874 107.105 326.605 106.292 326.605 105.16V98.3031H325.098V96.7111H326.605V93.7817H328.537V96.7111H331.572V98.3031H328.537Z" fill="#4700B2"/>
<path d="M42.457 139.233H436.493C441.988 139.233 446.444 143.688 446.444 149.184V191.639C446.444 197.134 441.989 201.59 436.493 201.59H42.458C36.9626 201.59 32.5068 197.134 32.5068 191.639V149.184C32.5071 143.689 36.962 139.234 42.457 139.233Z" fill="#FFFBF6"/>
<path d="M42.457 139.233H436.493C441.988 139.233 446.444 143.688 446.444 149.184V191.639C446.444 197.134 441.989 201.59 436.493 201.59H42.458C36.9626 201.59 32.5068 197.134 32.5068 191.639V149.184C32.5071 143.689 36.962 139.234 42.457 139.233Z" stroke="#949494" stroke-width="1.32672"/>
<path d="M48.5617 179.914C48.4201 179.914 48.2875 179.861 48.1636 179.755C48.0575 179.631 48.0044 179.498 48.0044 179.357C48.0044 179.268 48.0133 179.189 48.031 179.118L54.2666 162.083C54.3196 161.888 54.4258 161.72 54.585 161.579C54.7619 161.42 55.0007 161.34 55.3014 161.34H59.2285C59.5292 161.34 59.7592 161.42 59.9184 161.579C60.0953 161.72 60.2103 161.888 60.2633 162.083L66.4724 179.118C66.5078 179.189 66.5255 179.268 66.5255 179.357C66.5255 179.498 66.4635 179.631 66.3397 179.755C66.2336 179.861 66.1009 179.914 65.9417 179.914H62.678C62.4126 179.914 62.2092 179.852 62.0677 179.728C61.9438 179.587 61.8642 179.463 61.8289 179.357L60.794 176.65H53.7093L52.701 179.357C52.6656 179.463 52.586 179.587 52.4622 179.728C52.3384 179.852 52.1261 179.914 51.8254 179.914H48.5617ZM54.7972 172.829H59.7326L57.2384 165.824L54.7972 172.829Z" fill="#0076AA"/>
<path d="M90.0353 176.492C89.8991 176.492 89.7939 176.455 89.7196 176.381C89.6453 176.294 89.6081 176.189 89.6081 176.065V163.936C89.6081 163.8 89.6453 163.695 89.7196 163.62C89.7939 163.534 89.8991 163.49 90.0353 163.49H94.7532C95.6695 163.49 96.462 163.639 97.1306 163.936C97.8117 164.233 98.338 164.679 98.7094 165.273C99.0809 165.855 99.2667 166.586 99.2667 167.465C99.2667 168.344 99.0809 169.075 98.7094 169.657C98.338 170.239 97.8117 170.678 97.1306 170.976C96.462 171.273 95.6695 171.421 94.7532 171.421H91.4655V176.065C91.4655 176.189 91.4222 176.294 91.3355 176.381C91.2612 176.455 91.156 176.492 91.0198 176.492H90.0353ZM91.447 169.861H94.6603C95.5766 169.861 96.2638 169.657 96.722 169.248C97.1802 168.84 97.4093 168.245 97.4093 167.465C97.4093 166.697 97.1864 166.103 96.7406 165.682C96.2948 165.261 95.6014 165.051 94.6603 165.051H91.447V169.861ZM101.711 176.492C101.587 176.492 101.482 176.455 101.395 176.381C101.321 176.294 101.284 176.189 101.284 176.065V167.261C101.284 167.137 101.321 167.038 101.395 166.964C101.482 166.877 101.587 166.834 101.711 166.834H102.603C102.726 166.834 102.825 166.877 102.9 166.964C102.974 167.038 103.011 167.137 103.011 167.261V176.065C103.011 176.189 102.974 176.294 102.9 176.381C102.825 176.455 102.726 176.492 102.603 176.492H101.711ZM101.562 165.032C101.439 165.032 101.333 164.995 101.247 164.921C101.172 164.834 101.135 164.729 101.135 164.605V163.602C101.135 163.478 101.172 163.379 101.247 163.305C101.333 163.218 101.439 163.175 101.562 163.175H102.733C102.856 163.175 102.956 163.218 103.03 163.305C103.116 163.379 103.16 163.478 103.16 163.602V164.605C103.16 164.729 103.116 164.834 103.03 164.921C102.956 164.995 102.856 165.032 102.733 165.032H101.562ZM106.209 176.492C106.086 176.492 105.98 176.455 105.894 176.381C105.819 176.294 105.782 176.189 105.782 176.065V167.261C105.782 167.137 105.819 167.038 105.894 166.964C105.98 166.877 106.086 166.834 106.209 166.834H107.082C107.206 166.834 107.305 166.877 107.38 166.964C107.466 167.038 107.51 167.137 107.51 167.261V168.078C107.832 167.657 108.234 167.317 108.717 167.057C109.212 166.784 109.844 166.648 110.612 166.648C111.416 166.648 112.097 166.827 112.655 167.187C113.224 167.533 113.651 168.022 113.936 168.654C114.221 169.273 114.363 169.997 114.363 170.827V176.065C114.363 176.189 114.326 176.294 114.252 176.381C114.178 176.455 114.079 176.492 113.955 176.492H113.026C112.902 176.492 112.797 176.455 112.71 176.381C112.636 176.294 112.599 176.189 112.599 176.065V170.92C112.599 170.053 112.388 169.378 111.967 168.895C111.546 168.4 110.927 168.152 110.11 168.152C109.342 168.152 108.723 168.4 108.253 168.895C107.794 169.378 107.565 170.053 107.565 170.92V176.065C107.565 176.189 107.522 176.294 107.435 176.381C107.361 176.455 107.262 176.492 107.138 176.492H106.209ZM120.891 176.678C119.616 176.678 118.6 176.288 117.845 175.508C117.09 174.715 116.675 173.638 116.601 172.276C116.588 172.115 116.582 171.911 116.582 171.663C116.582 171.403 116.588 171.192 116.601 171.031C116.65 170.152 116.854 169.385 117.214 168.728C117.573 168.06 118.062 167.546 118.681 167.187C119.312 166.827 120.049 166.648 120.891 166.648C121.832 166.648 122.619 166.846 123.25 167.242C123.894 167.639 124.383 168.202 124.718 168.933C125.052 169.663 125.219 170.518 125.219 171.496V171.812C125.219 171.948 125.176 172.053 125.089 172.127C125.015 172.202 124.916 172.239 124.792 172.239H118.365C118.365 172.251 118.365 172.276 118.365 172.313C118.365 172.35 118.365 172.381 118.365 172.406C118.39 172.914 118.501 173.39 118.7 173.836C118.898 174.269 119.182 174.622 119.554 174.895C119.925 175.167 120.371 175.303 120.891 175.303C121.337 175.303 121.709 175.235 122.006 175.099C122.303 174.963 122.544 174.814 122.73 174.653C122.916 174.48 123.04 174.35 123.102 174.263C123.213 174.102 123.3 174.009 123.362 173.985C123.424 173.948 123.523 173.929 123.659 173.929H124.55C124.674 173.929 124.773 173.966 124.848 174.04C124.934 174.102 124.971 174.195 124.959 174.319C124.947 174.505 124.848 174.734 124.662 175.006C124.476 175.266 124.21 175.526 123.863 175.786C123.516 176.046 123.095 176.263 122.6 176.436C122.105 176.597 121.535 176.678 120.891 176.678ZM118.365 170.957H123.454V170.901C123.454 170.344 123.349 169.849 123.139 169.415C122.941 168.982 122.65 168.642 122.266 168.394C121.882 168.134 121.424 168.004 120.891 168.004C120.359 168.004 119.901 168.134 119.517 168.394C119.145 168.642 118.86 168.982 118.662 169.415C118.464 169.849 118.365 170.344 118.365 170.901V170.957ZM136.915 176.678C135.776 176.678 134.828 176.467 134.073 176.046C133.33 175.625 132.767 175.037 132.383 174.282C131.999 173.527 131.788 172.647 131.751 171.644C131.739 171.137 131.733 170.592 131.733 170.01C131.733 169.428 131.739 168.871 131.751 168.338C131.788 167.335 131.999 166.456 132.383 165.701C132.767 164.945 133.33 164.357 134.073 163.936C134.828 163.515 135.776 163.305 136.915 163.305C137.769 163.305 138.518 163.422 139.162 163.657C139.806 163.893 140.339 164.209 140.76 164.605C141.193 165.001 141.521 165.447 141.744 165.942C141.967 166.425 142.091 166.927 142.116 167.447C142.128 167.558 142.091 167.651 142.004 167.725C141.93 167.8 141.837 167.837 141.726 167.837H140.704C140.593 167.837 140.494 167.806 140.407 167.744C140.333 167.682 140.277 167.57 140.24 167.409C140.029 166.444 139.633 165.781 139.051 165.422C138.481 165.063 137.763 164.883 136.896 164.883C135.906 164.883 135.119 165.168 134.537 165.738C133.955 166.295 133.64 167.193 133.59 168.431C133.553 169.446 133.553 170.487 133.59 171.551C133.64 172.79 133.955 173.694 134.537 174.263C135.119 174.821 135.906 175.099 136.896 175.099C137.763 175.099 138.481 174.92 139.051 174.56C139.633 174.201 140.029 173.539 140.24 172.573C140.277 172.412 140.333 172.301 140.407 172.239C140.494 172.177 140.593 172.146 140.704 172.146H141.726C141.837 172.146 141.93 172.183 142.004 172.257C142.091 172.332 142.128 172.424 142.116 172.536C142.091 173.056 141.967 173.564 141.744 174.059C141.521 174.542 141.193 174.981 140.76 175.378C140.339 175.774 139.806 176.09 139.162 176.325C138.518 176.56 137.769 176.678 136.915 176.678ZM148.32 176.678C147.379 176.678 146.592 176.498 145.961 176.139C145.329 175.78 144.846 175.285 144.512 174.653C144.178 174.009 143.992 173.279 143.955 172.462C143.942 172.251 143.936 171.985 143.936 171.663C143.936 171.329 143.942 171.062 143.955 170.864C143.992 170.035 144.178 169.304 144.512 168.672C144.859 168.041 145.348 167.546 145.979 167.187C146.611 166.827 147.391 166.648 148.32 166.648C149.248 166.648 150.028 166.827 150.66 167.187C151.292 167.546 151.774 168.041 152.109 168.672C152.456 169.304 152.647 170.035 152.685 170.864C152.697 171.062 152.703 171.329 152.703 171.663C152.703 171.985 152.697 172.251 152.685 172.462C152.647 173.279 152.462 174.009 152.127 174.653C151.793 175.285 151.31 175.78 150.679 176.139C150.047 176.498 149.261 176.678 148.32 176.678ZM148.32 175.248C149.087 175.248 149.7 175.006 150.159 174.523C150.617 174.028 150.864 173.31 150.901 172.369C150.914 172.183 150.92 171.948 150.92 171.663C150.92 171.378 150.914 171.143 150.901 170.957C150.864 170.016 150.617 169.304 150.159 168.821C149.7 168.326 149.087 168.078 148.32 168.078C147.552 168.078 146.933 168.326 146.462 168.821C146.004 169.304 145.763 170.016 145.738 170.957C145.725 171.143 145.719 171.378 145.719 171.663C145.719 171.948 145.725 172.183 145.738 172.369C145.763 173.31 146.004 174.028 146.462 174.523C146.933 175.006 147.552 175.248 148.32 175.248ZM155.456 176.492C155.332 176.492 155.227 176.455 155.14 176.381C155.066 176.294 155.029 176.189 155.029 176.065V167.261C155.029 167.137 155.066 167.038 155.14 166.964C155.227 166.877 155.332 166.834 155.456 166.834H156.329C156.453 166.834 156.552 166.877 156.626 166.964C156.713 167.038 156.756 167.137 156.756 167.261V168.078C157.078 167.657 157.481 167.317 157.964 167.057C158.459 166.784 159.091 166.648 159.858 166.648C160.663 166.648 161.344 166.827 161.901 167.187C162.471 167.533 162.898 168.022 163.183 168.654C163.468 169.273 163.61 169.997 163.61 170.827V176.065C163.61 176.189 163.573 176.294 163.499 176.381C163.424 176.455 163.325 176.492 163.202 176.492H162.273C162.149 176.492 162.044 176.455 161.957 176.381C161.883 176.294 161.846 176.189 161.846 176.065V170.92C161.846 170.053 161.635 169.378 161.214 168.895C160.793 168.4 160.174 168.152 159.357 168.152C158.589 168.152 157.97 168.4 157.499 168.895C157.041 169.378 156.812 170.053 156.812 170.92V176.065C156.812 176.189 156.769 176.294 156.682 176.381C156.608 176.455 156.509 176.492 156.385 176.492H155.456ZM170.138 176.678C168.863 176.678 167.847 176.288 167.092 175.508C166.336 174.715 165.922 173.638 165.847 172.276C165.835 172.115 165.829 171.911 165.829 171.663C165.829 171.403 165.835 171.192 165.847 171.031C165.897 170.152 166.101 169.385 166.46 168.728C166.819 168.06 167.309 167.546 167.928 167.187C168.559 166.827 169.296 166.648 170.138 166.648C171.079 166.648 171.865 166.846 172.497 167.242C173.141 167.639 173.63 168.202 173.964 168.933C174.299 169.663 174.466 170.518 174.466 171.496V171.812C174.466 171.948 174.422 172.053 174.336 172.127C174.261 172.202 174.162 172.239 174.039 172.239H167.612C167.612 172.251 167.612 172.276 167.612 172.313C167.612 172.35 167.612 172.381 167.612 172.406C167.637 172.914 167.748 173.39 167.946 173.836C168.144 174.269 168.429 174.622 168.801 174.895C169.172 175.167 169.618 175.303 170.138 175.303C170.584 175.303 170.955 175.235 171.252 175.099C171.55 174.963 171.791 174.814 171.977 174.653C172.163 174.48 172.286 174.35 172.348 174.263C172.46 174.102 172.546 174.009 172.608 173.985C172.67 173.948 172.769 173.929 172.906 173.929H173.797C173.921 173.929 174.02 173.966 174.094 174.04C174.181 174.102 174.218 174.195 174.206 174.319C174.193 174.505 174.094 174.734 173.909 175.006C173.723 175.266 173.457 175.526 173.11 175.786C172.763 176.046 172.342 176.263 171.847 176.436C171.351 176.597 170.782 176.678 170.138 176.678ZM167.612 170.957H172.701V170.901C172.701 170.344 172.596 169.849 172.385 169.415C172.187 168.982 171.896 168.642 171.512 168.394C171.129 168.134 170.67 168.004 170.138 168.004C169.606 168.004 169.147 168.134 168.764 168.394C168.392 168.642 168.107 168.982 167.909 169.415C167.711 169.849 167.612 170.344 167.612 170.901V170.957Z" fill="#384466"/>
<path d="M42.457 201.249H436.493C441.988 201.249 446.444 205.704 446.444 211.199V253.654C446.444 259.15 441.989 263.605 436.493 263.605H42.458C36.9626 263.605 32.5068 259.15 32.5068 253.654V211.199C32.5071 205.704 36.962 201.249 42.457 201.249Z" fill="#FFFBF6"/>
<path d="M42.457 201.249H436.493C441.988 201.249 446.444 205.704 446.444 211.199V253.654C446.444 259.15 441.989 263.605 436.493 263.605H42.458C36.9626 263.605 32.5068 259.15 32.5068 253.654V211.199C32.5071 205.704 36.962 201.249 42.457 201.249Z" stroke="#949494" stroke-width="1.32672"/>
<path d="M50.2864 241.93C50.0918 241.93 49.9326 241.868 49.8088 241.744C49.6849 241.62 49.623 241.461 49.623 241.266V224.019C49.623 223.824 49.6849 223.665 49.8088 223.541C49.9326 223.418 50.0918 223.356 50.2864 223.356H58.3794C59.9007 223.356 61.1478 223.568 62.1207 223.992C63.0937 224.417 63.8101 225.027 64.27 225.823C64.7477 226.602 64.9865 227.53 64.9865 228.609C64.9865 229.246 64.8626 229.812 64.615 230.308C64.385 230.785 64.0931 231.183 63.7393 231.502C63.4032 231.82 63.0848 232.05 62.7841 232.192C63.4563 232.51 64.0489 233.032 64.5619 233.757C65.0926 234.482 65.3579 235.331 65.3579 236.304C65.3579 237.472 65.0926 238.48 64.5619 239.329C64.0489 240.161 63.2883 240.806 62.28 241.266C61.2893 241.709 60.0687 241.93 58.6182 241.93H50.2864ZM54.3727 238.48H58.0875C58.8482 238.48 59.4231 238.259 59.8123 237.817C60.2014 237.375 60.396 236.87 60.396 236.304C60.396 235.685 60.1926 235.163 59.7857 234.739C59.3965 234.314 58.8305 234.102 58.0875 234.102H54.3727V238.48ZM54.3727 230.732H57.8487C58.574 230.732 59.1135 230.546 59.4673 230.175C59.8388 229.803 60.0245 229.326 60.0245 228.742C60.0245 228.176 59.8388 227.716 59.4673 227.362C59.1135 226.991 58.574 226.805 57.8487 226.805H54.3727V230.732Z" fill="#0076AA"/>
<path d="M88.7352 238.508C88.6361 238.508 88.5494 238.471 88.4751 238.396C88.4008 238.322 88.3637 238.235 88.3637 238.136C88.3637 238.074 88.3699 238.006 88.3822 237.932L92.9886 225.915C93.0381 225.791 93.1063 225.692 93.1929 225.617C93.2796 225.543 93.4096 225.506 93.583 225.506H94.846C95.007 225.506 95.1308 225.543 95.2175 225.617C95.3166 225.692 95.3909 225.791 95.4404 225.915L100.028 237.932C100.053 238.006 100.065 238.074 100.065 238.136C100.065 238.235 100.028 238.322 99.9539 238.396C99.8796 238.471 99.7929 238.508 99.6939 238.508H98.7466C98.598 238.508 98.4865 238.471 98.4123 238.396C98.3503 238.322 98.307 238.254 98.2822 238.192L97.2607 235.555H91.1684L90.1468 238.192C90.1344 238.254 90.0911 238.322 90.0168 238.396C89.9425 238.471 89.831 238.508 89.6824 238.508H88.7352ZM91.707 233.957H96.722L94.2145 227.363L91.707 233.957ZM102.256 238.508C102.132 238.508 102.027 238.471 101.94 238.396C101.866 238.31 101.828 238.204 101.828 238.081V225.747C101.828 225.624 101.866 225.525 101.94 225.45C102.027 225.364 102.132 225.32 102.256 225.32H103.129C103.265 225.32 103.37 225.364 103.444 225.45C103.519 225.525 103.556 225.624 103.556 225.747V238.081C103.556 238.204 103.519 238.31 103.444 238.396C103.37 238.471 103.265 238.508 103.129 238.508H102.256ZM106.754 238.508C106.63 238.508 106.525 238.471 106.438 238.396C106.364 238.31 106.326 238.204 106.326 238.081V229.276C106.326 229.153 106.364 229.054 106.438 228.979C106.525 228.893 106.63 228.849 106.754 228.849H107.589C107.713 228.849 107.812 228.893 107.887 228.979C107.973 229.054 108.017 229.153 108.017 229.276V229.927C108.301 229.543 108.661 229.239 109.094 229.016C109.527 228.781 110.047 228.664 110.654 228.664C112.053 228.651 113.044 229.221 113.626 230.372C113.911 229.852 114.326 229.437 114.87 229.128C115.415 228.818 116.034 228.664 116.728 228.664C117.372 228.664 117.954 228.812 118.474 229.109C119.006 229.407 119.421 229.858 119.718 230.465C120.028 231.06 120.183 231.809 120.183 232.713V238.081C120.183 238.204 120.139 238.31 120.053 238.396C119.978 238.471 119.879 238.508 119.755 238.508H118.882C118.759 238.508 118.653 238.471 118.567 238.396C118.492 238.31 118.455 238.204 118.455 238.081V232.88C118.455 232.186 118.356 231.642 118.158 231.245C117.96 230.849 117.694 230.57 117.359 230.41C117.025 230.249 116.66 230.168 116.264 230.168C115.942 230.168 115.613 230.249 115.279 230.41C114.945 230.57 114.666 230.849 114.443 231.245C114.233 231.642 114.128 232.186 114.128 232.88V238.081C114.128 238.204 114.084 238.31 113.998 238.396C113.923 238.471 113.824 238.508 113.7 238.508H112.827C112.704 238.508 112.598 238.471 112.512 238.396C112.437 238.31 112.4 238.204 112.4 238.081V232.88C112.4 232.186 112.295 231.642 112.084 231.245C111.874 230.849 111.601 230.57 111.267 230.41C110.933 230.249 110.58 230.168 110.208 230.168C109.886 230.168 109.558 230.249 109.224 230.41C108.89 230.57 108.611 230.849 108.388 231.245C108.178 231.642 108.072 232.18 108.072 232.861V238.081C108.072 238.204 108.029 238.31 107.942 238.396C107.868 238.471 107.769 238.508 107.645 238.508H106.754ZM126.789 238.694C125.848 238.694 125.062 238.514 124.43 238.155C123.799 237.796 123.316 237.3 122.981 236.669C122.647 236.025 122.461 235.294 122.424 234.477C122.412 234.267 122.405 234 122.405 233.679C122.405 233.344 122.412 233.078 122.424 232.88C122.461 232.05 122.647 231.32 122.981 230.688C123.328 230.057 123.817 229.561 124.449 229.202C125.08 228.843 125.86 228.664 126.789 228.664C127.718 228.664 128.498 228.843 129.129 229.202C129.761 229.561 130.244 230.057 130.578 230.688C130.925 231.32 131.117 232.05 131.154 232.88C131.166 233.078 131.172 233.344 131.172 233.679C131.172 234 131.166 234.267 131.154 234.477C131.117 235.294 130.931 236.025 130.597 236.669C130.262 237.3 129.779 237.796 129.148 238.155C128.516 238.514 127.73 238.694 126.789 238.694ZM126.789 237.263C127.557 237.263 128.17 237.022 128.628 236.539C129.086 236.044 129.334 235.325 129.371 234.384C129.383 234.199 129.389 233.963 129.389 233.679C129.389 233.394 129.383 233.158 129.371 232.973C129.334 232.032 129.086 231.32 128.628 230.837C128.17 230.341 127.557 230.094 126.789 230.094C126.021 230.094 125.402 230.341 124.932 230.837C124.473 231.32 124.232 232.032 124.207 232.973C124.195 233.158 124.189 233.394 124.189 233.679C124.189 233.963 124.195 234.199 124.207 234.384C124.232 235.325 124.473 236.044 124.932 236.539C125.402 237.022 126.021 237.263 126.789 237.263ZM133.925 238.508C133.802 238.508 133.696 238.471 133.61 238.396C133.535 238.31 133.498 238.204 133.498 238.081V229.276C133.498 229.153 133.535 229.054 133.61 228.979C133.696 228.893 133.802 228.849 133.925 228.849H134.798C134.922 228.849 135.021 228.893 135.096 228.979C135.182 229.054 135.226 229.153 135.226 229.276V230.094C135.548 229.673 135.95 229.332 136.433 229.072C136.928 228.8 137.56 228.664 138.328 228.664C139.132 228.664 139.813 228.843 140.371 229.202C140.94 229.549 141.367 230.038 141.652 230.67C141.937 231.289 142.08 232.013 142.08 232.843V238.081C142.08 238.204 142.042 238.31 141.968 238.396C141.894 238.471 141.795 238.508 141.671 238.508H140.742C140.618 238.508 140.513 238.471 140.426 238.396C140.352 238.31 140.315 238.204 140.315 238.081V232.936C140.315 232.069 140.104 231.394 139.683 230.911C139.262 230.416 138.643 230.168 137.826 230.168C137.058 230.168 136.439 230.416 135.969 230.911C135.51 231.394 135.281 232.069 135.281 232.936V238.081C135.281 238.204 135.238 238.31 135.151 238.396C135.077 238.471 134.978 238.508 134.854 238.508H133.925ZM148.292 238.694C147.61 238.694 147.022 238.576 146.527 238.341C146.032 238.093 145.623 237.765 145.301 237.356C144.992 236.935 144.756 236.458 144.595 235.926C144.447 235.394 144.36 234.83 144.335 234.236C144.323 234.038 144.317 233.852 144.317 233.679C144.317 233.505 144.323 233.319 144.335 233.121C144.36 232.539 144.447 231.982 144.595 231.45C144.756 230.917 144.992 230.44 145.301 230.019C145.623 229.598 146.032 229.27 146.527 229.035C147.022 228.787 147.61 228.664 148.292 228.664C149.022 228.664 149.629 228.794 150.112 229.054C150.595 229.314 150.991 229.636 151.301 230.019V225.747C151.301 225.624 151.338 225.525 151.412 225.45C151.499 225.364 151.604 225.32 151.728 225.32H152.619C152.743 225.32 152.842 225.364 152.916 225.45C153.003 225.525 153.046 225.624 153.046 225.747V238.081C153.046 238.204 153.003 238.31 152.916 238.396C152.842 238.471 152.743 238.508 152.619 238.508H151.783C151.647 238.508 151.542 238.471 151.468 238.396C151.393 238.31 151.356 238.204 151.356 238.081V237.3C151.047 237.697 150.644 238.031 150.149 238.303C149.654 238.564 149.034 238.694 148.292 238.694ZM148.682 237.189C149.301 237.189 149.796 237.047 150.168 236.762C150.539 236.477 150.818 236.118 151.003 235.685C151.189 235.239 151.288 234.787 151.301 234.329C151.313 234.131 151.319 233.895 151.319 233.623C151.319 233.338 151.313 233.097 151.301 232.898C151.288 232.465 151.183 232.038 150.985 231.617C150.799 231.196 150.514 230.849 150.13 230.577C149.759 230.304 149.276 230.168 148.682 230.168C148.05 230.168 147.549 230.31 147.177 230.595C146.806 230.868 146.539 231.233 146.378 231.691C146.217 232.137 146.125 232.62 146.1 233.14C146.087 233.499 146.087 233.858 146.1 234.217C146.125 234.737 146.217 235.226 146.378 235.685C146.539 236.13 146.806 236.496 147.177 236.78C147.549 237.053 148.05 237.189 148.682 237.189Z" fill="#384466"/>
<path d="M42.457 263.265H436.493C441.988 263.265 446.444 267.72 446.444 273.215V315.67C446.444 321.165 441.989 325.621 436.493 325.621H42.458C36.9626 325.621 32.5068 321.165 32.5068 315.67V273.215C32.5071 267.72 36.962 263.265 42.457 263.265Z" fill="#FFFBF6"/>
<path d="M42.457 263.265H436.493C441.988 263.265 446.444 267.72 446.444 273.215V315.67C446.444 321.165 441.989 325.621 436.493 325.621H42.458C36.9626 325.621 32.5068 321.165 32.5068 315.67V273.215C32.5071 267.72 36.962 263.265 42.457 263.265Z" stroke="#949494" stroke-width="1.32672"/>
<path d="M57.2384 304.211C55.5579 304.211 54.1162 303.936 52.9133 303.388C51.7281 302.84 50.7994 302.035 50.1272 300.973C49.4727 299.912 49.11 298.594 49.0393 297.02C49.0216 296.295 49.0127 295.516 49.0127 294.685C49.0127 293.853 49.0216 293.057 49.0393 292.297C49.11 290.758 49.4815 289.458 50.1537 288.396C50.8259 287.317 51.7635 286.503 52.9664 285.955C54.1693 285.389 55.5933 285.106 57.2384 285.106C58.4059 285.106 59.485 285.256 60.4756 285.557C61.4662 285.84 62.333 286.265 63.076 286.831C63.8189 287.379 64.3939 288.051 64.8007 288.847C65.2253 289.626 65.4464 290.51 65.4641 291.501C65.4818 291.66 65.4287 291.793 65.3049 291.899C65.1987 292.005 65.0661 292.058 64.9069 292.058H61.3247C61.0947 292.058 60.9179 292.014 60.794 291.925C60.6702 291.819 60.5641 291.633 60.4756 291.368C60.228 290.43 59.8211 289.794 59.255 289.458C58.7066 289.104 58.0256 288.927 57.2119 288.927C56.2389 288.927 55.4695 289.201 54.9034 289.749C54.3373 290.28 54.0277 291.173 53.9747 292.429C53.9216 293.88 53.9216 295.366 53.9747 296.887C54.0277 298.143 54.3373 299.045 54.9034 299.594C55.4695 300.124 56.2389 300.39 57.2119 300.39C58.0256 300.39 58.7155 300.213 59.2816 299.859C59.8476 299.505 60.2456 298.868 60.4756 297.949C60.5464 297.683 60.6437 297.506 60.7675 297.418C60.909 297.312 61.0947 297.259 61.3247 297.259H64.9069C65.0661 297.259 65.1987 297.312 65.3049 297.418C65.4287 297.524 65.4818 297.657 65.4641 297.816C65.4464 298.806 65.2253 299.7 64.8007 300.496C64.3939 301.274 63.8189 301.946 63.076 302.512C62.333 303.061 61.4662 303.485 60.4756 303.786C59.485 304.069 58.4059 304.211 57.2384 304.211Z" fill="#0076AA"/>
<path d="M93.7873 300.709C92.71 300.709 91.8061 300.548 91.0755 300.226C90.3449 299.892 89.7815 299.465 89.3852 298.945C89.0014 298.412 88.7971 297.849 88.7723 297.254C88.7723 297.155 88.8094 297.069 88.8837 296.994C88.9704 296.908 89.0695 296.864 89.1809 296.864H90.1282C90.2768 296.864 90.3882 296.901 90.4625 296.976C90.5368 297.05 90.5864 297.137 90.6111 297.236C90.673 297.533 90.8216 297.83 91.0569 298.127C91.3046 298.412 91.6451 298.654 92.0785 298.852C92.5243 299.038 93.0939 299.13 93.7873 299.13C94.8522 299.13 95.6323 298.945 96.1276 298.573C96.6353 298.189 96.8892 297.682 96.8892 297.05C96.8892 296.617 96.753 296.27 96.4805 296.01C96.2205 295.738 95.8181 295.496 95.2732 295.286C94.7284 295.075 94.0226 294.846 93.1558 294.598C92.2518 294.338 91.5027 294.053 90.9083 293.744C90.3139 293.434 89.8682 293.05 89.571 292.592C89.2862 292.134 89.1438 291.552 89.1438 290.846C89.1438 290.178 89.3233 289.583 89.6824 289.063C90.0415 288.531 90.5554 288.11 91.2241 287.8C91.9051 287.491 92.7286 287.336 93.6944 287.336C94.4622 287.336 95.1308 287.441 95.7004 287.652C96.2824 287.85 96.7654 288.122 97.1492 288.469C97.5331 288.803 97.8241 289.168 98.0222 289.565C98.2203 289.949 98.3256 290.326 98.338 290.698C98.338 290.784 98.307 290.871 98.2451 290.958C98.1832 291.032 98.0841 291.069 97.9479 291.069H96.9635C96.8768 291.069 96.7839 291.044 96.6849 290.995C96.5982 290.945 96.5301 290.853 96.4805 290.716C96.4063 290.209 96.1214 289.781 95.6261 289.435C95.1308 289.088 94.4869 288.915 93.6944 288.915C92.8896 288.915 92.2333 289.069 91.7256 289.379C91.2303 289.689 90.9826 290.171 90.9826 290.828C90.9826 291.249 91.1003 291.602 91.3355 291.886C91.5708 292.159 91.9423 292.4 92.45 292.611C92.9577 292.821 93.6201 293.044 94.4374 293.28C95.428 293.552 96.2391 293.843 96.8706 294.153C97.5021 294.45 97.9665 294.827 98.2637 295.286C98.5732 295.731 98.728 296.307 98.728 297.013C98.728 297.793 98.5237 298.462 98.1151 299.019C97.7064 299.564 97.1306 299.985 96.3877 300.282C95.6571 300.567 94.7903 300.709 93.7873 300.709ZM104.766 300.709C103.49 300.709 102.475 300.319 101.72 299.539C100.964 298.747 100.55 297.669 100.475 296.307C100.463 296.146 100.457 295.942 100.457 295.694C100.457 295.434 100.463 295.224 100.475 295.063C100.525 294.183 100.729 293.416 101.088 292.759C101.447 292.091 101.936 291.577 102.556 291.218C103.187 290.859 103.924 290.679 104.766 290.679C105.707 290.679 106.493 290.877 107.125 291.274C107.769 291.67 108.258 292.233 108.592 292.964C108.926 293.694 109.094 294.549 109.094 295.527V295.843C109.094 295.979 109.05 296.084 108.964 296.159C108.889 296.233 108.79 296.27 108.666 296.27H102.24C102.24 296.282 102.24 296.307 102.24 296.344C102.24 296.381 102.24 296.412 102.24 296.437C102.265 296.945 102.376 297.422 102.574 297.867C102.772 298.301 103.057 298.654 103.429 298.926C103.8 299.198 104.246 299.335 104.766 299.335C105.212 299.335 105.583 299.267 105.88 299.13C106.178 298.994 106.419 298.846 106.605 298.685C106.79 298.511 106.914 298.381 106.976 298.295C107.088 298.134 107.174 298.041 107.236 298.016C107.298 297.979 107.397 297.96 107.533 297.96H108.425C108.549 297.96 108.648 297.997 108.722 298.072C108.809 298.134 108.846 298.226 108.834 298.35C108.821 298.536 108.722 298.765 108.536 299.038C108.351 299.298 108.084 299.558 107.738 299.818C107.391 300.078 106.97 300.294 106.475 300.468C105.979 300.629 105.41 300.709 104.766 300.709ZM102.24 294.988H107.329V294.933C107.329 294.375 107.224 293.88 107.013 293.447C106.815 293.013 106.524 292.673 106.14 292.425C105.757 292.165 105.298 292.035 104.766 292.035C104.233 292.035 103.775 292.165 103.391 292.425C103.02 292.673 102.735 293.013 102.537 293.447C102.339 293.88 102.24 294.375 102.24 294.933V294.988ZM114.008 300.709C113.389 300.709 112.825 300.585 112.318 300.338C111.81 300.09 111.401 299.756 111.092 299.335C110.782 298.914 110.627 298.437 110.627 297.904C110.627 297.05 110.974 296.369 111.667 295.861C112.361 295.354 113.265 295.019 114.379 294.858L117.147 294.468V293.93C117.147 293.335 116.973 292.871 116.627 292.537C116.292 292.202 115.741 292.035 114.974 292.035C114.416 292.035 113.964 292.147 113.618 292.369C113.283 292.592 113.048 292.877 112.912 293.224C112.838 293.41 112.708 293.502 112.522 293.502H111.686C111.55 293.502 111.445 293.465 111.37 293.391C111.308 293.304 111.277 293.205 111.277 293.094C111.277 292.908 111.346 292.679 111.482 292.407C111.63 292.134 111.853 291.868 112.15 291.608C112.448 291.348 112.825 291.131 113.283 290.958C113.754 290.772 114.324 290.679 114.992 290.679C115.735 290.679 116.361 290.778 116.868 290.976C117.376 291.162 117.772 291.416 118.057 291.738C118.354 292.06 118.565 292.425 118.688 292.834C118.825 293.242 118.893 293.657 118.893 294.078V300.096C118.893 300.22 118.849 300.325 118.763 300.412C118.688 300.486 118.589 300.523 118.466 300.523H117.611C117.475 300.523 117.37 300.486 117.295 300.412C117.221 300.325 117.184 300.22 117.184 300.096V299.298C117.023 299.52 116.806 299.743 116.534 299.966C116.261 300.177 115.921 300.356 115.512 300.505C115.104 300.641 114.602 300.709 114.008 300.709ZM114.398 299.316C114.906 299.316 115.37 299.211 115.791 299C116.212 298.777 116.54 298.437 116.775 297.979C117.023 297.521 117.147 296.945 117.147 296.251V295.731L114.992 296.047C114.113 296.171 113.451 296.381 113.005 296.679C112.559 296.963 112.336 297.329 112.336 297.774C112.336 298.121 112.435 298.412 112.633 298.647C112.844 298.87 113.104 299.038 113.413 299.149C113.735 299.26 114.064 299.316 114.398 299.316ZM122.009 300.523C121.885 300.523 121.78 300.486 121.693 300.412C121.619 300.325 121.582 300.22 121.582 300.096V287.763C121.582 287.639 121.619 287.54 121.693 287.466C121.78 287.379 121.885 287.336 122.009 287.336H122.937C123.074 287.336 123.179 287.379 123.253 287.466C123.328 287.54 123.365 287.639 123.365 287.763V292.091C123.699 291.67 124.108 291.329 124.591 291.069C125.073 290.809 125.686 290.679 126.429 290.679C127.234 290.679 127.915 290.859 128.473 291.218C129.042 291.565 129.469 292.054 129.754 292.685C130.051 293.304 130.2 294.029 130.2 294.858V300.096C130.2 300.22 130.163 300.325 130.088 300.412C130.014 300.486 129.909 300.523 129.773 300.523H128.844C128.72 300.523 128.615 300.486 128.528 300.412C128.454 300.325 128.417 300.22 128.417 300.096V294.951C128.417 294.084 128.206 293.41 127.785 292.927C127.364 292.431 126.745 292.184 125.928 292.184C125.16 292.184 124.541 292.431 124.07 292.927C123.6 293.41 123.365 294.084 123.365 294.951V300.096C123.365 300.22 123.328 300.325 123.253 300.412C123.179 300.486 123.074 300.523 122.937 300.523H122.009ZM136.838 300.709C135.897 300.709 135.11 300.53 134.479 300.171C133.847 299.811 133.364 299.316 133.03 298.685C132.696 298.041 132.51 297.31 132.473 296.493C132.461 296.282 132.454 296.016 132.454 295.694C132.454 295.36 132.461 295.094 132.473 294.895C132.51 294.066 132.696 293.335 133.03 292.704C133.377 292.072 133.866 291.577 134.498 291.218C135.129 290.859 135.909 290.679 136.838 290.679C137.767 290.679 138.547 290.859 139.178 291.218C139.81 291.577 140.293 292.072 140.627 292.704C140.974 293.335 141.166 294.066 141.203 294.895C141.215 295.094 141.221 295.36 141.221 295.694C141.221 296.016 141.215 296.282 141.203 296.493C141.166 297.31 140.98 298.041 140.646 298.685C140.311 299.316 139.828 299.811 139.197 300.171C138.565 300.53 137.779 300.709 136.838 300.709ZM136.838 299.279C137.606 299.279 138.219 299.038 138.677 298.555C139.135 298.059 139.382 297.341 139.42 296.4C139.432 296.214 139.438 295.979 139.438 295.694C139.438 295.409 139.432 295.174 139.42 294.988C139.382 294.047 139.135 293.335 138.677 292.852C138.219 292.357 137.606 292.109 136.838 292.109C136.07 292.109 135.451 292.357 134.98 292.852C134.522 293.335 134.281 294.047 134.256 294.988C134.244 295.174 134.237 295.409 134.237 295.694C134.237 295.979 134.244 296.214 134.256 296.4C134.281 297.341 134.522 298.059 134.98 298.555C135.451 299.038 136.07 299.279 136.838 299.279ZM143.974 300.523C143.851 300.523 143.745 300.486 143.659 300.412C143.584 300.325 143.547 300.22 143.547 300.096V291.311C143.547 291.187 143.584 291.082 143.659 290.995C143.745 290.908 143.851 290.865 143.974 290.865H144.829C144.953 290.865 145.058 290.908 145.145 290.995C145.231 291.082 145.275 291.187 145.275 291.311V292.128C145.522 291.707 145.863 291.391 146.296 291.181C146.73 290.97 147.25 290.865 147.856 290.865H148.599C148.723 290.865 148.822 290.908 148.896 290.995C148.971 291.069 149.008 291.168 149.008 291.292V292.054C149.008 292.177 148.971 292.277 148.896 292.351C148.822 292.425 148.723 292.462 148.599 292.462H147.485C146.816 292.462 146.29 292.66 145.906 293.057C145.522 293.441 145.33 293.967 145.33 294.635V300.096C145.33 300.22 145.287 300.325 145.2 300.412C145.114 300.486 145.008 300.523 144.884 300.523H143.974ZM153.946 300.709C153.253 300.709 152.659 300.622 152.163 300.449C151.668 300.276 151.266 300.065 150.956 299.818C150.646 299.57 150.411 299.322 150.25 299.075C150.102 298.827 150.021 298.629 150.009 298.48C149.996 298.344 150.04 298.239 150.139 298.165C150.238 298.09 150.337 298.053 150.436 298.053H151.253C151.328 298.053 151.383 298.065 151.42 298.09C151.47 298.103 151.532 298.152 151.606 298.239C151.767 298.412 151.947 298.586 152.145 298.759C152.343 298.932 152.584 299.075 152.869 299.186C153.166 299.298 153.532 299.353 153.965 299.353C154.597 299.353 155.117 299.236 155.525 299C155.934 298.753 156.138 298.394 156.138 297.923C156.138 297.613 156.052 297.366 155.878 297.18C155.717 296.994 155.42 296.827 154.987 296.679C154.566 296.53 153.984 296.375 153.241 296.214C152.498 296.041 151.91 295.83 151.476 295.583C151.043 295.323 150.733 295.019 150.547 294.673C150.362 294.313 150.269 293.911 150.269 293.465C150.269 293.007 150.405 292.568 150.677 292.147C150.95 291.713 151.346 291.36 151.866 291.088C152.399 290.815 153.061 290.679 153.854 290.679C154.497 290.679 155.049 290.76 155.507 290.921C155.965 291.082 156.343 291.286 156.64 291.534C156.937 291.769 157.16 292.004 157.308 292.239C157.457 292.475 157.537 292.673 157.55 292.834C157.562 292.958 157.525 293.063 157.438 293.15C157.352 293.224 157.253 293.261 157.141 293.261H156.361C156.274 293.261 156.2 293.242 156.138 293.205C156.089 293.168 156.039 293.125 155.99 293.075C155.866 292.914 155.717 292.753 155.544 292.592C155.383 292.431 155.166 292.301 154.894 292.202C154.634 292.091 154.287 292.035 153.854 292.035C153.234 292.035 152.77 292.165 152.461 292.425C152.151 292.685 151.996 293.013 151.996 293.41C151.996 293.645 152.064 293.855 152.201 294.041C152.337 294.227 152.597 294.394 152.981 294.543C153.364 294.691 153.934 294.852 154.689 295.026C155.507 295.186 156.151 295.403 156.621 295.676C157.092 295.948 157.426 296.264 157.624 296.623C157.822 296.982 157.921 297.397 157.921 297.867C157.921 298.387 157.767 298.864 157.457 299.298C157.16 299.731 156.714 300.078 156.12 300.338C155.538 300.585 154.813 300.709 153.946 300.709ZM163.916 300.709C162.641 300.709 161.626 300.319 160.87 299.539C160.115 298.747 159.7 297.669 159.626 296.307C159.613 296.146 159.607 295.942 159.607 295.694C159.607 295.434 159.613 295.224 159.626 295.063C159.675 294.183 159.88 293.416 160.239 292.759C160.598 292.091 161.087 291.577 161.706 291.218C162.338 290.859 163.074 290.679 163.916 290.679C164.857 290.679 165.644 290.877 166.275 291.274C166.919 291.67 167.408 292.233 167.743 292.964C168.077 293.694 168.244 294.549 168.244 295.527V295.843C168.244 295.979 168.201 296.084 168.114 296.159C168.04 296.233 167.941 296.27 167.817 296.27H161.39C161.39 296.282 161.39 296.307 161.39 296.344C161.39 296.381 161.39 296.412 161.39 296.437C161.415 296.945 161.527 297.422 161.725 297.867C161.923 298.301 162.208 298.654 162.579 298.926C162.951 299.198 163.396 299.335 163.916 299.335C164.362 299.335 164.734 299.267 165.031 299.13C165.328 298.994 165.569 298.846 165.755 298.685C165.941 298.511 166.065 298.381 166.127 298.295C166.238 298.134 166.325 298.041 166.387 298.016C166.449 297.979 166.548 297.96 166.684 297.96H167.575C167.699 297.96 167.798 297.997 167.873 298.072C167.959 298.134 167.997 298.226 167.984 298.35C167.972 298.536 167.873 298.765 167.687 299.038C167.501 299.298 167.235 299.558 166.888 299.818C166.542 300.078 166.121 300.294 165.625 300.468C165.13 300.629 164.56 300.709 163.916 300.709ZM161.39 294.988H166.48V294.933C166.48 294.375 166.374 293.88 166.164 293.447C165.966 293.013 165.675 292.673 165.291 292.425C164.907 292.165 164.449 292.035 163.916 292.035C163.384 292.035 162.926 292.165 162.542 292.425C162.17 292.673 161.886 293.013 161.688 293.447C161.489 293.88 161.39 294.375 161.39 294.933V294.988Z" fill="#384466"/>
<path d="M42.457 325.28H436.493C441.988 325.28 446.444 329.735 446.444 335.23V377.686C446.444 383.181 441.989 387.637 436.493 387.637H42.458C36.9626 387.637 32.5068 383.181 32.5068 377.686V335.23C32.5071 329.735 36.962 325.281 42.457 325.28Z" fill="#FFFBF6"/>
<path d="M42.457 325.28H436.493C441.988 325.28 446.444 329.735 446.444 335.23V377.686C446.444 383.181 441.989 387.637 436.493 387.637H42.458C36.9626 387.637 32.5068 383.181 32.5068 377.686V335.23C32.5071 329.735 36.962 325.281 42.457 325.28Z" stroke="#949494" stroke-width="1.32672"/>
<path d="M50.2864 365.961C50.0918 365.961 49.9326 365.899 49.8088 365.775C49.6849 365.651 49.623 365.492 49.623 365.298V348.05C49.623 347.856 49.6849 347.696 49.8088 347.573C49.9326 347.449 50.0918 347.387 50.2864 347.387H57.1853C58.9189 347.387 60.396 347.67 61.6166 348.236C62.8372 348.784 63.7747 349.598 64.4292 350.677C65.0838 351.738 65.4375 353.056 65.4906 354.631C65.5083 355.409 65.5172 356.09 65.5172 356.674C65.5172 357.258 65.5083 357.93 65.4906 358.691C65.4199 360.336 65.0661 361.698 64.4292 362.777C63.8101 363.856 62.8991 364.661 61.6962 365.191C60.511 365.704 59.0516 365.961 57.318 365.961H50.2864ZM54.3727 362.14H57.1853C57.946 362.14 58.574 362.025 59.0693 361.795C59.5823 361.547 59.9626 361.167 60.2103 360.654C60.4756 360.141 60.6171 359.469 60.6348 358.637C60.6702 358.124 60.6879 357.665 60.6879 357.258C60.7056 356.851 60.7056 356.444 60.6879 356.037C60.6879 355.63 60.6702 355.179 60.6348 354.684C60.5994 353.481 60.281 352.605 59.6796 352.057C59.0958 351.491 58.2202 351.208 57.0527 351.208H54.3727V362.14Z" fill="#0076AA"/>
<path d="M90.0353 362.961C89.8991 362.961 89.7939 362.924 89.7196 362.849C89.6453 362.763 89.6081 362.658 89.6081 362.534V350.405C89.6081 350.269 89.6453 350.163 89.7196 350.089C89.7939 350.002 89.8991 349.959 90.0353 349.959H95.1246C96.0533 349.959 96.8087 350.114 97.3907 350.423C97.985 350.721 98.4184 351.129 98.6909 351.649C98.9757 352.169 99.1181 352.751 99.1181 353.395C99.1181 353.903 99.0314 354.343 98.858 354.714C98.6971 355.073 98.4927 355.37 98.2451 355.606C97.9974 355.828 97.756 356.002 97.5207 356.126C98.0036 356.361 98.4308 356.745 98.8023 357.277C99.1862 357.81 99.3781 358.454 99.3781 359.209C99.3781 359.89 99.2233 360.515 98.9138 361.085C98.6042 361.655 98.1398 362.113 97.5207 362.459C96.9139 362.794 96.1586 362.961 95.2547 362.961H90.0353ZM91.4284 361.456H95.0132C95.8181 361.456 96.4372 361.24 96.8706 360.806C97.304 360.373 97.5207 359.84 97.5207 359.209C97.5207 358.553 97.304 358.014 96.8706 357.593C96.4372 357.16 95.8181 356.943 95.0132 356.943H91.4284V361.456ZM91.4284 355.457H94.846C95.6385 355.457 96.2391 355.277 96.6477 354.918C97.0563 354.547 97.2607 354.045 97.2607 353.414C97.2607 352.782 97.0563 352.299 96.6477 351.965C96.2391 351.631 95.6385 351.464 94.846 351.464H91.4284V355.457ZM105.377 363.147C104.584 363.147 103.91 362.973 103.352 362.627C102.808 362.268 102.393 361.772 102.108 361.141C101.823 360.509 101.681 359.785 101.681 358.968V353.73C101.681 353.606 101.718 353.507 101.792 353.432C101.879 353.346 101.984 353.302 102.108 353.302H103.037C103.16 353.302 103.26 353.346 103.334 353.432C103.42 353.507 103.464 353.606 103.464 353.73V358.875C103.464 360.72 104.269 361.642 105.878 361.642C106.646 361.642 107.259 361.401 107.717 360.918C108.188 360.422 108.423 359.741 108.423 358.875V353.73C108.423 353.606 108.46 353.507 108.535 353.432C108.621 353.346 108.726 353.302 108.85 353.302H109.76C109.897 353.302 110.002 353.346 110.076 353.432C110.15 353.507 110.188 353.606 110.188 353.73V362.534C110.188 362.658 110.15 362.763 110.076 362.849C110.002 362.924 109.897 362.961 109.76 362.961H108.906C108.782 362.961 108.677 362.924 108.59 362.849C108.516 362.763 108.479 362.658 108.479 362.534V361.716C108.144 362.15 107.736 362.497 107.253 362.757C106.782 363.017 106.157 363.147 105.377 363.147ZM116.718 362.961C116.024 362.961 115.461 362.831 115.027 362.571C114.594 362.298 114.278 361.921 114.08 361.438C113.882 360.943 113.783 360.361 113.783 359.692V354.788H112.334C112.21 354.788 112.105 354.751 112.018 354.677C111.944 354.59 111.907 354.485 111.907 354.361V353.73C111.907 353.606 111.944 353.507 112.018 353.432C112.105 353.346 112.21 353.302 112.334 353.302H113.783V350.201C113.783 350.077 113.82 349.978 113.894 349.903C113.981 349.817 114.086 349.773 114.21 349.773H115.083C115.207 349.773 115.306 349.817 115.38 349.903C115.467 349.978 115.51 350.077 115.51 350.201V353.302H117.813C117.937 353.302 118.036 353.346 118.111 353.432C118.197 353.507 118.241 353.606 118.241 353.73V354.361C118.241 354.485 118.197 354.59 118.111 354.677C118.036 354.751 117.937 354.788 117.813 354.788H115.51V359.562C115.51 360.144 115.609 360.602 115.807 360.936C116.006 361.271 116.358 361.438 116.866 361.438H117.999C118.123 361.438 118.222 361.481 118.296 361.568C118.383 361.642 118.426 361.741 118.426 361.865V362.534C118.426 362.658 118.383 362.763 118.296 362.849C118.222 362.924 118.123 362.961 117.999 362.961H116.718ZM123.973 362.961C123.28 362.961 122.716 362.831 122.283 362.571C121.849 362.298 121.534 361.921 121.336 361.438C121.137 360.943 121.038 360.361 121.038 359.692V354.788H119.59C119.466 354.788 119.361 354.751 119.274 354.677C119.2 354.59 119.162 354.485 119.162 354.361V353.73C119.162 353.606 119.2 353.507 119.274 353.432C119.361 353.346 119.466 353.302 119.59 353.302H121.038V350.201C121.038 350.077 121.076 349.978 121.15 349.903C121.237 349.817 121.342 349.773 121.466 349.773H122.339C122.462 349.773 122.561 349.817 122.636 349.903C122.722 349.978 122.766 350.077 122.766 350.201V353.302H125.069C125.193 353.302 125.292 353.346 125.366 353.432C125.453 353.507 125.496 353.606 125.496 353.73V354.361C125.496 354.485 125.453 354.59 125.366 354.677C125.292 354.751 125.193 354.788 125.069 354.788H122.766V359.562C122.766 360.144 122.865 360.602 123.063 360.936C123.261 361.271 123.614 361.438 124.122 361.438H125.255C125.379 361.438 125.478 361.481 125.552 361.568C125.639 361.642 125.682 361.741 125.682 361.865V362.534C125.682 362.658 125.639 362.763 125.552 362.849C125.478 362.924 125.379 362.961 125.255 362.961H123.973ZM131.303 363.147C130.027 363.147 129.012 362.757 128.257 361.977C127.501 361.184 127.087 360.107 127.012 358.745C127 358.584 126.994 358.379 126.994 358.132C126.994 357.872 127 357.661 127.012 357.5C127.062 356.621 127.266 355.853 127.625 355.197C127.984 354.528 128.473 354.014 129.093 353.655C129.724 353.296 130.461 353.117 131.303 353.117C132.244 353.117 133.03 353.315 133.662 353.711C134.306 354.107 134.795 354.671 135.129 355.401C135.463 356.132 135.631 356.986 135.631 357.965V358.28C135.631 358.416 135.587 358.522 135.501 358.596C135.426 358.67 135.327 358.707 135.203 358.707H128.777C128.777 358.72 128.777 358.745 128.777 358.782C128.777 358.819 128.777 358.85 128.777 358.875C128.802 359.382 128.913 359.859 129.111 360.305C129.309 360.738 129.594 361.091 129.966 361.364C130.337 361.636 130.783 361.772 131.303 361.772C131.749 361.772 132.12 361.704 132.417 361.568C132.715 361.432 132.956 361.283 133.142 361.122C133.327 360.949 133.451 360.819 133.513 360.732C133.625 360.571 133.711 360.478 133.773 360.453C133.835 360.416 133.934 360.398 134.07 360.398H134.962C135.086 360.398 135.185 360.435 135.259 360.509C135.346 360.571 135.383 360.664 135.371 360.788C135.358 360.974 135.259 361.203 135.073 361.475C134.888 361.735 134.621 361.995 134.275 362.255C133.928 362.515 133.507 362.732 133.012 362.905C132.516 363.066 131.947 363.147 131.303 363.147ZM128.777 357.426H133.866V357.37C133.866 356.813 133.761 356.318 133.55 355.884C133.352 355.451 133.061 355.11 132.677 354.863C132.294 354.603 131.835 354.473 131.303 354.473C130.77 354.473 130.312 354.603 129.928 354.863C129.557 355.11 129.272 355.451 129.074 355.884C128.876 356.318 128.777 356.813 128.777 357.37V357.426ZM138.279 362.961C138.155 362.961 138.05 362.924 137.963 362.849C137.889 362.763 137.852 362.658 137.852 362.534V353.748C137.852 353.624 137.889 353.519 137.963 353.432C138.05 353.346 138.155 353.302 138.279 353.302H139.133C139.257 353.302 139.362 353.346 139.449 353.432C139.536 353.519 139.579 353.624 139.579 353.748V354.565C139.827 354.144 140.167 353.829 140.601 353.618C141.034 353.408 141.554 353.302 142.161 353.302H142.904C143.028 353.302 143.127 353.346 143.201 353.432C143.275 353.507 143.312 353.606 143.312 353.73V354.491C143.312 354.615 143.275 354.714 143.201 354.788C143.127 354.863 143.028 354.9 142.904 354.9H141.789C141.121 354.9 140.594 355.098 140.21 355.494C139.827 355.878 139.635 356.404 139.635 357.073V362.534C139.635 362.658 139.591 362.763 139.505 362.849C139.418 362.924 139.313 362.961 139.189 362.961H138.279ZM146.301 362.961C146.177 362.961 146.072 362.924 145.985 362.849C145.911 362.763 145.873 362.658 145.873 362.534V354.788H144.295C144.171 354.788 144.066 354.751 143.979 354.677C143.905 354.59 143.867 354.485 143.867 354.361V353.73C143.867 353.606 143.905 353.507 143.979 353.432C144.066 353.346 144.171 353.302 144.295 353.302H145.873V352.374C145.873 351.742 145.979 351.191 146.189 350.721C146.4 350.238 146.734 349.866 147.192 349.606C147.663 349.346 148.288 349.216 149.068 349.216H150.108C150.232 349.216 150.331 349.259 150.405 349.346C150.492 349.42 150.536 349.519 150.536 349.643V350.275C150.536 350.399 150.492 350.504 150.405 350.591C150.331 350.665 150.232 350.702 150.108 350.702H149.105C148.523 350.702 148.127 350.857 147.917 351.166C147.706 351.464 147.601 351.897 147.601 352.467V353.302H151.576V349.643C151.576 349.519 151.613 349.42 151.687 349.346C151.774 349.259 151.879 349.216 152.003 349.216H152.857C152.993 349.216 153.099 349.259 153.173 349.346C153.247 349.42 153.284 349.519 153.284 349.643V362.534C153.284 362.658 153.247 362.763 153.173 362.849C153.099 362.924 152.993 362.961 152.857 362.961H152.003C151.879 362.961 151.774 362.924 151.687 362.849C151.613 362.763 151.576 362.658 151.576 362.534V354.788H147.601V362.534C147.601 362.658 147.557 362.763 147.471 362.849C147.396 362.924 147.297 362.961 147.174 362.961H146.301ZM157.735 366.49C157.636 366.49 157.549 366.453 157.475 366.379C157.401 366.304 157.364 366.218 157.364 366.119C157.364 366.069 157.37 366.019 157.382 365.97C157.394 365.92 157.419 365.858 157.456 365.784L158.887 362.385L155.339 354.008C155.277 353.86 155.246 353.754 155.246 353.692C155.246 353.581 155.283 353.488 155.358 353.414C155.432 353.34 155.525 353.302 155.636 353.302H156.546C156.67 353.302 156.769 353.333 156.843 353.395C156.918 353.457 156.967 353.531 156.992 353.618L159.815 360.379L162.713 353.618C162.75 353.531 162.8 353.457 162.861 353.395C162.936 353.333 163.041 353.302 163.177 353.302H164.05C164.162 353.302 164.255 353.34 164.329 353.414C164.403 353.488 164.44 353.575 164.44 353.674C164.44 353.736 164.409 353.847 164.347 354.008L159.072 366.174C159.035 366.261 158.979 366.335 158.905 366.397C158.843 366.459 158.744 366.49 158.608 366.49H157.735Z" fill="#384466"/>
</svg>
