<svg width="122" height="44" viewBox="0 0 122 44" fill="none" xmlns="http://www.w3.org/2000/svg">
<g filter="url(#filter0_d_7385_174255)">
<rect x="4" y="3" width="114" height="33" rx="16.5" fill="url(#paint0_linear_7385_174255)"/>
</g>
<path fill-rule="evenodd" clip-rule="evenodd" d="M23.5916 30C29.5621 30 34.4021 25.2343 34.4021 19.3556C34.4021 13.4768 29.5621 8.71118 23.5916 8.71118C17.6211 8.71118 12.781 13.4768 12.781 19.3556C12.781 25.2343 17.6211 30 23.5916 30ZM23.6956 9.12058C23.2937 9.12058 22.968 9.44635 22.968 9.84821V12.0775C22.968 12.4794 23.2937 12.8052 23.6956 12.8052C24.0974 12.8052 24.4232 12.4794 24.4232 12.0775V9.84821C24.4232 9.44635 24.0974 9.12058 23.6956 9.12058ZM16.2798 13.0969C15.9956 12.8171 15.9956 12.3634 16.2798 12.0836C16.5639 11.8038 17.0246 11.8038 17.3088 12.0836L18.9258 13.6758C19.21 13.9556 19.21 14.4093 18.9258 14.689C18.6417 14.9688 18.181 14.9688 17.8968 14.689L16.2798 13.0969ZM33.9864 19.3556C33.9864 18.9599 33.6656 18.6391 33.2699 18.6391H30.9607C30.565 18.6391 30.2442 18.9599 30.2442 19.3556C30.2442 19.7513 30.565 20.072 30.9607 20.072H33.2699C33.6656 20.072 33.9864 19.7513 33.9864 19.3556ZM29.8774 12.156C30.1616 11.8762 30.6223 11.8762 30.9064 12.156C31.1906 12.4358 31.1906 12.8895 30.9064 13.1692L29.2894 14.7614C29.0052 15.0412 28.5445 15.0412 28.2604 14.7614C27.9762 14.4817 27.9762 14.028 28.2604 13.7482L29.8774 12.156ZM23.6956 25.906C23.2937 25.906 22.968 26.2318 22.968 26.6336V28.863C22.968 29.2648 23.2937 29.5906 23.6956 29.5906C24.0974 29.5906 24.4232 29.2648 24.4232 28.863V26.6336C24.4232 26.2318 24.0974 25.906 23.6956 25.906ZM28.0562 24.7647C27.7721 24.4849 27.7721 24.0313 28.0562 23.7515C28.3404 23.4717 28.8011 23.4717 29.0853 23.7515L30.7023 25.3437C30.9865 25.6235 30.9865 26.0771 30.7023 26.3569C30.4181 26.6367 29.9574 26.6367 29.6733 26.3569L28.0562 24.7647ZM16.939 19.3556C16.939 18.9599 16.6182 18.6391 16.2225 18.6391H13.9133C13.5176 18.6391 13.1969 18.9599 13.1969 19.3556C13.1969 19.7513 13.5176 20.072 13.9133 20.072H16.2225C16.6182 20.072 16.939 19.7513 16.939 19.3556ZM17.8233 23.9562C18.1075 23.6764 18.5682 23.6764 18.8523 23.9562C19.1365 24.236 19.1365 24.6896 18.8523 24.9694L17.2353 26.5616C16.9511 26.8414 16.4904 26.8414 16.2062 26.5616C15.9221 26.2818 15.9221 25.8282 16.2062 25.5484L17.8233 23.9562ZM21.0451 14.8759C20.6971 15.0738 20.5791 15.5141 20.7816 15.8595L23.1668 19.9271C23.3119 20.1747 23.5824 20.3062 23.8521 20.288C23.8712 20.2895 23.8905 20.2903 23.91 20.2903H26.635C27.0307 20.2903 27.3515 19.9695 27.3515 19.5739C27.3515 19.1782 27.0307 18.8574 26.635 18.8574L24.2199 18.8574L22.0419 15.143C21.8394 14.7977 21.3932 14.6781 21.0451 14.8759Z" fill="white"/>
<path d="M48.2622 20.3544H45.6075V22.9082H43.6394V20.3544H41V18.5217H43.6394V15.9679H45.6075V18.5217H48.2622V20.3544Z" fill="white"/>
<path d="M59.092 18.4616C60.0277 18.6118 60.7448 18.9573 61.2432 19.4981C61.7416 20.0289 61.9908 20.6899 61.9908 21.4811C61.9908 22.092 61.828 22.6578 61.5025 23.1786C61.1771 23.6893 60.6787 24.0999 60.0074 24.4104C59.3463 24.7209 58.5326 24.8761 57.5663 24.8761C56.8136 24.8761 56.0711 24.781 55.3388 24.5907C54.6167 24.3904 54.0013 24.11 53.4928 23.7494L54.4539 21.8867C54.8608 22.1871 55.3287 22.4225 55.8576 22.5927C56.3966 22.753 56.9459 22.8331 57.5053 22.8331C58.1257 22.8331 58.6139 22.7179 58.9699 22.4876C59.3259 22.2472 59.5039 21.9117 59.5039 21.4811C59.5039 20.6198 58.8377 20.1892 57.5053 20.1892H56.3763V18.5818L58.5733 16.1332H54.0267V14.1803H61.5025V15.7576L59.092 18.4616Z" fill="white"/>
<path d="M67.7089 24.8761C66.824 24.8761 66.0358 24.6608 65.3441 24.2301C64.6525 23.7995 64.1083 23.1786 63.7117 22.3674C63.3252 21.5462 63.1319 20.5697 63.1319 19.438C63.1319 18.3064 63.3252 17.3349 63.7117 16.5237C64.1083 15.7025 64.6525 15.0766 65.3441 14.646C66.0358 14.2153 66.824 14 67.7089 14C68.5938 14 69.3821 14.2153 70.0737 14.646C70.7654 15.0766 71.3044 15.7025 71.6909 16.5237C72.0876 17.3349 72.286 18.3064 72.286 19.438C72.286 20.5697 72.0876 21.5462 71.6909 22.3674C71.3044 23.1786 70.7654 23.7995 70.0737 24.2301C69.3821 24.6608 68.5938 24.8761 67.7089 24.8761ZM67.7089 22.8181C68.3599 22.8181 68.8684 22.5426 69.2346 21.9918C69.6109 21.441 69.7991 20.5898 69.7991 19.438C69.7991 18.2863 69.6109 17.4351 69.2346 16.8843C68.8684 16.3335 68.3599 16.058 67.7089 16.058C67.0682 16.058 66.5596 16.3335 66.1833 16.8843C65.8171 17.4351 65.634 18.2863 65.634 19.438C65.634 20.5898 65.8171 21.441 66.1833 21.9918C66.5596 22.5426 67.0682 22.8181 67.7089 22.8181Z" fill="white"/>
<path d="M81.9879 24.8761C81.1437 24.8761 80.3249 24.7659 79.5316 24.5456C78.7484 24.3153 78.1178 24.0198 77.6398 23.6593L78.4789 21.8266C78.9366 22.1571 79.4807 22.4225 80.1113 22.6228C80.742 22.8231 81.3726 22.9232 82.0032 22.9232C82.705 22.9232 83.2237 22.8231 83.5594 22.6228C83.895 22.4125 84.0628 22.137 84.0628 21.7965C84.0628 21.5462 83.9611 21.3409 83.7577 21.1806C83.5645 21.0104 83.3102 20.8752 82.9949 20.775C82.6897 20.6749 82.2727 20.5647 81.7438 20.4445C80.9301 20.2543 80.2639 20.064 79.7452 19.8737C79.2265 19.6834 78.7789 19.378 78.4026 18.9573C78.0364 18.5367 77.8533 17.9759 77.8533 17.2748C77.8533 16.6639 78.0212 16.1131 78.3568 15.6224C78.6925 15.1217 79.1959 14.7261 79.8672 14.4356C80.5487 14.1452 81.3777 14 82.3541 14C83.0356 14 83.7018 14.0801 84.3527 14.2404C85.0037 14.4006 85.5733 14.6309 86.0615 14.9314L85.2986 16.7791C84.312 16.2283 83.3254 15.9529 82.3388 15.9529C81.6472 15.9529 81.1335 16.0631 80.7979 16.2834C80.4724 16.5037 80.3097 16.7941 80.3097 17.1547C80.3097 17.5152 80.4978 17.7856 80.8742 17.9659C81.2607 18.1361 81.8455 18.3064 82.6287 18.4766C83.4424 18.6669 84.1086 18.8572 84.6273 19.0475C85.1461 19.2378 85.5885 19.5382 85.9547 19.9488C86.331 20.3594 86.5192 20.9152 86.5192 21.6163C86.5192 22.2172 86.3463 22.768 86.0004 23.2687C85.6648 23.7594 85.1562 24.15 84.4748 24.4405C83.7933 24.7309 82.9644 24.8761 81.9879 24.8761Z" fill="white"/>
<path d="M96.0805 20.6849C96.0805 20.7149 96.0652 20.9253 96.0347 21.3158H89.8252C89.9371 21.8166 90.2016 22.2122 90.6186 22.5026C91.0356 22.793 91.5543 22.9382 92.1748 22.9382C92.602 22.9382 92.9783 22.8781 93.3038 22.758C93.6394 22.6278 93.9496 22.4275 94.2344 22.1571L95.5007 23.5091C94.7277 24.3804 93.5987 24.816 92.1137 24.816C91.1882 24.816 90.3694 24.6407 89.6574 24.2902C88.9454 23.9297 88.3962 23.434 88.0097 22.803C87.6232 22.1721 87.4299 21.456 87.4299 20.6549C87.4299 19.8637 87.6181 19.1526 87.9944 18.5217C88.3809 17.8807 88.9047 17.385 89.5659 17.0345C90.2372 16.674 90.9847 16.4937 91.8086 16.4937C92.6121 16.4937 93.3394 16.6639 93.9903 17.0044C94.6413 17.345 95.1498 17.8357 95.516 18.4766C95.8923 19.1076 96.0805 19.8436 96.0805 20.6849ZM91.8239 18.2663C91.2848 18.2663 90.8322 18.4165 90.466 18.717C90.0999 19.0174 89.8761 19.428 89.7947 19.9488H93.8378C93.7564 19.438 93.5326 19.0324 93.1665 18.732C92.8003 18.4215 92.3528 18.2663 91.8239 18.2663Z" fill="white"/>
<path d="M101.632 24.816C100.757 24.816 99.9688 24.6407 99.267 24.2902C98.5754 23.9297 98.0312 23.434 97.6345 22.803C97.248 22.1721 97.0548 21.456 97.0548 20.6549C97.0548 19.8537 97.248 19.1376 97.6345 18.5067C98.0312 17.8757 98.5754 17.385 99.267 17.0345C99.9688 16.674 100.757 16.4937 101.632 16.4937C102.496 16.4937 103.249 16.674 103.89 17.0345C104.541 17.385 105.014 17.8908 105.309 18.5517L103.463 19.5282C103.035 18.7871 102.42 18.4165 101.617 18.4165C100.996 18.4165 100.482 18.6168 100.076 19.0174C99.6688 19.418 99.4653 19.9638 99.4653 20.6549C99.4653 21.3459 99.6688 21.8917 100.076 22.2923C100.482 22.6929 100.996 22.8932 101.617 22.8932C102.43 22.8932 103.046 22.5226 103.463 21.7815L105.309 22.773C105.014 23.4139 104.541 23.9147 103.89 24.2752C103.249 24.6357 102.496 24.816 101.632 24.816Z" fill="white"/>
<path d="M107.877 24.816C107.46 24.816 107.109 24.6758 106.824 24.3954C106.54 24.115 106.397 23.7645 106.397 23.3438C106.397 22.9132 106.54 22.5677 106.824 22.3073C107.109 22.0369 107.46 21.9017 107.877 21.9017C108.294 21.9017 108.645 22.0369 108.93 22.3073C109.215 22.5677 109.357 22.9132 109.357 23.3438C109.357 23.7645 109.215 24.115 108.93 24.3954C108.645 24.6758 108.294 24.816 107.877 24.816Z" fill="white"/>
<defs>
<filter id="filter0_d_7385_174255" x="0" y="3" width="122" height="41" filterUnits="userSpaceOnUse" color-interpolation-filters="sRGB">
<feFlood flood-opacity="0" result="BackgroundImageFix"/>
<feColorMatrix in="SourceAlpha" type="matrix" values="0 0 0 0 0 0 0 0 0 0 0 0 0 0 0 0 0 0 127 0" result="hardAlpha"/>
<feOffset dy="4"/>
<feGaussianBlur stdDeviation="2"/>
<feComposite in2="hardAlpha" operator="out"/>
<feColorMatrix type="matrix" values="0 0 0 0 0 0 0 0 0 0 0 0 0 0 0 0 0 0 0.25 0"/>
<feBlend mode="normal" in2="BackgroundImageFix" result="effect1_dropShadow_7385_174255"/>
<feBlend mode="normal" in="SourceGraphic" in2="effect1_dropShadow_7385_174255" result="shape"/>
</filter>
<linearGradient id="paint0_linear_7385_174255" x1="4" y1="19.5" x2="118" y2="19.5" gradientUnits="userSpaceOnUse">
<stop stop-color="#159EFA"/>
<stop offset="1" stop-color="#19BCFB"/>
</linearGradient>
</defs>
</svg>
