<svg width="311" height="47" viewBox="0 0 311 47" fill="none" xmlns="http://www.w3.org/2000/svg">
<rect width="311" height="47" rx="12" fill="white" fill-opacity="0.2"/>
<path opacity="0.25" d="M291.401 33.6062C290.868 32.9726 289.921 32.8915 289.288 33.4251C288.654 33.9587 288.573 34.905 289.107 35.5387L291.401 33.6062ZM305.899 25.8962C306.352 25.2028 306.158 24.2732 305.465 23.8199C304.771 23.3665 303.842 23.5611 303.388 24.2545L305.899 25.8962ZM294.859 40.0406L293.711 41.0068C294.017 41.3696 294.476 41.5665 294.949 41.5379C295.423 41.5092 295.855 41.2584 296.114 40.8615L294.859 40.0406ZM289.107 35.5387L293.711 41.0068L296.006 39.0744L291.401 33.6062L289.107 35.5387ZM296.114 40.8615L305.899 25.8962L303.388 24.2545L293.603 39.2197L296.114 40.8615Z" fill="white"/>
<rect x="9" y="34" width="245" height="5" rx="2.5" fill="white" fill-opacity="0.2"/>
<path d="M239 24L246.293 16.7071C246.683 16.3166 246.683 15.6834 246.293 15.2929L239 8" stroke="white" stroke-width="2"/>
</svg>
