<svg width="344" height="92" viewBox="0 0 344 92" fill="none" xmlns="http://www.w3.org/2000/svg">
<g filter="url(#filter0_d_4560_151925)">
<path d="M22 41C22 27.7452 32.7452 17 46 17H298C311.255 17 322 27.7452 322 41C322 54.2548 311.255 65 298 65H46C32.7452 65 22 54.2548 22 41Z" fill="url(#paint0_linear_4560_151925)"/>
<path d="M128.054 47H124.634L118.914 38.34V47H115.494V32.96H118.914L124.634 41.66V32.96H128.054V47ZM141.053 41.24C141.053 41.56 141.033 41.8933 140.993 42.24H133.253C133.306 42.9333 133.526 43.4667 133.913 43.84C134.313 44.2 134.8 44.38 135.373 44.38C136.226 44.38 136.82 44.02 137.153 43.3H140.793C140.606 44.0333 140.266 44.6933 139.773 45.28C139.293 45.8667 138.686 46.3267 137.953 46.66C137.22 46.9933 136.4 47.16 135.493 47.16C134.4 47.16 133.426 46.9267 132.573 46.46C131.72 45.9933 131.053 45.3267 130.573 44.46C130.093 43.5933 129.853 42.58 129.853 41.42C129.853 40.26 130.086 39.2467 130.553 38.38C131.033 37.5133 131.7 36.8467 132.553 36.38C133.406 35.9133 134.386 35.68 135.493 35.68C136.573 35.68 137.533 35.9067 138.373 36.36C139.213 36.8133 139.866 37.46 140.333 38.3C140.813 39.14 141.053 40.12 141.053 41.24ZM137.553 40.34C137.553 39.7533 137.353 39.2867 136.953 38.94C136.553 38.5933 136.053 38.42 135.453 38.42C134.88 38.42 134.393 38.5867 133.993 38.92C133.606 39.2533 133.366 39.7267 133.273 40.34H137.553ZM149.457 47L147.317 43.9L145.517 47H141.817L145.497 41.3L141.717 35.84H145.557L147.697 38.92L149.497 35.84H153.197L149.457 41.46L153.297 47H149.457ZM160.835 44.1V47H159.095C157.855 47 156.888 46.7 156.195 46.1C155.502 45.4867 155.155 44.4933 155.155 43.12V38.68H153.795V35.84H155.155V33.12H158.575V35.84H160.815V38.68H158.575V43.16C158.575 43.4933 158.655 43.7333 158.815 43.88C158.975 44.0267 159.242 44.1 159.615 44.1H160.835ZM177.678 37.48C177.678 38.2933 177.492 39.04 177.118 39.72C176.745 40.3867 176.172 40.9267 175.398 41.34C174.625 41.7533 173.665 41.96 172.518 41.96H170.398V47H166.978V32.96H172.518C173.638 32.96 174.585 33.1533 175.358 33.54C176.132 33.9267 176.712 34.46 177.098 35.14C177.485 35.82 177.678 36.6 177.678 37.48ZM172.258 39.24C172.912 39.24 173.398 39.0867 173.718 38.78C174.038 38.4733 174.198 38.04 174.198 37.48C174.198 36.92 174.038 36.4867 173.718 36.18C173.398 35.8733 172.912 35.72 172.258 35.72H170.398V39.24H172.258ZM186.319 35.72C187.599 35.72 188.625 36.1467 189.399 37C190.172 37.84 190.559 39 190.559 40.48V47H187.159V40.94C187.159 40.1933 186.965 39.6133 186.579 39.2C186.192 38.7867 185.672 38.58 185.019 38.58C184.365 38.58 183.845 38.7867 183.459 39.2C183.072 39.6133 182.879 40.1933 182.879 40.94V47H179.459V32.2H182.879V37.34C183.225 36.8467 183.699 36.4533 184.299 36.16C184.899 35.8667 185.572 35.72 186.319 35.72ZM192.255 41.4C192.255 40.2533 192.469 39.2467 192.895 38.38C193.335 37.5133 193.929 36.8467 194.675 36.38C195.422 35.9133 196.255 35.68 197.175 35.68C197.962 35.68 198.649 35.84 199.235 36.16C199.835 36.48 200.295 36.9 200.615 37.42V35.84H204.035V47H200.615V45.42C200.282 45.94 199.815 46.36 199.215 46.68C198.629 47 197.942 47.16 197.155 47.16C196.249 47.16 195.422 46.9267 194.675 46.46C193.929 45.98 193.335 45.3067 192.895 44.44C192.469 43.56 192.255 42.5467 192.255 41.4ZM200.615 41.42C200.615 40.5667 200.375 39.8933 199.895 39.4C199.429 38.9067 198.855 38.66 198.175 38.66C197.495 38.66 196.915 38.9067 196.435 39.4C195.969 39.88 195.735 40.5467 195.735 41.4C195.735 42.2533 195.969 42.9333 196.435 43.44C196.915 43.9333 197.495 44.18 198.175 44.18C198.855 44.18 199.429 43.9333 199.895 43.44C200.375 42.9467 200.615 42.2733 200.615 41.42ZM211.05 47.16C210.076 47.16 209.21 46.9933 208.45 46.66C207.69 46.3267 207.09 45.8733 206.65 45.3C206.21 44.7133 205.963 44.06 205.91 43.34H209.29C209.33 43.7267 209.51 44.04 209.83 44.28C210.15 44.52 210.543 44.64 211.01 44.64C211.436 44.64 211.763 44.56 211.99 44.4C212.23 44.2267 212.35 44.0067 212.35 43.74C212.35 43.42 212.183 43.1867 211.85 43.04C211.516 42.88 210.976 42.7067 210.23 42.52C209.43 42.3333 208.763 42.14 208.23 41.94C207.696 41.7267 207.236 41.4 206.85 40.96C206.463 40.5067 206.27 39.9 206.27 39.14C206.27 38.5 206.443 37.92 206.79 37.4C207.15 36.8667 207.67 36.4467 208.35 36.14C209.043 35.8333 209.863 35.68 210.81 35.68C212.21 35.68 213.31 36.0267 214.11 36.72C214.923 37.4133 215.39 38.3333 215.51 39.48H212.35C212.296 39.0933 212.123 38.7867 211.83 38.56C211.55 38.3333 211.176 38.22 210.71 38.22C210.31 38.22 210.003 38.3 209.79 38.46C209.576 38.6067 209.47 38.8133 209.47 39.08C209.47 39.4 209.636 39.64 209.97 39.8C210.316 39.96 210.85 40.12 211.57 40.28C212.396 40.4933 213.07 40.7067 213.59 40.92C214.11 41.12 214.563 41.4533 214.95 41.92C215.35 42.3733 215.556 42.9867 215.57 43.76C215.57 44.4133 215.383 45 215.01 45.52C214.65 46.0267 214.123 46.4267 213.43 46.72C212.75 47.0133 211.956 47.16 211.05 47.16ZM228.182 41.24C228.182 41.56 228.162 41.8933 228.122 42.24H220.382C220.435 42.9333 220.655 43.4667 221.042 43.84C221.442 44.2 221.929 44.38 222.502 44.38C223.355 44.38 223.949 44.02 224.282 43.3H227.922C227.735 44.0333 227.395 44.6933 226.902 45.28C226.422 45.8667 225.815 46.3267 225.082 46.66C224.349 46.9933 223.529 47.16 222.622 47.16C221.529 47.16 220.555 46.9267 219.702 46.46C218.849 45.9933 218.182 45.3267 217.702 44.46C217.222 43.5933 216.982 42.58 216.982 41.42C216.982 40.26 217.215 39.2467 217.682 38.38C218.162 37.5133 218.829 36.8467 219.682 36.38C220.535 35.9133 221.515 35.68 222.622 35.68C223.702 35.68 224.662 35.9067 225.502 36.36C226.342 36.8133 226.995 37.46 227.462 38.3C227.942 39.14 228.182 40.12 228.182 41.24ZM224.682 40.34C224.682 39.7533 224.482 39.2867 224.082 38.94C223.682 38.5933 223.182 38.42 222.582 38.42C222.009 38.42 221.522 38.5867 221.122 38.92C220.735 39.2533 220.495 39.7267 220.402 40.34H224.682Z" fill="white"/>
</g>
<defs>
<filter id="filter0_d_4560_151925" x="0" y="0" width="344" height="92" filterUnits="userSpaceOnUse" color-interpolation-filters="sRGB">
<feFlood flood-opacity="0" result="BackgroundImageFix"/>
<feColorMatrix in="SourceAlpha" type="matrix" values="0 0 0 0 0 0 0 0 0 0 0 0 0 0 0 0 0 0 127 0" result="hardAlpha"/>
<feOffset dy="5"/>
<feGaussianBlur stdDeviation="11"/>
<feColorMatrix type="matrix" values="0 0 0 0 0.278431 0 0 0 0 0.85098 0 0 0 0 1 0 0 0 0.3 0"/>
<feBlend mode="normal" in2="BackgroundImageFix" result="effect1_dropShadow_4560_151925"/>
<feBlend mode="normal" in="SourceGraphic" in2="effect1_dropShadow_4560_151925" result="shape"/>
</filter>
<linearGradient id="paint0_linear_4560_151925" x1="22" y1="41" x2="322" y2="41" gradientUnits="userSpaceOnUse">
<stop stop-color="#159EFA"/>
<stop offset="1" stop-color="#19BCFB"/>
</linearGradient>
</defs>
</svg>
