<svg width="666" height="685" viewBox="0 0 666 685" fill="none" xmlns="http://www.w3.org/2000/svg">
<path d="M8 69C8 35.3106 35.3106 8 69 8H597C630.689 8 658 35.3106 658 69V616C658 649.689 630.689 677 597 677H69C35.3106 677 8 649.689 8 616V69Z" fill="white"/>
<path d="M32.5 121C32.5 125.142 35.8579 128.5 40 128.5C44.1421 128.5 47.5 125.142 47.5 121H32.5ZM121 41.5C125.142 41.5 128.5 38.1421 128.5 34C128.5 29.8579 125.142 26.5 121 26.5V41.5ZM47.5 565C47.5 560.858 44.1421 557.5 40 557.5C35.8579 557.5 32.5 560.858 32.5 565H47.5ZM121 659.5C125.142 659.5 128.5 656.142 128.5 652C128.5 647.858 125.142 644.5 121 644.5V659.5ZM547 29.5C542.858 29.5 539.5 32.8579 539.5 37C539.5 41.1421 542.858 44.5 547 44.5L547 29.5ZM600.5 37L600.5 29.5L600.5 37ZM634 70.5L626.5 70.5V70.5H634ZM626.5 118C626.5 122.142 629.858 125.5 634 125.5C638.142 125.5 641.5 122.142 641.5 118H626.5ZM547 641.5C542.858 641.5 539.5 644.858 539.5 649C539.5 653.142 542.858 656.5 547 656.5V641.5ZM600.5 649L600.5 656.5H600.5L600.5 649ZM634 615.5L626.5 615.5V615.5L634 615.5ZM641.5 568C641.5 563.858 638.142 560.5 634 560.5C629.858 560.5 626.5 563.858 626.5 568H641.5ZM69 15.5H597V0.5H69V15.5ZM650.5 69V616H665.5V69H650.5ZM597 669.5H69V684.5H597V669.5ZM15.5 616V69H0.5V616H15.5ZM69 669.5C39.4528 669.5 15.5 645.547 15.5 616H0.5C0.5 653.832 31.1685 684.5 69 684.5V669.5ZM650.5 616C650.5 645.547 626.547 669.5 597 669.5V684.5C634.832 684.5 665.5 653.832 665.5 616H650.5ZM597 15.5C626.547 15.5 650.5 39.4528 650.5 69H665.5C665.5 31.1685 634.832 0.5 597 0.5V15.5ZM69 0.5C31.1685 0.5 0.5 31.1685 0.5 69H15.5C15.5 39.4528 39.4528 15.5 69 15.5V0.5ZM47.5 121V67.5H32.5V121H47.5ZM47.5 67.5C47.5 58.4123 49.203 52.2277 52.5512 48.3105C55.6914 44.6367 61.5632 41.5 73.5 41.5V26.5C59.0368 26.5 48.1586 30.3633 41.1488 38.5645C34.347 46.5223 32.5 57.0877 32.5 67.5H47.5ZM73.5 41.5H121V26.5H73.5V41.5ZM32.5 565V618.5H47.5V565H32.5ZM32.5 618.5C32.5 628.912 34.347 639.478 41.1488 647.436C48.1586 655.637 59.0368 659.5 73.5 659.5V644.5C61.5632 644.5 55.6914 641.363 52.5512 637.689C49.203 633.772 47.5 627.588 47.5 618.5H32.5ZM73.5 659.5H121V644.5H73.5V659.5ZM547 44.5L600.5 44.5L600.5 29.5L547 29.5L547 44.5ZM600.5 44.5C609.588 44.5 615.772 46.203 619.689 49.5512C623.363 52.6914 626.5 58.5632 626.5 70.5L641.5 70.5C641.5 56.0368 637.637 45.1586 629.436 38.1488C621.478 31.347 610.912 29.5 600.5 29.5L600.5 44.5ZM626.5 70.5V118H641.5V70.5H626.5ZM547 656.5H600.5V641.5H547V656.5ZM600.5 656.5C610.912 656.5 621.478 654.653 629.436 647.851C637.637 640.841 641.5 629.963 641.5 615.5L626.5 615.5C626.5 627.437 623.363 633.309 619.689 636.449C615.772 639.797 609.588 641.5 600.5 641.5L600.5 656.5ZM641.5 615.5V568H626.5V615.5H641.5Z" fill="url(#paint0_linear_7365_173967)"/>
<defs>
<linearGradient id="paint0_linear_7365_173967" x1="8" y1="342.5" x2="658" y2="342.5" gradientUnits="userSpaceOnUse">
<stop stop-color="#159EFA"/>
<stop offset="1" stop-color="#19BCFB"/>
</linearGradient>
</defs>
</svg>
