<svg width="344" height="92" viewBox="0 0 344 92" fill="none" xmlns="http://www.w3.org/2000/svg">
<g filter="url(#filter0_d_4560_151692)">
<path d="M103.494 47.14C102.467 47.14 101.547 46.9733 100.734 46.64C99.9205 46.3067 99.2672 45.8133 98.7738 45.16C98.2938 44.5067 98.0405 43.72 98.0138 42.8H101.654C101.707 43.32 101.887 43.72 102.194 44C102.5 44.2667 102.9 44.4 103.394 44.4C103.9 44.4 104.3 44.2867 104.594 44.06C104.887 43.82 105.034 43.4933 105.034 43.08C105.034 42.7333 104.914 42.4467 104.674 42.22C104.447 41.9933 104.16 41.8067 103.814 41.66C103.48 41.5133 103 41.3467 102.374 41.16C101.467 40.88 100.727 40.6 100.154 40.32C99.5805 40.04 99.0872 39.6267 98.6738 39.08C98.2605 38.5333 98.0538 37.82 98.0538 36.94C98.0538 35.6333 98.5272 34.6133 99.4738 33.88C100.42 33.1333 101.654 32.76 103.174 32.76C104.72 32.76 105.967 33.1333 106.914 33.88C107.86 34.6133 108.367 35.64 108.434 36.96H104.734C104.707 36.5067 104.54 36.1533 104.234 35.9C103.927 35.6333 103.534 35.5 103.054 35.5C102.64 35.5 102.307 35.6133 102.054 35.84C101.8 36.0533 101.674 36.3667 101.674 36.78C101.674 37.2333 101.887 37.5867 102.314 37.84C102.74 38.0933 103.407 38.3667 104.314 38.66C105.22 38.9667 105.954 39.26 106.514 39.54C107.087 39.82 107.58 40.2267 107.994 40.76C108.407 41.2933 108.614 41.98 108.614 42.82C108.614 43.62 108.407 44.3467 107.994 45C107.594 45.6533 107.007 46.1733 106.234 46.56C105.46 46.9467 104.547 47.14 103.494 47.14ZM117.539 47L114.139 42.32V47H110.719V32.2H114.139V40.38L117.519 35.84H121.739L117.099 41.44L121.779 47H117.539ZM124.802 34.68C124.202 34.68 123.708 34.5067 123.322 34.16C122.948 33.8 122.762 33.36 122.762 32.84C122.762 32.3067 122.948 31.8667 123.322 31.52C123.708 31.16 124.202 30.98 124.802 30.98C125.388 30.98 125.868 31.16 126.242 31.52C126.628 31.8667 126.822 32.3067 126.822 32.84C126.822 33.36 126.628 33.8 126.242 34.16C125.868 34.5067 125.388 34.68 124.802 34.68ZM126.502 35.84V47H123.082V35.84H126.502ZM132.4 37.42C132.734 36.9 133.194 36.48 133.78 36.16C134.367 35.84 135.054 35.68 135.84 35.68C136.76 35.68 137.594 35.9133 138.34 36.38C139.087 36.8467 139.674 37.5133 140.1 38.38C140.54 39.2467 140.76 40.2533 140.76 41.4C140.76 42.5467 140.54 43.56 140.1 44.44C139.674 45.3067 139.087 45.98 138.34 46.46C137.594 46.9267 136.76 47.16 135.84 47.16C135.067 47.16 134.38 47 133.78 46.68C133.194 46.36 132.734 45.9467 132.4 45.44V52.32H128.98V35.84H132.4V37.42ZM137.28 41.4C137.28 40.5467 137.04 39.88 136.56 39.4C136.094 38.9067 135.514 38.66 134.82 38.66C134.14 38.66 133.56 38.9067 133.08 39.4C132.614 39.8933 132.38 40.5667 132.38 41.42C132.38 42.2733 132.614 42.9467 133.08 43.44C133.56 43.9333 134.14 44.18 134.82 44.18C135.5 44.18 136.08 43.9333 136.56 43.44C137.04 42.9333 137.28 42.2533 137.28 41.4ZM153.013 44.1V47H151.273C150.033 47 149.066 46.7 148.373 46.1C147.679 45.4867 147.333 44.4933 147.333 43.12V38.68H145.973V35.84H147.333V33.12H150.753V35.84H152.993V38.68H150.753V43.16C150.753 43.4933 150.833 43.7333 150.993 43.88C151.153 44.0267 151.419 44.1 151.793 44.1H153.013ZM159.998 47.16C158.904 47.16 157.918 46.9267 157.038 46.46C156.171 45.9933 155.484 45.3267 154.978 44.46C154.484 43.5933 154.238 42.58 154.238 41.42C154.238 40.2733 154.491 39.2667 154.998 38.4C155.504 37.52 156.198 36.8467 157.078 36.38C157.958 35.9133 158.944 35.68 160.038 35.68C161.131 35.68 162.118 35.9133 162.998 36.38C163.878 36.8467 164.571 37.52 165.078 38.4C165.584 39.2667 165.838 40.2733 165.838 41.42C165.838 42.5667 165.578 43.58 165.058 44.46C164.551 45.3267 163.851 45.9933 162.958 46.46C162.078 46.9267 161.091 47.16 159.998 47.16ZM159.998 44.2C160.651 44.2 161.204 43.96 161.658 43.48C162.124 43 162.358 42.3133 162.358 41.42C162.358 40.5267 162.131 39.84 161.678 39.36C161.238 38.88 160.691 38.64 160.038 38.64C159.371 38.64 158.818 38.88 158.378 39.36C157.938 39.8267 157.718 40.5133 157.718 41.42C157.718 42.3133 157.931 43 158.358 43.48C158.798 43.96 159.344 44.2 159.998 44.2ZM179.05 47L176.13 41.7H175.31V47H171.89V32.96H177.63C178.737 32.96 179.677 33.1533 180.45 33.54C181.237 33.9267 181.824 34.46 182.21 35.14C182.597 35.8067 182.79 36.5533 182.79 37.38C182.79 38.3133 182.524 39.1467 181.99 39.88C181.47 40.6133 180.697 41.1333 179.67 41.44L182.91 47H179.05ZM175.31 39.28H177.43C178.057 39.28 178.524 39.1267 178.83 38.82C179.15 38.5133 179.31 38.08 179.31 37.52C179.31 36.9867 179.15 36.5667 178.83 36.26C178.524 35.9533 178.057 35.8 177.43 35.8H175.31V39.28ZM195.457 41.24C195.457 41.56 195.437 41.8933 195.397 42.24H187.657C187.711 42.9333 187.931 43.4667 188.317 43.84C188.717 44.2 189.204 44.38 189.777 44.38C190.631 44.38 191.224 44.02 191.557 43.3H195.197C195.011 44.0333 194.671 44.6933 194.177 45.28C193.697 45.8667 193.091 46.3267 192.357 46.66C191.624 46.9933 190.804 47.16 189.897 47.16C188.804 47.16 187.831 46.9267 186.977 46.46C186.124 45.9933 185.457 45.3267 184.977 44.46C184.497 43.5933 184.257 42.58 184.257 41.42C184.257 40.26 184.491 39.2467 184.957 38.38C185.437 37.5133 186.104 36.8467 186.957 36.38C187.811 35.9133 188.791 35.68 189.897 35.68C190.977 35.68 191.937 35.9067 192.777 36.36C193.617 36.8133 194.271 37.46 194.737 38.3C195.217 39.14 195.457 40.12 195.457 41.24ZM191.957 40.34C191.957 39.7533 191.757 39.2867 191.357 38.94C190.957 38.5933 190.457 38.42 189.857 38.42C189.284 38.42 188.797 38.5867 188.397 38.92C188.011 39.2533 187.771 39.7267 187.677 40.34H191.957ZM201.801 47.16C200.828 47.16 199.961 46.9933 199.201 46.66C198.441 46.3267 197.841 45.8733 197.401 45.3C196.961 44.7133 196.715 44.06 196.661 43.34H200.041C200.081 43.7267 200.261 44.04 200.581 44.28C200.901 44.52 201.295 44.64 201.761 44.64C202.188 44.64 202.515 44.56 202.741 44.4C202.981 44.2267 203.101 44.0067 203.101 43.74C203.101 43.42 202.935 43.1867 202.601 43.04C202.268 42.88 201.728 42.7067 200.981 42.52C200.181 42.3333 199.515 42.14 198.981 41.94C198.448 41.7267 197.988 41.4 197.601 40.96C197.215 40.5067 197.021 39.9 197.021 39.14C197.021 38.5 197.195 37.92 197.541 37.4C197.901 36.8667 198.421 36.4467 199.101 36.14C199.795 35.8333 200.615 35.68 201.561 35.68C202.961 35.68 204.061 36.0267 204.861 36.72C205.675 37.4133 206.141 38.3333 206.261 39.48H203.101C203.048 39.0933 202.875 38.7867 202.581 38.56C202.301 38.3333 201.928 38.22 201.461 38.22C201.061 38.22 200.755 38.3 200.541 38.46C200.328 38.6067 200.221 38.8133 200.221 39.08C200.221 39.4 200.388 39.64 200.721 39.8C201.068 39.96 201.601 40.12 202.321 40.28C203.148 40.4933 203.821 40.7067 204.341 40.92C204.861 41.12 205.315 41.4533 205.701 41.92C206.101 42.3733 206.308 42.9867 206.321 43.76C206.321 44.4133 206.135 45 205.761 45.52C205.401 46.0267 204.875 46.4267 204.181 46.72C203.501 47.0133 202.708 47.16 201.801 47.16ZM219.434 35.84V47H216.014V45.48C215.667 45.9733 215.194 46.3733 214.594 46.68C214.007 46.9733 213.354 47.12 212.634 47.12C211.78 47.12 211.027 46.9333 210.374 46.56C209.72 46.1733 209.214 45.62 208.854 44.9C208.494 44.18 208.314 43.3333 208.314 42.36V35.84H211.714V41.9C211.714 42.6467 211.907 43.2267 212.294 43.64C212.68 44.0533 213.2 44.26 213.854 44.26C214.52 44.26 215.047 44.0533 215.434 43.64C215.82 43.2267 216.014 42.6467 216.014 41.9V35.84H219.434ZM225.31 32.2V47H221.89V32.2H225.31ZM234.009 44.1V47H232.269C231.029 47 230.062 46.7 229.369 46.1C228.675 45.4867 228.329 44.4933 228.329 43.12V38.68H226.969V35.84H228.329V33.12H231.749V35.84H233.989V38.68H231.749V43.16C231.749 43.4933 231.829 43.7333 231.989 43.88C232.149 44.0267 232.415 44.1 232.789 44.1H234.009ZM240.454 47.16C239.48 47.16 238.614 46.9933 237.854 46.66C237.094 46.3267 236.494 45.8733 236.054 45.3C235.614 44.7133 235.367 44.06 235.314 43.34H238.694C238.734 43.7267 238.914 44.04 239.234 44.28C239.554 44.52 239.947 44.64 240.414 44.64C240.84 44.64 241.167 44.56 241.394 44.4C241.634 44.2267 241.754 44.0067 241.754 43.74C241.754 43.42 241.587 43.1867 241.254 43.04C240.92 42.88 240.38 42.7067 239.634 42.52C238.834 42.3333 238.167 42.14 237.634 41.94C237.1 41.7267 236.64 41.4 236.254 40.96C235.867 40.5067 235.674 39.9 235.674 39.14C235.674 38.5 235.847 37.92 236.194 37.4C236.554 36.8667 237.074 36.4467 237.754 36.14C238.447 35.8333 239.267 35.68 240.214 35.68C241.614 35.68 242.714 36.0267 243.514 36.72C244.327 37.4133 244.794 38.3333 244.914 39.48H241.754C241.7 39.0933 241.527 38.7867 241.234 38.56C240.954 38.3333 240.58 38.22 240.114 38.22C239.714 38.22 239.407 38.3 239.194 38.46C238.98 38.6067 238.874 38.8133 238.874 39.08C238.874 39.4 239.04 39.64 239.374 39.8C239.72 39.96 240.254 40.12 240.974 40.28C241.8 40.4933 242.474 40.7067 242.994 40.92C243.514 41.12 243.967 41.4533 244.354 41.92C244.754 42.3733 244.96 42.9867 244.974 43.76C244.974 44.4133 244.787 45 244.414 45.52C244.054 46.0267 243.527 46.4267 242.834 46.72C242.154 47.0133 241.36 47.16 240.454 47.16Z" fill="url(#paint0_linear_4560_151692)"/>
<path d="M46 21H298V13H46V21ZM298 61H46V69H298V61ZM46 61C34.9543 61 26 52.0457 26 41H18C18 56.464 30.536 69 46 69V61ZM318 41C318 52.0457 309.046 61 298 61V69C313.464 69 326 56.464 326 41H318ZM298 21C309.046 21 318 29.9543 318 41H326C326 25.536 313.464 13 298 13V21ZM46 13C30.536 13 18 25.536 18 41H26C26 29.9543 34.9543 21 46 21V13Z" fill="url(#paint1_linear_4560_151692)"/>
</g>
<defs>
<filter id="filter0_d_4560_151692" x="0" y="0" width="344" height="92" filterUnits="userSpaceOnUse" color-interpolation-filters="sRGB">
<feFlood flood-opacity="0" result="BackgroundImageFix"/>
<feColorMatrix in="SourceAlpha" type="matrix" values="0 0 0 0 0 0 0 0 0 0 0 0 0 0 0 0 0 0 127 0" result="hardAlpha"/>
<feOffset dy="5"/>
<feGaussianBlur stdDeviation="11"/>
<feColorMatrix type="matrix" values="0 0 0 0 0.278431 0 0 0 0 0.85098 0 0 0 0 1 0 0 0 0.3 0"/>
<feBlend mode="normal" in2="BackgroundImageFix" result="effect1_dropShadow_4560_151692"/>
<feBlend mode="normal" in="SourceGraphic" in2="effect1_dropShadow_4560_151692" result="shape"/>
</filter>
<linearGradient id="paint0_linear_4560_151692" x1="97" y1="40" x2="246" y2="40" gradientUnits="userSpaceOnUse">
<stop stop-color="#159EFA"/>
<stop offset="1" stop-color="#19BCFB"/>
</linearGradient>
<linearGradient id="paint1_linear_4560_151692" x1="22" y1="41" x2="322" y2="41" gradientUnits="userSpaceOnUse">
<stop stop-color="#159EFA"/>
<stop offset="1" stop-color="#19BCFB"/>
</linearGradient>
</defs>
</svg>
