<svg width="235" height="40" viewBox="0 0 235 40" fill="none" xmlns="http://www.w3.org/2000/svg">
<path d="M0.931152 19.7241C0.931152 8.8308 9.76195 0 20.6553 0H214.483C225.376 0 234.207 8.8308 234.207 19.7241V19.7241C234.207 30.6175 225.376 39.4483 214.483 39.4483H20.6553C9.76194 39.4483 0.931152 30.6175 0.931152 19.7241V19.7241Z" fill="url(#paint0_linear_7385_173744)"/>
<path d="M64.0227 26.3131C62.9907 26.3131 62.0659 26.1456 61.2484 25.8105C60.4308 25.4754 59.7741 24.9796 59.2782 24.3228C58.7958 23.6661 58.5411 22.8754 58.5143 21.9506H62.1731C62.2268 22.4733 62.4077 22.8754 62.7159 23.1568C63.0242 23.4249 63.4263 23.5589 63.9221 23.5589C64.4314 23.5589 64.8335 23.445 65.1284 23.2172C65.4232 22.9759 65.5706 22.6476 65.5706 22.2321C65.5706 21.8836 65.45 21.5955 65.2088 21.3676C64.9809 21.1398 64.6928 20.9522 64.3443 20.8047C64.0093 20.6573 63.5268 20.4898 62.8969 20.3022C61.9855 20.0207 61.2417 19.7393 60.6654 19.4578C60.0891 19.1764 59.5932 18.7609 59.1777 18.2114C58.7623 17.6619 58.5545 16.9449 58.5545 16.0603C58.5545 14.7469 59.0303 13.7216 59.9819 12.9845C60.9334 12.234 62.1731 11.8587 63.701 11.8587C65.2557 11.8587 66.5088 12.234 67.4604 12.9845C68.4119 13.7216 68.9212 14.7536 68.9882 16.0804H65.2691C65.2423 15.6248 65.0747 15.2696 64.7665 15.0149C64.4582 14.7469 64.0629 14.6129 63.5804 14.6129C63.1649 14.6129 62.8299 14.7268 62.5752 14.9546C62.3206 15.1691 62.1932 15.484 62.1932 15.8995C62.1932 16.3552 62.4077 16.7103 62.8366 16.965C63.2654 17.2196 63.9355 17.4944 64.8469 17.7892C65.7583 18.0975 66.4954 18.3923 67.0583 18.6738C67.6346 18.9552 68.1305 19.364 68.5459 19.9001C68.9614 20.4362 69.1691 21.1264 69.1691 21.9707C69.1691 22.7749 68.9614 23.5053 68.5459 24.162C68.1439 24.8187 67.5542 25.3414 66.7768 25.7301C65.9995 26.1188 65.0814 26.3131 64.0227 26.3131ZM77.5369 23.2574V26.1724H75.7879C74.5415 26.1724 73.5698 25.8708 72.8729 25.2677C72.176 24.6512 71.8275 23.6527 71.8275 22.2723V17.8093H70.4605V14.9546H71.8275V12.2206H75.2652V14.9546H77.5168V17.8093H75.2652V22.3125C75.2652 22.6476 75.3456 22.8888 75.5064 23.0362C75.6673 23.1837 75.9353 23.2574 76.3106 23.2574H77.5369ZM78.7682 20.5434C78.7682 19.3908 78.9827 18.3789 79.4115 17.5078C79.8538 16.6366 80.4502 15.9665 81.2007 15.4974C81.9513 15.0284 82.7889 14.7938 83.7137 14.7938C84.5044 14.7938 85.1946 14.9546 85.7843 15.2763C86.3874 15.5979 86.8498 16.0201 87.1715 16.5428V14.9546H90.6092V26.1724H87.1715V24.5842C86.8364 25.1069 86.3673 25.5291 85.7642 25.8507C85.1745 26.1724 84.4843 26.3332 83.6936 26.3332C82.7822 26.3332 81.9513 26.0987 81.2007 25.6296C80.4502 25.1471 79.8538 24.4703 79.4115 23.5991C78.9827 22.7146 78.7682 21.696 78.7682 20.5434ZM87.1715 20.5635C87.1715 19.7058 86.9302 19.0289 86.4477 18.5331C85.9787 18.0372 85.4024 17.7892 84.7188 17.7892C84.0353 17.7892 83.4523 18.0372 82.9698 18.5331C82.5008 19.0155 82.2662 19.6857 82.2662 20.5434C82.2662 21.4011 82.5008 22.0847 82.9698 22.5939C83.4523 23.0898 84.0353 23.3378 84.7188 23.3378C85.4024 23.3378 85.9787 23.0898 86.4477 22.5939C86.9302 22.0981 87.1715 21.4212 87.1715 20.5635ZM96.5339 16.8243C96.9359 16.2078 97.4385 15.7253 98.0416 15.3768C98.6447 15.0149 99.3148 14.834 100.052 14.834V18.4727H99.1071C98.2494 18.4727 97.606 18.6604 97.1772 19.0356C96.7483 19.3975 96.5339 20.0408 96.5339 20.9656V26.1724H93.0962V14.9546H96.5339V16.8243ZM107.947 23.2574V26.1724H106.198C104.952 26.1724 103.98 25.8708 103.283 25.2677C102.586 24.6512 102.238 23.6527 102.238 22.2723V17.8093H100.871V14.9546H102.238V12.2206H105.676V14.9546H107.927V17.8093H105.676V22.3125C105.676 22.6476 105.756 22.8888 105.917 23.0362C106.078 23.1837 106.346 23.2574 106.721 23.2574H107.947ZM123.491 16.5227C123.236 16.0536 122.867 15.6985 122.385 15.4572C121.916 15.2026 121.36 15.0753 120.716 15.0753C119.604 15.0753 118.713 15.4438 118.043 16.1809C117.372 16.9047 117.037 17.8763 117.037 19.0959C117.037 20.396 117.386 21.4145 118.083 22.1517C118.793 22.8754 119.765 23.2373 120.998 23.2373C121.842 23.2373 122.552 23.0228 123.129 22.5939C123.718 22.1651 124.147 21.5486 124.415 20.7444H120.053V18.2114H127.531V21.4078C127.277 22.2656 126.841 23.063 126.225 23.8002C125.622 24.5373 124.851 25.1337 123.913 25.5894C122.975 26.045 121.916 26.2729 120.736 26.2729C119.343 26.2729 118.096 25.9713 116.997 25.3682C115.912 24.7517 115.061 23.9007 114.444 22.8151C113.841 21.7295 113.539 20.4898 113.539 19.0959C113.539 17.7021 113.841 16.4624 114.444 15.3768C115.061 14.2778 115.912 13.4268 116.997 12.8237C118.083 12.2072 119.322 11.8989 120.716 11.8989C122.405 11.8989 123.826 12.3077 124.978 13.1252C126.144 13.9428 126.915 15.0753 127.29 16.5227H123.491ZM128.752 20.5434C128.752 19.3908 128.966 18.3789 129.395 17.5078C129.838 16.6366 130.434 15.9665 131.185 15.4974C131.935 15.0284 132.773 14.7938 133.697 14.7938C134.488 14.7938 135.178 14.9546 135.768 15.2763C136.371 15.5979 136.834 16.0201 137.155 16.5428V14.9546H140.593V26.1724H137.155V24.5842C136.82 25.1069 136.351 25.5291 135.748 25.8507C135.158 26.1724 134.468 26.3332 133.677 26.3332C132.766 26.3332 131.935 26.0987 131.185 25.6296C130.434 25.1471 129.838 24.4703 129.395 23.5991C128.966 22.7146 128.752 21.696 128.752 20.5434ZM137.155 20.5635C137.155 19.7058 136.914 19.0289 136.432 18.5331C135.962 18.0372 135.386 17.7892 134.703 17.7892C134.019 17.7892 133.436 18.0372 132.954 18.5331C132.485 19.0155 132.25 19.6857 132.25 20.5434C132.25 21.4011 132.485 22.0847 132.954 22.5939C133.436 23.0898 134.019 23.3378 134.703 23.3378C135.386 23.3378 135.962 23.0898 136.432 22.5939C136.914 22.0981 137.155 21.4212 137.155 20.5635ZM157.394 14.834C158.787 14.834 159.893 15.2562 160.711 16.1005C161.542 16.9449 161.957 18.1176 161.957 19.6186V26.1724H158.539V20.081C158.539 19.3573 158.345 18.8011 157.956 18.4124C157.581 18.0104 157.059 17.8093 156.388 17.8093C155.718 17.8093 155.189 18.0104 154.8 18.4124C154.425 18.8011 154.237 19.3573 154.237 20.081V26.1724H150.82V20.081C150.82 19.3573 150.625 18.8011 150.237 18.4124C149.862 18.0104 149.339 17.8093 148.669 17.8093C147.999 17.8093 147.469 18.0104 147.081 18.4124C146.705 18.8011 146.518 19.3573 146.518 20.081V26.1724H143.08V14.9546H146.518V16.3619C146.866 15.8928 147.322 15.5242 147.885 15.2562C148.448 14.9747 149.084 14.834 149.794 14.834C150.639 14.834 151.389 15.0149 152.046 15.3768C152.716 15.7387 153.239 16.2547 153.614 16.9248C154.003 16.3083 154.532 15.8057 155.202 15.417C155.872 15.0284 156.603 14.834 157.394 14.834ZM174.936 20.3826C174.936 20.7042 174.916 21.0393 174.875 21.3877H167.095C167.149 22.0847 167.37 22.6208 167.759 22.996C168.161 23.3579 168.65 23.5388 169.226 23.5388C170.084 23.5388 170.681 23.1769 171.016 22.4532H174.674C174.487 23.1904 174.145 23.8538 173.649 24.4435C173.167 25.0332 172.557 25.4955 171.82 25.8306C171.083 26.1657 170.258 26.3332 169.347 26.3332C168.248 26.3332 167.27 26.0987 166.412 25.6296C165.554 25.1605 164.884 24.4904 164.402 23.6192C163.919 22.7481 163.678 21.7295 163.678 20.5635C163.678 19.3975 163.912 18.3789 164.381 17.5078C164.864 16.6366 165.534 15.9665 166.392 15.4974C167.25 15.0284 168.235 14.7938 169.347 14.7938C170.433 14.7938 171.398 15.0216 172.242 15.4773C173.086 15.933 173.743 16.583 174.212 17.4274C174.695 18.2717 174.936 19.2568 174.936 20.3826ZM171.418 19.4779C171.418 18.8882 171.217 18.4191 170.815 18.0707C170.412 17.7222 169.91 17.548 169.307 17.548C168.73 17.548 168.241 17.7155 167.839 18.0506C167.451 18.3856 167.209 18.8614 167.116 19.4779H171.418Z" fill="white"/>
<defs>
<linearGradient id="paint0_linear_7385_173744" x1="0.931151" y1="19.7241" x2="234.207" y2="19.7241" gradientUnits="userSpaceOnUse">
<stop stop-color="#FC1047"/>
<stop offset="1" stop-color="#FC2468"/>
</linearGradient>
</defs>
</svg>
