<svg width="234" height="40" viewBox="0 0 234 40" fill="none" xmlns="http://www.w3.org/2000/svg">
<path d="M0 19.7241C0 8.8308 8.8308 0 19.7241 0H213.552C224.445 0 233.276 8.8308 233.276 19.7241V19.7241C233.276 30.6175 224.445 39.4483 213.552 39.4483H19.7241C8.83079 39.4483 0 30.6175 0 19.7241V19.7241Z" fill="url(#paint0_linear_7427_174825)"/>
<path d="M63.6774 26.0719C62.6455 26.0719 61.7207 25.9043 60.9032 25.5693C60.0856 25.2342 59.4289 24.7383 58.933 24.0816C58.4505 23.4249 58.1959 22.6342 58.1691 21.7094H61.8279C61.8815 22.2321 62.0625 22.6342 62.3707 22.9156C62.679 23.1837 63.081 23.3177 63.5769 23.3177C64.0862 23.3177 64.4883 23.2038 64.7831 22.9759C65.078 22.7347 65.2254 22.4063 65.2254 21.9909C65.2254 21.6424 65.1048 21.3543 64.8636 21.1264C64.6357 20.8986 64.3476 20.711 63.9991 20.5635C63.664 20.4161 63.1816 20.2486 62.5517 20.0609C61.6403 19.7795 60.8965 19.498 60.3202 19.2166C59.7439 18.9352 59.248 18.5197 58.8325 17.9702C58.417 17.4207 58.2093 16.7037 58.2093 15.8191C58.2093 14.5057 58.6851 13.4804 59.6367 12.7433C60.5882 11.9928 61.8279 11.6175 63.3558 11.6175C64.9105 11.6175 66.1636 11.9928 67.1151 12.7433C68.0667 13.4804 68.576 14.5124 68.643 15.8392H64.9239C64.8971 15.3835 64.7295 15.0284 64.4213 14.7737C64.113 14.5057 63.7177 14.3717 63.2352 14.3717C62.8197 14.3717 62.4846 14.4856 62.23 14.7134C61.9754 14.9279 61.848 15.2428 61.848 15.6583C61.848 16.114 62.0625 16.4691 62.4913 16.7238C62.9202 16.9784 63.5903 17.2532 64.5017 17.548C65.413 17.8563 66.1502 18.1511 66.7131 18.4326C67.2894 18.714 67.7853 19.1228 68.2007 19.6589C68.6162 20.195 68.8239 20.8852 68.8239 21.7295C68.8239 22.5337 68.6162 23.2641 68.2007 23.9208C67.7987 24.5775 67.209 25.1002 66.4316 25.4889C65.6543 25.8775 64.7362 26.0719 63.6774 26.0719ZM77.1917 23.0162V25.9312H75.4427C74.1963 25.9312 73.2246 25.6296 72.5277 25.0265C71.8308 24.41 71.4823 23.4115 71.4823 22.0311V17.5681H70.1153V14.7134H71.4823V11.9794H74.92V14.7134H77.1716V17.5681H74.92V22.0713C74.92 22.4063 75.0004 22.6476 75.1612 22.795C75.3221 22.9424 75.5901 23.0162 75.9654 23.0162H77.1917ZM78.423 20.3022C78.423 19.1496 78.6374 18.1377 79.0663 17.2666C79.5086 16.3954 80.105 15.7253 80.8555 15.2562C81.6061 14.7871 82.4437 14.5526 83.3685 14.5526C84.1592 14.5526 84.8494 14.7134 85.4391 15.0351C86.0422 15.3567 86.5046 15.7789 86.8263 16.3016V14.7134H90.2639V25.9312H86.8263V24.343C86.4912 24.8657 86.0221 25.2878 85.419 25.6095C84.8293 25.9312 84.1391 26.092 83.3484 26.092C82.437 26.092 81.6061 25.8574 80.8555 25.3884C80.105 24.9059 79.5086 24.2291 79.0663 23.3579C78.6374 22.4734 78.423 21.4548 78.423 20.3022ZM86.8263 20.3223C86.8263 19.4645 86.585 18.7877 86.1025 18.2918C85.6334 17.796 85.0572 17.548 84.3736 17.548C83.6901 17.548 83.1071 17.796 82.6246 18.2918C82.1556 18.7743 81.921 19.4444 81.921 20.3022C81.921 21.1599 82.1556 21.8435 82.6246 22.3527C83.1071 22.8486 83.6901 23.0966 84.3736 23.0966C85.0572 23.0966 85.6334 22.8486 86.1025 22.3527C86.585 21.8569 86.8263 21.18 86.8263 20.3223ZM96.1887 16.583C96.5907 15.9665 97.0933 15.4841 97.6964 15.1356C98.2995 14.7737 98.9696 14.5928 99.7068 14.5928V18.2315H98.7619C97.9041 18.2315 97.2608 18.4192 96.832 18.7944C96.4031 19.1563 96.1887 19.7996 96.1887 20.7244V25.9312H92.751V14.7134H96.1887V16.583ZM107.602 23.0162V25.9312H105.853C104.607 25.9312 103.635 25.6296 102.938 25.0265C102.241 24.41 101.893 23.4115 101.893 22.0311V17.5681H100.526V14.7134H101.893V11.9794H105.33V14.7134H107.582V17.5681H105.33V22.0713C105.33 22.4063 105.411 22.6476 105.572 22.795C105.732 22.9424 106 23.0162 106.376 23.0162H107.602ZM123.145 16.2815C122.891 15.8124 122.522 15.4573 122.04 15.216C121.571 14.9614 121.014 14.834 120.371 14.834C119.259 14.834 118.367 15.2026 117.697 15.9397C117.027 16.6635 116.692 17.6351 116.692 18.8547C116.692 20.1548 117.041 21.1733 117.738 21.9105C118.448 22.6342 119.419 22.996 120.653 22.996C121.497 22.996 122.207 22.7816 122.783 22.3527C123.373 21.9239 123.802 21.3074 124.07 20.5032H119.708V17.9702H127.186V21.1666C126.931 22.0244 126.496 22.8218 125.879 23.5589C125.276 24.2961 124.506 24.8925 123.568 25.3482C122.629 25.8038 121.571 26.0317 120.391 26.0317C118.997 26.0317 117.751 25.7301 116.652 25.127C115.566 24.5105 114.715 23.6595 114.099 22.5739C113.496 21.4883 113.194 20.2486 113.194 18.8547C113.194 17.4609 113.496 16.2212 114.099 15.1356C114.715 14.0366 115.566 13.1856 116.652 12.5825C117.738 11.966 118.977 11.6577 120.371 11.6577C122.06 11.6577 123.48 12.0665 124.633 12.884C125.799 13.7016 126.57 14.834 126.945 16.2815H123.145ZM128.407 20.3022C128.407 19.1496 128.621 18.1377 129.05 17.2666C129.492 16.3954 130.089 15.7253 130.839 15.2562C131.59 14.7871 132.427 14.5526 133.352 14.5526C134.143 14.5526 134.833 14.7134 135.423 15.0351C136.026 15.3567 136.488 15.7789 136.81 16.3016V14.7134H140.248V25.9312H136.81V24.343C136.475 24.8657 136.006 25.2878 135.403 25.6095C134.813 25.9312 134.123 26.092 133.332 26.092C132.421 26.092 131.59 25.8574 130.839 25.3884C130.089 24.9059 129.492 24.2291 129.05 23.3579C128.621 22.4734 128.407 21.4548 128.407 20.3022ZM136.81 20.3223C136.81 19.4645 136.569 18.7877 136.086 18.2918C135.617 17.796 135.041 17.548 134.357 17.548C133.674 17.548 133.091 17.796 132.608 18.2918C132.139 18.7743 131.905 19.4444 131.905 20.3022C131.905 21.1599 132.139 21.8435 132.608 22.3527C133.091 22.8486 133.674 23.0966 134.357 23.0966C135.041 23.0966 135.617 22.8486 136.086 22.3527C136.569 21.8569 136.81 21.18 136.81 20.3223ZM157.048 14.5928C158.442 14.5928 159.548 15.015 160.365 15.8593C161.196 16.7037 161.612 17.8764 161.612 19.3774V25.9312H158.194V19.8398C158.194 19.1161 158 18.5599 157.611 18.1712C157.236 17.7692 156.713 17.5681 156.043 17.5681C155.373 17.5681 154.844 17.7692 154.455 18.1712C154.08 18.5599 153.892 19.1161 153.892 19.8398V25.9312H150.475V19.8398C150.475 19.1161 150.28 18.5599 149.892 18.1712C149.516 17.7692 148.994 17.5681 148.323 17.5681C147.653 17.5681 147.124 17.7692 146.735 18.1712C146.36 18.5599 146.172 19.1161 146.172 19.8398V25.9312H142.735V14.7134H146.172V16.1207C146.521 15.6516 146.977 15.283 147.539 15.015C148.102 14.7335 148.739 14.5928 149.449 14.5928C150.294 14.5928 151.044 14.7737 151.701 15.1356C152.371 15.4975 152.894 16.0135 153.269 16.6836C153.658 16.0671 154.187 15.5645 154.857 15.1758C155.527 14.7871 156.258 14.5928 157.048 14.5928ZM174.591 20.1414C174.591 20.463 174.57 20.7981 174.53 21.1465H166.75C166.804 21.8435 167.025 22.3795 167.414 22.7548C167.816 23.1167 168.305 23.2976 168.881 23.2976C169.739 23.2976 170.335 22.9357 170.67 22.212H174.329C174.142 22.9491 173.8 23.6126 173.304 24.2023C172.821 24.792 172.212 25.2543 171.474 25.5894C170.737 25.9245 169.913 26.092 169.002 26.092C167.903 26.092 166.924 25.8574 166.067 25.3884C165.209 24.9193 164.539 24.2492 164.056 23.378C163.574 22.5069 163.333 21.4883 163.333 20.3223C163.333 19.1563 163.567 18.1377 164.036 17.2666C164.519 16.3954 165.189 15.7253 166.047 15.2562C166.904 14.7871 167.889 14.5526 169.002 14.5526C170.087 14.5526 171.052 14.7804 171.897 15.2361C172.741 15.6918 173.398 16.3418 173.867 17.1862C174.349 18.0305 174.591 19.0156 174.591 20.1414ZM171.072 19.2367C171.072 18.647 170.871 18.1779 170.469 17.8295C170.067 17.481 169.565 17.3068 168.962 17.3068C168.385 17.3068 167.896 17.4743 167.494 17.8094C167.105 18.1444 166.864 18.6202 166.77 19.2367H171.072Z" fill="#C0BFBF"/>
<defs>
<linearGradient id="paint0_linear_7427_174825" x1="-1.73804e-06" y1="19.7241" x2="233.276" y2="19.7241" gradientUnits="userSpaceOnUse">
<stop stop-color="#A80E32"/>
<stop offset="1" stop-color="#B81A4A"/>
</linearGradient>
</defs>
</svg>
