<svg width="19" height="11" viewBox="0 0 19 11" fill="none" xmlns="http://www.w3.org/2000/svg">
<path d="M18.2757 1.0351C18.0219 0.781406 17.6778 0.638889 17.3189 0.638889C16.9601 0.638889 16.616 0.781406 16.3622 1.0351L9.6637 7.73359L2.96521 1.0351C2.70999 0.788596 2.36816 0.652198 2.01335 0.655281C1.65853 0.658364 1.31912 0.800681 1.06822 1.05158C0.817324 1.30248 0.675009 1.64189 0.671926 1.9967C0.668844 2.35151 0.805241 2.69334 1.05174 2.94857L8.70697 10.6038C8.96074 10.8575 9.30488 11 9.6637 11C10.0225 11 10.3667 10.8575 10.6204 10.6038L18.2757 2.94857C18.5294 2.6948 18.6719 2.35066 18.6719 1.99183C18.6719 1.633 18.5294 1.28887 18.2757 1.0351Z" fill="white"/>
</svg>
