<svg width="23" height="21" viewBox="0 0 23 21" fill="none" xmlns="http://www.w3.org/2000/svg">
<path d="M12.633 3.15752C12.9009 2.90159 13.2642 2.75781 13.643 2.75781C14.0219 2.75781 14.3852 2.90159 14.6531 3.15752L21.0817 9.30087C21.3495 9.55688 21.5 9.90406 21.5 10.2661C21.5 10.6281 21.3495 10.9752 21.0817 11.2312L14.6531 17.3746C14.3836 17.6233 14.0228 17.7609 13.6482 17.7578C13.2736 17.7546 12.9153 17.6111 12.6504 17.358C12.3856 17.1048 12.2353 16.7624 12.2321 16.4045C12.2288 16.0465 12.3728 15.7017 12.633 15.4442L16.5002 11.6312H2.92859C2.54971 11.6312 2.18634 11.4874 1.91843 11.2314C1.65051 10.9754 1.5 10.6281 1.5 10.2661C1.5 9.90398 1.65051 9.55674 1.91843 9.30072C2.18634 9.0447 2.54971 8.90087 2.92859 8.90087H16.5002L12.633 5.0879C12.3652 4.83189 12.2148 4.48471 12.2148 4.12271C12.2148 3.76071 12.3652 3.41353 12.633 3.15752Z" fill="white"/>
</svg>
