<svg width="23" height="21" viewBox="0 0 23 21" fill="none" xmlns="http://www.w3.org/2000/svg">
<path d="M10.367 17.1472C10.0991 17.4031 9.73577 17.5469 9.35696 17.5469C8.97815 17.5469 8.61484 17.4031 8.34694 17.1472L1.91827 11.0038C1.65045 10.7478 1.5 10.4006 1.5 10.0386C1.5 9.67663 1.65045 9.32946 1.91827 9.07345L8.34694 2.9301C8.61638 2.68142 8.97724 2.54382 9.35182 2.54693C9.72639 2.55004 10.0847 2.69361 10.3496 2.94673C10.6144 3.19985 10.7647 3.54225 10.7679 3.9002C10.7712 4.25815 10.6272 4.603 10.367 4.86048L6.49977 8.67345L20.0714 8.67345C20.4503 8.67345 20.8137 8.81728 21.0816 9.0733C21.3495 9.32932 21.5 9.67656 21.5 10.0386C21.5 10.4007 21.3495 10.7479 21.0816 11.004C20.8137 11.26 20.4503 11.4038 20.0714 11.4038L6.49977 11.4038L10.367 15.2168C10.6348 15.4728 10.7852 15.82 10.7852 16.182C10.7852 16.544 10.6348 16.8912 10.367 17.1472Z" fill="white"/>
</svg>
