<svg width="249" height="285" viewBox="0 0 249 285" fill="none" xmlns="http://www.w3.org/2000/svg">
<g clip-path="url(#clip0_37483_134281)">
<path d="M158.388 198.921C158.388 198.921 170.202 191.024 177.514 174.755C177.514 174.755 184.916 157.544 177.149 150.312C177.149 150.312 170.796 144.5 165.185 151.362C165.185 151.362 165.24 183.798 154.187 200.685C154.187 200.685 153.944 201.571 154.487 201.634C154.963 201.704 156.047 201.167 158.388 198.921Z" fill="url(#paint0_linear_37483_134281)"/>
<path d="M180.437 152.948C180.891 151.178 180.445 149.533 179.439 149.278C178.434 149.022 177.253 150.251 176.799 152.021C176.348 153.792 176.795 155.436 177.801 155.692C177.842 155.701 177.887 155.711 177.928 155.716C178.904 155.841 180.004 154.644 180.437 152.948Z" fill="url(#paint1_linear_37483_134281)"/>
<path d="M175.899 149.042C176.35 147.271 175.903 145.627 174.898 145.371C173.896 145.116 172.711 146.344 172.261 148.115C171.807 149.885 172.253 151.53 173.259 151.785C173.3 151.795 173.345 151.804 173.387 151.81C174.363 151.935 175.463 150.738 175.899 149.042Z" fill="url(#paint2_linear_37483_134281)"/>
<path d="M168.442 151.11C169.472 151.016 170.173 149.461 169.997 147.639C169.825 145.818 168.851 144.424 167.817 144.518C166.787 144.615 166.086 146.17 166.263 147.988C166.421 149.669 167.261 150.986 168.2 151.106C168.282 151.117 168.362 151.119 168.442 151.11Z" fill="url(#paint3_linear_37483_134281)"/>
<path d="M88.2898 200.001C88.2898 200.001 76.9838 191.392 70.6855 174.704C70.6855 174.704 64.3563 157.071 72.5533 150.33C72.5533 150.33 79.2511 144.919 84.4299 152.114C84.4299 152.114 82.3799 184.485 92.3736 202.019C92.3736 202.019 92.5619 202.919 92.0167 202.949C91.5369 202.989 90.4875 202.386 88.2898 200.001Z" fill="url(#paint4_linear_37483_134281)"/>
<path d="M81.1914 151.67C80.1693 151.513 79.5656 149.918 79.853 148.11C80.1365 146.303 81.1945 144.972 82.2207 145.129C83.2431 145.289 83.8467 146.884 83.5591 148.688C83.298 150.356 82.3777 151.619 81.4333 151.681C81.3507 151.687 81.2714 151.684 81.1914 151.67Z" fill="url(#paint5_linear_37483_134281)"/>
<path d="M73.8774 149.144C73.5367 147.349 74.0836 145.735 75.103 145.541C76.1187 145.348 77.2254 146.647 77.566 148.442C77.9104 150.237 77.3636 151.851 76.3441 152.044C76.3025 152.051 76.2571 152.058 76.2152 152.061C75.2332 152.126 74.2091 150.863 73.8774 149.144Z" fill="url(#paint6_linear_37483_134281)"/>
<path d="M69.1052 152.761C68.7608 150.966 69.3077 149.352 70.3271 149.159C71.3465 148.965 72.4494 150.264 72.7938 152.059C73.1344 153.854 72.5875 155.468 71.5681 155.661C71.5265 155.668 71.4811 155.675 71.4392 155.678C70.4572 155.743 69.4332 154.481 69.1052 152.761Z" fill="url(#paint7_linear_37483_134281)"/>
<path d="M121.649 218.716C123.603 223.441 120.862 240.795 119.694 247.49C119.47 248.879 120.525 250.133 121.941 250.133H131.241C134.161 250.133 134.318 245.789 131.398 245.61C130.994 245.587 130.612 245.565 130.23 245.565C128.276 245.542 127.265 243.281 128.523 241.803C136.048 233.025 140.631 221.336 142.001 217.552C142.406 216.41 141.844 215.156 140.721 214.685C139.058 214.014 136.385 213.678 133.555 213.678C127.287 213.678 120.256 215.335 121.649 218.716Z" fill="url(#paint8_linear_37483_134281)"/>
<path d="M96.3802 248.982C95.2569 249.452 94.6953 250.706 95.0997 251.848C96.47 255.632 101.053 267.321 108.578 276.1C109.836 277.577 108.826 279.839 106.871 279.862C106.489 279.862 106.107 279.884 105.703 279.906C102.783 280.085 102.94 284.43 105.86 284.43H115.161C116.576 284.43 117.632 283.176 117.407 281.787C116.239 275.092 113.498 257.737 115.453 253.012C116.845 249.631 109.814 247.974 103.546 247.974C100.716 247.974 98.0425 248.31 96.3802 248.982Z" fill="url(#paint9_linear_37483_134281)"/>
<path d="M135.048 253.012C137.002 257.737 134.261 275.092 133.093 281.787C132.868 283.176 133.924 284.43 135.34 284.43H144.64C147.56 284.43 147.717 280.085 144.797 279.906C144.393 279.884 144.011 279.862 143.629 279.862C141.675 279.839 140.664 277.577 141.922 276.1C149.447 267.321 154.03 255.632 155.4 251.848C155.805 250.706 155.243 249.452 154.12 248.982C152.457 248.31 149.784 247.974 146.954 247.974C140.686 247.974 133.655 249.631 135.048 253.012Z" fill="url(#paint10_linear_37483_134281)"/>
<path d="M148.615 158.446C145.377 160.567 138.937 168.581 141.084 171.791C143.211 175 153.115 172.203 156.353 170.083C159.573 167.943 160.458 163.626 158.312 160.398C156.956 158.371 154.734 157.283 152.475 157.283C151.138 157.283 149.801 157.658 148.615 158.446Z" fill="url(#paint11_linear_37483_134281)"/>
<path d="M158.005 165.562C158.005 162.289 156.367 160.336 152.394 160.336C148.422 160.336 146.922 165.138 146.922 167.184C146.922 169.742 147.922 171.09 151.45 171.09C154.978 171.09 158.005 168.835 158.005 165.562Z" fill="url(#paint12_linear_37483_134281)"/>
<path d="M89.8789 160.398C87.7513 163.626 88.6174 167.943 91.837 170.083C95.0755 172.203 104.979 175 107.107 171.791C109.253 168.581 102.814 160.567 99.5754 158.446C98.3892 157.658 97.0524 157.283 95.7156 157.283C93.4562 157.283 91.2345 158.371 89.8789 160.398Z" fill="url(#paint13_linear_37483_134281)"/>
<path d="M90.1875 165.562C90.1875 162.289 91.8255 160.336 95.798 160.336C99.7705 160.336 101.271 165.138 101.271 167.184C101.271 169.742 100.27 171.09 96.7426 171.09C93.2149 171.09 90.1875 168.835 90.1875 165.562Z" fill="url(#paint14_linear_37483_134281)"/>
<path fill-rule="evenodd" clip-rule="evenodd" d="M127.027 149.9C127.027 153.124 125.956 155.737 124.634 155.737C123.313 155.737 122.242 153.124 122.242 149.9C122.242 146.676 123.313 144.062 124.634 144.062C125.956 144.062 127.027 146.676 127.027 149.9Z" fill="url(#paint15_linear_37483_134281)"/>
<path d="M126.625 151.007C124.736 153.619 124.075 156.365 125.145 157.134C126.215 157.903 128.616 156.412 130.513 153.792C132.402 151.179 133.063 148.433 131.992 147.664C131.803 147.531 131.567 147.46 131.3 147.46C130.08 147.46 128.183 148.857 126.625 151.007Z" fill="url(#paint16_linear_37483_134281)"/>
<path d="M117.278 147.665C116.208 148.434 116.869 151.18 118.757 153.792C120.654 156.412 123.054 157.903 124.125 157.134C125.195 156.365 124.534 153.619 122.645 151.007C121.087 148.857 119.19 147.461 117.97 147.461C117.703 147.461 117.467 147.532 117.278 147.665Z" fill="url(#paint17_linear_37483_134281)"/>
<path d="M154.486 201.635C154.963 201.704 156.047 201.168 158.388 198.922C158.401 198.913 160.535 197.481 163.548 194.593C163.428 193.918 163.305 193.24 163.178 192.559C163.178 192.559 162.319 188.837 161.091 183.943C159.493 190.04 157.274 195.969 154.187 200.686C154.185 200.693 153.946 201.572 154.486 201.635Z" fill="#147497"/>
<path d="M92.0146 202.951C92.5539 202.922 92.375 202.041 92.3711 202.023C89.9279 197.736 88.2056 192.562 86.9961 187.192C86.3872 190.212 85.7836 193.565 85.2188 197.247C87.0735 199.078 88.2881 200.003 88.2881 200.003C90.4858 202.388 91.5348 202.991 92.0146 202.951Z" fill="#147497"/>
<path d="M94.4814 168.914C94.4814 168.914 85.1365 192.597 84.8197 237.594C84.8197 237.594 80.86 274.381 124.575 274.302C124.575 274.302 156.887 276.749 163.222 249.672C163.222 249.672 166.073 224.805 160.371 193.465C160.371 193.465 155.461 171.44 152.531 164.809C152.531 164.809 145.799 152.81 124.575 152.258C124.575 152.258 124.338 152.179 123.942 152.179C120.299 152.179 101.371 152.968 94.4814 168.914Z" fill="url(#paint18_linear_37483_134281)"/>
<ellipse cx="125.024" cy="179.008" rx="28.8833" ry="24.8362" fill="url(#paint19_linear_37483_134281)"/>
<path d="M149.414 214.582C149.414 221.241 138.252 226.641 124.48 226.641C110.711 226.641 99.5468 219.624 99.5468 214.582C99.5468 207.914 110.711 212.941 124.48 212.941C138.252 212.941 149.414 207.914 149.414 214.582Z" fill="#FFF8E1"/>
<path d="M124.633 211.754C110.867 211.754 99.6953 206.727 99.6953 213.386C99.6953 220.046 110.867 225.458 124.633 225.458C138.399 225.458 149.57 220.046 149.57 213.386C149.57 210.726 147.785 209.937 144.785 209.937C140.258 209.937 132.915 211.754 124.633 211.754Z" fill="url(#paint20_linear_37483_134281)"/>
<path d="M113.031 224.068C116.499 224.952 120.439 225.448 124.636 225.448C128.759 225.448 132.649 224.969 136.075 224.109C133.985 222.513 130.733 220.446 128.958 221.347C126.212 222.761 123.525 222.496 121.55 221.479C121.019 221.198 120.323 221.033 119.51 221.033C117.726 221.033 115.387 221.843 113.031 224.068Z" fill="url(#paint21_radial_37483_134281)"/>
<path opacity="0.3" d="M128.345 231.751C127.174 231.89 125.933 231.969 124.636 231.969C123.501 231.969 122.406 231.908 121.362 231.799C111.588 230.615 107.029 226.124 108.746 226.606C110.162 226.763 114.555 228.69 120.132 229.333C121.579 229.505 123.097 229.603 124.636 229.597C126.3 229.604 127.941 229.489 129.493 229.287C134.905 228.611 139.139 226.757 140.526 226.606C142.21 226.141 137.829 230.465 128.345 231.751Z" fill="#181D1B"/>
<path d="M102.861 210.038C102.828 210.254 102.815 210.47 102.815 210.703C102.815 212.924 104.224 214.719 105.966 214.719C107.704 214.719 109.117 212.924 109.117 210.703C109.117 210.572 109.111 210.441 109.097 210.31C107.356 210.09 105.805 209.936 104.487 209.936C103.896 209.936 103.354 209.966 102.861 210.038Z" fill="url(#paint22_linear_37483_134281)"/>
<path d="M104.209 213.639C104.606 214.1 105.118 214.309 105.355 214.107C105.59 213.905 105.463 213.367 105.066 212.907C104.671 212.447 104.158 212.235 103.922 212.438C103.684 212.641 103.813 213.179 104.209 213.639Z" fill="white"/>
<path d="M110.483 210.702C110.483 212.923 111.891 214.718 113.631 214.719C115.225 214.717 116.531 213.228 116.754 211.281C114.506 211.035 112.406 210.737 110.495 210.485C110.482 210.553 110.481 210.629 110.483 210.702Z" fill="url(#paint23_linear_37483_134281)"/>
<path d="M111.873 213.639C112.269 214.1 112.782 214.309 113.019 214.107C113.254 213.905 113.127 213.367 112.73 212.907C112.334 212.447 111.822 212.235 111.585 212.438C111.348 212.641 111.477 213.179 111.873 213.639Z" fill="white"/>
<path d="M121.302 214.719C122.756 214.719 123.984 213.465 124.344 211.752C122.22 211.741 120.165 211.608 118.202 211.428C118.469 213.299 119.753 214.719 121.302 214.719Z" fill="url(#paint24_linear_37483_134281)"/>
<path d="M119.545 213.639C119.941 214.099 120.454 214.309 120.69 214.106C120.926 213.904 120.799 213.366 120.402 212.906C120.006 212.445 119.493 212.234 119.258 212.438C119.021 212.64 119.149 213.178 119.545 213.639Z" fill="white"/>
<path d="M125.919 211.733C126.273 213.454 127.507 214.719 128.966 214.719C130.535 214.719 131.843 213.255 132.078 211.331C130.121 211.535 128.054 211.688 125.919 211.733Z" fill="url(#paint25_linear_37483_134281)"/>
<path d="M127.21 213.639C127.605 214.1 128.118 214.31 128.354 214.107C128.591 213.905 128.463 213.367 128.066 212.908C127.67 212.447 127.157 212.235 126.921 212.438C126.684 212.641 126.812 213.178 127.21 213.639Z" fill="white"/>
<path d="M133.503 211.169C133.686 213.166 135.016 214.718 136.639 214.718C138.378 214.717 139.788 212.923 139.786 210.702C139.786 210.583 139.781 210.466 139.769 210.353C137.876 210.593 135.769 210.905 133.503 211.169Z" fill="url(#paint26_linear_37483_134281)"/>
<path d="M134.873 213.639C135.27 214.1 135.782 214.309 136.019 214.107C136.254 213.905 136.127 213.367 135.73 212.907C135.334 212.447 134.823 212.235 134.585 212.438C134.35 212.641 134.477 213.179 134.873 213.639Z" fill="white"/>
<path d="M141.174 210.186C141.157 210.356 141.144 210.526 141.144 210.703C141.144 212.924 142.557 214.719 144.295 214.719C146.037 214.719 147.453 212.924 147.453 210.703C147.453 210.556 147.45 210.412 147.437 210.271C146.714 210.032 145.813 209.937 144.769 209.937C143.714 209.937 142.508 210.035 141.174 210.186Z" fill="url(#paint27_linear_37483_134281)"/>
<path d="M142.545 213.639C142.941 214.1 143.454 214.309 143.691 214.107C143.926 213.905 143.799 213.367 143.402 212.907C143.007 212.447 142.494 212.235 142.257 212.438C142.02 212.641 142.149 213.179 142.545 213.639Z" fill="white"/>
<path opacity="0.3" d="M123.453 184.597C123.453 192.284 117.202 198.516 109.491 198.516C101.781 198.516 95.5285 192.284 95.5285 184.597C95.5285 176.911 101.781 170.68 109.491 170.68C117.202 170.68 123.453 176.911 123.453 184.597Z" fill="#181D1B"/>
<path fill-rule="evenodd" clip-rule="evenodd" d="M122.546 184.595C122.546 191.784 116.7 197.612 109.488 197.612C102.276 197.612 96.4297 191.784 96.4297 184.595C96.4297 177.406 102.276 171.578 109.488 171.578C116.7 171.578 122.546 177.406 122.546 184.595Z" fill="url(#paint28_radial_37483_134281)"/>
<path fill-rule="evenodd" clip-rule="evenodd" d="M116.511 184.596C116.511 188.463 113.365 191.599 109.486 191.599C105.606 191.599 102.461 188.463 102.461 184.596C102.461 180.729 105.606 177.594 109.486 177.594C113.365 177.594 116.511 180.729 116.511 184.596Z" fill="url(#paint29_radial_37483_134281)"/>
<path d="M112.773 184.6C112.773 186.41 111.303 187.875 109.488 187.875C107.673 187.875 106.202 186.41 106.202 184.6C106.202 182.791 107.673 181.324 109.488 181.324C111.303 181.324 112.773 182.791 112.773 184.6Z" fill="#2D2A49"/>
<ellipse cx="109.489" cy="181.136" rx="3.91113" ry="2.99561" fill="url(#paint30_linear_37483_134281)"/>
<path opacity="0.3" d="M153.266 184.597C153.266 192.284 147.014 198.516 139.303 198.516C131.593 198.516 125.341 192.284 125.341 184.597C125.341 176.911 131.593 170.68 139.303 170.68C147.014 170.68 153.266 176.911 153.266 184.597Z" fill="#181D1B"/>
<path fill-rule="evenodd" clip-rule="evenodd" d="M152.359 184.595C152.359 191.784 146.513 197.612 139.301 197.612C132.089 197.612 126.242 191.784 126.242 184.595C126.242 177.406 132.089 171.578 139.301 171.578C146.513 171.578 152.359 177.406 152.359 184.595Z" fill="url(#paint31_radial_37483_134281)"/>
<path fill-rule="evenodd" clip-rule="evenodd" d="M146.331 184.596C146.331 188.463 143.186 191.599 139.306 191.599C135.426 191.599 132.281 188.463 132.281 184.596C132.281 180.729 135.426 177.594 139.306 177.594C143.186 177.594 146.331 180.729 146.331 184.596Z" fill="url(#paint32_radial_37483_134281)"/>
<path d="M142.586 184.6C142.586 186.41 141.116 187.875 139.3 187.875C137.485 187.875 136.014 186.41 136.014 184.6C136.014 182.791 137.485 181.324 139.3 181.324C141.116 181.324 142.586 182.791 142.586 184.6Z" fill="#2D2A49"/>
<ellipse cx="139.302" cy="181.136" rx="3.91113" ry="2.99561" fill="url(#paint33_linear_37483_134281)"/>
<path opacity="0.2" d="M128.477 224.004C128.477 224.425 126.805 224.766 124.742 224.766C122.679 224.766 121.008 224.425 121.008 224.004C121.008 223.584 122.679 223.243 124.742 223.243C126.805 223.243 128.477 223.584 128.477 224.004Z" fill="white"/>
<path opacity="0.3" d="M134.37 273.755C134.37 273.755 139.174 273.185 146.235 270.343C146.235 270.343 144.301 273.109 143.098 274.683C143.098 274.683 139.568 276.285 134.011 276.287L134.37 273.755Z" fill="#181D1B"/>
<path opacity="0.3" d="M116.134 273.768C116.134 273.768 111.7 273.743 104.638 270.901C104.638 270.901 106.137 273.14 107.397 274.662C107.397 274.662 110.439 275.99 116.508 276.312L116.134 273.768Z" fill="#181D1B"/>
</g>
<rect y="0.640625" width="249" height="149" rx="8" fill="#22499C"/>
<path d="M35.4797 51.2926C37.2557 51.2926 38.8077 51.6446 40.1357 52.3486C41.4637 53.0526 42.4877 54.0446 43.2077 55.3246C43.9437 56.5886 44.3117 58.0526 44.3117 59.7166C44.3117 61.3646 43.9437 62.8286 43.2077 64.1086C42.4877 65.3886 41.4557 66.3806 40.1117 67.0846C38.7837 67.7886 37.2397 68.1406 35.4797 68.1406H29.1677V51.2926H35.4797ZM35.2157 64.5886C36.7677 64.5886 37.9757 64.1646 38.8397 63.3166C39.7037 62.4686 40.1357 61.2686 40.1357 59.7166C40.1357 58.1646 39.7037 56.9566 38.8397 56.0926C37.9757 55.2286 36.7677 54.7966 35.2157 54.7966H33.2717V64.5886H35.2157ZM48.6692 53.3566C47.9492 53.3566 47.3572 53.1486 46.8932 52.7326C46.4452 52.3006 46.2212 51.7726 46.2212 51.1486C46.2212 50.5086 46.4452 49.9806 46.8932 49.5646C47.3572 49.1326 47.9492 48.9166 48.6692 48.9166C49.3732 48.9166 49.9492 49.1326 50.3972 49.5646C50.8612 49.9806 51.0932 50.5086 51.0932 51.1486C51.0932 51.7726 50.8612 52.3006 50.3972 52.7326C49.9492 53.1486 49.3732 53.3566 48.6692 53.3566ZM50.7092 54.7486V68.1406H46.6052V54.7486H50.7092ZM59.1313 68.3326C57.9633 68.3326 56.9233 68.1326 56.0113 67.7326C55.0993 67.3326 54.3793 66.7886 53.8513 66.1006C53.3233 65.3966 53.0273 64.6126 52.9633 63.7486H57.0193C57.0673 64.2126 57.2833 64.5886 57.6673 64.8766C58.0513 65.1646 58.5233 65.3086 59.0833 65.3086C59.5953 65.3086 59.9873 65.2126 60.2593 65.0206C60.5473 64.8126 60.6913 64.5486 60.6913 64.2286C60.6913 63.8446 60.4913 63.5646 60.0913 63.3886C59.6913 63.1966 59.0433 62.9886 58.1473 62.7646C57.1873 62.5406 56.3873 62.3086 55.7473 62.0686C55.1073 61.8126 54.5553 61.4206 54.0913 60.8926C53.6273 60.3486 53.3953 59.6206 53.3953 58.7086C53.3953 57.9406 53.6033 57.2446 54.0193 56.6206C54.4513 55.9806 55.0753 55.4766 55.8913 55.1086C56.7233 54.7406 57.7073 54.5566 58.8433 54.5566C60.5233 54.5566 61.8433 54.9726 62.8033 55.8046C63.7793 56.6366 64.3393 57.7406 64.4833 59.1166H60.6913C60.6273 58.6526 60.4193 58.2846 60.0673 58.0126C59.7313 57.7406 59.2833 57.6046 58.7233 57.6046C58.2433 57.6046 57.8753 57.7006 57.6193 57.8926C57.3633 58.0686 57.2353 58.3166 57.2353 58.6366C57.2353 59.0206 57.4353 59.3086 57.8353 59.5006C58.2513 59.6926 58.8913 59.8846 59.7553 60.0766C60.7473 60.3326 61.5553 60.5886 62.1793 60.8446C62.8033 61.0846 63.3473 61.4846 63.8113 62.0446C64.2913 62.5886 64.5393 63.3246 64.5553 64.2526C64.5553 65.0366 64.3313 65.7406 63.8833 66.3646C63.4513 66.9726 62.8193 67.4526 61.9873 67.8046C61.1713 68.1566 60.2193 68.3326 59.1313 68.3326ZM66.2501 61.4446C66.2501 60.0526 66.5301 58.8366 67.0901 57.7966C67.6661 56.7566 68.4581 55.9566 69.4661 55.3966C70.4901 54.8366 71.6581 54.5566 72.9701 54.5566C74.6501 54.5566 76.0501 54.9966 77.1701 55.8766C78.3061 56.7566 79.0501 57.9966 79.4021 59.5966H75.0341C74.6661 58.5726 73.9541 58.0606 72.8981 58.0606C72.1461 58.0606 71.5461 58.3566 71.0981 58.9486C70.6501 59.5246 70.4261 60.3566 70.4261 61.4446C70.4261 62.5326 70.6501 63.3726 71.0981 63.9646C71.5461 64.5406 72.1461 64.8286 72.8981 64.8286C73.9541 64.8286 74.6661 64.3166 75.0341 63.2926H79.4021C79.0501 64.8606 78.3061 66.0926 77.1701 66.9886C76.0341 67.8846 74.6341 68.3326 72.9701 68.3326C71.6581 68.3326 70.4901 68.0526 69.4661 67.4926C68.4581 66.9326 67.6661 66.1326 67.0901 65.0926C66.5301 64.0526 66.2501 62.8366 66.2501 61.4446ZM94.8214 54.7486V68.1406H90.7174V66.3166C90.3014 66.9086 89.7334 67.3886 89.0134 67.7566C88.3094 68.1086 87.5254 68.2846 86.6614 68.2846C85.6374 68.2846 84.7334 68.0606 83.9494 67.6126C83.1654 67.1486 82.5574 66.4846 82.1254 65.6206C81.6934 64.7566 81.4774 63.7406 81.4774 62.5726V54.7486H85.5574V62.0206C85.5574 62.9166 85.7894 63.6126 86.2534 64.1086C86.7174 64.6046 87.3414 64.8526 88.1254 64.8526C88.9254 64.8526 89.5574 64.6046 90.0214 64.1086C90.4854 63.6126 90.7174 62.9166 90.7174 62.0206V54.7486H94.8214ZM103.217 68.3326C102.049 68.3326 101.009 68.1326 100.097 67.7326C99.1853 67.3326 98.4653 66.7886 97.9373 66.1006C97.4093 65.3966 97.1133 64.6126 97.0493 63.7486H101.105C101.153 64.2126 101.369 64.5886 101.753 64.8766C102.137 65.1646 102.609 65.3086 103.169 65.3086C103.681 65.3086 104.073 65.2126 104.345 65.0206C104.633 64.8126 104.777 64.5486 104.777 64.2286C104.777 63.8446 104.577 63.5646 104.177 63.3886C103.777 63.1966 103.129 62.9886 102.233 62.7646C101.273 62.5406 100.473 62.3086 99.8333 62.0686C99.1933 61.8126 98.6413 61.4206 98.1773 60.8926C97.7133 60.3486 97.4813 59.6206 97.4813 58.7086C97.4813 57.9406 97.6893 57.2446 98.1053 56.6206C98.5373 55.9806 99.1613 55.4766 99.9773 55.1086C100.809 54.7406 101.793 54.5566 102.929 54.5566C104.609 54.5566 105.929 54.9726 106.889 55.8046C107.865 56.6366 108.425 57.7406 108.569 59.1166H104.777C104.713 58.6526 104.505 58.2846 104.153 58.0126C103.817 57.7406 103.369 57.6046 102.809 57.6046C102.329 57.6046 101.961 57.7006 101.705 57.8926C101.449 58.0686 101.321 58.3166 101.321 58.6366C101.321 59.0206 101.521 59.3086 101.921 59.5006C102.337 59.6926 102.977 59.8846 103.841 60.0766C104.833 60.3326 105.641 60.5886 106.265 60.8446C106.889 61.0846 107.433 61.4846 107.897 62.0446C108.377 62.5886 108.625 63.3246 108.641 64.2526C108.641 65.0366 108.417 65.7406 107.969 66.3646C107.537 66.9726 106.905 67.4526 106.073 67.8046C105.257 68.1566 104.305 68.3326 103.217 68.3326ZM116.6 68.3326C115.432 68.3326 114.392 68.1326 113.48 67.7326C112.568 67.3326 111.848 66.7886 111.32 66.1006C110.792 65.3966 110.496 64.6126 110.432 63.7486H114.488C114.536 64.2126 114.752 64.5886 115.136 64.8766C115.52 65.1646 115.992 65.3086 116.552 65.3086C117.064 65.3086 117.456 65.2126 117.728 65.0206C118.016 64.8126 118.16 64.5486 118.16 64.2286C118.16 63.8446 117.96 63.5646 117.56 63.3886C117.16 63.1966 116.512 62.9886 115.616 62.7646C114.656 62.5406 113.856 62.3086 113.216 62.0686C112.576 61.8126 112.024 61.4206 111.56 60.8926C111.096 60.3486 110.864 59.6206 110.864 58.7086C110.864 57.9406 111.072 57.2446 111.488 56.6206C111.92 55.9806 112.544 55.4766 113.36 55.1086C114.192 54.7406 115.176 54.5566 116.312 54.5566C117.992 54.5566 119.312 54.9726 120.272 55.8046C121.248 56.6366 121.808 57.7406 121.952 59.1166H118.16C118.096 58.6526 117.888 58.2846 117.536 58.0126C117.2 57.7406 116.752 57.6046 116.192 57.6046C115.712 57.6046 115.344 57.7006 115.088 57.8926C114.832 58.0686 114.704 58.3166 114.704 58.6366C114.704 59.0206 114.904 59.3086 115.304 59.5006C115.72 59.6926 116.36 59.8846 117.224 60.0766C118.216 60.3326 119.024 60.5886 119.648 60.8446C120.272 61.0846 120.816 61.4846 121.28 62.0446C121.76 62.5886 122.008 63.3246 122.024 64.2526C122.024 65.0366 121.8 65.7406 121.352 66.3646C120.92 66.9726 120.288 67.4526 119.456 67.8046C118.64 68.1566 117.688 68.3326 116.6 68.3326ZM142.509 68.1406L140.949 66.6286C139.397 67.8126 137.541 68.4046 135.381 68.4046C134.085 68.4046 132.957 68.1966 131.997 67.7806C131.037 67.3486 130.293 66.7486 129.765 65.9806C129.253 65.1966 128.997 64.2846 128.997 63.2446C128.997 62.1886 129.277 61.2366 129.837 60.3886C130.413 59.5246 131.269 58.8206 132.405 58.2766C131.989 57.7646 131.693 57.2766 131.517 56.8126C131.341 56.3326 131.253 55.8126 131.253 55.2526C131.253 54.4526 131.461 53.7246 131.877 53.0686C132.293 52.4126 132.893 51.9006 133.677 51.5326C134.477 51.1486 135.421 50.9566 136.509 50.9566C137.613 50.9566 138.549 51.1566 139.317 51.5566C140.085 51.9566 140.661 52.4926 141.045 53.1646C141.429 53.8366 141.605 54.5726 141.573 55.3726H137.709C137.725 54.9406 137.613 54.6126 137.373 54.3886C137.149 54.1486 136.845 54.0286 136.461 54.0286C136.077 54.0286 135.757 54.1406 135.501 54.3646C135.245 54.5886 135.117 54.8766 135.117 55.2286C135.117 55.5646 135.221 55.9166 135.429 56.2846C135.653 56.6526 135.997 57.0766 136.461 57.5566L140.565 61.5646C140.597 61.4846 140.637 61.3886 140.685 61.2766C140.749 61.1646 140.813 61.0366 140.877 60.8926L141.765 59.3806H145.869L144.717 61.4686C144.285 62.4126 143.789 63.3086 143.229 64.1566L147.285 68.1406H142.509ZM135.573 65.0926C136.645 65.0926 137.597 64.7886 138.429 64.1806L134.685 60.5566C133.533 61.1486 132.957 61.9486 132.957 62.9566C132.957 63.5646 133.189 64.0766 133.653 64.4926C134.133 64.8926 134.773 65.0926 135.573 65.0926ZM157.959 64.9726H163.335V68.1406H153.855V51.2926H157.959V64.9726ZM177.917 61.2286C177.917 61.6126 177.893 62.0126 177.845 62.4286H168.557C168.621 63.2606 168.885 63.9006 169.349 64.3486C169.829 64.7806 170.413 64.9966 171.101 64.9966C172.125 64.9966 172.837 64.5646 173.237 63.7006H177.605C177.381 64.5806 176.973 65.3726 176.381 66.0766C175.805 66.7806 175.077 67.3326 174.197 67.7326C173.317 68.1326 172.333 68.3326 171.245 68.3326C169.933 68.3326 168.765 68.0526 167.741 67.4926C166.717 66.9326 165.917 66.1326 165.341 65.0926C164.765 64.0526 164.477 62.8366 164.477 61.4446C164.477 60.0526 164.757 58.8366 165.317 57.7966C165.893 56.7566 166.693 55.9566 167.717 55.3966C168.741 54.8366 169.917 54.5566 171.245 54.5566C172.541 54.5566 173.693 54.8286 174.701 55.3726C175.709 55.9166 176.493 56.6926 177.053 57.7006C177.629 58.7086 177.917 59.8846 177.917 61.2286ZM173.717 60.1486C173.717 59.4446 173.477 58.8846 172.997 58.4686C172.517 58.0526 171.917 57.8446 171.197 57.8446C170.509 57.8446 169.925 58.0446 169.445 58.4446C168.981 58.8446 168.693 59.4126 168.581 60.1486H173.717ZM179.266 61.4206C179.266 60.0446 179.522 58.8366 180.034 57.7966C180.562 56.7566 181.274 55.9566 182.17 55.3966C183.066 54.8366 184.066 54.5566 185.17 54.5566C186.114 54.5566 186.938 54.7486 187.642 55.1326C188.362 55.5166 188.914 56.0206 189.298 56.6446V54.7486H193.402V68.1406H189.298V66.2446C188.898 66.8686 188.338 67.3726 187.618 67.7566C186.914 68.1406 186.09 68.3326 185.146 68.3326C184.058 68.3326 183.066 68.0526 182.17 67.4926C181.274 66.9166 180.562 66.1086 180.034 65.0686C179.522 64.0126 179.266 62.7966 179.266 61.4206ZM189.298 61.4446C189.298 60.4206 189.01 59.6126 188.434 59.0206C187.874 58.4286 187.186 58.1326 186.37 58.1326C185.554 58.1326 184.858 58.4286 184.282 59.0206C183.722 59.5966 183.442 60.3966 183.442 61.4206C183.442 62.4446 183.722 63.2606 184.282 63.8686C184.858 64.4606 185.554 64.7566 186.37 64.7566C187.186 64.7566 187.874 64.4606 188.434 63.8686C189.01 63.2766 189.298 62.4686 189.298 61.4446ZM200.475 56.9806C200.955 56.2446 201.555 55.6686 202.275 55.2526C202.995 54.8206 203.795 54.6046 204.675 54.6046V58.9486H203.547C202.523 58.9486 201.755 59.1726 201.243 59.6206C200.731 60.0526 200.475 60.8206 200.475 61.9246V68.1406H196.371V54.7486H200.475V56.9806ZM214.796 54.6046C216.364 54.6046 217.612 55.1166 218.54 56.1406C219.484 57.1486 219.956 58.5406 219.956 60.3166V68.1406H215.876V60.8686C215.876 59.9726 215.644 59.2766 215.18 58.7806C214.716 58.2846 214.092 58.0366 213.308 58.0366C212.524 58.0366 211.9 58.2846 211.436 58.7806C210.972 59.2766 210.74 59.9726 210.74 60.8686V68.1406H206.636V54.7486H210.74V56.5246C211.156 55.9326 211.716 55.4686 212.42 55.1326C213.124 54.7806 213.916 54.6046 214.796 54.6046ZM44.5947 89.1566H42.3867V99.1406H38.2827V89.1566H36.7947V85.7486H38.2827V85.3646C38.2827 83.7166 38.7547 82.4686 39.6987 81.6206C40.6427 80.7566 42.0267 80.3246 43.8507 80.3246C44.1547 80.3246 44.3787 80.3326 44.5227 80.3486V83.8286C43.7387 83.7806 43.1867 83.8926 42.8667 84.1646C42.5467 84.4366 42.3867 84.9246 42.3867 85.6286V85.7486H44.5947V89.1566ZM50.6272 87.9806C51.1072 87.2446 51.7072 86.6686 52.4272 86.2526C53.1472 85.8206 53.9472 85.6046 54.8272 85.6046V89.9486H53.6992C52.6752 89.9486 51.9072 90.1726 51.3952 90.6206C50.8832 91.0526 50.6272 91.8206 50.6272 92.9246V99.1406H46.5232V85.7486H50.6272V87.9806ZM62.8848 99.3326C61.5728 99.3326 60.3888 99.0526 59.3328 98.4926C58.2928 97.9326 57.4688 97.1326 56.8608 96.0926C56.2688 95.0526 55.9728 93.8366 55.9728 92.4446C55.9728 91.0686 56.2768 89.8606 56.8848 88.8206C57.4928 87.7646 58.3248 86.9566 59.3808 86.3966C60.4368 85.8366 61.6208 85.5566 62.9328 85.5566C64.2448 85.5566 65.4288 85.8366 66.4848 86.3966C67.5408 86.9566 68.3728 87.7646 68.9808 88.8206C69.5888 89.8606 69.8928 91.0686 69.8928 92.4446C69.8928 93.8206 69.5808 95.0366 68.9568 96.0926C68.3488 97.1326 67.5088 97.9326 66.4368 98.4926C65.3808 99.0526 64.1968 99.3326 62.8848 99.3326ZM62.8848 95.7806C63.6688 95.7806 64.3328 95.4926 64.8768 94.9166C65.4368 94.3406 65.7168 93.5166 65.7168 92.4446C65.7168 91.3726 65.4448 90.5486 64.9008 89.9726C64.3728 89.3966 63.7168 89.1086 62.9328 89.1086C62.1328 89.1086 61.4688 89.3966 60.9408 89.9726C60.4128 90.5326 60.1488 91.3566 60.1488 92.4446C60.1488 93.5166 60.4048 94.3406 60.9168 94.9166C61.4448 95.4926 62.1008 95.7806 62.8848 95.7806ZM89.158 85.6046C90.822 85.6046 92.142 86.1086 93.118 87.1166C94.11 88.1246 94.606 89.5246 94.606 91.3166V99.1406H90.526V91.8686C90.526 91.0046 90.294 90.3406 89.83 89.8766C89.382 89.3966 88.758 89.1566 87.958 89.1566C87.158 89.1566 86.526 89.3966 86.062 89.8766C85.614 90.3406 85.39 91.0046 85.39 91.8686V99.1406H81.31V91.8686C81.31 91.0046 81.078 90.3406 80.614 89.8766C80.166 89.3966 79.542 89.1566 78.742 89.1566C77.942 89.1566 77.31 89.3966 76.846 89.8766C76.398 90.3406 76.174 91.0046 76.174 91.8686V99.1406H72.07V85.7486H76.174V87.4286C76.59 86.8686 77.134 86.4286 77.806 86.1086C78.478 85.7726 79.238 85.6046 80.086 85.6046C81.094 85.6046 81.99 85.8206 82.774 86.2526C83.574 86.6846 84.198 87.3006 84.646 88.1006C85.11 87.3646 85.742 86.7646 86.542 86.3006C87.342 85.8366 88.214 85.6046 89.158 85.6046ZM121.642 82.2926V99.1406H117.538V89.0366L113.77 99.1406H110.458L106.666 89.0126V99.1406H102.562V82.2926H107.41L112.138 93.9566L116.818 82.2926H121.642ZM126.657 84.3566C125.937 84.3566 125.345 84.1486 124.881 83.7326C124.433 83.3006 124.209 82.7726 124.209 82.1486C124.209 81.5086 124.433 80.9806 124.881 80.5646C125.345 80.1326 125.937 79.9166 126.657 79.9166C127.361 79.9166 127.937 80.1326 128.385 80.5646C128.849 80.9806 129.081 81.5086 129.081 82.1486C129.081 82.7726 128.849 83.3006 128.385 83.7326C127.937 84.1486 127.361 84.3566 126.657 84.3566ZM128.697 85.7486V99.1406H124.593V85.7486H128.697ZM137.12 99.3326C135.952 99.3326 134.912 99.1326 134 98.7326C133.088 98.3326 132.368 97.7886 131.84 97.1006C131.312 96.3966 131.016 95.6126 130.952 94.7486H135.008C135.056 95.2126 135.272 95.5886 135.656 95.8766C136.04 96.1646 136.512 96.3086 137.072 96.3086C137.584 96.3086 137.976 96.2126 138.248 96.0206C138.536 95.8126 138.68 95.5486 138.68 95.2286C138.68 94.8446 138.48 94.5646 138.08 94.3886C137.68 94.1966 137.032 93.9886 136.136 93.7646C135.176 93.5406 134.376 93.3086 133.736 93.0686C133.096 92.8126 132.544 92.4206 132.08 91.8926C131.616 91.3486 131.384 90.6206 131.384 89.7086C131.384 88.9406 131.592 88.2446 132.008 87.6206C132.44 86.9806 133.064 86.4766 133.88 86.1086C134.712 85.7406 135.696 85.5566 136.832 85.5566C138.512 85.5566 139.832 85.9726 140.792 86.8046C141.768 87.6366 142.328 88.7406 142.472 90.1166H138.68C138.616 89.6526 138.408 89.2846 138.056 89.0126C137.72 88.7406 137.272 88.6046 136.712 88.6046C136.232 88.6046 135.864 88.7006 135.608 88.8926C135.352 89.0686 135.224 89.3166 135.224 89.6366C135.224 90.0206 135.424 90.3086 135.824 90.5006C136.24 90.6926 136.88 90.8846 137.744 91.0766C138.736 91.3326 139.544 91.5886 140.168 91.8446C140.792 92.0846 141.336 92.4846 141.8 93.0446C142.28 93.5886 142.528 94.3246 142.544 95.2526C142.544 96.0366 142.32 96.7406 141.872 97.3646C141.44 97.9726 140.808 98.4526 139.976 98.8046C139.16 99.1566 138.208 99.3326 137.12 99.3326ZM152.518 95.6606V99.1406H150.43C148.942 99.1406 147.782 98.7806 146.95 98.0606C146.118 97.3246 145.702 96.1326 145.702 94.4846V89.1566H144.07V85.7486H145.702V82.4846H149.806V85.7486H152.494V89.1566H149.806V94.5326C149.806 94.9326 149.902 95.2206 150.094 95.3966C150.286 95.5726 150.606 95.6606 151.054 95.6606H152.518ZM153.988 92.4206C153.988 91.0446 154.244 89.8366 154.756 88.7966C155.284 87.7566 155.996 86.9566 156.892 86.3966C157.788 85.8366 158.788 85.5566 159.892 85.5566C160.836 85.5566 161.66 85.7486 162.364 86.1326C163.084 86.5166 163.636 87.0206 164.02 87.6446V85.7486H168.124V99.1406H164.02V97.2446C163.62 97.8686 163.06 98.3726 162.34 98.7566C161.636 99.1406 160.812 99.3326 159.868 99.3326C158.78 99.3326 157.788 99.0526 156.892 98.4926C155.996 97.9166 155.284 97.1086 154.756 96.0686C154.244 95.0126 153.988 93.7966 153.988 92.4206ZM164.02 92.4446C164.02 91.4206 163.732 90.6126 163.156 90.0206C162.596 89.4286 161.908 89.1326 161.092 89.1326C160.276 89.1326 159.58 89.4286 159.004 90.0206C158.444 90.5966 158.164 91.3966 158.164 92.4206C158.164 93.4446 158.444 94.2606 159.004 94.8686C159.58 95.4606 160.276 95.7566 161.092 95.7566C161.908 95.7566 162.596 95.4606 163.156 94.8686C163.732 94.2766 164.02 93.4686 164.02 92.4446ZM179.277 99.1406L175.197 93.5246V99.1406H171.093V81.3806H175.197V91.1966L179.253 85.7486H184.317L178.749 92.4686L184.365 99.1406H179.277ZM198.553 92.2286C198.553 92.6126 198.529 93.0126 198.481 93.4286H189.193C189.257 94.2606 189.521 94.9006 189.985 95.3486C190.465 95.7806 191.049 95.9966 191.737 95.9966C192.761 95.9966 193.473 95.5646 193.873 94.7006H198.241C198.017 95.5806 197.609 96.3726 197.017 97.0766C196.441 97.7806 195.713 98.3326 194.833 98.7326C193.953 99.1326 192.969 99.3326 191.881 99.3326C190.569 99.3326 189.401 99.0526 188.377 98.4926C187.353 97.9326 186.553 97.1326 185.977 96.0926C185.401 95.0526 185.113 93.8366 185.113 92.4446C185.113 91.0526 185.393 89.8366 185.953 88.7966C186.529 87.7566 187.329 86.9566 188.353 86.3966C189.377 85.8366 190.553 85.5566 191.881 85.5566C193.177 85.5566 194.329 85.8286 195.337 86.3726C196.345 86.9166 197.129 87.6926 197.689 88.7006C198.265 89.7086 198.553 90.8846 198.553 92.2286ZM194.353 91.1486C194.353 90.4446 194.113 89.8846 193.633 89.4686C193.153 89.0526 192.553 88.8446 191.833 88.8446C191.145 88.8446 190.561 89.0446 190.081 89.4446C189.617 89.8446 189.329 90.4126 189.217 91.1486H194.353ZM206.166 99.3326C204.998 99.3326 203.958 99.1326 203.046 98.7326C202.134 98.3326 201.414 97.7886 200.886 97.1006C200.358 96.3966 200.062 95.6126 199.998 94.7486H204.054C204.102 95.2126 204.318 95.5886 204.702 95.8766C205.086 96.1646 205.558 96.3086 206.118 96.3086C206.63 96.3086 207.022 96.2126 207.294 96.0206C207.582 95.8126 207.726 95.5486 207.726 95.2286C207.726 94.8446 207.526 94.5646 207.126 94.3886C206.726 94.1966 206.078 93.9886 205.182 93.7646C204.222 93.5406 203.422 93.3086 202.782 93.0686C202.142 92.8126 201.59 92.4206 201.126 91.8926C200.662 91.3486 200.43 90.6206 200.43 89.7086C200.43 88.9406 200.638 88.2446 201.054 87.6206C201.486 86.9806 202.11 86.4766 202.926 86.1086C203.758 85.7406 204.742 85.5566 205.878 85.5566C207.558 85.5566 208.878 85.9726 209.838 86.8046C210.814 87.6366 211.374 88.7406 211.518 90.1166H207.726C207.662 89.6526 207.454 89.2846 207.102 89.0126C206.766 88.7406 206.318 88.6046 205.758 88.6046C205.278 88.6046 204.91 88.7006 204.654 88.8926C204.398 89.0686 204.27 89.3166 204.27 89.6366C204.27 90.0206 204.47 90.3086 204.87 90.5006C205.286 90.6926 205.926 90.8846 206.79 91.0766C207.782 91.3326 208.59 91.5886 209.214 91.8446C209.838 92.0846 210.382 92.4846 210.846 93.0446C211.326 93.5886 211.574 94.3246 211.59 95.2526C211.59 96.0366 211.366 96.7406 210.918 97.3646C210.486 97.9726 209.854 98.4526 209.022 98.8046C208.206 99.1566 207.254 99.3326 206.166 99.3326Z" fill="white"/>
<defs>
<linearGradient id="paint0_linear_37483_134281" x1="170.712" y1="197.733" x2="154.83" y2="195.409" gradientUnits="userSpaceOnUse">
<stop stop-color="#00BBF1"/>
<stop offset="1" stop-color="#1F81B3"/>
</linearGradient>
<linearGradient id="paint1_linear_37483_134281" x1="180.092" y1="155.994" x2="176.309" y2="155.508" gradientUnits="userSpaceOnUse">
<stop stop-color="#FCF4A1"/>
<stop offset="0.13" stop-color="#FCF4A1"/>
<stop offset="0.82" stop-color="#F3B98E"/>
<stop offset="1" stop-color="#F3B98E"/>
</linearGradient>
<linearGradient id="paint2_linear_37483_134281" x1="175.551" y1="152.088" x2="171.767" y2="151.602" gradientUnits="userSpaceOnUse">
<stop stop-color="#FCF4A1"/>
<stop offset="0.13" stop-color="#FCF4A1"/>
<stop offset="0.82" stop-color="#F3B98E"/>
<stop offset="1" stop-color="#F3B98E"/>
</linearGradient>
<linearGradient id="paint3_linear_37483_134281" x1="169.671" y1="151.295" x2="165.759" y2="150.793" gradientUnits="userSpaceOnUse">
<stop stop-color="#FCF4A1"/>
<stop offset="0.13" stop-color="#FCF4A1"/>
<stop offset="0.82" stop-color="#F3B98E"/>
<stop offset="1" stop-color="#F3B98E"/>
</linearGradient>
<linearGradient id="paint4_linear_37483_134281" x1="76.0614" y1="198.057" x2="92.057" y2="196.714" gradientUnits="userSpaceOnUse">
<stop stop-color="#00BBF1"/>
<stop offset="1" stop-color="#1F81B3"/>
</linearGradient>
<linearGradient id="paint5_linear_37483_134281" x1="79.9537" y1="151.779" x2="83.8887" y2="151.518" gradientUnits="userSpaceOnUse">
<stop stop-color="#FCF4A1"/>
<stop offset="0.13" stop-color="#FCF4A1"/>
<stop offset="0.82" stop-color="#F3B98E"/>
<stop offset="1" stop-color="#F3B98E"/>
</linearGradient>
<linearGradient id="paint6_linear_37483_134281" x1="74.038" y1="152.205" x2="77.8444" y2="151.953" gradientUnits="userSpaceOnUse">
<stop stop-color="#FCF4A1"/>
<stop offset="0.13" stop-color="#FCF4A1"/>
<stop offset="0.82" stop-color="#F3B98E"/>
<stop offset="1" stop-color="#F3B98E"/>
</linearGradient>
<linearGradient id="paint7_linear_37483_134281" x1="69.262" y1="155.822" x2="73.0683" y2="155.57" gradientUnits="userSpaceOnUse">
<stop stop-color="#FCF4A1"/>
<stop offset="0.13" stop-color="#FCF4A1"/>
<stop offset="0.82" stop-color="#F3B98E"/>
<stop offset="1" stop-color="#F3B98E"/>
</linearGradient>
<linearGradient id="paint8_linear_37483_134281" x1="119.672" y1="213.682" x2="142.136" y2="213.682" gradientUnits="userSpaceOnUse">
<stop stop-color="#3FA7F3"/>
<stop offset="1" stop-color="#0071BA"/>
</linearGradient>
<linearGradient id="paint9_linear_37483_134281" x1="94.9649" y1="247.976" x2="117.429" y2="247.976" gradientUnits="userSpaceOnUse">
<stop stop-color="#00BBF1"/>
<stop offset="1" stop-color="#1F81B3"/>
</linearGradient>
<linearGradient id="paint10_linear_37483_134281" x1="155.535" y1="247.976" x2="133.071" y2="247.976" gradientUnits="userSpaceOnUse">
<stop stop-color="#00BBF1"/>
<stop offset="1" stop-color="#1F81B3"/>
</linearGradient>
<linearGradient id="paint11_linear_37483_134281" x1="159.479" y1="155.883" x2="140.651" y2="155.883" gradientUnits="userSpaceOnUse">
<stop stop-color="#00BBF1"/>
<stop offset="1" stop-color="#1F81B3"/>
</linearGradient>
<linearGradient id="paint12_linear_37483_134281" x1="146.922" y1="165.904" x2="158.005" y2="165.904" gradientUnits="userSpaceOnUse">
<stop stop-color="#0F86C2"/>
<stop offset="1" stop-color="#02A2E1"/>
</linearGradient>
<linearGradient id="paint13_linear_37483_134281" x1="88.7115" y1="155.882" x2="107.54" y2="155.882" gradientUnits="userSpaceOnUse">
<stop stop-color="#00BBF1"/>
<stop offset="1" stop-color="#1F81B3"/>
</linearGradient>
<linearGradient id="paint14_linear_37483_134281" x1="101.271" y1="165.904" x2="90.1873" y2="165.904" gradientUnits="userSpaceOnUse">
<stop stop-color="#0F86C2"/>
<stop offset="1" stop-color="#02A2E1"/>
</linearGradient>
<linearGradient id="paint15_linear_37483_134281" x1="122.243" y1="144.062" x2="127.027" y2="144.062" gradientUnits="userSpaceOnUse">
<stop stop-color="#00BBF1"/>
<stop offset="1" stop-color="#1F81B3"/>
</linearGradient>
<linearGradient id="paint16_linear_37483_134281" x1="124.633" y1="147.463" x2="132.504" y2="147.463" gradientUnits="userSpaceOnUse">
<stop stop-color="#00BBF1"/>
<stop offset="1" stop-color="#1F81B3"/>
</linearGradient>
<linearGradient id="paint17_linear_37483_134281" x1="116.766" y1="147.463" x2="124.636" y2="147.463" gradientUnits="userSpaceOnUse">
<stop stop-color="#00BBF1"/>
<stop offset="1" stop-color="#1F81B3"/>
</linearGradient>
<linearGradient id="paint18_linear_37483_134281" x1="84.7405" y1="152.189" x2="163.935" y2="152.189" gradientUnits="userSpaceOnUse">
<stop stop-color="#00BBF1"/>
<stop offset="1" stop-color="#1F81B3"/>
</linearGradient>
<linearGradient id="paint19_linear_37483_134281" x1="125.024" y1="154.172" x2="125.024" y2="184.624" gradientUnits="userSpaceOnUse">
<stop stop-color="white" stop-opacity="0.38"/>
<stop offset="1" stop-color="white" stop-opacity="0"/>
</linearGradient>
<linearGradient id="paint20_linear_37483_134281" x1="149.57" y1="205.608" x2="149.57" y2="223.953" gradientUnits="userSpaceOnUse">
<stop stop-color="#600700"/>
<stop offset="1" stop-color="#AE1722"/>
</linearGradient>
<radialGradient id="paint21_radial_37483_134281" cx="0" cy="0" r="1" gradientUnits="userSpaceOnUse" gradientTransform="translate(124.553 223.241) scale(8.29513 2.97649)">
<stop stop-color="#FD721B"/>
<stop offset="1" stop-color="#BC1A21"/>
</radialGradient>
<linearGradient id="paint22_linear_37483_134281" x1="103.807" y1="214.463" x2="103.807" y2="211.188" gradientUnits="userSpaceOnUse">
<stop stop-color="#D9DADB"/>
<stop offset="0.16" stop-color="#D9DADB"/>
<stop offset="0.82" stop-color="white"/>
<stop offset="1" stop-color="white"/>
</linearGradient>
<linearGradient id="paint23_linear_37483_134281" x1="111.308" y1="214.363" x2="111.47" y2="211.473" gradientUnits="userSpaceOnUse">
<stop stop-color="#D9DADB"/>
<stop offset="0.16" stop-color="#D9DADB"/>
<stop offset="0.82" stop-color="white"/>
<stop offset="1" stop-color="white"/>
</linearGradient>
<linearGradient id="paint24_linear_37483_134281" x1="119.169" y1="214.543" x2="119.169" y2="212.289" gradientUnits="userSpaceOnUse">
<stop stop-color="#D9DADB"/>
<stop offset="0.16" stop-color="#D9DADB"/>
<stop offset="0.82" stop-color="white"/>
<stop offset="1" stop-color="white"/>
</linearGradient>
<linearGradient id="paint25_linear_37483_134281" x1="126.888" y1="214.538" x2="126.888" y2="212.218" gradientUnits="userSpaceOnUse">
<stop stop-color="#D9DADB"/>
<stop offset="0.16" stop-color="#D9DADB"/>
<stop offset="0.82" stop-color="white"/>
<stop offset="1" stop-color="white"/>
</linearGradient>
<linearGradient id="paint26_linear_37483_134281" x1="134.369" y1="214.58" x2="134.244" y2="211.597" gradientUnits="userSpaceOnUse">
<stop stop-color="#D9DADB"/>
<stop offset="0.16" stop-color="#D9DADB"/>
<stop offset="0.82" stop-color="white"/>
<stop offset="1" stop-color="white"/>
</linearGradient>
<linearGradient id="paint27_linear_37483_134281" x1="142.139" y1="214.463" x2="142.139" y2="211.188" gradientUnits="userSpaceOnUse">
<stop stop-color="#D9DADB"/>
<stop offset="0.16" stop-color="#D9DADB"/>
<stop offset="0.82" stop-color="white"/>
<stop offset="1" stop-color="white"/>
</linearGradient>
<radialGradient id="paint28_radial_37483_134281" cx="0" cy="0" r="1" gradientUnits="userSpaceOnUse" gradientTransform="translate(109.489 184.594) scale(13.0584 13.0168)">
<stop stop-color="white"/>
<stop offset="0.56" stop-color="white"/>
<stop offset="0.96" stop-color="#DBDBDB"/>
<stop offset="1" stop-color="#C4C4C4"/>
</radialGradient>
<radialGradient id="paint29_radial_37483_134281" cx="0" cy="0" r="1" gradientUnits="userSpaceOnUse" gradientTransform="translate(109.485 184.596) scale(7.02479 7.00241)">
<stop stop-color="white"/>
<stop offset="0.72" stop-color="#8DD5B3"/>
<stop offset="1" stop-color="#00A156"/>
</radialGradient>
<linearGradient id="paint30_linear_37483_134281" x1="109.496" y1="178.141" x2="109.496" y2="181.075" gradientUnits="userSpaceOnUse">
<stop stop-color="white"/>
<stop offset="1" stop-color="#999999" stop-opacity="0.1"/>
</linearGradient>
<radialGradient id="paint31_radial_37483_134281" cx="0" cy="0" r="1" gradientUnits="userSpaceOnUse" gradientTransform="translate(139.302 184.594) scale(13.0584 13.0168)">
<stop stop-color="white"/>
<stop offset="0.56" stop-color="white"/>
<stop offset="0.96" stop-color="#DBDBDB"/>
<stop offset="1" stop-color="#C4C4C4"/>
</radialGradient>
<radialGradient id="paint32_radial_37483_134281" cx="0" cy="0" r="1" gradientUnits="userSpaceOnUse" gradientTransform="translate(139.306 184.596) scale(7.0248 7.00241)">
<stop stop-color="white"/>
<stop offset="0.72" stop-color="#8DD5B3"/>
<stop offset="1" stop-color="#00A156"/>
</radialGradient>
<linearGradient id="paint33_linear_37483_134281" x1="139.309" y1="178.141" x2="139.309" y2="181.075" gradientUnits="userSpaceOnUse">
<stop stop-color="white"/>
<stop offset="1" stop-color="#999999" stop-opacity="0.1"/>
</linearGradient>
<clipPath id="clip0_37483_134281">
<rect width="173" height="147" fill="white" transform="translate(38 137.641)"/>
</clipPath>
</defs>
</svg>
