<svg width="18" height="19" viewBox="0 0 18 19" fill="none" xmlns="http://www.w3.org/2000/svg">
<path d="M17.4871 3.21252L11.4262 9.27344L17.4871 15.3344C17.8086 15.6558 17.9892 16.0919 17.9892 16.5465C17.9892 17.0012 17.8086 17.4372 17.4871 17.7587C17.1656 18.0802 16.7296 18.2608 16.2749 18.2608C15.8203 18.2608 15.3842 18.0802 15.0627 17.7587L9.00181 11.6978L2.9409 17.7587C2.61941 18.0802 2.18337 18.2608 1.72872 18.2608C1.27406 18.2608 0.838023 18.0802 0.516532 17.7587C0.195041 17.4372 0.0144298 17.0012 0.0144296 16.5465C0.0144294 16.0919 0.195041 15.6558 0.516532 15.3344L6.57745 9.27344L0.516533 3.21252C0.195042 2.89103 0.0144294 2.45499 0.0144296 2.00034C0.0144298 1.54568 0.195042 1.10965 0.516533 0.788155C0.838023 0.466664 1.27406 0.286052 1.72872 0.286052C2.18337 0.286052 2.61941 0.466664 2.9409 0.788155L9.00181 6.84907L15.0627 0.788155C15.3842 0.466664 15.8203 0.286051 16.2749 0.286051C16.7296 0.286051 17.1656 0.466663 17.4871 0.788154C17.8086 1.10965 17.9892 1.54568 17.9892 2.00034C17.9892 2.45499 17.8086 2.89103 17.4871 3.21252Z" fill="white"/>
</svg>
