<svg width="595" height="586" viewBox="0 0 595 586" fill="none" xmlns="http://www.w3.org/2000/svg">
<g filter="url(#filter0_d_35464_122107)">
<path fill-rule="evenodd" clip-rule="evenodd" d="M233.204 319.869C215.219 320.921 195.878 316.008 183.013 304.74C170.754 294.002 175.832 275.177 167.104 261.973C156.759 246.32 130.373 239.579 128.014 221.528C125.69 203.753 140.348 186.575 155.753 175.123C170.237 164.354 190.154 162.417 208.966 161.344C224.822 160.439 241.732 161.366 254.769 169.472C266.58 176.816 263.687 194.84 275.214 202.535C292.227 213.891 322.198 206.173 333.665 222.135C344.172 236.762 335.992 257.997 325.616 272.698C315.655 286.811 295.561 290.825 279.339 299.105C264.08 306.894 250.745 318.843 233.204 319.869Z" fill="url(#paint0_linear_35464_122107)" fill-opacity="0.24" shape-rendering="crispEdges"/>
</g>
<path d="M179.385 200.097C177.015 211.644 181.784 221.001 184.466 224.237L182.857 234.787C176.286 228.508 173.289 219.792 172.612 216.219C168.547 204.149 171.257 189.547 176.93 190.644C181.834 191.593 180.119 196.693 179.385 200.097Z" fill="#7432A0"/>
<path d="M178.961 230.232C180.383 226.788 182.715 224.127 183.703 223.227L184.465 224.155L182.856 234.79C181.23 233.372 179.582 231.161 178.961 230.232Z" fill="#470F6B"/>
<path d="M270.184 192.551C273.854 203.757 270.186 213.593 267.893 217.11L270.692 227.412C276.499 220.432 278.481 211.433 278.746 207.807C281.405 195.356 277.051 181.152 271.544 182.881C266.784 184.376 269.068 189.251 270.184 192.551Z" fill="#7432A0"/>
<path d="M274.033 222.446C272.228 219.184 269.61 216.802 268.526 216.019L267.875 217.027L270.685 227.414C272.138 225.822 273.522 223.438 274.033 222.446Z" fill="#470F6B"/>
<path d="M228.412 184.057C209.649 182.099 203.039 193.651 202.08 199.671C202.825 206.018 196.35 210.081 193.02 211.319C179.218 222.967 182.69 240.523 185.738 244.574C188.177 247.815 186.19 250.37 184.891 251.242C168.093 266.637 178.202 284.835 186.923 292.009C213.68 311.793 256.015 305.542 273.881 299.69C306.395 280.446 300.553 267.785 290.223 262.805C279.893 257.825 274.05 250.482 273.881 243.055C273.712 235.627 274.22 217.734 260.08 210.475C245.939 203.216 252.29 207.605 246.193 197.139C241.316 188.766 232.307 184.929 228.412 184.057Z" fill="#7432A0"/>
<path d="M245.175 199.671C244.159 194.471 239.389 190.414 237.131 189.036C233.575 186.152 229.426 185.575 235.099 190.555C239.637 194.539 240.857 197.983 242.211 201.274C244.33 206.423 245.401 201.809 245.175 199.671Z" fill="#AF6ADC"/>
<path d="M268.635 223.729C267.958 217.652 260.732 213.094 257.204 211.575C254.156 209.97 249.16 210.477 256.781 214.529C262.877 217.77 262.708 221.281 264.909 225.079C268.567 232.101 268.917 227.105 268.635 223.729Z" fill="#AF6ADC"/>
<ellipse cx="268.549" cy="231.827" rx="1.43941" ry="1.77247" fill="#AF6ADC"/>
<ellipse cx="1.10062" cy="2.19471" rx="1.10062" ry="2.19471" transform="matrix(0.98446 0.17561 -0.176691 0.984266 203.453 198.586)" fill="#AF6ADC"/>
<path d="M187.347 222.966C187.956 216.754 192.963 212.5 195.391 211.149C198.693 209.292 200.217 209.799 195.729 213.513C192.139 216.484 190.282 219.702 189.802 220.94C187.635 229.583 187.262 225.892 187.347 222.966Z" fill="#AF6ADC"/>
<path d="M217.4 219.847C213.471 219.645 211.078 217.512 210.372 216.471C208.989 214.924 206.782 212.842 209.018 216.893C211.812 221.958 215.453 222.211 217.908 222.211C220.434 222.211 222.311 220.101 217.4 219.847Z" fill="#AF6ADC"/>
<path d="M183.534 255.716C184.889 252.069 182.18 254.815 180.656 256.644C178.616 259.092 177.421 264.797 178.37 268.376C179.555 272.849 181.587 271.668 181.164 267.701C180.74 263.734 181.841 260.273 183.534 255.716Z" fill="#AF6ADC"/>
<path d="M227.911 253.352C220.663 255.513 212.867 253.577 209.876 252.339C206.828 251.073 202.442 249.942 209.283 255.547C217.835 262.552 227.265 259.75 229.435 258.163C231.975 256.306 236.971 250.651 227.911 253.352Z" fill="#470F6B"/>
<path d="M252.209 262.048C268.669 253.945 273.123 238.077 273.292 231.156C273.292 247.362 275.832 255.633 290.226 262.639C304.62 269.644 298.27 280.195 288.533 290.914C280.743 299.489 264.345 302.984 257.12 303.659C212.26 313.371 187.716 295.652 181.022 285.546C181.015 285.535 181.007 285.523 181 285.512C181.007 285.523 181.015 285.535 181.022 285.546C183.069 288.577 197.085 292.073 203.861 293.446C236.307 299.996 255.031 285.203 260.337 276.987C271.717 263.01 259.66 261.204 252.209 262.048Z" fill="#470F6B"/>
<path d="M288.274 263.309C280.823 261.081 276.815 256.529 275.742 254.531C275.121 255.994 274.929 259.579 279.129 262.212C283.329 264.845 287.483 267.248 289.036 268.12C290.673 269.189 293.879 270.686 293.608 268.12C293.337 265.554 289.939 263.844 288.274 263.309Z" fill="#7432A0"/>
<ellipse cx="222.059" cy="203.557" rx="15.4102" ry="15.3615" fill="#470F6B"/>
<ellipse cx="222.055" cy="203.561" rx="13.0394" ry="12.9982" fill="#F5F5F5"/>
<ellipse cx="222.056" cy="203.558" rx="9.31386" ry="9.28439" fill="url(#paint1_radial_35464_122107)"/>
<ellipse cx="221.723" cy="203.725" rx="4.40291" ry="4.38899" fill="#221F38"/>
<ellipse cx="221.037" cy="234.281" rx="20.4905" ry="9.4532" fill="url(#paint2_linear_35464_122107)"/>
<path d="M217.145 229.723C215.113 229.521 215.282 226.572 215.621 225.166C217.382 224.896 219.855 224.744 221.209 224.828L221.209 227.529C221.209 229.47 219.685 229.977 217.145 229.723Z" fill="url(#paint3_linear_35464_122107)"/>
<path d="M223.657 229.639C222.031 229.504 222.076 226.319 222.302 224.828C223.403 224.828 226.479 225.081 227.89 225.335C228.703 228.103 227.382 229.414 226.62 229.639C226.31 229.695 225.282 229.774 223.657 229.639Z" fill="url(#paint4_linear_35464_122107)"/>
<g filter="url(#filter1_d_35464_122107)">
<rect x="76.7734" y="144" width="76" height="76.2194" rx="38" fill="url(#paint5_linear_35464_122107)" shape-rendering="crispEdges"/>
<path d="M105.798 175.149C105.904 172.296 106.838 170.096 108.598 168.549C110.358 167.003 112.744 166.229 115.758 166.229C117.758 166.229 119.464 166.576 120.878 167.269C122.318 167.963 123.398 168.909 124.118 170.109C124.864 171.309 125.238 172.656 125.238 174.149C125.238 175.909 124.798 177.349 123.918 178.469C123.038 179.563 122.011 180.309 120.838 180.709V180.869C122.358 181.376 123.558 182.216 124.438 183.389C125.318 184.563 125.758 186.069 125.758 187.909C125.758 189.563 125.371 191.029 124.598 192.309C123.851 193.563 122.744 194.549 121.278 195.269C119.838 195.989 118.118 196.349 116.118 196.349C112.918 196.349 110.358 195.563 108.438 193.989C106.544 192.416 105.544 190.043 105.438 186.869H112.078C112.104 188.043 112.438 188.976 113.078 189.669C113.718 190.336 114.651 190.669 115.878 190.669C116.918 190.669 117.718 190.376 118.278 189.789C118.864 189.176 119.158 188.376 119.158 187.389C119.158 186.109 118.744 185.189 117.918 184.629C117.118 184.043 115.824 183.749 114.038 183.749H112.758V178.189H114.038C115.398 178.189 116.491 177.963 117.318 177.509C118.171 177.029 118.598 176.189 118.598 174.989C118.598 174.029 118.331 173.283 117.798 172.749C117.264 172.216 116.531 171.949 115.598 171.949C114.584 171.949 113.824 172.256 113.318 172.869C112.838 173.483 112.558 174.243 112.478 175.149H105.798Z" fill="white"/>
</g>
<defs>
<filter id="filter0_d_35464_122107" x="0.610657" y="0.325386" width="637.175" height="585.339" filterUnits="userSpaceOnUse" color-interpolation-filters="sRGB">
<feFlood flood-opacity="0" result="BackgroundImageFix"/>
<feColorMatrix in="SourceAlpha" type="matrix" values="0 0 0 0 0 0 0 0 0 0 0 0 0 0 0 0 0 0 127 0" result="hardAlpha"/>
<feOffset dx="86.0342" dy="52.4599"/>
<feGaussianBlur stdDeviation="106.599"/>
<feComposite in2="hardAlpha" operator="out"/>
<feColorMatrix type="matrix" values="0 0 0 0 0.155449 0 0 0 0 0.282132 0 0 0 0 1 0 0 0 0.3 0"/>
<feBlend mode="normal" in2="BackgroundImageFix" result="effect1_dropShadow_35464_122107"/>
<feBlend mode="normal" in="SourceGraphic" in2="effect1_dropShadow_35464_122107" result="shape"/>
</filter>
<filter id="filter1_d_35464_122107" x="6.30832" y="81.2093" width="221.21" height="221.335" filterUnits="userSpaceOnUse" color-interpolation-filters="sRGB">
<feFlood flood-opacity="0" result="BackgroundImageFix"/>
<feColorMatrix in="SourceAlpha" type="matrix" values="0 0 0 0 0 0 0 0 0 0 0 0 0 0 0 0 0 0 127 0" result="hardAlpha"/>
<feOffset dx="2.09302" dy="9.76744"/>
<feGaussianBlur stdDeviation="36.2791"/>
<feComposite in2="hardAlpha" operator="out"/>
<feColorMatrix type="matrix" values="0 0 0 0 0.282353 0 0 0 0 0.0745098 0 0 0 0 0.447059 0 0 0 1 0"/>
<feBlend mode="normal" in2="BackgroundImageFix" result="effect1_dropShadow_35464_122107"/>
<feBlend mode="normal" in="SourceGraphic" in2="effect1_dropShadow_35464_122107" result="shape"/>
</filter>
<linearGradient id="paint0_linear_35464_122107" x1="451.635" y1="367.179" x2="451.635" y2="208.234" gradientUnits="userSpaceOnUse">
<stop stop-color="#F87CE0"/>
<stop offset="1" stop-color="#7EBBEB"/>
</linearGradient>
<radialGradient id="paint1_radial_35464_122107" cx="0" cy="0" r="1" gradientUnits="userSpaceOnUse" gradientTransform="translate(222.056 203.558) rotate(90) scale(9.28439 9.31386)">
<stop offset="0.375" stop-color="#E5B8CF"/>
<stop offset="0.901042" stop-color="#18BC29"/>
</radialGradient>
<linearGradient id="paint2_linear_35464_122107" x1="221.037" y1="243.735" x2="221.037" y2="224.828" gradientUnits="userSpaceOnUse">
<stop stop-color="#221F38"/>
<stop offset="1" stop-color="#413C65"/>
</linearGradient>
<linearGradient id="paint3_linear_35464_122107" x1="218.312" y1="224.912" x2="218.312" y2="229.784" gradientUnits="userSpaceOnUse">
<stop stop-color="#D9D6D7"/>
<stop offset="0.734375" stop-color="white"/>
</linearGradient>
<linearGradient id="paint4_linear_35464_122107" x1="225.167" y1="224.946" x2="225.167" y2="229.714" gradientUnits="userSpaceOnUse">
<stop stop-color="#D9D9D9"/>
<stop offset="0.770833" stop-color="white"/>
</linearGradient>
<linearGradient id="paint5_linear_35464_122107" x1="114.773" y1="144" x2="114.773" y2="220.219" gradientUnits="userSpaceOnUse">
<stop offset="0.0868" stop-color="#FF3A6A" stop-opacity="0.49"/>
<stop offset="1" stop-color="#FF3A6A" stop-opacity="0"/>
</linearGradient>
</defs>
</svg>
