<svg width="253" height="103" viewBox="0 0 253 103" fill="none" xmlns="http://www.w3.org/2000/svg">
<g clip-path="url(#clip0_39765_37524)">
<path d="M250.704 61.3641V50.2266C250.704 46.8453 249.05 44.6234 245.677 44.6234C242.889 44.6234 240.993 46.4672 239.755 48.2797V44.5547L233.934 47.3547V47.9016C235.518 47.6953 235.518 48.2078 235.518 50.6016V61.3641C235.518 63.1734 234.932 63.4484 234.072 63.4484V64.0297H241.613V63.4484C240.271 63.4484 239.755 63.1766 239.755 61.3641V49.9547C240.58 48.7922 241.752 47.4953 243.68 47.4953C245.607 47.4953 246.467 48.5891 246.467 50.6734V61.3672C246.467 63.1766 245.882 63.4516 244.644 63.4516V64.0328H252.254V63.4516C251.29 63.4516 250.704 63.1797 250.704 61.3672V61.3641Z" fill="white"/>
<path d="M224.29 44.7266C219.297 44.7266 215.473 48.7922 215.473 54.4984C215.473 60.2047 219.363 64.2703 224.29 64.2703C229.216 64.2703 233.106 60.2734 233.106 54.5672C233.106 48.8609 229.216 44.7297 224.29 44.7297V44.7266ZM225.014 62.9703C221.467 62.9703 219.813 56.9578 219.813 51.6953C219.813 47.8703 221.571 46.0578 223.603 46.0578C227.184 46.0578 228.769 51.8641 228.769 57.1953C228.769 61.0203 227.046 62.9703 225.014 62.9703Z" fill="white"/>
<path d="M213.135 61.3656V44.1813H212.515C211.929 44.9344 211.138 45.4125 209.311 45.4125H202.218V39.4H201.358C200.498 42.9531 198.501 45.7531 196.296 46.4375V46.95H197.984V59.5906C197.984 59.7969 197.984 60.0344 198.019 60.2062C197.363 61.3344 196.538 62.1531 195.54 62.1531C194.714 62.1531 194.128 61.7437 194.128 60.2062V50.2656C194.128 46.2687 191.511 44.6281 187.655 44.6281C182.936 44.6281 180.01 47.0531 180.01 49.5469C180.01 50.7437 180.801 51.5625 182.076 51.5625C183.418 51.5625 184.039 50.7094 184.247 49.375C184.521 47.4281 184.902 45.925 187.208 45.925C189.101 45.925 190.134 47.1563 190.134 49.2031C190.134 51.0813 189.375 52.0031 188.276 52.5156C187.173 53.0969 185.797 53.4031 184.42 53.8812C181.698 54.7687 179.601 56.2031 179.601 59.4844C179.601 60.0656 179.682 60.6062 179.834 61.1C179.342 61.7344 178.763 62.1469 178.085 62.1469C177.329 62.1469 176.778 61.7375 176.778 60.2V36.7344L170.891 39.2969V39.8437C172.545 39.6719 172.545 40.15 172.545 42.3031V45.4812C171.65 44.9687 170.478 44.6281 168.963 44.6281C164.314 44.6281 159.941 48.5906 159.941 55.2531C159.941 61.0594 162.868 64.2719 166.726 64.2719C169.24 64.2719 171.307 62.6656 172.579 60.8562C172.649 62.8719 173.786 64.375 176.091 64.375C178.007 64.375 179.286 63.4156 180.202 61.9813C181.04 63.5281 182.694 64.4438 184.7 64.4438C187.145 64.4438 188.833 62.8719 189.97 61.2656C190.144 63.0094 191.347 64.375 193.587 64.375C195.826 64.375 197.203 63.2125 198.236 61.5062C198.822 63.4875 200.372 64.4094 202.403 64.4094C205.676 64.4094 206.81 61.7438 207.053 58.6344L206.467 58.5656C205.985 60.9219 205.226 61.9469 204.092 61.9469C202.958 61.9469 202.233 61.1625 202.233 59.35V46.95H207.399C208.914 46.95 208.914 47.3594 208.914 49.75V61.3656C208.914 63.175 208.329 63.45 207.434 63.45V64.0312H214.736V63.45C213.702 63.45 213.151 63.1781 213.151 61.3656H213.135ZM172.535 59.1437C171.571 60.4406 170.503 61.5 168.714 61.5C165.511 61.5 164.134 57.4688 164.134 52.6188C164.134 48.0406 166.097 45.9563 168.472 45.9563C170.847 45.9563 172.535 47.9375 172.535 50.9094V59.1437ZM189.926 59.6906C188.928 61.0219 187.929 61.8437 186.587 61.8437C184.864 61.8437 183.866 60.6469 183.866 58.7C183.866 57.0594 184.656 56 185.967 55.2156C186.965 54.6687 187.895 54.3969 188.723 53.8844C189.344 53.475 189.756 53.0312 189.929 52.6531V59.6906H189.926Z" fill="white"/>
<path d="M210.966 43.1203C212.516 43.1203 213.549 42.0609 213.549 40.6266C213.549 39.1922 212.516 38.1328 210.966 38.1328C209.417 38.1328 208.418 39.2266 208.418 40.6266C208.418 42.0266 209.486 43.1203 210.966 43.1203Z" fill="white"/>
<path d="M157.589 61.3641V50.2266C157.589 46.8453 155.935 44.6234 152.562 44.6234C149.774 44.6234 147.878 46.4672 146.64 48.2797V44.5547L140.819 47.3547V47.9016C142.403 47.6953 142.403 48.2078 142.403 50.6016V60.7141C142.403 62.4234 141.612 63.1047 140.337 63.1047C139.061 63.1047 138.236 62.4203 138.236 60.7141V44.5547L132.383 47.2891V47.8359C134.002 47.5953 134.002 48.3141 134.002 50.6016V59.3828C133.211 60.4422 132.005 61.5703 130.282 61.5703C128.559 61.5703 127.63 60.5109 127.63 58.3578V44.5547L121.742 47.2891V47.8359C123.361 47.5953 123.361 48.3141 123.361 50.6016V58.8016C123.361 62.2172 124.98 64.4391 128.389 64.4391C130.937 64.4391 132.83 62.7641 134.071 61.0578C134.245 62.8016 135.278 64.0297 138.478 64.0297H148.498V63.4484C147.156 63.4484 146.64 63.1766 146.64 61.3641V49.9547C147.465 48.7922 148.637 47.4953 150.565 47.4953C152.492 47.4953 153.352 48.5891 153.352 50.6734V61.3672C153.352 63.1766 152.767 63.4516 151.529 63.4516V64.0328H159.139V63.4516C158.175 63.4516 157.589 63.1797 157.589 61.3672V61.3641Z" fill="white"/>
<path d="M112.204 44.7266C107.211 44.7266 103.387 48.7922 103.387 54.4984C103.387 60.2047 107.277 64.2703 112.204 64.2703C117.13 64.2703 121.02 60.2734 121.02 54.5672C121.02 48.8609 117.13 44.7297 112.204 44.7297V44.7266ZM112.925 62.9703C109.378 62.9703 107.724 56.9578 107.724 51.6953C107.724 47.8703 109.482 46.0578 111.514 46.0578C115.095 46.0578 116.68 51.8641 116.68 57.1953C116.68 61.0203 114.957 62.9703 112.925 62.9703Z" fill="white"/>
<path d="M98.1196 39.8063C102.079 39.8063 103.39 40.7969 103.525 44.8625H104.25V38.4062H86.7891V38.9875C88.3735 38.9875 88.9941 39.1594 88.9941 41.6188V60.7844C88.9941 63.2094 88.3735 63.4156 86.7891 63.4156V64.0312H95.9146V63.4156C94.1254 63.4156 93.4009 63.2094 93.4009 60.7844V51.6281H97.2219C99.6316 51.6281 100.46 52.5844 100.561 55.0781H101.251V46.7438H100.561C100.457 49.375 99.6316 50.1938 97.2219 50.1938H93.4009V39.8094H98.1196V39.8063Z" fill="white"/>
<path d="M75.7367 53.1281L73.0844 51.4188C71.4306 50.3594 70.4321 49.6094 70.4321 48.2406C70.4321 46.8719 71.4653 45.9844 73.0844 45.9844C75.2201 45.9844 77.3211 47.5906 77.8724 50.6656H78.4929V45.0281H77.8724C77.8377 45.5062 77.6645 45.7469 77.2172 45.7469C76.562 45.7469 75.3933 44.7219 72.9804 44.7219C70.0194 44.7219 67.2978 46.4656 67.2978 49.8469C67.2978 52 68.5043 53.6719 70.7408 55.1094L73.3584 56.7844C75.2516 58.0156 75.9761 58.6969 75.9761 60.2344C75.9761 61.7719 74.9429 62.9344 72.7032 62.9344C69.8462 62.9344 66.9513 61.1594 66.504 56.3063H66.0567C64.9889 59.5844 63.0264 61.2937 60.2702 61.2937C56.5154 61.2937 54.1749 58.0812 54.1749 52.6844V52.5469H65.9181C65.7795 47.7656 63.0611 44.725 58.7897 44.725C54.5183 44.725 50.0421 48.55 50.0421 55.1094C50.0421 56.6062 50.3067 58.0219 50.817 59.275C50.0453 61.0313 49.0782 61.9406 47.8025 61.9406C46.3566 61.9406 45.5975 61.1563 45.5975 59.3094V46.5656H50.1429V45.0281H45.5975V39.3906H44.7375C43.8776 42.8406 41.8805 45.3688 39.6755 46.0531V46.5656H41.3639V59.5813C41.3639 59.7875 41.3639 59.9906 41.3985 60.1625C40.7087 61.325 39.8834 62.1437 38.9195 62.1437C38.0942 62.1437 37.5083 61.7344 37.5083 60.1969V50.2563C37.5083 46.2594 34.8906 44.6187 31.035 44.6187C26.3163 44.6187 23.39 47.0437 23.39 49.5375C23.39 50.7344 24.1806 51.5531 25.4564 51.5531C26.7983 51.5531 27.4188 50.7 27.6267 49.3656C27.9008 47.4188 28.2819 45.9156 30.5877 45.9156C32.4809 45.9156 33.5141 47.1469 33.5141 49.1937C33.5141 51.0719 32.7549 51.9937 31.6556 52.5062C30.5531 53.0875 29.1765 53.3938 27.8 53.8719C25.0784 54.7594 22.9805 56.1938 22.9805 59.475C22.9805 62.4813 25.1508 64.4281 28.0772 64.4281C30.5216 64.4281 32.21 62.8562 33.3471 61.25C33.5204 62.9937 34.7237 64.3594 36.9633 64.3594C39.203 64.3594 40.5795 63.1969 41.6474 61.4906C42.2679 63.4719 43.9532 64.3937 46.1928 64.3937C49.0121 64.3937 50.5272 62.6156 51.3651 60.3781C52.7165 62.7188 55.079 64.2594 58.314 64.2594C62.1035 64.2594 64.5825 62.45 65.9591 58.5875V64.0187H66.6143C66.6489 63.6094 66.8883 63.0625 67.4049 63.0625C68.1641 63.0625 69.3327 64.2594 72.6056 64.2594C76.8077 64.2594 79.6647 61.8687 79.6647 58.7594C79.6647 56.0937 78.1149 54.6594 75.7398 53.1219L75.7367 53.1281ZM58.1408 46.0562C60.1725 46.0562 61.379 47.9 61.5837 51.2844H54.2474C54.6254 47.7656 56.3484 46.0562 58.1376 46.0562H58.1408ZM33.3125 59.6875C32.3139 61.0187 31.3154 61.8406 29.9735 61.8406C28.2504 61.8406 27.2519 60.6438 27.2519 58.6969C27.2519 57.0563 28.0425 55.9969 29.3529 55.2125C30.3515 54.6656 31.2807 54.3937 32.1092 53.8812C32.7297 53.4719 33.1424 53.0281 33.3156 52.65V59.6875H33.3125Z" fill="white"/>
<path d="M13.717 52.6531C15.4054 52.6531 16.1268 52.8594 16.1268 55.3875V60.4438C16.1268 62.2531 15.2668 63.0406 13.2697 63.075C7.55246 63.1094 4.83401 56.6875 4.83401 48.7594C4.83401 42.4063 7.93361 39.4 11.7892 39.4C15.6448 39.4 18.6405 41.6219 19.2957 46.0625H20.0202V38.4094H19.3303C19.2957 38.9563 18.987 39.3313 18.4357 39.3313C17.5758 39.3313 15.4747 38 12.4791 38C6.04046 37.9969 0.253906 42.95 0.253906 51.425C0.253906 58.7031 4.86866 64.4406 12.7531 64.4062C16.5079 64.4062 19.1917 63.2781 20.5368 62.1188V55.3875C20.5368 52.8594 21.1227 52.6531 22.4992 52.6531V52.0375H13.717V52.6531Z" fill="white"/>
</g>
<defs>
<clipPath id="clip0_39765_37524">
<rect width="252" height="64" fill="white" transform="translate(0.253906 19.2188)"/>
</clipPath>
</defs>
</svg>
