<svg width="103" height="103" viewBox="0 0 103 103" fill="none" xmlns="http://www.w3.org/2000/svg">
<g clip-path="url(#clip0_34064_133195)">
<mask id="mask0_34064_133195" style="mask-type:luminance" maskUnits="userSpaceOnUse" x="1" y="0" width="102" height="103">
<path d="M102.81 0H1.0625V102.435H102.81V0Z" fill="white"/>
</mask>
<g mask="url(#mask0_34064_133195)">
<path fill-rule="evenodd" clip-rule="evenodd" d="M43.5776 8.74452L43.5402 8.5822C44.5048 8.36827 45.4492 8.07176 46.3629 7.69572C50.2293 5.96222 50.4394 2.00929 50.3409 0.308617V0.0471694L50.3278 0.0333446H50.3409V0L50.3708 0.0333446H53.4393V0.335395C53.354 2.96192 53.5049 5.35206 56.019 7.00678C57.3098 7.83506 58.7506 8.40176 60.2597 8.67463L60.2591 8.67675C61.2594 8.85972 62.2755 8.94308 63.2923 8.92567C67.5198 8.80086 69.1542 4.98589 69.7122 3.37714L69.8173 3.08822L70.2243 3.25895L72.4167 4.17823L72.6858 4.29643L72.5677 4.56564C71.4846 6.95576 70.71 9.22769 72.397 11.7163C73.322 12.9224 74.4477 13.9598 75.7252 14.7828L75.6464 14.8914L75.6654 14.905L75.7252 14.8225C76.5523 15.4734 77.4587 16.0161 78.423 16.4378C82.3614 17.9416 85.2895 15.0852 86.4186 13.8113L86.6282 13.5815L86.6164 14.0002L86.6369 13.9773L86.6479 13.5815L86.9568 13.8967L88.6304 15.5842L88.8345 15.7944L88.6178 15.9979C86.707 17.797 85.1256 19.5963 85.7291 22.5642C86.1397 24.0455 86.7677 25.4573 87.5935 26.7535L87.5879 26.7565C88.1521 27.7022 88.8282 28.5758 89.602 29.3586C92.6805 32.2609 96.4225 30.7441 97.9519 30.0152L98.2277 29.8773L98.1182 30.1509L98.119 30.1537L98.2277 29.8844L98.3979 30.2981L99.2978 32.4978L99.4089 32.7736L99.1268 32.8721C96.6715 33.798 94.4597 34.842 93.8758 37.7771C93.6521 39.3634 93.7143 40.9767 94.0594 42.5409L94.0791 42.5373C94.2635 43.4422 94.5503 44.3233 94.9325 45.1639C96.6849 49.0184 100.703 49.1037 102.402 49.025H102.711L102.231 49.4516L102.242 49.4511L102.711 49.0319V52.1509H102.402C99.7768 52.0786 97.3744 52.3085 95.733 54.8234C94.7489 56.442 94.5488 57.6469 94.2643 59.366L94.2249 59.6034L94.2296 59.6044C94.1075 60.5468 94.061 61.4977 94.0917 62.4476C94.2367 66.6829 97.788 68.1209 99.3963 68.6725L99.6823 68.7704L99.6847 68.769V68.771L99.5145 69.1827L98.6083 71.3758L98.4901 71.6451L98.2214 71.5269C95.8252 70.4566 93.5536 69.6949 91.066 71.389C89.557 72.4947 88.9117 73.5302 88.0016 74.9893L87.9977 74.9958L87.9945 75.0004C87.9449 75.0806 87.8944 75.1613 87.8432 75.2434L87.5659 75.0825L87.5651 75.0839L87.8432 75.2454C87.2885 76.0937 86.811 76.99 86.4186 77.9245C84.9349 81.8641 87.5997 84.6944 88.8731 85.8039L89.1032 86.0072L88.606 85.9843L88.5997 85.9914L89.1032 86.019L88.7951 86.3342L87.1144 88.0149L86.904 88.2253L86.7007 88.0086C84.8955 86.1041 83.0903 84.5282 80.1362 85.1451C78.5123 85.521 76.992 86.2514 75.6838 87.2837L75.6858 87.286C74.8994 87.8179 74.1576 88.4136 73.467 89.0652C70.5787 92.158 72.0032 95.7503 72.7515 97.2734L72.8828 97.5555L72.4515 97.3577L72.4384 97.3632L72.8631 97.5586L72.4561 97.7288L70.2636 98.635L69.988 98.7469L69.8829 98.4711C68.9442 96.0221 67.9924 93.8749 65.0319 93.3233C63.397 93.0255 61.7181 93.0807 60.1069 93.4841L60.1086 93.4912C59.1867 93.6779 58.2915 93.9773 57.4435 94.3839C53.5902 96.1371 53.3802 99.9981 53.5049 101.692V102.001L53.2246 101.721H53.2062L53.4917 102.001H50.3803V101.706C50.4525 99.0794 50.2884 96.6887 47.7545 95.0411C46.35 94.183 44.7874 93.6149 43.1595 93.373L43.1615 93.3627C42.2026 93.1862 41.2324 93.0791 40.2581 93.0405C36.0241 93.1855 34.6324 96.7376 34.081 98.3466L33.976 98.635L33.79 98.1724L33.7754 98.2118L33.9498 98.6326L33.5428 98.4687L31.3503 97.5555L31.0746 97.4373L31.1928 97.1686C32.2627 94.7716 32.9717 92.6969 31.2781 90.2078C30.2859 88.8123 29.036 87.6185 27.5958 86.6927L27.589 86.7013C26.8016 86.0978 25.9443 85.5903 25.0354 85.1916C21.0968 83.7071 18.3923 86.5965 17.2633 87.8707L17.0597 88.1L16.7447 87.7919C16.4947 87.5413 16.2625 87.2986 16.0203 87.0449C15.7982 86.8125 15.5677 86.5713 15.3071 86.3074L15.097 86.0978L15.2817 86.0812L15.2614 86.0607L15.097 86.071L15.3136 85.8677C17.2173 84.0617 18.6418 81.7372 17.9394 78.8155C17.5499 77.3085 16.8624 75.8955 15.9176 74.659L16.1979 74.4626L16.196 74.4607L15.911 74.6596C15.3177 73.8382 14.6449 73.0772 13.9023 72.3877C10.8105 69.4985 7.33801 70.9037 5.83478 71.6523L5.55252 71.7902L5.38185 71.3765L4.47597 69.1833L4.36437 68.9075L4.89916 69.0993L4.90542 69.0966L4.37094 68.9082L4.64665 68.8031C7.09514 67.8642 9.24161 66.8332 9.79964 63.8389C10.1016 61.869 9.62235 58.8617 9.03816 56.9509L9.06274 56.9447C8.74378 55.902 8.15565 54.9617 7.35772 54.2187C5.56492 52.8538 3.34498 52.1717 1.09535 52.2947V49.4175L1.0625 49.3869H1.09535V49.3858L1.09638 49.3869H1.3579C3.98362 49.4525 6.37304 49.2884 8.01412 46.7604C8.88443 45.3876 9.44451 43.8413 9.65521 42.2296L9.66506 42.2316C9.84109 41.3276 9.94754 40.4114 9.98339 39.4909C9.83904 35.2622 6.04483 33.6404 4.41032 33.0888L4.11492 32.9903L4.75299 32.7663L4.71453 32.7515L4.11492 32.963L4.2856 32.5494L5.19148 30.3562L5.30963 30.087L5.57876 30.2052C7.97473 31.2755 10.2657 31.9452 12.6879 30.1592C13.9251 29.181 14.9996 28.0131 15.8716 26.6988L15.8874 26.7103C16.4562 25.9358 16.9272 25.0939 17.2895 24.2038C18.7796 20.264 16.0948 17.5652 14.8148 16.4424L14.585 16.2388L15.1178 16.2648L15.0899 16.2387L14.585 16.207L14.9001 15.8918L16.5806 14.2108L16.7906 14.0073L16.9941 14.2174C18.7993 16.1216 20.6373 17.6056 23.5584 16.9884C25.1499 16.554 26.6552 15.8499 28.009 14.9068L28.2092 15.2014L28.2359 15.1836L28.0484 14.9079C28.928 14.3311 29.764 13.6902 30.5495 12.9905C33.4377 9.89123 31.7507 6.35855 31.0024 4.83516L30.8514 4.55281L31.0213 4.63354L30.8514 4.55117L31.265 4.38045L33.4574 3.47429L33.7331 3.36266L33.8382 3.63845C34.7769 6.08769 35.8403 8.23487 38.8008 8.79298C40.3812 9.00675 41.9867 8.94679 43.5468 8.61569L43.5765 8.74475L43.5776 8.74452ZM14.7505 53.2264C12.6469 51.3249 10.6915 49.2653 8.90161 47.0657L8.90649 47.0569C10.7047 49.2617 12.6691 51.3252 14.7827 53.2294L14.7505 53.2264ZM69.9932 3.46795L69.8205 3.09533L69.9939 3.46575L69.9932 3.46795ZM11.6967 58.9861C11.6114 58.6447 11.1847 56.0969 11.4079 55.1645C11.6768 54.0424 12.3064 53.5564 16.6903 54.316C16.803 55.4879 16.9747 56.6571 17.2057 57.819C17.4396 58.9959 17.7326 60.1564 18.0827 61.2963L18.0595 61.313L18.0313 61.2322C17.4021 61.6936 16.7443 62.1147 16.062 62.4929C15.3005 62.9263 14.5391 63.294 13.7119 62.9263C12.7732 62.2697 12.0052 60.2206 11.6967 58.9861ZM16.6921 47.5363C16.9192 45.1869 17.3821 42.8603 18.077 40.5925L18.0685 40.5864L18.0575 40.6205C14.2962 38.2435 13.8564 38.388 13.1146 39.3072C12.4551 40.1245 12.0966 42.3378 12.0067 42.8927C11.9971 42.9521 11.9906 42.9925 11.987 43.0102L12.0118 43.0165C11.9973 43.1048 11.978 43.2119 11.956 43.3342C11.7699 44.3673 11.3897 46.479 12.0118 47.3831C12.4975 48.0397 13.6135 47.9478 14.4734 47.8624L16.6921 47.5363ZM20.7328 34.2257C21.7963 32.2463 23.044 30.3777 24.4563 28.6435L24.4154 28.5773C21.9329 25.2696 21.1099 24.9296 20.0926 25.4646C19.1873 25.9405 18.1232 27.6273 17.843 28.0714C17.8158 28.1145 17.796 28.1458 17.7845 28.1633L17.795 28.1712C16.9679 29.5371 16.3114 31.2771 16.5346 32.2227C16.6856 33.0566 17.6702 33.3652 18.5039 33.6147L20.7328 34.2257ZM32.213 21.5866C33.1931 20.9317 34.2022 20.3284 35.2363 19.778L35.1844 19.4568L35.1837 19.4529L35.1453 19.215C34.7773 17.7456 34.4425 16.7878 34.1085 16.1722C33.8874 15.8277 33.6398 15.5202 33.3772 15.3118C33.0553 15.1171 32.7142 15.109 32.3284 15.155C31.1731 15.2929 29.276 16.6194 29.1184 16.7506L29.1056 16.731C27.9764 17.6309 26.2427 19.079 25.9675 20.2981C25.8629 21.0437 26.5905 21.6389 27.2338 22.1652C27.276 22.1997 27.3179 22.234 27.3592 22.268L29.2694 23.7783L29.178 23.8556L29.1806 23.8572C30.1469 23.0492 31.1589 22.2909 32.213 21.5866ZM41.4427 17.1995C43.7237 16.498 46.0757 16.028 48.463 15.8004L48.4634 15.7989L48.2403 15.8192C48.9362 11.5051 48.5751 10.75 47.4723 10.4086C46.4032 10.0776 44.0818 10.592 43.7494 10.6656L43.7241 10.6712L43.7116 10.6236L43.6985 10.6267L43.7044 10.6523C42.6344 10.869 40.5338 11.6307 39.8314 12.55C39.3719 13.2066 40.0743 15.1765 41.5775 17.1464L41.4365 17.191L41.4427 17.1995ZM55.2757 15.8116C57.5861 16.0395 59.8573 16.4941 62.058 17.1623L62.0622 17.1564L61.9992 17.1403C64.2836 13.4172 64.3558 12.498 63.4696 11.7559C62.6143 11.0398 60.2917 10.7275 59.7412 10.6534L59.691 10.6466L59.6886 10.6591C59.0977 10.5803 56.1504 10.298 55.4086 11.0399C54.467 11.9818 55.0079 14.5385 55.2198 15.5403L55.22 15.541C55.2433 15.6514 55.2628 15.7433 55.2757 15.8116ZM79.0106 28.4533C80.501 30.2579 81.8012 32.1975 82.898 34.2404L82.909 34.2385L82.8476 34.1251C87.101 33.1074 87.3902 32.4507 87.2846 31.3016C87.1813 30.1664 86.001 28.2432 85.8205 28.0257L85.8016 28.0386C85.2635 27.1982 83.8908 25.504 82.3811 25.3596C81.653 25.3202 80.9833 26.0162 80.412 26.6137C80.0172 27.0269 79.6508 27.5499 79.3467 27.9831C79.223 28.1589 79.1104 28.3205 79.0106 28.4533ZM85.5448 40.5904C86.2232 42.803 86.6857 45.0873 86.919 47.4117L86.9347 47.4155L86.9174 47.2656C91.0329 47.8763 91.8011 47.502 92.1691 46.3989C92.4906 45.4346 92.1494 43.7727 92.0194 43.1373C91.9997 43.0461 91.9855 42.9756 91.9784 42.9319L92.11 42.8955L92.1084 42.8851L91.939 42.9316C91.9138 42.8336 91.8855 42.7001 91.8508 42.5407C91.6317 41.5258 91.1873 39.4656 90.081 38.8868C89.2545 38.5191 88.3617 38.9656 87.5935 39.3728L85.5448 40.5904ZM86.9481 54.1467C86.7354 56.4739 86.2933 58.7683 85.6299 60.9968L85.6464 61.009L85.6566 60.9763C89.4184 63.3598 89.884 63.3204 90.6783 62.4865C91.4726 61.6528 91.8996 58.7784 91.8996 58.5994C92.1029 57.3714 92.1163 55.4015 91.5978 54.4232C91.092 53.7141 90.2126 53.7074 89.3459 53.7665L86.9481 54.1467ZM81.1511 70.5393C80.5089 71.4999 79.8234 72.4251 79.096 73.3129L79.0979 73.3169L79.2702 73.1041C81.7515 76.2887 82.4008 76.7878 83.4252 76.2493C84.3282 75.7746 85.5385 73.8428 85.856 73.3359L85.8568 73.3352C85.8986 73.2676 85.9246 73.2255 85.9324 73.2157L85.945 73.2255C86.6022 72.1468 87.7439 70.1729 87.5013 69.2956C87.2688 68.4499 86.3012 68.1623 85.4872 67.92L85.388 67.8904C84.5543 67.6409 83.812 67.4965 83.0706 67.3783L83.1297 67.2666L83.0926 67.2601C82.5072 68.3835 81.8595 69.4788 81.1511 70.5393ZM74.3407 78.0971C72.5355 79.5948 70.582 80.913 68.5064 82.028L68.507 82.0311L68.5569 82.0075C69.535 86.3539 70.0601 86.6627 71.1827 86.5642C72.3051 86.4658 74.4648 84.9749 74.688 84.8047L74.9459 85.09L74.9597 85.0805L74.7011 84.8055C75.712 84.083 77.5172 82.1785 77.6091 81.5221C77.701 80.8657 77.0117 80.0447 76.3422 79.4931C76.1361 79.315 75.9247 79.1441 75.7074 78.9794C75.2577 78.6762 74.8022 78.3821 74.3407 78.0971ZM44.9295 85.5509C43.7954 85.3256 42.6765 85.0451 41.5766 84.711L41.5747 84.7141L41.6169 84.7267C39.2406 88.4892 39.4047 89.0077 40.304 89.7429C41.2027 90.478 43.681 91.0099 43.9991 91.0564L44.0063 91.0036C45.2339 91.2077 47.6824 91.1943 48.3716 90.597C48.8508 90.2487 48.9755 89.2835 48.8901 88.423C48.7922 87.6248 48.6281 86.8353 48.3997 86.0631C47.2387 85.9512 46.0806 85.7802 44.9295 85.5509ZM35.3884 82.173C33.3054 81.0769 31.3322 79.7728 29.5005 78.2771L29.3166 78.3906L29.2796 78.413C25.8461 80.8421 25.618 81.4047 26.1646 82.3952C26.7612 83.4904 28.4172 84.5857 28.9963 84.9686L28.9969 84.9694C29.1111 85.0451 29.1833 85.0923 29.197 85.1065C30.3392 85.8748 32.2496 86.6895 33.3983 86.5319C34.1139 86.4004 34.4815 85.2184 34.7112 84.3974L35.256 82.1123L35.3878 82.1769L35.3884 82.173ZM24.6998 73.5224C23.1568 71.6693 21.8117 69.6673 20.6824 67.5503C16.3439 68.5208 15.9767 69.0724 16.0948 70.2208C16.1988 71.2327 17.4318 73.1238 17.7616 73.6301C17.8065 73.699 17.8346 73.7417 17.8409 73.7535L17.8237 73.7647C18.5469 74.7699 20.1724 76.493 21.1756 76.6768C22.0815 76.7556 22.6789 76.0202 23.2303 75.3176C23.7817 74.615 24.2149 73.9715 24.5431 73.3477L24.6963 73.5283L24.6998 73.5224ZM55.3362 86.0521L55.2845 86.0576L55.2842 86.0584L55.3362 86.0521ZM62.3375 84.6219C60.0985 85.3224 57.8012 85.7944 55.4802 86.0379C54.7195 90.4276 55.0938 90.913 56.1962 91.2865C57.2079 91.63 59.5617 91.095 60.0505 90.9839C60.0945 90.9744 60.1235 90.9681 60.1349 90.965L60.2107 91.2471L60.242 91.2408L60.1677 90.9366C61.3755 90.6545 63.5483 89.8926 64.1062 88.9667C64.4345 88.4419 64.1062 87.457 63.6599 86.6887C63.5029 86.3822 63.3334 86.0836 63.152 85.792C62.9248 85.4524 62.6921 85.1168 62.4544 84.7842C62.4189 84.7385 62.3831 84.6913 62.347 84.6464L62.3535 84.644L62.3375 84.6219ZM68.4256 19.799C70.4362 20.8722 72.3465 22.1426 74.128 23.5978L74.1385 23.5915L74.0709 23.5342C77.6091 20.9734 78.0095 20.1263 77.4646 19.102C76.9789 18.1884 75.1042 16.9615 74.6434 16.6603C74.5973 16.6301 74.5652 16.6091 74.5508 16.5988L74.5435 16.6083L74.5344 16.6025C74.4024 16.5176 74.1805 16.3749 73.8983 16.2137C73.339 15.9274 72.7548 15.6648 72.2152 15.4597C71.6113 15.276 70.9811 15.196 70.4342 15.3607C69.5941 15.689 69.2659 16.674 69.0164 17.4816L68.4256 19.799ZM91.9075 58.6003L92.2353 58.6452L92.2361 58.638L91.9075 58.6003ZM89.0819 53.0167C91.1739 51.1101 93.117 49.0441 94.8907 46.8371L94.8899 46.836C93.1155 49.0436 91.1723 51.1101 89.0787 53.017L89.0819 53.0167ZM22.8692 58.9083C22.8692 61.1867 21.9042 61.4297 19.8365 61.6661V62.5329H27.6677V61.6661C25.1076 61.3903 24.3855 60.7403 24.3855 58.2582V44.4689H24.4512L39.7854 63.1501H40.7504V42.847C40.7504 41.1923 40.9605 40.4043 43.4352 40.0892V39.229H36.0307V40.0892C36.8732 40.0855 37.6971 40.3373 38.3938 40.8115C39.0896 41.3828 39.234 42.2824 39.234 43.5037V53.9507H39.1684L27.2082 39.229H19.9415V40.0892C20.2369 40.0892 20.5848 40.1352 21.3463 40.8706C21.8894 41.4047 22.398 41.9727 22.8692 42.5712V58.9083ZM53.1176 39.7806C57.1809 39.7806 59.2487 43.7466 59.8657 46.1564H60.8307V38.6643H59.8C59.6228 39.3209 59.4522 39.8397 58.6644 39.8397C58.2864 39.8397 57.822 39.6787 57.2426 39.478C56.2827 39.1455 55.0075 38.7037 53.2883 38.7037C46.737 38.7037 45.6736 43.3855 45.6736 45.4867C45.5877 46.8833 46.0046 48.2646 46.8487 49.3805C47.6889 50.4968 49.1199 51.6918 51.5619 52.8672L53.879 53.9375C56.1175 55.0079 57.7389 55.8286 57.7389 58.14C57.7389 58.5865 57.5682 62.001 53.4327 62.001C51.9617 62.029 50.5318 61.5148 49.4153 60.5564C48.5884 59.8229 47.9184 58.9294 47.4461 57.9299C46.9419 56.8879 46.5777 55.784 46.3629 54.6467H45.3651V63.1829H46.3629C46.5007 62.6314 46.6714 62.0141 47.3935 62.0141C47.7887 62.0141 48.245 62.1697 48.8247 62.3674C49.8339 62.7114 51.2168 63.1829 53.3014 63.1829C59.6228 63.1829 61.835 58.9936 61.835 55.96C61.8402 54.6573 61.4895 53.3779 60.8209 52.26C60.1521 51.1422 59.1909 50.2281 58.0409 49.6169L52.9797 47.102C51.9159 46.6555 50.9434 46.0167 50.1112 45.2175C49.8938 44.971 49.7245 44.686 49.6122 44.377C49.4806 43.952 49.4186 43.5085 49.4285 43.0637C49.4285 40.818 51.3256 39.7806 53.1176 39.7806ZM83.3661 39.229H63.8634V40.0892C64.5488 40.0862 65.2291 40.2063 65.8721 40.4437C66.4891 40.7392 66.8895 41.3237 66.8895 42.5384V59.2168C66.8895 61.3533 65.8368 61.4621 63.8749 61.6649L63.8634 61.6661V62.5329H76.2372V61.6661C73.8281 61.561 72.4495 61.4954 72.4495 59.2168V51.1928C76.7689 51.1928 77.3203 53.7078 77.701 56.5312H78.5609V44.8826H77.701C77.235 47.6405 76.7163 50.0897 72.4495 50.0174V42.0197C72.4495 40.5422 73.0666 40.4043 74.9243 40.4043C80.8517 40.4043 81.7838 42.5712 82.5458 46.1564H83.3661V39.229Z" fill="white"/>
</g>
</g>
<defs>
<clipPath id="clip0_34064_133195">
<rect width="102.435" height="102.435" fill="white" transform="translate(0.398438)"/>
</clipPath>
</defs>
</svg>
