<svg width="253" height="103" viewBox="0 0 253 103" fill="none" xmlns="http://www.w3.org/2000/svg">
<g clip-path="url(#clip0_34080_75000)">
<g clip-path="url(#clip1_34080_75000)">
<mask id="mask0_34080_75000" style="mask-type:luminance" maskUnits="userSpaceOnUse" x="76" y="0" width="103" height="103">
<path d="M178.122 0.320312H76.375V102.755H178.122V0.320312Z" fill="white"/>
</mask>
<g mask="url(#mask0_34080_75000)">
<path fill-rule="evenodd" clip-rule="evenodd" d="M118.89 9.06483L118.853 8.90251C119.817 8.68858 120.762 8.39207 121.675 8.01604C125.542 6.28253 125.752 2.3296 125.653 0.62893V0.367482L125.64 0.353657H125.653V0.320312L125.683 0.353657H128.752V0.655708C128.667 3.28223 128.817 5.67237 131.332 7.32709C132.622 8.15537 134.063 8.72207 135.572 8.99494L135.572 8.99707C136.572 9.18003 137.588 9.2634 138.605 9.24598C142.832 9.12117 144.467 5.3062 145.025 3.69745L145.13 3.40853L145.537 3.57926L147.729 4.49855L147.998 4.61674L147.88 4.88595C146.797 7.27607 146.022 9.54801 147.71 12.0366C148.634 13.2427 149.76 14.2801 151.038 15.1031L150.959 15.2117L150.978 15.2253L151.038 15.1428C151.865 15.7937 152.771 16.3364 153.736 16.7581C157.674 18.2619 160.602 15.4055 161.731 14.1316L161.941 13.9018L161.929 14.3205L161.949 14.2977L161.96 13.9018L162.269 14.217L163.943 15.9045L164.147 16.1147L163.93 16.3182C162.019 18.1174 160.438 19.9166 161.042 22.8845C161.452 24.3658 162.08 25.7777 162.906 27.0738L162.9 27.0768C163.465 28.0225 164.141 28.8962 164.914 29.6789C167.993 32.5812 171.735 31.0644 173.264 30.3355L173.54 30.1976L173.431 30.4712L173.431 30.474L173.54 30.2047L173.71 30.6184L174.61 32.8181L174.721 33.0939L174.439 33.1924C171.984 34.1183 169.772 35.1623 169.188 38.0975C168.965 39.6837 169.027 41.297 169.372 42.8612L169.392 42.8577C169.576 43.7626 169.863 44.6436 170.245 45.4842C171.997 49.3387 176.015 49.424 177.715 49.3453H178.024L177.544 49.7719L177.555 49.7714L178.024 49.3522V52.4712H177.715C175.089 52.399 172.687 52.6288 171.046 55.1437C170.061 56.7623 169.861 57.9672 169.577 59.6863L169.537 59.9237L169.542 59.9247C169.42 60.8671 169.374 61.818 169.404 62.7679C169.549 67.0032 173.101 68.4412 174.709 68.9928L174.995 69.0907L174.997 69.0893V69.0913L174.827 69.503L173.921 71.6961L173.803 71.9654L173.534 71.8472C171.138 70.7769 168.866 70.0152 166.378 71.7093C164.87 72.815 164.224 73.8506 163.314 75.3096L163.31 75.3162L163.307 75.3207C163.257 75.4009 163.207 75.4816 163.156 75.5637L162.878 75.4028L162.878 75.4042L163.156 75.5657C162.601 76.414 162.124 77.3103 161.731 78.2448C160.247 82.1844 162.912 85.0147 164.186 86.1242L164.416 86.3275L163.918 86.3046L163.912 86.3117L164.416 86.3393L164.108 86.6545L162.427 88.3352L162.216 88.5456L162.013 88.3289C160.208 86.4244 158.403 84.8485 155.449 85.4654C153.825 85.8413 152.305 86.5717 150.996 87.604L150.998 87.6063C150.212 88.1382 149.47 88.7339 148.78 89.3855C145.891 92.4783 147.316 96.0706 148.064 97.5937L148.195 97.8758L147.764 97.678L147.751 97.6835L148.176 97.8789L147.769 98.0491L145.576 98.9553L145.3 99.0672L145.195 98.7914C144.257 96.3424 143.305 94.1952 140.344 93.6437C138.709 93.3458 137.031 93.401 135.419 93.8044L135.421 93.8115C134.499 93.9982 133.604 94.2977 132.756 94.7043C128.903 96.4575 128.693 100.318 128.817 102.013V102.321L128.537 102.041H128.519L128.804 102.321H125.693V102.026C125.765 99.3997 125.601 97.009 123.067 95.3614C121.663 94.5033 120.1 93.9352 118.472 93.6933L118.474 93.6831C117.515 93.5066 116.545 93.3994 115.571 93.3608C111.337 93.5058 109.945 97.0579 109.394 98.6669L109.288 98.9553L109.102 98.4928L109.088 98.5322L109.262 98.9529L108.855 98.789L106.663 97.8758L106.387 97.7576L106.505 97.4889C107.575 95.0919 108.284 93.0172 106.591 90.5281C105.598 89.1326 104.348 87.9389 102.908 87.013L102.901 87.0217C102.114 86.4181 101.257 85.9106 100.348 85.5119C96.4093 84.0274 93.7048 86.9169 92.5758 88.191L92.3722 88.4203L92.0572 88.1122C91.8072 87.8616 91.575 87.6189 91.3328 87.3652C91.1107 87.1328 90.8802 86.8916 90.6196 86.6277L90.4095 86.4181L90.5942 86.4015L90.5739 86.3811L90.4095 86.3913L90.6261 86.188C92.5298 84.382 93.9543 82.0575 93.2519 79.1358C92.8624 77.6288 92.1749 76.2158 91.2301 74.9793L91.5104 74.783L91.5085 74.781L91.2235 74.9799C90.6302 74.1585 89.9574 73.3975 89.2148 72.708C86.123 69.8188 82.6505 71.2241 81.1473 71.9726L80.865 72.1105L80.6943 71.6968L79.7885 69.5036L79.6769 69.2278L80.2117 69.4196L80.2179 69.417L79.6834 69.2286L79.9592 69.1234C82.4076 68.1845 84.5541 67.1535 85.1121 64.1592C85.4141 62.1893 84.9349 59.182 84.3507 57.2712L84.3752 57.265C84.0563 56.2223 83.4681 55.282 82.6702 54.539C80.8774 53.1741 78.6575 52.492 76.4079 52.615V49.7378L76.375 49.7072H76.4079V49.7061L76.4089 49.7072H76.6704C79.2961 49.7729 81.6855 49.6087 83.3266 47.0807C84.1969 45.7079 84.757 44.1617 84.9677 42.55L84.9776 42.5519C85.1536 41.6479 85.26 40.7317 85.2959 39.8113C85.1515 35.5825 81.3573 33.9607 79.7228 33.4091L79.4274 33.3106L80.0655 33.0866L80.027 33.0718L79.4274 33.2833L79.5981 32.8697L80.504 30.6765L80.6221 30.4073L80.8913 30.5255C83.2872 31.5958 85.5782 32.2655 88.0004 30.4796C89.2376 29.5013 90.3121 28.3334 91.1841 27.0191L91.1999 27.0306C91.7687 26.2561 92.2397 25.4142 92.602 24.5241C94.0921 20.5843 91.4073 17.8855 90.1273 16.7627L89.8975 16.5591L90.4303 16.5851L90.4024 16.559L89.8975 16.5273L90.2126 16.2121L91.8931 14.5311L92.1031 14.3276L92.3066 14.5377C94.1118 16.4419 95.9498 17.9259 98.8709 17.3087C100.462 16.8743 101.968 16.1702 103.322 15.2271L103.522 15.5218L103.548 15.5039L103.361 15.2282C104.241 14.6515 105.076 14.0105 105.862 13.3108C108.75 10.2115 107.063 6.67886 106.315 5.15547L106.164 4.87312L106.334 4.95385L106.164 4.87149L106.577 4.70076L108.77 3.79461L109.046 3.68298L109.151 3.95876C110.089 6.408 111.153 8.55518 114.113 9.11329C115.694 9.32706 117.299 9.2671 118.859 8.936L118.889 9.06507L118.89 9.06483ZM90.063 53.5467C87.9594 51.6452 86.004 49.5856 84.2141 47.386L84.219 47.3772C86.0172 49.582 87.9816 51.6455 90.0952 53.5497L90.063 53.5467ZM145.306 3.78826L145.133 3.41564L145.306 3.78606L145.306 3.78826ZM87.0092 59.3064C86.9239 58.965 86.4972 56.4172 86.7204 55.4848C86.9893 54.3627 87.6189 53.8767 92.0028 54.6363C92.1155 55.8082 92.2872 56.9774 92.5182 58.1393C92.7521 59.3162 93.0451 60.4767 93.3952 61.6166L93.372 61.6334L93.3438 61.5525C92.7146 62.0139 92.0568 62.435 91.3745 62.8132C90.613 63.2466 89.8516 63.6144 89.0244 63.2466C88.0857 62.59 87.3177 60.5409 87.0092 59.3064ZM92.0046 47.8566C92.2317 45.5072 92.6946 43.1806 93.3895 40.9128L93.381 40.9067L93.37 40.9408C89.6087 38.5638 89.1689 38.7083 88.4271 39.6275C87.7676 40.4448 87.4091 42.6581 87.3192 43.213C87.3096 43.2724 87.3031 43.3128 87.2995 43.3305L87.3243 43.3368C87.3098 43.4251 87.2905 43.5322 87.2685 43.6545C87.0824 44.6876 86.7022 46.7993 87.3243 47.7034C87.81 48.36 88.926 48.2681 89.7859 48.1828L92.0046 47.8566ZM96.0453 34.546C97.1088 32.5666 98.3565 30.698 99.7688 28.9638L99.7279 28.8976C97.2454 25.5899 96.4224 25.25 95.4051 25.7849C94.4998 26.2608 93.4357 27.9476 93.1555 28.3917C93.1283 28.4348 93.1085 28.4661 93.097 28.4836L93.1075 28.4915C92.2804 29.8574 91.6239 31.5974 91.8471 32.543C91.9981 33.3769 92.9827 33.6855 93.8164 33.9351L96.0453 34.546ZM107.526 21.9069C108.506 21.252 109.515 20.6487 110.549 20.0983L110.497 19.7771L110.496 19.7733L110.458 19.5353C110.09 18.0659 109.755 17.1081 109.421 16.4925C109.2 16.148 108.952 15.8405 108.69 15.6321C108.368 15.4374 108.027 15.4293 107.641 15.4753C106.486 15.6132 104.588 16.9397 104.431 17.071L104.418 17.0513C103.289 17.9513 101.555 19.3993 101.28 20.6184C101.175 21.364 101.903 21.9592 102.546 22.4855C102.588 22.52 102.63 22.5543 102.672 22.5883L104.582 24.0986L104.49 24.1759L104.493 24.1775C105.459 23.3695 106.471 22.6112 107.526 21.9069ZM116.755 17.5199C119.036 16.8183 121.388 16.3483 123.775 16.1207L123.776 16.1193L123.553 16.1395C124.249 11.8254 123.888 11.0703 122.785 10.7289C121.716 10.3979 119.394 10.9123 119.062 10.986L119.037 10.9915L119.024 10.9439L119.011 10.947L119.017 10.9726C117.947 11.1893 115.846 11.951 115.144 12.8703C114.684 13.527 115.387 15.4969 116.89 17.4667L116.749 17.5113L116.755 17.5199ZM130.588 16.1319C132.899 16.3598 135.17 16.8144 137.371 17.4826L137.375 17.4767L137.312 17.4606C139.596 13.7375 139.668 12.8183 138.782 12.0762C137.927 11.3602 135.604 11.0478 135.054 10.9737L135.003 10.9669L135.001 10.9794C134.41 10.9006 131.463 10.6183 130.721 11.3602C129.779 12.3022 130.32 14.8588 130.532 15.8606L130.532 15.8614C130.556 15.9718 130.575 16.0636 130.588 16.1319ZM154.323 28.7736C155.814 30.5782 157.114 32.5178 158.211 34.5607L158.222 34.5588L158.16 34.4454C162.413 33.4277 162.703 32.771 162.597 31.6219C162.494 30.4867 161.313 28.5635 161.133 28.346L161.114 28.3589C160.576 27.5185 159.203 25.8243 157.694 25.6799C156.966 25.6405 156.296 26.3365 155.725 26.9341C155.33 27.3472 154.963 27.8702 154.659 28.3034C154.535 28.4792 154.423 28.6408 154.323 28.7736ZM160.857 40.9107C161.536 43.1234 161.998 45.4076 162.231 47.732L162.247 47.7358L162.23 47.586C166.345 48.1966 167.114 47.8223 167.482 46.7192C167.803 45.7549 167.462 44.093 167.332 43.4576C167.312 43.3664 167.298 43.2959 167.291 43.2522L167.423 43.2158L167.421 43.2054L167.252 43.252C167.226 43.1539 167.198 43.0204 167.163 42.861C166.944 41.8461 166.5 39.786 165.394 39.2071C164.567 38.8394 163.674 39.2859 162.906 39.6931L160.857 40.9107ZM162.261 54.467C162.048 56.7942 161.606 59.0886 160.942 61.3171L160.959 61.3294L160.969 61.2966C164.731 63.6802 165.197 63.6408 165.991 62.8068C166.785 61.9731 167.212 59.0987 167.212 58.9197C167.415 57.6917 167.429 55.7219 166.91 54.7435C166.404 54.0344 165.525 54.0277 164.658 54.0868L162.261 54.467ZM156.464 70.8596C155.821 71.8202 155.136 72.7454 154.408 73.6332L154.41 73.6372L154.583 73.4244C157.064 76.609 157.713 77.1081 158.738 76.5696C159.641 76.0949 160.851 74.1631 161.169 73.6562L161.169 73.6555C161.211 73.5879 161.237 73.5459 161.245 73.536L161.258 73.5459C161.915 72.4671 163.056 70.4932 162.814 69.6159C162.581 68.7702 161.614 68.4826 160.8 68.2403L160.7 68.2108C159.867 67.9612 159.125 67.8168 158.383 67.6986L158.442 67.5869L158.405 67.5804C157.82 68.7039 157.172 69.7991 156.464 70.8596ZM149.653 78.4174C147.848 79.9151 145.894 81.2333 143.819 82.3483L143.819 82.3514L143.869 82.3278C144.847 86.6742 145.373 86.9831 146.495 86.8846C147.618 86.7861 149.777 85.2952 150 85.1251L150.258 85.4103L150.272 85.4008L150.014 85.1258C151.024 84.4033 152.83 82.4988 152.922 81.8424C153.014 81.1861 152.324 80.365 151.655 79.8134C151.449 79.6354 151.237 79.4644 151.02 79.2997C150.57 78.9966 150.115 78.7024 149.653 78.4174ZM120.242 85.8712C119.108 85.6459 117.989 85.3654 116.889 85.0313L116.887 85.0344L116.929 85.047C114.553 88.8095 114.717 89.328 115.617 90.0632C116.515 90.7983 118.994 91.3302 119.312 91.3767L119.319 91.3239C120.546 91.528 122.995 91.5146 123.684 90.9173C124.163 90.569 124.288 89.6038 124.203 88.7434C124.105 87.9452 123.941 87.1556 123.712 86.3834C122.551 86.2715 121.393 86.1005 120.242 85.8712ZM110.701 82.4933C108.618 81.3972 106.645 80.0932 104.813 78.5974L104.629 78.7109L104.592 78.7333C101.159 81.1624 100.93 81.725 101.477 82.7155C102.074 83.8107 103.73 84.906 104.309 85.2889L104.309 85.2897C104.424 85.3654 104.496 85.4127 104.51 85.4268C105.652 86.1951 107.562 87.0098 108.711 86.8523C109.426 86.7207 109.794 85.5387 110.024 84.7177L110.569 82.4326L110.7 82.4972L110.701 82.4933ZM100.012 73.8427C98.4693 71.9896 97.1242 69.9876 95.9949 67.8706C91.6564 68.8411 91.2892 69.3927 91.4073 70.5411C91.5113 71.553 92.7443 73.4441 93.0741 73.9504C93.119 74.0193 93.1471 74.062 93.1534 74.0738L93.1362 74.085C93.8594 75.0902 95.4849 76.8133 96.4881 76.9971C97.394 77.0759 97.9914 76.3405 98.5428 75.6379C99.0942 74.9353 99.5274 74.2918 99.8556 73.668L100.009 73.8486L100.012 73.8427ZM130.649 86.3724L130.597 86.3779L130.597 86.3787L130.649 86.3724ZM137.65 84.9422C135.411 85.6427 133.114 86.1147 130.793 86.3582C130.032 90.7479 130.406 91.2333 131.509 91.6068C132.52 91.9503 134.874 91.4153 135.363 91.3042C135.407 91.2948 135.436 91.2885 135.447 91.2853L135.523 91.5674L135.555 91.5611L135.48 91.2569C136.688 90.9748 138.861 90.2129 139.419 89.287C139.747 88.7623 139.419 87.7773 138.972 87.0091C138.815 86.7025 138.646 86.4039 138.465 86.1124C138.237 85.7728 138.005 85.4371 137.767 85.1046C137.731 85.0589 137.696 85.0116 137.66 84.9667L137.666 84.9643L137.65 84.9422ZM143.738 20.1193C145.749 21.1925 147.659 22.4629 149.441 23.9181L149.451 23.9118L149.383 23.8546C152.922 21.2937 153.322 20.4466 152.777 19.4223C152.291 18.5087 150.417 17.2818 149.956 16.9806C149.91 16.9504 149.878 16.9294 149.863 16.9191L149.856 16.9286L149.847 16.9228C149.715 16.838 149.493 16.6953 149.211 16.534C148.651 16.2477 148.067 15.9851 147.528 15.78C146.924 15.5963 146.294 15.5163 145.747 15.681C144.907 16.0093 144.578 16.9943 144.329 17.8019L143.738 20.1193ZM167.22 58.9207L167.548 58.9655L167.549 58.9583L167.22 58.9207ZM164.394 53.337C166.486 51.4304 168.43 49.3644 170.203 47.1574L170.202 47.1564C168.428 49.3639 166.485 51.4304 164.391 53.3373L164.394 53.337ZM98.1817 59.2286C98.1817 61.507 97.2167 61.75 95.149 61.9864V62.8532H102.98V61.9864C100.42 61.7106 99.698 61.0606 99.698 58.5785V44.7893H99.7637L115.098 63.4704H116.063V43.1673C116.063 41.5126 116.273 40.7247 118.748 40.4095V39.5493H111.343V40.4095C112.186 40.4058 113.01 40.6576 113.706 41.1318C114.402 41.7031 114.547 42.6027 114.547 43.824V54.271H114.481L102.521 39.5493H95.254V40.4095C95.5494 40.4095 95.8973 40.4555 96.6588 41.1909C97.2019 41.725 97.7105 42.293 98.1817 42.8915V59.2286ZM128.43 40.1009C132.493 40.1009 134.561 44.0669 135.178 46.4767H136.143V38.9846H135.113C134.935 39.6412 134.765 40.16 133.977 40.16C133.599 40.16 133.134 39.999 132.555 39.7983C131.595 39.4658 130.32 39.024 128.601 39.024C122.05 39.024 120.986 43.7058 120.986 45.807C120.9 47.2036 121.317 48.5849 122.161 49.7008C123.001 50.8171 124.432 52.0122 126.874 53.1875L129.192 54.2578C131.43 55.3282 133.051 56.1489 133.051 58.4603C133.051 58.9068 132.881 62.3213 128.745 62.3213C127.274 62.3493 125.844 61.8352 124.728 60.8767C123.901 60.1432 123.231 59.2497 122.759 58.2502C122.254 57.2083 121.89 56.1043 121.675 54.967H120.678V63.5033H121.675C121.813 62.9517 121.984 62.3344 122.706 62.3344C123.101 62.3344 123.558 62.49 124.137 62.6877C125.146 63.0317 126.529 63.5033 128.614 63.5033C134.935 63.5033 137.148 59.3139 137.148 56.2803C137.153 54.9776 136.802 53.6982 136.133 52.5803C135.465 51.4625 134.503 50.5484 133.353 49.9372L128.292 47.4223C127.228 46.9758 126.256 46.337 125.424 45.5378C125.206 45.2913 125.037 45.0063 124.925 44.6973C124.793 44.2724 124.731 43.8288 124.741 43.384C124.741 41.1383 126.638 40.1009 128.43 40.1009ZM158.679 39.5493H139.176V40.4095C139.861 40.4065 140.542 40.5266 141.185 40.7641C141.802 41.0595 142.202 41.644 142.202 42.8588V59.5371C142.202 61.6736 141.149 61.7824 139.187 61.9853L139.176 61.9864V62.8532H151.55V61.9864C149.141 61.8813 147.762 61.8157 147.762 59.5371V51.5131C152.081 51.5131 152.633 54.0281 153.014 56.8516H153.873V45.2029H153.014C152.547 47.9608 152.029 50.41 147.762 50.3377V42.34C147.762 40.8625 148.379 40.7247 150.237 40.7247C156.164 40.7247 157.096 42.8915 157.858 46.4767H158.679V39.5493Z" fill="white"/>
</g>
</g>
</g>
<defs>
<clipPath id="clip0_34080_75000">
<rect width="252.146" height="102.434" fill="white" transform="translate(0.851562 0.320312)"/>
</clipPath>
<clipPath id="clip1_34080_75000">
<rect width="102.435" height="102.435" fill="white" transform="translate(75.7109 0.320312)"/>
</clipPath>
</defs>
</svg>
