<svg width="48" height="49" viewBox="0 0 48 49" fill="none" xmlns="http://www.w3.org/2000/svg">
<circle cx="24" cy="24.3203" r="24" fill="white"/>
<mask id="mask0_34061_92431" style="mask-type:alpha" maskUnits="userSpaceOnUse" x="3" y="3" width="43" height="42">
<circle cx="24.4866" cy="24.0491" r="20.7155" fill="#D9D9D9" stroke="white" stroke-width="0.442237"/>
</mask>
<g mask="url(#mask0_34061_92431)">
<g filter="url(#filter0_d_34061_92431)">
<path d="M6.47497 32.6955C5.33639 33.7739 3.53944 33.7256 2.46064 32.5873C1.38183 31.4491 1.4298 29.652 2.56811 28.5733C3.70695 27.4952 11.737 21.6369 12.8155 22.7749C13.8941 23.9135 7.61275 31.6168 6.47497 32.6955Z" fill="#DB1375"/>
<path opacity="0.2" d="M6.03088 32.0016C5.19401 32.7941 3.87296 32.7589 3.07951 31.9223C2.28687 31.0855 2.32256 29.7645 3.15917 28.9717C3.99605 28.1786 9.89845 23.8734 10.6911 24.7097C11.4843 25.5465 6.86749 31.2087 6.03088 32.0016Z" fill="white"/>
<path d="M7.26821 28.392C7.68414 26.8397 8.15925 25.4572 8.69438 24.2324C8.31461 24.4606 7.92709 24.7031 7.54056 24.9521C7.09182 26.0832 6.68566 27.3266 6.32068 28.6887C5.92925 30.1495 5.6528 31.7044 5.48375 33.2986C5.84739 33.17 6.19072 32.9656 6.48897 32.6832C6.49157 32.6808 6.49493 32.677 6.49826 32.6747C6.65078 31.1932 6.9048 29.7483 7.26821 28.392Z" fill="#B21F5B"/>
<path d="M37.0819 40.8904C37.528 42.3934 39.1093 43.2505 40.6123 42.8041C42.1153 42.3574 42.9725 40.7769 42.5256 39.2737C42.0787 37.7709 38.0537 28.6826 36.5511 29.1288C35.0478 29.5757 36.6353 39.3871 37.0819 40.8904Z" fill="#DB1375"/>
<path opacity="0.2" d="M37.8129 40.5123C38.1413 41.6171 39.3034 42.2471 40.4076 41.9192C41.5128 41.5907 42.1429 40.4292 41.8148 39.3242C41.4865 38.219 38.5271 31.5391 37.4221 31.8671C36.3176 32.1954 37.4847 39.4074 37.8129 40.5123Z" fill="white"/>
<path d="M38.5372 36.7694C38.9531 35.2171 39.2333 33.7823 39.3812 32.4538C39.5963 32.8414 39.8114 33.2454 40.0213 33.6542C39.844 34.8581 39.5748 36.1381 39.2098 37.5002C38.8184 38.961 38.2793 40.4455 37.6289 41.9108C37.3783 41.6175 37.1835 41.269 37.0668 40.8754C37.0658 40.872 37.064 40.8668 37.0626 40.8633C37.6709 39.5039 38.1738 38.1257 38.5372 36.7694Z" fill="#B21F5B"/>
<path d="M39.8915 24.6548C38.0016 25.3631 36.2347 25.3111 35.9444 24.5386C35.6556 23.766 36.9526 22.5658 38.8428 21.8574C40.733 21.1487 42.4996 21.2003 42.7893 21.9731C43.0795 22.7452 41.7818 23.9456 39.8915 24.6548Z" fill="#DB1375"/>
<path d="M38.3707 27.5458C36.4225 27.0156 35.0193 25.9407 35.236 25.1445C35.4526 24.3486 37.2074 24.1332 39.1552 24.6632C41.103 25.1933 42.5066 26.2683 42.2895 27.0645C42.0729 27.8603 40.3186 28.0759 38.3707 27.5458Z" fill="#DB1375"/>
<path d="M35.7939 20.6746C34.6752 22.3543 34.3236 24.0869 35.0108 24.5446C35.698 25.0015 37.1614 24.0104 38.2806 22.3311C39.3991 20.6508 39.7507 18.9183 39.0634 18.4609C38.3763 18.0037 36.9124 18.9943 35.7939 20.6746Z" fill="#DB1375"/>
<path d="M12.0572 17.1972C13.3395 18.7552 14.8959 19.5939 15.5333 19.0703C16.17 18.5454 15.6468 16.8575 14.364 15.2989C13.0812 13.7397 11.5257 12.9014 10.8882 13.4255C10.2511 13.9493 10.7747 15.6378 12.0572 17.1972Z" fill="#DB1375"/>
<path d="M11.9325 20.4634C13.8847 20.9783 15.6377 20.7491 15.8478 19.9511C16.0582 19.1536 14.6466 18.0897 12.6943 17.5748C10.7424 17.0599 8.98943 17.2891 8.77934 18.0871C8.56898 18.8847 9.98054 19.9485 11.9325 20.4634Z" fill="#DB1375"/>
<path d="M17.5939 15.7979C17.7225 17.8123 17.1608 19.4881 16.3372 19.541C15.5136 19.5934 14.7414 18.0032 14.6124 15.9892C14.4838 13.9747 15.0455 12.2989 15.8691 12.2464C16.6927 12.1936 17.4649 13.7835 17.5939 15.7979Z" fill="#DB1375"/>
<path d="M38.7287 36.4394C41.5372 25.9579 36.9494 21.8962 26.4662 19.0873C15.9841 16.2786 9.97941 17.502 7.17089 27.9835C5.15225 35.5172 7.16045 46.3351 11.3429 47.5054C14.6911 48.442 15.0923 45.8124 19.0214 46.8715C22.8994 47.9176 21.7082 50.5592 24.7767 51.356C30.0998 52.7378 36.5309 44.6416 38.7287 36.4394Z" fill="#DB1375"/>
<path opacity="0.2" d="M40.7609 27.1205C40.9358 26.4766 39.8878 25.6222 38.3747 25.1368C38.4761 25.1038 38.5787 25.0677 38.6811 25.0295C40.3204 24.4157 41.4453 23.3743 41.1941 22.7042C40.9432 22.0345 39.4105 21.9896 37.7714 22.6039C37.669 22.6424 37.5687 22.6827 37.4705 22.7243C38.2914 21.3642 38.5197 20.0314 37.9636 19.6614C37.3679 19.2644 36.0992 20.1243 35.1283 21.5806C34.1581 23.0374 33.8543 24.5397 34.4494 24.9362C34.6532 25.072 34.9362 25.0607 35.2582 24.9284L35.259 24.9298C34.9349 25.0405 34.7178 25.2139 34.6489 25.4433C32.6921 23.9003 29.689 22.8739 25.735 21.8144C21.8975 20.7861 18.8512 20.1788 16.421 20.4713C16.4367 20.2612 16.3338 20.0329 16.1357 19.8061C16.1357 19.8061 16.1365 19.8059 16.1366 19.8055C16.1366 19.8055 16.1375 19.8054 16.1376 19.805C16.3503 20.0807 16.5898 20.2319 16.8341 20.2162C17.5484 20.1706 18.0358 18.7175 17.924 16.9707C17.8117 15.2242 17.1425 13.845 16.4281 13.891C15.7623 13.9336 15.2932 15.2018 15.3237 16.7901C15.2598 16.7051 15.1928 16.62 15.1233 16.5354C14.011 15.1839 12.6619 14.4565 12.109 14.9109C11.5568 15.3658 12.0106 16.8301 13.1227 18.1811C13.1923 18.2654 13.2631 18.348 13.3341 18.4271C11.7809 18.091 10.4466 18.3071 10.2761 18.9521C10.0934 19.6438 11.3179 20.5666 13.0109 21.0132C13.3326 21.0978 13.648 21.1597 13.9499 21.1988C11.8464 22.2844 10.3549 24.5688 9.27129 28.6128C6.77601 37.9254 9.75083 44.2177 19.0634 46.713C28.376 49.2083 34.0985 45.2464 36.5937 35.9339C37.6863 31.8563 37.5255 29.1206 36.2178 27.1241C36.5616 27.2838 36.9475 27.4247 37.3626 27.5382C39.0514 27.9977 40.5728 27.8108 40.7609 27.1205Z" fill="white"/>
<ellipse opacity="0.5" cx="22.8668" cy="32.4857" rx="15.208" ry="14.1974" transform="rotate(15 22.8668 32.4857)" fill="url(#paint0_radial_34061_92431)"/>
<path d="M22.6162 33.4339C18.0275 32.2043 15.2155 28.2644 14.3115 25.2199C14.4293 28.049 17.1759 33.1092 22.333 34.4911C27.45 35.8622 32.4217 32.8381 33.9297 30.4453C31.6154 32.6353 27.1696 34.6539 22.6162 33.4339Z" fill="white"/>
<path d="M22.6554 33.2929C18.0667 32.0633 15.2545 28.1237 14.3507 25.0789C14.4684 27.9084 17.2149 32.969 22.3719 34.3508C27.4889 35.7219 32.4608 32.6971 33.9688 30.3047C31.6544 32.4947 27.2088 34.513 22.6554 33.2929Z" fill="#6D0F0F"/>
<path d="M36.2926 22.4928C34.8453 27.8942 29.1855 31.0713 23.6499 29.5881C18.1154 28.1051 14.8014 22.5235 16.2487 17.122C17.696 11.7206 23.3568 8.54381 28.8914 10.0268C34.427 11.51 37.7399 17.0914 36.2926 22.4928Z" fill="#DB1375"/>
<path fill-rule="evenodd" clip-rule="evenodd" d="M34.8514 21.956C33.5873 26.6737 28.7378 29.4732 24.0198 28.209C19.3018 26.9448 16.5018 22.0956 17.7659 17.378C19.0299 12.6603 23.8794 9.86077 28.5975 11.125C33.3155 12.3892 36.1155 17.2384 34.8514 21.956Z" fill="url(#paint1_radial_34061_92431)"/>
<path fill-rule="evenodd" clip-rule="evenodd" d="M32.3718 21.2918C31.475 24.6385 28.0348 26.6245 24.6879 25.7276C21.3409 24.8308 19.3546 21.3908 20.2513 18.0441C21.148 14.6974 24.5883 12.7114 27.9352 13.6082C31.2822 14.505 33.2685 17.9451 32.3718 21.2918Z" fill="url(#paint2_radial_34061_92431)"/>
<path d="M29.1502 20.4232C28.7306 21.989 27.1217 22.9178 25.5558 22.4982C23.9899 22.0786 23.0609 20.4698 23.4805 18.904C23.8999 17.3386 25.509 16.4095 27.0748 16.829C28.6407 17.2486 29.5696 18.8578 29.1502 20.4232Z" fill="#49482A"/>
<path opacity="0.2" d="M29.1167 43.355C28.4698 45.7692 24.1206 46.7017 19.4025 45.4375C14.6852 44.1735 11.3842 41.1911 12.0311 38.7769C12.6778 36.3635 17.0277 35.4311 21.7451 36.6951C26.4631 37.9593 29.7634 40.9415 29.1167 43.355Z" fill="white"/>
<ellipse cx="27.1168" cy="16.6681" rx="3.4929" ry="2.68359" transform="rotate(15 27.1168 16.6681)" fill="url(#paint3_radial_34061_92431)"/>
</g>
</g>
<defs>
<filter id="filter0_d_34061_92431" x="-12.2717" y="-4.95139" width="71.9731" height="69.6137" filterUnits="userSpaceOnUse" color-interpolation-filters="sRGB">
<feFlood flood-opacity="0" result="BackgroundImageFix"/>
<feColorMatrix in="SourceAlpha" type="matrix" values="0 0 0 0 0 0 0 0 0 0 0 0 0 0 0 0 0 0 127 0" result="hardAlpha"/>
<feOffset/>
<feGaussianBlur stdDeviation="4.63585"/>
<feComposite in2="hardAlpha" operator="out"/>
<feColorMatrix type="matrix" values="0 0 0 0 0 0 0 0 0 0 0 0 0 0 0 0 0 0 0.5 0"/>
<feBlend mode="normal" in2="BackgroundImageFix" result="effect1_dropShadow_34061_92431"/>
<feBlend mode="normal" in="SourceGraphic" in2="effect1_dropShadow_34061_92431" result="shape"/>
</filter>
<radialGradient id="paint0_radial_34061_92431" cx="0" cy="0" r="1" gradientUnits="userSpaceOnUse" gradientTransform="translate(22.8668 31.0472) rotate(90) scale(15.6083 14.2725)">
<stop stop-color="#D9D9D9"/>
<stop offset="0.224916" stop-color="#E4E4E4" stop-opacity="0.36"/>
<stop offset="0.521135" stop-color="#C57730" stop-opacity="0.24"/>
<stop offset="1" stop-opacity="0"/>
</radialGradient>
<radialGradient id="paint1_radial_34061_92431" cx="0" cy="0" r="1" gradientUnits="userSpaceOnUse" gradientTransform="translate(26.3088 19.6669) rotate(15) scale(8.84413 8.84337)">
<stop stop-color="white"/>
<stop offset="0.56" stop-color="white"/>
<stop offset="0.97" stop-color="#D6D6D6"/>
<stop offset="1" stop-color="#C6C6C6"/>
</radialGradient>
<radialGradient id="paint2_radial_34061_92431" cx="0" cy="0" r="1" gradientUnits="userSpaceOnUse" gradientTransform="translate(26.3114 19.668) rotate(15) scale(6.27402 6.27348)">
<stop stop-color="white"/>
<stop offset="1" stop-color="#9757EE"/>
</radialGradient>
<radialGradient id="paint3_radial_34061_92431" cx="0" cy="0" r="1" gradientUnits="userSpaceOnUse" gradientTransform="translate(27.1168 22.3183) rotate(-90) scale(8.33382 10.8471)">
<stop offset="0.401042" stop-color="#2E2A49"/>
<stop offset="0.546875" stop-color="#2E2A49" stop-opacity="0"/>
<stop offset="0.645833" stop-color="white" stop-opacity="0"/>
<stop offset="0.760417" stop-color="#B0C5FB" stop-opacity="0.33"/>
<stop offset="0.984375" stop-color="white"/>
</radialGradient>
</defs>
</svg>
