<svg width="60" height="61" viewBox="0 0 60 61" fill="none" xmlns="http://www.w3.org/2000/svg">
<path d="M0 22.0346C0 14.4339 0 10.6335 1.4792 7.73044C2.78034 5.17681 4.8565 3.10065 7.41013 1.79951C10.3132 0.320312 14.1136 0.320312 21.7143 0.320312H38.2857C45.8864 0.320312 49.6868 0.320312 52.5899 1.79951C55.1435 3.10065 57.2197 5.17681 58.5208 7.73044C60 10.6335 60 14.4339 60 22.0346V38.606C60 46.2067 60 50.0071 58.5208 52.9102C57.2197 55.4638 55.1435 57.54 52.5899 58.8411C49.6868 60.3203 45.8864 60.3203 38.2857 60.3203H21.7143C14.1136 60.3203 10.3132 60.3203 7.41013 58.8411C4.8565 57.54 2.78034 55.4638 1.4792 52.9102C0 50.0071 0 46.2067 0 38.606V22.0346Z" fill="url(#paint0_linear_34143_59982)"/>
<circle cx="30" cy="30.3203" r="24" fill="white"/>
<mask id="mask0_34143_59982" style="mask-type:alpha" maskUnits="userSpaceOnUse" x="9" y="9" width="43" height="42">
<circle cx="30.4866" cy="30.0491" r="20.7155" fill="#D9D9D9" stroke="white" stroke-width="0.442237"/>
</mask>
<g mask="url(#mask0_34143_59982)">
<g filter="url(#filter0_d_34143_59982)">
<path d="M12.475 38.6955C11.3364 39.7739 9.53944 39.7256 8.46064 38.5873C7.38183 37.4491 7.4298 35.652 8.56811 34.5733C9.70695 33.4952 17.737 27.6369 18.8155 28.7749C19.8941 29.9135 13.6127 37.6168 12.475 38.6955Z" fill="#DB1375"/>
<path opacity="0.2" d="M12.0309 38.0016C11.194 38.7941 9.87296 38.7589 9.07951 37.9223C8.28687 37.0855 8.32256 35.7645 9.15917 34.9717C9.99605 34.1786 15.8984 29.8734 16.6911 30.7097C17.4843 31.5465 12.8675 37.2087 12.0309 38.0016Z" fill="white"/>
<path d="M13.2682 34.392C13.6841 32.8397 14.1593 31.4572 14.6944 30.2324C14.3146 30.4606 13.9271 30.7031 13.5406 30.9521C13.0918 32.0832 12.6857 33.3266 12.3207 34.6887C11.9293 36.1495 11.6528 37.7044 11.4837 39.2986C11.8474 39.17 12.1907 38.9656 12.489 38.6832C12.4916 38.6808 12.4949 38.677 12.4983 38.6747C12.6508 37.1932 12.9048 35.7483 13.2682 34.392Z" fill="#B21F5B"/>
<path d="M43.0819 46.8904C43.528 48.3934 45.1093 49.2505 46.6123 48.8041C48.1153 48.3574 48.9725 46.7769 48.5256 45.2737C48.0787 43.7709 44.0537 34.6826 42.5511 35.1288C41.0478 35.5757 42.6353 45.3871 43.0819 46.8904Z" fill="#DB1375"/>
<path opacity="0.2" d="M43.8129 46.5123C44.1413 47.6171 45.3034 48.2471 46.4076 47.9192C47.5128 47.5907 48.1429 46.4292 47.8148 45.3242C47.4865 44.219 44.5271 37.5391 43.4221 37.8671C42.3176 38.1954 43.4847 45.4074 43.8129 46.5123Z" fill="white"/>
<path d="M44.5372 42.7694C44.9531 41.2171 45.2333 39.7823 45.3812 38.4538C45.5963 38.8414 45.8114 39.2454 46.0213 39.6542C45.844 40.8581 45.5748 42.1381 45.2098 43.5002C44.8184 44.961 44.2793 46.4455 43.6289 47.9108C43.3783 47.6175 43.1835 47.269 43.0668 46.8754C43.0658 46.872 43.064 46.8668 43.0626 46.8633C43.6709 45.5039 44.1738 44.1257 44.5372 42.7694Z" fill="#B21F5B"/>
<path d="M45.8915 30.6548C44.0016 31.3631 42.2347 31.3111 41.9444 30.5386C41.6556 29.766 42.9526 28.5658 44.8428 27.8574C46.733 27.1487 48.4996 27.2003 48.7893 27.9731C49.0795 28.7452 47.7818 29.9456 45.8915 30.6548Z" fill="#DB1375"/>
<path d="M44.3707 33.5458C42.4225 33.0156 41.0193 31.9407 41.236 31.1445C41.4526 30.3486 43.2074 30.1332 45.1552 30.6632C47.103 31.1933 48.5066 32.2683 48.2895 33.0645C48.0729 33.8603 46.3186 34.0759 44.3707 33.5458Z" fill="#DB1375"/>
<path d="M41.7939 26.6746C40.6752 28.3543 40.3236 30.0869 41.0108 30.5446C41.698 31.0015 43.1614 30.0104 44.2806 28.3311C45.3991 26.6508 45.7507 24.9183 45.0634 24.4609C44.3763 24.0037 42.9124 24.9943 41.7939 26.6746Z" fill="#DB1375"/>
<path d="M18.0572 23.1972C19.3395 24.7552 20.8959 25.5939 21.5333 25.0703C22.17 24.5454 21.6468 22.8575 20.364 21.2989C19.0812 19.7397 17.5257 18.9014 16.8882 19.4255C16.2511 19.9493 16.7747 21.6378 18.0572 23.1972Z" fill="#DB1375"/>
<path d="M17.9325 26.4634C19.8847 26.9783 21.6377 26.7491 21.8478 25.9511C22.0582 25.1536 20.6466 24.0897 18.6943 23.5748C16.7424 23.0599 14.9894 23.2891 14.7793 24.0871C14.569 24.8847 15.9805 25.9485 17.9325 26.4634Z" fill="#DB1375"/>
<path d="M23.5939 21.7979C23.7225 23.8123 23.1608 25.4881 22.3372 25.541C21.5136 25.5934 20.7414 24.0032 20.6124 21.9892C20.4838 19.9747 21.0455 18.2989 21.8691 18.2464C22.6927 18.1936 23.4649 19.7835 23.5939 21.7979Z" fill="#DB1375"/>
<path d="M44.7287 42.4394C47.5372 31.9579 42.9494 27.8962 32.4662 25.0873C21.9841 22.2786 15.9794 23.502 13.1709 33.9835C11.1523 41.5172 13.1604 52.3351 17.3429 53.5054C20.6911 54.442 21.0923 51.8124 25.0214 52.8715C28.8994 53.9176 27.7082 56.5592 30.7767 57.356C36.0998 58.7378 42.5309 50.6416 44.7287 42.4394Z" fill="#DB1375"/>
<path opacity="0.2" d="M46.7609 33.1205C46.9358 32.4766 45.8878 31.6222 44.3747 31.1368C44.4761 31.1038 44.5787 31.0677 44.6811 31.0295C46.3204 30.4157 47.4453 29.3743 47.1941 28.7042C46.9432 28.0345 45.4105 27.9896 43.7714 28.6039C43.669 28.6424 43.5687 28.6827 43.4705 28.7243C44.2914 27.3642 44.5197 26.0314 43.9636 25.6614C43.3679 25.2644 42.0992 26.1243 41.1283 27.5806C40.1581 29.0374 39.8543 30.5397 40.4494 30.9362C40.6532 31.072 40.9362 31.0607 41.2582 30.9284L41.259 30.9298C40.9349 31.0405 40.7178 31.2139 40.6489 31.4433C38.6921 29.9003 35.689 28.8739 31.735 27.8144C27.8975 26.7861 24.8512 26.1788 22.421 26.4713C22.4367 26.2612 22.3338 26.0329 22.1357 25.8061C22.1357 25.8061 22.1365 25.8059 22.1366 25.8055C22.1366 25.8055 22.1375 25.8054 22.1376 25.805C22.3503 26.0807 22.5898 26.2319 22.8341 26.2162C23.5484 26.1706 24.0358 24.7175 23.924 22.9707C23.8117 21.2242 23.1425 19.845 22.4281 19.891C21.7623 19.9336 21.2932 21.2018 21.3237 22.7901C21.2598 22.7051 21.1928 22.62 21.1233 22.5354C20.011 21.1839 18.6619 20.4565 18.109 20.9109C17.5568 21.3658 18.0106 22.8301 19.1227 24.1811C19.1923 24.2654 19.2631 24.348 19.3341 24.4271C17.7809 24.091 16.4466 24.3071 16.2761 24.9521C16.0934 25.6438 17.3179 26.5666 19.0109 27.0132C19.3326 27.0978 19.648 27.1597 19.9499 27.1988C17.8464 28.2844 16.3549 30.5688 15.2713 34.6128C12.776 43.9254 15.7508 50.2177 25.0634 52.713C34.376 55.2083 40.0985 51.2464 42.5937 41.9339C43.6863 37.8563 43.5255 35.1206 42.2178 33.1241C42.5616 33.2838 42.9475 33.4247 43.3626 33.5382C45.0514 33.9977 46.5728 33.8108 46.7609 33.1205Z" fill="white"/>
<ellipse opacity="0.5" cx="28.8668" cy="38.4857" rx="15.208" ry="14.1974" transform="rotate(15 28.8668 38.4857)" fill="url(#paint1_radial_34143_59982)"/>
<path d="M28.6162 39.4339C24.0275 38.2043 21.2155 34.2644 20.3115 31.2199C20.4293 34.049 23.1759 39.1092 28.333 40.4911C33.45 41.8622 38.4217 38.8381 39.9297 36.4453C37.6154 38.6353 33.1696 40.6539 28.6162 39.4339Z" fill="white"/>
<path d="M28.6554 39.2929C24.0667 38.0633 21.2545 34.1237 20.3507 31.0789C20.4684 33.9084 23.2149 38.969 28.3719 40.3508C33.4889 41.7219 38.4608 38.6971 39.9688 36.3047C37.6544 38.4947 33.2088 40.513 28.6554 39.2929Z" fill="#6D0F0F"/>
<path d="M42.2926 28.4928C40.8453 33.8942 35.1855 37.0713 29.6499 35.5881C24.1154 34.1051 20.8014 28.5235 22.2487 23.122C23.696 17.7206 29.3568 14.5438 34.8914 16.0268C40.427 17.51 43.7399 23.0914 42.2926 28.4928Z" fill="#DB1375"/>
<path fill-rule="evenodd" clip-rule="evenodd" d="M40.8514 27.956C39.5873 32.6737 34.7378 35.4732 30.0198 34.209C25.3018 32.9448 22.5018 28.0956 23.7659 23.378C25.0299 18.6603 29.8794 15.8608 34.5975 17.125C39.3155 18.3892 42.1155 23.2384 40.8514 27.956Z" fill="url(#paint2_radial_34143_59982)"/>
<path fill-rule="evenodd" clip-rule="evenodd" d="M38.3718 27.2918C37.475 30.6385 34.0348 32.6245 30.6879 31.7276C27.3409 30.8308 25.3546 27.3908 26.2513 24.0441C27.148 20.6974 30.5883 18.7114 33.9352 19.6082C37.2822 20.505 39.2685 23.9451 38.3718 27.2918Z" fill="url(#paint3_radial_34143_59982)"/>
<path d="M35.1502 26.4232C34.7306 27.989 33.1217 28.9178 31.5558 28.4982C29.9899 28.0786 29.0609 26.4698 29.4805 24.904C29.8999 23.3386 31.509 22.4095 33.0748 22.829C34.6407 23.2486 35.5696 24.8578 35.1502 26.4232Z" fill="#49482A"/>
<path opacity="0.2" d="M35.1167 49.355C34.4698 51.7692 30.1206 52.7017 25.4025 51.4375C20.6852 50.1735 17.3842 47.1911 18.0311 44.7769C18.6778 42.3635 23.0277 41.4311 27.7451 42.6951C32.4631 43.9593 35.7634 46.9415 35.1167 49.355Z" fill="white"/>
<ellipse cx="33.1168" cy="22.6681" rx="3.4929" ry="2.68359" transform="rotate(15 33.1168 22.6681)" fill="url(#paint4_radial_34143_59982)"/>
</g>
</g>
<defs>
<filter id="filter0_d_34143_59982" x="-6.27171" y="1.04861" width="71.9731" height="69.6137" filterUnits="userSpaceOnUse" color-interpolation-filters="sRGB">
<feFlood flood-opacity="0" result="BackgroundImageFix"/>
<feColorMatrix in="SourceAlpha" type="matrix" values="0 0 0 0 0 0 0 0 0 0 0 0 0 0 0 0 0 0 127 0" result="hardAlpha"/>
<feOffset/>
<feGaussianBlur stdDeviation="4.63585"/>
<feComposite in2="hardAlpha" operator="out"/>
<feColorMatrix type="matrix" values="0 0 0 0 0 0 0 0 0 0 0 0 0 0 0 0 0 0 0.5 0"/>
<feBlend mode="normal" in2="BackgroundImageFix" result="effect1_dropShadow_34143_59982"/>
<feBlend mode="normal" in="SourceGraphic" in2="effect1_dropShadow_34143_59982" result="shape"/>
</filter>
<linearGradient id="paint0_linear_34143_59982" x1="30" y1="0.320312" x2="30" y2="60.3203" gradientUnits="userSpaceOnUse">
<stop stop-color="#3E2D84"/>
<stop offset="1" stop-color="#32285A"/>
</linearGradient>
<radialGradient id="paint1_radial_34143_59982" cx="0" cy="0" r="1" gradientUnits="userSpaceOnUse" gradientTransform="translate(28.8668 37.0472) rotate(90) scale(15.6083 14.2725)">
<stop stop-color="#D9D9D9"/>
<stop offset="0.224916" stop-color="#E4E4E4" stop-opacity="0.36"/>
<stop offset="0.521135" stop-color="#C57730" stop-opacity="0.24"/>
<stop offset="1" stop-opacity="0"/>
</radialGradient>
<radialGradient id="paint2_radial_34143_59982" cx="0" cy="0" r="1" gradientUnits="userSpaceOnUse" gradientTransform="translate(32.3088 25.6669) rotate(15) scale(8.84413 8.84337)">
<stop stop-color="white"/>
<stop offset="0.56" stop-color="white"/>
<stop offset="0.97" stop-color="#D6D6D6"/>
<stop offset="1" stop-color="#C6C6C6"/>
</radialGradient>
<radialGradient id="paint3_radial_34143_59982" cx="0" cy="0" r="1" gradientUnits="userSpaceOnUse" gradientTransform="translate(32.3114 25.668) rotate(15) scale(6.27402 6.27348)">
<stop stop-color="white"/>
<stop offset="1" stop-color="#9757EE"/>
</radialGradient>
<radialGradient id="paint4_radial_34143_59982" cx="0" cy="0" r="1" gradientUnits="userSpaceOnUse" gradientTransform="translate(33.1168 28.3183) rotate(-90) scale(8.33382 10.8471)">
<stop offset="0.401042" stop-color="#2E2A49"/>
<stop offset="0.546875" stop-color="#2E2A49" stop-opacity="0"/>
<stop offset="0.645833" stop-color="white" stop-opacity="0"/>
<stop offset="0.760417" stop-color="#B0C5FB" stop-opacity="0.33"/>
<stop offset="0.984375" stop-color="white"/>
</radialGradient>
</defs>
</svg>
