<svg width="249" height="281" viewBox="0 0 249 281" fill="none" xmlns="http://www.w3.org/2000/svg">
<g clip-path="url(#clip0_37483_134278)">
<path d="M182.499 152.457C186.687 141.719 195.657 135.452 202.538 138.457C209.419 141.463 211.605 152.602 207.419 163.34C203.229 174.077 171.337 239.142 164.458 236.138C157.577 233.13 178.316 163.193 182.499 152.457Z" fill="#DB1375"/>
<path d="M65.5009 149.449C61.3131 138.712 52.3432 132.444 45.4621 135.45C38.581 138.455 36.3952 149.594 40.5813 160.332C44.7708 171.069 76.663 236.134 83.5424 233.13C90.4225 230.122 69.6844 160.185 65.5009 149.449Z" fill="#DB1375"/>
<path opacity="0.2" d="M185.654 155.06C188.733 147.168 195.326 142.559 200.387 144.766C205.443 146.977 207.048 155.167 203.971 163.059C200.893 170.954 177.45 218.775 172.395 216.567C167.335 214.357 182.578 162.952 185.654 155.06Z" fill="white"/>
<path opacity="0.2" d="M62.3457 152.06C59.2675 144.168 52.6735 139.559 47.6134 141.766C42.5569 143.977 40.9524 152.167 44.029 160.059C47.1066 167.954 70.5496 215.775 75.6054 213.567C80.6646 211.357 65.4223 159.952 62.3457 152.06Z" fill="white"/>
<path d="M67.8447 173.329C68.641 171.985 70.4374 171.694 72.7168 172.304C79.7819 196.704 88.3159 231.044 83.5401 233.132C81.1741 234.166 75.8495 227.148 69.711 217.058C70.7914 210.321 72.5602 204.695 75.0147 200.022C69.3136 199.491 65.0098 197.031 65 194.055C64.9886 190.895 69.8219 188.271 76.043 187.906C75.6951 187.631 75.3469 187.344 75 187.045C69.4159 182.225 66.2114 176.085 67.8447 173.329Z" fill="#B21F5B"/>
<path d="M176.216 172.1C178.047 171.797 179.469 172.174 180.152 173.329C181.787 176.084 178.582 182.224 172.998 187.043C172.651 187.343 172.302 187.63 171.954 187.905C178.175 188.27 183.009 190.894 182.998 194.054C182.988 197.03 178.684 199.488 172.983 200.02C175.726 205.241 177.612 211.652 178.639 219.472C172.351 229.874 166.868 237.185 164.457 236.132C159.468 233.95 169.003 196.574 176.216 172.1Z" fill="#B21F5B"/>
<path d="M169.335 187.527C164.15 191.217 158.718 192.496 157.2 190.383C155.686 188.268 158.66 183.563 163.845 179.872C169.03 176.179 174.462 174.899 175.978 177.014C177.496 179.126 174.52 183.832 169.335 187.527Z" fill="#DB1375"/>
<path d="M167.059 197.553C160.683 197.528 155.524 195.403 155.534 192.806C155.544 190.21 160.721 188.126 167.096 188.151C173.471 188.176 178.631 190.3 178.619 192.897C178.609 195.493 173.434 197.577 167.059 197.553Z" fill="#DB1375"/>
<path d="M153.588 178.768C151.546 184.787 151.884 190.34 154.352 191.17C156.818 191.997 160.472 187.789 162.517 181.771C164.558 175.75 164.22 170.197 161.752 169.368C159.286 168.54 155.63 172.747 153.588 178.768Z" fill="#DB1375"/>
<path d="M78.3429 187.52C83.5266 191.21 88.9596 192.49 90.4773 190.378C91.9918 188.262 89.0184 183.557 83.8328 179.865C78.6468 176.172 73.2165 174.893 71.6991 177.007C70.1824 179.12 73.1577 183.826 78.3429 187.52Z" fill="#DB1375"/>
<path d="M80.6122 197.549C86.9883 197.524 92.1483 195.399 92.1369 192.802C92.1267 190.206 86.9514 188.122 80.5753 188.147C74.2004 188.172 69.0405 190.296 69.0519 192.893C69.062 195.489 74.2374 197.574 80.6122 197.549Z" fill="#DB1375"/>
<path d="M94.08 178.771C96.1218 184.792 95.783 190.344 93.3171 191.173C90.8507 192.002 87.1953 187.793 85.1527 181.774C83.1109 175.753 83.4497 170.201 85.916 169.373C88.382 168.543 92.037 172.751 94.08 178.771Z" fill="#DB1375"/>
<path d="M175.425 224.291C175.425 190.141 158.11 181.531 123.837 181.531C89.5667 181.531 72.25 190.141 72.25 224.291C72.25 248.837 87.2178 280.086 100.932 280.237C111.911 280.357 110.986 272.037 123.837 272.056C136.521 272.077 135.047 281.078 145.058 281C162.425 280.865 175.425 251.015 175.425 224.291Z" fill="#DB1375"/>
<path opacity="0.2" d="M174.011 194.292C174.018 192.192 170.123 190.449 165.11 190.205C165.393 190.022 165.676 189.829 165.957 189.63C170.456 186.428 173.036 182.347 171.722 180.514C170.41 178.683 165.698 179.795 161.2 182.997C160.919 183.198 160.646 183.402 160.38 183.608C161.773 178.805 161.38 174.568 159.381 173.896C157.239 173.174 154.072 176.821 152.301 182.039C150.532 187.258 150.834 192.072 152.973 192.793C153.705 193.04 154.559 192.775 155.434 192.11L155.437 192.114C154.539 192.714 154.019 193.418 153.996 194.172C146.766 191.075 136.766 190.401 123.839 190.401C111.293 190.401 101.504 191.036 94.3298 193.905C94.2059 193.253 93.7056 192.643 92.9159 192.115C92.9159 192.115 92.9183 192.114 92.9183 192.113C92.9183 192.113 92.9207 192.111 92.9207 192.11C93.795 192.775 94.649 193.04 95.3815 192.793C97.5232 192.072 97.8222 187.258 96.0533 182.039C94.2833 176.821 91.1149 173.174 88.9732 173.896C86.9769 174.568 86.5826 178.805 87.9739 183.608C87.7095 183.402 87.4355 183.198 87.1544 182.997C82.6567 179.795 77.9469 178.683 76.6319 180.514C75.3193 182.347 77.9005 186.428 82.397 189.63C82.6781 189.829 82.9616 190.022 83.2427 190.205C78.2304 190.449 74.3366 192.192 74.3438 194.292C74.3521 196.543 78.8415 198.351 84.3707 198.33C85.4213 198.325 86.4338 198.256 87.3867 198.129C81.8574 203.143 79.175 211.302 79.175 224.478C79.175 254.819 93.3924 271.524 123.839 271.524C154.285 271.524 168.503 254.819 168.503 224.478C168.503 211.192 165.776 203.007 160.155 198.003C161.335 198.209 162.627 198.323 163.986 198.33C169.513 198.351 174.001 196.543 174.011 194.292Z" fill="white"/>
<ellipse opacity="0.5" cx="123.822" cy="225.295" rx="48.025" ry="44.8337" fill="url(#paint0_radial_37483_134278)"/>
<path d="M123.823 228.269C108.821 228.269 97.0224 218.582 91.7767 210.064C94.4484 218.568 106.962 231.713 123.823 231.713C140.552 231.713 153.246 218.471 155.891 209.969C150.621 218.511 138.71 228.269 123.823 228.269Z" fill="white"/>
<path d="M123.823 227.814C108.821 227.814 97.0224 218.129 91.7767 209.609C94.4484 218.115 106.962 231.261 123.823 231.261C140.552 231.261 153.246 218.016 155.891 209.516C150.621 218.058 138.71 227.814 123.823 227.814Z" fill="#6D0F0F"/>
<path d="M156.602 183.868C156.602 201.466 141.934 215.734 123.836 215.734C105.741 215.734 91.0702 201.466 91.0702 183.868C91.0702 166.269 105.741 152.001 123.836 152.001C141.934 152.001 156.602 166.269 156.602 183.868Z" fill="#DB1375"/>
<path fill-rule="evenodd" clip-rule="evenodd" d="M151.766 183.409C151.766 198.78 139.261 211.24 123.836 211.24C108.411 211.24 95.9062 198.78 95.9062 183.409C95.9062 168.039 108.411 155.578 123.836 155.578C139.261 155.578 151.766 168.039 151.766 183.409Z" fill="url(#paint1_radial_37483_134278)"/>
<path fill-rule="evenodd" clip-rule="evenodd" d="M143.65 183.407C143.65 194.311 134.779 203.151 123.837 203.151C112.894 203.151 104.023 194.311 104.023 183.407C104.023 172.503 112.894 163.664 123.837 163.664C134.779 163.664 143.65 172.503 143.65 183.407Z" fill="url(#paint2_radial_37483_134278)"/>
<path d="M133.102 183.413C133.102 188.514 128.953 192.648 123.833 192.648C118.714 192.648 114.565 188.514 114.565 183.413C114.565 178.313 118.714 174.178 123.833 174.178C128.953 174.178 133.102 178.313 133.102 183.413Z" fill="#49482A"/>
<ellipse cx="123.827" cy="173.685" rx="11.03" ry="8.47434" fill="url(#paint3_radial_37483_134278)"/>
<path opacity="0.2" d="M151.766 253.148C151.766 261.013 139.261 267.391 123.836 267.391C108.413 267.391 95.9062 261.013 95.9062 253.148C95.9062 245.284 108.413 238.907 123.836 238.907C139.261 238.907 151.766 245.284 151.766 253.148Z" fill="white"/>
</g>
<rect width="249" height="149" rx="8" fill="#22499C"/>
<path d="M88.1203 35.152C89.8963 35.152 91.4483 35.504 92.7763 36.208C94.1043 36.912 95.1283 37.904 95.8483 39.184C96.5843 40.448 96.9523 41.912 96.9523 43.576C96.9523 45.224 96.5843 46.688 95.8483 47.968C95.1283 49.248 94.0963 50.24 92.7523 50.944C91.4243 51.648 89.8803 52 88.1203 52H81.8083V35.152H88.1203ZM87.8563 48.448C89.4083 48.448 90.6163 48.024 91.4803 47.176C92.3443 46.328 92.7763 45.128 92.7763 43.576C92.7763 42.024 92.3443 40.816 91.4803 39.952C90.6163 39.088 89.4083 38.656 87.8563 38.656H85.9123V48.448H87.8563ZM111.87 45.088C111.87 45.472 111.846 45.872 111.798 46.288H102.51C102.574 47.12 102.838 47.76 103.302 48.208C103.782 48.64 104.366 48.856 105.054 48.856C106.078 48.856 106.79 48.424 107.19 47.56H111.558C111.334 48.44 110.926 49.232 110.334 49.936C109.758 50.64 109.03 51.192 108.15 51.592C107.27 51.992 106.286 52.192 105.198 52.192C103.886 52.192 102.718 51.912 101.694 51.352C100.67 50.792 99.8698 49.992 99.2938 48.952C98.7178 47.912 98.4298 46.696 98.4298 45.304C98.4298 43.912 98.7098 42.696 99.2698 41.656C99.8458 40.616 100.646 39.816 101.67 39.256C102.694 38.696 103.87 38.416 105.198 38.416C106.494 38.416 107.646 38.688 108.654 39.232C109.662 39.776 110.446 40.552 111.006 41.56C111.582 42.568 111.87 43.744 111.87 45.088ZM107.67 44.008C107.67 43.304 107.43 42.744 106.95 42.328C106.47 41.912 105.87 41.704 105.15 41.704C104.462 41.704 103.878 41.904 103.398 42.304C102.934 42.704 102.646 43.272 102.534 44.008H107.67ZM126.659 45.088C126.659 45.472 126.635 45.872 126.587 46.288H117.299C117.363 47.12 117.627 47.76 118.091 48.208C118.571 48.64 119.155 48.856 119.843 48.856C120.867 48.856 121.579 48.424 121.979 47.56H126.347C126.123 48.44 125.715 49.232 125.123 49.936C124.547 50.64 123.819 51.192 122.939 51.592C122.059 51.992 121.075 52.192 119.987 52.192C118.675 52.192 117.507 51.912 116.483 51.352C115.459 50.792 114.659 49.992 114.083 48.952C113.507 47.912 113.219 46.696 113.219 45.304C113.219 43.912 113.499 42.696 114.059 41.656C114.635 40.616 115.435 39.816 116.459 39.256C117.483 38.696 118.659 38.416 119.987 38.416C121.283 38.416 122.435 38.688 123.443 39.232C124.451 39.776 125.235 40.552 125.795 41.56C126.371 42.568 126.659 43.744 126.659 45.088ZM122.459 44.008C122.459 43.304 122.219 42.744 121.739 42.328C121.259 41.912 120.659 41.704 119.939 41.704C119.251 41.704 118.667 41.904 118.187 42.304C117.723 42.704 117.435 43.272 117.323 44.008H122.459ZM132.928 40.504C133.328 39.88 133.88 39.376 134.584 38.992C135.288 38.608 136.112 38.416 137.056 38.416C138.16 38.416 139.16 38.696 140.056 39.256C140.952 39.816 141.656 40.616 142.168 41.656C142.696 42.696 142.96 43.904 142.96 45.28C142.96 46.656 142.696 47.872 142.168 48.928C141.656 49.968 140.952 50.776 140.056 51.352C139.16 51.912 138.16 52.192 137.056 52.192C136.128 52.192 135.304 52 134.584 51.616C133.88 51.232 133.328 50.736 132.928 50.128V58.384H128.824V38.608H132.928V40.504ZM138.784 45.28C138.784 44.256 138.496 43.456 137.92 42.88C137.36 42.288 136.664 41.992 135.832 41.992C135.016 41.992 134.32 42.288 133.744 42.88C133.184 43.472 132.904 44.28 132.904 45.304C132.904 46.328 133.184 47.136 133.744 47.728C134.32 48.32 135.016 48.616 135.832 48.616C136.648 48.616 137.344 48.32 137.92 47.728C138.496 47.12 138.784 46.304 138.784 45.28ZM157.737 45.088C157.737 45.472 157.713 45.872 157.665 46.288H148.377C148.441 47.12 148.705 47.76 149.169 48.208C149.649 48.64 150.233 48.856 150.921 48.856C151.945 48.856 152.657 48.424 153.057 47.56H157.425C157.201 48.44 156.793 49.232 156.201 49.936C155.625 50.64 154.897 51.192 154.017 51.592C153.137 51.992 152.153 52.192 151.065 52.192C149.753 52.192 148.585 51.912 147.561 51.352C146.537 50.792 145.737 49.992 145.161 48.952C144.585 47.912 144.297 46.696 144.297 45.304C144.297 43.912 144.577 42.696 145.137 41.656C145.713 40.616 146.513 39.816 147.537 39.256C148.561 38.696 149.737 38.416 151.065 38.416C152.361 38.416 153.513 38.688 154.521 39.232C155.529 39.776 156.313 40.552 156.873 41.56C157.449 42.568 157.737 43.744 157.737 45.088ZM153.537 44.008C153.537 43.304 153.297 42.744 152.817 42.328C152.337 41.912 151.737 41.704 151.017 41.704C150.329 41.704 149.745 41.904 149.265 42.304C148.801 42.704 148.513 43.272 148.401 44.008H153.537ZM164.006 40.84C164.486 40.104 165.086 39.528 165.806 39.112C166.526 38.68 167.326 38.464 168.206 38.464V42.808H167.078C166.054 42.808 165.286 43.032 164.774 43.48C164.262 43.912 164.006 44.68 164.006 45.784V52H159.902V38.608H164.006V40.84ZM52.9756 74.552C52.9756 72.888 53.3356 71.408 54.0556 70.112C54.7756 68.8 55.7756 67.784 57.0556 67.064C58.3516 66.328 59.8156 65.96 61.4476 65.96C63.4476 65.96 65.1596 66.488 66.5836 67.544C68.0076 68.6 68.9596 70.04 69.4396 71.864H64.9276C64.5916 71.16 64.1116 70.624 63.4876 70.256C62.8796 69.888 62.1836 69.704 61.3996 69.704C60.1356 69.704 59.1116 70.144 58.3276 71.024C57.5436 71.904 57.1516 73.08 57.1516 74.552C57.1516 76.024 57.5436 77.2 58.3276 78.08C59.1116 78.96 60.1356 79.4 61.3996 79.4C62.1836 79.4 62.8796 79.216 63.4876 78.848C64.1116 78.48 64.5916 77.944 64.9276 77.24H69.4396C68.9596 79.064 68.0076 80.504 66.5836 81.56C65.1596 82.6 63.4476 83.12 61.4476 83.12C59.8156 83.12 58.3516 82.76 57.0556 82.04C55.7756 81.304 54.7756 80.288 54.0556 78.992C53.3356 77.696 52.9756 76.216 52.9756 74.552ZM78.0488 83.192C76.7368 83.192 75.5528 82.912 74.4968 82.352C73.4568 81.792 72.6328 80.992 72.0248 79.952C71.4328 78.912 71.1368 77.696 71.1368 76.304C71.1368 74.928 71.4408 73.72 72.0488 72.68C72.6568 71.624 73.4888 70.816 74.5448 70.256C75.6008 69.696 76.7848 69.416 78.0968 69.416C79.4088 69.416 80.5928 69.696 81.6488 70.256C82.7048 70.816 83.5368 71.624 84.1448 72.68C84.7528 73.72 85.0568 74.928 85.0568 76.304C85.0568 77.68 84.7448 78.896 84.1208 79.952C83.5128 80.992 82.6728 81.792 81.6008 82.352C80.5448 82.912 79.3608 83.192 78.0488 83.192ZM78.0488 79.64C78.8328 79.64 79.4968 79.352 80.0408 78.776C80.6008 78.2 80.8808 77.376 80.8808 76.304C80.8808 75.232 80.6088 74.408 80.0648 73.832C79.5368 73.256 78.8808 72.968 78.0968 72.968C77.2968 72.968 76.6328 73.256 76.1048 73.832C75.5768 74.392 75.3128 75.216 75.3128 76.304C75.3128 77.376 75.5688 78.2 76.0808 78.776C76.6088 79.352 77.2648 79.64 78.0488 79.64ZM95.3941 69.464C96.9621 69.464 98.2101 69.976 99.1381 71C100.082 72.008 100.554 73.4 100.554 75.176V83H96.4741V75.728C96.4741 74.832 96.2421 74.136 95.7781 73.64C95.3141 73.144 94.6901 72.896 93.9061 72.896C93.1221 72.896 92.4981 73.144 92.0341 73.64C91.5701 74.136 91.3381 74.832 91.3381 75.728V83H87.2341V69.608H91.3381V71.384C91.7541 70.792 92.3141 70.328 93.0181 69.992C93.7221 69.64 94.5141 69.464 95.3941 69.464ZM102.59 76.304C102.59 74.912 102.87 73.696 103.43 72.656C104.006 71.616 104.798 70.816 105.806 70.256C106.83 69.696 107.998 69.416 109.31 69.416C110.99 69.416 112.39 69.856 113.51 70.736C114.646 71.616 115.39 72.856 115.742 74.456H111.374C111.006 73.432 110.294 72.92 109.238 72.92C108.486 72.92 107.886 73.216 107.438 73.808C106.99 74.384 106.766 75.216 106.766 76.304C106.766 77.392 106.99 78.232 107.438 78.824C107.886 79.4 108.486 79.688 109.238 79.688C110.294 79.688 111.006 79.176 111.374 78.152H115.742C115.39 79.72 114.646 80.952 113.51 81.848C112.374 82.744 110.974 83.192 109.31 83.192C107.998 83.192 106.83 82.912 105.806 82.352C104.798 81.792 104.006 80.992 103.43 79.952C102.87 78.912 102.59 77.696 102.59 76.304ZM130.561 76.088C130.561 76.472 130.537 76.872 130.489 77.288H121.201C121.265 78.12 121.529 78.76 121.993 79.208C122.473 79.64 123.057 79.856 123.745 79.856C124.769 79.856 125.481 79.424 125.881 78.56H130.249C130.025 79.44 129.617 80.232 129.025 80.936C128.449 81.64 127.721 82.192 126.841 82.592C125.961 82.992 124.977 83.192 123.889 83.192C122.577 83.192 121.409 82.912 120.385 82.352C119.361 81.792 118.561 80.992 117.985 79.952C117.409 78.912 117.121 77.696 117.121 76.304C117.121 74.912 117.401 73.696 117.961 72.656C118.537 71.616 119.337 70.816 120.361 70.256C121.385 69.696 122.561 69.416 123.889 69.416C125.185 69.416 126.337 69.688 127.345 70.232C128.353 70.776 129.137 71.552 129.697 72.56C130.273 73.568 130.561 74.744 130.561 76.088ZM126.361 75.008C126.361 74.304 126.121 73.744 125.641 73.328C125.161 72.912 124.561 72.704 123.841 72.704C123.153 72.704 122.569 72.904 122.089 73.304C121.625 73.704 121.337 74.272 121.225 75.008H126.361ZM136.83 71.504C137.23 70.88 137.782 70.376 138.486 69.992C139.19 69.608 140.014 69.416 140.958 69.416C142.062 69.416 143.062 69.696 143.958 70.256C144.854 70.816 145.558 71.616 146.07 72.656C146.598 73.696 146.862 74.904 146.862 76.28C146.862 77.656 146.598 78.872 146.07 79.928C145.558 80.968 144.854 81.776 143.958 82.352C143.062 82.912 142.062 83.192 140.958 83.192C140.03 83.192 139.206 83 138.486 82.616C137.782 82.232 137.23 81.736 136.83 81.128V89.384H132.726V69.608H136.83V71.504ZM142.686 76.28C142.686 75.256 142.398 74.456 141.822 73.88C141.262 73.288 140.566 72.992 139.734 72.992C138.918 72.992 138.222 73.288 137.646 73.88C137.086 74.472 136.806 75.28 136.806 76.304C136.806 77.328 137.086 78.136 137.646 78.728C138.222 79.32 138.918 79.616 139.734 79.616C140.55 79.616 141.246 79.32 141.822 78.728C142.398 78.12 142.686 77.304 142.686 76.28ZM156.479 79.52V83H154.391C152.903 83 151.743 82.64 150.911 81.92C150.079 81.184 149.663 79.992 149.663 78.344V73.016H148.031V69.608H149.663V66.344H153.767V69.608H156.455V73.016H153.767V78.392C153.767 78.792 153.863 79.08 154.055 79.256C154.247 79.432 154.567 79.52 155.015 79.52H156.479ZM171.989 69.608V83H167.885V81.176C167.469 81.768 166.901 82.248 166.181 82.616C165.477 82.968 164.693 83.144 163.829 83.144C162.805 83.144 161.901 82.92 161.117 82.472C160.333 82.008 159.725 81.344 159.293 80.48C158.861 79.616 158.645 78.6 158.645 77.432V69.608H162.725V76.88C162.725 77.776 162.957 78.472 163.421 78.968C163.885 79.464 164.509 79.712 165.293 79.712C166.093 79.712 166.725 79.464 167.189 78.968C167.653 78.472 167.885 77.776 167.885 76.88V69.608H171.989ZM174.121 76.28C174.121 74.904 174.377 73.696 174.889 72.656C175.417 71.616 176.129 70.816 177.025 70.256C177.921 69.696 178.921 69.416 180.025 69.416C180.969 69.416 181.793 69.608 182.497 69.992C183.217 70.376 183.769 70.88 184.153 71.504V69.608H188.257V83H184.153V81.104C183.753 81.728 183.193 82.232 182.473 82.616C181.769 83 180.945 83.192 180.001 83.192C178.913 83.192 177.921 82.912 177.025 82.352C176.129 81.776 175.417 80.968 174.889 79.928C174.377 78.872 174.121 77.656 174.121 76.28ZM184.153 76.304C184.153 75.28 183.865 74.472 183.289 73.88C182.729 73.288 182.041 72.992 181.225 72.992C180.409 72.992 179.713 73.288 179.137 73.88C178.577 74.456 178.297 75.256 178.297 76.28C178.297 77.304 178.577 78.12 179.137 78.728C179.713 79.32 180.409 79.616 181.225 79.616C182.041 79.616 182.729 79.32 183.289 78.728C183.865 78.136 184.153 77.328 184.153 76.304ZM195.33 65.24V83H191.226V65.24H195.33ZM37.0903 97.152V107.232C37.0903 108.24 37.3383 109.016 37.8343 109.56C38.3303 110.104 39.0583 110.376 40.0183 110.376C40.9783 110.376 41.7143 110.104 42.2263 109.56C42.7383 109.016 42.9943 108.24 42.9943 107.232V97.152H47.0983V107.208C47.0983 108.712 46.7783 109.984 46.1383 111.024C45.4983 112.064 44.6343 112.848 43.5463 113.376C42.4743 113.904 41.2743 114.168 39.9463 114.168C38.6183 114.168 37.4263 113.912 36.3703 113.4C35.3303 112.872 34.5063 112.088 33.8983 111.048C33.2903 109.992 32.9863 108.712 32.9863 107.208V97.152H37.0903ZM58.1402 100.464C59.7082 100.464 60.9562 100.976 61.8842 102C62.8282 103.008 63.3002 104.4 63.3002 106.176V114H59.2202V106.728C59.2202 105.832 58.9882 105.136 58.5242 104.64C58.0602 104.144 57.4362 103.896 56.6522 103.896C55.8682 103.896 55.2442 104.144 54.7802 104.64C54.3162 105.136 54.0842 105.832 54.0842 106.728V114H49.9802V100.608H54.0842V102.384C54.5002 101.792 55.0602 101.328 55.7642 100.992C56.4682 100.64 57.2602 100.464 58.1402 100.464ZM65.3361 107.28C65.3361 105.904 65.5921 104.696 66.1041 103.656C66.6321 102.616 67.3441 101.816 68.2401 101.256C69.1361 100.696 70.1361 100.416 71.2401 100.416C72.1201 100.416 72.9201 100.6 73.6401 100.968C74.3761 101.336 74.9521 101.832 75.3681 102.456V96.24H79.4721V114H75.3681V112.08C74.9841 112.72 74.4321 113.232 73.7121 113.616C73.0081 114 72.1841 114.192 71.2401 114.192C70.1361 114.192 69.1361 113.912 68.2401 113.352C67.3441 112.776 66.6321 111.968 66.1041 110.928C65.5921 109.872 65.3361 108.656 65.3361 107.28ZM75.3681 107.304C75.3681 106.28 75.0801 105.472 74.5041 104.88C73.9441 104.288 73.2561 103.992 72.4401 103.992C71.6241 103.992 70.9281 104.288 70.3521 104.88C69.7921 105.456 69.5121 106.256 69.5121 107.28C69.5121 108.304 69.7921 109.12 70.3521 109.728C70.9281 110.32 71.6241 110.616 72.4401 110.616C73.2561 110.616 73.9441 110.32 74.5041 109.728C75.0801 109.136 75.3681 108.328 75.3681 107.304ZM95.0651 107.088C95.0651 107.472 95.0411 107.872 94.9931 108.288H85.7051C85.7691 109.12 86.0331 109.76 86.4971 110.208C86.9771 110.64 87.5611 110.856 88.2491 110.856C89.2731 110.856 89.9851 110.424 90.3851 109.56H94.7531C94.5291 110.44 94.1211 111.232 93.5291 111.936C92.9531 112.64 92.2251 113.192 91.3451 113.592C90.4651 113.992 89.4811 114.192 88.3931 114.192C87.0811 114.192 85.9131 113.912 84.8891 113.352C83.8651 112.792 83.0651 111.992 82.4891 110.952C81.9131 109.912 81.6251 108.696 81.6251 107.304C81.6251 105.912 81.9051 104.696 82.4651 103.656C83.0411 102.616 83.8411 101.816 84.8651 101.256C85.8891 100.696 87.0651 100.416 88.3931 100.416C89.6891 100.416 90.8411 100.688 91.8491 101.232C92.8571 101.776 93.6411 102.552 94.2011 103.56C94.7771 104.568 95.0651 105.744 95.0651 107.088ZM90.8651 106.008C90.8651 105.304 90.6251 104.744 90.1451 104.328C89.6651 103.912 89.0651 103.704 88.3451 103.704C87.6571 103.704 87.0731 103.904 86.5931 104.304C86.1291 104.704 85.8411 105.272 85.7291 106.008H90.8651ZM101.334 102.84C101.814 102.104 102.414 101.528 103.134 101.112C103.854 100.68 104.654 100.464 105.534 100.464V104.808H104.406C103.382 104.808 102.614 105.032 102.102 105.48C101.59 105.912 101.334 106.68 101.334 107.784V114H97.2302V100.608H101.334V102.84ZM112.944 114.192C111.776 114.192 110.736 113.992 109.824 113.592C108.912 113.192 108.192 112.648 107.664 111.96C107.136 111.256 106.84 110.472 106.776 109.608H110.832C110.88 110.072 111.096 110.448 111.48 110.736C111.864 111.024 112.336 111.168 112.896 111.168C113.408 111.168 113.8 111.072 114.072 110.88C114.36 110.672 114.504 110.408 114.504 110.088C114.504 109.704 114.304 109.424 113.904 109.248C113.504 109.056 112.856 108.848 111.96 108.624C111 108.4 110.2 108.168 109.56 107.928C108.92 107.672 108.368 107.28 107.904 106.752C107.44 106.208 107.208 105.48 107.208 104.568C107.208 103.8 107.416 103.104 107.832 102.48C108.264 101.84 108.888 101.336 109.704 100.968C110.536 100.6 111.52 100.416 112.656 100.416C114.336 100.416 115.656 100.832 116.616 101.664C117.592 102.496 118.152 103.6 118.296 104.976H114.504C114.44 104.512 114.232 104.144 113.88 103.872C113.544 103.6 113.096 103.464 112.536 103.464C112.056 103.464 111.688 103.56 111.432 103.752C111.176 103.928 111.048 104.176 111.048 104.496C111.048 104.88 111.248 105.168 111.648 105.36C112.064 105.552 112.704 105.744 113.568 105.936C114.56 106.192 115.368 106.448 115.992 106.704C116.616 106.944 117.16 107.344 117.624 107.904C118.104 108.448 118.352 109.184 118.368 110.112C118.368 110.896 118.144 111.6 117.696 112.224C117.264 112.832 116.632 113.312 115.8 113.664C114.984 114.016 114.032 114.192 112.944 114.192ZM128.343 110.52V114H126.255C124.767 114 123.607 113.64 122.775 112.92C121.943 112.184 121.527 110.992 121.527 109.344V104.016H119.895V100.608H121.527V97.344H125.631V100.608H128.319V104.016H125.631V109.392C125.631 109.792 125.727 110.08 125.919 110.256C126.111 110.432 126.431 110.52 126.879 110.52H128.343ZM129.813 107.28C129.813 105.904 130.069 104.696 130.581 103.656C131.109 102.616 131.821 101.816 132.717 101.256C133.613 100.696 134.613 100.416 135.717 100.416C136.661 100.416 137.485 100.608 138.189 100.992C138.909 101.376 139.461 101.88 139.845 102.504V100.608H143.949V114H139.845V112.104C139.445 112.728 138.885 113.232 138.165 113.616C137.461 114 136.637 114.192 135.693 114.192C134.605 114.192 133.613 113.912 132.717 113.352C131.821 112.776 131.109 111.968 130.581 110.928C130.069 109.872 129.813 108.656 129.813 107.28ZM139.845 107.304C139.845 106.28 139.557 105.472 138.981 104.88C138.421 104.288 137.733 103.992 136.917 103.992C136.101 103.992 135.405 104.288 134.829 104.88C134.269 105.456 133.989 106.256 133.989 107.28C133.989 108.304 134.269 109.12 134.829 109.728C135.405 110.32 136.101 110.616 136.917 110.616C137.733 110.616 138.421 110.32 138.981 109.728C139.557 109.136 139.845 108.328 139.845 107.304ZM155.078 100.464C156.646 100.464 157.894 100.976 158.822 102C159.766 103.008 160.238 104.4 160.238 106.176V114H156.158V106.728C156.158 105.832 155.926 105.136 155.462 104.64C154.998 104.144 154.374 103.896 153.59 103.896C152.806 103.896 152.182 104.144 151.718 104.64C151.254 105.136 151.022 105.832 151.022 106.728V114H146.918V100.608H151.022V102.384C151.438 101.792 151.998 101.328 152.702 100.992C153.406 100.64 154.198 100.464 155.078 100.464ZM162.274 107.28C162.274 105.904 162.53 104.696 163.042 103.656C163.57 102.616 164.282 101.816 165.178 101.256C166.074 100.696 167.074 100.416 168.178 100.416C169.058 100.416 169.858 100.6 170.578 100.968C171.314 101.336 171.89 101.832 172.306 102.456V96.24H176.41V114H172.306V112.08C171.922 112.72 171.37 113.232 170.65 113.616C169.946 114 169.122 114.192 168.178 114.192C167.074 114.192 166.074 113.912 165.178 113.352C164.282 112.776 163.57 111.968 163.042 110.928C162.53 109.872 162.274 108.656 162.274 107.28ZM172.306 107.304C172.306 106.28 172.018 105.472 171.442 104.88C170.882 104.288 170.194 103.992 169.378 103.992C168.562 103.992 167.866 104.288 167.29 104.88C166.73 105.456 166.45 106.256 166.45 107.28C166.45 108.304 166.73 109.12 167.29 109.728C167.866 110.32 168.562 110.616 169.378 110.616C170.194 110.616 170.882 110.32 171.442 109.728C172.018 109.136 172.306 108.328 172.306 107.304ZM181.443 99.216C180.723 99.216 180.131 99.008 179.667 98.592C179.219 98.16 178.995 97.632 178.995 97.008C178.995 96.368 179.219 95.84 179.667 95.424C180.131 94.992 180.723 94.776 181.443 94.776C182.147 94.776 182.723 94.992 183.171 95.424C183.635 95.84 183.867 96.368 183.867 97.008C183.867 97.632 183.635 98.16 183.171 98.592C182.723 99.008 182.147 99.216 181.443 99.216ZM183.483 100.608V114H179.379V100.608H183.483ZM194.617 100.464C196.185 100.464 197.433 100.976 198.361 102C199.305 103.008 199.777 104.4 199.777 106.176V114H195.697V106.728C195.697 105.832 195.465 105.136 195.001 104.64C194.537 104.144 193.913 103.896 193.129 103.896C192.345 103.896 191.721 104.144 191.257 104.64C190.793 105.136 190.561 105.832 190.561 106.728V114H186.457V100.608H190.561V102.384C190.977 101.792 191.537 101.328 192.241 100.992C192.945 100.64 193.737 100.464 194.617 100.464ZM207.717 100.416C208.661 100.416 209.485 100.608 210.189 100.992C210.909 101.376 211.461 101.88 211.845 102.504V100.608H215.949V113.976C215.949 115.208 215.701 116.32 215.205 117.312C214.725 118.32 213.981 119.12 212.973 119.712C211.981 120.304 210.741 120.6 209.253 120.6C207.269 120.6 205.661 120.128 204.429 119.184C203.197 118.256 202.493 116.992 202.317 115.392H206.373C206.501 115.904 206.805 116.304 207.285 116.592C207.765 116.896 208.357 117.048 209.061 117.048C209.909 117.048 210.581 116.8 211.077 116.304C211.589 115.824 211.845 115.048 211.845 113.976V112.08C211.445 112.704 210.893 113.216 210.189 113.616C209.485 114 208.661 114.192 207.717 114.192C206.613 114.192 205.613 113.912 204.717 113.352C203.821 112.776 203.109 111.968 202.581 110.928C202.069 109.872 201.813 108.656 201.813 107.28C201.813 105.904 202.069 104.696 202.581 103.656C203.109 102.616 203.821 101.816 204.717 101.256C205.613 100.696 206.613 100.416 207.717 100.416ZM211.845 107.304C211.845 106.28 211.557 105.472 210.981 104.88C210.421 104.288 209.733 103.992 208.917 103.992C208.101 103.992 207.405 104.288 206.829 104.88C206.269 105.456 205.989 106.256 205.989 107.28C205.989 108.304 206.269 109.12 206.829 109.728C207.405 110.32 208.101 110.616 208.917 110.616C209.733 110.616 210.421 110.32 210.981 109.728C211.557 109.136 211.845 108.328 211.845 107.304Z" fill="white"/>
<defs>
<radialGradient id="paint0_radial_37483_134278" cx="0" cy="0" r="1" gradientUnits="userSpaceOnUse" gradientTransform="translate(123.822 220.752) rotate(90) scale(49.2892 63.4666)">
<stop stop-color="#D9D9D9"/>
<stop offset="0.224916" stop-color="#E4E4E4" stop-opacity="0.36"/>
<stop offset="0.521135" stop-color="#C57730" stop-opacity="0.24"/>
<stop offset="1" stop-opacity="0"/>
</radialGradient>
<radialGradient id="paint1_radial_37483_134278" cx="0" cy="0" r="1" gradientUnits="userSpaceOnUse" gradientTransform="translate(123.836 183.409) scale(27.9297 27.831)">
<stop stop-color="white"/>
<stop offset="0.56" stop-color="white"/>
<stop offset="0.97" stop-color="#D6D6D6"/>
<stop offset="1" stop-color="#C6C6C6"/>
</radialGradient>
<radialGradient id="paint2_radial_37483_134278" cx="0" cy="0" r="1" gradientUnits="userSpaceOnUse" gradientTransform="translate(123.836 183.408) scale(19.8133 19.7433)">
<stop stop-color="white"/>
<stop offset="1" stop-color="#9757EE"/>
</radialGradient>
<radialGradient id="paint3_radial_37483_134278" cx="0" cy="0" r="1" gradientUnits="userSpaceOnUse" gradientTransform="translate(123.827 191.528) rotate(-90) scale(26.3168 34.2534)">
<stop offset="0.401042" stop-color="#2E2A49"/>
<stop offset="0.546875" stop-color="#2E2A49" stop-opacity="0"/>
<stop offset="0.645833" stop-color="white" stop-opacity="0"/>
<stop offset="0.760417" stop-color="#B0C5FB" stop-opacity="0.33"/>
<stop offset="0.984375" stop-color="white"/>
</radialGradient>
<clipPath id="clip0_37483_134278">
<rect width="173" height="147" fill="white" transform="translate(38 134)"/>
</clipPath>
</defs>
</svg>
