<svg width="19" height="20" viewBox="0 0 19 20" fill="none" xmlns="http://www.w3.org/2000/svg">
<path d="M9.70309 19.3776H9.03649C8.66829 19.3776 8.36979 19.0792 8.36979 18.711V11.0443H0.703086C0.334987 11.0443 0.0364868 10.7458 0.0364868 10.3776V9.71097C0.0364868 9.34277 0.334987 9.04427 0.703086 9.04427H8.36979V1.37761C8.36979 1.00942 8.66829 0.710938 9.03649 0.710938H9.70309C10.0713 0.710938 10.3698 1.00942 10.3698 1.37761V9.04427H18.0365C18.4047 9.04427 18.7031 9.34277 18.7031 9.71097V10.3776C18.7031 10.7458 18.4047 11.0443 18.0365 11.0443H10.3698V18.711C10.3698 19.0792 10.0713 19.3776 9.70309 19.3776Z" fill="white"/>
</svg>
