<svg width="244" height="231" viewBox="0 0 244 231" fill="none" xmlns="http://www.w3.org/2000/svg">
<g clip-path="url(#clip0_36209_95714)">
<path d="M195.319 95.1516C187.456 89.4801 185.201 114.255 173.469 142.484C161.6 171.037 161.024 171.251 171.032 180.489C186.809 195.05 206.702 103.364 195.319 95.1516Z" fill="#FF122F"/>
<path opacity="0.2" d="M194.45 99.4062C188.974 94.2473 186.309 115.507 176.616 139.411C166.815 163.589 166.387 163.752 173.271 172.056C184.127 185.152 202.376 106.876 194.45 99.4062Z" fill="white"/>
<path d="M44.634 95.1516C52.4969 89.4801 54.752 114.255 66.4844 142.484C78.3531 171.037 78.9288 171.251 68.9213 180.489C53.1438 195.05 33.2512 103.364 44.634 95.1516Z" fill="#FF122F"/>
<path opacity="0.2" d="M45.5036 99.4062C50.9792 94.2473 53.6437 115.507 63.3369 139.411C73.1379 163.589 73.5666 163.752 66.6817 172.056C55.8258 185.152 37.577 106.876 45.5036 99.4062Z" fill="white"/>
<path d="M178.25 183.814C178.25 152.468 152.707 117.484 121.195 117.484C89.6846 117.484 64.1406 152.468 64.1406 183.814C64.1406 205.52 76.39 227.043 94.3883 229.957C102.381 231.252 111.505 218.083 121.195 218.083C131.473 218.083 141.114 231.217 149.444 229.71C152.599 229.139 155.566 227.944 158.307 226.246C170.514 218.672 178.25 201.063 178.25 183.814Z" fill="#FF122F"/>
<path d="M63.9141 112.43C64.1759 113.002 64.5091 113.584 64.8816 114.169C64.8784 114.171 64.8763 114.172 64.872 114.173C74.0484 129.622 86.053 141.422 99.3104 141.422C109.206 141.422 118.536 134.993 126.405 125.25C124.529 121.638 117.28 110.987 109.613 107.439C111.772 110.05 112.414 110.863 113.407 113.65C104.959 109.053 92.8663 105.305 80.6947 107.57C89.9466 108.368 92.1063 110.4 93.8563 111.907C88.7502 112.014 78.5999 107.008 66.8902 110.465C68.7008 110.488 76.1166 110.458 78.1582 112.236C77.2151 112.562 67.1606 110.389 63.9141 112.43Z" fill="#FF122F"/>
<path d="M65.3964 122.375C65.9563 122.514 66.5343 122.712 67.125 122.947C67.1271 122.944 67.1271 122.941 67.1282 122.939C82.5815 128.524 95.2226 137.242 97.4462 149.059C99.1067 157.877 94.882 167.272 87.4278 175.919C83.8599 174.85 73.0507 170.178 68.5684 163.941C71.2837 165.428 72.1225 165.863 74.7995 166.279C69.2421 159.522 63.837 149.374 63.8359 138.145C66.1064 146.258 68.298 147.841 69.9511 149.149C69.1889 144.581 62.978 136.374 64.1276 125.358C64.4512 126.968 65.6678 133.582 67.6125 135.103C67.7466 134.208 64.1031 125.611 65.3964 122.375Z" fill="#FF122F"/>
<path d="M178.47 112.43C178.207 113.002 177.873 113.584 177.501 114.169C177.503 114.171 177.508 114.172 177.511 114.173C168.335 129.622 156.331 141.422 143.074 141.422C133.178 141.422 123.847 134.993 115.977 125.25C117.855 121.638 125.104 110.987 132.77 107.439C130.61 110.05 129.969 110.863 128.977 113.65C137.425 109.053 149.518 105.305 161.689 107.57C152.437 108.368 150.278 110.4 148.527 111.907C153.632 112.014 163.783 107.008 175.494 110.465C173.683 110.488 166.266 110.458 164.226 112.236C165.169 112.562 175.222 110.389 178.47 112.43Z" fill="#FF122F"/>
<path d="M176.993 122.375C176.434 122.514 175.855 122.712 175.267 122.947C175.265 122.944 175.265 122.941 175.262 122.939C159.809 128.524 147.169 137.242 144.946 149.059C143.284 157.877 147.509 167.272 154.964 175.919C158.531 174.85 169.341 170.178 173.822 163.941C171.107 165.428 170.269 165.863 167.59 166.279C173.15 159.522 178.553 149.374 178.555 138.145C176.285 146.258 174.093 147.841 172.441 149.149C173.201 144.581 179.414 136.374 178.264 125.358C177.94 126.968 176.724 133.582 174.779 135.103C174.642 134.208 178.287 125.611 176.993 122.375Z" fill="#FF122F"/>
<path opacity="0.2" d="M162.306 153.347C164.442 149.065 165.94 144.105 165.94 138.844C164.144 145.266 162.409 146.519 161.099 147.553C161.703 143.938 166.62 137.442 165.709 128.725C165.453 129.999 164.489 135.233 162.951 136.438C162.845 135.728 165.73 128.924 164.707 126.363C164.262 126.473 163.803 126.631 163.336 126.816V126.809C161.946 127.311 160.585 127.845 159.262 128.41C161.342 125.814 163.299 122.934 165.118 119.873C165.113 119.872 165.113 119.871 165.11 119.87C165.406 119.406 165.669 118.946 165.876 118.493C163.306 116.877 155.348 118.597 154.602 118.34C156.217 116.931 162.088 116.956 163.521 116.94C154.253 114.202 146.219 118.165 142.178 118.08C143.564 116.886 145.271 115.278 152.596 114.648C142.962 112.854 133.389 115.821 126.704 119.459C127.491 117.254 127.998 116.611 129.707 114.543C126.32 116.11 123.043 119.423 120.545 122.545C118.046 119.423 114.765 116.11 111.38 114.543C113.089 116.611 113.597 117.254 114.383 119.459C107.697 115.821 98.126 112.854 88.4898 114.648C95.8151 115.278 97.5235 116.886 98.9105 118.08C94.8689 118.165 86.8336 114.202 77.5667 116.94C78.9994 116.956 84.8686 116.931 86.4855 118.34C85.7372 118.597 77.7796 116.877 75.2111 118.493C75.4176 118.946 75.6816 119.406 75.9775 119.87C75.9754 119.871 75.9733 119.872 75.9701 119.873C77.7881 122.934 79.7456 125.814 81.8244 128.41C80.5013 127.845 79.141 127.311 77.7519 126.809C77.7508 126.811 77.7508 126.813 77.7508 126.816C77.2825 126.631 76.8248 126.473 76.382 126.363C75.358 128.924 78.2415 135.728 78.1362 136.438C76.597 135.233 75.6337 129.999 75.3761 128.725C74.4682 137.442 79.3847 143.938 79.9861 147.553C78.679 146.519 76.944 145.266 75.1462 138.844C75.1462 144.603 76.944 150.002 79.405 154.545C73.788 164.888 70.5 176.727 70.5 187.99C70.5 217.578 93.1935 215.923 121.188 215.923C149.183 215.923 171.877 217.578 171.877 187.99C171.877 176.289 168.327 163.969 162.306 153.347Z" fill="white"/>
<ellipse opacity="0.9" cx="122.653" cy="176.923" rx="52.5674" ry="32.5634" fill="url(#paint0_radial_36209_95714)"/>
<path d="M167.604 186.682C167.604 191.938 163.321 196.2 158.036 196.2H85.2243C79.9395 196.2 75.6562 191.938 75.6562 186.682C75.6562 181.426 79.9395 177.164 85.2243 177.164H158.036C163.321 177.164 167.604 181.426 167.604 186.682Z" fill="white"/>
<path d="M117.562 152.449C117.562 161.352 110.31 168.57 101.36 168.57C92.4092 168.57 85.1551 161.352 85.1551 152.449C85.1551 143.546 92.4092 136.328 101.36 136.328C110.31 136.328 117.562 143.546 117.562 152.449Z" fill="#DA4854"/>
<path fill-rule="evenodd" clip-rule="evenodd" d="M116.507 152.444C116.507 160.77 109.722 167.52 101.351 167.52C92.9808 167.52 86.1953 160.77 86.1953 152.444C86.1953 144.117 92.9808 137.367 101.351 137.367C109.722 137.367 116.507 144.117 116.507 152.444Z" fill="url(#paint1_radial_36209_95714)"/>
<path fill-rule="evenodd" clip-rule="evenodd" d="M109.51 152.446C109.51 156.926 105.859 160.557 101.356 160.557C96.8535 160.557 93.2031 156.926 93.2031 152.446C93.2031 147.967 96.8535 144.336 101.356 144.336C105.859 144.336 109.51 147.967 109.51 152.446Z" fill="url(#paint2_radial_36209_95714)"/>
<path d="M105.172 152.448C105.172 154.544 103.465 156.242 101.359 156.242C99.2516 156.242 97.5442 154.544 97.5442 152.448C97.5442 150.353 99.2516 148.655 101.359 148.655C103.465 148.655 105.172 150.353 105.172 152.448Z" fill="#2E2A49"/>
<ellipse cx="101.351" cy="148.456" rx="4.5382" ry="3.48757" fill="url(#paint3_radial_36209_95714)"/>
<path d="M157.219 152.448C157.219 161.352 149.966 168.57 141.013 168.57C132.063 168.57 124.809 161.352 124.809 152.448C124.809 143.545 132.063 136.327 141.013 136.327C149.966 136.327 157.219 143.545 157.219 152.448Z" fill="#DA4854"/>
<path fill-rule="evenodd" clip-rule="evenodd" d="M156.164 152.452C156.164 160.779 149.378 167.529 141.008 167.529C132.637 167.529 125.852 160.779 125.852 152.452C125.852 144.125 132.637 137.375 141.008 137.375C149.378 137.375 156.164 144.125 156.164 152.452Z" fill="url(#paint4_radial_36209_95714)"/>
<path fill-rule="evenodd" clip-rule="evenodd" d="M149.166 152.446C149.166 156.926 145.516 160.557 141.013 160.557C136.51 160.557 132.859 156.926 132.859 152.446C132.859 147.967 136.51 144.336 141.013 144.336C145.516 144.336 149.166 147.967 149.166 152.446Z" fill="url(#paint5_radial_36209_95714)"/>
<path d="M144.82 152.447C144.82 154.544 143.113 156.242 141.008 156.242C138.901 156.242 137.195 154.544 137.195 152.447C137.195 150.352 138.901 148.653 141.008 148.653C143.113 148.653 144.82 150.352 144.82 152.447Z" fill="#2E2A49"/>
<ellipse cx="141.007" cy="148.456" rx="4.5382" ry="3.48757" fill="url(#paint6_radial_36209_95714)"/>
<path d="M85.2154 176.727C79.9429 176.727 75.6614 181.006 75.6614 186.251C75.6614 191.515 79.9429 195.774 85.2154 195.774H158.04C163.312 195.774 167.594 191.515 167.594 186.251C167.594 181.006 163.312 176.727 158.04 176.727H85.2154Z" fill="url(#paint7_linear_36209_95714)"/>
<path d="M84.5703 176.742V178.328C84.5703 179.763 85.7401 180.929 87.1824 180.929C88.6268 180.929 89.7956 179.763 89.7956 178.328V176.742H84.5703Z" fill="#EDDD9A"/>
<path d="M84.9844 176.742V178.081C84.9844 179.29 85.9711 180.271 87.1877 180.271C88.4054 180.271 89.3922 179.29 89.3922 178.081V176.742H84.9844Z" fill="white"/>
<rect width="5.22526" height="1.53003" transform="matrix(-1 0 0 1 89.7891 176.734)" fill="#E66D28"/>
<path d="M91.4386 176.742C91.4386 176.745 91.4375 176.752 91.4375 176.756V178.328C91.4375 179.763 92.6084 180.929 94.0506 180.929C95.4929 180.929 96.6638 179.763 96.6638 178.328V176.756C96.6638 176.752 96.6627 176.745 96.6627 176.742H91.4386Z" fill="#EDDD9A"/>
<path d="M91.8438 176.742V178.081C91.8438 179.29 92.8294 180.271 94.046 180.271C95.2626 180.271 96.2504 179.29 96.2504 178.081V176.742H91.8438Z" fill="white"/>
<rect width="5.22519" height="1.53003" transform="matrix(-1 0 0 1 96.6641 176.734)" fill="#E66D28"/>
<path d="M98.2969 176.742V178.328C98.2969 179.763 99.4667 180.929 100.911 180.929C102.353 180.929 103.523 179.763 103.523 178.328V176.742H98.2969Z" fill="#EDDD9A"/>
<path d="M98.712 176.742C98.7109 176.745 98.7109 176.75 98.7109 176.754V178.081C98.7109 179.29 99.6977 180.271 100.914 180.271C102.131 180.271 103.118 179.29 103.118 178.081V176.754C103.118 176.75 103.117 176.745 103.117 176.742H98.712Z" fill="white"/>
<rect width="5.22635" height="1.52898" transform="matrix(1 0 0 -1 98.2969 178.266)" fill="#E66D28"/>
<path d="M105.164 176.742V178.328C105.164 179.763 106.334 180.929 107.778 180.929C109.221 180.929 110.39 179.763 110.39 178.328V176.742H105.164Z" fill="#EDDD9A"/>
<path d="M105.57 176.742V178.081C105.57 179.29 106.557 180.271 107.775 180.271C108.991 180.271 109.978 179.29 109.978 178.081V176.742H105.57Z" fill="white"/>
<rect width="5.22628" height="1.52898" transform="matrix(1 0 0 -1 105.164 178.266)" fill="#E66D28"/>
<path d="M112.023 176.742V178.328C112.023 179.763 113.193 180.929 114.636 180.929C116.08 180.929 117.249 179.763 117.249 178.328V176.742H112.023Z" fill="#EDDD9A"/>
<path d="M112.438 176.742V178.081C112.438 179.29 113.424 180.271 114.641 180.271C115.859 180.271 116.845 179.29 116.845 178.081V176.742H112.438Z" fill="white"/>
<rect width="5.22525" height="1.52898" transform="matrix(1 0 0 -1 112.031 178.266)" fill="#E66D28"/>
<path d="M118.893 176.742C118.893 176.745 118.891 176.752 118.891 176.756V178.328C118.891 179.763 120.063 180.929 121.504 180.929C122.949 180.929 124.118 179.763 124.118 178.328V176.742H118.893Z" fill="#EDDD9A"/>
<path d="M119.299 176.742C119.299 176.745 119.297 176.75 119.297 176.754V178.081C119.297 179.29 120.285 180.271 121.5 180.271C122.719 180.271 123.706 179.29 123.706 178.081V176.742H119.299Z" fill="white"/>
<rect width="5.22525" height="1.53003" transform="matrix(-1 0 0 1 124.117 176.734)" fill="#E66D28"/>
<path d="M125.758 176.742V178.328C125.758 179.763 126.928 180.929 128.372 180.929C129.814 180.929 130.985 179.763 130.985 178.328V176.756C130.985 176.752 130.983 176.745 130.983 176.742H125.758Z" fill="#EDDD9A"/>
<path d="M126.174 176.742C126.172 176.745 126.172 176.75 126.172 176.754V178.081C126.172 179.29 127.159 180.271 128.376 180.271C129.593 180.271 130.58 179.29 130.58 178.081V176.742H126.174Z" fill="white"/>
<rect width="5.22729" height="1.52898" transform="matrix(1 0 0 -1 125.758 178.266)" fill="#E66D28"/>
<path d="M132.625 176.742V178.328C132.625 179.763 133.795 180.929 135.237 180.929C136.682 180.929 137.85 179.763 137.85 178.328V176.742H132.625Z" fill="#EDDD9A"/>
<path d="M133.031 176.742V178.081C133.031 179.29 134.018 180.271 135.234 180.271C136.452 180.271 137.439 179.29 137.439 178.081V176.742H133.031Z" fill="white"/>
<rect width="5.22519" height="1.53003" transform="matrix(-1 0 0 1 137.844 176.734)" fill="#E66D28"/>
<path d="M139.492 176.742V178.328C139.492 179.763 140.662 180.929 142.104 180.929C143.55 180.929 144.718 179.763 144.718 178.328V176.742H139.492Z" fill="#EDDD9A"/>
<path d="M139.898 176.742V178.081C139.898 179.29 140.885 180.271 142.101 180.271C143.319 180.271 144.306 179.29 144.306 178.081V176.742H139.898Z" fill="white"/>
<rect width="5.22525" height="1.52898" transform="matrix(1 0 0 -1 139.492 178.266)" fill="#E66D28"/>
<path d="M146.352 176.742V178.328C146.352 179.763 147.521 180.929 148.963 180.929C150.406 180.929 151.577 179.763 151.577 178.328V176.756C151.577 176.752 151.575 176.745 151.575 176.742H146.352Z" fill="#EDDD9A"/>
<path d="M146.758 176.742V178.081C146.758 179.29 147.745 180.271 148.96 180.271C150.177 180.271 151.166 179.29 151.166 178.081V176.754C151.166 176.75 151.163 176.745 151.163 176.742H146.758Z" fill="white"/>
<rect width="5.22525" height="1.53003" transform="matrix(-1 0 0 1 151.57 176.734)" fill="#E66D28"/>
<path d="M153.221 176.742C153.221 176.745 153.219 176.752 153.219 176.756V178.328C153.219 179.763 154.391 180.929 155.833 180.929C157.275 180.929 158.444 179.763 158.444 178.328V176.742H153.221Z" fill="#EDDD9A"/>
<path d="M153.625 176.742V178.081C153.625 179.29 154.611 180.271 155.827 180.271C157.044 180.271 158.03 179.29 158.03 178.081V176.742H153.625Z" fill="white"/>
<rect width="5.22309" height="1.53003" transform="matrix(-1 0 0 1 158.445 176.734)" fill="#E66D28"/>
<path d="M84.6953 195.778V194.194C84.6953 192.757 85.8651 191.594 87.3074 191.594C88.7519 191.594 89.9206 192.757 89.9206 194.194V195.778H84.6953Z" fill="#EDDD9A"/>
<path d="M85.1016 195.771V194.435C85.1016 193.224 86.0883 192.242 87.3049 192.242C88.5226 192.242 89.5093 193.224 89.5093 194.435V195.771H85.1016Z" fill="white"/>
<rect width="5.22526" height="1.53004" transform="matrix(-1 0 0 1 89.9219 194.242)" fill="#E66D28"/>
<path d="M91.5558 195.778C91.5558 195.775 91.5547 195.771 91.5547 195.767V194.194C91.5547 192.757 92.7256 191.594 94.1679 191.594C95.6112 191.594 96.781 192.757 96.781 194.194V195.778H91.5558Z" fill="#EDDD9A"/>
<path d="M91.9766 195.771V194.435C91.9766 193.224 92.9622 192.242 94.1788 192.242C95.3965 192.242 96.3832 193.224 96.3832 194.435V195.762C96.3832 195.764 96.3811 195.768 96.3811 195.771H91.9766Z" fill="white"/>
<rect width="5.22526" height="1.53003" transform="matrix(1 0 0 -1 91.5625 195.773)" fill="#E66D28"/>
<path d="M98.4229 195.778C98.4229 195.775 98.4219 195.771 98.4219 195.767V194.194C98.4219 192.757 99.5927 191.594 101.036 191.594C102.478 191.594 103.649 192.757 103.649 194.194V195.767C103.649 195.771 103.648 195.775 103.648 195.778H98.4229Z" fill="#EDDD9A"/>
<path d="M98.8292 195.771C98.8281 195.768 98.8281 195.764 98.8281 195.762V194.435C98.8281 193.224 99.8159 192.242 101.031 192.242C102.248 192.242 103.236 193.224 103.236 194.435V195.762C103.236 195.764 103.235 195.768 103.235 195.771H98.8292Z" fill="white"/>
<rect width="5.22628" height="1.53004" transform="matrix(-1 0 0 1 103.656 194.242)" fill="#E66D28"/>
<path d="M105.281 195.778V194.194C105.281 192.757 106.453 191.594 107.895 191.594C109.339 191.594 110.508 192.757 110.508 194.194V195.778H105.281Z" fill="#EDDD9A"/>
<path d="M105.696 195.771C105.695 195.768 105.695 195.764 105.695 195.762V194.435C105.695 193.224 106.683 192.242 107.9 192.242C109.116 192.242 110.103 193.224 110.103 194.435V195.771H105.696Z" fill="white"/>
<rect width="5.2252" height="1.53003" transform="matrix(1 0 0 -1 105.289 195.773)" fill="#E66D28"/>
<path d="M112.156 195.778V194.194C112.156 192.757 113.326 191.594 114.768 191.594C116.213 191.594 117.382 192.757 117.382 194.194V195.778H112.156Z" fill="#EDDD9A"/>
<path d="M112.562 195.771V194.435C112.562 193.224 113.549 192.242 114.766 192.242C115.984 192.242 116.97 193.224 116.97 194.435V195.771H112.562Z" fill="white"/>
<rect width="5.22526" height="1.53004" transform="matrix(-1 0 0 1 117.383 194.242)" fill="#E66D28"/>
<path d="M119.016 195.778V194.194C119.016 192.757 120.185 191.594 121.627 191.594C123.07 191.594 124.241 192.757 124.241 194.194V195.778H119.016Z" fill="#EDDD9A"/>
<path d="M119.43 195.771V194.435C119.43 193.224 120.416 192.242 121.631 192.242C122.849 192.242 123.836 193.224 123.836 194.435V195.762C123.836 195.764 123.834 195.768 123.834 195.771H119.43Z" fill="white"/>
<rect width="5.22519" height="1.53004" transform="matrix(-1 0 0 1 124.242 194.242)" fill="#E66D28"/>
<path d="M125.885 195.778C125.885 195.775 125.883 195.771 125.883 195.767V194.194C125.883 192.757 127.055 191.594 128.497 191.594C129.939 191.594 131.108 192.757 131.108 194.194V195.778H125.885Z" fill="#EDDD9A"/>
<path d="M126.291 195.771C126.291 195.768 126.289 195.764 126.289 195.762V194.435C126.289 193.224 127.278 192.242 128.493 192.242C129.71 192.242 130.697 193.224 130.697 194.435V195.771H126.291Z" fill="white"/>
<rect width="5.22309" height="1.53004" transform="matrix(-1 0 0 1 131.109 194.242)" fill="#E66D28"/>
<path d="M132.75 195.778V194.194C132.75 192.757 133.92 191.594 135.364 191.594C136.808 191.594 137.976 192.757 137.976 194.194V195.778H132.75Z" fill="#EDDD9A"/>
<path d="M133.158 195.771C133.158 195.768 133.156 195.764 133.156 195.762V194.435C133.156 193.224 134.145 192.242 135.361 192.242C136.577 192.242 137.564 193.224 137.564 194.435V195.771H133.158Z" fill="white"/>
<rect width="5.22526" height="1.53003" transform="matrix(1 0 0 -1 132.75 195.773)" fill="#E66D28"/>
<path d="M139.609 195.778V194.194C139.609 192.757 140.779 191.594 142.223 191.594C143.666 191.594 144.835 192.757 144.835 194.194V195.778H139.609Z" fill="#EDDD9A"/>
<path d="M140.016 195.771V194.435C140.016 193.224 141.002 192.242 142.22 192.242C143.437 192.242 144.423 193.224 144.423 194.435V195.771H140.016Z" fill="white"/>
<rect width="5.22533" height="1.53004" transform="matrix(-1 0 0 1 144.836 194.242)" fill="#E66D28"/>
<path d="M146.479 195.778C146.479 195.775 146.477 195.771 146.477 195.767V194.194C146.477 192.757 147.649 191.594 149.091 191.594C150.535 191.594 151.704 192.757 151.704 194.194V195.778H146.479Z" fill="#EDDD9A"/>
<path d="M146.883 195.771V194.435C146.883 193.224 147.87 192.242 149.086 192.242C150.304 192.242 151.291 193.224 151.291 194.435V195.771H146.883Z" fill="white"/>
<rect width="5.22519" height="1.53004" transform="matrix(-1 0 0 1 151.695 194.242)" fill="#E66D28"/>
<path d="M153.336 195.778V194.194C153.336 192.757 154.506 191.594 155.95 191.594C157.392 191.594 158.563 192.757 158.563 194.194V195.778H153.336Z" fill="#EDDD9A"/>
<path d="M153.752 195.771C153.75 195.768 153.75 195.764 153.75 195.762V194.435C153.75 193.224 154.738 192.242 155.954 192.242C157.171 192.242 158.159 193.224 158.159 194.435V195.762C158.159 195.764 158.157 195.768 158.157 195.771H153.752Z" fill="white"/>
<rect width="5.22736" height="1.53003" transform="matrix(1 0 0 -1 153.336 195.773)" fill="#E66D28"/>
<path d="M134.666 128.332C134.596 130.237 136.109 131.742 138.047 131.93C139.56 132.095 142.303 131.248 145.542 130.401C149.537 129.367 154.289 128.332 158.308 129.179C147.433 124.593 140.222 125.039 138.284 124.969C138.26 124.969 138.213 124.969 138.165 124.969C136.298 124.969 134.737 126.451 134.666 128.332Z" fill="url(#paint8_linear_36209_95714)"/>
<path d="M104.076 124.969C102.137 125.04 94.9264 124.593 84.0513 129.179C88.0704 128.332 92.8223 129.367 96.8178 130.402C100.057 131.248 102.799 132.095 104.312 131.93C106.251 131.742 107.764 130.237 107.693 128.332C107.622 126.451 106.062 124.969 104.194 124.969C104.147 124.969 104.099 124.969 104.076 124.969Z" fill="url(#paint9_linear_36209_95714)"/>
</g>
<rect x="0.273438" y="0.351562" width="243.273" height="94.9092" rx="7.7576" fill="#22499C"/>
<path d="M19.2616 35.1473C18.1911 35.1473 17.2292 34.9611 16.3758 34.5887C15.538 34.2009 14.8786 33.6733 14.3976 33.0062C13.9167 32.3235 13.6684 31.54 13.6529 30.6556H15.9104C15.9879 31.4159 16.2982 32.0598 16.8413 32.5873C17.3998 33.0993 18.2066 33.3553 19.2616 33.3553C20.2701 33.3553 21.0614 33.107 21.6355 32.6105C22.2251 32.0985 22.5198 31.4469 22.5198 30.6556C22.5198 30.035 22.3492 29.5308 22.0078 29.1429C21.6665 28.755 21.2398 28.4602 20.7278 28.2585C20.2158 28.0568 19.5254 27.8396 18.6566 27.6069C17.586 27.3276 16.7249 27.0483 16.0733 26.7691C15.4372 26.4898 14.8864 26.0554 14.4209 25.4658C13.971 24.8607 13.746 24.0539 13.746 23.0454C13.746 22.1611 13.971 21.3775 14.4209 20.6949C14.8708 20.0122 15.4992 19.4847 16.306 19.1123C17.1283 18.74 18.067 18.5538 19.122 18.5538C20.6425 18.5538 21.8837 18.9339 22.8457 19.6941C23.8231 20.4544 24.3739 21.4629 24.498 22.7196H22.1707C22.0932 22.099 21.7674 21.556 21.1933 21.0905C20.6192 20.6095 19.859 20.3691 18.9126 20.3691C18.0282 20.3691 17.3067 20.6018 16.7482 21.0672C16.1896 21.5172 15.9104 22.1533 15.9104 22.9756C15.9104 23.5652 16.0733 24.0462 16.3991 24.4185C16.7404 24.7909 17.1516 25.0779 17.6326 25.2796C18.129 25.4658 18.8195 25.683 19.7038 25.9313C20.7744 26.226 21.6355 26.5208 22.2871 26.8156C22.9388 27.0949 23.4973 27.5371 23.9628 28.1422C24.4282 28.7317 24.6609 29.5385 24.6609 30.5625C24.6609 31.3538 24.4515 32.0985 24.0326 32.7967C23.6137 33.4949 22.9931 34.0612 22.1707 34.4956C21.3484 34.9301 20.3787 35.1473 19.2616 35.1473ZM26.9862 28.5611C26.9862 27.2578 27.25 26.1174 27.7775 25.14C28.305 24.147 29.0265 23.379 29.9419 22.836C30.8728 22.2929 31.9045 22.0214 33.0371 22.0214C34.1542 22.0214 35.1239 22.2619 35.9462 22.7429C36.7686 23.2239 37.3814 23.8289 37.7848 24.5582V22.2309H39.9259V34.9844H37.7848V32.6105C37.3659 33.3553 36.7375 33.9759 35.8997 34.4724C35.0774 34.9533 34.1155 35.1938 33.0139 35.1938C31.8813 35.1938 30.8573 34.9146 29.9419 34.356C29.0265 33.7975 28.305 33.0139 27.7775 32.0055C27.25 30.997 26.9862 29.8488 26.9862 28.5611ZM37.7848 28.5844C37.7848 27.6224 37.5909 26.7846 37.203 26.0709C36.8151 25.3572 36.2876 24.8142 35.6204 24.4418C34.9688 24.0539 34.2473 23.86 33.4561 23.86C32.6648 23.86 31.9433 24.0462 31.2917 24.4185C30.64 24.7909 30.1203 25.3339 29.7324 26.0476C29.3445 26.7613 29.1506 27.5991 29.1506 28.5611C29.1506 29.5385 29.3445 30.3919 29.7324 31.1211C30.1203 31.8348 30.64 32.3856 31.2917 32.7735C31.9433 33.1458 32.6648 33.332 33.4561 33.332C34.2473 33.332 34.9688 33.1458 35.6204 32.7735C36.2876 32.3856 36.8151 31.8348 37.203 31.1211C37.5909 30.3919 37.7848 29.5463 37.7848 28.5844ZM58.8416 21.9982C59.8346 21.9982 60.7189 22.2076 61.4947 22.6265C62.2705 23.0299 62.8833 23.6428 63.3332 24.4651C63.7832 25.2874 64.0082 26.2881 64.0082 27.4673V34.9844H61.9136V27.7698C61.9136 26.4976 61.5955 25.5279 60.9594 24.8607C60.3388 24.178 59.4932 23.8367 58.4227 23.8367C57.3211 23.8367 56.4445 24.1936 55.7929 24.9073C55.1412 25.6054 54.8154 26.6217 54.8154 27.956V34.9844H52.7208V27.7698C52.7208 26.4976 52.4028 25.5279 51.7667 24.8607C51.1461 24.178 50.3005 23.8367 49.2299 23.8367C48.1283 23.8367 47.2517 24.1936 46.6001 24.9073C45.9485 25.6054 45.6226 26.6217 45.6226 27.956V34.9844H43.5048V22.2309H45.6226V24.0694C46.0416 23.4023 46.6001 22.8903 47.2983 22.5334C48.012 22.1766 48.7955 21.9982 49.6488 21.9982C50.7194 21.9982 51.6658 22.2386 52.4881 22.7196C53.3104 23.2006 53.9233 23.9065 54.3267 24.8374C54.6835 23.9376 55.2731 23.2394 56.0954 22.7429C56.9177 22.2464 57.8331 21.9982 58.8416 21.9982ZM69.6 24.5814C70.0189 23.8522 70.6395 23.2471 71.4618 22.7662C72.2996 22.2697 73.2693 22.0214 74.3709 22.0214C75.5035 22.0214 76.5275 22.2929 77.4429 22.836C78.3738 23.379 79.103 24.147 79.6306 25.14C80.1581 26.1174 80.4218 27.2578 80.4218 28.5611C80.4218 29.8488 80.1581 30.997 79.6306 32.0055C79.103 33.0139 78.3738 33.7975 77.4429 34.356C76.5275 34.9146 75.5035 35.1938 74.3709 35.1938C73.2848 35.1938 72.3229 34.9533 71.4851 34.4724C70.6628 33.9759 70.0344 33.363 69.6 32.6338V41.0353H67.4822V22.2309H69.6V24.5814ZM78.2575 28.5611C78.2575 27.5991 78.0635 26.7613 77.6757 26.0476C77.2878 25.3339 76.7603 24.7909 76.0931 24.4185C75.4415 24.0462 74.72 23.86 73.9287 23.86C73.153 23.86 72.4315 24.0539 71.7644 24.4418C71.1127 24.8142 70.5852 25.365 70.1818 26.0942C69.7939 26.8079 69.6 27.6379 69.6 28.5844C69.6 29.5463 69.7939 30.3919 70.1818 31.1211C70.5852 31.8348 71.1127 32.3856 71.7644 32.7735C72.4315 33.1458 73.153 33.332 73.9287 33.332C74.72 33.332 75.4415 33.1458 76.0931 32.7735C76.7603 32.3856 77.2878 31.8348 77.6757 31.1211C78.0635 30.3919 78.2575 29.5385 78.2575 28.5611ZM85.3273 17.7625V34.9844H83.2095V17.7625H85.3273ZM100.573 28.1189C100.573 28.5223 100.55 28.949 100.503 29.3989H90.3099C90.3875 30.6556 90.8141 31.6408 91.5899 32.3545C92.3812 33.0527 93.3353 33.4018 94.4524 33.4018C95.3678 33.4018 96.1281 33.1924 96.7332 32.7735C97.3538 32.339 97.7882 31.765 98.0364 31.0513H100.317C99.9758 32.277 99.2932 33.2777 98.2692 34.0535C97.2452 34.8137 95.9729 35.1938 94.4524 35.1938C93.2422 35.1938 92.1562 34.9223 91.1942 34.3793C90.2478 33.8363 89.5031 33.0682 88.9601 32.0753C88.417 31.0668 88.1455 29.9031 88.1455 28.5844C88.1455 27.2656 88.4093 26.1097 88.9368 25.1167C89.4643 24.1237 90.2013 23.3635 91.1477 22.836C92.1096 22.2929 93.2112 22.0214 94.4524 22.0214C95.6626 22.0214 96.7332 22.2852 97.6641 22.8127C98.595 23.3402 99.3087 24.0694 99.8052 25.0003C100.317 25.9157 100.573 26.9553 100.573 28.1189ZM98.3855 27.6767C98.3855 26.8699 98.2071 26.1795 97.8503 25.6054C97.4934 25.0159 97.0047 24.5737 96.3841 24.2789C95.779 23.9686 95.1041 23.8134 94.3593 23.8134C93.2888 23.8134 92.3734 24.1548 91.6132 24.8374C90.8684 25.5201 90.4418 26.4665 90.3331 27.6767H98.3855ZM122.583 38.0564L119.348 34.8215C118.557 35.0387 117.75 35.1473 116.927 35.1473C115.422 35.1473 114.049 34.7982 112.808 34.1C111.567 33.3863 110.582 32.4011 109.852 31.1444C109.139 29.8721 108.782 28.4447 108.782 26.8622C108.782 25.2796 109.139 23.86 109.852 22.6032C110.582 21.331 111.567 20.3458 112.808 19.6476C114.049 18.9339 115.422 18.577 116.927 18.577C118.448 18.577 119.829 18.9339 121.07 19.6476C122.311 20.3458 123.289 21.3232 124.002 22.58C124.716 23.8367 125.073 25.2641 125.073 26.8622C125.073 28.4137 124.732 29.8101 124.049 31.0513C123.366 32.2925 122.428 33.2699 121.233 33.9836L125.329 38.0564H122.583ZM110.946 26.8622C110.946 28.1499 111.202 29.2825 111.714 30.26C112.242 31.2375 112.956 31.9899 113.855 32.5175C114.771 33.045 115.795 33.3087 116.927 33.3087C118.06 33.3087 119.076 33.045 119.976 32.5175C120.892 31.9899 121.605 31.2375 122.117 30.26C122.645 29.2825 122.909 28.1499 122.909 26.8622C122.909 25.5589 122.645 24.4263 122.117 23.4643C121.605 22.4869 120.899 21.7344 119.999 21.2069C119.1 20.6794 118.076 20.4156 116.927 20.4156C115.779 20.4156 114.755 20.6794 113.855 21.2069C112.956 21.7344 112.242 22.4869 111.714 23.4643C111.202 24.4263 110.946 25.5589 110.946 26.8622ZM139.225 22.2309V34.9844H137.107V33.0993C136.704 33.7509 136.137 34.2629 135.408 34.6353C134.694 34.9921 133.903 35.1706 133.034 35.1706C132.041 35.1706 131.149 34.9689 130.358 34.5655C129.567 34.1466 128.938 33.5259 128.473 32.7036C128.023 31.8813 127.798 30.8806 127.798 29.7014V22.2309H129.892V29.4222C129.892 30.6789 130.21 31.6486 130.847 32.3313C131.483 32.9984 132.352 33.332 133.453 33.332C134.586 33.332 135.478 32.9829 136.129 32.2847C136.781 31.5865 137.107 30.5703 137.107 29.236V22.2309H139.225ZM154.437 28.1189C154.437 28.5223 154.414 28.949 154.367 29.3989H144.174C144.251 30.6556 144.678 31.6408 145.454 32.3545C146.245 33.0527 147.199 33.4018 148.316 33.4018C149.232 33.4018 149.992 33.1924 150.597 32.7735C151.218 32.339 151.652 31.765 151.9 31.0513H154.181C153.84 32.277 153.157 33.2777 152.133 34.0535C151.109 34.8137 149.837 35.1938 148.316 35.1938C147.106 35.1938 146.02 34.9223 145.058 34.3793C144.112 33.8363 143.367 33.0682 142.824 32.0753C142.281 31.0668 142.009 29.9031 142.009 28.5844C142.009 27.2656 142.273 26.1097 142.801 25.1167C143.328 24.1237 144.065 23.3635 145.011 22.836C145.973 22.2929 147.075 22.0214 148.316 22.0214C149.526 22.0214 150.597 22.2852 151.528 22.8127C152.459 23.3402 153.172 24.0694 153.669 25.0003C154.181 25.9157 154.437 26.9553 154.437 28.1189ZM152.249 27.6767C152.249 26.8699 152.071 26.1795 151.714 25.6054C151.357 25.0159 150.868 24.5737 150.248 24.2789C149.643 23.9686 148.968 23.8134 148.223 23.8134C147.153 23.8134 146.237 24.1548 145.477 24.8374C144.732 25.5201 144.306 26.4665 144.197 27.6767H152.249ZM161.747 35.1938C160.77 35.1938 159.893 35.0309 159.118 34.7051C158.342 34.3638 157.729 33.8983 157.279 33.3087C156.829 32.7036 156.581 32.0132 156.534 31.2375H158.722C158.784 31.8736 159.079 32.3933 159.606 32.7967C160.149 33.2001 160.855 33.4018 161.724 33.4018C162.531 33.4018 163.167 33.2234 163.632 32.8666C164.098 32.5097 164.331 32.0598 164.331 31.5167C164.331 30.9582 164.082 30.547 163.586 30.2833C163.089 30.004 162.321 29.7325 161.282 29.4687C160.335 29.2205 159.56 28.9722 158.955 28.724C158.365 28.4602 157.853 28.0801 157.419 27.5836C157 27.0716 156.79 26.4045 156.79 25.5822C156.79 24.9305 156.984 24.3332 157.372 23.7902C157.76 23.2471 158.311 22.8205 159.024 22.5102C159.738 22.1843 160.553 22.0214 161.468 22.0214C162.88 22.0214 164.02 22.3783 164.889 23.092C165.758 23.8057 166.224 24.7831 166.286 26.0243H164.168C164.121 25.3572 163.85 24.8219 163.353 24.4185C162.872 24.0151 162.221 23.8134 161.398 23.8134C160.638 23.8134 160.033 23.9763 159.583 24.3022C159.133 24.628 158.908 25.0546 158.908 25.5822C158.908 26.0011 159.04 26.3502 159.304 26.6294C159.583 26.8932 159.924 27.1104 160.328 27.2811C160.747 27.4362 161.321 27.6147 162.05 27.8164C162.965 28.0646 163.71 28.3128 164.284 28.5611C164.858 28.7938 165.347 29.1507 165.75 29.6316C166.169 30.1126 166.386 30.741 166.402 31.5167C166.402 32.2149 166.208 32.8433 165.82 33.4018C165.432 33.9604 164.881 34.4026 164.168 34.7284C163.47 35.0387 162.663 35.1938 161.747 35.1938ZM171.975 23.9763V31.4935C171.975 32.1141 172.107 32.5562 172.371 32.82C172.634 33.0682 173.092 33.1924 173.744 33.1924H175.303V34.9844H173.395C172.215 34.9844 171.331 34.7129 170.741 34.1698C170.152 33.6268 169.857 32.7347 169.857 31.4935V23.9763H168.205V22.2309H169.857V19.0192H171.975V22.2309H175.303V23.9763H171.975ZM178.963 20.1596C178.559 20.1596 178.218 20.02 177.939 19.7407C177.659 19.4614 177.52 19.1201 177.52 18.7167C177.52 18.3133 177.659 17.972 177.939 17.6927C178.218 17.4134 178.559 17.2738 178.963 17.2738C179.351 17.2738 179.676 17.4134 179.94 17.6927C180.219 17.972 180.359 18.3133 180.359 18.7167C180.359 19.1201 180.219 19.4614 179.94 19.7407C179.676 20.02 179.351 20.1596 178.963 20.1596ZM179.987 22.2309V34.9844H177.869V22.2309H179.987ZM189.158 35.1938C187.964 35.1938 186.878 34.9223 185.9 34.3793C184.938 33.8363 184.178 33.0682 183.619 32.0753C183.076 31.0668 182.805 29.9031 182.805 28.5844C182.805 27.2811 183.084 26.133 183.643 25.14C184.217 24.1315 184.993 23.3635 185.97 22.836C186.947 22.2929 188.041 22.0214 189.251 22.0214C190.462 22.0214 191.555 22.2929 192.533 22.836C193.51 23.3635 194.278 24.1237 194.837 25.1167C195.411 26.1097 195.698 27.2656 195.698 28.5844C195.698 29.9031 195.403 31.0668 194.814 32.0753C194.24 33.0682 193.456 33.8363 192.463 34.3793C191.47 34.9223 190.369 35.1938 189.158 35.1938ZM189.158 33.332C189.919 33.332 190.632 33.1536 191.299 32.7967C191.967 32.4399 192.502 31.9046 192.905 31.1909C193.324 30.4772 193.534 29.6084 193.534 28.5844C193.534 27.5604 193.332 26.6915 192.929 25.9778C192.525 25.2641 191.998 24.7366 191.346 24.3953C190.694 24.0384 189.988 23.86 189.228 23.86C188.452 23.86 187.739 24.0384 187.087 24.3953C186.451 24.7366 185.939 25.2641 185.551 25.9778C185.163 26.6915 184.969 27.5604 184.969 28.5844C184.969 29.6239 185.155 30.5005 185.528 31.2142C185.916 31.9279 186.428 32.4632 187.064 32.82C187.7 33.1613 188.398 33.332 189.158 33.332ZM204.696 21.9982C206.248 21.9982 207.505 22.4714 208.467 23.4178C209.429 24.3487 209.91 25.6985 209.91 27.4673V34.9844H207.815V27.7698C207.815 26.4976 207.497 25.5279 206.861 24.8607C206.225 24.178 205.356 23.8367 204.254 23.8367C203.137 23.8367 202.245 24.1858 201.578 24.884C200.926 25.5822 200.6 26.5984 200.6 27.9327V34.9844H198.483V22.2309H200.6V24.0462C201.019 23.3945 201.586 22.8903 202.299 22.5334C203.029 22.1766 203.828 21.9982 204.696 21.9982ZM219.178 22.3938C219.287 20.9664 219.837 19.8493 220.83 19.0425C221.823 18.2357 223.111 17.8323 224.694 17.8323C225.749 17.8323 226.656 18.0263 227.416 18.4141C228.192 18.7865 228.774 19.2985 229.162 19.9501C229.565 20.6018 229.767 21.3388 229.767 22.1611C229.767 23.123 229.488 23.9531 228.929 24.6513C228.386 25.3494 227.672 25.7994 226.788 26.0011V26.1174C227.797 26.3657 228.596 26.8544 229.185 27.5836C229.775 28.3128 230.07 29.267 230.07 30.4462C230.07 31.3305 229.868 32.1296 229.465 32.8433C229.061 33.5415 228.456 34.0923 227.649 34.4956C226.842 34.899 225.873 35.1007 224.74 35.1007C223.096 35.1007 221.746 34.6741 220.691 33.8207C219.636 32.9519 219.046 31.7262 218.922 30.1436H220.97C221.079 31.0745 221.459 31.8348 222.11 32.4244C222.762 33.0139 223.631 33.3087 224.717 33.3087C225.803 33.3087 226.625 33.0295 227.184 32.4709C227.758 31.8968 228.045 31.1599 228.045 30.26C228.045 29.0964 227.657 28.2585 226.881 27.7465C226.105 27.2345 224.934 26.9785 223.367 26.9785H222.832V25.2098H223.39C224.818 25.1943 225.896 24.9616 226.625 24.5116C227.354 24.0462 227.719 23.3325 227.719 22.3705C227.719 21.5482 227.448 20.8888 226.904 20.3923C226.377 19.8958 225.617 19.6476 224.624 19.6476C223.662 19.6476 222.886 19.8958 222.296 20.3923C221.707 20.8888 221.358 21.556 221.249 22.3938H219.178Z" fill="white"/>
<path d="M87.8991 68.2468C88.8455 68.4485 89.6057 68.9217 90.1798 69.6664C90.7538 70.3956 91.0409 71.2335 91.0409 72.1799C91.0409 73.5452 90.5599 74.6313 89.598 75.4381C88.6515 76.2294 87.325 76.625 85.6183 76.625H78.0081V60.2875H85.3623C87.0224 60.2875 88.318 60.6676 89.2489 61.4279C90.1953 62.1881 90.6685 63.2199 90.6685 64.5231C90.6685 65.4851 90.4125 66.2841 89.9005 66.9202C89.404 67.5564 88.7369 67.9985 87.8991 68.2468ZM81.9878 66.897H84.5943C85.246 66.897 85.7424 66.7573 86.0838 66.4781C86.4406 66.1833 86.619 65.7566 86.619 65.1981C86.619 64.6395 86.4406 64.2128 86.0838 63.9181C85.7424 63.6233 85.246 63.4759 84.5943 63.4759H81.9878V66.897ZM84.9201 73.4134C85.5873 73.4134 86.0993 73.266 86.4561 72.9712C86.8285 72.6609 87.0147 72.2187 87.0147 71.6446C87.0147 71.0706 86.8207 70.6206 86.4329 70.2948C86.0605 69.969 85.5407 69.8061 84.8736 69.8061H81.9878V73.4134H84.9201ZM105.591 69.9224C105.591 70.2948 105.567 70.6827 105.521 71.0861H96.5142C96.5762 71.8929 96.8322 72.5135 97.2822 72.9479C97.7476 73.3668 98.3139 73.5763 98.9811 73.5763C99.9741 73.5763 100.664 73.1574 101.052 72.3195H105.288C105.071 73.1729 104.675 73.9409 104.101 74.6235C103.543 75.3062 102.837 75.8415 101.983 76.2294C101.13 76.6172 100.176 76.8112 99.1207 76.8112C97.8485 76.8112 96.7159 76.5397 95.7229 75.9966C94.7299 75.4536 93.9542 74.6778 93.3956 73.6694C92.8371 72.6609 92.5578 71.4817 92.5578 70.1319C92.5578 68.7821 92.8293 67.6029 93.3723 66.5944C93.9309 65.5859 94.7066 64.8102 95.6996 64.2671C96.6926 63.7241 97.833 63.4526 99.1207 63.4526C100.377 63.4526 101.495 63.7164 102.472 64.2439C103.449 64.7714 104.21 65.5239 104.753 66.5013C105.311 67.4788 105.591 68.6192 105.591 69.9224ZM101.518 68.8752C101.518 68.1925 101.285 67.6495 100.82 67.2461C100.354 66.8427 99.7724 66.641 99.0742 66.641C98.407 66.641 97.8407 66.8349 97.3753 67.2228C96.9253 67.6107 96.646 68.1615 96.5374 68.8752H101.518ZM120.956 63.6388L112.81 82.7923H108.528L111.507 76.1828L106.224 63.6388H110.669L113.671 71.761L116.65 63.6388H120.956ZM128.306 76.8112C127.034 76.8112 125.886 76.5397 124.862 75.9966C123.853 75.4536 123.054 74.6778 122.464 73.6694C121.89 72.6609 121.603 71.4817 121.603 70.1319C121.603 68.7976 121.898 67.6262 122.488 66.6177C123.077 65.5937 123.884 64.8102 124.908 64.2671C125.932 63.7241 127.08 63.4526 128.352 63.4526C129.625 63.4526 130.773 63.7241 131.797 64.2671C132.821 64.8102 133.628 65.5937 134.217 66.6177C134.807 67.6262 135.102 68.7976 135.102 70.1319C135.102 71.4662 134.799 72.6454 134.194 73.6694C133.604 74.6778 132.79 75.4536 131.75 75.9966C130.726 76.5397 129.578 76.8112 128.306 76.8112ZM128.306 73.3668C129.066 73.3668 129.71 73.0875 130.238 72.529C130.781 71.9704 131.052 71.1714 131.052 70.1319C131.052 69.0924 130.788 68.2933 130.261 67.7348C129.749 67.1762 129.113 66.897 128.352 66.897C127.577 66.897 126.933 67.1762 126.421 67.7348C125.909 68.2778 125.653 69.0769 125.653 70.1319C125.653 71.1714 125.901 71.9704 126.398 72.529C126.91 73.0875 127.546 73.3668 128.306 73.3668ZM145.126 63.4991C146.646 63.4991 147.856 63.9956 148.756 64.9886C149.672 65.9661 150.129 67.3159 150.129 69.0381V76.625H146.173V69.5733C146.173 68.7045 145.948 68.0296 145.498 67.5486C145.048 67.0676 144.443 66.8272 143.683 66.8272C142.922 66.8272 142.317 67.0676 141.867 67.5486C141.417 68.0296 141.192 68.7045 141.192 69.5733V76.625H137.213V63.6388H141.192V65.361C141.596 64.7869 142.139 64.337 142.822 64.0111C143.504 63.6698 144.272 63.4991 145.126 63.4991ZM152.103 70.1086C152.103 68.7743 152.352 67.6029 152.848 66.5944C153.36 65.5859 154.051 64.8102 154.919 64.2671C155.788 63.7241 156.758 63.4526 157.829 63.4526C158.682 63.4526 159.458 63.631 160.156 63.9879C160.87 64.3447 161.428 64.8257 161.831 65.4308V59.4031H165.811V76.625H161.831V74.7632C161.459 75.3838 160.924 75.8803 160.226 76.2526C159.543 76.625 158.744 76.8112 157.829 76.8112C156.758 76.8112 155.788 76.5397 154.919 75.9966C154.051 75.4381 153.36 74.6546 152.848 73.6461C152.352 72.6221 152.103 71.4429 152.103 70.1086ZM161.831 70.1319C161.831 69.1389 161.552 68.3554 160.994 67.7813C160.451 67.2073 159.783 66.9202 158.992 66.9202C158.201 66.9202 157.526 67.2073 156.967 67.7813C156.424 68.3399 156.153 69.1156 156.153 70.1086C156.153 71.1016 156.424 71.8929 156.967 72.4824C157.526 73.0565 158.201 73.3435 158.992 73.3435C159.783 73.3435 160.451 73.0565 160.994 72.4824C161.552 71.9084 161.831 71.1249 161.831 70.1319Z" fill="white"/>
<defs>
<radialGradient id="paint0_radial_36209_95714" cx="0" cy="0" r="1" gradientUnits="userSpaceOnUse" gradientTransform="translate(122.653 176.923) rotate(90) scale(32.5001 52.5674)">
<stop stop-color="white" stop-opacity="0.85"/>
<stop offset="0.40414" stop-color="white" stop-opacity="0.36"/>
<stop offset="0.681066" stop-color="#EC8F3A" stop-opacity="0.24"/>
<stop offset="1" stop-color="#EC8F3A" stop-opacity="0"/>
</radialGradient>
<radialGradient id="paint1_radial_36209_95714" cx="0" cy="0" r="1" gradientUnits="userSpaceOnUse" gradientTransform="translate(101.35 152.444) scale(15.1559 15.0765)">
<stop stop-color="white"/>
<stop offset="0.56" stop-color="white"/>
<stop offset="0.97" stop-color="#D6D6D6"/>
<stop offset="1" stop-color="#C6C6C6"/>
</radialGradient>
<radialGradient id="paint2_radial_36209_95714" cx="0" cy="0" r="1" gradientUnits="userSpaceOnUse" gradientTransform="translate(101.356 152.447) scale(8.15328 8.11055)">
<stop stop-color="white"/>
<stop offset="0.78" stop-color="#73B6F0"/>
<stop offset="1" stop-color="#007AE3"/>
</radialGradient>
<radialGradient id="paint3_radial_36209_95714" cx="0" cy="0" r="1" gradientUnits="userSpaceOnUse" gradientTransform="translate(101.351 155.799) rotate(-90) scale(10.8306 14.0932)">
<stop offset="0.401042" stop-color="#2E2A49"/>
<stop offset="0.546875" stop-color="#2E2A49" stop-opacity="0"/>
<stop offset="0.645833" stop-color="white" stop-opacity="0"/>
<stop offset="0.760417" stop-color="#B0C5FB" stop-opacity="0.33"/>
<stop offset="0.984375" stop-color="white"/>
</radialGradient>
<radialGradient id="paint4_radial_36209_95714" cx="0" cy="0" r="1" gradientUnits="userSpaceOnUse" gradientTransform="translate(141.008 152.452) scale(15.1563 15.0769)">
<stop stop-color="white"/>
<stop offset="0.56" stop-color="white"/>
<stop offset="0.97" stop-color="#D6D6D6"/>
<stop offset="1" stop-color="#C6C6C6"/>
</radialGradient>
<radialGradient id="paint5_radial_36209_95714" cx="0" cy="0" r="1" gradientUnits="userSpaceOnUse" gradientTransform="translate(141.011 152.448) scale(8.15328 8.11055)">
<stop stop-color="white"/>
<stop offset="0.78" stop-color="#73B6F0"/>
<stop offset="1" stop-color="#007AE3"/>
</radialGradient>
<radialGradient id="paint6_radial_36209_95714" cx="0" cy="0" r="1" gradientUnits="userSpaceOnUse" gradientTransform="translate(141.007 155.799) rotate(-90) scale(10.8306 14.0932)">
<stop offset="0.401042" stop-color="#2E2A49"/>
<stop offset="0.546875" stop-color="#2E2A49" stop-opacity="0"/>
<stop offset="0.645833" stop-color="white" stop-opacity="0"/>
<stop offset="0.760417" stop-color="#B0C5FB" stop-opacity="0.33"/>
<stop offset="0.984375" stop-color="white"/>
</radialGradient>
<linearGradient id="paint7_linear_36209_95714" x1="75.662" y1="196.346" x2="75.662" y2="176.628" gradientUnits="userSpaceOnUse">
<stop stop-color="#600000"/>
<stop offset="1" stop-color="#B01622"/>
</linearGradient>
<linearGradient id="paint8_linear_36209_95714" x1="134.666" y1="116.702" x2="158.308" y2="116.702" gradientUnits="userSpaceOnUse">
<stop stop-color="#600000"/>
<stop offset="1" stop-color="#B01622"/>
</linearGradient>
<linearGradient id="paint9_linear_36209_95714" x1="107.693" y1="116.702" x2="84.0513" y2="116.702" gradientUnits="userSpaceOnUse">
<stop stop-color="#600000"/>
<stop offset="1" stop-color="#B01622"/>
</linearGradient>
<clipPath id="clip0_36209_95714">
<rect width="167.758" height="142.546" fill="white" transform="translate(38.0312 87.5)"/>
</clipPath>
</defs>
</svg>
