<svg width="269" height="306" viewBox="0 0 269 306" fill="none" xmlns="http://www.w3.org/2000/svg">
<path d="M81.8159 72.9719C70.8751 88.2871 71.8031 105.041 73.6348 111.503L64.4538 125.859C58.8984 112.43 60.1499 97.7624 61.4701 92.1075C63.3296 71.8531 76.743 52.2978 84.3376 57.5804C90.9027 62.1469 85.0927 68.479 81.8159 72.9719Z" fill="#7432A0"/>
<path d="M61.7019 116.679C66.0122 112.575 71.1468 110.203 73.1753 109.53L73.6902 111.379L64.4546 125.858C62.9922 122.734 62.0101 118.437 61.7019 116.679Z" fill="#470F6B"/>
<path d="M219.599 120.866C217.721 139.607 205.996 151.586 200.368 155.233L197.802 172.09C210.808 165.667 219.525 153.816 222.258 148.693C234.197 132.24 237.012 108.679 227.84 107.631C219.911 106.725 220.099 115.323 219.599 120.866Z" fill="#7432A0"/>
<path d="M205.894 167.002C205.362 161.069 203.072 155.892 201.993 154.045L200.389 155.095L197.784 172.083C200.939 170.701 204.505 168.12 205.894 167.002Z" fill="#470F6B"/>
<path d="M163.954 81.3743C137.754 66.3415 120.604 78.9142 115.304 87.0797C112.288 96.8277 100.182 98.5566 94.5061 98.2025C66.767 106.249 60.4903 134.126 62.3312 142.018C63.8038 148.331 59.2424 150.77 56.7777 151.201C22.2263 162.772 25.2519 195.894 33.3766 212.024C59.7434 258.263 125.761 276.608 155.7 279.658C215.746 272.666 215.384 250.395 203.485 236.424C191.585 222.453 187.784 207.944 192.342 196.992C196.899 186.041 209.22 160.253 193.217 140.483C177.215 120.713 183.671 131.239 181.518 112.007C179.796 96.6215 169.091 85.1745 163.954 81.3743Z" fill="#7432A0"/>
<path d="M178.395 115.038C180.272 106.79 175.914 97.7731 173.501 94.2958C170.161 87.779 164.461 84.2452 169.543 95.1949C173.609 103.955 173.166 109.772 173.02 115.456C172.79 124.346 177.342 118.306 178.395 115.038Z" fill="#AF6ADC"/>
<path d="M197.158 165.374C200.098 156.064 192.47 144.723 188.288 140.217C184.864 135.897 177.223 133.396 185.757 144.254C192.585 152.94 190.065 157.955 190.83 164.928C191.641 177.551 195.386 170.485 197.158 165.374Z" fill="#AF6ADC"/>
<ellipse cx="191.796" cy="177.138" rx="2.30479" ry="2.82992" transform="rotate(23.9055 191.796 177.138)" fill="#AF6ADC"/>
<ellipse cx="1.76216" cy="3.50438" rx="1.76216" ry="3.50438" transform="matrix(0.829124 0.559065 -0.560804 0.827949 118.008 86.3906)" fill="#AF6ADC"/>
<path d="M78.6616 111.519C83.5732 102.847 93.6548 99.8863 98.0816 99.4901C104.117 98.9224 106.02 100.65 97.0484 103.159C89.8709 105.167 85.0699 108.659 83.5666 110.155C74.8018 121.364 76.6446 115.734 78.6616 111.519Z" fill="#AF6ADC"/>
<path d="M124.68 126.471C119.059 123.626 116.936 118.96 116.576 116.983C115.553 113.827 113.669 109.356 114.32 116.72C115.134 125.925 120.3 128.657 123.894 130.25C127.592 131.889 131.705 130.027 124.68 126.471Z" fill="#AF6ADC"/>
<path d="M51.8996 156.848C56.2418 152.405 50.4989 154.655 47.0847 156.335C42.5149 158.584 37.0748 166.137 36.1476 171.976C34.9887 179.275 38.7279 178.869 40.6747 172.804C42.6216 166.739 46.4718 162.402 51.8996 156.848Z" fill="#AF6ADC"/>
<path d="M118.385 182.194C106.377 180.645 96.2185 172.762 92.64 169.014C88.9971 165.188 83.3084 160.691 89.6973 173.311C97.6833 189.085 113.301 191.113 117.504 190.206C122.423 189.143 133.395 184.131 118.385 182.194Z" fill="#470F6B"/>
<path d="M148.33 210.646C177.667 209.499 194.453 189.228 199.179 179.236C188.694 202.89 187.061 216.611 203.599 236.176C220.138 255.742 204.016 267.021 182.827 276.349C165.876 283.812 139.611 278.272 128.597 274.569C56.6457 259.639 32.1807 217.849 28.9213 198.755C28.9175 198.734 28.9139 198.712 28.9105 198.691C28.9141 198.712 28.9177 198.734 28.9213 198.755C29.9562 204.507 48.2113 218.704 57.2427 225.105C100.501 255.718 137.481 246.275 150.563 237.726C176.265 224.709 159.783 214.249 148.33 210.646Z" fill="#470F6B"/>
<path d="M200.305 235.904C190.839 227.817 187.918 218.572 187.64 214.96C185.785 216.693 183.185 221.8 187.629 228.369C192.073 234.938 196.6 241.14 198.308 243.421C200.013 246.043 203.738 250.308 205.001 246.387C206.264 242.466 202.397 237.765 200.305 235.904Z" fill="#7432A0"/>
<ellipse cx="142.034" cy="105.702" rx="24.6749" ry="24.526" transform="rotate(23.9055 142.034 105.702)" fill="#470F6B"/>
<ellipse cx="142.03" cy="105.707" rx="20.8787" ry="20.7528" transform="rotate(23.9055 142.03 105.707)" fill="#F5F5F5"/>
<ellipse cx="142.033" cy="105.697" rx="14.9134" ry="14.8234" transform="rotate(23.9055 142.033 105.697)" fill="url(#paint0_radial_37384_126953)"/>
<ellipse cx="141.426" cy="105.724" rx="7.04997" ry="7.00743" transform="rotate(23.9055 141.426 105.724)" fill="#221F38"/>
<ellipse cx="120.683" cy="149.906" rx="32.8095" ry="15.0929" transform="rotate(23.9055 120.683 149.906)" fill="url(#paint1_linear_37384_126953)"/>
<path d="M117.938 140.725C115.094 139.11 117.249 134.917 118.655 133.083C121.408 133.832 125.126 135.214 127.054 136.216L125.307 140.159C124.051 142.992 121.492 142.742 117.938 140.725Z" fill="url(#paint2_linear_37384_126953)"/>
<path d="M127.515 144.827C125.222 143.575 127.349 138.956 128.644 136.926C130.256 137.64 134.595 140.006 136.497 141.291C135.896 145.859 133.114 146.916 131.853 146.75C131.362 146.631 129.807 146.079 127.515 144.827Z" fill="url(#paint3_linear_37384_126953)"/>
<path d="M105.109 12.7656L86.4297 17.2578L100.959 53.9315L109.262 51.1638L105.109 12.7656Z" fill="white"/>
<circle cx="133.5" cy="50.1797" r="6.01562" fill="white"/>
<circle cx="109.258" cy="63.2812" r="6.01562" fill="white"/>
<path d="M120.594 3.77425L123.078 10.0164C124.465 9.23298 128.46 7.77348 133.348 8.20317C138.235 8.63286 138.92 12.5896 138.652 14.5142C138.786 15.4766 138.021 18.6903 133.885 23.8466C129.749 29.0028 128.357 33.067 128.178 34.4545V40.4299L137.51 39.9599V35.5959V33.3803C138.987 30.5381 142.667 24.2763 145.567 21.9667C148.467 19.6571 148.745 12.6343 148.521 9.41167C148.23 8.06916 146.238 4.61876 140.599 1.55722C134.959 -1.50432 124.912 1.7596 120.594 3.77425Z" fill="white"/>
<defs>
<radialGradient id="paint0_radial_37384_126953" cx="0" cy="0" r="1" gradientUnits="userSpaceOnUse" gradientTransform="translate(142.033 105.697) rotate(90) scale(14.8234 14.9134)">
<stop offset="0.375" stop-color="#E5B8CF"/>
<stop offset="0.901042" stop-color="#18BC29"/>
</radialGradient>
<linearGradient id="paint1_linear_37384_126953" x1="120.683" y1="164.999" x2="120.683" y2="134.813" gradientUnits="userSpaceOnUse">
<stop stop-color="#221F38"/>
<stop offset="1" stop-color="#413C65"/>
</linearGradient>
<linearGradient id="paint2_linear_37384_126953" x1="122.758" y1="134.459" x2="119.606" y2="141.57" gradientUnits="userSpaceOnUse">
<stop stop-color="#D9D6D7"/>
<stop offset="0.734375" stop-color="white"/>
</linearGradient>
<linearGradient id="paint3_linear_37384_126953" x1="132.761" y1="138.957" x2="129.677" y2="145.916" gradientUnits="userSpaceOnUse">
<stop stop-color="#D9D9D9"/>
<stop offset="0.770833" stop-color="white"/>
</linearGradient>
</defs>
</svg>
