<svg width="237" height="231" viewBox="0 0 237 231" fill="none" xmlns="http://www.w3.org/2000/svg">
<g clip-path="url(#clip0_36209_95651)">
<path d="M46.0673 125.443C37.805 92.132 54.865 93.2201 56.9258 94.4616C56.9258 94.4616 64.8732 87.2017 67.5574 95.6682C67.7373 96.2693 67.8956 96.7835 68.0395 97.2398C67.9456 97.1093 67.9023 97.0586 67.9023 97.0586C67.9023 97.0586 69.9105 103.171 68.0395 97.2398C68.7763 98.1025 71.9033 102.031 71.3548 105.027C70.7187 108.413 63.4212 108.748 63.4212 108.748C63.4212 108.748 55.8113 144.52 83.259 180.422C83.259 180.422 54.3224 158.726 46.0673 125.443Z" fill="url(#paint0_linear_36209_95651)"/>
<path d="M127.185 204.765C128.798 208.678 126.535 223.049 125.59 228.593C125.386 229.743 126.257 230.781 127.426 230.781H135.103C137.514 230.781 137.644 227.184 135.233 227.036C134.899 227.017 134.584 226.998 134.269 226.998C132.655 226.98 131.821 225.107 132.859 223.883C139.072 216.614 142.855 206.935 143.986 203.801C144.32 202.856 143.856 201.817 142.929 201.428C141.557 200.871 139.35 200.593 137.013 200.593C131.839 200.593 126.035 201.965 127.185 204.765Z" fill="url(#paint1_linear_36209_95651)"/>
<path opacity="0.1" d="M137.015 200.586C139.352 200.586 141.558 200.864 142.93 201.42C143.857 201.809 144.321 202.847 143.988 203.793C143.843 204.194 143.655 204.702 143.424 205.299C138.904 206.881 133.703 208.115 127.746 208.929C127.724 207.136 127.561 205.666 127.186 204.758C126.036 201.958 131.841 200.586 137.015 200.586Z" fill="black"/>
<path d="M89.3579 201.427C88.4307 201.817 87.9671 202.855 88.3009 203.801C89.4321 206.935 93.2153 216.614 99.4278 223.883C100.466 225.107 99.6318 226.98 98.0184 226.998C97.7031 226.998 97.3879 227.017 97.054 227.036C94.6432 227.184 94.773 230.781 97.1839 230.781H104.861C106.03 230.781 106.901 229.743 106.697 228.593C105.752 223.049 103.489 208.678 105.103 204.765C106.252 201.965 100.448 200.593 95.2737 200.593C92.9371 200.593 90.7302 200.871 89.3579 201.427Z" fill="url(#paint2_linear_36209_95651)"/>
<path opacity="0.1" d="M95.2691 200.586C100.443 200.586 106.246 201.958 105.097 204.758C104.677 205.777 104.521 207.506 104.535 209.603C98.6673 209.046 93.6007 207.884 89.2378 206.255C88.8276 205.236 88.5123 204.395 88.2954 203.794C87.9618 202.848 88.4259 201.81 89.3531 201.421C90.7254 200.865 92.9324 200.586 95.2691 200.586Z" fill="black"/>
<path d="M171.414 106.809C171.414 106.809 164.117 106.475 163.48 103.089C162.932 100.093 166.059 96.1643 166.796 95.3016C164.925 101.233 166.933 95.1203 166.933 95.1203C166.933 95.1203 166.889 95.1711 166.796 95.3016C166.939 94.8453 167.098 94.3311 167.278 93.7299C169.961 85.2633 177.909 92.523 177.909 92.523C179.97 91.2814 197.03 90.1927 188.769 123.504C180.515 156.787 151.579 178.484 151.579 178.484C179.025 142.581 171.414 106.809 171.414 106.809Z" fill="url(#paint3_linear_36209_95651)"/>
<path d="M67.6359 116.72C65.0116 120.714 66.0799 126.055 70.0511 128.702C74.0456 131.326 86.2612 134.786 88.8854 130.816C91.5329 126.845 83.5905 116.929 79.596 114.305C78.1329 113.33 76.4841 112.865 74.8352 112.865C72.0484 112.865 69.308 114.212 67.6359 116.72Z" fill="url(#paint4_linear_36209_95651)"/>
<path d="M68.2969 122.478C68.2969 118.328 70.3176 115.852 75.2184 115.852C80.1192 115.851 81.9696 121.941 81.9696 124.536C81.9696 127.779 80.7358 129.488 76.3837 129.488C72.0317 129.488 68.2969 126.628 68.2969 122.478Z" fill="url(#paint5_linear_36209_95651)"/>
<path d="M151.226 114.305C147.232 116.929 139.289 126.845 141.937 130.816C144.561 134.786 156.777 131.326 160.771 128.702C164.742 126.055 165.834 120.714 163.186 116.72C161.514 114.212 158.774 112.865 155.987 112.865C154.338 112.865 152.689 113.33 151.226 114.305Z" fill="url(#paint6_linear_36209_95651)"/>
<path d="M162.712 122.478C162.712 118.328 160.691 115.852 155.79 115.852C150.89 115.851 149.039 121.941 149.039 124.536C149.039 127.779 150.273 129.488 154.625 129.488C158.977 129.488 162.712 126.628 162.712 122.478Z" fill="url(#paint7_linear_36209_95651)"/>
<path d="M116.813 116.83C76.7277 119.467 73.4576 137.293 67.0228 151.638C61.01 165.245 59.5332 212.394 121.244 207.542C182.954 202.69 174.093 157.334 157.848 136.132C143.818 117.99 123.775 116.724 118.29 116.724C117.341 116.724 116.813 116.83 116.813 116.83Z" fill="url(#paint8_linear_36209_95651)"/>
<path d="M166.287 155.775C170.612 174.023 163.756 186.258 152.785 195.751C141.815 205.138 105.844 211.784 82.0041 197.017C63.333 185.309 65.2318 161.893 66.9195 151.873C61.0123 165.796 59.9575 212.416 121.245 207.564C177.575 203.134 175.148 164.846 161.857 142.169C163.439 145.86 165.022 150.396 166.287 155.775Z" fill="url(#paint9_linear_36209_95651)"/>
<path d="M153.813 163.276C156.915 163.276 159.501 166.099 159.501 169.283C157.421 166.524 155.485 164.868 152.351 163.481C152.351 163.481 152.326 163.276 153.813 163.276ZM78.4404 162.829C80.1476 162.829 80.1538 163.035 80.1533 163.043C76.4833 164.49 74.2166 166.217 71.7812 169.096C71.7814 165.774 74.8089 162.829 78.4404 162.829ZM88.0605 141.163C89.0927 141.163 89.9295 142.029 89.9297 143.098C89.9296 144.166 89.0928 145.033 88.0605 145.033C87.0284 145.033 86.1915 144.166 86.1914 143.098C86.1916 142.029 87.0285 141.163 88.0605 141.163ZM142.363 138.557C143.223 138.557 143.921 139.279 143.921 140.169C143.921 141.059 143.223 141.781 142.363 141.781C141.503 141.781 140.806 141.059 140.806 140.169C140.806 139.279 141.503 138.557 142.363 138.557ZM93.5068 136.89C93.9152 136.89 94.2468 137.233 94.2471 137.655C94.247 138.078 93.9153 138.422 93.5068 138.422C93.0985 138.422 92.7677 138.078 92.7676 137.655C92.7678 137.233 93.0986 136.89 93.5068 136.89ZM87.7715 130.905C89.3847 130.905 90.6924 132.259 90.6924 133.929C90.6922 135.598 89.3846 136.952 87.7715 136.952C86.1585 136.952 84.8508 135.598 84.8506 133.929C84.8506 132.259 86.1584 130.905 87.7715 130.905ZM138.001 135.359C138.264 135.359 138.477 135.573 138.478 135.836C138.477 136.099 138.264 136.312 138.001 136.312C137.738 136.312 137.525 136.099 137.525 135.836C137.525 135.573 137.738 135.36 138.001 135.359ZM148.67 134.413C149.143 134.413 149.527 134.81 149.527 135.3C149.527 135.789 149.143 136.187 148.67 136.187C148.197 136.186 147.813 135.789 147.812 135.3C147.812 134.81 148.197 134.413 148.67 134.413ZM79.4551 133.738C80.0143 133.739 80.4676 134.208 80.4678 134.786C80.4677 135.365 80.0143 135.834 79.4551 135.834C78.8957 135.834 78.4415 135.365 78.4414 134.786C78.4416 134.208 78.8957 133.738 79.4551 133.738ZM143.505 133.186C144.021 133.186 144.439 133.619 144.439 134.153C144.439 134.688 144.021 135.121 143.505 135.121C142.989 135.121 142.571 134.687 142.57 134.153C142.57 133.619 142.989 133.186 143.505 133.186ZM133.357 130.216C133.96 130.216 134.448 130.721 134.448 131.345C134.448 131.968 133.959 132.474 133.357 132.474C132.756 132.473 132.268 131.968 132.268 131.345C132.268 130.721 132.755 130.216 133.357 130.216ZM95.2314 129.284C96.0271 129.284 96.6717 129.952 96.6719 130.775C96.6718 131.599 96.0271 132.267 95.2314 132.268C94.4357 132.267 93.7901 131.599 93.79 130.775C93.7902 129.952 94.4357 129.284 95.2314 129.284ZM138.346 127.026C139.703 127.026 140.803 128.199 140.803 129.646C140.803 131.092 139.703 132.265 138.346 132.265C136.989 132.265 135.889 131.092 135.889 129.646C135.889 128.199 136.989 127.026 138.346 127.026ZM146.948 126.73C148.152 126.731 149.128 127.742 149.128 128.988C149.128 130.235 148.152 131.246 146.948 131.246C145.744 131.246 144.768 130.235 144.768 128.988C144.768 127.742 145.744 126.731 146.948 126.73ZM100.674 127.14C101.082 127.14 101.413 127.483 101.413 127.906C101.413 128.329 101.082 128.673 100.674 128.673C100.265 128.673 99.9337 128.329 99.9336 127.906C99.9336 127.483 100.265 127.14 100.674 127.14ZM85.4775 125.678C86.2089 125.678 86.8026 126.291 86.8027 127.048C86.8026 127.805 86.2089 128.418 85.4775 128.418C84.7464 128.418 84.1534 127.804 84.1533 127.048C84.1535 126.291 84.7465 125.678 85.4775 125.678ZM92.3613 125.224C93.0281 125.224 93.5681 125.783 93.5684 126.473C93.5683 127.163 93.0281 127.723 92.3613 127.723C91.6945 127.723 91.1534 127.163 91.1533 126.473C91.1536 125.783 91.6946 125.224 92.3613 125.224ZM131.64 124.73C132.263 124.731 132.77 125.255 132.77 125.9C132.769 126.546 132.263 127.069 131.64 127.069C131.016 127.069 130.51 126.546 130.51 125.9C130.51 125.255 131.016 124.731 131.64 124.73ZM104.688 122.602C105.376 122.602 105.933 123.179 105.934 123.892C105.934 124.604 105.376 125.182 104.688 125.182C103.999 125.181 103.441 124.604 103.441 123.892C103.442 123.179 104 122.602 104.688 122.602ZM99.0078 119.494C99.7329 119.857 100.235 120.639 100.235 121.546C100.235 122.799 99.2772 123.816 98.0957 123.816C96.9144 123.816 95.9571 122.799 95.957 121.546C95.9571 121.061 96.101 120.613 96.3447 120.244C97.2024 119.982 98.0894 119.732 99.0078 119.494ZM141.077 122.252C141.537 122.484 141.998 122.725 142.46 122.977C142.418 123.4 142.057 123.73 141.619 123.73C141.153 123.73 140.775 123.356 140.775 122.894C140.775 122.636 140.893 122.405 141.077 122.252ZM135.94 120.564C136.521 120.565 136.992 121.051 136.992 121.652C136.992 122.253 136.521 122.741 135.94 122.741C135.36 122.741 134.889 122.253 134.889 121.652C134.889 121.051 135.36 120.565 135.94 120.564ZM126.425 117.461C127.966 117.725 129.642 118.078 131.41 118.559C131.413 118.612 131.418 118.666 131.418 118.72C131.418 120.241 130.234 121.474 128.774 121.474C127.315 121.473 126.131 120.241 126.131 118.72C126.131 118.266 126.238 117.838 126.425 117.461Z" fill="url(#paint10_linear_36209_95651)"/>
<path d="M74.6042 169.64C74.6042 169.64 65.3834 184.038 90.0162 196.333C114.32 208.496 133.255 201.461 144.321 195.807C149.952 192.947 156.242 185.846 157.625 179.567C159.93 168.916 150.61 162.67 141.258 167.47C133.321 171.546 129.85 172.379 118.884 171.952C100.113 171.229 96.5038 167.733 87.0195 165.596C85.6363 165.267 84.3849 165.136 83.2323 165.136C76.7448 165.136 74.6042 169.64 74.6042 169.64Z" fill="url(#paint11_radial_36209_95651)"/>
<mask id="mask0_36209_95651" style="mask-type:alpha" maskUnits="userSpaceOnUse" x="72" y="165" width="86" height="39">
<path d="M74.6042 169.64C74.6042 169.64 65.3834 184.038 90.0162 196.333C114.32 208.496 133.255 201.461 144.321 195.807C149.952 192.947 156.242 185.846 157.625 179.567C159.93 168.916 150.61 162.67 141.258 167.47C133.321 171.546 129.85 172.379 118.884 171.952C100.113 171.229 96.5038 167.733 87.0195 165.596C85.6363 165.267 84.3849 165.136 83.2323 165.136C76.7448 165.136 74.6042 169.64 74.6042 169.64Z" fill="url(#paint12_radial_36209_95651)"/>
</mask>
<g mask="url(#mask0_36209_95651)">
<path d="M116.523 171.344C116.954 173.426 117.841 175.37 119.082 176.899C121.333 179.669 124.885 181.619 127.819 179.33C129.849 177.748 130.883 174.723 130.647 171.851C130.578 171.008 130.466 170.15 130.289 169.328C127.72 170.94 124.745 171.966 120.808 171.779C119.281 171.706 117.863 171.552 116.523 171.344Z" fill="white"/>
<path d="M144.578 164.086C144.578 164.086 142.659 166.625 141.957 165.397C141.554 165.72 139.477 166.043 139.073 166.445C135.11 170.379 132.781 170.118 132.781 170.118C133.98 173.152 135.654 175.487 137.534 176.679C140.551 178.594 146.151 177.718 146.675 172.737C146.675 167.232 145.858 167.903 144.578 164.086Z" fill="white"/>
<path d="M100.276 168.805C99.9117 169.222 99.4174 169.984 99.1113 170.605C98.1789 173.261 97.8119 176.781 99.4174 179.272C100.8 181.418 104.972 182.412 107.879 180.602C111.788 177.431 111.689 172.875 112.597 170.64C109.189 170.64 108.021 170.624 105.483 170.001C105.483 170.001 102.636 169.329 100.276 168.805Z" fill="white"/>
<path d="M92.4063 174.834C89.1777 176.788 86.3767 176.885 84.2485 173.983C82.5891 171.721 82.6081 168.474 83.9322 166.111C84.2746 165.499 84.655 165.005 85.0717 164.609C85.8818 164.679 87.5394 164.944 88.474 165.175C92.1342 166.077 97.1251 168.004 97.1251 168.004C96.1765 169.92 94.9452 172.594 92.4063 174.834Z" fill="white"/>
<path d="M85.2769 168.568C89.188 165.069 95.3966 168.856 96.0752 170.106C96.4507 169.635 96.5776 169.064 96.8617 168.533C93.7296 166.336 90.8203 166.368 87.1602 165.532C86.2256 165.318 85.3562 165.189 84.5451 165.125C84.1294 165.491 83.749 165.949 83.4066 166.516C82.0825 168.707 82.181 171.941 83.7229 173.812C84.8025 174.825 84.2782 174.3 85.589 175.349C84.5404 173.776 82.3506 171.186 85.2769 168.568Z" fill="#F5C5A9"/>
</g>
<path d="M113.489 192.596C112.556 193.063 111.571 193.581 110.551 193.425C110.067 193.356 109.618 193.132 109.186 192.942C106.11 191.559 102.654 190.747 99.3884 191.525C96.2952 192.233 93.4786 194.6 92.8047 197.659C112.815 206.626 128.972 202.704 139.841 197.935C137.767 194.255 133.966 191.49 129.818 190.402C128.194 189.97 126.535 189.78 124.859 189.78C120.954 189.78 117.014 190.851 113.489 192.596Z" fill="url(#paint13_radial_36209_95651)"/>
<path opacity="0.2" d="M139.84 197.938C138.734 195.982 137.141 194.297 135.277 192.974C135.279 193.262 135.254 193.55 135.173 193.826C134.594 195.79 132.665 197.026 130.771 197.803C128.444 198.757 125.948 199.291 123.435 199.371C122.888 199.388 122.326 199.381 121.817 199.181C120.369 198.608 119.951 196.811 119.584 195.298C119.216 193.785 118.327 192.018 116.771 192.027C117.131 191.641 117.49 191.254 117.852 190.867C116.35 191.324 114.884 191.906 113.485 192.597C112.558 193.054 111.573 193.572 110.549 193.424C110.547 193.424 110.544 193.422 110.542 193.422L113.989 196.016C114.632 196.501 115.298 197.01 115.658 197.731C116.019 198.452 115.967 199.446 115.324 199.931C114.843 200.295 114.184 200.283 113.582 200.244C108.345 199.896 103.171 198.617 98.3755 196.481C97.9046 196.272 97.4248 196.045 97.0704 195.669C96.2733 194.824 96.3657 193.382 97.0905 192.474C97.1527 192.396 97.2361 192.343 97.3043 192.273C95.1078 193.371 93.3219 195.304 92.7969 197.651C112.805 206.618 128.964 202.704 139.84 197.938Z" fill="white"/>
<path fill-rule="evenodd" clip-rule="evenodd" d="M114.864 195.178C115.911 196.187 116.508 197.396 116.769 198.291C116.904 198.739 116.975 199.11 117.001 199.37C117.025 199.626 117.039 199.77 117.039 199.77C117.039 199.77 116.704 199.295 116.156 198.609C115.606 197.919 114.818 197.058 113.905 196.176C112.986 195.297 112.094 194.545 111.382 194.025C110.676 193.504 110.188 193.188 110.188 193.188C110.188 193.188 110.332 193.196 110.589 193.21C110.851 193.226 111.224 193.282 111.677 193.398C112.582 193.624 113.813 194.172 114.864 195.178Z" fill="#831434"/>
<ellipse cx="116.789" cy="153.611" rx="44.8285" ry="34.0802" fill="url(#paint14_linear_36209_95651)" fill-opacity="0.7"/>
<path fill-rule="evenodd" clip-rule="evenodd" d="M132.263 143.636C132.263 152.323 125.221 159.365 116.534 159.365C107.847 159.365 100.805 152.323 100.805 143.636C100.805 134.948 107.847 127.906 116.534 127.906C125.221 127.906 132.263 134.948 132.263 143.636Z" fill="#89C072"/>
<path fill-rule="evenodd" clip-rule="evenodd" d="M130.688 143.64C130.688 151.457 124.35 157.795 116.531 157.795C108.713 157.795 102.375 151.457 102.375 143.64C102.375 135.822 108.713 129.484 116.531 129.484C124.35 129.484 130.688 135.822 130.688 143.64Z" fill="url(#paint15_radial_36209_95651)"/>
<path fill-rule="evenodd" clip-rule="evenodd" d="M123.895 143.381C123.895 147.586 120.486 150.996 116.28 150.996C112.074 150.996 108.664 147.586 108.664 143.381C108.664 139.175 112.074 135.766 116.28 135.766C120.486 135.766 123.895 139.175 123.895 143.381Z" fill="url(#paint16_radial_36209_95651)"/>
<path d="M119.844 143.376C119.844 145.343 118.249 146.938 116.283 146.938C114.313 146.938 112.718 145.343 112.718 143.376C112.718 141.41 114.313 139.814 116.283 139.814C118.249 139.814 119.844 141.41 119.844 143.376Z" fill="#2E2A49"/>
<path fill-rule="evenodd" clip-rule="evenodd" d="M154.285 150.978C154.285 156.77 149.59 161.465 143.799 161.465C138.007 161.465 133.312 156.77 133.312 150.978C133.312 145.187 138.007 140.492 143.799 140.492C149.59 140.492 154.285 145.187 154.285 150.978Z" fill="#89C072"/>
<path fill-rule="evenodd" clip-rule="evenodd" d="M153.235 150.976C153.235 156.188 149.009 160.413 143.797 160.413C138.585 160.413 134.359 156.188 134.359 150.976C134.359 145.764 138.585 141.539 143.797 141.539C149.009 141.539 153.235 145.764 153.235 150.976Z" fill="url(#paint17_radial_36209_95651)"/>
<path fill-rule="evenodd" clip-rule="evenodd" d="M149.232 150.811C149.232 153.615 146.959 155.888 144.155 155.888C141.351 155.888 139.078 153.615 139.078 150.811C139.078 148.007 141.351 145.734 144.155 145.734C146.959 145.734 149.232 148.007 149.232 150.811Z" fill="url(#paint18_radial_36209_95651)"/>
<path d="M146.523 150.813C146.523 152.124 145.46 153.188 144.15 153.188C142.836 153.188 141.773 152.124 141.773 150.813C141.773 149.502 142.836 148.439 144.15 148.439C145.46 148.439 146.523 149.502 146.523 150.813Z" fill="#2E2A49"/>
<path fill-rule="evenodd" clip-rule="evenodd" d="M99.7537 150.971C99.7537 156.762 95.0588 161.457 89.2675 161.457C83.4761 161.457 78.7812 156.762 78.7812 150.971C78.7812 145.179 83.4761 140.484 89.2675 140.484C95.0588 140.484 99.7537 145.179 99.7537 150.971Z" fill="#89C072"/>
<path fill-rule="evenodd" clip-rule="evenodd" d="M98.7111 150.968C98.7111 156.18 94.4857 160.405 89.2735 160.405C84.0613 160.405 79.8359 156.18 79.8359 150.968C79.8359 145.756 84.0613 141.531 89.2735 141.531C94.4857 141.531 98.7111 145.756 98.7111 150.968Z" fill="url(#paint19_radial_36209_95651)"/>
<path fill-rule="evenodd" clip-rule="evenodd" d="M94.1777 150.803C94.1777 153.607 91.9046 155.88 89.1006 155.88C86.2965 155.88 84.0234 153.607 84.0234 150.803C84.0234 147.999 86.2965 145.727 89.1006 145.727C91.9046 145.727 94.1777 147.999 94.1777 150.803Z" fill="url(#paint20_radial_36209_95651)"/>
<path d="M91.4766 150.798C91.4766 152.109 90.4133 153.172 89.1027 153.172C87.7895 153.172 86.7263 152.109 86.7263 150.798C86.7263 149.487 87.7895 148.423 89.1027 148.423C90.4133 148.423 91.4766 149.487 91.4766 150.798Z" fill="#2E2A49"/>
</g>
<rect x="-0.0078125" y="0.109375" width="236.273" height="94.9092" rx="7.7576" fill="#22499C"/>
<path d="M18.6054 34.9051C17.5349 34.9051 16.5729 34.7189 15.7196 34.3465C14.8818 33.9587 14.2224 33.4312 13.7414 32.764C13.2604 32.0813 13.0122 31.2978 12.9967 30.4134H15.2541C15.3317 31.1737 15.642 31.8176 16.185 32.3451C16.7436 32.8571 17.5504 33.1131 18.6054 33.1131C19.6139 33.1131 20.4052 32.8648 20.9792 32.3684C21.5688 31.8564 21.8636 31.2047 21.8636 30.4134C21.8636 29.7928 21.6929 29.2886 21.3516 28.9007C21.0103 28.5128 20.5836 28.218 20.0716 28.0163C19.5596 27.8147 18.8692 27.5974 18.0003 27.3647C16.9298 27.0854 16.0687 26.8062 15.417 26.5269C14.7809 26.2476 14.2301 25.8132 13.7647 25.2236C13.3147 24.6185 13.0898 23.8117 13.0898 22.8032C13.0898 21.9189 13.3147 21.1354 13.7647 20.4527C14.2146 19.77 14.843 19.2425 15.6498 18.8701C16.4721 18.4978 17.4107 18.3116 18.4658 18.3116C19.9863 18.3116 21.2275 18.6917 22.1894 19.452C23.1669 20.2122 23.7177 21.2207 23.8418 22.4774H21.5145C21.4369 21.8568 21.1111 21.3138 20.5371 20.8483C19.963 20.3674 19.2028 20.1269 18.2563 20.1269C17.372 20.1269 16.6505 20.3596 16.092 20.8251C15.5334 21.275 15.2541 21.9111 15.2541 22.7334C15.2541 23.323 15.417 23.804 15.7429 24.1763C16.0842 24.5487 16.4953 24.8357 16.9763 25.0374C17.4728 25.2236 18.1632 25.4408 19.0476 25.6891C20.1181 25.9839 20.9792 26.2786 21.6309 26.5734C22.2825 26.8527 22.8411 27.2949 23.3065 27.9C23.772 28.4896 24.0047 29.2964 24.0047 30.3204C24.0047 31.1116 23.7952 31.8564 23.3763 32.5545C22.9574 33.2527 22.3368 33.819 21.5145 34.2535C20.6922 34.6879 19.7225 34.9051 18.6054 34.9051ZM26.33 28.3189C26.33 27.0156 26.5937 25.8753 27.1213 24.8978C27.6488 23.9048 28.3702 23.1368 29.2856 22.5938C30.2165 22.0508 31.2483 21.7792 32.3809 21.7792C33.498 21.7792 34.4677 22.0197 35.29 22.5007C36.1123 22.9817 36.7252 23.5868 37.1286 24.316V21.9887H39.2697V34.7422H37.1286V32.3684C36.7097 33.1131 36.0813 33.7337 35.2435 34.2302C34.4212 34.7112 33.4592 34.9516 32.3576 34.9516C31.225 34.9516 30.201 34.6724 29.2856 34.1138C28.3702 33.5553 27.6488 32.7718 27.1213 31.7633C26.5937 30.7548 26.33 29.6067 26.33 28.3189ZM37.1286 28.3422C37.1286 27.3802 36.9346 26.5424 36.5467 25.8287C36.1589 25.115 35.6313 24.572 34.9642 24.1996C34.3126 23.8117 33.5911 23.6178 32.7998 23.6178C32.0085 23.6178 31.2871 23.804 30.6355 24.1763C29.9838 24.5487 29.4641 25.0917 29.0762 25.8054C28.6883 26.5191 28.4944 27.357 28.4944 28.3189C28.4944 29.2964 28.6883 30.1497 29.0762 30.8789C29.4641 31.5926 29.9838 32.1434 30.6355 32.5313C31.2871 32.9036 32.0085 33.0898 32.7998 33.0898C33.5911 33.0898 34.3126 32.9036 34.9642 32.5313C35.6313 32.1434 36.1589 31.5926 36.5467 30.8789C36.9346 30.1497 37.1286 29.3041 37.1286 28.3422ZM58.1854 21.756C59.1783 21.756 60.0627 21.9654 60.8385 22.3843C61.6142 22.7877 62.2271 23.4006 62.677 24.2229C63.1269 25.0452 63.3519 26.0459 63.3519 27.2251V34.7422H61.2574V27.5276C61.2574 26.2554 60.9393 25.2857 60.3032 24.6185C59.6826 23.9358 58.837 23.5945 57.7664 23.5945C56.6649 23.5945 55.7883 23.9514 55.1366 24.6651C54.485 25.3632 54.1592 26.3795 54.1592 27.7138V34.7422H52.0646V27.5276C52.0646 26.2554 51.7465 25.2857 51.1104 24.6185C50.4898 23.9358 49.6442 23.5945 48.5737 23.5945C47.4721 23.5945 46.5955 23.9514 45.9439 24.6651C45.2922 25.3632 44.9664 26.3795 44.9664 27.7138V34.7422H42.8486V21.9887H44.9664V23.8272C45.3853 23.1601 45.9439 22.6481 46.642 22.2912C47.3557 21.9344 48.1393 21.756 48.9926 21.756C50.0632 21.756 51.0096 21.9964 51.8319 22.4774C52.6542 22.9584 53.267 23.6643 53.6704 24.5952C54.0273 23.6954 54.6169 22.9972 55.4392 22.5007C56.2615 22.0042 57.1769 21.756 58.1854 21.756ZM68.9438 24.3392C69.3627 23.61 69.9833 23.0049 70.8056 22.524C71.6434 22.0275 72.6131 21.7792 73.7147 21.7792C74.8473 21.7792 75.8713 22.0508 76.7867 22.5938C77.7176 23.1368 78.4468 23.9048 78.9743 24.8978C79.5018 25.8753 79.7656 27.0156 79.7656 28.3189C79.7656 29.6067 79.5018 30.7548 78.9743 31.7633C78.4468 32.7718 77.7176 33.5553 76.7867 34.1138C75.8713 34.6724 74.8473 34.9516 73.7147 34.9516C72.6286 34.9516 71.6667 34.7112 70.8289 34.2302C70.0065 33.7337 69.3782 33.1208 68.9438 32.3916V40.7931H66.8259V21.9887H68.9438V24.3392ZM77.6012 28.3189C77.6012 27.357 77.4073 26.5191 77.0194 25.8054C76.6315 25.0917 76.104 24.5487 75.4369 24.1763C74.7852 23.804 74.0638 23.6178 73.2725 23.6178C72.4967 23.6178 71.7753 23.8117 71.1081 24.1996C70.4565 24.572 69.929 25.1228 69.5256 25.852C69.1377 26.5657 68.9438 27.3957 68.9438 28.3422C68.9438 29.3041 69.1377 30.1497 69.5256 30.8789C69.929 31.5926 70.4565 32.1434 71.1081 32.5313C71.7753 32.9036 72.4967 33.0898 73.2725 33.0898C74.0638 33.0898 74.7852 32.9036 75.4369 32.5313C76.104 32.1434 76.6315 31.5926 77.0194 30.8789C77.4073 30.1497 77.6012 29.2964 77.6012 28.3189ZM84.6711 17.5203V34.7422H82.5533V17.5203H84.6711ZM99.9169 27.8767C99.9169 28.2801 99.8937 28.7068 99.8471 29.1567H89.6536C89.7312 30.4134 90.1579 31.3987 90.9336 32.1124C91.7249 32.8105 92.6791 33.1596 93.7962 33.1596C94.7116 33.1596 95.4718 32.9502 96.0769 32.5313C96.6975 32.0968 97.132 31.5228 97.3802 30.8091H99.6609C99.3196 32.0348 98.6369 33.0355 97.6129 33.8113C96.5889 34.5715 95.3167 34.9516 93.7962 34.9516C92.586 34.9516 91.5 34.6801 90.538 34.1371C89.5916 33.5941 88.8469 32.8261 88.3038 31.8331C87.7608 30.8246 87.4893 29.661 87.4893 28.3422C87.4893 27.0234 87.753 25.8675 88.2805 24.8745C88.8081 23.8815 89.545 23.1213 90.4915 22.5938C91.4534 22.0508 92.555 21.7792 93.7962 21.7792C95.0064 21.7792 96.0769 22.043 97.0078 22.5705C97.9388 23.098 98.6525 23.8272 99.1489 24.7582C99.6609 25.6736 99.9169 26.7131 99.9169 27.8767ZM97.7293 27.4345C97.7293 26.6277 97.5509 25.9373 97.194 25.3632C96.8372 24.7737 96.3485 24.3315 95.7278 24.0367C95.1227 23.7264 94.4478 23.5712 93.7031 23.5712C92.6326 23.5712 91.7172 23.9126 90.9569 24.5952C90.2122 25.2779 89.7855 26.2243 89.6769 27.4345H97.7293ZM121.926 37.8142L118.692 34.5793C117.9 34.7965 117.093 34.9051 116.271 34.9051C114.766 34.9051 113.393 34.556 112.152 33.8578C110.911 33.1441 109.925 32.1589 109.196 30.9022C108.483 29.6299 108.126 28.2025 108.126 26.62C108.126 25.0374 108.483 23.6178 109.196 22.3611C109.925 21.0888 110.911 20.1036 112.152 19.4054C113.393 18.6917 114.766 18.3349 116.271 18.3349C117.792 18.3349 119.173 18.6917 120.414 19.4054C121.655 20.1036 122.632 21.0811 123.346 22.3378C124.06 23.5945 124.417 25.0219 124.417 26.62C124.417 28.1715 124.075 29.5679 123.393 30.8091C122.71 32.0503 121.771 33.0278 120.577 33.7415L124.673 37.8142H121.926ZM110.29 26.62C110.29 27.9077 110.546 29.0404 111.058 30.0178C111.586 30.9953 112.299 31.7478 113.199 32.2753C114.115 32.8028 115.139 33.0665 116.271 33.0665C117.404 33.0665 118.42 32.8028 119.32 32.2753C120.235 31.7478 120.949 30.9953 121.461 30.0178C121.989 29.0404 122.252 27.9077 122.252 26.62C122.252 25.3167 121.989 24.1841 121.461 23.2222C120.949 22.2447 120.243 21.4922 119.343 20.9647C118.443 20.4372 117.419 20.1734 116.271 20.1734C115.123 20.1734 114.099 20.4372 113.199 20.9647C112.299 21.4922 111.586 22.2447 111.058 23.2222C110.546 24.1841 110.29 25.3167 110.29 26.62ZM138.569 21.9887V34.7422H136.451V32.8571C136.047 33.5087 135.481 34.0207 134.752 34.3931C134.038 34.7499 133.247 34.9284 132.378 34.9284C131.385 34.9284 130.493 34.7267 129.702 34.3233C128.91 33.9044 128.282 33.2838 127.816 32.4615C127.367 31.6391 127.142 30.6384 127.142 29.4593V21.9887H129.236V29.18C129.236 30.4367 129.554 31.4064 130.19 32.0891C130.826 32.7562 131.695 33.0898 132.797 33.0898C133.929 33.0898 134.822 32.7407 135.473 32.0425C136.125 31.3444 136.451 30.3281 136.451 28.9938V21.9887H138.569ZM153.781 27.8767C153.781 28.2801 153.757 28.7068 153.711 29.1567H143.517C143.595 30.4134 144.022 31.3987 144.797 32.1124C145.589 32.8105 146.543 33.1596 147.66 33.1596C148.575 33.1596 149.336 32.9502 149.941 32.5313C150.561 32.0968 150.996 31.5228 151.244 30.8091H153.525C153.183 32.0348 152.501 33.0355 151.477 33.8113C150.453 34.5715 149.18 34.9516 147.66 34.9516C146.45 34.9516 145.364 34.6801 144.402 34.1371C143.455 33.5941 142.711 32.8261 142.168 31.8331C141.625 30.8246 141.353 29.661 141.353 28.3422C141.353 27.0234 141.617 25.8675 142.144 24.8745C142.672 23.8815 143.409 23.1213 144.355 22.5938C145.317 22.0508 146.419 21.7792 147.66 21.7792C148.87 21.7792 149.941 22.043 150.872 22.5705C151.803 23.098 152.516 23.8272 153.013 24.7582C153.525 25.6736 153.781 26.7131 153.781 27.8767ZM151.593 27.4345C151.593 26.6277 151.415 25.9373 151.058 25.3632C150.701 24.7737 150.212 24.3315 149.592 24.0367C148.987 23.7264 148.312 23.5712 147.567 23.5712C146.496 23.5712 145.581 23.9126 144.821 24.5952C144.076 25.2779 143.649 26.2243 143.541 27.4345H151.593ZM161.091 34.9516C160.114 34.9516 159.237 34.7887 158.461 34.4629C157.686 34.1216 157.073 33.6561 156.623 33.0665C156.173 32.4615 155.925 31.771 155.878 30.9953H158.066C158.128 31.6314 158.423 32.1511 158.95 32.5545C159.493 32.9579 160.199 33.1596 161.068 33.1596C161.875 33.1596 162.511 32.9812 162.976 32.6244C163.442 32.2675 163.674 31.8176 163.674 31.2745C163.674 30.716 163.426 30.3048 162.93 30.0411C162.433 29.7618 161.665 29.4903 160.626 29.2265C159.679 28.9783 158.903 28.73 158.298 28.4818C157.709 28.218 157.197 27.8379 156.762 27.3414C156.343 26.8294 156.134 26.1623 156.134 25.34C156.134 24.6883 156.328 24.091 156.716 23.548C157.104 23.0049 157.655 22.5783 158.368 22.268C159.082 21.9421 159.896 21.7792 160.812 21.7792C162.224 21.7792 163.364 22.1361 164.233 22.8498C165.102 23.5635 165.567 24.5409 165.629 25.7822H163.512C163.465 25.115 163.193 24.5797 162.697 24.1763C162.216 23.7729 161.564 23.5712 160.742 23.5712C159.982 23.5712 159.377 23.7342 158.927 24.06C158.477 24.3858 158.252 24.8125 158.252 25.34C158.252 25.7589 158.384 26.108 158.647 26.3873C158.927 26.651 159.268 26.8682 159.671 27.0389C160.09 27.194 160.664 27.3725 161.394 27.5742C162.309 27.8224 163.054 28.0707 163.628 28.3189C164.202 28.5516 164.691 28.9085 165.094 29.3894C165.513 29.8704 165.73 30.4988 165.746 31.2745C165.746 31.9727 165.552 32.6011 165.164 33.1596C164.776 33.7182 164.225 34.1604 163.512 34.4862C162.813 34.7965 162.007 34.9516 161.091 34.9516ZM171.319 23.7342V31.2513C171.319 31.8719 171.451 32.3141 171.714 32.5778C171.978 32.8261 172.436 32.9502 173.087 32.9502H174.647V34.7422H172.738C171.559 34.7422 170.675 34.4707 170.085 33.9276C169.496 33.3846 169.201 32.4925 169.201 31.2513V23.7342H167.548V21.9887H169.201V18.777H171.319V21.9887H174.647V23.7342H171.319ZM178.306 19.9174C177.903 19.9174 177.562 19.7778 177.282 19.4985C177.003 19.2192 176.864 18.8779 176.864 18.4745C176.864 18.0711 177.003 17.7298 177.282 17.4505C177.562 17.1712 177.903 17.0316 178.306 17.0316C178.694 17.0316 179.02 17.1712 179.284 17.4505C179.563 17.7298 179.703 18.0711 179.703 18.4745C179.703 18.8779 179.563 19.2192 179.284 19.4985C179.02 19.7778 178.694 19.9174 178.306 19.9174ZM179.33 21.9887V34.7422H177.213V21.9887H179.33ZM188.502 34.9516C187.307 34.9516 186.221 34.6801 185.244 34.1371C184.282 33.5941 183.522 32.8261 182.963 31.8331C182.42 30.8246 182.149 29.661 182.149 28.3422C182.149 27.0389 182.428 25.8908 182.986 24.8978C183.561 23.8893 184.336 23.1213 185.314 22.5938C186.291 22.0508 187.385 21.7792 188.595 21.7792C189.805 21.7792 190.899 22.0508 191.877 22.5938C192.854 23.1213 193.622 23.8815 194.181 24.8745C194.755 25.8675 195.042 27.0234 195.042 28.3422C195.042 29.661 194.747 30.8246 194.157 31.8331C193.583 32.8261 192.8 33.5941 191.807 34.1371C190.814 34.6801 189.712 34.9516 188.502 34.9516ZM188.502 33.0898C189.262 33.0898 189.976 32.9114 190.643 32.5545C191.31 32.1977 191.846 31.6624 192.249 30.9487C192.668 30.235 192.877 29.3662 192.877 28.3422C192.877 27.3182 192.676 26.4493 192.272 25.7356C191.869 25.0219 191.341 24.4944 190.69 24.1531C190.038 23.7962 189.332 23.6178 188.572 23.6178C187.796 23.6178 187.082 23.7962 186.431 24.1531C185.795 24.4944 185.283 25.0219 184.895 25.7356C184.507 26.4493 184.313 27.3182 184.313 28.3422C184.313 29.3817 184.499 30.2583 184.872 30.972C185.259 31.6857 185.771 32.221 186.408 32.5778C187.044 32.9192 187.742 33.0898 188.502 33.0898ZM204.04 21.756C205.592 21.756 206.848 22.2292 207.81 23.1756C208.772 24.1065 209.253 25.4563 209.253 27.2251V34.7422H207.159V27.5276C207.159 26.2554 206.841 25.2857 206.205 24.6185C205.568 23.9358 204.7 23.5945 203.598 23.5945C202.481 23.5945 201.589 23.9436 200.922 24.6418C200.27 25.34 199.944 26.3562 199.944 27.6905V34.7422H197.826V21.9887H199.944V23.804C200.363 23.1523 200.929 22.6481 201.643 22.2912C202.372 21.9344 203.171 21.756 204.04 21.756ZM218.01 19.8476V17.916H222.385V34.7422H220.244V19.8476H218.01Z" fill="white"/>
<path d="M106.922 60.0453V76.3828H102.942V66.585L99.2885 76.3828H96.0768L92.3997 66.5617V76.3828H88.4201V60.0453H93.1212L97.7059 71.3559L102.244 60.0453H106.922ZM108.993 69.8664C108.993 68.5321 109.241 67.3607 109.737 66.3522C110.249 65.3437 110.94 64.568 111.809 64.025C112.677 63.4819 113.647 63.2104 114.718 63.2104C115.633 63.2104 116.432 63.3966 117.115 63.769C117.813 64.1413 118.348 64.63 118.721 65.2351V63.3966H122.7V76.3828H118.721V74.5443C118.333 75.1494 117.79 75.6381 117.091 76.0104C116.409 76.3828 115.61 76.569 114.694 76.569C113.639 76.569 112.677 76.2975 111.809 75.7544C110.94 75.1959 110.249 74.4124 109.737 73.4039C109.241 72.3799 108.993 71.2007 108.993 69.8664ZM118.721 69.8897C118.721 68.8967 118.441 68.1132 117.883 67.5391C117.34 66.9651 116.673 66.6781 115.881 66.6781C115.09 66.6781 114.415 66.9651 113.857 67.5391C113.313 68.0977 113.042 68.8735 113.042 69.8664C113.042 70.8594 113.313 71.6507 113.857 72.2403C114.415 72.8143 115.09 73.1013 115.881 73.1013C116.673 73.1013 117.34 72.8143 117.883 72.2403C118.441 71.6662 118.721 70.8827 118.721 69.8897ZM132.817 73.0083V76.3828H130.792C129.349 76.3828 128.225 76.0337 127.418 75.3355C126.611 74.6218 126.208 73.466 126.208 71.8679V66.7013H124.625V63.3966H126.208V60.2315H130.187V63.3966H132.794V66.7013H130.187V71.9144C130.187 72.3023 130.28 72.5816 130.467 72.7523C130.653 72.9229 130.963 73.0083 131.397 73.0083H132.817ZM143.016 63.257C144.506 63.257 145.701 63.7534 146.6 64.7464C147.5 65.7239 147.95 67.0737 147.95 68.7959V76.3828H143.994V69.3312C143.994 68.4623 143.769 67.7874 143.319 67.3064C142.869 66.8254 142.264 66.585 141.504 66.585C140.743 66.585 140.138 66.8254 139.688 67.3064C139.238 67.7874 139.014 68.4623 139.014 69.3312V76.3828H135.034V59.1609H139.014V65.142C139.417 64.568 139.968 64.1103 140.666 63.769C141.364 63.4276 142.148 63.257 143.016 63.257Z" fill="white"/>
<defs>
<linearGradient id="paint0_linear_36209_95651" x1="61.0654" y1="185.912" x2="90.0345" y2="178.727" gradientUnits="userSpaceOnUse">
<stop stop-color="#FFF166"/>
<stop offset="1" stop-color="#24B34B"/>
</linearGradient>
<linearGradient id="paint1_linear_36209_95651" x1="125.553" y1="200.594" x2="144.097" y2="200.594" gradientUnits="userSpaceOnUse">
<stop stop-color="#FFF166"/>
<stop offset="1" stop-color="#24B34B"/>
</linearGradient>
<linearGradient id="paint2_linear_36209_95651" x1="88.1896" y1="200.594" x2="106.734" y2="200.594" gradientUnits="userSpaceOnUse">
<stop stop-color="#FFF166"/>
<stop offset="1" stop-color="#24B34B"/>
</linearGradient>
<linearGradient id="paint3_linear_36209_95651" x1="144.804" y1="176.789" x2="173.773" y2="183.974" gradientUnits="userSpaceOnUse">
<stop stop-color="#FFF166"/>
<stop offset="1" stop-color="#24B34B"/>
</linearGradient>
<linearGradient id="paint4_linear_36209_95651" x1="66.196" y1="111.133" x2="89.4196" y2="111.133" gradientUnits="userSpaceOnUse">
<stop stop-color="#FFF166"/>
<stop offset="1" stop-color="#24B34B"/>
</linearGradient>
<linearGradient id="paint5_linear_36209_95651" x1="81.9696" y1="122.912" x2="68.2966" y2="122.912" gradientUnits="userSpaceOnUse">
<stop stop-color="#58B452"/>
<stop offset="1" stop-color="#B4D360"/>
</linearGradient>
<linearGradient id="paint6_linear_36209_95651" x1="164.626" y1="111.134" x2="141.403" y2="111.134" gradientUnits="userSpaceOnUse">
<stop stop-color="#FFF166"/>
<stop offset="1" stop-color="#24B34B"/>
</linearGradient>
<linearGradient id="paint7_linear_36209_95651" x1="149.039" y1="122.912" x2="162.712" y2="122.912" gradientUnits="userSpaceOnUse">
<stop stop-color="#58B452"/>
<stop offset="1" stop-color="#B4D360"/>
</linearGradient>
<linearGradient id="paint8_linear_36209_95651" x1="64.2801" y1="109.588" x2="169.768" y2="109.588" gradientUnits="userSpaceOnUse">
<stop stop-color="#FFF166"/>
<stop offset="1" stop-color="#24B34B"/>
</linearGradient>
<linearGradient id="paint9_linear_36209_95651" x1="64.2824" y1="122.296" x2="169.769" y2="122.296" gradientUnits="userSpaceOnUse">
<stop stop-color="#FFF166"/>
<stop offset="1" stop-color="#24B34B"/>
</linearGradient>
<linearGradient id="paint10_linear_36209_95651" x1="71.7813" y1="155.941" x2="159.501" y2="155.941" gradientUnits="userSpaceOnUse">
<stop stop-color="#BBD660"/>
<stop offset="1" stop-color="#2CA64B"/>
</linearGradient>
<radialGradient id="paint11_radial_36209_95651" cx="0" cy="0" r="1" gradientUnits="userSpaceOnUse" gradientTransform="translate(115.439 184.082) scale(32.9316 14.6705)">
<stop stop-color="#7D3825"/>
<stop offset="0.54" stop-color="#4F0000"/>
<stop offset="1" stop-color="#2D0000"/>
</radialGradient>
<radialGradient id="paint12_radial_36209_95651" cx="0" cy="0" r="1" gradientUnits="userSpaceOnUse" gradientTransform="translate(115.439 184.082) scale(32.9316 14.6705)">
<stop stop-color="#7D3825"/>
<stop offset="0.54" stop-color="#4F0000"/>
<stop offset="1" stop-color="#2D0000"/>
</radialGradient>
<radialGradient id="paint13_radial_36209_95651" cx="0" cy="0" r="1" gradientUnits="userSpaceOnUse" gradientTransform="translate(116.323 196.404) scale(17.28 6.3477)">
<stop stop-color="#FF721B"/>
<stop offset="1" stop-color="#BE1622"/>
</radialGradient>
<linearGradient id="paint14_linear_36209_95651" x1="116.789" y1="119.531" x2="116.527" y2="165.399" gradientUnits="userSpaceOnUse">
<stop stop-color="white"/>
<stop offset="1" stop-color="#C4C4C4" stop-opacity="0"/>
</linearGradient>
<radialGradient id="paint15_radial_36209_95651" cx="0" cy="0" r="1" gradientUnits="userSpaceOnUse" gradientTransform="translate(116.532 143.639) scale(14.1564 14.1551)">
<stop stop-color="white"/>
<stop offset="0.56" stop-color="white"/>
<stop offset="0.97" stop-color="#D6D6D6"/>
<stop offset="1" stop-color="#C6C6C6"/>
</radialGradient>
<radialGradient id="paint16_radial_36209_95651" cx="0" cy="0" r="1" gradientUnits="userSpaceOnUse" gradientTransform="translate(116.279 143.381) scale(7.61568 7.61501)">
<stop stop-color="white"/>
<stop offset="0.69" stop-color="#99D5B0"/>
<stop offset="1" stop-color="#00973B"/>
</radialGradient>
<radialGradient id="paint17_radial_36209_95651" cx="0" cy="0" r="1" gradientUnits="userSpaceOnUse" gradientTransform="translate(143.797 150.976) scale(9.43757 9.43676)">
<stop stop-color="white"/>
<stop offset="0.56" stop-color="white"/>
<stop offset="0.97" stop-color="#D6D6D6"/>
<stop offset="1" stop-color="#C6C6C6"/>
</radialGradient>
<radialGradient id="paint18_radial_36209_95651" cx="0" cy="0" r="1" gradientUnits="userSpaceOnUse" gradientTransform="translate(144.155 150.811) scale(5.07712 5.07667)">
<stop stop-color="white"/>
<stop offset="0.69" stop-color="#99D5B0"/>
<stop offset="1" stop-color="#00973B"/>
</radialGradient>
<radialGradient id="paint19_radial_36209_95651" cx="0" cy="0" r="1" gradientUnits="userSpaceOnUse" gradientTransform="translate(89.2736 150.968) scale(9.43757 9.43676)">
<stop stop-color="white"/>
<stop offset="0.56" stop-color="white"/>
<stop offset="0.97" stop-color="#D6D6D6"/>
<stop offset="1" stop-color="#C6C6C6"/>
</radialGradient>
<radialGradient id="paint20_radial_36209_95651" cx="0" cy="0" r="1" gradientUnits="userSpaceOnUse" gradientTransform="translate(89.1003 150.804) scale(5.07712 5.07667)">
<stop stop-color="white"/>
<stop offset="0.69" stop-color="#99D5B0"/>
<stop offset="1" stop-color="#00973B"/>
</radialGradient>
<clipPath id="clip0_36209_95651">
<rect width="167.758" height="142.546" fill="white" transform="translate(34.25 88.2344)"/>
</clipPath>
</defs>
</svg>
