<svg width="244" height="231" viewBox="0 0 244 231" fill="none" xmlns="http://www.w3.org/2000/svg">
<g clip-path="url(#clip0_36209_95686)">
<path d="M198.668 173.265C199.602 174.067 199.709 175.475 198.905 176.41C198.102 177.345 196.692 177.452 195.758 176.649C194.825 175.847 194.72 174.437 195.523 173.503C196.327 172.568 197.735 172.462 198.668 173.265Z" fill="#2E2A49"/>
<path d="M198.396 168.875C199.329 169.677 199.434 171.087 198.631 172.021C197.827 172.956 196.419 173.062 195.486 172.259C194.552 171.457 194.445 170.048 195.249 169.113C196.053 168.179 197.462 168.072 198.396 168.875Z" fill="#2E2A49"/>
<path d="M195.911 165.265C196.845 166.068 196.949 167.477 196.147 168.41C195.342 169.346 193.935 169.452 193 168.649C192.067 167.847 191.96 166.438 192.765 165.502C193.567 164.569 194.977 164.462 195.911 165.265Z" fill="#2E2A49"/>
<path d="M197.089 171.016C198.385 175.471 195.824 180.14 191.367 181.443C186.913 182.744 169.656 183.865 168.359 179.407C167.06 174.951 182.216 166.606 186.671 165.304C191.127 164.003 195.792 166.561 197.089 171.016Z" fill="#1496DB"/>
<path opacity="0.2" d="M194.307 171.639C195.358 175.25 193.283 179.033 189.671 180.089C186.061 181.144 172.072 182.051 171.022 178.438C169.969 174.828 182.253 168.063 185.863 167.008C189.474 165.954 193.254 168.027 194.307 171.639Z" fill="white"/>
<path d="M197.867 94.7614C197.198 93.728 195.817 93.4318 194.781 94.1017C193.746 94.7717 193.451 96.1529 194.12 97.1863C194.788 98.2196 196.169 98.5155 197.204 97.8456C198.239 97.1756 198.536 95.7947 197.867 94.7614Z" fill="#2E2A49"/>
<path d="M202.171 95.6276C201.503 94.5942 200.12 94.2996 199.086 94.9689C198.051 95.6388 197.755 97.0191 198.424 98.0525C199.093 99.0858 200.473 99.3827 201.509 98.7128C202.543 98.0435 202.84 96.6609 202.171 95.6276Z" fill="#2E2A49"/>
<path d="M205.413 98.5885C204.745 97.5552 203.365 97.2587 202.33 97.9286C201.295 98.5985 200.999 99.9788 201.668 101.012C202.337 102.046 203.718 102.342 204.753 101.672C205.788 101.003 206.082 99.6219 205.413 98.5885Z" fill="#2E2A49"/>
<path d="M199.696 97.0056C195.355 95.3291 187.66 102.867 182.512 113.844C177.363 124.82 162.154 166.106 166.496 167.786C170.835 169.468 193.082 130.902 198.23 119.926C203.379 108.95 204.035 98.688 199.696 97.0056Z" fill="#1496DB"/>
<path opacity="0.2" d="M198.919 99.0968C195.399 97.738 188.693 104.854 183.935 114.991C179.179 125.133 164.728 163.126 168.248 164.485C171.765 165.846 191.918 130.064 196.677 119.923C201.431 109.785 202.436 100.458 198.919 99.0968Z" fill="white"/>
<path d="M46.1407 93.7926C46.8094 92.7593 48.1912 92.4631 49.2265 93.133C50.2618 93.8029 50.5567 95.1842 49.888 96.2175C49.2194 97.2509 47.8391 97.5468 46.8038 96.8768C45.7686 96.2069 45.472 94.826 46.1407 93.7926Z" fill="#2E2A49"/>
<path d="M41.8288 94.6588C42.4975 93.6255 43.8796 93.3309 44.914 94.0002C45.9492 94.6701 46.2448 96.0504 45.5761 97.0837C44.9075 98.1171 43.5266 98.4139 42.4913 97.744C41.457 97.0747 41.1601 95.6922 41.8288 94.6588Z" fill="#2E2A49"/>
<path d="M38.5866 97.6198C39.2553 96.5864 40.6346 96.2899 41.6698 96.9598C42.7051 97.6298 43.0007 99.0101 42.332 100.043C41.6633 101.077 40.2825 101.374 39.2472 100.704C38.2119 100.034 37.9179 98.6531 38.5866 97.6198Z" fill="#2E2A49"/>
<path d="M44.3121 96.0369C48.6527 94.3603 56.3481 101.898 61.4955 112.875C66.645 123.851 81.8534 165.137 77.5119 166.817C73.1727 168.5 50.926 129.934 45.7776 118.957C40.6291 107.981 39.9729 97.7193 44.3121 96.0369Z" fill="#1496DB"/>
<path opacity="0.2" d="M45.0886 98.128C48.6084 96.7692 55.3153 103.885 60.073 114.022C64.829 124.164 79.28 162.157 75.7602 163.516C72.243 164.878 52.0893 129.095 47.3312 118.954C42.5767 108.816 41.5713 99.4895 45.0886 98.128Z" fill="white"/>
<path d="M45.9482 174.83C45.0309 175.651 44.9528 177.063 45.7731 177.981C46.5949 178.9 48.0056 178.979 48.9229 178.158C49.8401 177.337 49.9182 175.927 49.0963 175.007C48.2761 174.09 46.8654 174.009 45.9482 174.83Z" fill="#2E2A49"/>
<path d="M46.1504 170.448C45.2332 171.269 45.1551 172.679 45.977 173.599C46.798 174.517 48.2063 174.595 49.1236 173.774C50.0409 172.953 50.1213 171.544 49.3002 170.625C48.4784 169.706 47.0677 169.627 46.1504 170.448Z" fill="#2E2A49"/>
<path d="M48.5645 166.768C47.6472 167.589 47.5685 168.999 48.3903 169.918C49.2113 170.837 50.6219 170.917 51.5392 170.096C52.4565 169.275 52.5346 167.863 51.7135 166.945C50.8917 166.025 49.4818 165.948 48.5645 166.768Z" fill="#2E2A49"/>
<path d="M47.489 172.558C46.2786 177.036 48.9298 181.655 53.4108 182.869C57.8903 184.085 75.166 184.869 76.3762 180.387C77.5872 175.906 62.2731 167.858 57.7921 166.644C53.3103 165.428 48.6978 168.077 47.489 172.558Z" fill="#1496DB"/>
<path opacity="0.2" d="M50.2869 173.115C49.3053 176.746 51.4545 180.488 55.0849 181.472C58.7163 182.456 72.7206 183.092 73.7002 179.46C74.6807 175.829 62.2687 169.305 58.6383 168.321C55.006 167.336 51.2676 169.483 50.2869 173.115Z" fill="white"/>
<path d="M175.042 217.091C175.968 223.444 171.564 229.344 165.207 230.267C158.848 231.191 138.467 228.895 137.541 222.542C136.614 216.191 155.495 208.186 161.855 207.261C168.212 206.339 174.117 210.739 175.042 217.091Z" fill="#1496DB"/>
<path opacity="0.2" d="M172.596 216.332C173.376 221.681 169.669 226.645 164.316 227.424C158.968 228.203 141.808 226.269 141.026 220.92C140.25 215.574 156.145 208.836 161.496 208.058C166.847 207.282 171.814 210.984 172.596 216.332Z" fill="white"/>
<path d="M139.777 225.556C150.333 221.998 159.119 215.672 165.903 207.368C164.629 207.113 163.293 207.065 161.937 207.263C161.767 207.288 161.59 207.318 161.404 207.351C155.392 214.846 147.476 220.475 137.891 223.443C138.246 224.215 138.899 224.918 139.777 225.556Z" fill="#0076AA"/>
<path d="M68.3542 217.098C67.428 223.451 71.8316 229.35 78.1881 230.273C84.5456 231.197 104.929 228.901 105.856 222.548C106.783 216.196 87.8996 208.191 81.5421 207.267C75.1867 206.344 69.2815 210.745 68.3542 217.098Z" fill="#1496DB"/>
<path opacity="0.2" d="M70.7991 216.339C70.0192 221.688 73.7241 226.652 79.077 227.43C84.4273 228.209 101.587 226.277 102.367 220.928C103.145 215.581 87.2511 208.843 81.9006 208.065C76.5487 207.288 71.5789 210.991 70.7991 216.339Z" fill="white"/>
<path d="M103.616 225.556C93.0607 221.998 84.2767 215.672 77.4922 207.368C78.7645 207.113 80.1013 207.065 81.4589 207.263C81.6272 207.288 81.8047 207.318 81.9891 207.351C88.0037 214.846 95.9177 220.475 105.505 223.443C105.15 224.215 104.494 224.918 103.616 225.556Z" fill="#0076AA"/>
<path d="M183.995 109.14C188.678 116.199 186.749 125.715 179.684 130.394C172.622 135.07 150.902 141.217 146.219 134.157C141.532 127.1 155.656 109.508 162.72 104.831C169.786 100.151 179.309 102.081 183.995 109.14Z" fill="#1496DB"/>
<path d="M181.866 114.819C184.921 120.296 182.96 127.211 177.476 130.265C171.997 133.317 163.147 134.025 160.091 128.548C157.031 123.07 160.925 113.484 166.405 110.43C171.888 107.377 178.807 109.342 181.866 114.819Z" fill="#0076AA"/>
<path opacity="0.3" d="M173.794 121.134C175.592 124.268 173.522 128.824 169.173 131.313C164.827 133.801 159.847 133.279 158.05 130.148C156.253 127.014 158.32 122.458 162.668 119.969C167.017 117.482 171.996 118.003 173.794 121.134Z" fill="#2E2A49"/>
<path d="M59.5662 109.131C54.8816 116.191 56.8098 125.707 63.8755 130.385C70.9377 135.062 92.6562 141.208 97.3399 134.148C102.025 127.092 87.9011 109.499 80.8373 104.822C73.7737 100.143 64.2501 102.073 59.5662 109.131Z" fill="#1496DB"/>
<path d="M61.6823 114.818C58.6251 120.296 60.5895 127.211 66.0714 130.263C71.5511 133.316 80.4011 134.024 83.4577 128.547C86.5149 123.07 82.6229 113.483 77.1429 110.429C71.6611 107.377 64.7389 109.342 61.6823 114.818Z" fill="#0076AA"/>
<path opacity="0.3" d="M69.7618 121.141C67.9653 124.275 70.0337 128.83 74.3818 131.319C78.729 133.808 83.7102 133.285 85.5065 130.154C87.304 127.021 85.2355 122.465 80.889 119.976C76.5397 117.489 71.5606 118.01 69.7618 121.141Z" fill="#2E2A49"/>
<path d="M174.766 165.387C174.766 198.755 155.006 225.805 121.607 225.805C88.208 225.805 68.448 198.755 68.448 165.387C68.448 132.019 88.208 104.968 121.607 104.968C155.006 104.968 174.766 132.019 174.766 165.387Z" fill="#1496DB"/>
<path opacity="0.2" d="M167.961 161.213C167.961 190.311 150.729 213.898 121.606 213.898C92.4819 213.898 75.2515 190.311 75.2515 161.213C75.2515 132.116 92.4819 108.53 121.606 108.53C150.729 108.53 167.961 132.116 167.961 161.213Z" fill="white"/>
<path d="M170.476 159.606C171.321 156.536 171.767 153.337 171.767 150.051C171.767 126.805 149.418 107.961 121.849 107.961C94.2791 107.961 71.9297 126.805 71.9297 150.051C71.9297 153.804 72.5124 157.443 73.6056 160.906C72.7699 163.747 72.3282 166.706 72.3282 169.745C72.3282 191.369 94.6777 208.899 122.247 208.899C149.817 208.899 172.166 191.369 172.166 169.745C172.166 166.239 171.578 162.84 170.476 159.606Z" fill="url(#paint0_radial_36209_95686)"/>
<path d="M144.398 161.752C144.398 158.811 141.886 156.15 137.825 154.224C137.828 154.193 137.835 154.162 137.84 154.131C133.774 152.196 128.152 151 121.942 151C115.838 151 110.303 152.156 106.257 154.03C106.261 154.064 106.267 154.097 106.273 154.131C106.267 154.133 106.261 154.135 106.257 154.138C106.257 154.138 106.257 154.14 106.258 154.141C102.094 156.074 99.5078 158.77 99.5078 161.752C99.5078 167.631 109.556 172.398 121.952 172.398H122.066C128.243 172.398 133.838 171.214 137.895 169.299C137.892 169.284 137.883 169.269 137.878 169.254C141.908 167.329 144.398 164.678 144.398 161.752Z" fill="white"/>
<path fill-rule="evenodd" clip-rule="evenodd" d="M144.394 161.218C144.394 167.104 134.346 171.874 121.951 171.874C109.556 171.874 99.5078 167.104 99.5078 161.218C99.5078 155.333 109.556 150.562 121.951 150.562C134.346 150.562 144.394 155.333 144.394 161.218Z" fill="url(#paint1_linear_36209_95686)"/>
<path d="M106.242 168.756C110.296 170.671 115.888 171.855 122.066 171.855C128.244 171.855 133.836 170.671 137.89 168.756C135.375 162.498 129.233 158.07 122.066 158.07C114.899 158.07 108.757 162.498 106.242 168.756Z" fill="url(#paint2_radial_36209_95686)"/>
<path opacity="0.2" d="M129.25 163.07C129.25 165.28 125.83 167.07 121.61 167.07C117.39 167.07 113.968 165.28 113.968 163.07C113.968 160.861 117.39 159.071 121.61 159.071C125.83 159.071 129.25 160.861 129.25 163.07Z" fill="white"/>
<path d="M121.942 150.562C115.839 150.562 110.303 151.718 106.258 153.593C106.521 155.761 108.368 157.441 110.607 157.441H133.502C135.708 157.441 137.533 155.813 137.84 153.693C133.775 151.76 128.153 150.562 121.942 150.562Z" fill="#EDDD9A"/>
<path d="M121.95 150.562C116.305 150.562 111.187 151.348 107.445 153.082C107.688 155.086 109.39 156.68 111.462 156.68H132.635C134.676 156.68 136.369 155.128 136.651 153.168C132.894 151.379 127.694 150.562 121.95 150.562Z" fill="white"/>
<path d="M121.942 152.156C127.909 152.156 133.328 153.262 137.348 155.063C137.592 154.615 137.764 154.119 137.84 153.592C133.775 151.658 128.153 150.461 121.942 150.461C115.838 150.461 110.303 151.617 106.258 153.493C106.321 154.026 106.483 154.528 106.72 154.984C110.721 153.229 116.064 152.156 121.942 152.156Z" fill="#E66D28"/>
<path d="M112.328 137.669C112.328 144.639 106.672 150.289 99.6949 150.289C92.7179 150.289 87.0628 144.639 87.0628 137.669C87.0628 130.698 92.7179 125.047 99.6949 125.047C106.672 125.047 112.328 130.698 112.328 137.669Z" fill="#1496DB"/>
<path d="M156.852 138.034C156.852 145.005 151.195 150.656 144.217 150.656C137.24 150.656 131.586 145.005 131.586 138.034C131.586 131.063 137.24 125.413 144.217 125.413C151.195 125.413 156.852 131.063 156.852 138.034Z" fill="#1496DB"/>
<path d="M137.258 125.02C137.258 133.409 130.45 140.211 122.05 140.211C113.654 140.211 106.847 133.409 106.847 125.02C106.847 116.631 113.654 109.828 122.05 109.828C130.45 109.828 137.258 116.631 137.258 125.02Z" fill="#1496DB"/>
<path d="M110.617 137.675C110.617 143.704 105.725 148.594 99.6885 148.594C93.653 148.594 88.762 143.704 88.762 137.675C88.762 131.645 93.653 126.759 99.6885 126.759C105.725 126.759 110.617 131.645 110.617 137.675Z" fill="#1496DB"/>
<path fill-rule="evenodd" clip-rule="evenodd" d="M109.909 137.672C109.909 143.311 105.333 147.882 99.689 147.882C94.0445 147.882 89.4688 143.311 89.4688 137.672C89.4688 132.032 94.0445 127.461 99.689 127.461C105.333 127.461 109.909 132.032 109.909 137.672Z" fill="url(#paint3_radial_36209_95686)"/>
<path fill-rule="evenodd" clip-rule="evenodd" d="M105.182 137.68C105.182 140.713 102.721 143.172 99.685 143.172C96.6488 143.172 94.1875 140.713 94.1875 137.68C94.1875 134.647 96.6488 132.188 99.685 132.188C102.721 132.188 105.182 134.647 105.182 137.68Z" fill="url(#paint4_radial_36209_95686)"/>
<path d="M102.266 137.68C102.266 139.099 101.113 140.25 99.6934 140.25C98.2724 140.25 97.1211 139.099 97.1211 137.68C97.1211 136.262 98.2724 135.11 99.6934 135.11C101.113 135.11 102.266 136.262 102.266 137.68Z" fill="#2E2A49"/>
<ellipse cx="99.6623" cy="135.325" rx="3.0607" ry="2.34846" fill="url(#paint5_linear_36209_95686)"/>
<path d="M155.141 138.045C155.141 144.073 150.248 148.961 144.213 148.961C138.178 148.961 133.285 144.073 133.285 138.045C133.285 132.015 138.178 127.126 144.213 127.126C150.248 127.126 155.141 132.015 155.141 138.045Z" fill="#1496DB"/>
<path fill-rule="evenodd" clip-rule="evenodd" d="M154.44 138.039C154.44 143.678 149.864 148.249 144.22 148.249C138.576 148.249 134 143.678 134 138.039C134 132.399 138.576 127.828 144.22 127.828C149.864 127.828 154.44 132.399 154.44 138.039Z" fill="url(#paint6_radial_36209_95686)"/>
<path fill-rule="evenodd" clip-rule="evenodd" d="M149.715 138.032C149.715 141.066 147.253 143.525 144.217 143.525C141.18 143.525 138.719 141.066 138.719 138.032C138.719 134.998 141.18 132.539 144.217 132.539C147.253 132.539 149.715 134.998 149.715 138.032Z" fill="url(#paint7_radial_36209_95686)"/>
<path d="M146.789 138.041C146.789 139.459 145.639 140.609 144.219 140.609C142.798 140.609 141.647 139.459 141.647 138.041C141.647 136.622 142.798 135.472 144.219 135.472C145.639 135.472 146.789 136.622 146.789 138.041Z" fill="#2E2A49"/>
<ellipse cx="144.201" cy="135.325" rx="3.0607" ry="2.34846" fill="url(#paint8_linear_36209_95686)"/>
<path d="M135.516 125.014C135.516 132.497 129.442 138.562 121.955 138.562C114.463 138.562 108.391 132.497 108.391 125.014C108.391 117.531 114.463 111.466 121.955 111.466C129.442 111.466 135.516 117.531 135.516 125.014Z" fill="#1496DB"/>
<path fill-rule="evenodd" clip-rule="evenodd" d="M134.64 125.015C134.64 132.014 128.962 137.687 121.957 137.687C114.952 137.687 109.273 132.014 109.273 125.015C109.273 118.017 114.952 112.344 121.957 112.344C128.962 112.344 134.64 118.017 134.64 125.015Z" fill="url(#paint9_radial_36209_95686)"/>
<path fill-rule="evenodd" clip-rule="evenodd" d="M128.772 125.02C128.772 128.785 125.717 131.837 121.948 131.837C118.18 131.837 115.125 128.785 115.125 125.02C115.125 121.255 118.18 118.203 121.948 118.203C125.717 118.203 128.772 121.255 128.772 125.02Z" fill="url(#paint10_radial_36209_95686)"/>
<path d="M125.141 125.015C125.141 126.775 123.712 128.203 121.949 128.203C120.185 128.203 118.757 126.775 118.757 125.015C118.757 123.254 120.185 121.826 121.949 121.826C123.712 121.826 125.141 123.254 125.141 125.015Z" fill="#2E2A49"/>
<ellipse cx="121.954" cy="121.651" rx="3.79803" ry="2.91678" fill="url(#paint11_linear_36209_95686)"/>
</g>
<rect x="0.953125" y="0.476562" width="242.273" height="94.9092" rx="7.7576" fill="#22499C"/>
<path d="M19.6004 35.2723C18.5299 35.2723 17.5679 35.0861 16.7146 34.7137C15.8768 34.3259 15.2174 33.7983 14.7364 33.1312C14.2554 32.4485 14.0072 31.665 13.9917 30.7806H16.2491C16.3267 31.5409 16.637 32.1848 17.1801 32.7123C17.7386 33.2243 18.5454 33.4803 19.6004 33.4803C20.6089 33.4803 21.4002 33.232 21.9743 32.7355C22.5638 32.2235 22.8586 31.5719 22.8586 30.7806C22.8586 30.16 22.688 29.6558 22.3466 29.2679C22.0053 28.88 21.5786 28.5852 21.0666 28.3835C20.5546 28.1818 19.8642 27.9646 18.9953 27.7319C17.9248 27.4526 17.0637 27.1733 16.4121 26.8941C15.7759 26.6148 15.2251 26.1804 14.7597 25.5908C14.3097 24.9857 14.0848 24.1789 14.0848 23.1704C14.0848 22.2861 14.3097 21.5025 14.7597 20.8199C15.2096 20.1372 15.838 19.6097 16.6448 19.2373C17.4671 18.865 18.4058 18.6788 19.4608 18.6788C20.9813 18.6788 22.2225 19.0589 23.1844 19.8191C24.1619 20.5794 24.7127 21.5879 24.8368 22.8446H22.5095C22.432 22.224 22.1061 21.681 21.5321 21.2155C20.958 20.7345 20.1978 20.4941 19.2513 20.4941C18.367 20.4941 17.6455 20.7268 17.087 21.1922C16.5284 21.6422 16.2491 22.2783 16.2491 23.1006C16.2491 23.6902 16.4121 24.1712 16.7379 24.5435C17.0792 24.9159 17.4904 25.2029 17.9713 25.4046C18.4678 25.5908 19.1582 25.808 20.0426 26.0563C21.1132 26.351 21.9743 26.6458 22.6259 26.9406C23.2775 27.2199 23.8361 27.6621 24.3015 28.2672C24.767 28.8567 24.9997 29.6635 24.9997 30.6875C24.9997 31.4788 24.7903 32.2235 24.3714 32.9217C23.9524 33.6199 23.3318 34.1862 22.5095 34.6206C21.6872 35.0551 20.7175 35.2723 19.6004 35.2723ZM27.325 28.6861C27.325 27.3828 27.5888 26.2424 28.1163 25.265C28.6438 24.272 29.3653 23.504 30.2806 22.961C31.2116 22.4179 32.2433 22.1464 33.3759 22.1464C34.493 22.1464 35.4627 22.3869 36.285 22.8679C37.1073 23.3489 37.7202 23.9539 38.1236 24.6832V22.3559H40.2647V35.1094H38.1236V32.7355C37.7047 33.4803 37.0763 34.1009 36.2385 34.5974C35.4162 35.0783 34.4542 35.3188 33.3527 35.3188C32.22 35.3188 31.196 35.0396 30.2806 34.481C29.3653 33.9225 28.6438 33.1389 28.1163 32.1305C27.5888 31.122 27.325 29.9738 27.325 28.6861ZM38.1236 28.7094C38.1236 27.7474 37.9296 26.9096 37.5418 26.1959C37.1539 25.4822 36.6264 24.9392 35.9592 24.5668C35.3076 24.1789 34.5861 23.985 33.7948 23.985C33.0036 23.985 32.2821 24.1712 31.6305 24.5435C30.9788 24.9159 30.4591 25.4589 30.0712 26.1726C29.6833 26.8863 29.4894 27.7241 29.4894 28.6861C29.4894 29.6635 29.6833 30.5169 30.0712 31.2461C30.4591 31.9598 30.9788 32.5106 31.6305 32.8985C32.2821 33.2708 33.0036 33.457 33.7948 33.457C34.5861 33.457 35.3076 33.2708 35.9592 32.8985C36.6264 32.5106 37.1539 31.9598 37.5418 31.2461C37.9296 30.5169 38.1236 29.6713 38.1236 28.7094ZM59.1804 22.1232C60.1733 22.1232 61.0577 22.3326 61.8335 22.7515C62.6092 23.1549 63.2221 23.7678 63.672 24.5901C64.122 25.4124 64.3469 26.4131 64.3469 27.5923V35.1094H62.2524V27.8948C62.2524 26.6226 61.9343 25.6529 61.2982 24.9857C60.6776 24.303 59.832 23.9617 58.7615 23.9617C57.6599 23.9617 56.7833 24.3186 56.1316 25.0323C55.48 25.7304 55.1542 26.7467 55.1542 28.081V35.1094H53.0596V27.8948C53.0596 26.6226 52.7416 25.6529 52.1054 24.9857C51.4848 24.303 50.6393 23.9617 49.5687 23.9617C48.4671 23.9617 47.5905 24.3186 46.9389 25.0323C46.2872 25.7304 45.9614 26.7467 45.9614 28.081V35.1094H43.8436V22.3559H45.9614V24.1944C46.3803 23.5273 46.9389 23.0153 47.6371 22.6584C48.3508 22.3016 49.1343 22.1232 49.9876 22.1232C51.0582 22.1232 52.0046 22.3636 52.8269 22.8446C53.6492 23.3256 54.2621 24.0315 54.6655 24.9624C55.0223 24.0626 55.6119 23.3644 56.4342 22.8679C57.2565 22.3714 58.1719 22.1232 59.1804 22.1232ZM69.9388 24.7064C70.3577 23.9772 70.9783 23.3721 71.8006 22.8912C72.6384 22.3947 73.6081 22.1464 74.7097 22.1464C75.8423 22.1464 76.8663 22.4179 77.7817 22.961C78.7126 23.504 79.4418 24.272 79.9694 25.265C80.4969 26.2424 80.7606 27.3828 80.7606 28.6861C80.7606 29.9738 80.4969 31.122 79.9694 32.1305C79.4418 33.1389 78.7126 33.9225 77.7817 34.481C76.8663 35.0396 75.8423 35.3188 74.7097 35.3188C73.6236 35.3188 72.6617 35.0783 71.8239 34.5974C71.0016 34.1009 70.3732 33.488 69.9388 32.7588V41.1603H67.8209V22.3559H69.9388V24.7064ZM78.5963 28.6861C78.5963 27.7241 78.4023 26.8863 78.0144 26.1726C77.6266 25.4589 77.099 24.9159 76.4319 24.5435C75.7802 24.1712 75.0588 23.985 74.2675 23.985C73.4918 23.985 72.7703 24.1789 72.1031 24.5668C71.4515 24.9392 70.924 25.49 70.5206 26.2192C70.1327 26.9329 69.9388 27.7629 69.9388 28.7094C69.9388 29.6713 70.1327 30.5169 70.5206 31.2461C70.924 31.9598 71.4515 32.5106 72.1031 32.8985C72.7703 33.2708 73.4918 33.457 74.2675 33.457C75.0588 33.457 75.7802 33.2708 76.4319 32.8985C77.099 32.5106 77.6266 31.9598 78.0144 31.2461C78.4023 30.5169 78.5963 29.6635 78.5963 28.6861ZM85.6661 17.8875V35.1094H83.5483V17.8875H85.6661ZM100.912 28.2439C100.912 28.6473 100.889 29.074 100.842 29.5239H90.6487C90.7262 30.7806 91.1529 31.7658 91.9287 32.4795C92.7199 33.1777 93.6741 33.5268 94.7912 33.5268C95.7066 33.5268 96.4669 33.3174 97.072 32.8985C97.6926 32.464 98.127 31.89 98.3752 31.1763H100.656C100.315 32.402 99.632 33.4027 98.608 34.1785C97.584 34.9387 96.3117 35.3188 94.7912 35.3188C93.581 35.3188 92.495 35.0473 91.533 34.5043C90.5866 33.9613 89.8419 33.1932 89.2988 32.2003C88.7558 31.1918 88.4843 30.0281 88.4843 28.7094C88.4843 27.3906 88.748 26.2347 89.2756 25.2417C89.8031 24.2487 90.5401 23.4885 91.4865 22.961C92.4484 22.4179 93.55 22.1464 94.7912 22.1464C96.0014 22.1464 97.072 22.4102 98.0029 22.9377C98.9338 23.4652 99.6475 24.1944 100.144 25.1253C100.656 26.0407 100.912 27.0803 100.912 28.2439ZM98.7243 27.8017C98.7243 26.9949 98.5459 26.3045 98.189 25.7304C97.8322 25.1409 97.3435 24.6987 96.7229 24.4039C96.1178 24.0936 95.4429 23.9384 94.6981 23.9384C93.6276 23.9384 92.7122 24.2798 91.9519 24.9624C91.2072 25.6451 90.7805 26.5915 90.6719 27.8017H98.7243ZM122.921 38.1814L119.687 34.9465C118.895 35.1637 118.089 35.2723 117.266 35.2723C115.761 35.2723 114.388 34.9232 113.147 34.225C111.906 33.5113 110.92 32.5261 110.191 31.2694C109.478 29.9971 109.121 28.5697 109.121 26.9872C109.121 25.4046 109.478 23.985 110.191 22.7282C110.92 21.456 111.906 20.4708 113.147 19.7726C114.388 19.0589 115.761 18.702 117.266 18.702C118.787 18.702 120.168 19.0589 121.409 19.7726C122.65 20.4708 123.627 21.4482 124.341 22.705C125.055 23.9617 125.412 25.3891 125.412 26.9872C125.412 28.5387 125.07 29.9351 124.388 31.1763C123.705 32.4175 122.766 33.3949 121.572 34.1086L125.668 38.1814H122.921ZM111.285 26.9872C111.285 28.2749 111.541 29.4075 112.053 30.385C112.581 31.3625 113.294 32.1149 114.194 32.6425C115.11 33.17 116.134 33.4337 117.266 33.4337C118.399 33.4337 119.415 33.17 120.315 32.6425C121.23 32.1149 121.944 31.3625 122.456 30.385C122.984 29.4075 123.247 28.2749 123.247 26.9872C123.247 25.6839 122.984 24.5513 122.456 23.5893C121.944 22.6119 121.238 21.8594 120.338 21.3319C119.438 20.8044 118.414 20.5406 117.266 20.5406C116.118 20.5406 115.094 20.8044 114.194 21.3319C113.294 21.8594 112.581 22.6119 112.053 23.5893C111.541 24.5513 111.285 25.6839 111.285 26.9872ZM139.564 22.3559V35.1094H137.446V33.2243C137.042 33.8759 136.476 34.3879 135.747 34.7603C135.033 35.1171 134.242 35.2956 133.373 35.2956C132.38 35.2956 131.488 35.0939 130.697 34.6905C129.905 34.2716 129.277 33.6509 128.812 32.8286C128.362 32.0063 128.137 31.0056 128.137 29.8264V22.3559H130.231V29.5472C130.231 30.8039 130.549 31.7736 131.185 32.4563C131.821 33.1234 132.69 33.457 133.792 33.457C134.924 33.457 135.817 33.1079 136.468 32.4097C137.12 31.7115 137.446 30.6953 137.446 29.361V22.3559H139.564ZM154.776 28.2439C154.776 28.6473 154.752 29.074 154.706 29.5239H144.512C144.59 30.7806 145.017 31.7658 145.792 32.4795C146.584 33.1777 147.538 33.5268 148.655 33.5268C149.57 33.5268 150.331 33.3174 150.936 32.8985C151.556 32.464 151.991 31.89 152.239 31.1763H154.52C154.178 32.402 153.496 33.4027 152.472 34.1785C151.448 34.9387 150.176 35.3188 148.655 35.3188C147.445 35.3188 146.359 35.0473 145.397 34.5043C144.45 33.9613 143.706 33.1932 143.163 32.2003C142.62 31.1918 142.348 30.0281 142.348 28.7094C142.348 27.3906 142.612 26.2347 143.139 25.2417C143.667 24.2487 144.404 23.4885 145.35 22.961C146.312 22.4179 147.414 22.1464 148.655 22.1464C149.865 22.1464 150.936 22.4102 151.867 22.9377C152.798 23.4652 153.511 24.1944 154.008 25.1253C154.52 26.0407 154.776 27.0803 154.776 28.2439ZM152.588 27.8017C152.588 26.9949 152.41 26.3045 152.053 25.7304C151.696 25.1409 151.207 24.6987 150.587 24.4039C149.982 24.0936 149.307 23.9384 148.562 23.9384C147.491 23.9384 146.576 24.2798 145.816 24.9624C145.071 25.6451 144.644 26.5915 144.536 27.8017H152.588ZM162.086 35.3188C161.109 35.3188 160.232 35.1559 159.456 34.8301C158.681 34.4888 158.068 34.0233 157.618 33.4337C157.168 32.8286 156.92 32.1382 156.873 31.3625H159.061C159.123 31.9986 159.418 32.5183 159.945 32.9217C160.488 33.3251 161.194 33.5268 162.063 33.5268C162.87 33.5268 163.506 33.3484 163.971 32.9916C164.437 32.6347 164.669 32.1848 164.669 31.6417C164.669 31.0832 164.421 30.672 163.925 30.4083C163.428 30.129 162.66 29.8575 161.621 29.5937C160.674 29.3455 159.899 29.0972 159.293 28.849C158.704 28.5852 158.192 28.2051 157.757 27.7086C157.339 27.1966 157.129 26.5295 157.129 25.7072C157.129 25.0555 157.323 24.4582 157.711 23.9152C158.099 23.3721 158.65 22.9455 159.363 22.6352C160.077 22.3093 160.891 22.1464 161.807 22.1464C163.219 22.1464 164.359 22.5033 165.228 23.217C166.097 23.9307 166.562 24.9081 166.624 26.1493H164.507C164.46 25.4822 164.188 24.9469 163.692 24.5435C163.211 24.1401 162.559 23.9384 161.737 23.9384C160.977 23.9384 160.372 24.1013 159.922 24.4272C159.472 24.753 159.247 25.1796 159.247 25.7072C159.247 26.1261 159.379 26.4752 159.643 26.7544C159.922 27.0182 160.263 27.2354 160.667 27.4061C161.085 27.5612 161.659 27.7397 162.389 27.9414C163.304 28.1896 164.049 28.4378 164.623 28.6861C165.197 28.9188 165.686 29.2757 166.089 29.7566C166.508 30.2376 166.725 30.866 166.741 31.6417C166.741 32.3399 166.547 32.9683 166.159 33.5268C165.771 34.0854 165.22 34.5276 164.507 34.8534C163.808 35.1637 163.002 35.3188 162.086 35.3188ZM172.314 24.1013V31.6185C172.314 32.2391 172.446 32.6812 172.709 32.945C172.973 33.1932 173.431 33.3174 174.082 33.3174H175.642V35.1094H173.733C172.554 35.1094 171.67 34.8379 171.08 34.2948C170.491 33.7518 170.196 32.8597 170.196 31.6185V24.1013H168.543V22.3559H170.196V19.1442H172.314V22.3559H175.642V24.1013H172.314ZM179.301 20.2846C178.898 20.2846 178.557 20.145 178.277 19.8657C177.998 19.5864 177.859 19.2451 177.859 18.8417C177.859 18.4383 177.998 18.097 178.277 17.8177C178.557 17.5384 178.898 17.3988 179.301 17.3988C179.689 17.3988 180.015 17.5384 180.279 17.8177C180.558 18.097 180.698 18.4383 180.698 18.8417C180.698 19.2451 180.558 19.5864 180.279 19.8657C180.015 20.145 179.689 20.2846 179.301 20.2846ZM180.325 22.3559V35.1094H178.208V22.3559H180.325ZM189.497 35.3188C188.302 35.3188 187.216 35.0473 186.239 34.5043C185.277 33.9613 184.517 33.1932 183.958 32.2003C183.415 31.1918 183.144 30.0281 183.144 28.7094C183.144 27.4061 183.423 26.258 183.981 25.265C184.556 24.2565 185.331 23.4885 186.309 22.961C187.286 22.4179 188.38 22.1464 189.59 22.1464C190.8 22.1464 191.894 22.4179 192.872 22.961C193.849 23.4885 194.617 24.2487 195.176 25.2417C195.75 26.2347 196.037 27.3906 196.037 28.7094C196.037 30.0281 195.742 31.1918 195.152 32.2003C194.578 33.1932 193.795 33.9613 192.802 34.5043C191.809 35.0473 190.707 35.3188 189.497 35.3188ZM189.497 33.457C190.257 33.457 190.971 33.2786 191.638 32.9217C192.305 32.5649 192.841 32.0296 193.244 31.3159C193.663 30.6022 193.872 29.7334 193.872 28.7094C193.872 27.6854 193.671 26.8165 193.267 26.1028C192.864 25.3891 192.336 24.8616 191.685 24.5203C191.033 24.1634 190.327 23.985 189.567 23.985C188.791 23.985 188.078 24.1634 187.426 24.5203C186.79 24.8616 186.278 25.3891 185.89 26.1028C185.502 26.8165 185.308 27.6854 185.308 28.7094C185.308 29.7489 185.494 30.6255 185.867 31.3392C186.254 32.0529 186.766 32.5882 187.403 32.945C188.039 33.2863 188.737 33.457 189.497 33.457ZM205.035 22.1232C206.587 22.1232 207.843 22.5964 208.805 23.5428C209.767 24.4737 210.248 25.8235 210.248 27.5923V35.1094H208.154V27.8948C208.154 26.6226 207.836 25.6529 207.2 24.9857C206.563 24.303 205.695 23.9617 204.593 23.9617C203.476 23.9617 202.584 24.3108 201.917 25.009C201.265 25.7072 200.939 26.7234 200.939 28.0577V35.1094H198.821V22.3559H200.939V24.1712C201.358 23.5195 201.924 23.0153 202.638 22.6584C203.367 22.3016 204.166 22.1232 205.035 22.1232ZM219.307 33.4105C221.278 31.8279 222.821 30.5324 223.939 29.5239C225.056 28.4999 225.994 27.4371 226.755 26.3355C227.53 25.2184 227.918 24.1246 227.918 23.0541C227.918 22.0456 227.67 21.2543 227.173 20.6802C226.692 20.0907 225.909 19.7959 224.823 19.7959C223.768 19.7959 222.946 20.1294 222.356 20.7966C221.782 21.4482 221.472 22.3248 221.425 23.4264H219.377C219.439 21.6887 219.967 20.3467 220.96 19.4002C221.953 18.4538 223.233 17.9806 224.8 17.9806C226.398 17.9806 227.662 18.4228 228.593 19.3071C229.54 20.1915 230.013 21.4095 230.013 22.961C230.013 24.2487 229.625 25.5055 228.849 26.7312C228.089 27.9414 227.22 29.0119 226.243 29.9428C225.265 30.8582 224.016 31.9288 222.496 33.1545H230.501V34.9232H219.307V33.4105Z" fill="white"/>
<path d="M98.4287 76.9129C97.234 76.9129 96.1635 76.719 95.217 76.3311C94.2706 75.9432 93.5104 75.3691 92.9363 74.6089C92.3778 73.8487 92.083 72.9333 92.0519 71.8627H96.2876C96.3496 72.4678 96.5591 72.9333 96.9159 73.2591C97.2728 73.5694 97.7383 73.7245 98.3123 73.7245C98.9019 73.7245 99.3674 73.5927 99.7087 73.3289C100.05 73.0496 100.221 72.6695 100.221 72.1885C100.221 71.7851 100.081 71.4516 99.8018 71.1878C99.538 70.924 99.2044 70.7068 98.801 70.5362C98.4132 70.3655 97.8546 70.1716 97.1254 69.9543C96.0704 69.6285 95.2093 69.3027 94.5421 68.9769C93.875 68.6511 93.3009 68.1701 92.8199 67.534C92.339 66.8978 92.0985 66.0678 92.0985 65.0438C92.0985 63.5233 92.6493 62.3364 93.7508 61.483C94.8524 60.6142 96.2876 60.1798 98.0563 60.1798C99.8561 60.1798 101.307 60.6142 102.408 61.483C103.51 62.3364 104.099 63.531 104.177 65.0671H99.8716C99.8406 64.5395 99.6466 64.1284 99.2898 63.8336C98.9329 63.5233 98.4752 63.3681 97.9167 63.3681C97.4357 63.3681 97.0478 63.5 96.753 63.7638C96.4583 64.012 96.3109 64.3766 96.3109 64.8576C96.3109 65.3851 96.5591 65.7963 97.0556 66.0911C97.5521 66.3858 98.3278 66.7039 99.3829 67.0452C100.438 67.4021 101.291 67.7434 101.943 68.0692C102.61 68.3951 103.184 68.8683 103.665 69.4889C104.146 70.1095 104.387 70.9085 104.387 71.886C104.387 72.8169 104.146 73.6625 103.665 74.4227C103.2 75.183 102.517 75.7881 101.617 76.238C100.717 76.6879 99.6544 76.9129 98.4287 76.9129ZM118.588 60.4125V63.6009H114.26V76.75H110.28V63.6009H105.951V60.4125H118.588ZM124.565 63.6009V66.9056H129.895V69.9776H124.565V73.5616H130.593V76.75H120.586V60.4125H130.593V63.6009H124.565ZM151.678 60.4125V76.75H147.699V66.9522L144.045 76.75H140.833L137.156 66.9289V76.75H133.177V60.4125H137.878L142.462 71.7231L147.001 60.4125H151.678Z" fill="white"/>
<defs>
<radialGradient id="paint0_radial_36209_95686" cx="0" cy="0" r="1" gradientUnits="userSpaceOnUse" gradientTransform="translate(122.048 153.316) rotate(90) scale(60.9225 72.7239)">
<stop stop-color="#D9D9D9"/>
<stop offset="0.224916" stop-color="#E4E4E4" stop-opacity="0.36"/>
<stop offset="0.521135" stop-color="#C530B6" stop-opacity="0.13"/>
<stop offset="1" stop-color="#FFC8F9" stop-opacity="0"/>
</radialGradient>
<linearGradient id="paint1_linear_36209_95686" x1="99.3375" y1="171.799" x2="99.3949" y2="150.445" gradientUnits="userSpaceOnUse">
<stop stop-color="#600000"/>
<stop offset="1" stop-color="#B01622"/>
</linearGradient>
<radialGradient id="paint2_radial_36209_95686" cx="0" cy="0" r="1" gradientUnits="userSpaceOnUse" gradientTransform="translate(122.066 164.963) scale(12.2098 5.31799)">
<stop stop-color="#FF721B"/>
<stop offset="1" stop-color="#BE1622"/>
</radialGradient>
<radialGradient id="paint3_radial_36209_95686" cx="0" cy="0" r="1" gradientUnits="userSpaceOnUse" gradientTransform="translate(99.6886 137.672) scale(10.2202 10.2107)">
<stop stop-color="white"/>
<stop offset="0.56" stop-color="white"/>
<stop offset="0.97" stop-color="#D6D6D6"/>
<stop offset="1" stop-color="#C6C6C6"/>
</radialGradient>
<radialGradient id="paint4_radial_36209_95686" cx="0" cy="0" r="1" gradientUnits="userSpaceOnUse" gradientTransform="translate(99.6862 137.679) scale(5.49747 5.49236)">
<stop stop-color="white"/>
<stop offset="0.66" stop-color="#A4E1A4"/>
<stop offset="1" stop-color="#00AA00"/>
</radialGradient>
<linearGradient id="paint5_linear_36209_95686" x1="99.6678" y1="132.977" x2="99.6678" y2="135.277" gradientUnits="userSpaceOnUse">
<stop stop-color="white"/>
<stop offset="1" stop-color="#999999" stop-opacity="0.1"/>
</linearGradient>
<radialGradient id="paint6_radial_36209_95686" cx="0" cy="0" r="1" gradientUnits="userSpaceOnUse" gradientTransform="translate(144.22 138.038) scale(10.2199 10.2104)">
<stop stop-color="white"/>
<stop offset="0.56" stop-color="white"/>
<stop offset="0.97" stop-color="#D6D6D6"/>
<stop offset="1" stop-color="#C6C6C6"/>
</radialGradient>
<radialGradient id="paint7_radial_36209_95686" cx="0" cy="0" r="1" gradientUnits="userSpaceOnUse" gradientTransform="translate(144.217 138.032) scale(5.49802 5.4929)">
<stop stop-color="white"/>
<stop offset="0.66" stop-color="#A4E1A4"/>
<stop offset="1" stop-color="#00AA00"/>
</radialGradient>
<linearGradient id="paint8_linear_36209_95686" x1="144.207" y1="132.977" x2="144.207" y2="135.277" gradientUnits="userSpaceOnUse">
<stop stop-color="white"/>
<stop offset="1" stop-color="#999999" stop-opacity="0.1"/>
</linearGradient>
<radialGradient id="paint9_radial_36209_95686" cx="0" cy="0" r="1" gradientUnits="userSpaceOnUse" gradientTransform="translate(121.957 125.015) scale(12.6835 12.6716)">
<stop stop-color="white"/>
<stop offset="0.56" stop-color="white"/>
<stop offset="0.97" stop-color="#D6D6D6"/>
<stop offset="1" stop-color="#C6C6C6"/>
</radialGradient>
<radialGradient id="paint10_radial_36209_95686" cx="0" cy="0" r="1" gradientUnits="userSpaceOnUse" gradientTransform="translate(121.948 125.02) scale(6.82332 6.81696)">
<stop stop-color="white"/>
<stop offset="0.66" stop-color="#A4E1A4"/>
<stop offset="1" stop-color="#00AA00"/>
</radialGradient>
<linearGradient id="paint11_linear_36209_95686" x1="121.961" y1="118.734" x2="121.961" y2="121.591" gradientUnits="userSpaceOnUse">
<stop stop-color="white"/>
<stop offset="1" stop-color="#999999" stop-opacity="0.1"/>
</linearGradient>
<clipPath id="clip0_36209_95686">
<rect width="167.758" height="142.546" fill="white" transform="translate(38.2109 87.625)"/>
</clipPath>
</defs>
</svg>
