<svg width="21" height="16" viewBox="0 0 21 16" fill="none" xmlns="http://www.w3.org/2000/svg">
<path d="M11.8362 1.04033C12.1041 0.7844 12.4674 0.640625 12.8462 0.640625C13.225 0.640625 13.5883 0.7844 13.8562 1.04033L20.2849 7.18368C20.5527 7.43969 20.7031 7.78687 20.7031 8.14887C20.7031 8.51087 20.5527 8.85804 20.2849 9.11405L13.8562 15.2574C13.5867 15.5061 13.2259 15.6437 12.8513 15.6406C12.4767 15.6375 12.1184 15.4939 11.8536 15.2408C11.5887 14.9877 11.4384 14.6452 11.4352 14.2873C11.4319 13.9294 11.5759 13.5845 11.8362 13.327L15.7034 9.51405H2.13172C1.75283 9.51405 1.38946 9.37022 1.12155 9.1142C0.853637 8.85818 0.703125 8.51094 0.703125 8.14887C0.703125 7.7868 0.853637 7.43956 1.12155 7.18353C1.38946 6.92751 1.75283 6.78368 2.13172 6.78368L15.7034 6.78368L11.8362 2.97071C11.5683 2.7147 11.4179 2.36752 11.4179 2.00552C11.4179 1.64352 11.5683 1.29634 11.8362 1.04033Z" fill="white"/>
</svg>
