<svg width="320" height="240" viewBox="0 0 320 240" fill="none" xmlns="http://www.w3.org/2000/svg">
<path fill-rule="evenodd" clip-rule="evenodd" d="M159.819 239.79C132.556 241.379 103.236 233.96 83.7355 216.946C65.1517 200.732 72.8498 172.308 59.6197 152.369C43.9371 128.735 3.93961 118.556 0.363129 91.2991C-3.15854 64.4605 19.0607 38.522 42.412 21.2292C64.3689 4.96899 94.5592 2.0448 123.076 0.423859C147.112 -0.942352 172.745 0.457718 192.508 12.6976C210.412 23.7866 206.026 51.0024 223.5 62.621C249.289 79.7677 294.722 68.1134 312.103 92.2158C328.031 114.302 315.632 146.366 299.903 168.565C284.803 189.875 254.343 195.935 229.753 208.438C206.621 220.199 186.408 238.241 159.819 239.79Z" fill="url(#paint0_linear_34284_74691)" fill-opacity="0.5"/>
<path d="M83.2282 59.1859C80.0167 74.8608 86.478 87.5642 90.1102 91.9566L87.9309 106.279C79.0303 97.7545 74.9699 85.9219 74.0523 81.0712C68.5467 64.6859 72.217 44.863 79.902 46.3526C86.5451 47.6403 84.2223 54.5644 83.2282 59.1859Z" fill="#7432A0"/>
<path d="M82.6562 100.089C84.5832 95.4135 87.7412 91.8003 89.0794 90.5781L90.1117 91.8385L87.9324 106.276C85.7302 104.351 83.4974 101.349 82.6562 100.089Z" fill="#470F6B"/>
<path d="M206.226 48.9501C211.194 64.16 206.215 77.5143 203.104 82.2902L206.894 96.2738C214.77 86.7945 217.463 74.5777 217.824 69.6542C221.436 52.7501 215.542 33.471 208.076 35.8223C201.622 37.8548 204.715 44.471 206.226 48.9501Z" fill="#7432A0"/>
<path d="M211.439 89.5272C208.994 85.1006 205.446 81.8684 203.978 80.8056L203.095 82.1749L206.899 96.2724C208.868 94.1103 210.746 90.8747 211.439 89.5272Z" fill="#470F6B"/>
<path d="M149.636 37.4168C124.219 34.7585 115.265 50.4411 113.965 58.6147C114.974 67.2313 106.203 72.7466 101.692 74.4271C82.996 90.2396 87.6986 114.073 91.8278 119.573C95.1311 123.973 92.4395 127.441 90.6808 128.625C67.9246 149.525 81.6196 174.229 93.4336 183.968C129.678 210.827 187.028 202.34 211.229 194.395C255.273 168.271 247.359 151.083 233.366 144.323C219.373 137.562 211.458 127.594 211.229 117.51C211 107.427 211.688 83.1354 192.533 73.2813C173.378 63.4272 181.981 69.3855 173.723 55.1772C167.116 43.8106 154.912 38.6009 149.636 37.4168Z" fill="#7432A0"/>
<path d="M172.341 58.6115C170.964 51.5532 164.503 46.0456 161.444 44.174C156.627 40.259 151.007 39.4761 158.691 46.2365C164.839 51.6448 166.491 56.3198 168.326 60.7886C171.197 67.7781 172.646 61.5143 172.341 58.6115Z" fill="#AF6ADC"/>
<path d="M204.117 91.2761C203.199 83.0261 193.412 76.8386 188.633 74.7761C184.504 72.5979 177.736 73.2866 188.059 78.7865C196.317 83.1865 196.088 87.9532 199.07 93.1094C204.025 102.643 204.499 95.8594 204.117 91.2761Z" fill="#AF6ADC"/>
<ellipse cx="204.005" cy="102.266" rx="1.94987" ry="2.40624" fill="#AF6ADC"/>
<ellipse cx="1.49103" cy="2.97925" rx="1.49103" ry="2.97925" transform="matrix(0.984394 0.175978 -0.176322 0.984333 115.82 57.1406)" fill="#AF6ADC"/>
<path d="M94.0069 90.2453C94.8327 81.812 101.615 76.037 104.903 74.2037C109.377 71.6829 111.441 72.3704 105.362 77.412C100.499 81.4453 97.9831 85.8148 97.3332 87.4953C94.3969 99.2286 93.8922 94.2175 94.0069 90.2453Z" fill="#AF6ADC"/>
<path d="M134.719 86.0033C129.397 85.7284 126.155 82.8332 125.199 81.42C123.326 79.3193 120.336 76.493 123.364 81.9929C127.149 88.8679 132.081 89.2117 135.407 89.2117C138.829 89.2117 141.372 86.3471 134.719 86.0033Z" fill="#AF6ADC"/>
<path d="M88.8427 134.701C90.6779 129.751 87.0075 133.478 84.9429 135.961C82.1796 139.284 80.5615 147.03 81.8461 151.888C83.4519 157.961 86.2046 156.357 85.6311 150.971C85.0576 145.586 86.5487 140.888 88.8427 134.701Z" fill="#AF6ADC"/>
<path d="M148.951 131.491C139.133 134.424 128.573 131.796 124.521 130.116C120.391 128.397 114.45 126.862 123.718 134.47C135.302 143.98 148.076 140.175 151.016 138.022C154.457 135.501 161.224 127.824 148.951 131.491Z" fill="#470F6B"/>
<path d="M181.868 143.289C204.165 132.289 210.198 110.747 210.428 101.352C210.428 123.351 213.869 134.581 233.367 144.091C252.866 153.601 244.264 167.924 231.073 182.476C220.521 194.118 198.308 198.862 188.52 199.778C127.752 212.963 94.5034 188.908 85.4365 175.189C85.4262 175.174 85.4161 175.158 85.4062 175.143C85.4163 175.158 85.4264 175.174 85.4365 175.189C88.2088 179.303 107.195 184.049 116.375 185.914C160.327 194.805 185.691 174.723 192.879 163.57C208.294 144.595 191.961 142.143 181.868 143.289Z" fill="#470F6B"/>
<path d="M230.727 145.01C220.634 141.985 215.205 135.806 213.752 133.094C212.911 135.08 212.651 139.946 218.34 143.521C224.029 147.096 229.657 150.358 231.76 151.542C233.977 152.993 238.321 155.025 237.953 151.542C237.586 148.058 232.983 145.736 230.727 145.01Z" fill="#7432A0"/>
<ellipse cx="141.031" cy="63.8853" rx="20.8751" ry="20.8541" fill="#470F6B"/>
<ellipse cx="141.031" cy="63.888" rx="17.6636" ry="17.6458" fill="#F5F5F5"/>
<ellipse cx="141.031" cy="63.8854" rx="12.6168" ry="12.6041" fill="url(#paint1_radial_34284_74691)"/>
<ellipse cx="140.574" cy="64.1146" rx="5.96432" ry="5.95831" fill="#221F38"/>
<ellipse cx="139.655" cy="105.591" rx="27.757" ry="12.8333" fill="url(#paint2_linear_34284_74691)"/>
<path d="M134.384 99.404C131.631 99.129 131.861 95.1263 132.319 93.2166C134.705 92.8499 138.054 92.6436 139.89 92.7582L139.89 96.4249C139.89 99.0603 137.825 99.7478 134.384 99.404Z" fill="url(#paint3_linear_34284_74691)"/>
<path d="M143.209 99.289C141.007 99.1057 141.068 94.7821 141.374 92.7578C142.865 92.7578 147.032 93.1016 148.944 93.4453C150.045 97.2036 148.256 98.9835 147.224 99.289C146.803 99.3654 145.411 99.4724 143.209 99.289Z" fill="url(#paint4_linear_34284_74691)"/>
<defs>
<linearGradient id="paint0_linear_34284_74691" x1="490.93" y1="311.227" x2="490.93" y2="71.2266" gradientUnits="userSpaceOnUse">
<stop stop-color="#F87CE0"/>
<stop offset="1" stop-color="#7EBBEB"/>
</linearGradient>
<radialGradient id="paint1_radial_34284_74691" cx="0" cy="0" r="1" gradientUnits="userSpaceOnUse" gradientTransform="translate(141.031 63.8854) rotate(90) scale(12.6041 12.6168)">
<stop offset="0.375" stop-color="#E5B8CF"/>
<stop offset="0.901042" stop-color="#18BC29"/>
</radialGradient>
<linearGradient id="paint2_linear_34284_74691" x1="139.655" y1="118.424" x2="139.655" y2="92.7578" gradientUnits="userSpaceOnUse">
<stop stop-color="#221F38"/>
<stop offset="1" stop-color="#413C65"/>
</linearGradient>
<linearGradient id="paint3_linear_34284_74691" x1="135.964" y1="92.8728" x2="135.964" y2="99.4861" gradientUnits="userSpaceOnUse">
<stop stop-color="#D9D6D7"/>
<stop offset="0.734375" stop-color="white"/>
</linearGradient>
<linearGradient id="paint4_linear_34284_74691" x1="145.254" y1="92.9184" x2="145.254" y2="99.3902" gradientUnits="userSpaceOnUse">
<stop stop-color="#D9D9D9"/>
<stop offset="0.770833" stop-color="white"/>
</linearGradient>
</defs>
</svg>
