<svg width="52" height="50" viewBox="0 0 52 50" fill="none" xmlns="http://www.w3.org/2000/svg">
<ellipse cx="26.2795" cy="43.2396" rx="22.2639" ry="5.8021" fill="url(#paint0_radial_34254_128902)" fill-opacity="0.5"/>
<path d="M51.0328 17.6466C48.8146 14.8079 45.5971 20.2277 38.6998 24.6557C31.7229 29.1341 31.4989 29.0749 34.1247 33.1646C38.2645 39.6118 54.2437 21.7565 51.0328 17.6466Z" fill="#FF122F"/>
<path opacity="0.2" d="M50.0474 18.709C48.1814 16.3213 45.4751 20.8803 39.6724 24.6047C33.8045 28.3726 33.6155 28.3222 35.8242 31.7618C39.3067 37.1858 52.7484 22.166 50.0474 18.709Z" fill="white"/>
<path d="M1.37654 17.6466C3.59435 14.8079 6.81161 20.2277 13.7095 24.6557C20.6864 29.1341 20.9101 29.0749 18.284 33.1646C14.1445 39.6118 -1.83506 21.7565 1.37654 17.6466Z" fill="#FF122F"/>
<path opacity="0.2" d="M2.35602 18.709C4.222 16.3213 6.92836 20.8803 12.731 24.6047C18.5995 28.3726 18.7879 28.3222 16.5792 31.7618C13.0974 37.1858 -0.344984 22.166 2.35602 18.709Z" fill="white"/>
<path d="M43.0174 29.48C43.0174 20.1559 35.4587 9.75 26.1336 9.75C16.809 9.75 9.25 20.1559 9.25 29.48C9.25 35.9366 12.8749 42.3388 18.201 43.2055C20.5662 43.5907 23.2662 39.6736 26.1336 39.6736C29.1751 39.6736 32.0282 43.5803 34.4933 43.1321C35.4269 42.9621 36.3048 42.6068 37.1159 42.1016C40.7281 39.8487 43.0174 34.6109 43.0174 29.48Z" fill="#FF122F"/>
<path d="M9.1875 8.24913C9.26499 8.41952 9.36358 8.59243 9.47382 8.76661C9.47288 8.76724 9.47225 8.76755 9.47099 8.76787C12.1865 13.3631 15.7389 16.873 19.6621 16.873C22.5905 16.873 25.3513 14.9609 27.68 12.0626C27.1247 10.9883 24.9796 7.82016 22.7108 6.76473C23.3496 7.54142 23.5398 7.78331 23.8334 8.61228C21.3337 7.24473 17.7551 6.12977 14.1533 6.80378C16.8911 7.04095 17.5302 7.64535 18.0481 8.09386C16.5371 8.12567 13.5334 6.63654 10.0682 7.66488C10.604 7.6715 12.7985 7.66268 13.4026 8.19149C13.1236 8.2885 10.1482 7.6422 9.1875 8.24913Z" fill="#FF122F"/>
<path d="M9.62583 11.2031C9.79152 11.2444 9.96255 11.3033 10.1374 11.3732C10.138 11.3723 10.138 11.3716 10.1383 11.371C14.7113 13.0321 18.4521 15.6255 19.1101 19.1404C19.6015 21.7634 18.3513 24.558 16.1454 27.13C15.0896 26.8122 11.8909 25.4222 10.5645 23.5671C11.368 24.0093 11.6162 24.1388 12.4084 24.2626C10.7639 22.2528 9.16438 19.2343 9.16406 15.8941C9.83593 18.3073 10.4845 18.7782 10.9737 19.1672C10.7481 17.8084 8.91018 15.3672 9.25037 12.0904C9.34612 12.5694 9.70615 14.5366 10.2816 14.9892C10.3213 14.7228 9.24312 12.1656 9.62583 11.2031Z" fill="#FF122F"/>
<path d="M43.0869 8.24913C43.0091 8.41952 42.9102 8.59243 42.8003 8.76661C42.8009 8.76724 42.8022 8.76755 42.8031 8.76787C40.0879 13.3631 36.5355 16.873 32.6124 16.873C29.6839 16.873 26.9228 14.9609 24.5938 12.0626C25.1497 10.9883 27.2948 7.82016 29.5633 6.76473C28.9242 7.54142 28.7346 7.78331 28.441 8.61228C30.9407 7.24473 34.5193 6.12977 38.1211 6.80378C35.3833 7.04095 34.7442 7.64535 34.226 8.09386C35.7367 8.12567 38.7407 6.63654 42.2062 7.66488C41.6704 7.6715 39.4756 7.66268 38.8718 8.19149C39.1508 8.2885 42.1259 7.6422 43.0869 8.24913Z" fill="#FF122F"/>
<path d="M42.6447 11.2031C42.4793 11.2444 42.308 11.3033 42.1338 11.3732C42.1332 11.3723 42.1332 11.3716 42.1325 11.371C37.5596 13.0321 33.8191 15.6255 33.1611 19.1404C32.6694 21.7634 33.9196 24.558 36.1258 27.13C37.1813 26.8122 40.3803 25.4222 41.7064 23.5671C40.9028 24.0093 40.6549 24.1388 39.8621 24.2626C41.5073 22.2528 43.1062 19.2343 43.1068 15.8941C42.4352 18.3073 41.7864 18.7782 41.2975 19.1672C41.5224 17.8084 43.361 15.3672 43.0208 12.0904C42.925 12.5694 42.565 14.5366 41.9895 14.9892C41.9489 14.7228 43.0277 12.1656 42.6447 11.2031Z" fill="#FF122F"/>
<path opacity="0.2" d="M38.3004 20.4215C38.9322 19.1478 39.3757 17.6722 39.3757 16.1075C38.844 18.0177 38.3306 18.3903 37.9432 18.6981C38.1218 17.6228 39.577 15.6905 39.3074 13.0975C39.2315 13.4764 38.9464 15.0332 38.4912 15.3916C38.4597 15.1806 39.3134 13.1567 39.0107 12.3948C38.879 12.4275 38.7432 12.4745 38.6049 12.5296V12.5277C38.1936 12.677 37.791 12.8357 37.3995 13.0039C38.015 12.2316 38.5942 11.375 39.1322 10.4644C39.131 10.4641 39.131 10.4638 39.13 10.4635C39.2176 10.3255 39.2954 10.1888 39.3568 10.054C38.5961 9.57339 36.2413 10.0849 36.0205 10.0083C36.4983 9.58945 38.2358 9.5967 38.6598 9.59197C35.9172 8.77749 33.5397 9.95638 32.344 9.93118C32.7541 9.57591 33.2593 9.09749 35.4267 8.91009C32.5758 8.37655 29.7431 9.25906 27.7647 10.3413C27.9978 9.68552 28.1477 9.49402 28.6536 8.87891C27.6513 9.34505 26.6815 10.3306 25.9422 11.2594C25.2026 10.3306 24.2318 9.34505 23.2302 8.87891C23.7357 9.49402 23.8863 9.68552 24.1187 10.3413C22.1403 9.25906 19.308 8.37655 16.4564 8.91009C18.6241 9.09749 19.1297 9.57591 19.5401 9.93118C18.3441 9.95638 15.9663 8.77749 13.224 9.59197C13.648 9.5967 15.3848 9.58945 15.8633 10.0083C15.6418 10.0849 13.287 9.57339 12.5269 10.054C12.588 10.1888 12.6662 10.3255 12.7537 10.4635C12.7531 10.4638 12.7525 10.4641 12.7515 10.4644C13.2895 11.375 13.8688 12.2316 14.4839 13.0039C14.0924 12.8357 13.6899 12.677 13.2788 12.5277C13.2785 12.528 13.2785 12.5286 13.2785 12.5296C13.1399 12.4745 13.0045 12.4275 12.8734 12.3948C12.5704 13.1567 13.4237 15.1806 13.3925 15.3916C12.9371 15.0332 12.652 13.4764 12.5758 13.0975C12.3071 15.6905 13.762 17.6228 13.94 18.6981C13.5532 18.3903 13.0397 18.0177 12.5077 16.1075C12.5077 17.8206 13.0397 19.4266 13.768 20.7777C12.1058 23.8542 11.1328 27.3758 11.1328 30.726C11.1328 39.5272 17.8483 39.0349 26.1324 39.0349C34.4169 39.0349 41.1324 39.5272 41.1324 30.726C41.1324 27.2457 40.0819 23.5809 38.3004 20.4215Z" fill="white"/>
<ellipse opacity="0.9" cx="26.4232" cy="27.4488" rx="15.556" ry="9.63632" fill="url(#paint1_radial_34254_128902)"/>
<path d="M39.8657 30.339C39.8657 31.9024 38.5982 33.1701 37.0343 33.1701H15.4877C13.9238 33.1701 12.6562 31.9024 12.6562 30.339C12.6562 28.7755 13.9238 27.5078 15.4877 27.5078H37.0343C38.5982 27.5078 39.8657 28.7755 39.8657 30.339Z" fill="white"/>
<path d="M25.0625 20.1501C25.0625 22.7982 22.9162 24.9453 20.2678 24.9453C17.6191 24.9453 15.4724 22.7982 15.4724 20.1501C15.4724 17.5016 17.6191 15.3548 20.2678 15.3548C22.9162 15.3548 25.0625 17.5016 25.0625 20.1501Z" fill="#DA4854"/>
<path fill-rule="evenodd" clip-rule="evenodd" d="M24.7512 20.1486C24.7512 22.6254 22.7432 24.6332 20.2662 24.6332C17.7892 24.6332 15.7812 22.6254 15.7812 20.1486C15.7812 17.6719 17.7892 15.6641 20.2662 15.6641C22.7432 15.6641 24.7512 17.6719 24.7512 20.1486Z" fill="url(#paint2_radial_34254_128902)"/>
<path fill-rule="evenodd" clip-rule="evenodd" d="M22.6848 20.1469C22.6848 21.4793 21.6046 22.5594 20.2721 22.5594C18.9396 22.5594 17.8594 21.4793 17.8594 20.1469C17.8594 18.8145 18.9396 17.7344 20.2721 17.7344C21.6046 17.7344 22.6848 18.8145 22.6848 20.1469Z" fill="url(#paint3_radial_34254_128902)"/>
<path d="M21.3984 20.1528C21.3984 20.7761 20.8932 21.2812 20.2702 21.2812C19.6465 21.2812 19.1412 20.7761 19.1412 20.1528C19.1412 19.5295 19.6465 19.0243 20.2702 19.0243C20.8932 19.0243 21.3984 19.5295 21.3984 20.1528Z" fill="#2E2A49"/>
<ellipse cx="20.2729" cy="18.962" rx="1.34324" ry="1.03227" fill="url(#paint4_radial_34254_128902)"/>
<path d="M36.7969 20.1498C36.7969 22.7982 34.6506 24.9453 32.0012 24.9453C29.3528 24.9453 27.2062 22.7982 27.2062 20.1498C27.2062 17.5013 29.3528 15.3545 32.0012 15.3545C34.6506 15.3545 36.7969 17.5013 36.7969 20.1498Z" fill="#DA4854"/>
<path fill-rule="evenodd" clip-rule="evenodd" d="M36.4936 20.1488C36.4936 22.6256 34.4855 24.6335 32.0085 24.6335C29.5315 24.6335 27.5234 22.6256 27.5234 20.1488C27.5234 17.6719 29.5315 15.6641 32.0085 15.6641C34.4855 15.6641 36.4936 17.6719 36.4936 20.1488Z" fill="url(#paint5_radial_34254_128902)"/>
<path fill-rule="evenodd" clip-rule="evenodd" d="M34.4192 20.1547C34.4192 21.4871 33.339 22.5672 32.0065 22.5672C30.674 22.5672 29.5938 21.4871 29.5938 20.1547C29.5938 18.8223 30.674 17.7422 32.0065 17.7422C33.339 17.7422 34.4192 18.8223 34.4192 20.1547Z" fill="url(#paint6_radial_34254_128902)"/>
<path d="M33.1328 20.1524C33.1328 20.7761 32.6276 21.2812 32.0045 21.2812C31.3812 21.2812 30.8762 20.7761 30.8762 20.1524C30.8762 19.5291 31.3812 19.0239 32.0045 19.0239C32.6276 19.0239 33.1328 19.5291 33.1328 20.1524Z" fill="#2E2A49"/>
<ellipse cx="32.0073" cy="18.962" rx="1.34324" ry="1.03227" fill="url(#paint7_radial_34254_128902)"/>
<path d="M15.4896 27.3752C13.9293 27.3752 12.6624 28.6479 12.6624 30.2081C12.6624 31.7741 13.9293 33.0409 15.4896 33.0409H37.04C38.6002 33.0409 39.8672 31.7741 39.8672 30.2081C39.8672 28.6479 38.6002 27.3752 37.04 27.3752H15.4896Z" fill="url(#paint8_linear_34254_128902)"/>
<path d="M15.2969 27.375V27.8468C15.2969 28.2736 15.643 28.6203 16.0699 28.6203C16.4973 28.6203 16.8431 28.2736 16.8431 27.8468V27.375H15.2969Z" fill="#EDDD9A"/>
<path d="M15.4219 27.375V27.7731C15.4219 28.1328 15.7139 28.4248 16.0739 28.4248C16.4342 28.4248 16.7262 28.1328 16.7262 27.7731V27.375H15.4219Z" fill="white"/>
<rect width="1.54627" height="0.455116" transform="matrix(-1 0 0 1 16.8438 27.375)" fill="#E66D28"/>
<path d="M17.3284 27.375C17.3284 27.3759 17.3281 27.3778 17.3281 27.3791V27.8468C17.3281 28.2736 17.6746 28.6203 18.1014 28.6203C18.5282 28.6203 18.8747 28.2736 18.8747 27.8468V27.3791C18.8747 27.3778 18.8744 27.3759 18.8744 27.375H17.3284Z" fill="#EDDD9A"/>
<path d="M17.4531 27.375V27.7731C17.4531 28.1328 17.7448 28.4248 18.1048 28.4248C18.4648 28.4248 18.7571 28.1328 18.7571 27.7731V27.375H17.4531Z" fill="white"/>
<rect width="1.54625" height="0.455116" transform="matrix(-1 0 0 1 18.875 27.375)" fill="#E66D28"/>
<path d="M19.3594 27.375V27.8468C19.3594 28.2736 19.7055 28.6203 20.133 28.6203C20.5598 28.6203 20.906 28.2736 20.906 27.8468V27.375H19.3594Z" fill="#EDDD9A"/>
<path d="M19.4847 27.375C19.4844 27.3759 19.4844 27.3772 19.4844 27.3785V27.7731C19.4844 28.1328 19.7764 28.4248 20.1364 28.4248C20.4964 28.4248 20.7884 28.1328 20.7884 27.7731V27.3785C20.7884 27.3772 20.7881 27.3759 20.7881 27.375H19.4847Z" fill="white"/>
<rect width="1.54659" height="0.4548" transform="matrix(1 0 0 -1 19.3594 27.8281)" fill="#E66D28"/>
<path d="M21.3906 27.375V27.8468C21.3906 28.2736 21.7368 28.6203 22.1642 28.6203C22.591 28.6203 22.9372 28.2736 22.9372 27.8468V27.375H21.3906Z" fill="#EDDD9A"/>
<path d="M21.5156 27.375V27.7731C21.5156 28.1328 21.8076 28.4248 22.168 28.4248C22.528 28.4248 22.82 28.1328 22.82 27.7731V27.375H21.5156Z" fill="white"/>
<rect width="1.54657" height="0.4548" transform="matrix(1 0 0 -1 21.3906 27.8281)" fill="#E66D28"/>
<path d="M23.4219 27.375V27.8468C23.4219 28.2736 23.768 28.6203 24.1949 28.6203C24.6223 28.6203 24.9681 28.2736 24.9681 27.8468V27.375H23.4219Z" fill="#EDDD9A"/>
<path d="M23.5469 27.375V27.7731C23.5469 28.1328 23.8389 28.4248 24.1989 28.4248C24.5592 28.4248 24.8512 28.1328 24.8512 27.7731V27.375H23.5469Z" fill="white"/>
<rect width="1.54627" height="0.4548" transform="matrix(1 0 0 -1 23.4219 27.8281)" fill="#E66D28"/>
<path d="M25.4538 27.375C25.4538 27.3759 25.4531 27.3778 25.4531 27.3791V27.8468C25.4531 28.2736 25.7999 28.6203 26.2264 28.6203C26.6542 28.6203 27 28.2736 27 27.8468V27.375H25.4538Z" fill="#EDDD9A"/>
<path d="M25.5788 27.375C25.5788 27.3759 25.5781 27.3772 25.5781 27.3785V27.7731C25.5781 28.1328 25.8704 28.4248 26.2301 28.4248C26.5908 28.4248 26.8828 28.1328 26.8828 27.7731V27.375H25.5788Z" fill="white"/>
<rect width="1.54627" height="0.455116" transform="matrix(-1 0 0 1 27 27.375)" fill="#E66D28"/>
<path d="M27.4844 27.375V27.8468C27.4844 28.2736 27.8305 28.6203 28.258 28.6203C28.6848 28.6203 29.0313 28.2736 29.0313 27.8468V27.3791C29.0313 27.3778 29.0306 27.3759 29.0306 27.375H27.4844Z" fill="#EDDD9A"/>
<path d="M27.61 27.375C27.6094 27.3759 27.6094 27.3772 27.6094 27.3785V27.7731C27.6094 28.1328 27.9014 28.4248 28.2617 28.4248C28.6217 28.4248 28.9137 28.1328 28.9137 27.7731V27.375H27.61Z" fill="white"/>
<rect width="1.54687" height="0.4548" transform="matrix(1 0 0 -1 27.4844 27.8281)" fill="#E66D28"/>
<path d="M29.5156 27.375V27.8468C29.5156 28.2736 29.8618 28.6203 30.2886 28.6203C30.716 28.6203 31.0619 28.2736 31.0619 27.8468V27.375H29.5156Z" fill="#EDDD9A"/>
<path d="M29.6406 27.375V27.7731C29.6406 28.1328 29.9326 28.4248 30.2923 28.4248C30.653 28.4248 30.945 28.1328 30.945 27.7731V27.375H29.6406Z" fill="white"/>
<rect width="1.54625" height="0.455116" transform="matrix(-1 0 0 1 31.0625 27.375)" fill="#E66D28"/>
<path d="M31.5469 27.375V27.8468C31.5469 28.2736 31.893 28.6203 32.3198 28.6203C32.7476 28.6203 33.0934 28.2736 33.0934 27.8468V27.375H31.5469Z" fill="#EDDD9A"/>
<path d="M31.6719 27.375V27.7731C31.6719 28.1328 31.9639 28.4248 32.3236 28.4248C32.6842 28.4248 32.9762 28.1328 32.9762 27.7731V27.375H31.6719Z" fill="white"/>
<rect width="1.54627" height="0.4548" transform="matrix(1 0 0 -1 31.5469 27.8281)" fill="#E66D28"/>
<path d="M33.5781 27.375V27.8468C33.5781 28.2736 33.9243 28.6203 34.3508 28.6203C34.7779 28.6203 35.1244 28.2736 35.1244 27.8468V27.3791C35.1244 27.3778 35.1238 27.3759 35.1238 27.375H33.5781Z" fill="#EDDD9A"/>
<path d="M33.7031 27.375V27.7731C33.7031 28.1328 33.9951 28.4248 34.3548 28.4248C34.7149 28.4248 35.0075 28.1328 35.0075 27.7731V27.3785C35.0075 27.3772 35.0069 27.3759 35.0069 27.375H33.7031Z" fill="white"/>
<rect width="1.54627" height="0.455116" transform="matrix(-1 0 0 1 35.125 27.375)" fill="#E66D28"/>
<path d="M35.61 27.375C35.61 27.3759 35.6094 27.3778 35.6094 27.3791V27.8468C35.6094 28.2736 35.9562 28.6203 36.383 28.6203C36.8098 28.6203 37.1556 28.2736 37.1556 27.8468V27.375H35.61Z" fill="#EDDD9A"/>
<path d="M35.7344 27.375V27.7731C35.7344 28.1328 36.0261 28.4248 36.3861 28.4248C36.7461 28.4248 37.0378 28.1328 37.0378 27.7731V27.375H35.7344Z" fill="white"/>
<rect width="1.54563" height="0.455116" transform="matrix(-1 0 0 1 37.1562 27.375)" fill="#E66D28"/>
<path d="M15.3359 33.0338V32.5626C15.3359 32.1352 15.6821 31.7891 16.1089 31.7891C16.5364 31.7891 16.8822 32.1352 16.8822 32.5626V33.0338H15.3359Z" fill="#EDDD9A"/>
<path d="M15.4531 33.0341V32.6367C15.4531 32.2763 15.7451 31.9844 16.1051 31.9844C16.4655 31.9844 16.7575 32.2763 16.7575 32.6367V33.0341H15.4531Z" fill="white"/>
<rect width="1.54627" height="0.455118" transform="matrix(-1 0 0 1 16.8828 32.5859)" fill="#E66D28"/>
<path d="M17.3675 33.0338C17.3675 33.0328 17.3672 33.0316 17.3672 33.0303V32.5626C17.3672 32.1352 17.7137 31.7891 18.1405 31.7891C18.5676 31.7891 18.9138 32.1352 18.9138 32.5626V33.0338H17.3675Z" fill="#EDDD9A"/>
<path d="M17.4844 33.0341V32.6367C17.4844 32.2763 17.776 31.9844 18.1361 31.9844C18.4964 31.9844 18.7884 32.2763 18.7884 32.6367V33.0313C18.7884 33.0319 18.7878 33.0332 18.7878 33.0341H17.4844Z" fill="white"/>
<rect width="1.54627" height="0.455114" transform="matrix(1 0 0 -1 17.3672 33.0391)" fill="#E66D28"/>
<path d="M19.3988 33.0338C19.3988 33.0328 19.3984 33.0316 19.3984 33.0303V32.5626C19.3984 32.1352 19.7449 31.7891 20.172 31.7891C20.5988 31.7891 20.9453 32.1352 20.9453 32.5626V33.0303C20.9453 33.0316 20.945 33.0328 20.945 33.0338H19.3988Z" fill="#EDDD9A"/>
<path d="M19.5159 33.0341C19.5156 33.0332 19.5156 33.0319 19.5156 33.0313V32.6367C19.5156 32.2763 19.8079 31.9844 20.1676 31.9844C20.5277 31.9844 20.82 32.2763 20.82 32.6367V33.0313C20.82 33.0319 20.8197 33.0332 20.8197 33.0341H19.5159Z" fill="white"/>
<rect width="1.54657" height="0.455118" transform="matrix(-1 0 0 1 20.9453 32.5859)" fill="#E66D28"/>
<path d="M21.4297 33.0338V32.5626C21.4297 32.1352 21.7765 31.7891 22.2033 31.7891C22.6304 31.7891 22.9763 32.1352 22.9763 32.5626V33.0338H21.4297Z" fill="#EDDD9A"/>
<path d="M21.5472 33.0341C21.5469 33.0332 21.5469 33.0319 21.5469 33.0313V32.6367C21.5469 32.2763 21.8392 31.9844 22.1992 31.9844C22.5592 31.9844 22.8512 32.2763 22.8512 32.6367V33.0341H21.5472Z" fill="white"/>
<rect width="1.54625" height="0.455114" transform="matrix(1 0 0 -1 21.4297 33.0391)" fill="#E66D28"/>
<path d="M23.4609 33.0338V32.5626C23.4609 32.1352 23.8071 31.7891 24.2339 31.7891C24.6614 31.7891 25.0072 32.1352 25.0072 32.5626V33.0338H23.4609Z" fill="#EDDD9A"/>
<path d="M23.5781 33.0341V32.6367C23.5781 32.2763 23.8701 31.9844 24.2301 31.9844C24.5905 31.9844 24.8825 32.2763 24.8825 32.6367V33.0341H23.5781Z" fill="white"/>
<rect width="1.54627" height="0.455118" transform="matrix(-1 0 0 1 25.0078 32.5859)" fill="#E66D28"/>
<path d="M25.4922 33.0338V32.5626C25.4922 32.1352 25.8384 31.7891 26.2649 31.7891C26.692 31.7891 27.0385 32.1352 27.0385 32.5626V33.0338H25.4922Z" fill="#EDDD9A"/>
<path d="M25.6094 33.0341V32.6367C25.6094 32.2763 25.9014 31.9844 26.2608 31.9844C26.6211 31.9844 26.9134 32.2763 26.9134 32.6367V33.0313C26.9134 33.0319 26.9128 33.0332 26.9128 33.0341H25.6094Z" fill="white"/>
<rect width="1.54625" height="0.455118" transform="matrix(-1 0 0 1 27.0391 32.5859)" fill="#E66D28"/>
<path d="M27.5241 33.0338C27.5241 33.0328 27.5234 33.0316 27.5234 33.0303V32.5626C27.5234 32.1352 27.8702 31.7891 28.2971 31.7891C28.7239 31.7891 29.0697 32.1352 29.0697 32.5626V33.0338H27.5241Z" fill="#EDDD9A"/>
<path d="M27.6413 33.0341C27.6413 33.0332 27.6406 33.0319 27.6406 33.0313V32.6367C27.6406 32.2763 27.9332 31.9844 28.293 31.9844C28.653 31.9844 28.945 32.2763 28.945 32.6367V33.0341H27.6413Z" fill="white"/>
<rect width="1.54563" height="0.455118" transform="matrix(-1 0 0 1 29.0703 32.5859)" fill="#E66D28"/>
<path d="M29.5547 33.0338V32.5626C29.5547 32.1352 29.9009 31.7891 30.3283 31.7891C30.7554 31.7891 31.1013 32.1352 31.1013 32.5626V33.0338H29.5547Z" fill="#EDDD9A"/>
<path d="M29.6725 33.0341C29.6725 33.0332 29.6719 33.0319 29.6719 33.0313V32.6367C29.6719 32.2763 29.9645 31.9844 30.3242 31.9844C30.6842 31.9844 30.9762 32.2763 30.9762 32.6367V33.0341H29.6725Z" fill="white"/>
<rect width="1.54627" height="0.455114" transform="matrix(1 0 0 -1 29.5547 33.0391)" fill="#E66D28"/>
<path d="M31.5859 33.0338V32.5626C31.5859 32.1352 31.9321 31.7891 32.3592 31.7891C32.7863 31.7891 33.1322 32.1352 33.1322 32.5626V33.0338H31.5859Z" fill="#EDDD9A"/>
<path d="M31.7031 33.0341V32.6367C31.7031 32.2763 31.9951 31.9844 32.3555 31.9844C32.7155 31.9844 33.0075 32.2763 33.0075 32.6367V33.0341H31.7031Z" fill="white"/>
<rect width="1.54629" height="0.455118" transform="matrix(-1 0 0 1 33.1328 32.5859)" fill="#E66D28"/>
<path d="M33.6178 33.0338C33.6178 33.0328 33.6172 33.0316 33.6172 33.0303V32.5626C33.6172 32.1352 33.964 31.7891 34.3908 31.7891C34.8182 31.7891 35.1641 32.1352 35.1641 32.5626V33.0338H33.6178Z" fill="#EDDD9A"/>
<path d="M33.7344 33.0341V32.6367C33.7344 32.2763 34.0264 31.9844 34.3864 31.9844C34.7467 31.9844 35.0387 32.2763 35.0387 32.6367V33.0341H33.7344Z" fill="white"/>
<rect width="1.54625" height="0.455118" transform="matrix(-1 0 0 1 35.1641 32.5859)" fill="#E66D28"/>
<path d="M35.6484 33.0338V32.5626C35.6484 32.1352 35.9946 31.7891 36.422 31.7891C36.8488 31.7891 37.1953 32.1352 37.1953 32.5626V33.0338H35.6484Z" fill="#EDDD9A"/>
<path d="M35.7663 33.0341C35.7656 33.0332 35.7656 33.0319 35.7656 33.0313V32.6367C35.7656 32.2763 36.0579 31.9844 36.418 31.9844C36.778 31.9844 37.0703 32.2763 37.0703 32.6367V33.0313C37.0703 33.0319 37.0697 33.0332 37.0697 33.0341H35.7663Z" fill="white"/>
<rect width="1.54689" height="0.455114" transform="matrix(1 0 0 -1 35.6484 33.0391)" fill="#E66D28"/>
<path d="M30.1257 12.9798C30.1047 13.5465 30.5525 13.9942 31.1262 14.0501C31.5739 14.0991 32.3855 13.8473 33.3439 13.5954C34.5263 13.2876 35.9325 12.9798 37.1218 13.2317C33.9036 11.8675 31.7698 12.0005 31.1961 11.9795C31.1891 11.9795 31.1751 11.9795 31.1611 11.9795C30.6084 11.9795 30.1467 12.4202 30.1257 12.9798Z" fill="url(#paint9_linear_34254_128902)"/>
<path d="M21.0695 11.9795C20.4958 12.0005 18.362 11.8676 15.1438 13.2317C16.3332 12.9798 17.7394 13.2876 18.9217 13.5954C19.8802 13.8473 20.6917 14.0991 21.1395 14.0502C21.7132 13.9942 22.1609 13.5465 22.1399 12.9798C22.1189 12.4202 21.6572 11.9795 21.1045 11.9795C21.0905 11.9795 21.0765 11.9795 21.0695 11.9795Z" fill="url(#paint10_linear_34254_128902)"/>
<defs>
<radialGradient id="paint0_radial_34254_128902" cx="0" cy="0" r="1" gradientUnits="userSpaceOnUse" gradientTransform="translate(26.2795 43.2396) rotate(90) scale(5.8021 22.2639)">
<stop offset="0.078125"/>
<stop offset="1" stop-opacity="0"/>
</radialGradient>
<radialGradient id="paint1_radial_34254_128902" cx="0" cy="0" r="1" gradientUnits="userSpaceOnUse" gradientTransform="translate(26.4232 27.4488) rotate(90) scale(9.6176 15.556)">
<stop stop-color="white" stop-opacity="0.85"/>
<stop offset="0.40414" stop-color="white" stop-opacity="0.36"/>
<stop offset="0.681066" stop-color="#EC8F3A" stop-opacity="0.24"/>
<stop offset="1" stop-color="#EC8F3A" stop-opacity="0"/>
</radialGradient>
<radialGradient id="paint2_radial_34254_128902" cx="0" cy="0" r="1" gradientUnits="userSpaceOnUse" gradientTransform="translate(20.266 20.1489) scale(4.48496 4.48457)">
<stop stop-color="white"/>
<stop offset="0.56" stop-color="white"/>
<stop offset="0.97" stop-color="#D6D6D6"/>
<stop offset="1" stop-color="#C6C6C6"/>
</radialGradient>
<radialGradient id="paint3_radial_34254_128902" cx="0" cy="0" r="1" gradientUnits="userSpaceOnUse" gradientTransform="translate(20.272 20.147) scale(2.41274 2.41252)">
<stop stop-color="white"/>
<stop offset="0.78" stop-color="#73B6F0"/>
<stop offset="1" stop-color="#007AE3"/>
</radialGradient>
<radialGradient id="paint4_radial_34254_128902" cx="0" cy="0" r="1" gradientUnits="userSpaceOnUse" gradientTransform="translate(20.2729 21.1354) rotate(-90) scale(3.20569 4.1714)">
<stop offset="0.401042" stop-color="#2E2A49"/>
<stop offset="0.546875" stop-color="#2E2A49" stop-opacity="0"/>
<stop offset="0.645833" stop-color="white" stop-opacity="0"/>
<stop offset="0.760417" stop-color="#B0C5FB" stop-opacity="0.33"/>
<stop offset="0.984375" stop-color="white"/>
</radialGradient>
<radialGradient id="paint5_radial_34254_128902" cx="0" cy="0" r="1" gradientUnits="userSpaceOnUse" gradientTransform="translate(32.0085 20.1488) scale(4.48507 4.48469)">
<stop stop-color="white"/>
<stop offset="0.56" stop-color="white"/>
<stop offset="0.97" stop-color="#D6D6D6"/>
<stop offset="1" stop-color="#C6C6C6"/>
</radialGradient>
<radialGradient id="paint6_radial_34254_128902" cx="0" cy="0" r="1" gradientUnits="userSpaceOnUse" gradientTransform="translate(32.0061 20.1551) scale(2.41274 2.41252)">
<stop stop-color="white"/>
<stop offset="0.78" stop-color="#73B6F0"/>
<stop offset="1" stop-color="#007AE3"/>
</radialGradient>
<radialGradient id="paint7_radial_34254_128902" cx="0" cy="0" r="1" gradientUnits="userSpaceOnUse" gradientTransform="translate(32.0073 21.1354) rotate(-90) scale(3.20569 4.1714)">
<stop offset="0.401042" stop-color="#2E2A49"/>
<stop offset="0.546875" stop-color="#2E2A49" stop-opacity="0"/>
<stop offset="0.645833" stop-color="white" stop-opacity="0"/>
<stop offset="0.760417" stop-color="#B0C5FB" stop-opacity="0.33"/>
<stop offset="0.984375" stop-color="white"/>
</radialGradient>
<linearGradient id="paint8_linear_34254_128902" x1="12.6625" y1="33.211" x2="12.6625" y2="27.3459" gradientUnits="userSpaceOnUse">
<stop stop-color="#600000"/>
<stop offset="1" stop-color="#B01622"/>
</linearGradient>
<linearGradient id="paint9_linear_34254_128902" x1="30.1257" y1="9.52056" x2="37.1218" y2="9.52056" gradientUnits="userSpaceOnUse">
<stop stop-color="#600000"/>
<stop offset="1" stop-color="#B01622"/>
</linearGradient>
<linearGradient id="paint10_linear_34254_128902" x1="22.1399" y1="9.52059" x2="15.1438" y2="9.52059" gradientUnits="userSpaceOnUse">
<stop stop-color="#600000"/>
<stop offset="1" stop-color="#B01622"/>
</linearGradient>
</defs>
</svg>
