<svg width="29" height="30" viewBox="0 0 29 30" fill="none" xmlns="http://www.w3.org/2000/svg">
<path fill-rule="evenodd" clip-rule="evenodd" d="M24.6503 8.95459L24.4839 8.65736C24.2692 8.29793 23.9663 7.99919 23.6041 7.78943L15.6262 3.1882C15.265 2.97865 14.855 2.86792 14.4373 2.86719H14.0925C13.6748 2.86792 13.2647 2.97865 12.9035 3.1882L4.92571 7.80132C4.56542 8.00969 4.26616 8.30896 4.05778 8.66925L3.89133 8.96648C3.68178 9.32773 3.57105 9.7378 3.57031 10.1554V19.3698C3.57105 19.7874 3.68178 20.1975 3.89133 20.5587L4.05778 20.8559C4.27154 21.212 4.56961 21.5101 4.92571 21.7239L12.9154 26.3251C13.2748 26.539 13.6861 26.65 14.1044 26.6461H14.4373C14.855 26.6454 15.265 26.5347 15.6262 26.3251L23.6041 21.712C23.9679 21.5083 24.2683 21.2079 24.472 20.8441L24.6503 20.5468C24.8573 20.1846 24.9679 19.7752 24.9713 19.3579V10.1435C24.9706 9.72591 24.8599 9.31584 24.6503 8.95459ZM14.0925 5.24508H14.4373L21.4045 9.26372L14.2708 13.3775L7.13715 9.26372L14.0925 5.24508ZM15.4598 23.6738L22.4151 19.6551L22.5935 19.3579V11.3206L15.4598 15.4462V23.6738Z" fill="white"/>
</svg>
