<svg width="123" height="55" viewBox="0 0 123 55" fill="none" xmlns="http://www.w3.org/2000/svg">
<path d="M6.84586 35.9392L8.66089 44.8562C8.78211 45.4506 8.6766 45.9983 8.34495 46.4991C8.0133 47 7.55599 47.3095 6.97301 47.428C6.37817 47.5491 5.83016 47.4437 5.32899 47.1122C4.82781 46.7808 4.5169 46.3179 4.39598 45.7234L0.0427462 24.3402C-0.0686927 23.7313 0.0377079 23.1895 0.362541 22.7151C0.696561 22.226 1.15862 21.9094 1.74871 21.7646L15.1152 19.0471C17.9874 18.5498 20.3042 19.2799 22.0656 21.2371C22.9784 22.2524 23.5706 23.4259 23.8415 24.7576C23.9431 25.2569 23.9986 25.772 24.0075 26.3025C24.0498 28.337 23.4482 30.038 22.2028 31.4055C21.2253 32.446 19.9358 33.1725 18.3347 33.5848L24.508 40.5387C24.7567 40.847 24.9185 41.1855 24.9935 41.5543C25.03 41.7326 25.0495 41.9207 25.0525 42.1179C25.0143 42.7201 24.7623 43.2171 24.2967 43.6089C24.0048 43.8788 23.6803 44.05 23.3234 44.1225C23.1331 44.1613 22.9307 44.1714 22.7164 44.153C22.1163 44.1264 21.6213 43.8865 21.2319 43.4333L13.4131 34.604L6.84586 35.9392ZM5.9745 31.659L17.2174 29.373C18.6427 29.0709 19.4459 28.27 19.6273 26.9701C19.6806 26.5631 19.6676 26.1636 19.5875 25.7711C19.4933 25.3073 19.3024 24.8571 19.0152 24.4202C18.4408 23.5464 17.6907 23.1481 16.7648 23.2248L15.9865 23.3273L4.74363 25.6132L5.9745 31.659ZM20.7698 21.4447C19.3555 19.9741 17.5238 19.4674 15.2752 19.9247C15.0017 19.9804 14.7245 20.0491 14.4439 20.1308C14.237 20.2099 14.1442 20.3032 14.1662 20.4101C14.1952 20.5529 14.3226 20.6012 14.5488 20.5553C16.3597 20.2614 18.354 20.6853 20.5318 21.8274C20.6676 21.8866 20.7713 21.9088 20.8427 21.8943C20.8664 21.8896 20.8925 21.8656 20.921 21.8226C20.9399 21.7939 20.9447 21.756 20.9349 21.7083C20.9204 21.6369 20.8652 21.5493 20.7698 21.4447Z" fill="white"/>
<path d="M31.5873 32.8009C31.7058 33.3835 31.5994 33.9252 31.2678 34.4258C30.9385 34.9385 30.4764 35.2554 29.8816 35.3763C29.2986 35.4947 28.7554 35.3825 28.2518 35.0392C27.7506 34.7075 27.4406 34.2504 27.3221 33.6679L24.414 19.3828C24.2954 18.8002 24.4021 18.2584 24.7338 17.7576C25.0631 17.2449 25.5192 16.9295 26.1022 16.811C26.697 16.6898 27.2462 16.8012 27.7497 17.1445C28.2509 17.4759 28.5606 17.9329 28.6792 18.5155L31.5873 32.8009ZM27.8493 18.0899C27.5527 17.7295 27.1748 17.5153 26.7148 17.4478C26.4981 17.4176 26.2945 17.4217 26.1042 17.4605C25.9377 17.4943 25.7889 17.5556 25.6585 17.6439C25.5491 17.7158 25.4981 17.7694 25.5053 17.805C25.4489 18.0147 25.4291 18.161 25.446 18.2442C25.4558 18.2919 25.4845 18.3109 25.5319 18.3011C25.7459 18.1957 25.9421 18.1249 26.1205 18.0887C26.6917 17.9726 27.1721 18.172 27.5618 18.687C27.619 18.7249 27.6597 18.7415 27.6834 18.7365C27.823 18.4483 27.8976 18.297 27.9071 18.2827C27.9166 18.2682 27.9187 18.2493 27.9139 18.2256C27.9068 18.1897 27.8852 18.1447 27.8493 18.0899Z" fill="white"/>
<path d="M36.5055 31.8205C36.2121 31.6573 35.9137 31.4704 35.6108 31.2595C33.5488 29.834 32.2649 27.8788 31.759 25.3938L31.7335 25.2688C31.2371 22.708 31.6911 20.3744 33.0963 18.2688C34.1458 16.6688 35.5681 15.5003 37.3633 14.764C37.9602 14.5312 38.5621 14.3532 39.1688 14.2297C40.3703 13.9853 41.5956 13.9779 42.8439 14.2069C44.6904 14.5744 46.2968 15.4363 47.6634 16.7929C49.006 18.1544 49.8708 19.7553 50.2579 21.5958C50.6257 23.4029 50.4627 25.188 49.7686 26.9512C49.0741 28.7144 47.9802 30.1254 46.4858 31.1846C45.4002 31.9375 44.1996 32.4603 42.8836 32.7526C41.6018 33.2114 40.7319 33.6853 40.274 34.1746C39.5408 34.8931 39.0746 35.7681 38.8757 36.7991C38.7634 37.4655 38.7728 38.1201 38.9035 38.7619C38.9711 39.0948 39.0689 39.4218 39.1961 39.7426C39.6546 40.8379 40.4299 41.6648 41.5221 42.2226C42.5932 42.7975 43.7236 42.9639 44.9133 42.7219C45.4962 42.6035 46.0383 42.7098 46.5395 43.0412C47.0549 43.3821 47.3717 43.8439 47.4906 44.4265C47.6091 45.0091 47.4977 45.5579 47.1566 46.073C46.8249 46.5738 46.3676 46.8837 45.7846 47.0021C43.9263 47.3676 42.1065 47.1926 40.3256 46.4776C38.5159 45.7436 37.0941 44.6024 36.0604 43.0546C35.3523 42.0102 34.8769 40.893 34.6351 39.7041C34.5067 39.0741 34.4439 38.4305 34.4466 37.7738C34.4377 35.8439 34.9546 34.0922 35.9969 32.5183C36.1582 32.2751 36.3277 32.0426 36.5055 31.8205ZM42.0126 28.4724C43.3759 28.1703 44.4414 27.4399 45.209 26.2809C45.998 25.1053 46.2532 23.8338 45.9749 22.4663C45.7378 21.3014 45.1501 20.3311 44.2117 19.5563C43.2615 18.7835 42.191 18.3946 41.0004 18.389C40.6291 18.3902 40.2708 18.4257 39.9258 18.4959C38.9859 18.687 38.1445 19.149 37.4018 19.8821C36.3932 20.8921 35.8876 22.0905 35.8849 23.4778C35.8861 23.8489 35.9208 24.2011 35.9884 24.534C36.2183 25.6634 36.8144 26.6132 37.7764 27.3833C39.0227 28.393 40.4346 28.7558 42.0126 28.4724ZM45.4192 16.4505C44.6809 15.6845 43.6925 15.2106 42.4536 15.0291C41.6723 14.9032 40.9305 14.9115 40.2287 15.0543C39.9074 15.1197 39.5923 15.2145 39.2832 15.3395C39.0763 15.4186 38.9824 15.5056 39.0019 15.6007L39.0055 15.6188C39.0322 15.7494 39.1549 15.8051 39.3739 15.7852C41.4732 15.569 43.4079 15.9123 45.1776 16.8154C45.316 16.8865 45.4207 16.9146 45.4921 16.9001C45.5161 16.8951 45.5434 16.8773 45.5742 16.8462C45.5908 16.8056 45.594 16.7618 45.5846 16.7141C45.57 16.6427 45.5149 16.555 45.4192 16.4505ZM46.6281 43.9333C46.3317 43.5726 45.9535 43.3584 45.4939 43.2909C45.2769 43.2607 45.0733 43.2651 44.883 43.3036C44.7165 43.3377 44.568 43.3987 44.4373 43.4873C44.3279 43.559 44.2259 43.6973 44.1314 43.9022C44.0864 43.9858 44.0689 44.0512 44.0786 44.0989C44.0905 44.1581 44.1563 44.1759 44.2751 44.1516L44.3107 44.1445C44.5247 44.0391 44.7209 43.9683 44.8993 43.9319C45.4704 43.8158 45.9509 44.0154 46.3406 44.5304C46.3694 44.5491 46.3957 44.5562 46.4195 44.5515C46.479 44.5393 46.5359 44.4845 46.5902 44.3868C46.6755 44.258 46.7111 44.1578 46.6966 44.0865L46.6927 44.0687C46.6856 44.0332 46.664 43.9878 46.6281 43.9333Z" fill="white"/>
<path d="M48.9375 7.00551C48.8189 6.42291 48.9253 5.88148 49.257 5.38063C49.5981 4.86556 50.0602 4.54865 50.6431 4.43017C51.2261 4.3117 51.7753 4.42277 52.2907 4.76368C52.7919 5.09541 53.1019 5.55242 53.2205 6.13502L54.5382 12.6088C55.9054 11.2907 57.4516 10.4564 59.1765 10.1057C59.8072 9.97745 60.4569 9.91347 61.1261 9.91347C63.0069 9.90251 64.7387 10.4359 66.3208 11.5132C67.8314 12.5433 68.9932 13.9292 69.8062 15.6707L70.38 17.4855L71.8323 24.6191C71.9535 25.2136 71.848 25.7612 71.5163 26.2621C71.1728 26.7653 70.7096 27.076 70.1266 27.1948C69.5436 27.3133 68.9956 27.2078 68.4826 26.8787C67.9814 26.5473 67.6705 26.0844 67.5493 25.4899L66.097 18.3563C65.4515 16.0978 64.1279 14.7697 62.1267 14.3717C61.4548 14.236 60.7974 14.2334 60.1552 14.364C59.8102 14.4342 59.4782 14.5387 59.1596 14.6779C58.2014 15.0831 57.4368 15.7093 56.8657 16.5558C56.4984 17.1256 56.2495 17.7272 56.1182 18.3607C56.0619 18.632 56.0631 19.3067 56.1211 20.3846L57.5734 27.5182C57.6946 28.1127 57.5891 28.6603 57.2575 29.1609C56.914 29.6641 56.4507 29.9751 55.8677 30.0936C55.2848 30.212 54.7368 30.1069 54.2237 29.7778C53.7225 29.4464 53.4113 28.9834 53.2904 28.389L48.9375 7.00551ZM52.3473 5.68097C52.051 5.32021 51.6728 5.10607 51.2131 5.03854C50.9964 5.00833 50.7928 5.01277 50.6025 5.05127C50.436 5.08533 50.2872 5.14635 50.1565 5.23491C50.0474 5.30659 49.9455 5.4449 49.8509 5.64986C49.8059 5.73339 49.7881 5.79885 49.7979 5.84624C49.81 5.90577 49.8755 5.92354 49.9944 5.89926L50.0302 5.89185C50.2442 5.7867 50.4404 5.71562 50.6188 5.67948C51.19 5.56338 51.6704 5.76271 52.0601 6.27778C52.0889 6.29674 52.115 6.30385 52.1387 6.29911C52.1983 6.28696 52.2552 6.23217 52.3097 6.13443C52.3951 6.00559 52.4303 5.90547 52.4158 5.83409L52.4122 5.81632C52.4048 5.78078 52.3832 5.73546 52.3473 5.68097ZM65.4983 12.219C64.76 11.4531 63.7713 10.9792 62.5327 10.7976C61.7512 10.6717 61.0096 10.68 60.3075 10.8228C59.9865 10.8882 59.6712 10.9833 59.3621 11.108C59.1552 11.1871 59.0615 11.2745 59.0808 11.3695L59.0844 11.3873C59.111 11.5179 59.234 11.5736 59.4528 11.5538C61.5523 11.3375 63.4868 11.6808 65.2565 12.5839C65.3949 12.655 65.4998 12.6831 65.5712 12.6686C65.5949 12.6639 65.6222 12.6458 65.653 12.6147C65.6696 12.5744 65.6732 12.5303 65.6634 12.4826C65.6489 12.4115 65.5938 12.3235 65.4983 12.219Z" fill="white"/>
<path d="M84.0014 24.3765C82.0981 24.7634 80.2125 24.5711 78.3456 23.799C76.3358 22.9942 74.9814 21.728 74.2828 20.0007L73.0896 15.5072L72.3703 11.8834L72.0134 11.956C71.4304 12.0744 70.8895 11.9737 70.391 11.6541C69.878 11.3251 69.5597 10.8574 69.4361 10.2511C69.3178 9.66851 69.4302 9.1256 69.774 8.62238C70.103 8.10968 70.5594 7.79424 71.1421 7.67576L71.4989 7.6032L70.4859 2.62726C70.3676 2.04466 70.4731 1.49702 70.8021 0.984318C71.1338 0.483761 71.597 0.172766 72.1918 0.0519218C72.787 -0.0692196 73.3302 0.0433311 73.8216 0.388981C74.3347 0.718044 74.6506 1.17388 74.7692 1.75647L75.7644 6.73596L78.7089 6.13737C79.2916 6.0186 79.8349 6.13115 80.3387 6.47443C80.8518 6.80349 81.1671 7.25932 81.2857 7.84192C81.4093 8.44822 81.2993 9.00327 80.9558 9.5062C80.6218 9.9952 80.163 10.2991 79.5803 10.4176L76.6355 11.0162L77.3723 14.6364C77.3992 14.7674 77.4802 15.1965 77.6162 15.9243C77.6601 16.2 77.7033 16.445 77.7469 16.6591C77.7928 16.8848 77.84 17.0859 77.8886 17.2618C78.182 18.2792 78.6666 18.9854 79.3417 19.3808C80.5468 20.1263 81.8094 20.3647 83.1303 20.0963C83.7249 19.9752 84.2717 20.0747 84.7705 20.3943C85.2741 20.7376 85.5864 21.2065 85.7074 21.8009C85.8283 22.3953 85.7231 22.943 85.3911 23.4438C85.0595 23.9447 84.5965 24.2554 84.0014 24.3765ZM73.9138 1.29887C73.6174 0.93811 73.2392 0.724264 72.7799 0.656734C72.5629 0.626522 72.3593 0.630669 72.169 0.66947C72.0025 0.703236 71.854 0.764547 71.723 0.85281C71.6139 0.924488 71.5036 1.05214 71.3925 1.23578C71.3638 1.34063 71.3549 1.41675 71.3643 1.46443C71.3765 1.52397 71.4423 1.54144 71.5608 1.51715L71.5967 1.51005C71.8107 1.4046 72.0066 1.33382 72.1853 1.29739C72.7564 1.18128 73.2369 1.38091 73.6269 1.89598C73.6551 1.91493 73.6817 1.92204 73.7052 1.91701C73.7647 1.90486 73.8216 1.85007 73.8762 1.75233C73.9615 1.62349 73.9971 1.52337 73.9823 1.45229L73.979 1.43422C73.9716 1.39868 73.9497 1.35366 73.9138 1.29887ZM80.4128 7.29516C80.1165 6.93441 79.738 6.72026 79.2783 6.65303C79.0616 6.62282 78.858 6.62696 78.6675 6.66577L77.8109 6.83992C77.7374 6.9661 77.7104 7.07687 77.73 7.17195C77.7347 7.19564 77.7466 7.22437 77.7659 7.25755C77.8376 7.36684 77.9638 7.40919 78.1449 7.38491C78.326 7.36032 78.5056 7.33011 78.684 7.29368C79.2549 7.17758 79.7353 7.37721 80.1253 7.89227C80.1541 7.91123 80.1802 7.91834 80.2039 7.91331C80.2638 7.90116 80.3207 7.84637 80.3749 7.74862C80.46 7.61978 80.4955 7.51967 80.4813 7.44859L80.4771 7.43052C80.47 7.39498 80.4487 7.34996 80.4128 7.29516Z" fill="white"/>
<path d="M58.5702 33.7922C56.3696 34.1367 54.591 35.2154 53.2348 37.0281C51.8945 38.8733 51.3892 40.9161 51.7185 43.1565C51.9992 45.0669 52.8613 46.695 54.305 48.0406C55.7502 49.398 57.4226 50.1236 59.3221 50.2178C59.898 50.2501 60.4546 50.2267 60.9916 50.1485C62.5245 49.9246 63.9225 49.2499 65.1854 48.1247C66.8813 46.5993 67.7811 44.7138 67.8854 42.4684C67.9154 41.8947 67.8902 41.3352 67.8099 40.7893C67.6226 39.5157 67.1377 38.3144 66.3546 37.1859C65.2278 35.5847 63.7524 34.5282 61.9288 34.0161C60.8437 33.7099 59.7243 33.6352 58.5702 33.7922ZM58.0021 29.6933C61.4226 29.252 64.4625 30.0686 67.1217 32.1428C68.7325 33.3829 69.9678 34.945 70.8276 36.829C71.3338 37.94 71.6729 39.0809 71.8451 40.2523C71.9639 41.0597 71.9986 41.8793 71.9494 42.7113C71.8291 45.1566 71.0303 47.3816 69.5538 49.3861C68.0899 51.4002 66.2239 52.8169 63.9557 53.6361C63.1866 53.9225 62.4048 54.1239 61.6102 54.2398C60.4469 54.4098 59.251 54.3985 58.0225 54.2063C55.9796 53.9122 54.1396 53.1353 52.503 51.8759C50.5262 50.3988 49.1219 48.4665 48.2912 46.0786C48.0123 45.2715 47.8128 44.4585 47.6925 43.6395C47.4619 42.0703 47.5381 40.4911 47.9216 38.9017C48.5063 36.5047 49.715 34.4637 51.5472 32.779C53.3604 31.1203 55.4727 30.0976 57.8844 29.7105L58.0021 29.6933ZM66.3864 32.7381C65.7207 31.9408 64.5577 31.2974 62.8971 30.8081C61.5717 30.421 60.4893 30.2886 59.6502 30.4109C59.4599 30.4388 59.2827 30.4764 59.1182 30.5235C58.9235 30.5984 58.8319 30.6757 58.8438 30.7554C58.8639 30.8917 58.981 30.9503 59.1953 30.9305C61.3097 30.854 63.6306 31.5607 66.1581 33.0503C66.2737 33.1379 66.3653 33.1767 66.4323 33.167C66.4658 33.1619 66.4913 33.1409 66.5088 33.1036C66.5277 33.0775 66.5331 33.0361 66.5248 32.9792C66.5147 32.9111 66.4684 32.8305 66.3864 32.7381Z" fill="#FF3A6A"/>
<path d="M72.5049 35.858C72.3925 35.3059 72.4957 34.7923 72.8143 34.3172C73.1195 33.8327 73.5434 33.5353 74.0863 33.4251C75.0837 33.2222 75.8193 33.577 76.2935 34.4893C77.5321 33.264 79.0148 32.4699 80.741 32.1074C82.4804 31.7537 84.1624 31.9101 85.7865 32.5771C87.8757 33.4307 89.459 34.9739 90.5366 37.2065C90.793 37.729 90.9969 38.3619 91.1481 39.1054L92.5239 45.8635C92.6386 46.4268 92.5422 46.9448 92.2346 47.4178C91.9382 47.8888 91.5073 48.1817 90.9424 48.2963C90.3994 48.4068 89.8941 48.3043 89.4258 47.9889C88.9468 47.6758 88.6499 47.2378 88.5352 46.6744L87.1594 39.9163C86.9667 38.9703 86.5287 38.1502 85.8452 37.4565C85.1484 36.7536 84.3432 36.3132 83.4303 36.1352C82.7925 36.0067 82.1802 36.0022 81.5928 36.1216C81.0388 36.2341 80.5024 36.4607 79.9831 36.8007C78.9203 37.4743 78.236 38.4227 77.9316 39.6459C77.7558 40.315 77.7351 41.0347 77.8693 41.8051L79.2451 48.5632C79.3595 49.1265 79.2632 49.6446 78.9556 50.1176C78.6482 50.5906 78.2173 50.8835 77.6634 50.9961C77.1204 51.1066 76.6151 51.0041 76.1471 50.6886C75.6678 50.3756 75.3709 49.9375 75.2565 49.3742L72.5049 35.858ZM86.7391 34.1955C86.0708 33.4633 85.1591 33.0096 84.0041 32.8339C83.2646 32.7143 82.5735 32.7199 81.9309 32.8508C81.6206 32.9139 81.3272 33.0027 81.0507 33.1177C80.858 33.192 80.7709 33.274 80.7893 33.3644L80.7925 33.3813C80.818 33.5051 80.9324 33.5581 81.1366 33.54C83.0812 33.3439 84.8853 33.6751 86.5482 34.5334C86.6662 34.6033 86.7587 34.6315 86.8251 34.6178C86.8583 34.6113 86.8837 34.5944 86.9012 34.5672C86.9276 34.5266 86.9374 34.4896 86.9306 34.4558C86.9146 34.377 86.8506 34.2903 86.7391 34.1955ZM75.6743 34.5097C75.3969 34.1673 75.0437 33.9636 74.6154 33.8981C74.4132 33.8688 74.2236 33.872 74.0463 33.9082C73.891 33.9399 73.7529 33.9973 73.6314 34.0806C73.5297 34.1481 73.4352 34.2787 73.3478 34.4724C73.306 34.5515 73.29 34.6134 73.2992 34.6584C73.3104 34.7147 73.3715 34.7316 73.4823 34.7091L73.5155 34.7023C73.7147 34.603 73.8973 34.5367 74.0635 34.5029C74.5952 34.3948 75.0437 34.5853 75.4085 35.074C75.4355 35.092 75.4598 35.0989 75.482 35.0944C75.5374 35.0832 75.5902 35.0313 75.6403 34.9389C75.7197 34.8172 75.7523 34.7227 75.7384 34.6549L75.7351 34.638C75.7283 34.6042 75.7081 34.5616 75.6743 34.5097Z" fill="#FF3A6A"/>
<path d="M97.5476 38.0192C97.659 38.5665 97.5734 39.0742 97.2906 39.5422C97.0034 39.9879 96.6006 40.2637 96.0823 40.3691C95.574 40.4725 95.1006 40.3751 94.662 40.0765C94.2189 39.7563 93.9415 39.3224 93.8301 38.7751L91.1626 25.6721C91.0533 25.1357 91.1413 24.6393 91.4261 24.1822C91.7089 23.7143 92.1042 23.4287 92.6128 23.3254C93.1309 23.2199 93.6119 23.3274 94.055 23.6476C94.496 23.9571 94.7711 24.3801 94.8801 24.9162L97.5476 38.0192ZM97.4225 46.9534C96.9145 47.0567 96.44 46.9537 95.999 46.6444C95.5559 46.3243 95.2797 45.8957 95.1703 45.3596C95.0612 44.8232 95.1493 44.3265 95.4341 43.8695C95.7168 43.4015 96.1122 43.116 96.6202 43.0132C97.1389 42.9075 97.6196 43.0147 98.0627 43.3351C98.504 43.6444 98.7787 44.0673 98.8881 44.6037C98.9975 45.1401 98.9103 45.6421 98.6279 46.1101C98.3431 46.5668 97.9412 46.8482 97.4225 46.9534ZM94.1377 24.4518C93.8751 24.1174 93.5417 23.9118 93.1371 23.8342C92.9474 23.8046 92.775 23.8055 92.6194 23.8369C92.4638 23.8686 92.3298 23.9246 92.2163 24.0045C92.1422 24.0652 92.1084 24.1117 92.1152 24.1446L92.1253 24.1941C92.1363 24.2486 92.1834 24.2675 92.2664 24.2507C92.9095 24.12 93.5067 24.2436 94.0589 24.6218C94.1072 24.6461 94.1416 24.6561 94.1623 24.652C94.1727 24.6499 94.1822 24.6422 94.1899 24.6292C94.2085 24.6141 94.2165 24.601 94.2145 24.5901C94.2059 24.5463 94.1798 24.5001 94.1377 24.4518ZM98.2897 43.9728C98.0274 43.6387 97.6952 43.4382 97.2927 43.3719C97.103 43.342 96.9255 43.344 96.7595 43.3778C96.6146 43.4074 96.485 43.4619 96.3718 43.5422C96.277 43.607 96.1893 43.7329 96.1089 43.9204C96.0701 43.9968 96.0553 44.0567 96.0642 44.1005C96.0754 44.1553 96.1329 44.1722 96.2364 44.1508L96.2675 44.1446C96.4536 44.0498 96.624 43.9868 96.7796 43.9551C97.2776 43.8538 97.699 44.0416 98.0446 44.5187C98.0698 44.5362 98.0926 44.543 98.1134 44.5389C98.1652 44.5282 98.2144 44.4784 98.2612 44.389C98.3345 44.2717 98.3644 44.1799 98.3511 44.1144L98.3478 44.0978C98.341 44.065 98.3217 44.0235 98.2897 43.9728Z" fill="#FF3A6A"/>
<path d="M24.3409 8.59515L26.6396 4.93517C26.8091 4.65765 27.0519 4.4829 27.3678 4.41122C27.6775 4.34103 27.9689 4.39434 28.2415 4.57146C28.513 4.74236 28.684 4.98256 28.7543 5.29208C28.8275 5.61433 28.7786 5.91081 28.6079 6.18212L26.3071 9.83292L29.9599 12.1319C30.2329 12.3093 30.4051 12.5558 30.4771 12.8715C30.5474 13.181 30.4979 13.4745 30.328 13.7521C30.1573 14.0234 29.917 14.1943 29.6072 14.2645C29.2913 14.3361 28.9973 14.2867 28.7261 14.1158L25.0688 11.7975L22.7532 15.4714C22.5821 15.7427 22.3418 15.9136 22.0324 15.9838C21.7161 16.0555 21.4224 16.006 21.1509 15.8351C20.8783 15.658 20.7067 15.4146 20.6361 15.105C20.5644 14.7893 20.6133 14.4925 20.7828 14.215L23.0836 10.5645L19.4304 8.2652C19.159 8.0943 18.9868 7.84787 18.9136 7.52562C18.8433 7.21611 18.8934 6.92585 19.0644 6.65454C19.2339 6.37701 19.4767 6.20226 19.7929 6.13058C20.1026 6.06039 20.3937 6.1137 20.6666 6.29082L24.3409 8.59515ZM28.3734 5.01989C28.211 4.83092 28.0065 4.72133 27.7602 4.69082C27.6443 4.6772 27.5355 4.68194 27.4345 4.70504C27.3462 4.72488 27.2676 4.75954 27.1989 4.80811C27.1414 4.8478 27.0842 4.9174 27.027 5.01663C27.013 5.0729 27.0089 5.11378 27.0148 5.13895C27.0219 5.17064 27.0572 5.17923 27.1203 5.16472L27.1393 5.16057C27.2522 5.10163 27.3559 5.06135 27.4508 5.04002C27.7543 4.97101 28.013 5.07172 28.2273 5.34184C28.2427 5.35161 28.2569 5.35517 28.2697 5.35221C28.3011 5.3451 28.331 5.31518 28.3589 5.26217C28.4028 5.19256 28.4205 5.13866 28.4119 5.10074L28.4096 5.09127C28.4054 5.07231 28.3933 5.04862 28.3734 5.01989ZM19.183 7.17553C19.1773 7.21019 19.177 7.23684 19.1812 7.2558L19.1833 7.26528C19.1919 7.30319 19.2313 7.34406 19.3009 7.3879C19.3489 7.42344 19.3886 7.43766 19.4204 7.43055C19.4331 7.42759 19.4441 7.4184 19.4539 7.403C19.5303 7.06683 19.7203 6.86424 20.0238 6.79552C20.1186 6.7739 20.2295 6.76531 20.3569 6.76976L20.3759 6.76531C20.439 6.7511 20.4669 6.72799 20.4598 6.6966C20.4541 6.67113 20.4328 6.63618 20.396 6.59145C20.3015 6.52659 20.2197 6.48867 20.1509 6.47771C20.068 6.4632 19.982 6.46616 19.8937 6.48631C19.7926 6.50911 19.6924 6.55176 19.5937 6.61426C19.3848 6.74784 19.2479 6.93503 19.183 7.17553Z" fill="#FF3A6A"/>
<path d="M99.8043 22.0394C100.343 21.9348 100.851 21.9663 101.327 22.1341C101.801 22.2927 102.201 22.5668 102.527 22.9564C102.852 23.3368 103.067 23.7964 103.171 24.3352C103.276 24.874 103.25 25.3852 103.093 25.8687C102.936 26.3522 102.669 26.7609 102.29 27.0947C101.91 27.4192 101.45 27.6338 100.911 27.7385C100.363 27.845 99.8521 27.8189 99.3779 27.6604C98.9019 27.4926 98.5007 27.2139 98.1743 26.8242C97.848 26.4345 97.6325 25.9703 97.5278 25.4315C97.4232 24.8927 97.4501 24.3862 97.6086 23.9119C97.7653 23.4284 98.0339 23.0244 98.4143 22.6998C98.7929 22.366 99.2562 22.1459 99.8043 22.0394ZM100.803 27.1811C101.472 27.0512 101.969 26.7329 102.295 26.2262C102.63 25.7177 102.732 25.1243 102.6 24.4462C102.468 23.7681 102.152 23.2559 101.651 22.9098C101.159 22.5619 100.579 22.4529 99.9099 22.5828C99.2317 22.7146 98.7298 23.0338 98.4041 23.5405C98.0876 24.0454 97.9953 24.6369 98.127 25.3151C98.2587 25.9932 98.5658 26.5071 99.0483 26.8569C99.54 27.2048 100.125 27.3129 100.803 27.1811ZM101.497 24.0531C101.54 24.2761 101.517 24.4783 101.427 24.6596C101.344 24.8299 101.207 24.9674 101.015 25.0722L102.02 26.0771L101.145 26.2616L100.26 25.2768L100.023 25.3228L100.239 26.4375L99.5147 26.5783L98.9328 23.5824L100.27 23.3226C100.586 23.2612 100.853 23.2961 101.072 23.4272C101.299 23.5565 101.441 23.7652 101.497 24.0531ZM99.9064 24.7236L100.478 24.6126C100.58 24.5928 100.658 24.5487 100.712 24.4803C100.776 24.4101 100.798 24.3239 100.778 24.2218C100.758 24.1196 100.706 24.0525 100.623 24.0205C100.547 23.9774 100.458 23.9657 100.356 23.9856L99.7846 24.0966L99.9064 24.7236Z" fill="white"/>
</svg>
