<svg width="175" height="96" viewBox="0 0 175 96" fill="none" xmlns="http://www.w3.org/2000/svg">
<path d="M12.0477 63.235L15.2419 78.9276C15.4552 79.9737 15.2695 80.9375 14.6859 81.8189C14.1022 82.7004 13.2974 83.2451 12.2715 83.4536C11.2246 83.6667 10.2602 83.4812 9.37823 82.8979C8.49623 82.3146 7.94909 81.4999 7.73628 80.4538L0.0752271 42.8225C-0.120889 41.7508 0.0663605 40.7975 0.638018 39.9624C1.22585 39.1019 2.039 38.5446 3.07748 38.2898L26.6005 33.5073C31.6552 32.6322 35.7324 33.917 38.8322 37.3614C40.4387 39.1482 41.4808 41.2134 41.9575 43.5569C42.1364 44.4358 42.234 45.3422 42.2496 46.2758C42.3242 49.8562 41.2654 52.8497 39.0737 55.2563C37.3535 57.0874 35.0841 58.366 32.2665 59.0916L43.1306 71.3294C43.5682 71.872 43.853 72.4678 43.9849 73.1167C44.0491 73.4305 44.0835 73.7615 44.0887 74.1087C44.0214 75.1684 43.5781 76.043 42.7587 76.7326C42.2449 77.2075 41.6738 77.5088 41.0458 77.6365C40.7109 77.7047 40.3547 77.7225 39.9776 77.6902C38.9214 77.6432 38.0503 77.221 37.365 76.4235L23.605 60.8852L12.0477 63.235ZM10.5142 55.7025L30.3001 51.6795C32.8084 51.1478 34.2219 49.7384 34.5411 47.4506C34.635 46.7345 34.612 46.0313 34.4712 45.3406C34.3053 44.5244 33.9694 43.7321 33.464 42.9632C32.4532 41.4256 31.1331 40.7245 29.5036 40.8595L28.1339 41.0398L8.3481 45.0628L10.5142 55.7025ZM36.5518 37.7268C34.0628 35.1388 30.8394 34.247 26.8821 35.0518C26.4007 35.1498 25.913 35.2707 25.4191 35.4146C25.055 35.5537 24.8918 35.7179 24.9304 35.9061C24.9815 36.1573 25.2058 36.2423 25.6037 36.1615C28.7906 35.6444 32.3004 36.3903 36.133 38.4003C36.3719 38.5045 36.5544 38.5436 36.6801 38.5181C36.7218 38.5097 36.7677 38.4675 36.8178 38.3919C36.8512 38.3414 36.8595 38.2746 36.8423 38.1907C36.8168 38.0651 36.7198 37.9108 36.5518 37.7268Z" fill="white"/>
<path d="M55.5891 57.7234C55.7978 58.7487 55.6105 59.7021 55.0268 60.583C54.4474 61.4853 53.6342 62.043 52.5874 62.2557C51.5614 62.4641 50.6054 62.2666 49.7192 61.6625C48.8372 61.0787 48.2916 60.2744 48.083 59.2491L42.9652 34.1095C42.7565 33.0842 42.9443 32.1308 43.528 31.2494C44.1075 30.3471 44.9102 29.792 45.9361 29.5835C46.983 29.3703 47.9495 29.5663 48.8356 30.1704C49.7176 30.7537 50.2627 31.558 50.4713 32.5833L55.5891 57.7234ZM49.0109 31.8342C48.4888 31.1999 47.8237 30.823 47.0142 30.7042C46.633 30.651 46.2746 30.6583 45.9398 30.7266C45.6467 30.786 45.3848 30.8939 45.1553 31.0492C44.9629 31.1759 44.8731 31.2702 44.8857 31.3328C44.7866 31.7018 44.7516 31.9593 44.7813 32.1058C44.7986 32.1897 44.8491 32.2231 44.9326 32.2059C45.3092 32.0203 45.6545 31.8957 45.9685 31.8321C46.9736 31.6278 47.8191 31.9786 48.5049 32.8851C48.6056 32.9518 48.6771 32.981 48.7188 32.9721C48.9645 32.4649 49.0959 32.1986 49.1126 32.1736C49.1293 32.148 49.1329 32.1147 49.1246 32.073C49.1121 32.0099 49.074 31.9307 49.0109 31.8342Z" fill="white"/>
<path d="M64.2481 55.9954C63.7317 55.7082 63.2065 55.3793 62.6734 55.0081C59.0447 52.4994 56.7852 49.0587 55.8949 44.6854L55.85 44.4654C54.9764 39.9588 55.7754 35.8519 58.2483 32.1463C60.0952 29.3306 62.5983 27.2743 65.7575 25.9784C66.808 25.5687 67.8674 25.2555 68.935 25.0381C71.0496 24.6081 73.2058 24.5951 75.4027 24.998C78.6522 25.6448 81.4792 27.1617 83.8842 29.549C86.247 31.9451 87.769 34.7625 88.4502 38.0015C89.0975 41.1816 88.8106 44.3231 87.589 47.4261C86.367 50.5291 84.4418 53.0123 81.812 54.8763C79.9014 56.2013 77.7884 57.1213 75.4726 57.6357C73.2167 58.4431 71.6859 59.2771 70.88 60.1382C69.5896 61.4028 68.7692 62.9425 68.4192 64.757C68.2215 65.9298 68.2382 67.0817 68.4682 68.2113C68.5871 68.7972 68.7593 69.3726 68.983 69.9371C69.7899 71.8647 71.1544 73.32 73.0764 74.3015C74.9615 75.3132 76.9508 75.6062 79.0444 75.1803C80.0704 74.9718 81.0244 75.1589 81.9064 75.7422C82.8134 76.3422 83.371 77.1548 83.5801 78.1801C83.7888 79.2054 83.5927 80.1712 82.9923 81.0777C82.4087 81.9591 81.6038 82.5043 80.5779 82.7128C77.3075 83.356 74.105 83.048 70.9708 81.7897C67.786 80.4981 65.2839 78.4897 63.4647 75.7657C62.2186 73.9278 61.382 71.9616 60.9563 69.8694C60.7305 68.7607 60.6199 67.628 60.6246 66.4724C60.609 63.076 61.5186 59.9933 63.353 57.2234C63.6368 56.7955 63.9351 56.3863 64.2481 55.9954ZM73.9397 50.1032C76.339 49.5716 78.2141 48.2862 79.565 46.2465C80.9534 44.1777 81.4025 41.94 80.9127 39.5334C80.4955 37.4834 79.4612 35.7758 77.8098 34.4122C76.1376 33.0523 74.2537 32.3679 72.1584 32.358C71.5049 32.36 70.8743 32.4226 70.2672 32.5461C68.6132 32.8823 67.1324 33.6955 65.8254 34.9856C64.0504 36.763 63.1606 38.872 63.1559 41.3135C63.158 41.9666 63.219 42.5863 63.3379 43.1722C63.7427 45.1597 64.7916 46.8314 66.4846 48.1866C68.6779 49.9635 71.1627 50.6021 73.9397 50.1032ZM79.9348 28.9464C78.6355 27.5985 76.896 26.7645 74.7158 26.445C73.3409 26.2234 72.0354 26.238 70.8002 26.4893C70.2348 26.6045 69.6804 26.7713 69.1364 26.9912C68.7723 27.1304 68.607 27.2836 68.6414 27.451L68.6477 27.4828C68.6946 27.7126 68.9105 27.8106 69.296 27.7757C72.9904 27.3952 76.3953 27.9993 79.5097 29.5886C79.7533 29.7137 79.9374 29.7632 80.0631 29.7377C80.1053 29.7288 80.1533 29.6975 80.2076 29.6428C80.2368 29.5714 80.2425 29.4942 80.2258 29.4103C80.2003 29.2847 80.1032 29.1304 79.9348 28.9464ZM82.0623 77.3122C81.5407 76.6773 80.8752 76.3005 80.0662 76.1816C79.6844 76.1285 79.3261 76.1363 78.9912 76.204C78.6981 76.264 78.4368 76.3714 78.2068 76.5272C78.0143 76.6534 77.8349 76.8968 77.6685 77.2575C77.5892 77.4045 77.5584 77.5197 77.5756 77.6036C77.5965 77.7078 77.7123 77.7391 77.9214 77.6964L77.984 77.6839C78.3606 77.4983 78.7059 77.3737 79.0199 77.3096C80.025 77.1053 80.8705 77.4566 81.5564 78.363C81.607 78.3959 81.6534 78.4084 81.6951 78.4001C81.8 78.3787 81.9001 78.2822 81.9956 78.1102C82.1458 77.8835 82.2084 77.7073 82.1828 77.5817L82.176 77.5504C82.1635 77.4879 82.1254 77.4081 82.0623 77.3122Z" fill="white"/>
<path d="M86.1215 12.3247C85.9129 11.2994 86.1001 10.3465 86.6838 9.46511C87.2841 8.55866 88.0973 8.00093 89.1232 7.79243C90.1492 7.58393 91.1157 7.7794 92.0227 8.37936C92.9047 8.96315 93.4503 9.76743 93.659 10.7927L95.9779 22.1856C98.384 19.866 101.105 18.3977 104.141 17.7805C105.251 17.5548 106.394 17.4422 107.572 17.4422C110.882 17.423 113.929 18.3617 116.714 20.2575C119.372 22.0704 121.417 24.5093 122.847 27.5742L123.857 30.7679L126.413 43.3221C126.626 44.3682 126.441 45.332 125.857 46.2134C125.252 47.099 124.437 47.6458 123.411 47.8548C122.385 48.0633 121.421 47.8777 120.518 47.2986C119.636 46.7154 119.089 45.9007 118.876 44.8545L116.32 32.3003C115.184 28.3258 112.854 25.9886 109.333 25.288C108.15 25.0493 106.993 25.0446 105.863 25.2745C105.256 25.398 104.672 25.582 104.111 25.827C102.425 26.5401 101.079 27.642 100.074 29.1317C99.4277 30.1346 98.9896 31.1932 98.7585 32.3081C98.6594 32.7856 98.6615 33.973 98.7637 35.8698L101.319 48.424C101.533 49.4701 101.347 50.4339 100.763 51.3148C100.159 52.2004 99.3437 52.7477 98.3178 52.9562C97.2918 53.1647 96.3274 52.9797 95.4245 52.4006C94.5425 51.8173 93.9949 51.0026 93.782 49.9565L86.1215 12.3247ZM92.1224 9.99365C91.6008 9.35878 90.9352 8.98191 90.1263 8.86307C89.745 8.80991 89.3866 8.81772 89.0518 8.88548C88.7587 8.94543 88.4968 9.0528 88.2668 9.20865C88.0749 9.3348 87.8954 9.57822 87.729 9.93892C87.6498 10.0859 87.6185 10.2011 87.6357 10.2845C87.6571 10.3893 87.7723 10.4206 87.9815 10.3778L88.0446 10.3648C88.4212 10.1797 88.7665 10.0546 89.0805 9.99104C90.0856 9.78671 90.9311 10.1375 91.6169 11.044C91.6675 11.0773 91.7134 11.0898 91.7552 11.0815C91.86 11.0601 91.9601 10.9637 92.0561 10.7917C92.2063 10.5649 92.2684 10.3888 92.2428 10.2631L92.2366 10.2319C92.2235 10.1693 92.1855 10.0896 92.1224 9.99365ZM115.266 21.4996C113.967 20.1517 112.227 19.3177 110.047 18.9982C108.672 18.7766 107.367 18.7912 106.131 19.0425C105.566 19.1577 105.011 19.325 104.467 19.5444C104.103 19.6836 103.938 19.8374 103.972 20.0047L103.979 20.036C104.025 20.2658 104.242 20.3638 104.627 20.3289C108.322 19.9484 111.726 20.5525 114.841 22.1418C115.084 22.2669 115.269 22.3164 115.394 22.2909C115.436 22.2825 115.484 22.2507 115.538 22.196C115.568 22.1251 115.574 22.0474 115.557 21.9635C115.531 21.8384 115.434 21.6836 115.266 21.4996Z" fill="white"/>
<path d="M147.83 42.8934C144.48 43.5741 141.162 43.2358 137.877 41.8769C134.34 40.4607 131.956 38.2324 130.727 35.1925L128.627 27.2847L127.361 20.9072L126.733 21.035C125.707 21.2435 124.755 21.0662 123.878 20.5038C122.975 19.9247 122.415 19.1017 122.197 18.0347C121.989 17.0094 122.187 16.0539 122.792 15.1683C123.371 14.2661 124.174 13.7109 125.199 13.5024L125.827 13.3747L124.045 4.61782C123.837 3.59254 124.022 2.62875 124.601 1.72648C125.185 0.845577 126 0.298267 127.047 0.085598C128.094 -0.12759 129.05 0.0704842 129.915 0.678776C130.818 1.25788 131.374 2.06007 131.583 3.08536L133.334 11.8485L138.516 10.7951C139.542 10.5861 140.498 10.7841 141.384 11.3883C142.287 11.9674 142.842 12.7696 143.051 13.7949C143.268 14.8618 143.075 15.8387 142.47 16.7237C141.882 17.5843 141.075 18.1191 140.05 18.3276L134.867 19.381L136.164 25.7522C136.211 25.9826 136.354 26.7379 136.593 28.0186C136.67 28.5039 136.746 28.9349 136.823 29.3118C136.904 29.709 136.987 30.0629 137.072 30.3725C137.589 32.163 138.441 33.4057 139.63 34.1015C141.75 35.4135 143.972 35.8331 146.297 35.3609C147.343 35.1477 148.306 35.3228 149.184 35.8852C150.07 36.4893 150.619 37.3145 150.832 38.3606C151.045 39.4068 150.86 40.3705 150.276 41.252C149.692 42.1334 148.877 42.6802 147.83 42.8934ZM130.077 2.28004C129.556 1.64516 128.89 1.26883 128.082 1.14998C127.7 1.09681 127.342 1.10411 127.007 1.17239C126.714 1.23182 126.452 1.33971 126.222 1.49505C126.03 1.62119 125.836 1.84584 125.64 2.16902C125.59 2.35354 125.574 2.4875 125.591 2.57141C125.612 2.67619 125.728 2.70694 125.936 2.6642L126 2.65169C126.376 2.46612 126.721 2.34155 127.035 2.27744C128.041 2.07311 128.886 2.42442 129.572 3.33087C129.622 3.36423 129.669 3.37674 129.71 3.36788C129.815 3.34651 129.915 3.25008 130.011 3.07806C130.161 2.85132 130.224 2.67514 130.198 2.55005L130.192 2.51825C130.179 2.4557 130.14 2.37647 130.077 2.28004ZM141.515 12.8326C140.993 12.1978 140.327 11.8209 139.518 11.7026C139.137 11.6494 138.778 11.6567 138.443 11.725L136.936 12.0315C136.806 12.2535 136.759 12.4485 136.793 12.6158C136.802 12.6575 136.822 12.7081 136.856 12.7664C136.983 12.9588 137.205 13.0333 137.523 12.9906C137.842 12.9473 138.158 12.8942 138.472 12.83C139.477 12.6257 140.322 12.977 141.009 13.8835C141.059 13.9168 141.105 13.9293 141.147 13.9205C141.252 13.8991 141.352 13.8027 141.448 13.6307C141.598 13.4039 141.66 13.2277 141.635 13.1026L141.628 13.0709C141.615 13.0083 141.578 12.9291 141.515 12.8326Z" fill="white"/>
<path d="M103.075 59.4611C99.2023 60.0673 96.0723 61.9656 93.6855 65.1557C91.3269 68.403 90.4376 71.998 91.0171 75.9407C91.511 79.3028 93.0283 82.1681 95.5689 84.5361C98.1122 86.9249 101.056 88.202 104.398 88.3677C105.412 88.4246 106.391 88.3834 107.336 88.2458C110.034 87.8517 112.494 86.6643 114.717 84.6841C117.701 81.9997 119.285 78.6815 119.469 74.7299C119.521 73.7202 119.477 72.7356 119.336 71.775C119.006 69.5336 118.153 67.4194 116.775 65.4335C114.791 62.6156 112.195 60.7564 108.986 59.8551C107.076 59.3162 105.106 59.1848 103.075 59.4611ZM102.075 52.2476C108.095 51.4709 113.445 52.908 118.124 56.5583C120.959 58.7407 123.133 61.4897 124.646 64.8054C125.537 66.7606 126.134 68.7684 126.437 70.8299C126.646 72.2509 126.707 73.6931 126.621 75.1573C126.409 79.4607 125.003 83.3763 122.405 86.9041C119.828 90.4486 116.545 92.9417 112.553 94.3834C111.199 94.8875 109.823 95.2419 108.425 95.4457C106.378 95.7449 104.273 95.7251 102.111 95.3868C98.5159 94.8692 95.2779 93.502 92.3977 91.2857C88.9187 88.6862 86.4475 85.2856 84.9854 81.0833C84.4946 79.663 84.1436 78.2321 83.9318 76.7909C83.526 74.0293 83.6601 71.2501 84.335 68.4531C85.3641 64.2346 87.4911 60.6427 90.7156 57.6779C93.9066 54.7589 97.624 52.9591 101.868 52.2778L102.075 52.2476ZM116.83 57.606C115.659 56.2028 113.612 55.0706 110.69 54.2095C108.357 53.5283 106.452 53.2953 104.976 53.5105C104.641 53.5595 104.329 53.6257 104.039 53.7086C103.697 53.8405 103.536 53.9765 103.557 54.1167C103.592 54.3565 103.798 54.4597 104.175 54.4248C107.896 54.2903 111.981 55.534 116.429 58.1553C116.632 58.3096 116.793 58.3779 116.911 58.3607C116.97 58.3519 117.015 58.3148 117.046 58.2492C117.079 58.2033 117.089 58.1303 117.074 58.0302C117.056 57.9104 116.975 57.7686 116.83 57.606Z" fill="#FF3A6A"/>
<path d="M127.593 63.096C127.395 62.1244 127.577 61.2206 128.137 60.3845C128.675 59.5317 129.421 59.0084 130.376 58.8145C132.131 58.4575 133.426 59.0819 134.26 60.6873C136.44 58.531 139.05 57.1335 142.087 56.4955C145.148 55.8731 148.108 56.1483 150.967 57.3222C154.643 58.8244 157.43 61.5401 159.326 65.4692C159.777 66.3887 160.136 67.5026 160.402 68.811L162.823 80.7042C163.025 81.6956 162.856 82.6073 162.314 83.4397C161.793 84.2685 161.034 84.784 160.04 84.9857C159.085 85.1801 158.195 84.9998 157.371 84.4447C156.528 83.8937 156.006 83.1228 155.804 82.1314L153.383 70.2381C153.044 68.5733 152.273 67.1299 151.07 65.9092C149.844 64.6723 148.427 63.8972 146.82 63.5839C145.698 63.3577 144.62 63.3499 143.586 63.5599C142.611 63.758 141.667 64.1568 140.754 64.7551C138.883 65.9405 137.679 67.6095 137.143 69.7622C136.834 70.9397 136.797 72.2063 137.034 73.5621L139.455 85.4553C139.656 86.4468 139.487 87.3584 138.945 88.1908C138.404 89.0233 137.646 89.5388 136.671 89.7369C135.716 89.9313 134.826 89.7509 134.003 89.1958C133.159 88.6448 132.637 87.8739 132.435 86.8825L127.593 63.096ZM152.643 60.1703C151.467 58.8818 149.863 58.0832 147.83 57.7741C146.529 57.5635 145.312 57.5734 144.181 57.8038C143.635 57.9148 143.119 58.0712 142.632 58.2735C142.293 58.4043 142.14 58.5487 142.172 58.7077L142.178 58.7374C142.223 58.9553 142.424 59.0486 142.784 59.0168C146.206 58.6717 149.381 59.2544 152.307 60.765C152.515 60.888 152.678 60.9375 152.794 60.9136C152.853 60.9021 152.898 60.8724 152.928 60.8244C152.975 60.753 152.992 60.6879 152.98 60.6284C152.952 60.4898 152.839 60.3371 152.643 60.1703ZM133.171 60.7233C132.683 60.1208 132.061 59.7621 131.307 59.6469C130.951 59.5953 130.618 59.6011 130.306 59.6647C130.032 59.7204 129.789 59.8216 129.575 59.968C129.397 60.0869 129.23 60.3167 129.076 60.6576C129.003 60.7968 128.975 60.9058 128.991 60.985C129.011 61.084 129.118 61.1137 129.313 61.0741L129.372 61.0621C129.722 60.8875 130.043 60.7707 130.336 60.7113C131.272 60.5211 132.061 60.8562 132.703 61.7163C132.75 61.7481 132.793 61.7601 132.832 61.7523C132.93 61.7324 133.023 61.6412 133.111 61.4786C133.251 61.2644 133.308 61.0981 133.283 60.9787L133.278 60.949C133.266 60.8896 133.23 60.8145 133.171 60.7233Z" fill="#FF3A6A"/>
<path d="M171.66 66.9042C171.856 67.8674 171.706 68.7608 171.208 69.5844C170.703 70.3689 169.994 70.8542 169.082 71.0397C168.187 71.2216 167.354 71.0501 166.582 70.5247C165.802 69.9613 165.314 69.1976 165.118 68.2344L160.424 45.175C160.231 44.231 160.386 43.3574 160.887 42.5532C161.385 41.7296 162.081 41.2271 162.976 41.0452C163.888 40.8596 164.734 41.0488 165.514 41.6123C166.29 42.157 166.774 42.9014 166.966 43.8448L171.66 66.9042ZM171.44 82.627C170.546 82.8089 169.711 82.6275 168.935 82.0833C168.155 81.5199 167.669 80.7656 167.477 79.8222C167.285 78.8782 167.44 78.0041 167.941 77.1998C168.438 76.3762 169.134 75.8737 170.028 75.6929C170.941 75.5068 171.787 75.6955 172.567 76.2595C173.343 76.8036 173.827 77.548 174.019 78.492C174.212 79.4359 174.059 80.3194 173.561 81.143C173.06 81.9468 172.353 82.4419 171.44 82.627ZM165.659 43.0275C165.197 42.439 164.611 42.0773 163.899 41.9407C163.565 41.8886 163.261 41.8901 162.987 41.9454C162.714 42.0012 162.478 42.0997 162.278 42.2404C162.148 42.3473 162.088 42.4291 162.1 42.487L162.118 42.574C162.137 42.6699 162.22 42.7033 162.366 42.6736C163.498 42.4437 164.549 42.6611 165.521 43.3267C165.606 43.3694 165.666 43.3871 165.703 43.3798C165.721 43.3762 165.738 43.3627 165.751 43.3397C165.784 43.3131 165.798 43.2902 165.795 43.2709C165.779 43.1938 165.733 43.1125 165.659 43.0275ZM172.966 77.3817C172.505 76.7937 171.92 76.4409 171.212 76.3241C170.878 76.2714 170.565 76.2751 170.273 76.3345C170.018 76.3866 169.79 76.4826 169.591 76.6238C169.424 76.738 169.27 76.9595 169.128 77.2894C169.06 77.4239 169.034 77.5292 169.05 77.6064C169.07 77.7028 169.171 77.7325 169.353 77.695L169.408 77.684C169.735 77.5172 170.035 77.4062 170.309 77.3504C171.185 77.1722 171.927 77.5026 172.535 78.3424C172.579 78.3731 172.619 78.3851 172.656 78.3778C172.747 78.359 172.834 78.2715 172.916 78.1141C173.045 77.9076 173.098 77.7461 173.074 77.6309L173.069 77.6017C173.057 77.5438 173.023 77.4708 172.966 77.3817Z" fill="#FF3A6A"/>
<path d="M42.8319 15.1129L46.8774 8.67191C47.1757 8.1835 47.6029 7.87597 48.1589 7.74982C48.7039 7.62629 49.2167 7.72011 49.6965 8.03182C50.1743 8.33258 50.4753 8.75531 50.5989 9.30001C50.7277 9.86712 50.6416 10.3889 50.3412 10.8664L46.2921 17.2912L52.7207 21.3371C53.2011 21.6493 53.5041 22.083 53.6308 22.6387C53.7545 23.1834 53.6674 23.6999 53.3685 24.1883C53.0681 24.6658 52.6451 24.9665 52.1 25.0901C51.544 25.2162 51.0266 25.1292 50.5493 24.8284L44.113 20.7486L40.0378 27.2142C39.7368 27.6916 39.3138 27.9924 38.7693 28.1159C38.2128 28.2421 37.6959 28.155 37.2181 27.8542C36.7382 27.5425 36.4363 27.1141 36.3121 26.5694C36.1859 26.0137 36.272 25.4914 36.5703 25.003L40.6194 18.5787L34.1903 14.5323C33.7125 14.2315 33.4095 13.7978 33.2807 13.2307C33.157 12.686 33.2452 12.1752 33.5461 11.6977C33.8445 11.2093 34.2717 10.9018 34.8282 10.7757C35.3733 10.6521 35.8855 10.7459 36.3658 11.0576L42.8319 15.1129ZM49.9286 8.82098C49.6428 8.48843 49.2829 8.29557 48.8495 8.24188C48.6455 8.2179 48.4541 8.22624 48.2762 8.2669C48.1208 8.30182 47.9826 8.36281 47.8616 8.44829C47.7604 8.51814 47.6597 8.64063 47.5591 8.81525C47.5346 8.91429 47.5273 8.98622 47.5377 9.03053C47.5502 9.0863 47.6123 9.10141 47.7234 9.07587L47.7567 9.06857C47.9555 8.96485 48.138 8.89396 48.3049 8.85643C48.839 8.73498 49.2944 8.9122 49.6715 9.38758C49.6986 9.40478 49.7236 9.41103 49.7461 9.40582C49.8014 9.39331 49.854 9.34066 49.9031 9.24736C49.9803 9.12487 50.0116 9.03 49.9964 8.96328L49.9923 8.9466C49.985 8.91324 49.9636 8.87155 49.9286 8.82098ZM33.7548 12.6146C33.7449 12.6756 33.7443 12.7225 33.7516 12.7559L33.7553 12.7725C33.7704 12.8393 33.8398 12.9112 33.9624 12.9883C34.0469 13.0509 34.1168 13.0759 34.1726 13.0634C34.195 13.0582 34.2143 13.042 34.2315 13.0149C34.3661 12.4233 34.7004 12.0668 35.2345 11.9458C35.4014 11.9078 35.5965 11.8927 35.8208 11.9005L35.8542 11.8927C35.9653 11.8677 36.0143 11.827 36.0018 11.7718C35.9919 11.7269 35.9543 11.6654 35.8896 11.5867C35.7232 11.4726 35.5793 11.4058 35.4583 11.3866C35.3122 11.361 35.161 11.3662 35.0055 11.4017C34.8277 11.4418 34.6514 11.5169 34.4777 11.6268C34.11 11.8619 33.869 12.1914 33.7548 12.6146Z" fill="#FF3A6A"/>
</svg>
