<svg width="253" height="103" viewBox="0 0 253 103" fill="none" xmlns="http://www.w3.org/2000/svg">
<g clip-path="url(#clip0_34064_133196)">
<g clip-path="url(#clip1_34064_133196)">
<g clip-path="url(#clip2_34064_133196)">
<path d="M14.9637 60.0319C13.714 60.0319 12.5122 59.8289 11.3586 59.423C10.221 59.0172 9.33973 58.4814 8.71484 57.8158L9.41184 56.4277C10.0207 57.0447 10.8299 57.5479 11.8393 57.9376C12.8487 58.311 13.8902 58.4977 14.9637 58.4977C16.4699 58.4977 17.5995 58.2216 18.3526 57.6697C19.1056 57.1015 19.4821 56.3709 19.4821 55.478C19.4821 54.7961 19.2739 54.2522 18.8573 53.8463C18.4567 53.4405 17.96 53.1321 17.3672 52.921C16.7743 52.6937 15.9491 52.4502 14.8916 52.1904C13.6258 51.8657 12.6164 51.5573 11.8633 51.265C11.1103 50.9566 10.4613 50.4938 9.91655 49.8769C9.3878 49.26 9.12343 48.4239 9.12343 47.3686C9.12343 46.5082 9.34774 45.7289 9.79638 45.0308C10.245 44.3165 10.934 43.7483 11.8633 43.3262C12.7926 42.9041 13.9463 42.693 15.3242 42.693C16.2856 42.693 17.223 42.831 18.1362 43.107C19.0655 43.3667 19.8667 43.732 20.5396 44.2028L19.9388 45.6396C19.2338 45.1688 18.4807 44.8197 17.6796 44.5925C16.8785 44.3489 16.0933 44.2272 15.3242 44.2272C13.8502 44.2272 12.7366 44.5194 11.9835 45.1039C11.2464 45.6721 10.8779 46.4108 10.8779 47.3199C10.8779 48.0018 11.0782 48.5538 11.4788 48.9759C11.8954 49.3818 12.4081 49.6984 13.017 49.9256C13.6419 50.1367 14.475 50.3721 15.5165 50.6319C16.7503 50.9403 17.7437 51.2488 18.4968 51.5572C19.2658 51.8495 19.9148 52.3041 20.4435 52.921C20.9723 53.5216 21.2367 54.3415 21.2367 55.3806C21.2367 56.241 21.0043 57.0284 20.5396 57.7427C20.0911 58.4409 19.394 59.0009 18.4487 59.423C17.5033 59.8289 16.3417 60.0319 14.9637 60.0319ZM32.4182 60.0319C30.7518 60.0319 29.2456 59.6585 27.8997 58.9117C26.5698 58.1648 25.5203 57.1339 24.7513 55.8189C23.9982 54.4877 23.6217 53.0021 23.6217 51.3624C23.6217 49.7227 23.9982 48.2453 24.7513 46.9303C25.5203 45.599 26.5778 44.56 27.9238 43.8132C29.2697 43.0664 30.7758 42.693 32.4422 42.693C33.692 42.693 34.8456 42.9041 35.9031 43.3262C36.9606 43.7483 37.8579 44.3652 38.595 45.1769L37.4654 46.3215C36.1515 44.974 34.4931 44.3002 32.4903 44.3002C31.1604 44.3002 29.9506 44.6087 28.8611 45.2256C27.7715 45.8426 26.9143 46.6868 26.2895 47.7583C25.6806 48.8298 25.3761 50.0311 25.3761 51.3624C25.3761 52.6937 25.6806 53.895 26.2895 54.9666C26.9143 56.0381 27.7715 56.8823 28.8611 57.4992C29.9506 58.1161 31.1604 58.4246 32.4903 58.4246C34.5091 58.4246 36.1675 57.7427 37.4654 56.379L38.595 57.5236C37.8579 58.3353 36.9527 58.9604 35.8791 59.3987C34.8216 59.8208 33.668 60.0319 32.4182 60.0319ZM56.4463 42.8391V59.8857H54.6919V52.0199H44.1649V59.8857H42.3863V42.8391H44.1649V50.437H54.6919V42.8391H56.4463ZM79.4105 42.8391V59.8857H77.7041V46.2485L71.0947 57.7184H70.2535L63.6441 46.3215V59.8857H61.9377V42.8391H63.4038L70.7102 55.478L77.9444 42.8391H79.4105ZM84.8922 42.8391H86.6707V59.8857H84.8922V42.8391ZM92.1446 42.8391H98.9943C100.773 42.8391 102.343 43.2044 103.705 43.9349C105.067 44.6493 106.125 45.6558 106.878 46.9546C107.63 48.2372 108.007 49.7065 108.007 51.3624C108.007 53.0184 107.63 54.4958 106.878 55.7946C106.125 57.0771 105.067 58.0837 103.705 58.8143C102.343 59.5285 100.773 59.8857 98.9943 59.8857H92.1446V42.8391ZM98.8982 58.3272C100.372 58.3272 101.662 58.035 102.768 57.4505C103.873 56.8498 104.731 56.0299 105.34 54.9909C105.948 53.9356 106.253 52.7262 106.253 51.3624C106.253 49.9987 105.948 48.7973 105.34 47.7583C104.731 46.703 103.873 45.8832 102.768 45.2987C101.662 44.698 100.372 44.3976 98.8982 44.3976H93.923V58.3272H98.8982ZM115.035 44.3976H109.123V42.8391H122.726V44.3976H116.814V59.8857H115.035V44.3976ZM135.006 46.0049V50.5101H142.793V53.6759H135.006V59.8857H131.112V42.8391H143.826V46.0049H135.006ZM153.938 60.178C151.534 60.178 149.659 59.5042 148.313 58.1567C146.983 56.8092 146.318 54.8854 146.318 52.3852V42.8391H150.212V52.2391C150.212 55.2913 151.462 56.8173 153.961 56.8173C155.179 56.8173 156.109 56.452 156.749 55.7215C157.391 54.9747 157.71 53.8139 157.71 52.2391V42.8391H161.557V52.3852C161.557 54.8854 160.884 56.8092 159.537 58.1567C158.208 59.5042 156.341 60.178 153.938 60.178ZM168.606 46.0536H163.222V42.8391H177.884V46.0536H172.5V59.8857H168.606V46.0536ZM187.172 60.178C184.768 60.178 182.894 59.5042 181.548 58.1567C180.218 56.8092 179.553 54.8854 179.553 52.3852V42.8391H183.446V52.2391C183.446 55.2913 184.697 56.8173 187.196 56.8173C188.413 56.8173 189.343 56.452 189.984 55.7215C190.624 54.9747 190.945 53.8139 190.945 52.2391V42.8391H194.79V52.3852C194.79 54.8854 194.117 56.8092 192.772 58.1567C191.441 59.5042 189.575 60.178 187.172 60.178ZM209.357 59.8857L206.112 55.137H205.92H202.532V59.8857H198.638V42.8391H205.92C207.41 42.8391 208.7 43.0907 209.79 43.594C210.895 44.0973 211.745 44.8116 212.337 45.737C212.931 46.6625 213.227 47.7583 213.227 49.0246C213.227 50.2909 212.923 51.3868 212.314 52.3122C211.72 53.2213 210.872 53.9194 209.766 54.4065L213.539 59.8857H209.357ZM209.286 49.0246C209.286 48.0668 208.981 47.3362 208.372 46.8329C207.763 46.3134 206.874 46.0536 205.704 46.0536H202.532V51.9956H205.704C206.874 51.9956 207.763 51.7358 208.372 51.2163C208.981 50.6968 209.286 49.9662 209.286 49.0246ZM229.339 56.7199V59.8857H216.313V42.8391H229.026V46.0049H220.181V49.7065H227.992V52.7749H220.181V56.7199H229.339ZM237.964 60.178C236.634 60.178 235.344 59.9994 234.094 59.6422C232.86 59.2688 231.868 58.7899 231.114 58.2054L232.437 55.2344C233.158 55.7702 234.014 56.2004 235.008 56.5251C236.001 56.8498 236.995 57.0122 237.988 57.0122C239.094 57.0122 239.911 56.8498 240.44 56.5251C240.969 56.1842 241.232 55.7378 241.232 55.1857C241.232 54.7798 241.073 54.4471 240.752 54.1873C240.448 53.9113 240.047 53.6921 239.55 53.5297C239.07 53.3674 238.412 53.1889 237.58 52.994C236.298 52.6856 235.248 52.3771 234.431 52.0686C233.614 51.7601 232.909 51.265 232.316 50.5832C231.739 49.9013 231.451 48.9921 231.451 47.8557C231.451 46.8654 231.715 45.9724 232.243 45.1769C232.773 44.3652 233.566 43.7239 234.623 43.2531C235.697 42.7823 237.003 42.5469 238.541 42.5469C239.614 42.5469 240.664 42.6767 241.69 42.9365C242.715 43.1962 243.612 43.5696 244.381 44.0567L243.18 47.052C241.625 46.1591 240.071 45.7127 238.516 45.7127C237.427 45.7127 236.618 45.8913 236.09 46.2485C235.577 46.6056 235.32 47.0764 235.32 47.6609C235.32 48.2453 235.617 48.6836 236.209 48.9759C236.818 49.2519 237.739 49.5279 238.973 49.8039C240.255 50.1124 241.305 50.4208 242.122 50.7293C242.939 51.0378 243.636 51.5248 244.213 52.1904C244.806 52.856 245.102 53.7571 245.102 54.8935C245.102 55.8676 244.83 56.7605 244.285 57.5723C243.756 58.3678 242.955 59.0009 241.882 59.4717C240.808 59.9425 239.502 60.178 237.964 60.178Z" fill="white"/>
</g>
</g>
</g>
<defs>
<clipPath id="clip0_34064_133196">
<rect width="252.146" height="102.434" fill="white" transform="translate(0.835938)"/>
</clipPath>
<clipPath id="clip1_34064_133196">
<rect width="252.146" height="102.434" fill="white" transform="translate(0.835938)"/>
</clipPath>
<clipPath id="clip2_34064_133196">
<rect width="236.387" height="102.435" fill="white" transform="translate(8.71484)"/>
</clipPath>
</defs>
</svg>
