<svg width="253" height="103" viewBox="0 0 253 103" fill="none" xmlns="http://www.w3.org/2000/svg">
<g clip-path="url(#clip0_34080_75007)">
<g clip-path="url(#clip1_34080_75007)">
<g clip-path="url(#clip2_34080_75007)">
<path d="M14.1317 60.3522C12.8819 60.3522 11.6802 60.1492 10.5266 59.7434C9.38895 59.3375 8.5077 58.8017 7.88281 58.1361L8.5798 56.748C9.18867 57.365 9.99782 57.8682 11.0073 58.2579C12.0167 58.6313 13.0582 58.818 14.1317 58.818C15.6378 58.818 16.7674 58.542 17.5206 57.99C18.2736 57.4218 18.6501 56.6912 18.6501 55.7983C18.6501 55.1164 18.4418 54.5725 18.0252 54.1667C17.6246 53.7608 17.128 53.4524 16.5351 53.2413C15.9423 53.014 15.1171 52.7705 14.0596 52.5107C12.7938 52.186 11.7844 51.8776 11.0313 51.5853C10.2782 51.2769 9.6293 50.8141 9.08452 50.1972C8.55577 49.5804 8.29139 48.7442 8.29139 47.6889C8.29139 46.8285 8.51571 46.0492 8.96435 45.3511C9.41299 44.6368 10.102 44.0686 11.0313 43.6465C11.9606 43.2244 13.1143 43.0133 14.4922 43.0133C15.4536 43.0133 16.3909 43.1513 17.3042 43.4273C18.2335 43.6871 19.0347 44.0524 19.7076 44.5232L19.1068 45.9599C18.4018 45.4891 17.6487 45.1401 16.8476 44.9128C16.0464 44.6692 15.2613 44.5475 14.4922 44.5475C13.0181 44.5475 11.9045 44.8398 11.1515 45.4242C10.4144 45.9924 10.0459 46.7311 10.0459 47.6402C10.0459 48.3221 10.2462 48.8741 10.6467 49.2962C11.0633 49.7021 11.5761 50.0187 12.1849 50.2459C12.8098 50.457 13.643 50.6924 14.6845 50.9522C15.9182 51.2606 16.9116 51.5691 17.6648 51.8776C18.4338 52.1698 19.0828 52.6244 19.6115 53.2413C20.1403 53.8419 20.4046 54.6618 20.4046 55.7009C20.4046 56.5613 20.1723 57.3488 19.7076 58.063C19.259 58.7612 18.562 59.3212 17.6167 59.7434C16.6713 60.1492 15.5097 60.3522 14.1317 60.3522ZM31.5862 60.3522C29.9198 60.3522 28.4136 59.9788 27.0677 59.232C25.7378 58.4851 24.6883 57.4543 23.9192 56.1392C23.1661 54.808 22.7896 53.3224 22.7896 51.6827C22.7896 50.043 23.1661 48.5656 23.9192 47.2506C24.6883 45.9193 25.7458 44.8803 27.0917 44.1335C28.4376 43.3867 29.9438 43.0133 31.6102 43.0133C32.86 43.0133 34.0136 43.2244 35.0711 43.6465C36.1286 44.0686 37.0259 44.6855 37.763 45.4972L36.6333 46.6418C35.3194 45.2943 33.6611 44.6206 31.6583 44.6206C30.3283 44.6206 29.1186 44.929 28.0291 45.5459C26.9395 46.1629 26.0823 47.0071 25.4574 48.0786C24.8486 49.1501 24.5441 50.3514 24.5441 51.6827C24.5441 53.014 24.8486 54.2154 25.4574 55.2869C26.0823 56.3584 26.9395 57.2026 28.0291 57.8195C29.1186 58.4364 30.3283 58.7449 31.6583 58.7449C33.6771 58.7449 35.3355 58.063 36.6333 56.6993L37.763 57.8439C37.0259 58.6557 36.1206 59.2807 35.047 59.719C33.9896 60.1411 32.8359 60.3522 31.5862 60.3522ZM55.6143 43.1594V60.206H53.8598V52.3403H43.3329V60.206H41.5543V43.1594H43.3329V50.7573H53.8598V43.1594H55.6143ZM78.5785 43.1594V60.206H76.8721V46.5688L70.2627 58.0387H69.4214L62.8121 46.6418V60.206H61.1057V43.1594H62.5717L69.8781 55.7983L77.1124 43.1594H78.5785ZM84.0601 43.1594H85.8386V60.206H84.0601V43.1594ZM91.3126 43.1594H98.1623C99.9407 43.1594 101.511 43.5247 102.873 44.2553C104.235 44.9696 105.293 45.9762 106.046 47.2749C106.798 48.5575 107.175 50.0268 107.175 51.6827C107.175 53.3387 106.798 54.8161 106.046 56.1149C105.293 57.3974 104.235 58.404 102.873 59.1346C101.511 59.8489 99.9407 60.206 98.1623 60.206H91.3126V43.1594ZM98.0662 58.6475C99.5404 58.6475 100.83 58.3553 101.936 57.7709C103.041 57.1701 103.899 56.3502 104.508 55.3112C105.116 54.2559 105.421 53.0465 105.421 51.6827C105.421 50.319 105.116 49.1177 104.508 48.0786C103.899 47.0233 103.041 46.2035 101.936 45.619C100.83 45.0183 99.5404 44.7179 98.0662 44.7179H93.091V58.6475H98.0662ZM114.203 44.7179H108.291V43.1594H121.894V44.7179H115.982V60.206H114.203V44.7179ZM134.174 46.3252V50.8304H141.961V53.9962H134.174V60.206H130.28V43.1594H142.994V46.3252H134.174ZM153.106 60.4983C150.702 60.4983 148.827 59.8245 147.481 58.477C146.151 57.1295 145.486 55.2057 145.486 52.7055V43.1594H149.38V52.5594C149.38 55.6116 150.63 57.1377 153.129 57.1377C154.347 57.1377 155.277 56.7724 155.917 56.0418C156.559 55.295 156.878 54.1342 156.878 52.5594V43.1594H160.725V52.7055C160.725 55.2057 160.052 57.1295 158.705 58.477C157.376 59.8245 155.509 60.4983 153.106 60.4983ZM167.774 46.3739H162.39V43.1594H177.052V46.3739H171.668V60.206H167.774V46.3739ZM186.339 60.4983C183.936 60.4983 182.062 59.8245 180.716 58.477C179.386 57.1295 178.721 55.2057 178.721 52.7055V43.1594H182.614V52.5594C182.614 55.6116 183.865 57.1377 186.364 57.1377C187.581 57.1377 188.511 56.7724 189.152 56.0418C189.792 55.295 190.113 54.1342 190.113 52.5594V43.1594H193.958V52.7055C193.958 55.2057 193.285 57.1295 191.939 58.477C190.609 59.8245 188.743 60.4983 186.339 60.4983ZM208.525 60.206L205.28 55.4573H205.088H201.7V60.206H197.806V43.1594H205.088C206.578 43.1594 207.868 43.411 208.958 43.9143C210.063 44.4177 210.913 45.1319 211.505 46.0573C212.099 46.9828 212.395 48.0786 212.395 49.3449C212.395 50.6112 212.091 51.7071 211.482 52.6325C210.888 53.5417 210.04 54.2397 208.934 54.7268L212.707 60.206H208.525ZM208.454 49.3449C208.454 48.3871 208.149 47.6565 207.539 47.1532C206.931 46.6337 206.042 46.3739 204.872 46.3739H201.7V52.3159H204.872C206.042 52.3159 206.931 52.0561 207.539 51.5366C208.149 51.0171 208.454 50.2865 208.454 49.3449ZM228.507 57.0403V60.206H215.481V43.1594H228.194V46.3252H219.349V50.0268H227.16V53.0952H219.349V57.0403H228.507ZM237.132 60.4983C235.802 60.4983 234.512 60.3197 233.262 59.9626C232.028 59.5891 231.036 59.1102 230.282 58.5257L231.604 55.5547C232.325 56.0905 233.182 56.5208 234.176 56.8454C235.169 57.1701 236.163 57.3325 237.156 57.3325C238.262 57.3325 239.079 57.1701 239.608 56.8454C240.137 56.5045 240.4 56.0581 240.4 55.506C240.4 55.1002 240.241 54.7674 239.92 54.5076C239.616 54.2316 239.215 54.0125 238.718 53.8501C238.238 53.6877 237.58 53.5092 236.747 53.3143C235.465 53.0059 234.416 52.6974 233.599 52.3889C232.782 52.0805 232.076 51.5853 231.484 50.9035C230.907 50.2216 230.619 49.3124 230.619 48.176C230.619 47.1857 230.883 46.2928 231.411 45.4972C231.941 44.6855 232.734 44.0442 233.791 43.5734C234.865 43.1026 236.171 42.8672 237.709 42.8672C238.782 42.8672 239.832 42.997 240.857 43.2568C241.883 43.5165 242.78 43.89 243.549 44.377L242.348 47.3723C240.793 46.4794 239.239 46.033 237.684 46.033C236.595 46.033 235.786 46.2116 235.257 46.5688C234.745 46.9259 234.488 47.3968 234.488 47.9812C234.488 48.5656 234.785 49.004 235.377 49.2962C235.986 49.5722 236.907 49.8482 238.141 50.1242C239.423 50.4327 240.473 50.7411 241.29 51.0496C242.107 51.3581 242.804 51.8451 243.381 52.5107C243.974 53.1764 244.27 54.0774 244.27 55.2139C244.27 56.1879 243.998 57.0808 243.453 57.8926C242.924 58.6881 242.123 59.3212 241.05 59.792C239.976 60.2629 238.67 60.4983 237.132 60.4983Z" fill="white"/>
</g>
</g>
</g>
<defs>
<clipPath id="clip0_34080_75007">
<rect width="252.146" height="102.434" fill="white" transform="translate(0 0.320312)"/>
</clipPath>
<clipPath id="clip1_34080_75007">
<rect width="252.146" height="102.434" fill="white" transform="translate(0 0.320312)"/>
</clipPath>
<clipPath id="clip2_34080_75007">
<rect width="236.387" height="102.435" fill="white" transform="translate(7.88281 0.320312)"/>
</clipPath>
</defs>
</svg>
