<svg width="25" height="25" viewBox="0 0 25 25" fill="none" xmlns="http://www.w3.org/2000/svg">
<path d="M23 12.7523C23 12.7008 23 12.6422 22.9977 12.5742C22.9953 12.3844 22.9906 12.1711 22.9859 11.9438C22.9672 11.2898 22.9344 10.6383 22.8828 10.0242C22.8125 9.17812 22.7094 8.47266 22.5687 7.94297C22.4204 7.39019 22.1295 6.88605 21.7252 6.48093C21.3209 6.07581 20.8173 5.7839 20.2648 5.63437C19.6016 5.45625 18.3031 5.34609 16.475 5.27812C15.6055 5.24531 14.675 5.22422 13.7445 5.2125C13.4187 5.20781 13.1164 5.20547 12.8445 5.20312H12.1555C11.8836 5.20547 11.5813 5.20781 11.2555 5.2125C10.325 5.22422 9.39453 5.24531 8.525 5.27812C6.69687 5.34844 5.39609 5.45859 4.73516 5.63437C4.1825 5.78353 3.67876 6.07532 3.2744 6.4805C2.87004 6.88567 2.57928 7.39001 2.43125 7.94297C2.28828 8.47266 2.1875 9.17812 2.11719 10.0242C2.06562 10.6383 2.03281 11.2898 2.01406 11.9438C2.00703 12.1711 2.00469 12.3844 2.00234 12.5742C2.00234 12.6422 2 12.7008 2 12.7523V12.8836C2 12.9352 2 12.9938 2.00234 13.0617C2.00469 13.2516 2.00937 13.4648 2.01406 13.6922C2.03281 14.3461 2.06562 14.9977 2.11719 15.6117C2.1875 16.4578 2.29063 17.1633 2.43125 17.693C2.73125 18.8156 3.6125 19.7016 4.73516 20.0016C5.39609 20.1797 6.69687 20.2898 8.525 20.3578C9.39453 20.3906 10.325 20.4117 11.2555 20.4234C11.5813 20.4281 11.8836 20.4305 12.1555 20.4328H12.8445C13.1164 20.4305 13.4187 20.4281 13.7445 20.4234C14.675 20.4117 15.6055 20.3906 16.475 20.3578C18.3031 20.2875 19.6039 20.1773 20.2648 20.0016C21.3875 19.7016 22.2687 18.818 22.5687 17.693C22.7117 17.1633 22.8125 16.4578 22.8828 15.6117C22.9344 14.9977 22.9672 14.3461 22.9859 13.6922C22.993 13.4648 22.9953 13.2516 22.9977 13.0617C22.9977 12.9938 23 12.9352 23 12.8836V12.7523ZM21.3125 12.8742C21.3125 12.9234 21.3125 12.9773 21.3102 13.0406C21.3078 13.2234 21.3031 13.425 21.2984 13.643C21.282 14.2664 21.2492 14.8898 21.2 15.4687C21.1367 16.2234 21.0477 16.8422 20.9375 17.257C20.7922 17.7984 20.3656 18.2273 19.8266 18.3703C19.3344 18.5016 18.0945 18.607 16.4094 18.6703C15.5562 18.7031 14.6375 18.7242 13.7211 18.7359C13.4 18.7406 13.1023 18.743 12.8352 18.743H12.1648L11.2789 18.7359C10.3625 18.7242 9.44609 18.7031 8.59063 18.6703C6.90547 18.6047 5.66328 18.5016 5.17344 18.3703C4.63437 18.225 4.20781 17.7984 4.0625 17.257C3.95234 16.8422 3.86328 16.2234 3.8 15.4687C3.75078 14.8898 3.72031 14.2664 3.70156 13.643C3.69453 13.425 3.69219 13.2211 3.68984 13.0406C3.68984 12.9773 3.6875 12.9211 3.6875 12.8742V12.7617C3.6875 12.7125 3.6875 12.6586 3.68984 12.5953C3.69219 12.4125 3.69688 12.2109 3.70156 11.993C3.71797 11.3695 3.75078 10.7461 3.8 10.1672C3.86328 9.4125 3.95234 8.79375 4.0625 8.37891C4.20781 7.8375 4.63437 7.40859 5.17344 7.26562C5.66562 7.13437 6.90547 7.02891 8.59063 6.96562C9.44375 6.93281 10.3625 6.91172 11.2789 6.9C11.6 6.89531 11.8977 6.89297 12.1648 6.89297H12.8352L13.7211 6.9C14.6375 6.91172 15.5539 6.93281 16.4094 6.96562C18.0945 7.03125 19.3367 7.13437 19.8266 7.26562C20.3656 7.41094 20.7922 7.8375 20.9375 8.37891C21.0477 8.79375 21.1367 9.4125 21.2 10.1672C21.2492 10.7461 21.2797 11.3695 21.2984 11.993C21.3055 12.2109 21.3078 12.4148 21.3102 12.5953C21.3102 12.6586 21.3125 12.7148 21.3125 12.7617V12.8742ZM10.4141 15.9586L15.8516 12.7945L10.4141 9.67734V15.9586Z" fill="#FF3A6A"/>
</svg>
