<svg width="32" height="33" viewBox="0 0 32 33" fill="none" xmlns="http://www.w3.org/2000/svg">
<path d="M30.7089 10.6736L26.9339 14.4361C26.1839 23.1736 18.8089 29.9611 9.99643 29.9611C8.18393 29.9611 6.68393 29.6736 5.54643 29.1111C4.63393 28.6486 4.25893 28.1611 4.15893 28.0111C4.07619 27.8854 4.02287 27.7427 4.00296 27.5935C3.98304 27.4444 3.99703 27.2927 4.04389 27.1497C4.09074 27.0067 4.16926 26.8762 4.27359 26.7678C4.37791 26.6593 4.50536 26.5759 4.64643 26.5236C4.67143 26.5111 7.62143 25.3861 9.53393 23.2236C8.34785 22.379 7.30537 21.3492 6.44643 20.1736C4.73393 17.8486 2.92143 13.8111 4.00893 7.78605C4.04311 7.60694 4.12504 7.44038 4.24605 7.30396C4.36706 7.16755 4.52266 7.06635 4.69643 7.01105C4.87074 6.95398 5.0574 6.94594 5.23598 6.98783C5.41456 7.02972 5.57817 7.11992 5.70893 7.24855C5.74643 7.29855 9.90893 11.3986 14.9964 12.7236V11.9611C15.0013 11.1682 15.1624 10.3841 15.4703 9.65344C15.7783 8.92281 16.2271 8.26 16.7913 7.70285C17.3554 7.14569 18.0237 6.70511 18.7581 6.40625C19.4925 6.10739 20.2786 5.95611 21.0714 5.96105C22.112 5.9759 23.1311 6.26003 24.0292 6.78578C24.9274 7.31153 25.674 8.06096 26.1964 8.96105H29.9964C30.1939 8.96044 30.387 9.01827 30.5517 9.12727C30.7163 9.23627 30.8449 9.39155 30.9214 9.57355C30.9935 9.75827 31.0117 9.9596 30.9741 10.1543C30.9365 10.3489 30.8446 10.529 30.7089 10.6736Z" fill="#FF3A6A"/>
</svg>
