<svg width="32" height="33" viewBox="0 0 32 33" fill="none" xmlns="http://www.w3.org/2000/svg">
<path d="M25.3333 4.96094C26.0406 4.96094 26.7189 5.24189 27.219 5.74199C27.719 6.24208 28 6.92036 28 7.6276V26.2943C28 27.0015 27.719 27.6798 27.219 28.1799C26.7189 28.68 26.0406 28.9609 25.3333 28.9609H6.66667C5.95942 28.9609 5.28115 28.68 4.78105 28.1799C4.28095 27.6798 4 27.0015 4 26.2943V7.6276C4 6.92036 4.28095 6.24208 4.78105 5.74199C5.28115 5.24189 5.95942 4.96094 6.66667 4.96094H25.3333ZM24.6667 25.6276V18.5609C24.6667 17.4081 24.2087 16.3025 23.3936 15.4874C22.5784 14.6722 21.4728 14.2143 20.32 14.2143C19.1867 14.2143 17.8667 14.9076 17.2267 15.9476V14.4676H13.5067V25.6276H17.2267V19.0543C17.2267 18.0276 18.0533 17.1876 19.08 17.1876C19.5751 17.1876 20.0499 17.3843 20.3999 17.7343C20.75 18.0844 20.9467 18.5592 20.9467 19.0543V25.6276H24.6667ZM9.17333 12.3743C9.76742 12.3743 10.3372 12.1383 10.7573 11.7182C11.1773 11.2981 11.4133 10.7284 11.4133 10.1343C11.4133 8.89427 10.4133 7.88094 9.17333 7.88094C8.57571 7.88094 8.00257 8.11834 7.57999 8.54092C7.1574 8.96351 6.92 9.53665 6.92 10.1343C6.92 11.3743 7.93333 12.3743 9.17333 12.3743ZM11.0267 25.6276V14.4676H7.33333V25.6276H11.0267Z" fill="#FF3A6A"/>
</svg>
