<svg width="20" height="21" viewBox="0 0 20 21" fill="none" xmlns="http://www.w3.org/2000/svg">
<path d="M14.7982 17.215L10 12.4168L5.20178 17.215C4.94726 17.4696 4.60207 17.6125 4.24213 17.6125C3.88219 17.6125 3.537 17.4696 3.28249 17.215C3.02797 16.9605 2.88499 16.6153 2.88499 16.2554C2.88499 15.8955 3.02797 15.5503 3.28249 15.2958L8.08071 10.4975L3.28249 5.6993C3.02797 5.44479 2.88499 5.0996 2.88499 4.73966C2.88499 4.37972 3.02797 4.03453 3.28249 3.78001C3.537 3.5255 3.88219 3.38252 4.24213 3.38252C4.60207 3.38252 4.94726 3.5255 5.20178 3.78001L10 8.57824L14.7982 3.78001C15.0527 3.5255 15.3979 3.38252 15.7579 3.38252C16.1178 3.38252 16.463 3.5255 16.7175 3.78001C16.972 4.03453 17.115 4.37972 17.115 4.73966C17.115 5.0996 16.972 5.44479 16.7175 5.6993L11.9193 10.4975L16.7175 15.2958C16.972 15.5503 17.115 15.8955 17.115 16.2554C17.115 16.6153 16.972 16.9605 16.7175 17.215C16.463 17.4696 16.1178 17.6125 15.7579 17.6125C15.3979 17.6125 15.0527 17.4696 14.7982 17.215Z" fill="white"/>
</svg>
