<svg width="32" height="33" viewBox="0 0 32 33" fill="none" xmlns="http://www.w3.org/2000/svg">
<path d="M26.6113 16.2472L22.8238 20.0347C22.1738 20.6848 21.4021 21.2005 20.5527 21.5523C19.7034 21.9042 18.7931 22.0852 17.8738 22.0852C16.9545 22.0852 16.0442 21.9042 15.1948 21.5523C14.3455 21.2005 13.5738 20.6848 12.9238 20.0347C12.7635 19.9013 12.6329 19.736 12.5401 19.5493C12.4473 19.3626 12.3945 19.1585 12.385 18.9503C12.3755 18.742 12.4095 18.534 12.4849 18.3396C12.5603 18.1452 12.6753 17.9686 12.8228 17.8212C12.9702 17.6738 13.1467 17.5587 13.3411 17.4833C13.5355 17.4079 13.7435 17.3739 13.9518 17.3834C14.1601 17.3929 14.3641 17.4458 14.5508 17.5385C14.7376 17.6313 14.9029 17.762 15.0363 17.9222C15.7899 18.668 16.8073 19.0863 17.8675 19.0863C18.9278 19.0863 19.9452 18.668 20.6988 17.9222L24.4863 14.1347C25.2372 13.3838 25.659 12.3654 25.659 11.3035C25.659 10.2416 25.2372 9.22313 24.4863 8.47223C23.7354 7.72134 22.717 7.29949 21.655 7.29949C20.5931 7.29949 19.5747 7.72134 18.8238 8.47223L17.6238 9.68473C17.342 9.96653 16.9598 10.1248 16.5613 10.1248C16.1628 10.1248 15.7806 9.96653 15.4988 9.68473C15.217 9.40294 15.0587 9.02075 15.0587 8.62223C15.0587 8.22372 15.217 7.84152 15.4988 7.55973L16.7113 6.34723C18.0241 5.03441 19.8047 4.29688 21.6613 4.29688C23.5179 4.29688 25.2985 5.03441 26.6113 6.34723C27.9241 7.66005 28.6617 9.44062 28.6617 11.2972C28.6617 13.1538 27.9241 14.9344 26.6113 16.2472ZM14.3738 24.2347L13.1738 25.4472C12.4229 26.1981 11.4045 26.62 10.3425 26.62C9.28062 26.62 8.26219 26.1981 7.51129 25.4472C6.7604 24.6963 6.33855 23.6779 6.33855 22.616C6.33855 21.5541 6.7604 20.5356 7.51129 19.7847L11.2988 15.9972C12.0524 15.2514 13.0698 14.8331 14.13 14.8331C15.1903 14.8331 16.2077 15.2514 16.9613 15.9972C17.2489 16.2366 17.6155 16.3599 17.9893 16.3428C18.3631 16.3257 18.717 16.1696 18.9816 15.905C19.2462 15.6404 19.4023 15.2865 19.4194 14.9128C19.4364 14.539 19.3132 14.1723 19.0738 13.8847C18.4246 13.2332 17.6532 12.7162 16.8037 12.3634C15.9543 12.0106 15.0436 11.829 14.1238 11.829C13.204 11.829 12.2933 12.0106 11.4439 12.3634C10.5944 12.7162 9.82298 13.2332 9.17379 13.8847L5.38629 17.6722C4.07347 18.9851 3.33594 20.7656 3.33594 22.6222C3.33594 24.4788 4.07347 26.2594 5.38629 27.5722C6.69912 28.8851 8.47968 29.6226 10.3363 29.6226C12.1929 29.6226 13.9735 28.8851 15.2863 27.5722L16.4988 26.3597C16.7806 26.0779 16.9389 25.6957 16.9389 25.2972C16.9389 24.8987 16.7806 24.5165 16.4988 24.2347C16.217 23.9529 15.8348 23.7946 15.4363 23.7946C15.0378 23.7946 14.6556 23.9529 14.3738 24.2347Z" fill="#FF3A6A"/>
</svg>
