<svg width="129" height="125" viewBox="0 0 129 125" fill="none" xmlns="http://www.w3.org/2000/svg">
<path d="M9.55725 17.9803C7.18645 29.5267 11.9563 38.8842 14.6375 42.1197L13.0288 52.6702C6.45829 46.3905 3.46091 37.6744 2.78354 34.1014C-1.28076 22.0316 1.4287 7.42982 7.10178 8.52707C12.0058 9.47558 10.2911 14.576 9.55725 17.9803Z" fill="#7432A0"/>
<path d="M9.13281 48.1149C10.5553 44.6712 12.8866 42.0097 13.8744 41.1094L14.6365 42.0378L13.0277 52.6727C11.402 51.2547 9.75374 49.0433 9.13281 48.1149Z" fill="#470F6B"/>
<path d="M100.348 10.434C104.018 21.64 100.35 31.4756 98.0567 34.9927L100.857 45.295C106.663 38.3148 108.645 29.3162 108.91 25.6895C111.569 13.2383 107.215 -0.965545 101.708 0.76402C96.948 2.25913 99.2317 7.13396 100.348 10.434Z" fill="#7432A0"/>
<path d="M104.197 40.3208C102.392 37.0591 99.7738 34.677 98.6902 33.8937L98.0394 34.9022L100.849 45.2888C102.302 43.6966 103.687 41.3134 104.197 40.3208Z" fill="#470F6B"/>
<path d="M58.5843 1.93948C39.8211 -0.0186846 33.2111 11.5334 32.2515 17.5541C32.9966 23.9013 26.5221 27.9639 23.1917 29.2018C9.39023 40.8495 12.8618 58.4055 15.9099 62.4569C18.3485 65.6979 16.3615 68.2526 15.0632 69.1247C-1.7356 84.5199 8.37417 102.717 17.0953 109.892C43.8515 129.676 86.1872 123.424 104.053 117.572C136.567 98.3284 130.724 85.6678 120.394 80.688C110.065 75.7082 104.222 68.3651 104.053 60.9376C103.884 53.5101 104.392 35.6165 90.2515 28.3578C76.1113 21.0991 82.4617 25.4881 76.3653 15.022C71.4883 6.64921 62.4792 2.81165 58.5843 1.93948Z" fill="#7432A0"/>
<path d="M75.3467 17.5535C74.3307 12.3543 69.5609 8.29728 67.303 6.91868C63.7468 4.0348 59.5979 3.45814 65.2708 8.43795C69.8092 12.4218 71.0285 15.8655 72.3832 19.1572C74.5022 24.3058 75.5725 19.6918 75.3467 17.5535Z" fill="#AF6ADC"/>
<path d="M98.8068 41.6114C98.1294 35.5344 90.9041 30.9766 87.3761 29.4573C84.328 27.8528 79.3324 28.3601 86.9528 32.4115C93.0491 35.6526 92.8798 39.1637 95.0812 42.9619C98.739 49.9843 99.089 44.9876 98.8068 41.6114Z" fill="#AF6ADC"/>
<ellipse cx="98.7207" cy="49.71" rx="1.43941" ry="1.77247" fill="#AF6ADC"/>
<ellipse cx="1.10062" cy="2.19471" rx="1.10062" ry="2.19471" transform="matrix(0.98446 0.17561 -0.176691 0.984266 33.625 16.4688)" fill="#AF6ADC"/>
<path d="M17.5187 40.8487C18.1283 34.6366 23.1352 30.3826 25.5625 29.0322C28.8646 27.1753 30.3887 27.6817 25.9012 31.3955C22.3111 34.3665 20.454 37.5851 19.9742 38.823C17.8066 47.4659 17.434 43.7747 17.5187 40.8487Z" fill="#AF6ADC"/>
<path d="M47.5719 37.7303C43.6431 37.5277 41.2498 35.3951 40.5442 34.3541C39.1612 32.8067 36.9541 30.7248 39.1894 34.7762C41.9836 39.8404 45.6244 40.0936 48.0799 40.0936C50.6059 40.0936 52.4828 37.9835 47.5719 37.7303Z" fill="#AF6ADC"/>
<path d="M13.7064 73.5984C15.0611 69.9522 12.3516 72.6981 10.8275 74.5268C8.78759 76.9745 7.59307 82.6802 8.54139 86.2589C9.72679 90.7323 11.7589 89.5507 11.3355 85.5837C10.9122 81.6167 12.0129 78.1562 13.7064 73.5984Z" fill="#AF6ADC"/>
<path d="M58.0826 71.2351C50.8347 73.3959 43.0393 71.4602 40.0476 70.2223C36.9994 68.9562 32.6135 67.8252 39.4549 73.4296C48.0067 80.4351 57.4368 77.6324 59.6067 76.0461C62.1468 74.1893 67.1425 68.5342 58.0826 71.2351Z" fill="#470F6B"/>
<path d="M82.3805 79.9308C98.8407 71.828 103.294 55.9602 103.464 49.0391C103.464 65.2446 106.004 73.5161 120.398 80.5216C134.792 87.5271 128.442 98.0775 118.705 108.797C110.915 117.372 94.5168 120.867 87.2915 121.542C42.4319 131.254 17.8875 113.535 11.1942 103.429C11.1866 103.418 11.1792 103.406 11.1719 103.395C11.1793 103.406 11.1868 103.418 11.1942 103.429C13.2407 106.46 27.2565 109.955 34.0332 111.329C66.4793 117.879 85.2029 103.085 90.509 94.8702C101.889 80.893 89.8316 79.0867 82.3805 79.9308Z" fill="#470F6B"/>
<path d="M118.446 81.192C110.994 78.9638 106.987 74.4116 105.914 72.4141C105.293 73.8771 105.101 77.4614 109.301 80.0948C113.501 82.7282 117.655 85.1309 119.208 86.003C120.845 87.0721 124.051 88.5689 123.78 86.003C123.509 83.4372 120.111 81.7266 118.446 81.192Z" fill="#7432A0"/>
<ellipse cx="52.2305" cy="21.4396" rx="15.4102" ry="15.3615" fill="#470F6B"/>
<ellipse cx="52.2269" cy="21.4435" rx="13.0394" ry="12.9982" fill="#F5F5F5"/>
<ellipse cx="52.2279" cy="21.4406" rx="9.31386" ry="9.28439" fill="url(#paint0_radial_36907_119738)"/>
<ellipse cx="51.8951" cy="21.6077" rx="4.40291" ry="4.38899" fill="#221F38"/>
<ellipse cx="51.2092" cy="52.1641" rx="20.4905" ry="9.4532" fill="url(#paint1_linear_36907_119738)"/>
<path d="M47.317 47.6062C45.2849 47.4037 45.4542 44.4552 45.7929 43.0484C47.5541 42.7784 50.0265 42.6264 51.3812 42.7108L51.3812 45.4117C51.3812 47.353 49.8572 47.8595 47.317 47.6062Z" fill="url(#paint2_linear_36907_119738)"/>
<path d="M53.8287 47.5219C52.203 47.3869 52.2481 44.2021 52.4739 42.7109C53.5746 42.7109 56.651 42.9642 58.0622 43.2174C58.8751 45.9858 57.5542 47.2969 56.7922 47.5219C56.4817 47.5782 55.4544 47.657 53.8287 47.5219Z" fill="url(#paint3_linear_36907_119738)"/>
<defs>
<radialGradient id="paint0_radial_36907_119738" cx="0" cy="0" r="1" gradientUnits="userSpaceOnUse" gradientTransform="translate(52.2279 21.4406) rotate(90) scale(9.28439 9.31386)">
<stop offset="0.375" stop-color="#E5B8CF"/>
<stop offset="0.901042" stop-color="#18BC29"/>
</radialGradient>
<linearGradient id="paint1_linear_36907_119738" x1="51.2092" y1="61.6173" x2="51.2092" y2="42.7109" gradientUnits="userSpaceOnUse">
<stop stop-color="#221F38"/>
<stop offset="1" stop-color="#413C65"/>
</linearGradient>
<linearGradient id="paint2_linear_36907_119738" x1="48.4836" y1="42.7952" x2="48.4836" y2="47.6667" gradientUnits="userSpaceOnUse">
<stop stop-color="#D9D6D7"/>
<stop offset="0.734375" stop-color="white"/>
</linearGradient>
<linearGradient id="paint3_linear_36907_119738" x1="55.3385" y1="42.8292" x2="55.3385" y2="47.5964" gradientUnits="userSpaceOnUse">
<stop stop-color="#D9D9D9"/>
<stop offset="0.770833" stop-color="white"/>
</linearGradient>
</defs>
</svg>
