<svg width="253" height="103" viewBox="0 0 253 103" fill="none" xmlns="http://www.w3.org/2000/svg">
<g clip-path="url(#clip0_34080_75011)">
<g clip-path="url(#clip1_34080_75011)">
<g clip-path="url(#clip2_34080_75011)">
<path d="M121.916 32.6851V25.9297H95.1016V59.1941H121.916V52.4417H103.747V45.9411H114.779V39.1857H103.747V32.6851H121.916Z" fill="white"/>
<path d="M136.724 50.5129V25.9297H128.078V59.1941H156.984V50.5129H136.724Z" fill="white"/>
<path d="M185.701 48.9751C191.323 48.9751 195.878 53.5498 195.878 59.1941H208.037L185.541 25.9297L163.367 59.1941H175.526C175.526 53.5498 180.081 48.9751 185.701 48.9751Z" fill="white"/>
<path d="M76.7848 25.9297C76.7848 31.577 72.2299 36.1517 66.6102 36.1517C60.9875 36.1517 56.4326 31.577 56.4326 25.9327V25.9297H44.2734L66.7699 59.1941L88.944 25.9297H76.7848Z" fill="white"/>
<path d="M46.3271 76.0856H50.6483V76.8174H45.5078V68.7109H50.5123V69.4457H46.3271V72.2249H50.2372V72.9597H46.3271V76.0856Z" fill="white"/>
<path d="M58.666 76.0856H60.2957C60.902 76.0856 61.4345 75.9878 61.887 75.7981C62.3365 75.6056 62.7121 75.3567 63.0079 75.0486C63.3037 74.7404 63.5256 74.3849 63.6735 73.9878C63.8243 73.5938 63.8983 73.1849 63.8983 72.7642C63.8983 72.3434 63.8243 71.9346 63.6735 71.5405C63.5256 71.1434 63.3037 70.7909 63.0079 70.4797C62.7121 70.1717 62.3365 69.9227 61.887 69.7302C61.4345 69.5405 60.902 69.4457 60.2957 69.4457H58.666V76.0856ZM57.8438 68.7109H60.5234C61.0263 68.7109 61.5291 68.7968 62.0349 68.9628C62.5377 69.1316 62.9961 69.3865 63.4013 69.7243C63.8065 70.065 64.1378 70.4887 64.3862 70.9953C64.6377 71.502 64.7649 72.0916 64.7649 72.7642C64.7649 73.4427 64.6377 74.0352 64.3862 74.5389C64.1378 75.0427 63.8065 75.4633 63.4013 75.8041C62.9961 76.1448 62.5377 76.3967 62.0349 76.5655C61.5291 76.7315 61.0263 76.8174 60.5234 76.8174H57.8438V68.7109Z" fill="white"/>
<path d="M73.551 77.0218C72.9447 77.0218 72.4478 76.9182 72.0574 76.7078C71.6699 76.4974 71.3623 76.2337 71.1346 75.9137C70.9069 75.5908 70.7501 75.2441 70.6613 74.8649C70.5756 74.4856 70.5312 74.13 70.5312 73.7952V68.7109H71.3535V73.7034C71.3535 74.0323 71.3889 74.3493 71.4658 74.6604C71.5428 74.9686 71.667 75.2441 71.8356 75.4841C72.0071 75.7241 72.2349 75.9196 72.5159 76.0678C72.7969 76.2159 73.1429 76.29 73.551 76.29C73.9622 76.29 74.3082 76.2159 74.5892 76.0678C74.8702 75.9196 75.095 75.7241 75.2666 75.4841C75.4381 75.2441 75.5623 74.9686 75.6363 74.6604C75.7132 74.3493 75.7516 74.0323 75.7516 73.7034V68.7109H76.5709V73.7952C76.5709 74.13 76.5295 74.4856 76.4408 74.8649C76.355 75.2441 76.1952 75.5908 75.9675 75.9137C75.7397 76.2337 75.4322 76.4974 75.0388 76.7078C74.6483 76.9182 74.1514 77.0218 73.551 77.0218Z" fill="white"/>
<path d="M89.8976 75.5031C89.7616 75.7076 89.596 75.9032 89.4007 76.0869C89.2085 76.2676 88.9837 76.4306 88.7293 76.5698C88.4749 76.7091 88.194 76.8216 87.8864 76.9017C87.5788 76.9847 87.2416 77.0231 86.8778 77.0231C86.2685 77.0231 85.7065 76.9165 85.1889 76.7031C84.6743 76.4898 84.2277 76.1936 83.858 75.8172C83.4853 75.438 83.1925 74.9906 82.9854 74.4721C82.7754 73.9536 82.6719 73.3847 82.6719 72.7655C82.6719 72.1462 82.7784 71.5803 82.9913 71.0588C83.2043 70.5404 83.4971 70.0929 83.8727 69.7137C84.2513 69.3374 84.695 69.0411 85.2067 68.8278C85.7214 68.6144 86.2774 68.5078 86.8778 68.5078C87.1736 68.5078 87.4634 68.5374 87.7503 68.5996C88.0342 68.6619 88.3034 68.7477 88.5519 68.8603C88.8033 68.9729 89.031 69.1093 89.2351 69.2663C89.4422 69.4233 89.6137 69.6011 89.7498 69.7996L89.0665 70.3033C88.9807 70.1729 88.8713 70.0455 88.7293 69.9152C88.5903 69.7848 88.4247 69.6722 88.2324 69.5715C88.0431 69.4707 87.8361 69.3937 87.6113 69.3315C87.3895 69.2692 87.1469 69.2396 86.8897 69.2396C86.3631 69.2396 85.8958 69.3345 85.4817 69.524C85.0677 69.7166 84.7157 69.9714 84.4259 70.2944C84.139 70.6173 83.9171 70.9937 83.7663 71.4173C83.6125 71.844 83.5385 72.2943 83.5385 72.7655C83.5385 73.2366 83.6155 73.6869 83.7722 74.1136C83.926 74.5373 84.1508 74.9136 84.4377 75.2365C84.7275 75.5595 85.0795 75.8172 85.4936 76.0069C85.9077 76.1965 86.372 76.2913 86.8897 76.2913C87.351 76.2913 87.7917 76.1965 88.2118 76.0039C88.6288 75.8143 88.9778 75.5091 89.2588 75.0884L89.8976 75.5031Z" fill="white"/>
<path d="M97.2366 73.9316H100.792L99.0142 69.6265L97.2366 73.9316ZM96.0505 76.8174H95.1484L98.6385 68.7109H99.4341L102.901 76.8174H101.99L101.099 74.687H96.929L96.0505 76.8174Z" fill="white"/>
<path d="M111.202 76.8174H110.38V69.4457H107.68V68.7109H113.903V69.4457H111.202V76.8174Z" fill="white"/>
<path d="M120.546 76.8174H119.727V68.7109H120.546V76.8174Z" fill="white"/>
<path d="M133.79 72.7714C133.79 72.3003 133.714 71.8499 133.562 71.4233C133.409 70.9966 133.19 70.6203 132.9 70.2973C132.61 69.9744 132.261 69.7166 131.847 69.524C131.433 69.3345 130.966 69.2396 130.451 69.2396C129.934 69.2396 129.467 69.3345 129.052 69.524C128.638 69.7166 128.289 69.9744 127.999 70.2973C127.709 70.6203 127.49 70.9966 127.337 71.4233C127.185 71.8499 127.109 72.3003 127.109 72.7714C127.109 73.2425 127.185 73.6929 127.337 74.1195C127.49 74.5462 127.709 74.9195 127.999 75.2395C128.289 75.5595 128.638 75.8143 129.052 76.0069C129.467 76.1965 129.934 76.2913 130.451 76.2913C130.966 76.2913 131.433 76.1965 131.847 76.0069C132.261 75.8143 132.61 75.5595 132.9 75.2395C133.19 74.9195 133.409 74.5462 133.562 74.1195C133.714 73.6929 133.79 73.2425 133.79 72.7714ZM134.654 72.7655C134.654 73.3847 134.547 73.9536 134.338 74.4721C134.125 74.9906 133.829 75.438 133.453 75.8172C133.078 76.1936 132.634 76.4898 132.12 76.7031C131.607 76.9165 131.049 77.0231 130.451 77.0231C129.848 77.0231 129.292 76.9165 128.78 76.7031C128.266 76.4898 127.822 76.1936 127.446 75.8172C127.07 75.438 126.775 74.9906 126.561 74.4721C126.349 73.9536 126.242 73.3847 126.242 72.7655C126.242 72.1462 126.349 71.5803 126.561 71.0588C126.775 70.5404 127.07 70.0929 127.446 69.7137C127.822 69.3374 128.266 69.0411 128.78 68.8278C129.292 68.6144 129.848 68.5078 130.451 68.5078C131.049 68.5078 131.607 68.6144 132.12 68.8278C132.634 69.0411 133.078 69.3374 133.453 69.7137C133.829 70.0929 134.125 70.5404 134.338 71.0588C134.547 71.5803 134.654 72.1462 134.654 72.7655Z" fill="white"/>
<path d="M144.653 75.6145H144.674V68.7109H145.496V76.8174H144.47L139.773 69.8457H139.749V76.8174H138.93V68.7109H139.956L144.653 75.6145Z" fill="white"/>
<path d="M165.179 76.8174H164.359V68.7109H169.225V69.4457H165.179V72.2486H168.941V72.9834H165.179V76.8174Z" fill="white"/>
<path d="M178.527 77.0218C177.921 77.0218 177.421 76.9182 177.034 76.7078C176.65 76.4974 176.338 76.2337 176.111 75.9137C175.883 75.5908 175.726 75.2441 175.638 74.8649C175.552 74.4856 175.508 74.13 175.508 73.7952V68.7109H176.327V73.7034C176.327 74.0323 176.365 74.3493 176.442 74.6604C176.519 74.9686 176.64 75.2441 176.812 75.4841C176.984 75.7241 177.208 75.9196 177.49 76.0678C177.773 76.2159 178.119 76.29 178.527 76.29C178.939 76.29 179.284 76.2159 179.566 76.0678C179.846 75.9196 180.072 75.7241 180.243 75.4841C180.414 75.2441 180.539 74.9686 180.613 74.6604C180.689 74.3493 180.728 74.0323 180.728 73.7034V68.7109H181.55V73.7952C181.55 74.13 181.506 74.4856 181.417 74.8649C181.332 75.2441 181.172 75.5908 180.944 75.9137C180.716 76.2337 180.406 76.4974 180.015 76.7078C179.625 76.9182 179.128 77.0218 178.527 77.0218Z" fill="white"/>
<path d="M193.435 75.6145H193.455V68.7109H194.278V76.8174H193.251L188.554 69.8457H188.53V76.8174H187.711V68.7109H188.738L193.435 75.6145Z" fill="white"/>
<path d="M202.28 76.0856H203.91C204.519 76.0856 205.049 75.9878 205.501 75.7981C205.953 75.6056 206.326 75.3567 206.622 75.0486C206.921 74.7404 207.142 74.3849 207.29 73.9878C207.438 73.5938 207.512 73.1849 207.512 72.7642C207.512 72.3434 207.438 71.9346 207.29 71.5405C207.142 71.1434 206.921 70.7909 206.622 70.4797C206.326 70.1717 205.953 69.9227 205.501 69.7302C205.049 69.5405 204.519 69.4457 203.91 69.4457H202.28V76.0856ZM201.461 68.7109H204.138C204.64 68.7109 205.143 68.7968 205.649 68.9628C206.155 69.1316 206.61 69.3865 207.015 69.7243C207.423 70.065 207.752 70.4887 208.003 70.9953C208.252 71.502 208.378 72.0916 208.378 72.7642C208.378 73.4427 208.252 74.0352 208.003 74.5389C207.752 75.0427 207.423 75.4633 207.015 75.8041C206.61 76.1448 206.155 76.3967 205.649 76.5655C205.143 76.7315 204.64 76.8174 204.138 76.8174H201.461V68.7109Z" fill="white"/>
</g>
</g>
</g>
<defs>
<clipPath id="clip0_34080_75011">
<rect width="252.146" height="102.434" fill="white" transform="translate(0.148438 0.320312)"/>
</clipPath>
<clipPath id="clip1_34080_75011">
<rect width="252.146" height="102.434" fill="white" transform="translate(0.148438 0.320312)"/>
</clipPath>
<clipPath id="clip2_34080_75011">
<rect width="165.471" height="102.435" fill="white" transform="translate(43.4844 0.320312)"/>
</clipPath>
</defs>
</svg>
