<svg width="167" height="103" viewBox="0 0 167 103" fill="none" xmlns="http://www.w3.org/2000/svg">
<path d="M79.4124 32.3648V25.6094H52.5977V58.8738H79.4124V52.1214H61.2431V45.6207H72.2754V38.8653H61.2431V32.3648H79.4124Z" fill="white"/>
<path d="M94.2197 50.1926V25.6094H85.5742V58.8738H114.48V50.1926H94.2197Z" fill="white"/>
<path d="M143.201 48.6548C148.823 48.6548 153.378 53.2295 153.378 58.8738H165.537L143.041 25.6094L120.867 58.8738H133.026C133.026 53.2295 137.581 48.6548 143.201 48.6548Z" fill="white"/>
<path d="M34.2809 25.6094C34.2809 31.2567 29.726 35.8314 24.1063 35.8314C18.4836 35.8314 13.9287 31.2567 13.9287 25.6124V25.6094H1.76953L24.266 58.8738L46.4401 25.6094H34.2809Z" fill="white"/>
<path d="M3.8232 75.7653H8.14444V76.4971H3.00391V68.3906H8.00838V69.1254H3.8232V71.9046H7.73332V72.6394H3.8232V75.7653Z" fill="white"/>
<path d="M16.1582 75.7653H17.7879C18.3942 75.7653 18.9267 75.6675 19.3792 75.4778C19.8287 75.2853 20.2043 75.0364 20.5001 74.7282C20.7959 74.4201 21.0177 74.0646 21.1656 73.6675C21.3165 73.2734 21.3904 72.8646 21.3904 72.4439C21.3904 72.0231 21.3165 71.6142 21.1656 71.2202C21.0177 70.8231 20.7959 70.4706 20.5001 70.1594C20.2043 69.8513 19.8287 69.6024 19.3792 69.4099C18.9267 69.2202 18.3942 69.1254 17.7879 69.1254H16.1582V75.7653ZM15.3359 68.3906H18.0156C18.5185 68.3906 19.0213 68.4765 19.5271 68.6425C20.0299 68.8113 20.4883 69.0661 20.8935 69.4039C21.2987 69.7447 21.63 70.1683 21.8784 70.675C22.1299 71.1817 22.257 71.7713 22.257 72.4439C22.257 73.1224 22.1299 73.7149 21.8784 74.2186C21.63 74.7223 21.2987 75.143 20.8935 75.4837C20.4883 75.8245 20.0299 76.0764 19.5271 76.2452C19.0213 76.4112 18.5185 76.4971 18.0156 76.4971H15.3359V68.3906Z" fill="white"/>
<path d="M31.051 76.7015C30.4447 76.7015 29.9478 76.5978 29.5574 76.3875C29.1699 76.1771 28.8623 75.9134 28.6346 75.5934C28.4069 75.2704 28.2501 74.9238 28.1613 74.5446C28.0756 74.1653 28.0312 73.8097 28.0312 73.4749V68.3906H28.8535V73.383C28.8535 73.7119 28.8889 74.029 28.9658 74.3401C29.0428 74.6483 29.167 74.9238 29.3356 75.1638C29.5071 75.4038 29.7349 75.5993 30.0159 75.7475C30.2969 75.8956 30.6429 75.9697 31.051 75.9697C31.4622 75.9697 31.8082 75.8956 32.0892 75.7475C32.3702 75.5993 32.595 75.4038 32.7666 75.1638C32.9381 74.9238 33.0623 74.6483 33.1363 74.3401C33.2132 74.029 33.2516 73.7119 33.2516 73.383V68.3906H34.0709V73.4749C34.0709 73.8097 34.0295 74.1653 33.9408 74.5446C33.855 74.9238 33.6952 75.2704 33.4675 75.5934C33.2397 75.9134 32.9322 76.1771 32.5388 76.3875C32.1483 76.5978 31.6514 76.7015 31.051 76.7015Z" fill="white"/>
<path d="M47.3937 75.1828C47.2577 75.3873 47.0921 75.5829 46.8968 75.7666C46.7046 75.9473 46.4798 76.1103 46.2254 76.2495C45.971 76.3888 45.6901 76.5013 45.3825 76.5814C45.0749 76.6644 44.7377 76.7028 44.3739 76.7028C43.7646 76.7028 43.2026 76.5962 42.685 76.3828C42.1704 76.1695 41.7238 75.8732 41.3541 75.4969C40.9814 75.1177 40.6886 74.6703 40.4815 74.1518C40.2715 73.6333 40.168 73.0644 40.168 72.4451C40.168 71.8259 40.2745 71.26 40.4874 70.7385C40.7004 70.22 40.9932 69.7726 41.3688 69.3934C41.7474 69.0171 42.1911 68.7208 42.7027 68.5075C43.2174 68.2941 43.7735 68.1875 44.3739 68.1875C44.6696 68.1875 44.9595 68.2171 45.2464 68.2793C45.5303 68.3415 45.7995 68.4274 46.0479 68.54C46.2994 68.6526 46.5271 68.7889 46.7312 68.946C46.9383 69.103 47.1098 69.2808 47.2459 69.4793L46.5626 69.983C46.4768 69.8526 46.3674 69.7252 46.2254 69.5949C46.0864 69.4645 45.9208 69.3519 45.7285 69.2512C45.5392 69.1504 45.3322 69.0734 45.1074 69.0111C44.8856 68.9489 44.643 68.9193 44.3858 68.9193C43.8592 68.9193 43.3919 69.0141 42.9778 69.2037C42.5638 69.3963 42.2118 69.6511 41.922 69.9741C41.6351 70.297 41.4132 70.6733 41.2624 71.097C41.1086 71.5237 41.0346 71.974 41.0346 72.4451C41.0346 72.9163 41.1115 73.3666 41.2683 73.7933C41.4221 74.2169 41.6469 74.5933 41.9338 74.9162C42.2236 75.2392 42.5756 75.4969 42.9896 75.6866C43.4038 75.8762 43.8681 75.971 44.3858 75.971C44.8471 75.971 45.2878 75.8762 45.7079 75.6836C46.1249 75.494 46.4739 75.1888 46.7549 74.7681L47.3937 75.1828Z" fill="white"/>
<path d="M54.7366 73.6112H58.2918L56.5142 69.3062L54.7366 73.6112ZM53.5505 76.4971H52.6484L56.1385 68.3906H56.9341L60.4006 76.4971H59.4896L58.5993 74.3667H54.429L53.5505 76.4971Z" fill="white"/>
<path d="M68.6985 76.4971H67.8762V69.1254H65.1758V68.3906H71.3989V69.1254H68.6985V76.4971Z" fill="white"/>
<path d="M78.042 76.4971H77.2227V68.3906H78.042V76.4971Z" fill="white"/>
<path d="M91.29 72.4511C91.29 71.9799 91.2136 71.5296 91.0623 71.1029C90.9087 70.6763 90.6896 70.3 90.4004 69.977C90.1105 69.6541 89.7614 69.3963 89.3469 69.2037C88.9333 69.0141 88.466 68.9193 87.9515 68.9193C87.4338 68.9193 86.9665 69.0141 86.552 69.2037C86.1384 69.3963 85.7893 69.6541 85.4993 69.977C85.2094 70.3 84.9903 70.6763 84.8367 71.1029C84.6854 71.5296 84.6089 71.9799 84.6089 72.4511C84.6089 72.9222 84.6854 73.3726 84.8367 73.7992C84.9903 74.2259 85.2094 74.5992 85.4993 74.9192C85.7893 75.2392 86.1384 75.494 86.552 75.6866C86.9665 75.8762 87.4338 75.971 87.9515 75.971C88.466 75.971 88.9333 75.8762 89.3469 75.6866C89.7614 75.494 90.1105 75.2392 90.4004 74.9192C90.6896 74.5992 90.9087 74.2259 91.0623 73.7992C91.2136 73.3726 91.29 72.9222 91.29 72.4511ZM92.1536 72.4451C92.1536 73.0644 92.0473 73.6333 91.8377 74.1518C91.6249 74.6703 91.3286 75.1177 90.9528 75.4969C90.5777 75.8732 90.1341 76.1695 89.6196 76.3828C89.1074 76.5962 88.5487 76.7028 87.9515 76.7028C87.3479 76.7028 86.7916 76.5962 86.2802 76.3828C85.7657 76.1695 85.322 75.8732 84.9462 75.4969C84.5703 75.1177 84.2748 74.6703 84.0613 74.1518C83.8486 73.6333 83.7422 73.0644 83.7422 72.4451C83.7422 71.8259 83.8486 71.26 84.0613 70.7385C84.2748 70.22 84.5703 69.7726 84.9462 69.3934C85.322 69.0171 85.7657 68.7208 86.2802 68.5075C86.7916 68.2941 87.3479 68.1875 87.9515 68.1875C88.5487 68.1875 89.1074 68.2941 89.6196 68.5075C90.1341 68.7208 90.5777 69.0171 90.9528 69.3934C91.3286 69.7726 91.6249 70.22 91.8377 70.7385C92.0473 71.26 92.1536 71.8259 92.1536 72.4451Z" fill="white"/>
<path d="M102.153 75.2942H102.174V68.3906H102.996V76.4971H101.97L97.2728 69.5254H97.2492V76.4971H96.4297V68.3906H97.4564L102.153 75.2942Z" fill="white"/>
<path d="M122.671 76.4971H121.852V68.3906H126.717V69.1254H122.671V71.9283H126.434V72.6631H122.671V76.4971Z" fill="white"/>
<path d="M136.027 76.7015C135.421 76.7015 134.921 76.5978 134.534 76.3875C134.15 76.1771 133.838 75.9134 133.611 75.5934C133.383 75.2704 133.226 74.9238 133.138 74.5446C133.052 74.1653 133.008 73.8097 133.008 73.4749V68.3906H133.827V73.383C133.827 73.7119 133.865 74.029 133.942 74.3401C134.019 74.6483 134.14 74.9238 134.312 75.1638C134.484 75.4038 134.708 75.5993 134.99 75.7475C135.273 75.8956 135.619 75.9697 136.027 75.9697C136.439 75.9697 136.784 75.8956 137.066 75.7475C137.346 75.5993 137.572 75.4038 137.743 75.1638C137.914 74.9238 138.039 74.6483 138.113 74.3401C138.189 74.029 138.228 73.7119 138.228 73.383V68.3906H139.05V73.4749C139.05 73.8097 139.006 74.1653 138.917 74.5446C138.832 74.9238 138.672 75.2704 138.444 75.5934C138.216 75.9134 137.906 76.1771 137.515 76.3875C137.125 76.5978 136.628 76.7015 136.027 76.7015Z" fill="white"/>
<path d="M150.931 75.2942H150.951V68.3906H151.774V76.4971H150.747L146.05 69.5254H146.027V76.4971H145.207V68.3906H146.234L150.931 75.2942Z" fill="white"/>
<path d="M159.772 75.7653H161.402C162.011 75.7653 162.541 75.6675 162.993 75.4778C163.445 75.2853 163.818 75.0364 164.114 74.7282C164.413 74.4201 164.634 74.0646 164.782 73.6675C164.931 73.2734 165.005 72.8646 165.005 72.4439C165.005 72.0231 164.931 71.6142 164.782 71.2202C164.634 70.8231 164.413 70.4706 164.114 70.1594C163.818 69.8513 163.445 69.6024 162.993 69.4099C162.541 69.2202 162.011 69.1254 161.402 69.1254H159.772V75.7653ZM158.953 68.3906H161.63C162.133 68.3906 162.635 68.4765 163.141 68.6425C163.647 68.8113 164.102 69.0661 164.507 69.4039C164.916 69.7447 165.244 70.1683 165.496 70.675C165.744 71.1817 165.871 71.7713 165.871 72.4439C165.871 73.1224 165.744 73.7149 165.496 74.2186C165.244 74.7223 164.916 75.143 164.507 75.4837C164.102 75.8245 163.647 76.0764 163.141 76.2452C162.635 76.4112 162.133 76.4971 161.63 76.4971H158.953V68.3906Z" fill="white"/>
</svg>
