<svg width="197" height="103" viewBox="0 0 197 103" fill="none" xmlns="http://www.w3.org/2000/svg">
<g clip-path="url(#clip0_34080_75031)">
<g clip-path="url(#clip1_34080_75031)">
<g clip-path="url(#clip2_34080_75031)">
<path fill-rule="evenodd" clip-rule="evenodd" d="M11.2109 83.4758H84.0523V77.4062H11.212L11.2109 83.4758Z" fill="white"/>
<path fill-rule="evenodd" clip-rule="evenodd" d="M90.125 83.4758H162.966V77.4062H90.125V83.4758Z" fill="white"/>
<path fill-rule="evenodd" clip-rule="evenodd" d="M168.275 83.4758H241.115V77.4062H168.273L168.275 83.4758Z" fill="white"/>
<path fill-rule="evenodd" clip-rule="evenodd" d="M10.2167 21.0859C9.96655 20.2517 9.69792 19.7242 9.40754 19.5002C9.09976 19.3697 8.80938 19.3045 8.53206 19.3045C8.31237 19.3197 8.19491 19.2511 8.17969 19.1055C8.19491 18.9771 8.3537 18.9141 8.6593 18.9141C9.96763 18.9293 10.8127 18.9499 11.1977 18.9793C11.3119 18.9793 11.5892 18.9651 12.0307 18.9358C12.4494 18.9216 12.9791 18.9141 13.6197 18.9141C13.9253 18.9141 14.0764 18.9771 14.0764 19.1044C14.0656 19.2511 13.9329 19.3197 13.6838 19.3045C13.4979 19.3045 13.3173 19.3338 13.139 19.3915C12.9628 19.4785 12.879 19.6395 12.8943 19.8809C12.8943 19.9385 12.9182 20.0277 12.9704 20.1506C12.9813 20.2833 13.0117 20.4377 13.053 20.6183C13.139 20.9728 13.2488 21.4089 13.3858 21.9222C14.3026 25.1903 15.2347 28.3454 16.1808 31.3894H16.244L20.4778 19.8015C20.6126 19.4905 20.7149 19.2729 20.7856 19.1501C20.8726 19.0489 20.9498 18.9977 21.0205 18.9977C21.1434 18.9977 21.2532 19.0804 21.3511 19.249C21.436 19.423 21.5393 19.6851 21.6611 20.0397L26.2038 31.2252H26.2691C27.2134 27.8969 28.1803 24.5751 29.1695 21.2599C29.2555 20.9924 29.3219 20.7465 29.3729 20.5214C29.3871 20.3028 29.3947 20.1191 29.3947 19.9668C29.3956 19.8757 29.378 19.7854 29.3431 19.7012C29.3081 19.6172 29.2565 19.541 29.1913 19.4774C29.0499 19.3621 28.7639 19.3045 28.3386 19.3045C28.0885 19.3045 27.9645 19.237 27.9645 19.1044C27.9645 18.9771 28.1353 18.9141 28.4757 18.9141C29.7155 18.9293 30.4703 18.9499 30.7487 18.9793C30.8618 18.9793 31.1011 18.9651 31.4632 18.9358C31.8124 18.9216 32.1766 18.9141 32.5616 18.9141C32.8031 18.9141 32.9303 18.9695 32.9445 19.0826C32.9445 19.2305 32.8466 19.3045 32.6465 19.3045C32.3963 19.3045 32.143 19.3403 31.8787 19.4132C31.6285 19.5002 31.4263 19.7525 31.2696 20.1724C31.0485 20.6983 30.8421 21.2303 30.6508 21.7678C29.1462 26.1565 27.6924 30.5625 26.2897 34.9849C26.181 35.3546 26.0863 35.6167 26.0015 35.7756C25.9178 35.9441 25.8003 36.0257 25.6491 36.0257C25.5512 36.0257 25.4588 35.9441 25.3729 35.7756C25.2641 35.6048 25.1358 35.3231 24.9792 34.9294L20.4332 23.7928H20.393C19.2402 27.0272 17.8209 30.7097 16.1362 34.8424C16.0059 35.1536 15.8596 35.4577 15.698 35.7538C15.5936 35.9354 15.4761 36.0257 15.3467 36.0257C15.1553 36.0257 14.9889 35.7571 14.8453 35.2144L10.2167 21.0859Z" fill="white"/>
<path fill-rule="evenodd" clip-rule="evenodd" d="M44.0098 28.8268C44.111 28.8268 44.147 28.7833 44.1187 28.6963L42.1436 23.2074C42.1295 23.0921 42.0947 23.0268 42.0359 23.0116C41.9805 23.0268 41.9359 23.0921 41.9087 23.2074L39.9044 28.6756C39.8674 28.7767 39.8967 28.8279 39.9902 28.8279H44.0088L44.0098 28.8268ZM39.5531 29.9306C39.4487 29.9306 39.379 29.9883 39.3508 30.1068L38.1795 33.2934C37.9598 33.8883 37.8489 34.3417 37.8489 34.6528C37.8489 34.8399 37.913 34.9965 38.0403 35.1205C38.1741 35.2641 38.4046 35.3391 38.7222 35.3391H39.0517C39.2823 35.3391 39.3867 35.3967 39.3726 35.5175C39.3726 35.6577 39.2529 35.7273 39.0104 35.7273C38.2208 35.698 37.4454 35.6795 36.6885 35.6643C36.2817 35.6795 35.4269 35.698 34.1185 35.7273C33.8401 35.7273 33.7031 35.6577 33.7031 35.5175C33.7031 35.3978 33.7901 35.3369 33.9695 35.3369C34.1969 35.3369 34.4187 35.3228 34.6395 35.2934C35.1376 35.2206 35.5237 35.0084 35.8032 34.655C35.9565 34.4733 36.0859 34.2613 36.1871 34.0253C36.2915 33.8078 36.3937 33.5653 36.4949 33.2977L41.974 19.3422C42.2089 18.7353 42.4112 18.4395 42.583 18.4536C42.7581 18.4536 42.9441 18.6875 43.1354 19.1573C44.9244 23.7199 46.7262 28.2775 48.5407 32.8301C48.9692 33.7914 49.34 34.4309 49.6608 34.7409C49.9806 35.0378 50.2503 35.2064 50.47 35.2499C50.805 35.3076 51.1105 35.3391 51.3868 35.3391C51.5716 35.3391 51.6652 35.3967 51.6652 35.5175C51.6652 35.6022 51.6065 35.6501 51.4944 35.6643C51.3454 35.7078 51.0659 35.7295 50.6625 35.7295C49.7728 35.7295 48.3992 35.7132 46.5363 35.686C46.1176 35.686 45.9001 35.6283 45.8859 35.5175C45.8859 35.3978 45.986 35.3293 46.1839 35.3151C46.3916 35.2575 46.458 35.0889 46.3873 34.804L44.6385 30.084C44.5972 29.9817 44.521 29.9306 44.4166 29.9306H39.5531Z" fill="white"/>
<path fill-rule="evenodd" clip-rule="evenodd" d="M58.6751 29.27C58.6609 30.6947 58.6827 31.7909 58.7381 32.5577C58.7925 33.3603 58.9263 33.8584 59.1286 34.0542C59.2972 34.201 59.5713 34.3163 59.9497 34.4021C60.3227 34.4979 60.9176 34.5436 61.7388 34.5436C62.3152 34.5436 62.8176 34.5044 63.2472 34.4229C63.6604 34.3674 63.9976 34.1967 64.2564 33.9139C64.5599 33.5311 64.7458 33.0852 64.8143 32.5794C64.8143 32.3772 64.897 32.2684 65.058 32.2532C65.1689 32.2532 65.2265 32.3772 65.2265 32.6229C65.2265 32.7883 65.1983 33.1624 65.1395 33.741C65.0699 34.3195 64.9959 34.7991 64.909 35.182C64.8677 35.4212 64.7741 35.5779 64.6262 35.6496C64.4511 35.7366 64.0922 35.7801 63.5528 35.7801C61.4644 35.7505 59.3762 35.7077 57.2885 35.6518C56.5652 35.6637 55.6625 35.6855 54.5761 35.7149C54.2889 35.7149 54.1443 35.6474 54.1443 35.5028C54.1302 35.3843 54.2433 35.3245 54.4793 35.3245C54.8143 35.3245 55.072 35.2951 55.2547 35.2375C55.3596 35.2106 55.4561 35.1576 55.5349 35.0834C55.6139 35.0093 55.6728 34.9163 55.7061 34.8133C55.8077 34.557 55.8675 34.2859 55.8833 34.0107C55.954 32.9884 55.9877 31.4103 55.9877 29.2722V25.358C55.9877 22.4466 55.9758 20.8751 55.9507 20.6435C55.9399 20.2519 55.8714 19.9616 55.7517 19.7734C55.6256 19.5636 55.3852 19.4287 55.0263 19.3711C54.7917 19.3231 54.5524 19.3012 54.3129 19.3058C54.0682 19.321 53.9453 19.2536 53.9453 19.1057C53.9453 18.9806 54.1041 18.9154 54.4173 18.9154C55.6212 18.9306 56.6066 18.9523 57.3678 18.9806C58.1868 18.9665 59.1623 18.9447 60.2869 18.9154C60.5902 18.9154 60.7392 18.9806 60.7392 19.1057C60.7392 19.2536 60.6121 19.321 60.3587 19.3058C60.0867 19.3058 59.8039 19.3276 59.5179 19.3711C59.2439 19.4146 59.0459 19.5342 58.9285 19.7299C58.8002 19.9333 58.7306 20.2367 58.7164 20.6435C58.7044 20.9404 58.6969 21.3939 58.6969 22.0007C58.6827 22.6098 58.6751 23.7289 58.6751 25.358V29.27ZM73.579 20.1541L70.3675 20.2411C69.766 20.2552 69.306 20.2987 68.9906 20.3716C68.6752 20.4717 68.4337 20.6435 68.275 20.8795C68.077 21.2221 67.9595 21.482 67.916 21.6625C67.8867 21.8365 67.8073 21.9236 67.6725 21.9236C67.5332 21.9236 67.4701 21.8072 67.4843 21.5755C67.4843 21.4668 67.5137 21.2916 67.5691 21.0459C67.6127 20.7958 67.6562 20.5206 67.6997 20.2258C67.8345 19.5777 67.916 19.1775 67.9443 19.0263C68.0031 18.7435 68.0847 18.6021 68.1977 18.6021C68.2891 18.6021 68.4044 18.6424 68.5447 18.7218C68.6697 18.7946 68.8622 18.8446 69.1222 18.874C69.8019 18.9458 70.5197 18.9828 71.2755 18.9828H79.7977C81.0842 18.9393 81.7748 18.8664 81.8662 18.7653C81.9771 18.7653 82.0347 18.9197 82.0347 19.2307C82.0206 20.0247 81.9989 20.8795 81.9727 21.7952C81.9575 22.0344 81.8901 22.1519 81.7705 22.1519C81.616 22.1682 81.5367 22.0192 81.5367 21.7082L81.5171 21.4581C81.5171 21.147 81.3322 20.8676 80.9613 20.6206C80.5829 20.3825 79.9205 20.2476 78.9765 20.2183L76.2663 20.153V29.271C76.2522 31.4092 76.2859 33.0003 76.3696 34.0433C76.4066 34.3543 76.4784 34.6121 76.5915 34.8154C76.6905 35.0395 76.8971 35.1809 77.2136 35.2396C77.5785 35.2959 77.9472 35.3238 78.3164 35.3234C78.5469 35.3234 78.6633 35.3843 78.6633 35.5039C78.6438 35.6442 78.5067 35.716 78.2533 35.716C76.7122 35.6877 75.5844 35.666 74.871 35.6507C74.1565 35.666 73.2538 35.6877 72.163 35.716C71.8737 35.716 71.7312 35.6442 71.7312 35.5039C71.7171 35.3864 71.8323 35.3256 72.0782 35.3256C72.4055 35.3256 72.6655 35.2973 72.8536 35.2385C72.9593 35.2082 73.0567 35.1543 73.1384 35.0808C73.2202 35.0073 73.2842 34.9162 73.3256 34.8143C73.4104 34.6121 73.4583 34.3445 73.4724 34.0128C73.542 32.9927 73.579 31.4168 73.579 29.2819V20.1541ZM96.1259 34.9231C96.5262 34.9231 96.9981 34.8437 97.5458 34.6838C98.1036 34.5185 98.6584 34.1978 99.2044 33.7279C99.7489 33.2342 100.201 32.5088 100.558 31.5441C100.915 30.5947 101.099 29.3265 101.115 27.7387C101.088 25.2177 100.486 23.2438 99.3084 21.8192C98.1186 20.3977 96.6199 19.6788 94.8139 19.6647C94.2111 19.6647 93.602 19.7582 92.9866 19.9475C92.3571 20.1563 91.7811 20.5293 91.2634 21.0676C90.7465 21.5658 90.3281 22.2704 90.0129 23.1742C89.6867 24.0801 89.5196 25.2319 89.5196 26.6305C89.5196 28.9992 90.1067 30.9568 91.2854 32.499C92.4343 34.0868 94.048 34.8938 96.1259 34.9231ZM95.2237 36.0302C92.1687 35.9715 89.9514 35.0101 88.5678 33.1428C87.2093 31.3342 86.5351 29.3918 86.5525 27.3134C86.5351 25.283 87.2172 23.3526 88.5898 21.5201C89.9554 19.6331 92.2341 18.6598 95.4277 18.6043C101.11 18.7239 104.009 21.4972 104.128 26.9143C104.113 29.5136 103.316 31.6605 101.734 33.3592C100.159 35.0971 97.9878 35.9867 95.2237 36.0302ZM112.872 32.711C112.898 33.5495 112.978 34.1575 113.104 34.5327C113.229 34.8894 113.402 35.1015 113.619 35.1743C114.005 35.2896 114.377 35.3408 114.742 35.3266C114.986 35.3266 115.109 35.3864 115.109 35.5039C115.091 35.6442 114.923 35.716 114.607 35.716C113.717 35.6991 112.827 35.6774 111.939 35.6507C111.623 35.666 110.85 35.6877 109.617 35.716C109.303 35.7312 109.145 35.6615 109.145 35.5039C109.145 35.3864 109.26 35.3256 109.491 35.3256C109.809 35.3256 110.129 35.2896 110.459 35.2167C110.733 35.145 110.919 34.8992 111.018 34.4772C111.11 34.0651 111.149 33.3897 111.133 32.4576L111.324 19.2862C111.31 18.8022 111.403 18.551 111.608 18.5391C111.733 18.5391 111.856 18.5989 111.974 18.7218C112.102 18.8523 112.242 19.023 112.395 19.2329C113.186 20.1366 115.406 22.5163 119.059 26.3651C119.879 27.2112 120.814 28.1966 121.863 29.3179C122.498 30.0327 123.143 30.7389 123.796 31.4364H123.899L123.689 21.4385C123.689 20.7707 123.636 20.289 123.53 19.9921C123.406 19.7104 123.213 19.5244 122.954 19.4374C122.581 19.3374 122.195 19.2935 121.808 19.3068C121.57 19.3068 121.459 19.2405 121.474 19.1079C121.474 19.023 121.528 18.9665 121.639 18.9393C121.753 18.9252 121.883 18.9175 122.031 18.9175C123.235 18.9317 124.102 18.9535 124.633 18.9828C124.759 18.9828 125.008 18.9676 125.378 18.9393C125.755 18.9252 126.209 18.9175 126.733 18.9175C127.047 18.9034 127.213 18.9653 127.225 19.1079C127.225 19.2405 127.1 19.308 126.848 19.308C126.658 19.308 126.438 19.3297 126.192 19.3732C126.053 19.4002 125.925 19.4639 125.819 19.5577C125.714 19.6514 125.636 19.7717 125.592 19.9061C125.472 20.1878 125.404 20.6402 125.391 21.2623L125.159 35.3037C125.159 35.7605 125.065 35.9867 124.876 35.9867C124.764 35.9867 124.651 35.9258 124.539 35.803C124.402 35.7119 124.272 35.6097 124.151 35.4973C122.026 33.3313 119.913 31.1532 117.812 28.9633C115.131 26.0976 113.426 24.2291 112.69 23.3624H112.624L112.872 32.711Z" fill="white"/>
<path fill-rule="evenodd" clip-rule="evenodd" d="M147.167 29.2769C147.153 31.4574 147.185 33.0366 147.272 34.0154C147.3 34.3481 147.372 34.6178 147.492 34.8202C147.588 35.0442 147.793 35.1867 148.109 35.2443C148.463 35.2997 148.82 35.3291 149.176 35.3291C149.42 35.3291 149.543 35.3889 149.543 35.5096C149.543 35.6489 149.387 35.7196 149.073 35.7196C147.991 35.7003 146.909 35.6793 145.827 35.6565C145.054 35.6706 144.152 35.6924 143.112 35.7196C142.814 35.7196 142.665 35.6489 142.665 35.5096C142.651 35.3889 142.754 35.3313 142.977 35.3313C143.309 35.3313 143.564 35.3019 143.747 35.2443C143.851 35.2172 143.947 35.164 144.025 35.0898C144.103 35.0157 144.162 34.9229 144.194 34.8202C144.282 34.6178 144.342 34.3503 144.371 34.0154C144.441 33.0366 144.474 31.4574 144.474 29.2769V25.3649C144.474 22.4535 144.463 20.8798 144.438 20.6482C144.427 20.2578 144.36 19.9684 144.24 19.7781C144.115 19.5682 143.876 19.4355 143.519 19.3779C143.244 19.3285 142.964 19.3059 142.684 19.3105C142.442 19.3105 142.32 19.2528 142.32 19.1321C142.32 18.9929 142.483 18.9222 142.811 18.9222C144.081 18.9375 145.111 18.9592 145.898 18.9875C147.942 18.9875 149.828 18.981 151.558 18.9658C151.94 18.9516 152.231 18.9222 152.436 18.8787C152.539 18.8151 152.652 18.7708 152.771 18.7482C152.877 18.7634 152.926 18.8287 152.926 18.9439C152.914 19.0571 152.855 19.3898 152.747 19.9369C152.721 20.5133 152.685 21.1114 152.642 21.7324C152.642 21.9424 152.572 22.0457 152.431 22.0457C152.299 22.0457 152.225 21.926 152.211 21.6889V21.3084C152.197 21.1461 152.153 20.9878 152.084 20.8407C152.03 20.6819 151.878 20.5275 151.635 20.3763C151.402 20.2599 151.082 20.1947 150.67 20.1806L147.356 20.1153C147.228 20.1153 147.167 20.2164 147.167 20.4198V25.9859C147.153 26.1229 147.199 26.1925 147.313 26.1925L150.05 26.1708C150.414 26.1708 150.735 26.1643 151.012 26.149C151.416 26.149 151.728 26.0142 151.943 25.7467C152.027 25.5944 152.117 25.5183 152.215 25.5183C152.299 25.5183 152.34 25.5878 152.34 25.7249C152.34 25.7836 152.326 25.9381 152.299 26.1904C152.285 26.2915 152.263 26.422 152.234 26.5819C152.224 26.7472 152.202 26.9212 152.173 27.1017C152.119 27.7815 152.091 28.3209 152.091 28.7189C152.091 28.8201 152.084 28.9114 152.07 28.9909C152.056 29.092 151.988 29.1431 151.871 29.1431C151.761 29.1289 151.704 29.0235 151.704 28.8277C151.704 28.6537 151.662 28.4253 151.579 28.1426C151.535 27.9761 151.429 27.8152 151.256 27.6564C151.164 27.5582 151.053 27.4804 150.93 27.428C150.784 27.3804 150.633 27.3513 150.48 27.341C150.139 27.2975 149.599 27.2757 148.86 27.2757H147.313C147.214 27.2757 147.167 27.341 147.167 27.4704V29.2758V29.2769ZM165.293 28.819C165.391 28.819 165.427 28.7755 165.399 28.6885L163.467 23.1985C163.453 23.0832 163.419 23.018 163.361 23.0027C163.307 23.018 163.266 23.0832 163.237 23.1985L161.275 28.6668C161.238 28.769 161.268 28.819 161.358 28.819H165.293ZM160.931 29.9229C160.828 29.9229 160.76 29.9805 160.735 30.0991L159.585 33.2856C159.37 33.8805 159.262 34.334 159.262 34.645C159.26 34.7317 159.275 34.8179 159.307 34.8983C159.339 34.9788 159.388 35.0518 159.45 35.1127C159.58 35.2562 159.805 35.3291 160.116 35.3291H160.439C160.665 35.3291 160.768 35.3889 160.754 35.5096C160.754 35.65 160.636 35.7196 160.399 35.7196C159.627 35.6902 158.87 35.6717 158.126 35.6565C157.728 35.6717 156.89 35.6902 155.611 35.7196C155.339 35.7196 155.203 35.65 155.203 35.5096C155.203 35.39 155.291 35.3291 155.465 35.3291C155.688 35.3291 155.905 35.315 156.121 35.2856C156.609 35.2127 156.987 35.0007 157.259 34.6472C157.413 34.4656 157.537 34.2536 157.636 34.0176C157.737 33.8 157.839 33.5575 157.937 33.29L163.298 19.3355C163.529 18.7276 163.728 18.4307 163.895 18.4459C164.067 18.4459 164.249 18.6797 164.436 19.1495C165.774 22.6373 167.536 27.1942 169.727 32.8223C170.145 33.7837 170.51 34.4232 170.823 34.7331C171.137 35.03 171.4 35.1986 171.615 35.2421C171.944 35.2997 172.242 35.3291 172.512 35.3291C172.694 35.3291 172.785 35.3889 172.785 35.5096C172.785 35.5945 172.728 35.6423 172.618 35.6565C172.472 35.7 172.201 35.7218 171.804 35.7218C170.933 35.7218 169.588 35.7055 167.765 35.6783C167.355 35.6783 167.143 35.6206 167.131 35.5096C167.131 35.39 167.227 35.3215 167.42 35.3074C167.624 35.2497 167.688 35.0812 167.619 34.7962L165.908 30.0762C165.868 29.974 165.794 29.9229 165.69 29.9229H160.931Z" fill="white"/>
<path fill-rule="evenodd" clip-rule="evenodd" d="M179.733 19.0217C179.801 18.6378 179.919 18.4453 180.088 18.4453C180.187 18.4474 180.283 18.4862 180.354 18.5541C180.439 18.6552 180.548 18.8477 180.681 19.1304L186.571 31.6624L192.444 18.9782C192.585 18.6237 192.744 18.4453 192.918 18.4453C193.122 18.4453 193.256 18.6737 193.308 19.1304L195.27 32.8675C195.401 34.2127 195.756 34.9621 196.321 35.1143C196.941 35.2731 197.39 35.3449 197.663 35.3318C197.881 35.3318 197.997 35.384 198.011 35.4895C198.011 35.5602 197.964 35.6157 197.864 35.6559C197.744 35.6995 197.607 35.7212 197.45 35.7212C195.988 35.7016 194.527 35.6592 193.066 35.594C192.624 35.5526 192.413 35.471 192.445 35.3525C192.445 35.2513 192.521 35.1719 192.673 35.1132C192.754 35.0849 192.802 34.9936 192.833 34.8414C192.848 34.6967 192.833 34.4705 192.79 34.1562L191.492 24.3812H191.408L186.697 34.4531C186.281 35.3264 186.015 35.743 185.894 35.6995C185.812 35.6995 185.713 35.5961 185.6 35.3862C185.436 35.1295 185.284 34.8649 185.145 34.5934C184.843 33.9713 184.406 33.0752 183.825 31.906C183.423 31.1286 183.033 30.3444 182.658 29.5536C182.201 28.4987 181.451 26.8543 180.41 24.6205H180.325L179.196 33.4656C179.158 33.8343 179.137 34.1833 179.137 34.5162C179.151 34.9164 179.369 35.1502 179.786 35.2231C180.175 35.2948 180.477 35.3318 180.695 35.3318C180.891 35.3318 180.997 35.384 181.011 35.4895C180.997 35.644 180.826 35.7212 180.495 35.7212L178.233 35.6559C177.662 35.6712 176.953 35.6929 176.108 35.7212C175.863 35.7212 175.736 35.645 175.719 35.4895C175.719 35.384 175.835 35.3308 176.057 35.3308C176.204 35.3449 176.42 35.3242 176.709 35.2655C176.998 35.1785 177.21 34.9577 177.352 34.6021C177.482 34.278 177.565 33.9136 177.594 33.5091L179.733 19.0217Z" fill="white"/>
<path fill-rule="evenodd" clip-rule="evenodd" d="M13.9191 54.6585C13.9104 56.1093 13.9343 57.1599 13.9898 57.8113C14.0094 58.0321 14.0572 58.2104 14.1366 58.3464C14.2052 58.4954 14.3433 58.589 14.5532 58.6281C14.7924 58.6662 15.0317 58.6825 15.271 58.6825C15.4341 58.6825 15.5167 58.7238 15.5167 58.8043C15.5167 58.8978 15.4113 58.9435 15.2014 58.9435C14.2052 58.9272 13.4776 58.912 13.0208 58.9022L11.1959 58.9435C10.9947 58.9435 10.8957 58.8978 10.8957 58.8043C10.8859 58.7238 10.9534 58.6857 11.1034 58.6857C11.3286 58.6857 11.5004 58.6662 11.6211 58.6281C11.6913 58.6104 11.7559 58.5752 11.8088 58.5258C11.8617 58.4763 11.9011 58.4142 11.9235 58.3453C11.9833 58.2104 12.0213 58.0321 12.042 57.8113C12.0877 57.1599 12.1116 56.1093 12.1116 54.6575V52.0549C12.1116 50.118 12.1018 49.075 12.0877 48.9195C12.0768 48.6574 12.0333 48.467 11.955 48.3409C11.8702 48.2016 11.7081 48.1125 11.471 48.0712C11.2855 48.0411 11.0978 48.0272 10.9099 48.0299C10.7467 48.0299 10.6641 47.9896 10.6641 47.9102C10.6641 47.8156 10.7728 47.7699 10.9947 47.7699C11.6854 47.7761 12.3761 47.7906 13.0665 47.8134C14.4412 47.8134 15.7082 47.8091 16.8708 47.7993C17.1274 47.7884 17.3253 47.7699 17.4602 47.7416C17.5293 47.6992 17.6056 47.6697 17.6853 47.6546C17.7549 47.6644 17.7919 47.7079 17.7919 47.7851C17.781 47.8612 17.7408 48.0809 17.6712 48.4453C17.6516 48.8281 17.6277 49.2261 17.5984 49.6383C17.5984 49.7776 17.5527 49.8471 17.458 49.8471C17.3688 49.8471 17.3178 49.7678 17.3079 49.609V49.3588C17.2989 49.251 17.2705 49.1456 17.2242 49.0478C17.1872 48.9412 17.0861 48.8379 16.9219 48.7367C16.7664 48.6595 16.5489 48.616 16.2737 48.6063L14.0475 48.5628C13.9626 48.5628 13.9191 48.6302 13.9191 48.765V52.4703C13.9104 52.5617 13.9441 52.6074 14.0192 52.6074L15.8572 52.5932C16.1019 52.5932 16.3172 52.5878 16.5032 52.578C16.7761 52.578 16.9849 52.4888 17.1296 52.3104C17.1851 52.2094 17.246 52.1582 17.3134 52.1582C17.3678 52.1582 17.395 52.2049 17.395 52.2963C17.3871 52.4882 17.3639 52.6791 17.3253 52.8673C17.3178 52.976 17.3036 53.0913 17.284 53.212C17.2509 53.5697 17.2324 53.9285 17.2286 54.2877C17.2293 54.3481 17.2245 54.4085 17.2144 54.4682C17.2035 54.5356 17.16 54.5694 17.0807 54.5694C17.0067 54.5595 16.9697 54.4899 16.9697 54.3594C16.9697 54.2442 16.9414 54.0941 16.8849 53.9038C16.8446 53.7775 16.7691 53.6655 16.6674 53.5807C16.6057 53.5151 16.5308 53.4632 16.4477 53.4285C16.3508 53.3969 16.2503 53.3775 16.1486 53.3708C15.7861 53.3359 15.4219 53.3214 15.0578 53.3273H14.0192C13.9539 53.3273 13.9191 53.3709 13.9191 53.4579V54.6585ZM38.8057 58.4182C39.0711 58.4182 39.3886 58.3649 39.753 58.2594C40.1249 58.1485 40.4947 57.9364 40.8601 57.6232C41.2255 57.2948 41.5268 56.8108 41.7638 56.1692C42.0031 55.5383 42.1271 54.6944 42.1369 53.6384C42.1173 51.9614 41.716 50.6476 40.9297 49.6981C40.1358 48.7531 39.1352 48.2767 37.9303 48.267C37.5279 48.267 37.1211 48.3289 36.71 48.455C36.2716 48.6058 35.8767 48.8611 35.5594 49.199C35.2135 49.5318 34.9362 49.9994 34.7252 50.6019C34.5055 51.2044 34.3968 51.9712 34.3968 52.901C34.3968 54.478 34.7883 55.7787 35.5735 56.8054C36.3402 57.8614 37.418 58.3986 38.8057 58.4182ZM38.2043 59.1534C36.1641 59.1153 34.6817 58.4737 33.7617 57.2327C32.8524 56.0299 32.4022 54.7379 32.4131 53.3567C32.4022 52.0049 32.8568 50.7204 33.7725 49.5035C34.686 48.2452 36.2076 47.5992 38.3391 47.56C42.1315 47.6427 44.0674 49.4861 44.1467 53.0892C44.138 54.8184 43.6062 56.2464 42.5501 57.3774C41.4985 58.5313 40.0488 59.124 38.2043 59.1534ZM59.7706 52.056C59.7706 50.1191 59.7608 49.0728 59.7445 48.9184C59.7368 48.6574 59.6912 48.4649 59.6118 48.3398C59.5269 48.1995 59.3671 48.1114 59.1278 48.0723C58.943 48.04 58.7554 48.0255 58.5677 48.0288C58.4024 48.0385 58.3209 47.9961 58.3209 47.8961C58.3209 47.8123 58.4274 47.771 58.6373 47.771C59.4976 47.7808 60.1969 47.7949 60.7331 47.8123C61.2431 47.8047 61.8326 47.7906 62.5004 47.771C62.7103 47.771 62.8157 47.8123 62.8157 47.8961C62.8157 47.995 62.7396 48.0385 62.5841 48.0288C62.4492 48.0288 62.3122 48.0429 62.1708 48.0723C61.987 48.1016 61.8565 48.181 61.7771 48.3115C61.6923 48.4464 61.6466 48.6486 61.6368 48.9184C61.6271 49.1163 61.6227 49.4175 61.6227 49.8211C61.6118 50.2267 61.6075 50.9717 61.6075 52.056V54.131C61.6075 55.1773 61.7141 55.9701 61.925 56.5107C62.1154 57.074 62.3862 57.4938 62.732 57.7689C62.9038 57.8994 63.0702 58.0027 63.2301 58.0788C63.3932 58.1714 63.5487 58.2355 63.6934 58.2747C63.849 58.3127 63.9958 58.3377 64.136 58.3464C64.2818 58.366 64.4123 58.3757 64.5298 58.3757C64.8516 58.3757 65.1899 58.3127 65.5477 58.1877C65.9033 58.068 66.222 57.8646 66.5069 57.5808C66.9017 57.1664 67.1486 56.6378 67.2443 55.9973C67.3204 55.3665 67.353 54.6694 67.3432 53.907V52.056C67.3432 50.1191 67.3346 49.0728 67.3149 48.9184C67.3074 48.6574 67.2606 48.4649 67.1812 48.3398C67.0975 48.1995 66.9376 48.1114 66.6983 48.0723C66.5268 48.0418 66.3527 48.0273 66.1785 48.0288C66.0143 48.0385 65.9316 47.9961 65.9316 47.8961C65.9316 47.8123 66.0338 47.771 66.2339 47.771C66.7863 47.7708 67.3386 47.7846 67.8903 47.8123C67.9914 47.8123 68.2209 47.8047 68.5754 47.7851C68.9126 47.7754 69.228 47.771 69.5238 47.771C69.725 47.771 69.824 47.8123 69.824 47.8961C69.824 47.995 69.7392 48.0385 69.5651 48.0288C69.4346 48.0288 69.2943 48.0429 69.1497 48.0723C68.9681 48.1016 68.8375 48.181 68.7625 48.3115C68.6733 48.4464 68.6244 48.6486 68.6146 48.9184C68.6059 49.1163 68.6005 49.4175 68.6005 49.8199C68.5907 50.5646 68.5867 51.3092 68.5885 52.0538V53.6351C68.5983 54.4639 68.5254 55.2719 68.371 56.0625C68.206 56.8377 67.807 57.5434 67.228 58.0843C66.7168 58.5182 66.21 58.8053 65.7054 58.9446C65.2051 59.0848 64.7157 59.1545 64.2404 59.1545C63.8456 59.1643 63.353 59.1131 62.7581 59.0023C62.1665 58.8869 61.5945 58.5976 61.0474 58.1376C60.6819 57.8091 60.3796 57.335 60.1436 56.7151C59.8935 56.106 59.7706 55.2719 59.7706 54.218V52.056ZM86.6746 56.9446C86.6931 57.5036 86.7442 57.9071 86.829 58.1572C86.9139 58.3932 87.0269 58.5356 87.1719 58.5835C87.4303 58.6608 87.6793 58.6944 87.9244 58.6846C88.0851 58.6846 88.1679 58.7238 88.1679 58.8032C88.1537 58.8967 88.0418 58.9424 87.8314 58.9424C86.916 58.9261 86.3211 58.912 86.0504 58.9022C85.5343 58.9205 85.018 58.9339 84.5016 58.9424C84.2907 58.9532 84.1841 58.9065 84.1841 58.8032C84.1841 58.7238 84.2613 58.6846 84.4169 58.6846C84.6289 58.6846 84.8442 58.6608 85.0639 58.6128C85.2488 58.565 85.3717 58.4008 85.437 58.1213C85.4968 57.8462 85.5239 57.3981 85.5131 56.776L85.6392 48.0157C85.6294 47.6927 85.6936 47.5263 85.8307 47.5154C85.9122 47.5154 85.9949 47.5568 86.0742 47.6394C86.1591 47.7264 86.2515 47.8395 86.3548 47.9787C86.8823 48.5812 88.3672 50.1625 90.8052 52.7248C91.3512 53.286 91.9745 53.9418 92.6758 54.689C93.3621 55.4481 93.7923 55.9179 93.9664 56.0963H94.0366L93.8947 49.4447C93.8947 49.001 93.8601 48.6835 93.7907 48.4822C93.7568 48.3968 93.7048 48.3197 93.6379 48.2561C93.5717 48.1924 93.4921 48.1439 93.4054 48.1135C93.1556 48.0481 92.898 48.0199 92.6395 48.0299C92.4803 48.0299 92.4047 47.9842 92.4149 47.895C92.4149 47.8395 92.4536 47.8025 92.5276 47.784C92.6041 47.7731 92.6876 47.7688 92.7869 47.7688C93.5914 47.7797 94.1689 47.7939 94.5243 47.8123C94.6094 47.8123 94.7757 47.8025 95.0231 47.784C95.276 47.7731 95.5762 47.7688 95.9261 47.7688C96.1373 47.7601 96.2484 47.8014 96.2578 47.895C96.2578 47.9842 96.1735 48.0299 96.0033 48.0299C95.8764 48.0299 95.7315 48.044 95.5668 48.0701C95.4738 48.0876 95.3879 48.1299 95.317 48.1923C95.2469 48.2547 95.1941 48.3349 95.1649 48.4246C95.0861 48.6128 95.0404 48.914 95.0325 49.3284L94.8781 58.6705C94.8781 58.9718 94.8127 59.124 94.6866 59.124C94.6118 59.124 94.5369 59.0827 94.4644 59.0012C94.373 58.941 94.2856 58.8741 94.2036 58.801C92.7861 57.3587 91.3748 55.9093 89.9707 54.453C88.182 52.5443 87.0442 51.3023 86.5528 50.7237H86.5093L86.6746 56.9446ZM114.395 53.6851C114.395 55.3241 114.404 56.3192 114.423 56.676C114.431 56.8641 114.451 57.0718 114.479 57.298C114.49 57.534 114.52 57.7004 114.577 57.7972C114.675 57.9364 114.876 58.067 115.181 58.1877C115.48 58.3225 115.908 58.3899 116.464 58.3899C117.873 58.4095 118.976 58.055 119.77 57.3274C120.218 56.9032 120.535 56.3703 120.718 55.7287C120.896 55.0475 120.983 54.3457 120.976 53.6416C120.967 52.6922 120.818 51.9136 120.527 51.3012C120.407 51.0173 120.259 50.7462 120.084 50.4921C119.923 50.2746 119.758 50.0919 119.595 49.9418C118.925 49.311 118.221 48.901 117.482 48.715C116.742 48.5367 116.09 48.4529 115.516 48.4627C115.364 48.4627 115.19 48.467 114.999 48.4768C114.855 48.4918 114.713 48.5233 114.576 48.5703C114.456 48.6193 114.4 48.7183 114.409 48.8672C114.4 49.5155 114.395 50.5007 114.395 51.8221V53.6851ZM112.601 52.056C112.601 50.118 112.592 49.0717 112.577 48.9173C112.567 48.6574 112.523 48.4649 112.444 48.3398C112.36 48.1995 112.197 48.1103 111.958 48.0723C111.773 48.0399 111.586 48.0253 111.398 48.0288C111.234 48.0385 111.153 47.9918 111.153 47.8961C111.153 47.8112 111.257 47.7677 111.469 47.7677C112.338 47.7786 113.027 47.7928 113.537 47.8112L115.746 47.7677C116.742 47.7523 117.736 47.8226 118.719 47.9776C119.77 48.1517 120.701 48.6432 121.511 49.4502C121.881 49.8265 122.208 50.3257 122.487 50.9445C122.753 51.5666 122.892 52.3213 122.9 53.2131C122.892 54.1354 122.737 54.9478 122.432 55.6449C122.123 56.3388 121.758 56.9 121.337 57.3339C121.182 57.5025 120.967 57.6863 120.692 57.8831C120.373 58.1063 120.035 58.2993 119.681 58.4595C118.91 58.851 117.858 59.0577 116.527 59.0816C115.974 59.071 115.422 59.0394 114.871 58.987C114.404 58.9369 113.936 58.9089 113.468 58.9033C112.986 58.9131 112.381 58.925 111.659 58.9446C111.465 58.9446 111.371 58.8956 111.371 58.8043C111.361 58.7249 111.434 58.6846 111.594 58.6846C111.818 58.6846 111.989 58.6651 112.111 58.6259C112.18 58.6079 112.245 58.5726 112.297 58.5231C112.35 58.4737 112.39 58.4118 112.413 58.3431C112.474 58.2094 112.512 58.031 112.532 57.8091C112.577 57.1316 112.602 56.0789 112.602 54.6585L112.601 52.056ZM142.88 54.354C142.945 54.354 142.969 54.3246 142.949 54.267L141.652 50.6128C141.644 50.5378 141.621 50.4943 141.581 50.4855C141.545 50.4943 141.516 50.5378 141.499 50.6128L140.179 54.2517C140.155 54.3192 140.175 54.354 140.238 54.354H142.88ZM139.95 55.0881C139.88 55.0881 139.834 55.1272 139.815 55.2045L139.042 57.3252C138.899 57.72 138.825 58.0212 138.825 58.229C138.825 58.354 138.869 58.4574 138.955 58.54C139.042 58.6368 139.19 58.6846 139.401 58.6846H139.618C139.769 58.6846 139.839 58.726 139.829 58.8043C139.829 58.8967 139.75 58.9457 139.592 58.9457C139.083 58.9266 138.573 58.9121 138.063 58.9022C137.797 58.9109 137.233 58.9261 136.373 58.9457C136.192 58.9457 136.1 58.8967 136.1 58.8043C136.1 58.7227 136.158 58.6846 136.276 58.6846C136.426 58.6846 136.573 58.6749 136.716 58.6553C137.045 58.6074 137.299 58.4649 137.482 58.229C137.588 58.1045 137.672 57.9638 137.734 57.8124C137.804 57.6678 137.871 57.5058 137.937 57.3274L141.541 48.044C141.695 47.6416 141.828 47.4436 141.939 47.4535C142.059 47.4535 142.178 47.61 142.304 47.921C143.481 50.9562 144.667 53.9879 145.861 57.0164C146.14 57.658 146.385 58.0822 146.595 58.2866C146.805 58.4846 146.984 58.5976 147.128 58.627C147.348 58.6651 147.55 58.6846 147.73 58.6846C147.854 58.6846 147.915 58.726 147.915 58.8043C147.915 58.8608 147.876 58.8913 147.8 58.9022C147.704 58.9305 147.52 58.9457 147.255 58.9457C146.67 58.9457 145.765 58.9348 144.54 58.9163C144.264 58.9163 144.122 58.8793 144.112 58.8032C144.112 58.726 144.177 58.6792 144.311 58.6705C144.445 58.6314 144.489 58.5183 144.444 58.3301L143.293 55.1904C143.283 55.1594 143.263 55.1326 143.236 55.1142C143.21 55.0956 143.178 55.0865 143.145 55.0881H139.95ZM163.331 48.5921L161.188 48.6498C160.879 48.6499 160.572 48.6791 160.268 48.7367C160.075 48.7908 159.905 48.9108 159.79 49.076C159.659 49.3023 159.58 49.4741 159.551 49.5948C159.532 49.7101 159.479 49.7688 159.389 49.7688C159.295 49.7688 159.254 49.6906 159.264 49.5394C159.264 49.4665 159.283 49.348 159.319 49.1849C159.349 49.0184 159.377 48.8346 159.406 48.64C159.498 48.2082 159.551 47.9407 159.57 47.8417C159.61 47.6546 159.665 47.56 159.74 47.56C159.8 47.56 159.877 47.5861 159.971 47.6394C160.092 47.6978 160.222 47.7322 160.356 47.7405C160.81 47.7895 161.289 47.8134 161.795 47.8134H167.482C168.342 47.784 168.804 47.7362 168.863 47.6687C168.94 47.6687 168.978 47.7721 168.978 47.9765C168.968 48.5051 168.954 49.0739 168.934 49.684C168.924 49.8428 168.881 49.9222 168.802 49.9222C168.697 49.932 168.644 49.833 168.644 49.6253L168.633 49.4589C168.633 49.2522 168.506 49.0674 168.26 48.9021C168.007 48.7433 167.566 48.6541 166.935 48.6345L165.125 48.591V54.6585C165.116 56.08 165.14 57.1381 165.195 57.832C165.219 58.0387 165.268 58.2104 165.342 58.3453C165.407 58.4954 165.548 58.589 165.759 58.6281C165.994 58.664 166.241 58.6825 166.496 58.6825C166.65 58.6825 166.727 58.7238 166.727 58.8032C166.714 58.8979 166.621 58.9435 166.452 58.9435C165.425 58.9261 164.673 58.912 164.195 58.9022L162.386 58.9435C162.193 58.9435 162.099 58.8979 162.099 58.8032C162.089 58.7238 162.167 58.6857 162.328 58.6857C162.504 58.6912 162.679 58.6719 162.848 58.6281C162.919 58.6079 162.984 58.572 163.038 58.5229C163.092 58.4739 163.135 58.4132 163.163 58.3453C163.22 58.2104 163.252 58.0321 163.26 57.8102C163.307 57.1338 163.331 56.0821 163.331 54.6629V48.5921ZM208.669 58.4182C208.933 58.4182 209.253 58.3649 209.617 58.2594C209.989 58.1485 210.36 57.9364 210.724 57.6232C211.089 57.2948 211.391 56.8108 211.628 56.1692C211.868 55.5383 211.991 54.6944 212 53.6384C211.981 51.9614 211.579 50.6476 210.793 49.6981C210 48.7531 208.999 48.2767 207.795 48.267C207.391 48.267 206.985 48.3289 206.573 48.455C206.135 48.6058 205.741 48.8611 205.423 49.199C205.078 49.5318 204.797 49.9994 204.59 50.6019C204.369 51.2044 204.26 51.9712 204.26 52.901C204.26 54.478 204.652 55.7787 205.438 56.8054C206.202 57.8614 207.282 58.3986 208.669 58.4182ZM208.068 59.1534C206.027 59.1153 204.546 58.4737 203.625 57.2327C202.716 56.0299 202.269 54.7379 202.277 53.3567C202.269 52.0049 202.721 50.7204 203.637 49.5035C204.551 48.2452 206.071 47.5992 208.203 47.56C211.995 47.6427 213.932 49.4861 214.01 53.0892C214.002 54.8184 213.467 56.2464 212.414 57.3774C211.359 58.5313 209.912 59.124 208.068 59.1534ZM231.112 56.9446C231.134 57.5036 231.183 57.9071 231.267 58.1572C231.355 58.3932 231.466 58.5356 231.61 58.5835C231.869 58.6608 232.118 58.6944 232.365 58.6846C232.524 58.6846 232.607 58.7238 232.607 58.8032C232.593 58.8967 232.48 58.9424 232.27 58.9424C231.357 58.9261 230.76 58.912 230.489 58.9022C230.279 58.912 229.761 58.9261 228.943 58.9424C228.732 58.9532 228.626 58.9065 228.626 58.8032C228.626 58.7238 228.7 58.6846 228.855 58.6846C229.067 58.6846 229.283 58.6608 229.502 58.6128C229.687 58.565 229.81 58.4008 229.876 58.1213C229.937 57.8462 229.962 57.3981 229.955 56.776L230.077 48.0157C230.068 47.6927 230.133 47.5263 230.269 47.5154C230.354 47.5154 230.436 47.5568 230.513 47.6394C230.598 47.7264 230.69 47.8395 230.794 47.9787C231.321 48.5812 232.805 50.1625 235.244 52.7248C235.792 53.286 236.413 53.9418 237.115 54.689C237.803 55.4481 238.231 55.9179 238.408 56.0963H238.475L238.334 49.4447C238.334 49.001 238.302 48.6835 238.228 48.4822C238.194 48.3967 238.142 48.3194 238.075 48.2557C238.008 48.1921 237.929 48.1436 237.842 48.1135C237.594 48.0478 237.337 48.0196 237.081 48.0299C236.918 48.0299 236.844 47.9842 236.852 47.895C236.852 47.8395 236.895 47.8025 236.967 47.784C237.042 47.7731 237.13 47.7688 237.225 47.7688C238.03 47.7797 238.611 47.7939 238.963 47.8123C239.048 47.8123 239.217 47.8025 239.461 47.784C239.718 47.7731 240.017 47.7688 240.365 47.7688C240.575 47.7601 240.687 47.8014 240.697 47.895C240.697 47.9842 240.614 48.0299 240.442 48.0299C240.317 48.0299 240.17 48.044 240.007 48.0701C239.914 48.0872 239.828 48.1292 239.758 48.1917C239.687 48.2542 239.635 48.3346 239.606 48.4246C239.524 48.6128 239.478 48.914 239.471 49.3284L239.319 58.6705C239.319 58.9718 239.252 59.124 239.126 59.124C239.05 59.124 238.975 59.0827 238.906 59.0012C238.813 58.941 238.725 58.8741 238.643 58.801C237.224 57.3587 235.813 55.9093 234.41 54.453C232.62 52.5443 231.482 51.3023 230.992 50.7237H230.951L231.112 56.9446ZM184.537 52.0277C184.537 50.0973 184.529 49.0565 184.512 48.9021C184.493 48.4083 184.331 48.1332 184.022 48.0755C183.852 48.0363 183.679 48.017 183.504 48.0179C183.354 48.0277 183.279 47.9787 183.279 47.8711C183.279 47.7949 183.396 47.7568 183.623 47.7568C184.244 47.7644 184.864 47.7796 185.484 47.8025C185.97 47.7939 186.553 47.7786 187.235 47.7568C187.425 47.7568 187.526 47.796 187.534 47.8711C187.534 47.9798 187.457 48.0277 187.302 48.0179C187.158 48.0196 187.015 48.0342 186.874 48.0614C186.689 48.0897 186.559 48.1701 186.48 48.2974C186.395 48.4323 186.349 48.6345 186.34 48.9043C186.33 49.1022 186.325 49.4012 186.325 49.8069C186.314 50.2104 186.31 50.9532 186.31 52.0353V54.6313C186.299 56.106 186.321 57.186 186.369 57.8679C186.395 58.0658 186.448 58.2224 186.523 58.3377C186.593 58.478 186.733 58.5618 186.944 58.5911C187.183 58.627 187.425 58.6455 187.673 58.6455C187.829 58.6455 187.906 58.6879 187.906 58.7652C187.896 58.8587 187.804 58.9065 187.633 58.9065C186.608 58.888 185.868 58.8739 185.399 58.863L183.596 58.9065C183.405 58.9065 183.308 58.8587 183.308 58.7673C183.299 58.6879 183.374 58.6488 183.53 58.6488C183.756 58.6488 183.928 58.627 184.048 58.5911C184.309 58.5335 184.447 58.2866 184.467 57.8559C184.512 57.1838 184.537 56.1115 184.537 54.6367V52.0277Z" fill="white"/>
</g>
</g>
</g>
<defs>
<clipPath id="clip0_34080_75031">
<rect width="252.146" height="102.434" fill="white" transform="translate(0.296875 0.320312)"/>
</clipPath>
<clipPath id="clip1_34080_75031">
<rect width="252.146" height="102.434" fill="white" transform="translate(0.296875 0.320312)"/>
</clipPath>
<clipPath id="clip2_34080_75031">
<rect width="236.387" height="102.435" fill="white" transform="translate(8.17969 0.320312)"/>
</clipPath>
</defs>
</svg>
