<svg width="300" height="130" viewBox="0 0 300 130" fill="none" xmlns="http://www.w3.org/2000/svg">
<path fill-rule="evenodd" clip-rule="evenodd" d="M3.85083 105.531H96.2941V97.8281H3.85221L3.85083 105.531Z" fill="white"/>
<path fill-rule="evenodd" clip-rule="evenodd" d="M103.999 105.531H196.442V97.8281H103.999V105.531Z" fill="white"/>
<path fill-rule="evenodd" clip-rule="evenodd" d="M203.183 105.531H295.625V97.8281H203.181L203.183 105.531Z" fill="white"/>
<path fill-rule="evenodd" clip-rule="evenodd" d="M2.58516 26.3579C2.26771 25.2992 1.92679 24.6298 1.55827 24.3455C1.16767 24.1799 0.79915 24.0971 0.447193 24.0971C0.168387 24.1164 0.0193231 24.0294 0 23.8445C0.0193231 23.6816 0.220836 23.6016 0.608679 23.6016C2.26909 23.6209 3.34152 23.6471 3.83012 23.6844C3.97505 23.6844 4.327 23.6664 4.88737 23.6292C5.41876 23.6112 6.09093 23.6016 6.90388 23.6016C7.29172 23.6016 7.48357 23.6816 7.48357 23.8431C7.46977 24.0294 7.30139 24.1164 6.98531 24.0971C6.7493 24.0971 6.52018 24.1343 6.29382 24.2075C6.07023 24.3179 5.96395 24.5222 5.98327 24.8286C5.98327 24.9017 6.01364 25.0149 6.07989 25.1709C6.09369 25.3393 6.13234 25.5353 6.18478 25.7644C6.29382 26.2143 6.43322 26.7678 6.60713 27.4193C7.77066 31.5668 8.95351 35.5709 10.1543 39.4341H10.2344L15.6076 24.7278C15.7787 24.3331 15.9085 24.057 15.9982 23.9011C16.1086 23.7727 16.2066 23.7078 16.2963 23.7078C16.4523 23.7078 16.5917 23.8127 16.7159 24.0267C16.8236 24.2475 16.9547 24.5801 17.1093 25.0301L22.8745 39.2257H22.9573C24.1558 35.0018 25.3828 30.786 26.6383 26.5787C26.7474 26.2392 26.8316 25.9272 26.8964 25.6415C26.9144 25.3641 26.924 25.1309 26.924 24.9376C26.9252 24.822 26.9029 24.7074 26.8586 24.6006C26.8142 24.4939 26.7487 24.3972 26.6659 24.3165C26.4865 24.1702 26.1235 24.0971 25.5838 24.0971C25.2664 24.0971 25.109 24.0115 25.109 23.8431C25.109 23.6816 25.3257 23.6016 25.7577 23.6016C27.3312 23.6209 28.2891 23.6471 28.6424 23.6844C28.786 23.6844 29.0896 23.6664 29.5492 23.6292C29.9923 23.6112 30.4546 23.6016 30.9432 23.6016C31.2497 23.6016 31.4111 23.672 31.4291 23.8155C31.4291 24.0032 31.3049 24.0971 31.0509 24.0971C30.7334 24.0971 30.4119 24.1426 30.0765 24.2351C29.759 24.3455 29.5023 24.6657 29.3035 25.1985C29.0229 25.866 28.761 26.5412 28.5182 27.2233C26.6087 32.793 24.7637 38.3847 22.9835 43.9971C22.8455 44.4664 22.7254 44.799 22.6177 45.0006C22.5115 45.2145 22.3624 45.318 22.1705 45.318C22.0463 45.318 21.929 45.2145 21.82 45.0006C21.6819 44.7839 21.5191 44.4264 21.3203 43.9267L15.551 29.7932H15.4999C14.0369 33.898 12.2357 38.5715 10.0977 43.8163C9.93232 44.2112 9.74666 44.5972 9.54149 44.973C9.40899 45.2035 9.25992 45.318 9.09568 45.318C8.85276 45.318 8.64158 44.9771 8.45939 44.2884L2.58516 26.3579Z" fill="white"/>
<path fill-rule="evenodd" clip-rule="evenodd" d="M45.4728 36.1808C45.6012 36.1808 45.6468 36.1256 45.6109 36.0152L43.1044 29.0492C43.0864 28.9029 43.0423 28.8201 42.9677 28.8008C42.8973 28.8201 42.8408 28.9029 42.8062 29.0492L40.2625 35.989C40.2156 36.1173 40.2528 36.1822 40.3715 36.1822H45.4715L45.4728 36.1808ZM39.8167 37.5817C39.6842 37.5817 39.5958 37.6549 39.56 37.8053L38.0735 41.8494C37.7947 42.6044 37.6539 43.1799 37.6539 43.5747C37.6539 43.8121 37.7353 44.0108 37.8968 44.1682C38.0666 44.3504 38.3592 44.4456 38.7622 44.4456H39.1804C39.473 44.4456 39.6055 44.5188 39.5876 44.672C39.5876 44.85 39.4357 44.9383 39.128 44.9383C38.1259 44.9011 37.1418 44.8776 36.1812 44.8583C35.665 44.8776 34.5801 44.9011 32.9197 44.9383C32.5664 44.9383 32.3925 44.85 32.3925 44.672C32.3925 44.5201 32.5029 44.4428 32.7306 44.4428C33.0191 44.4428 33.3006 44.4249 33.5808 44.3876C34.213 44.2952 34.703 44.026 35.0577 43.5774C35.2523 43.3469 35.4165 43.0778 35.5449 42.7783C35.6774 42.5022 35.8071 42.1945 35.9355 41.8549L42.8891 24.1439C43.1872 23.3737 43.4439 22.9983 43.662 23.0162C43.8842 23.0162 44.1202 23.313 44.3631 23.9092C46.6335 29.6997 48.9201 35.4838 51.2229 41.2614C51.7667 42.4815 52.2373 43.2931 52.6445 43.6865C53.0503 44.0633 53.3926 44.2772 53.6714 44.3324C54.0965 44.4056 54.4843 44.4456 54.8349 44.4456C55.0695 44.4456 55.1882 44.5188 55.1882 44.672C55.1882 44.7796 55.1137 44.8403 54.9715 44.8583C54.7824 44.9135 54.4277 44.9411 53.9157 44.9411C52.7866 44.9411 51.0434 44.9204 48.6791 44.8859C48.1477 44.8859 47.8717 44.8127 47.8537 44.672C47.8537 44.5201 47.9807 44.4332 48.2319 44.4152C48.4955 44.3421 48.5797 44.1281 48.49 43.7665L46.2706 37.7764C46.2182 37.6466 46.1215 37.5817 45.989 37.5817H39.8167Z" fill="white"/>
<path fill-rule="evenodd" clip-rule="evenodd" d="M64.0921 36.7398C64.0741 38.5479 64.1017 39.9391 64.1721 40.9122C64.2411 41.9308 64.4109 42.5629 64.6676 42.8114C64.8816 42.9977 65.2294 43.144 65.7097 43.253C66.1831 43.3745 66.9381 43.4325 67.9802 43.4325C68.7117 43.4325 69.3493 43.3828 69.8945 43.2793C70.419 43.2089 70.8469 42.9922 71.1754 42.6333C71.5605 42.1475 71.7965 41.5816 71.8834 40.9398C71.8834 40.6831 71.9883 40.545 72.1926 40.5257C72.3334 40.5257 72.4065 40.6831 72.4065 40.995C72.4065 41.2048 72.3707 41.6796 72.2961 42.4139C72.2078 43.1481 72.1139 43.7568 72.0035 44.2427C71.9511 44.5463 71.8324 44.7451 71.6447 44.8362C71.4224 44.9466 70.967 45.0018 70.2824 45.0018C67.632 44.9642 64.9819 44.9099 62.3323 44.8389C61.4144 44.8541 60.2688 44.8817 58.89 44.919C58.5256 44.919 58.3421 44.8334 58.3421 44.6498C58.3241 44.4994 58.4677 44.4235 58.7672 44.4235C59.1923 44.4235 59.5194 44.3862 59.7513 44.3131C59.8844 44.279 60.0068 44.2117 60.1069 44.1176C60.2071 44.0235 60.2818 43.9055 60.3241 43.7748C60.4531 43.4495 60.529 43.1055 60.549 42.7562C60.6387 41.4588 60.6815 39.456 60.6815 36.7425V31.7751C60.6815 28.0802 60.6664 26.0858 60.6346 25.7918C60.6208 25.2949 60.5339 24.9264 60.382 24.6876C60.2219 24.4213 59.9169 24.2501 59.4614 24.177C59.1636 24.1161 58.8599 24.0883 58.556 24.0942C58.2454 24.1135 58.0895 24.0279 58.0895 23.8402C58.0895 23.6815 58.291 23.5987 58.6885 23.5987C60.2164 23.618 61.4669 23.6456 62.433 23.6815C63.4724 23.6635 64.7104 23.6359 66.1376 23.5987C66.5226 23.5987 66.7117 23.6815 66.7117 23.8402C66.7117 24.0279 66.5503 24.1135 66.2287 24.0942C65.8836 24.0942 65.5247 24.1218 65.1617 24.177C64.8139 24.2322 64.5627 24.384 64.4137 24.6324C64.2508 24.8905 64.1625 25.2756 64.1445 25.7918C64.1293 26.1686 64.1197 26.7442 64.1197 27.5143C64.1017 28.2873 64.0921 29.7075 64.0921 31.7751V36.7398ZM83.0067 25.1707L78.9309 25.2811C78.1676 25.2991 77.5838 25.3543 77.1835 25.4468C76.7832 25.5738 76.4768 25.7918 76.2753 26.0913C76.0241 26.5261 75.875 26.856 75.8198 27.0851C75.7826 27.3059 75.6818 27.4164 75.5107 27.4164C75.334 27.4164 75.2539 27.2687 75.2719 26.9747C75.2719 26.8367 75.3092 26.6144 75.3795 26.3025C75.4348 25.9851 75.49 25.6359 75.5452 25.2618C75.7163 24.4392 75.8198 23.9313 75.8557 23.7394C75.9303 23.3806 76.0338 23.2011 76.1773 23.2011C76.2933 23.2011 76.4396 23.2522 76.6176 23.353C76.7763 23.4454 77.0206 23.5089 77.3505 23.5462C78.2131 23.6373 79.1241 23.6842 80.0833 23.6842H90.8988C92.5316 23.629 93.408 23.5365 93.524 23.4082C93.6648 23.4082 93.7379 23.6042 93.7379 23.9989C93.72 25.0065 93.6924 26.0913 93.6592 27.2535C93.6399 27.5571 93.5543 27.7062 93.4025 27.7062C93.2065 27.7269 93.1058 27.5378 93.1058 27.1431L93.0809 26.8256C93.0809 26.4309 92.8463 26.0762 92.3756 25.7628C91.8953 25.4606 91.0547 25.2894 89.8567 25.2522L86.4172 25.1693V36.7411C86.3993 39.4547 86.442 41.4739 86.5483 42.7976C86.5952 43.1923 86.6863 43.5194 86.8299 43.7775C86.9555 44.0619 87.2177 44.2413 87.6194 44.3158C88.0825 44.3872 88.5504 44.4227 89.0189 44.4221C89.3115 44.4221 89.4592 44.4994 89.4592 44.6512C89.4344 44.8293 89.2605 44.9204 88.9389 44.9204C86.9831 44.8845 85.5518 44.8569 84.6464 44.8375C83.7396 44.8569 82.594 44.8845 81.2096 44.9204C80.8425 44.9204 80.6617 44.8293 80.6617 44.6512C80.6437 44.5021 80.79 44.4249 81.102 44.4249C81.5174 44.4249 81.8473 44.389 82.0861 44.3144C82.2202 44.276 82.3438 44.2075 82.4475 44.1143C82.5513 44.021 82.6325 43.9054 82.6851 43.7761C82.7927 43.5194 82.8535 43.1799 82.8714 42.7589C82.9597 41.4643 83.0067 39.4643 83.0067 36.7549V25.1707ZM111.621 43.9142C112.129 43.9142 112.728 43.8134 113.423 43.6105C114.131 43.4007 114.835 42.9936 115.528 42.3973C116.219 41.7707 116.793 40.8501 117.246 39.6258C117.699 38.4209 117.933 36.8115 117.953 34.7964C117.918 31.597 117.155 29.0919 115.66 27.2839C114.15 25.4799 112.248 24.5676 109.956 24.5496C109.191 24.5496 108.418 24.6683 107.637 24.9085C106.838 25.1735 106.107 25.6469 105.45 26.3301C104.794 26.9623 104.263 27.8566 103.863 29.0036C103.449 30.1533 103.237 31.615 103.237 33.39C103.237 36.3961 103.982 38.8805 105.478 40.8377C106.936 42.8528 108.984 43.8769 111.621 43.9142ZM110.476 45.3192C106.599 45.2447 103.785 44.0246 102.029 41.6547C100.305 39.3594 99.4493 36.8944 99.4714 34.2567C99.4493 31.6799 100.315 29.23 102.057 26.9043C103.79 24.5096 106.682 23.2743 110.735 23.2039C117.946 23.3557 121.625 26.8753 121.777 33.7502C121.758 37.0489 120.746 39.7735 118.738 41.9294C116.739 44.135 113.984 45.264 110.476 45.3192ZM132.874 41.1068C132.907 42.1709 133.008 42.9425 133.168 43.4187C133.327 43.8714 133.546 44.1405 133.821 44.233C134.311 44.3793 134.784 44.4442 135.247 44.4262C135.557 44.4262 135.713 44.5021 135.713 44.6512C135.69 44.8293 135.476 44.9204 135.076 44.9204C133.946 44.899 132.817 44.8714 131.689 44.8375C131.288 44.8569 130.307 44.8845 128.742 44.9204C128.344 44.9397 128.143 44.8513 128.143 44.6512C128.143 44.5021 128.289 44.4249 128.583 44.4249C128.986 44.4249 129.392 44.3793 129.811 44.2868C130.159 44.1957 130.395 43.8838 130.521 43.3483C130.637 42.8252 130.687 41.9681 130.667 40.7852L130.909 24.0693C130.891 23.4551 131.009 23.1363 131.269 23.1211C131.428 23.1211 131.584 23.197 131.734 23.353C131.896 23.5186 132.074 23.7353 132.268 24.0017C133.272 25.1486 136.09 28.1686 140.726 33.0532C141.766 34.127 142.953 35.3775 144.284 36.8005C145.09 37.7077 145.908 38.604 146.737 39.4892H146.868L146.602 26.8008C146.602 25.9533 146.534 25.3419 146.4 24.9651C146.242 24.6076 145.997 24.3716 145.669 24.2612C145.195 24.1343 144.705 24.0785 144.214 24.0955C143.912 24.0955 143.772 24.0113 143.79 23.843C143.79 23.7353 143.859 23.6635 144 23.629C144.144 23.6111 144.309 23.6014 144.497 23.6014C146.025 23.6194 147.125 23.647 147.8 23.6842C147.959 23.6842 148.275 23.6649 148.745 23.629C149.224 23.6111 149.8 23.6014 150.465 23.6014C150.863 23.5835 151.074 23.6621 151.089 23.843C151.089 24.0113 150.93 24.0969 150.61 24.0969C150.369 24.0969 150.09 24.1245 149.778 24.1797C149.602 24.214 149.439 24.2948 149.305 24.4138C149.171 24.5328 149.072 24.6855 149.017 24.856C148.864 25.2135 148.778 25.7877 148.761 26.5772L148.467 44.3972C148.467 44.9769 148.348 45.264 148.108 45.264C147.966 45.264 147.822 45.1867 147.68 45.0308C147.506 44.9152 147.341 44.7855 147.188 44.6429C144.491 41.894 141.809 39.1298 139.143 36.3505C135.741 32.7137 133.577 30.3424 132.642 29.2424H132.559L132.874 41.1068Z" fill="white"/>
<path fill-rule="evenodd" clip-rule="evenodd" d="M176.389 36.7464C176.371 39.5137 176.412 41.5178 176.522 42.76C176.558 43.1823 176.649 43.5246 176.801 43.7814C176.923 44.0657 177.184 44.2465 177.585 44.3196C178.034 44.39 178.487 44.4273 178.939 44.4273C179.248 44.4273 179.404 44.5032 179.404 44.6564C179.404 44.8331 179.207 44.9228 178.808 44.9228C177.435 44.8984 176.061 44.8717 174.688 44.8428C173.707 44.8607 172.563 44.8883 171.243 44.9228C170.864 44.9228 170.676 44.8331 170.676 44.6564C170.658 44.5032 170.788 44.4301 171.071 44.4301C171.493 44.4301 171.817 44.3928 172.048 44.3196C172.18 44.2852 172.302 44.2177 172.401 44.1236C172.501 44.0295 172.575 43.9118 172.616 43.7814C172.728 43.5246 172.804 43.1851 172.841 42.76C172.93 41.5178 172.971 39.5137 172.971 36.7464V31.7817C172.971 28.0868 172.957 26.0896 172.926 25.7957C172.912 25.3002 172.826 24.933 172.674 24.6915C172.516 24.4251 172.212 24.2567 171.759 24.1836C171.41 24.1209 171.055 24.0922 170.699 24.098C170.393 24.098 170.238 24.0248 170.238 23.8716C170.238 23.695 170.445 23.6052 170.861 23.6052C172.473 23.6246 173.78 23.6522 174.779 23.6881C177.373 23.6881 179.766 23.6798 181.961 23.6605C182.446 23.6425 182.816 23.6052 183.076 23.55C183.206 23.4693 183.35 23.4131 183.501 23.3844C183.635 23.4037 183.698 23.4865 183.698 23.6328C183.683 23.7764 183.607 24.1987 183.47 24.893C183.437 25.6245 183.392 26.3836 183.337 27.1717C183.337 27.4381 183.248 27.5692 183.07 27.5692C182.902 27.5692 182.808 27.4174 182.79 27.1165V26.6335C182.772 26.4276 182.717 26.2267 182.629 26.04C182.56 25.8384 182.368 25.6425 182.059 25.4506C181.763 25.3029 181.357 25.2201 180.834 25.2022L176.629 25.1194C176.467 25.1194 176.389 25.2477 176.389 25.5058V32.5698C176.371 32.7437 176.43 32.832 176.574 32.832L180.048 32.8044C180.51 32.8044 180.917 32.7962 181.269 32.7768C181.782 32.7768 182.177 32.6057 182.45 32.2662C182.557 32.0729 182.671 31.9763 182.796 31.9763C182.902 31.9763 182.954 32.0646 182.954 32.2385C182.954 32.3131 182.936 32.5091 182.902 32.8293C182.884 32.9576 182.856 33.1233 182.82 33.3262C182.807 33.536 182.779 33.7568 182.742 33.9859C182.673 34.8486 182.638 35.5331 182.638 36.0383C182.638 36.1667 182.629 36.2826 182.611 36.3834C182.593 36.5117 182.507 36.5766 182.359 36.5766C182.219 36.5586 182.147 36.4248 182.147 36.1763C182.147 35.9555 182.094 35.6656 181.988 35.3068C181.933 35.0956 181.798 34.8913 181.578 34.6898C181.462 34.5652 181.321 34.4665 181.164 34.4C180.979 34.3396 180.788 34.3026 180.594 34.2896C180.161 34.2344 179.476 34.2067 178.538 34.2067H176.574C176.449 34.2067 176.389 34.2896 176.389 34.4538V36.745V36.7464ZM199.393 36.1653C199.517 36.1653 199.563 36.1101 199.527 35.9997L197.075 29.0323C197.057 28.886 197.015 28.8032 196.941 28.7838C196.872 28.8032 196.82 28.886 196.784 29.0323L194.293 35.9721C194.247 36.1018 194.285 36.1653 194.399 36.1653H199.393ZM193.857 37.5662C193.726 37.5662 193.64 37.6394 193.608 37.7898L192.149 41.8339C191.876 42.5888 191.739 43.1644 191.739 43.5591C191.736 43.6691 191.755 43.7785 191.796 43.8806C191.837 43.9827 191.899 44.0753 191.977 44.1526C192.142 44.3348 192.428 44.4273 192.823 44.4273H193.233C193.519 44.4273 193.65 44.5032 193.632 44.6564C193.632 44.8345 193.483 44.9228 193.182 44.9228C192.202 44.8855 191.241 44.8621 190.297 44.8428C189.792 44.8621 188.729 44.8855 187.105 44.9228C186.76 44.9228 186.588 44.8345 186.588 44.6564C186.588 44.5046 186.699 44.4273 186.92 44.4273C187.203 44.4273 187.479 44.4094 187.752 44.3721C188.372 44.2796 188.851 44.0105 189.197 43.5619C189.392 43.3314 189.549 43.0623 189.675 42.7628C189.804 42.4867 189.933 42.1789 190.057 41.8394L196.861 24.1297C197.154 23.3582 197.407 22.9814 197.619 23.0007C197.837 23.0007 198.068 23.2975 198.305 23.8937C200.003 28.3201 202.239 34.1032 205.02 41.2459C205.551 42.466 206.014 43.2776 206.411 43.6709C206.809 44.0477 207.143 44.2617 207.416 44.3169C207.833 44.39 208.212 44.4273 208.555 44.4273C208.785 44.4273 208.901 44.5032 208.901 44.6564C208.901 44.7641 208.828 44.8248 208.689 44.8428C208.504 44.898 208.16 44.9256 207.656 44.9256C206.551 44.9256 204.843 44.9049 202.53 44.8704C202.01 44.8704 201.741 44.7972 201.725 44.6564C201.725 44.5046 201.847 44.4176 202.092 44.3997C202.351 44.3265 202.432 44.1126 202.345 43.751L200.173 37.7608C200.122 37.6311 200.028 37.5662 199.897 37.5662H193.857Z" fill="white"/>
<path fill-rule="evenodd" clip-rule="evenodd" d="M217.719 23.7315C217.805 23.2443 217.954 23 218.169 23C218.295 23.0027 218.416 23.0519 218.507 23.138C218.615 23.2664 218.753 23.5107 218.921 23.8695L226.397 39.7739L233.85 23.6763C234.029 23.2264 234.231 23 234.452 23C234.71 23 234.88 23.2898 234.946 23.8695L237.437 41.3032C237.603 43.0105 238.053 43.9615 238.771 44.1547C239.557 44.3562 240.127 44.4473 240.474 44.4307C240.75 44.4307 240.897 44.497 240.915 44.6309C240.915 44.7206 240.855 44.791 240.728 44.842C240.576 44.8973 240.403 44.9249 240.203 44.9249C238.348 44.9 236.493 44.8462 234.639 44.7634C234.078 44.7109 233.811 44.6074 233.851 44.457C233.851 44.3286 233.948 44.2278 234.141 44.1533C234.243 44.1174 234.305 44.0015 234.344 43.8083C234.363 43.6247 234.344 43.3376 234.289 42.9387L232.642 30.5333H232.535L226.557 43.3155C226.028 44.4238 225.691 44.9525 225.538 44.8973C225.433 44.8973 225.308 44.7661 225.164 44.4998C224.956 44.174 224.763 43.8382 224.587 43.4936C224.204 42.7041 223.649 41.5668 222.912 40.083C222.401 39.0964 221.907 38.1012 221.431 37.0976C220.851 35.7588 219.899 33.6719 218.578 30.8369H218.47L217.037 42.0623C216.989 42.5302 216.962 42.9732 216.962 43.3956C216.98 43.9035 217.256 44.2002 217.786 44.2927C218.28 44.3838 218.663 44.4307 218.939 44.4307C219.188 44.4307 219.323 44.497 219.341 44.6309C219.323 44.8269 219.106 44.9249 218.685 44.9249L215.815 44.842C215.09 44.8614 214.191 44.889 213.118 44.9249C212.807 44.9249 212.646 44.8282 212.624 44.6309C212.624 44.497 212.771 44.4294 213.053 44.4294C213.24 44.4473 213.514 44.4211 213.881 44.3465C214.247 44.2361 214.516 43.9559 214.697 43.5046C214.862 43.0933 214.967 42.6309 215.004 42.1175L217.719 23.7315Z" fill="white"/>
<path fill-rule="evenodd" clip-rule="evenodd" d="M249.086 31.7723C249.086 28.0815 249.071 26.0899 249.039 25.7959C249.006 24.8504 248.694 24.3218 248.105 24.2114C247.779 24.1393 247.445 24.1037 247.111 24.1051C246.828 24.1231 246.683 24.0278 246.683 23.8194C246.683 23.68 246.901 23.6055 247.34 23.6055C248.647 23.6276 249.839 23.6552 250.899 23.6883C251.825 23.6703 252.941 23.6427 254.243 23.6055C254.61 23.6055 254.8 23.68 254.82 23.8194C254.82 24.0278 254.672 24.1203 254.378 24.101C254.135 24.101 253.859 24.1286 253.555 24.1838C253.206 24.239 252.958 24.3908 252.803 24.6393C252.642 24.8974 252.552 25.2824 252.534 25.7986C252.515 26.1754 252.509 26.751 252.509 27.5239C252.484 28.944 252.474 30.3644 252.479 31.7847V36.7493C252.464 39.5733 252.497 41.6381 252.589 42.9438C252.642 43.3192 252.736 43.616 252.883 43.8409C253.019 44.1059 253.289 44.2647 253.691 44.3199C254.145 44.393 254.61 44.4303 255.085 44.4303C255.38 44.4303 255.528 44.5034 255.528 44.6566C255.513 44.8361 255.337 44.9258 255.006 44.9258C253.052 44.8885 251.631 44.8651 250.74 44.8457C249.819 44.8651 248.669 44.8885 247.289 44.9258C246.921 44.9258 246.74 44.8375 246.74 44.6594C246.721 44.5076 246.859 44.4331 247.165 44.4331C247.593 44.4331 247.92 44.393 248.153 44.3199C248.647 44.2095 248.917 43.7416 248.954 42.9162C249.044 41.6326 249.086 39.5788 249.086 36.7618V31.7723ZM268.803 36.7466C268.785 38.5547 268.812 39.9459 268.883 40.919C268.956 41.9376 269.122 42.5697 269.38 42.8182C269.595 43.0045 269.944 43.1508 270.426 43.2599C270.905 43.3813 271.663 43.4393 272.705 43.4393C273.442 43.4393 274.082 43.3896 274.626 43.2861C275.153 43.2157 275.582 42.999 275.91 42.6401C276.296 42.1543 276.536 41.5884 276.622 40.9466C276.622 40.6899 276.727 40.5519 276.932 40.5325C277.073 40.5325 277.15 40.6899 277.15 41.0018C277.15 41.2116 277.109 41.6864 277.04 42.4207C276.948 43.155 276.852 43.7636 276.742 44.2495C276.689 44.5531 276.571 44.7519 276.386 44.843C276.159 44.9534 275.703 45.0086 275.015 45.0086C271.482 44.9534 268.822 44.8982 267.038 44.8457C266.116 44.8609 264.966 44.8885 263.583 44.9258C263.22 44.9258 263.033 44.8402 263.033 44.6566C263.014 44.5062 263.158 44.4303 263.46 44.4303C263.886 44.4303 264.218 44.393 264.447 44.3199C264.58 44.2855 264.703 44.2182 264.804 44.1241C264.905 44.0301 264.98 43.9123 265.024 43.7816C265.141 43.5249 265.211 43.1853 265.247 42.763C265.337 41.4656 265.38 39.4629 265.38 36.7493V31.7819C265.38 28.0871 265.365 26.0926 265.334 25.7986C265.318 25.3018 265.232 24.9332 265.079 24.6945C264.92 24.4281 264.612 24.2569 264.158 24.1838C263.859 24.123 263.553 24.0952 263.247 24.101C262.935 24.1203 262.778 24.0347 262.778 23.847C262.778 23.6883 262.985 23.6055 263.38 23.6055C264.913 23.6248 266.171 23.6524 267.141 23.6883C268.183 23.6703 269.423 23.6427 270.858 23.6055C271.242 23.6055 271.432 23.6883 271.432 23.847C271.432 24.0347 271.276 24.1203 270.95 24.101C270.601 24.101 270.245 24.1286 269.879 24.1838C269.527 24.239 269.279 24.3908 269.126 24.6393C268.963 24.8974 268.873 25.2824 268.861 25.7986C268.843 26.1754 268.83 26.751 268.83 27.5212C268.807 28.9413 268.798 30.3616 268.803 31.7819V36.7466Z" fill="white"/>
<path fill-rule="evenodd" clip-rule="evenodd" d="M287.692 37.626C287.692 36.8931 287.641 36.3079 287.534 35.8731C287.43 35.4512 287.272 35.0444 287.064 34.6627C287.027 34.5067 286.809 34.0816 286.407 33.3929C285.933 32.5721 285.446 31.7586 284.947 30.9526C284.072 29.4605 283.171 27.9835 282.245 26.5221C281.527 25.4676 280.892 24.7761 280.343 24.4559C279.991 24.2504 279.597 24.1276 279.19 24.0971C278.938 24.1164 278.807 24.0308 278.789 23.8445C278.807 23.6816 278.976 23.6016 279.313 23.6016C280.254 23.6209 281.404 23.6485 282.764 23.6844C283.065 23.6844 283.484 23.6664 284.021 23.6292C284.53 23.6112 285.084 23.6016 285.692 23.6016C285.963 23.6016 286.094 23.6816 286.094 23.8445C286.094 23.9784 285.893 24.0791 285.491 24.1523C285.238 24.2268 285.117 24.3938 285.117 24.663C285.117 24.8838 285.223 25.2012 285.438 25.6153C285.574 25.8444 285.865 26.3551 286.322 27.1446C286.758 27.9368 287.242 28.8326 287.764 29.836L290.091 34.0692C290.193 33.858 290.442 33.3846 290.843 32.6476C291.227 31.9588 291.654 31.1569 292.128 30.2487C292.837 28.9407 293.533 27.6253 294.214 26.3027C294.462 25.6788 294.589 25.1861 294.589 24.8286C294.587 24.6708 294.55 24.5154 294.482 24.3731C294.411 24.2627 294.258 24.1799 294.018 24.1247C293.702 24.0888 293.536 23.9935 293.518 23.8445C293.518 23.6816 293.674 23.6016 293.99 23.6016C294.852 23.6181 295.713 23.6457 296.574 23.6844C297.589 23.6664 298.564 23.6388 299.503 23.6016C299.812 23.6016 299.978 23.672 300 23.8169C299.978 24.0032 299.804 24.0971 299.475 24.0971C299.144 24.0971 298.745 24.2075 298.27 24.4283C297.787 24.6574 297.295 25.1226 296.785 25.8196C296.224 26.6118 295.308 28.0859 294.046 30.2501C293.514 31.1655 292.997 32.089 292.494 33.0202C292.011 33.8677 291.702 34.4612 291.561 34.8007C291.469 35.0491 291.398 35.281 291.343 35.5046C291.282 35.7517 291.233 35.9877 291.2 36.2085C291.158 36.6847 291.144 37.1581 291.144 37.626V39.9448C291.125 40.5052 291.15 41.4437 291.223 42.7563C291.242 43.1814 291.343 43.521 291.531 43.7777C291.674 44.062 291.948 44.2428 292.349 44.316C292.806 44.3864 293.267 44.4236 293.724 44.4236C294.018 44.4236 294.159 44.4995 294.159 44.6527C294.138 44.8294 293.938 44.9219 293.574 44.9219L289.386 44.8391C288.42 44.857 287.278 44.8846 285.963 44.9219C285.561 44.9219 285.358 44.8294 285.358 44.6527C285.358 44.5023 285.506 44.4264 285.803 44.4264C286.187 44.4264 286.507 44.3891 286.766 44.316C287.037 44.2428 287.245 44.062 287.398 43.7777C287.521 43.521 287.599 43.1814 287.616 42.7591C287.665 41.4479 287.692 40.5107 287.692 39.9517V37.626Z" fill="white"/>
<path fill-rule="evenodd" clip-rule="evenodd" d="M7.28067 68.9647C7.26963 70.806 7.29999 72.1392 7.37038 72.966C7.39523 73.2462 7.45596 73.4725 7.55671 73.6451C7.64367 73.8342 7.81896 73.9529 8.08534 74.0026C8.38899 74.0509 8.69264 74.0716 8.99629 74.0716C9.20332 74.0716 9.30822 74.124 9.30822 74.2262C9.30822 74.3449 9.17434 74.4028 8.90795 74.4028C7.64367 74.3821 6.7203 74.3628 6.1406 74.3504L3.82459 74.4028C3.56925 74.4028 3.44365 74.3449 3.44365 74.2262C3.43122 74.124 3.5168 74.0757 3.70727 74.0757C3.99298 74.0757 4.21105 74.0509 4.36426 74.0026C4.45337 73.9801 4.53534 73.9354 4.60245 73.8727C4.66957 73.8099 4.71963 73.7311 4.74796 73.6437C4.82387 73.4725 4.87218 73.2462 4.8984 72.966C4.95637 72.1392 4.98674 70.806 4.98674 68.9634V65.6605C4.98674 63.2023 4.97431 61.8787 4.95637 61.6813C4.94257 61.3487 4.88736 61.1071 4.78798 60.947C4.68033 60.7703 4.47467 60.6572 4.17378 60.6047C3.93837 60.5665 3.70006 60.5489 3.46159 60.5523C3.25455 60.5523 3.14966 60.5012 3.14966 60.4004C3.14966 60.2804 3.28768 60.2224 3.56925 60.2224C4.44588 60.2303 5.32238 60.2487 6.19857 60.2776C7.94318 60.2776 9.55114 60.2721 11.0266 60.2597C11.3523 60.2459 11.6035 60.2224 11.7747 60.1865C11.8624 60.1326 11.9592 60.0952 12.0604 60.0761C12.1487 60.0885 12.1956 60.1437 12.1956 60.2417C12.1818 60.3383 12.1308 60.6171 12.0424 61.0795C12.0176 61.5654 11.9872 62.0705 11.95 62.5936C11.95 62.7703 11.892 62.8586 11.7719 62.8586C11.6587 62.8586 11.5939 62.7579 11.5814 62.5564V62.2389C11.5699 62.102 11.5339 61.9683 11.4752 61.8442C11.4282 61.7089 11.2999 61.5778 11.0915 61.4494C10.8941 61.3514 10.6181 61.2962 10.2689 61.2838L7.44354 61.2286C7.33588 61.2286 7.28067 61.3142 7.28067 61.4853V66.1877C7.26963 66.3037 7.31241 66.3616 7.40765 66.3616L9.74023 66.3437C10.0508 66.3437 10.3241 66.3368 10.5601 66.3244C10.9065 66.3244 11.1715 66.2112 11.3551 65.9848C11.4255 65.8565 11.5028 65.7916 11.5883 65.7916C11.6574 65.7916 11.6919 65.8509 11.6919 65.9669C11.6819 66.2104 11.6524 66.4527 11.6035 66.6915C11.5939 66.8295 11.5759 66.9758 11.5511 67.129C11.509 67.5829 11.4855 68.0383 11.4807 68.4941C11.4816 68.5708 11.4755 68.6475 11.4627 68.7232C11.4489 68.8088 11.3937 68.8516 11.293 68.8516C11.1991 68.8391 11.1522 68.7508 11.1522 68.5852C11.1522 68.4389 11.1163 68.2484 11.0445 68.0069C10.9934 67.8467 10.8976 67.7045 10.7685 67.5969C10.6902 67.5136 10.5952 67.4477 10.4897 67.4037C10.3667 67.3636 10.2392 67.339 10.1101 67.3305C9.65007 67.2862 9.18789 67.2678 8.72576 67.2753H7.40765C7.32484 67.2753 7.28067 67.3306 7.28067 67.441V68.9647ZM38.8643 73.7362C39.2011 73.7362 39.6041 73.6685 40.0665 73.5347C40.5385 73.3939 41.0078 73.1247 41.4716 72.7272C41.9353 72.3104 42.3177 71.6962 42.6185 70.8819C42.9222 70.0813 43.0795 69.0103 43.092 67.6701C43.0671 65.5418 42.5578 63.8745 41.5599 62.6695C40.5524 61.4701 39.2825 60.8656 37.7533 60.8532C37.2426 60.8532 36.7264 60.9318 36.2046 61.0919C35.6483 61.2832 35.1471 61.6072 34.7444 62.036C34.3055 62.4584 33.9535 63.0519 33.6857 63.8165C33.4069 64.5811 33.2689 65.5542 33.2689 66.7343C33.2689 68.7356 33.7658 70.3864 34.7623 71.6893C35.7354 73.0295 37.1032 73.7113 38.8643 73.7362ZM38.1011 74.6692C35.5118 74.6209 33.6305 73.8066 32.4629 72.2317C31.309 70.7052 30.7376 69.0655 30.7514 67.3126C30.7376 65.597 31.3145 63.9669 32.4767 62.4225C33.636 60.8256 35.567 60.0057 38.2722 59.956C43.0851 60.0609 45.5419 62.4004 45.6426 66.9731C45.6316 69.1676 44.9566 70.9799 43.6164 72.4153C42.2818 73.8797 40.4419 74.6319 38.1011 74.6692ZM65.4709 65.6619C65.4709 63.2037 65.4585 61.8759 65.4378 61.6799C65.4281 61.3487 65.3702 61.1044 65.2694 60.9456C65.1617 60.7676 64.9589 60.6558 64.6552 60.6061C64.4206 60.5651 64.1825 60.5467 63.9444 60.5509C63.7346 60.5633 63.6311 60.5095 63.6311 60.3825C63.6311 60.2762 63.7663 60.2238 64.0327 60.2238C65.1245 60.2362 66.012 60.2541 66.6924 60.2762C67.3397 60.2666 68.0878 60.2486 68.9353 60.2238C69.2017 60.2238 69.3355 60.2762 69.3355 60.3825C69.3355 60.5081 69.2389 60.5633 69.0416 60.5509C68.8704 60.5509 68.6965 60.5688 68.5171 60.6061C68.2838 60.6434 68.1182 60.7441 68.0174 60.9097C67.9098 61.0809 67.8518 61.3376 67.8394 61.6799C67.827 61.9311 67.8214 62.3134 67.8214 62.8255C67.8076 63.3403 67.8021 64.2858 67.8021 65.6619V68.2953C67.8021 69.6231 67.9374 70.6293 68.2051 71.3153C68.4467 72.0302 68.7904 72.563 69.2293 72.9122C69.4473 73.0778 69.6585 73.2089 69.8614 73.3055C70.0684 73.4229 70.2658 73.5043 70.4494 73.554C70.6468 73.6023 70.8331 73.634 71.0111 73.6451C71.1961 73.6699 71.3617 73.6823 71.5108 73.6823C71.9193 73.6823 72.3486 73.6023 72.8027 73.4436C73.254 73.2917 73.6584 73.0336 74.02 72.6734C74.521 72.1475 74.8344 71.4767 74.9558 70.6638C75.0524 69.8633 75.0938 68.9785 75.0814 68.011V65.6619C75.0814 63.2037 75.0704 61.8759 75.0455 61.6799C75.0359 61.3487 74.9765 61.1044 74.8758 60.9456C74.7695 60.7676 74.5666 60.6558 74.2629 60.6061C74.0452 60.5675 73.8243 60.5491 73.6032 60.5509C73.3948 60.5633 73.2899 60.5095 73.2899 60.3825C73.2899 60.2762 73.4196 60.2238 73.6736 60.2238C74.3746 60.2235 75.0755 60.241 75.7757 60.2762C75.904 60.2762 76.1953 60.2666 76.6452 60.2417C77.0731 60.2293 77.4733 60.2238 77.8488 60.2238C78.1041 60.2238 78.2297 60.2762 78.2297 60.3825C78.2297 60.5081 78.1221 60.5633 77.9012 60.5509C77.7356 60.5509 77.5575 60.5688 77.374 60.6061C77.1435 60.6434 76.9778 60.7441 76.8826 60.9097C76.7694 61.0809 76.7073 61.3376 76.6949 61.6799C76.6839 61.9311 76.677 62.3134 76.677 62.8241C76.6646 63.7691 76.6595 64.7141 76.6618 65.6591V67.6659C76.6742 68.7177 76.5817 69.7432 76.3857 70.7466C76.1764 71.7303 75.67 72.6259 74.9351 73.3124C74.2864 73.8631 73.6432 74.2275 73.0028 74.4042C72.3679 74.5822 71.7468 74.6706 71.1436 74.6706C70.6426 74.683 70.0174 74.6181 69.2624 74.4774C68.5116 74.331 67.7856 73.9639 67.0913 73.3801C66.6275 72.9632 66.2438 72.3615 65.9443 71.5747C65.6269 70.8018 65.4709 69.7432 65.4709 68.4057V65.6619ZM99.6149 71.866C99.6384 72.5754 99.7032 73.0875 99.8109 73.4049C99.9186 73.7044 100.062 73.8852 100.246 73.946C100.574 74.044 100.89 74.0867 101.201 74.0743C101.405 74.0743 101.51 74.124 101.51 74.2248C101.492 74.3435 101.35 74.4014 101.083 74.4014C99.9213 74.3807 99.1663 74.3628 98.8227 74.3504C98.1677 74.3736 97.5125 74.3906 96.8572 74.4014C96.5895 74.4152 96.4542 74.3559 96.4542 74.2248C96.4542 74.124 96.5522 74.0743 96.7496 74.0743C97.0187 74.0743 97.292 74.044 97.5708 73.9832C97.8054 73.9225 97.9614 73.7141 98.0442 73.3594C98.1201 73.0102 98.1546 72.4415 98.1408 71.652L98.3009 60.5343C98.2885 60.1244 98.3699 59.9132 98.5439 59.8994C98.6474 59.8994 98.7523 59.9519 98.853 60.0568C98.9607 60.1672 99.078 60.3107 99.2091 60.4874C99.8785 61.252 101.763 63.2589 104.857 66.5107C105.55 67.2229 106.341 68.0552 107.231 69.0034C108.102 69.9668 108.648 70.563 108.869 70.7894H108.958L108.778 62.3479C108.778 61.7848 108.734 61.3818 108.646 61.1264C108.603 61.018 108.537 60.9201 108.452 60.8394C108.368 60.7586 108.267 60.697 108.157 60.6585C107.84 60.5754 107.513 60.5396 107.185 60.5523C106.983 60.5523 106.887 60.4943 106.9 60.3811C106.9 60.3107 106.949 60.2638 107.043 60.2403C107.14 60.2265 107.246 60.221 107.372 60.221C108.393 60.2348 109.126 60.2528 109.577 60.2762C109.685 60.2762 109.896 60.2638 110.21 60.2403C110.531 60.2265 110.912 60.221 111.356 60.221C111.624 60.21 111.765 60.2624 111.777 60.3811C111.777 60.4943 111.67 60.5523 111.454 60.5523C111.293 60.5523 111.109 60.5702 110.9 60.6033C110.782 60.6256 110.673 60.6792 110.583 60.7584C110.494 60.8376 110.427 60.9394 110.39 61.0533C110.29 61.2921 110.232 61.6744 110.222 62.2003L110.026 74.0564C110.026 74.4387 109.943 74.6319 109.783 74.6319C109.688 74.6319 109.593 74.5795 109.501 74.476C109.385 74.3997 109.274 74.3148 109.17 74.222C107.371 72.3915 105.58 70.5521 103.798 68.7039C101.528 66.2816 100.084 64.7054 99.4603 63.9711H99.4051L99.6149 71.866ZM134.795 67.7294C134.795 69.8094 134.806 71.0723 134.831 71.5251C134.841 71.7638 134.866 72.0275 134.902 72.3145C134.916 72.614 134.954 72.8252 135.026 72.9481C135.15 73.1247 135.406 73.2904 135.792 73.4436C136.172 73.6147 136.715 73.7003 137.421 73.7003C139.209 73.7251 140.609 73.2752 141.617 72.3518C142.185 71.8135 142.587 71.1372 142.82 70.3229C143.046 69.4584 143.156 68.5677 143.147 67.6742C143.136 66.4693 142.946 65.4811 142.577 64.704C142.425 64.3437 142.237 63.9996 142.015 63.6771C141.81 63.4011 141.601 63.1692 141.394 62.9787C140.544 62.1782 139.651 61.6578 138.713 61.4218C137.774 61.1955 136.946 61.0892 136.218 61.1016C136.025 61.1016 135.804 61.1071 135.561 61.1195C135.379 61.1386 135.198 61.1785 135.025 61.2382C134.873 61.3004 134.801 61.426 134.813 61.615C134.801 62.4377 134.795 63.6881 134.795 65.3651V67.7294ZM132.518 65.6619C132.518 63.2023 132.507 61.8745 132.488 61.6785C132.475 61.3487 132.419 61.1044 132.319 60.9456C132.212 60.7676 132.006 60.6544 131.702 60.6061C131.468 60.565 131.23 60.5465 130.992 60.5509C130.783 60.5633 130.681 60.504 130.681 60.3825C130.681 60.2748 130.813 60.2196 131.081 60.2196C132.185 60.2334 133.059 60.2514 133.706 60.2748L136.51 60.2196C137.773 60.2001 139.035 60.2892 140.283 60.486C141.617 60.7069 142.798 61.3307 143.826 62.3548C144.296 62.8324 144.71 63.4659 145.064 64.2513C145.402 65.0408 145.578 65.9986 145.589 67.1304C145.578 68.3008 145.382 69.3319 144.995 70.2166C144.602 71.0972 144.14 71.8094 143.605 72.3601C143.408 72.574 143.136 72.8073 142.786 73.0571C142.382 73.3404 141.953 73.5853 141.503 73.7886C140.525 74.2855 139.19 74.5477 137.501 74.5781C136.799 74.5646 136.098 74.5246 135.399 74.458C134.807 74.3944 134.213 74.3589 133.618 74.3518C133.007 74.3642 132.239 74.3794 131.323 74.4042C131.077 74.4042 130.957 74.3421 130.957 74.2262C130.945 74.1254 131.037 74.0743 131.24 74.0743C131.524 74.0743 131.742 74.0495 131.896 73.9998C131.984 73.9769 132.066 73.9321 132.133 73.8693C132.2 73.8066 132.251 73.7281 132.279 73.6409C132.357 73.4712 132.405 73.2448 132.431 72.9632C132.488 72.1034 132.519 70.7673 132.519 68.9647L132.518 65.6619ZM170.945 68.5783C171.028 68.5783 171.058 68.541 171.033 68.4679L169.387 63.8303C169.377 63.7351 169.347 63.6799 169.297 63.6688C169.251 63.6799 169.214 63.7351 169.193 63.8303L167.518 68.4485C167.487 68.5341 167.512 68.5783 167.592 68.5783H170.945ZM167.227 69.5099C167.138 69.5099 167.08 69.5596 167.055 69.6576L166.075 72.349C165.893 72.8501 165.799 73.2324 165.799 73.496C165.799 73.6547 165.855 73.7859 165.964 73.8908C166.074 74.0136 166.263 74.0743 166.53 74.0743H166.806C166.997 74.0743 167.086 74.1268 167.073 74.2262C167.073 74.3435 166.973 74.4056 166.772 74.4056C166.126 74.3814 165.479 74.363 164.832 74.3504C164.494 74.3614 163.779 74.3807 162.687 74.4056C162.457 74.4056 162.341 74.3435 162.341 74.2262C162.341 74.1226 162.414 74.0743 162.564 74.0743C162.755 74.0743 162.941 74.0619 163.123 74.0371C163.54 73.9763 163.862 73.7955 164.095 73.496C164.229 73.338 164.336 73.1595 164.414 72.9674C164.503 72.7838 164.589 72.5782 164.672 72.3518L169.246 60.5702C169.442 60.0595 169.61 59.8083 169.751 59.8208C169.903 59.8208 170.055 60.0195 170.215 60.4142C171.708 64.2661 173.213 68.1137 174.728 71.9571C175.083 72.7714 175.393 73.3097 175.66 73.5692C175.926 73.8204 176.154 73.9639 176.337 74.0012C176.616 74.0495 176.872 74.0743 177.101 74.0743C177.258 74.0743 177.335 74.1268 177.335 74.2262C177.335 74.2979 177.286 74.3366 177.19 74.3504C177.068 74.3863 176.834 74.4056 176.498 74.4056C175.755 74.4056 174.607 74.3918 173.052 74.3683C172.702 74.3683 172.521 74.3214 172.509 74.2248C172.509 74.1268 172.591 74.0674 172.761 74.0564C172.932 74.0067 172.988 73.8632 172.93 73.6244L171.469 69.6397C171.457 69.6004 171.431 69.5664 171.397 69.543C171.364 69.5195 171.323 69.5079 171.282 69.5099H167.227ZM196.9 61.2658L194.18 61.339C193.788 61.3392 193.398 61.3762 193.013 61.4494C192.767 61.518 192.552 61.6703 192.406 61.88C192.24 62.1671 192.14 62.3852 192.102 62.5384C192.079 62.6847 192.011 62.7592 191.897 62.7592C191.778 62.7592 191.726 62.6599 191.738 62.468C191.738 62.3755 191.763 62.2251 191.808 62.0181C191.846 61.8069 191.882 61.5736 191.919 61.3266C192.035 60.7786 192.102 60.4391 192.127 60.3135C192.177 60.0761 192.247 59.956 192.342 59.956C192.418 59.956 192.516 59.9891 192.636 60.0568C192.789 60.1309 192.954 60.1745 193.124 60.1851C193.701 60.2472 194.308 60.2776 194.95 60.2776H202.168C203.259 60.2403 203.845 60.1796 203.921 60.094C204.018 60.094 204.066 60.2252 204.066 60.4846C204.054 61.1554 204.036 61.8773 204.011 62.6516C203.998 62.8531 203.943 62.9539 203.843 62.9539C203.71 62.9663 203.642 62.8407 203.642 62.5771L203.629 62.3659C203.629 62.1036 203.468 61.869 203.155 61.6592C202.834 61.4577 202.275 61.3445 201.474 61.3197L199.176 61.2645V68.9647C199.165 70.7687 199.195 72.1116 199.266 72.9922C199.296 73.2545 199.358 73.4725 199.452 73.6437C199.535 73.8342 199.714 73.9529 199.981 74.0026C200.28 74.0481 200.593 74.0716 200.916 74.0716C201.112 74.0716 201.21 74.124 201.21 74.2248C201.193 74.3449 201.075 74.4028 200.861 74.4028C199.557 74.3807 198.603 74.3628 197.996 74.3504L195.701 74.4028C195.456 74.4028 195.336 74.3449 195.336 74.2248C195.324 74.124 195.422 74.0757 195.627 74.0757C195.85 74.0827 196.072 74.0581 196.287 74.0026C196.377 73.9769 196.459 73.9313 196.528 73.8691C196.597 73.8069 196.651 73.7298 196.686 73.6437C196.759 73.4725 196.799 73.2462 196.81 72.9646C196.87 72.1061 196.9 70.7714 196.9 68.9703V61.2658ZM254.439 73.7362C254.773 73.7362 255.179 73.6685 255.641 73.5347C256.114 73.3939 256.584 73.1247 257.046 72.7272C257.51 72.3104 257.893 71.6962 258.194 70.8819C258.498 70.0813 258.654 69.0103 258.666 67.6701C258.642 65.5418 258.132 63.8745 257.134 62.6695C256.127 61.4701 254.857 60.8656 253.329 60.8532C252.817 60.8532 252.301 60.9318 251.779 61.0919C251.223 61.2832 250.722 61.6072 250.319 62.036C249.881 62.4584 249.525 63.0519 249.262 63.8165C248.981 64.5811 248.843 65.5542 248.843 66.7343C248.843 68.7356 249.34 70.3864 250.338 71.6893C251.307 73.0295 252.678 73.7113 254.439 73.7362ZM253.676 74.6692C251.086 74.6209 249.206 73.8066 248.037 72.2317C246.883 70.7052 246.316 69.0655 246.326 67.3126C246.316 65.597 246.89 63.9669 248.052 62.4225C249.212 60.8256 251.141 60.0057 253.847 59.956C258.66 60.0609 261.118 62.4004 261.217 66.9731C261.206 69.1676 260.527 70.9799 259.191 72.4153C257.852 73.8797 256.016 74.6319 253.676 74.6692ZM282.921 71.866C282.949 72.5754 283.011 73.0875 283.118 73.4049C283.229 73.7044 283.37 73.8852 283.553 73.946C283.882 74.044 284.198 74.0867 284.511 74.0743C284.713 74.0743 284.818 74.124 284.818 74.2248C284.8 74.3435 284.657 74.4014 284.391 74.4014C283.232 74.3807 282.474 74.3628 282.13 74.3504C281.864 74.3628 281.207 74.3807 280.168 74.4014C279.9 74.4152 279.766 74.3559 279.766 74.2248C279.766 74.124 279.86 74.0743 280.056 74.0743C280.326 74.0743 280.6 74.044 280.878 73.9832C281.113 73.9225 281.269 73.7141 281.352 73.3594C281.43 73.0102 281.462 72.4415 281.453 71.652L281.608 60.5343C281.596 60.1244 281.679 59.9132 281.851 59.8994C281.959 59.8994 282.063 59.9519 282.161 60.0568C282.268 60.1672 282.386 60.3107 282.517 60.4874C283.186 61.252 285.07 63.2589 288.165 66.5107C288.86 67.2229 289.648 68.0552 290.539 69.0034C291.412 69.9668 291.956 70.563 292.18 70.7894H292.265L292.087 62.3479C292.087 61.7848 292.046 61.3818 291.952 61.1264C291.909 61.0178 291.843 60.9197 291.758 60.8389C291.673 60.7582 291.572 60.6966 291.462 60.6585C291.147 60.5751 290.821 60.5393 290.496 60.5523C290.289 60.5523 290.195 60.4943 290.206 60.3811C290.206 60.3107 290.26 60.2638 290.351 60.2403C290.447 60.2265 290.558 60.221 290.679 60.221C291.701 60.2348 292.438 60.2528 292.885 60.2762C292.993 60.2762 293.207 60.2638 293.517 60.2403C293.843 60.2265 294.222 60.221 294.664 60.221C294.93 60.21 295.073 60.2624 295.085 60.3811C295.085 60.4943 294.98 60.5523 294.762 60.5523C294.603 60.5523 294.417 60.5702 294.21 60.6033C294.092 60.6251 293.983 60.6784 293.893 60.7577C293.803 60.837 293.737 60.9391 293.701 61.0533C293.597 61.2921 293.538 61.6744 293.529 62.2003L293.336 74.0564C293.336 74.4387 293.251 74.6319 293.091 74.6319C292.995 74.6319 292.9 74.5795 292.812 74.476C292.694 74.3997 292.583 74.3148 292.478 74.222C290.678 72.3915 288.887 70.5521 287.106 68.7039C284.835 66.2816 283.39 64.7054 282.768 63.9711H282.717L282.921 71.866ZM223.812 65.626C223.812 63.1761 223.802 61.8552 223.781 61.6592C223.756 61.0326 223.551 60.6834 223.159 60.6102C222.943 60.5605 222.723 60.536 222.502 60.5371C222.311 60.5495 222.216 60.4874 222.216 60.3508C222.216 60.2541 222.364 60.2058 222.652 60.2058C223.44 60.2154 224.227 60.2347 225.014 60.2638C225.631 60.2528 226.371 60.2334 227.236 60.2058C227.477 60.2058 227.606 60.2555 227.616 60.3508C227.616 60.4888 227.518 60.5495 227.322 60.5371C227.139 60.5393 226.957 60.5578 226.778 60.5923C226.544 60.6282 226.379 60.7303 226.278 60.8918C226.17 61.063 226.112 61.3197 226.1 61.662C226.088 61.9132 226.082 62.2927 226.082 62.8076C226.068 63.3196 226.063 64.2623 226.063 65.6356V68.9302C226.049 70.8018 226.077 72.1724 226.137 73.0378C226.17 73.289 226.238 73.4877 226.333 73.634C226.422 73.8121 226.6 73.9184 226.867 73.9556C227.171 74.0012 227.477 74.0246 227.792 74.0246C227.99 74.0246 228.088 74.0785 228.088 74.1765C228.075 74.2952 227.959 74.3559 227.741 74.3559C226.441 74.3324 225.502 74.3145 224.906 74.3007L222.618 74.3559C222.376 74.3559 222.253 74.2952 222.253 74.1792C222.241 74.0785 222.336 74.0288 222.535 74.0288C222.821 74.0288 223.039 74.0012 223.192 73.9556C223.523 73.8825 223.698 73.5692 223.723 73.0226C223.781 72.1696 223.812 70.8087 223.812 68.9371V65.626Z" fill="white"/>
</svg>
