<svg width="253" height="103" viewBox="0 0 253 103" fill="none" xmlns="http://www.w3.org/2000/svg">
<g clip-path="url(#clip0_34064_133202)">
<g clip-path="url(#clip1_34064_133202)">
<g clip-path="url(#clip2_34064_133202)">
<path fill-rule="evenodd" clip-rule="evenodd" d="M11.3672 83.1555H84.2086V77.0859H11.3683L11.3672 83.1555Z" fill="white"/>
<path fill-rule="evenodd" clip-rule="evenodd" d="M90.2812 83.1555H163.122V77.0859H90.2812V83.1555Z" fill="white"/>
<path fill-rule="evenodd" clip-rule="evenodd" d="M168.431 83.1555H241.272V77.0859H168.43L168.431 83.1555Z" fill="white"/>
<path fill-rule="evenodd" clip-rule="evenodd" d="M10.369 20.7656C10.1189 19.9314 9.85026 19.4039 9.55988 19.1799C9.25211 19.0494 8.96173 18.9842 8.6844 18.9842C8.46471 18.9994 8.34726 18.9308 8.33203 18.7851C8.34726 18.6568 8.50604 18.5938 8.81164 18.5938C10.12 18.609 10.965 18.6296 11.35 18.659C11.4642 18.659 11.7415 18.6448 12.1831 18.6155C12.6018 18.6013 13.1314 18.5938 13.772 18.5938C14.0776 18.5938 14.2288 18.6568 14.2288 18.784C14.2179 18.9308 14.0852 18.9994 13.8362 18.9842C13.6502 18.9842 13.4697 19.0135 13.2913 19.0712C13.1151 19.1582 13.0314 19.3191 13.0466 19.5606C13.0466 19.6182 13.0705 19.7074 13.1227 19.8303C13.1336 19.963 13.1641 20.1174 13.2054 20.2979C13.2913 20.6524 13.4011 21.0886 13.5382 21.6019C14.455 24.87 15.387 28.0251 16.3332 31.0691H16.3963L20.6302 19.4811C20.765 19.1701 20.8673 18.9526 20.9379 18.8297C21.0249 18.7286 21.1021 18.6774 21.1728 18.6774C21.2957 18.6774 21.4056 18.7601 21.5035 18.9287C21.5883 19.1027 21.6916 19.3648 21.8134 19.7193L26.3562 30.9049H26.4214C27.3658 27.5766 28.3326 24.2548 29.3219 20.9396C29.4079 20.6721 29.4742 20.4262 29.5253 20.2011C29.5394 19.9825 29.547 19.7988 29.547 19.6465C29.548 19.5554 29.5304 19.4651 29.4955 19.3809C29.4605 19.2968 29.4089 19.2206 29.3436 19.1571C29.2023 19.0418 28.9162 18.9842 28.491 18.9842C28.2409 18.9842 28.1169 18.9167 28.1169 18.784C28.1169 18.6568 28.2876 18.5938 28.628 18.5938C29.8679 18.609 30.6226 18.6296 30.901 18.659C31.0142 18.659 31.2534 18.6448 31.6156 18.6155C31.9647 18.6013 32.329 18.5938 32.714 18.5938C32.9555 18.5938 33.0827 18.6492 33.0968 18.7623C33.0968 18.9102 32.999 18.9842 32.7988 18.9842C32.5487 18.9842 32.2953 19.02 32.031 19.0929C31.7809 19.1799 31.5786 19.4322 31.4219 19.852C31.2008 20.378 30.9945 20.91 30.8032 21.4475C29.2986 25.8362 27.8448 30.2422 26.4421 34.6645C26.3333 35.0343 26.2387 35.2964 26.1538 35.4553C26.0701 35.6238 25.9527 35.7054 25.8014 35.7054C25.7036 35.7054 25.6112 35.6238 25.5253 35.4553C25.4165 35.2845 25.2882 35.0028 25.1315 34.6091L20.5856 23.4725H20.5453C19.3925 26.7069 17.9732 30.3894 16.2886 34.5221C16.1583 34.8332 16.012 35.1374 15.8503 35.4335C15.7459 35.6151 15.6285 35.7054 15.499 35.7054C15.3076 35.7054 15.1412 35.4367 14.9977 34.8941L10.369 20.7656Z" fill="white"/>
<path fill-rule="evenodd" clip-rule="evenodd" d="M44.1622 28.5064C44.2634 28.5064 44.2993 28.4629 44.271 28.376L42.296 22.887C42.2818 22.7718 42.2471 22.7065 42.1883 22.6913C42.1328 22.7065 42.0883 22.7718 42.061 22.887L40.0567 28.3553C40.0197 28.4564 40.049 28.5075 40.1426 28.5075H44.1612L44.1622 28.5064ZM39.7054 29.6103C39.601 29.6103 39.5314 29.668 39.5032 29.7865L38.3319 32.9731C38.1122 33.568 38.0012 34.0214 38.0012 34.3325C38.0012 34.5196 38.0654 34.6762 38.1926 34.8002C38.3264 34.9437 38.557 35.0188 38.8745 35.0188H39.204C39.4346 35.0188 39.539 35.0764 39.5249 35.1971C39.5249 35.3374 39.4052 35.407 39.1628 35.407C38.3731 35.3777 37.5977 35.3592 36.8408 35.3439C36.4341 35.3592 35.5792 35.3777 34.2709 35.407C33.9925 35.407 33.8555 35.3374 33.8555 35.1971C33.8555 35.0775 33.9425 35.0165 34.1219 35.0165C34.3492 35.0165 34.571 35.0024 34.7918 34.9731C35.2899 34.9002 35.676 34.6881 35.9555 34.3347C36.1089 34.153 36.2383 33.941 36.3394 33.705C36.4438 33.4874 36.546 33.245 36.6472 32.9774L42.1263 19.0219C42.3612 18.415 42.5635 18.1192 42.7354 18.1333C42.9104 18.1333 43.0964 18.3672 43.2878 18.8369C45.0768 23.3996 46.8785 27.9572 48.693 32.5097C49.1215 33.4711 49.4923 34.1106 49.8132 34.4206C50.1329 34.7175 50.4027 34.8861 50.6223 34.9296C50.9573 34.9872 51.2629 35.0188 51.5391 35.0188C51.724 35.0188 51.8175 35.0764 51.8175 35.1971C51.8175 35.2819 51.7588 35.3298 51.6468 35.3439C51.4978 35.3874 51.2183 35.4092 50.8148 35.4092C49.9252 35.4092 48.5516 35.3929 46.6886 35.3657C46.2699 35.3657 46.0524 35.308 46.0382 35.1971C46.0382 35.0775 46.1383 35.009 46.3362 34.9948C46.544 34.9372 46.6103 34.7686 46.5396 34.4837L44.7908 29.7637C44.7495 29.6614 44.6733 29.6103 44.5689 29.6103H39.7054Z" fill="white"/>
<path fill-rule="evenodd" clip-rule="evenodd" d="M58.8314 28.9497C58.8172 30.3744 58.8389 31.4706 58.8944 32.2374C58.9488 33.04 59.0826 33.5381 59.2848 33.7339C59.4535 33.8807 59.7275 33.9959 60.106 34.0818C60.479 34.1776 61.0739 34.2233 61.895 34.2233C62.4714 34.2233 62.9738 34.1841 63.4034 34.1026C63.8167 34.0471 64.1539 33.8763 64.4127 33.5935C64.7161 33.2107 64.9021 32.7648 64.9706 32.2591C64.9706 32.0569 65.0532 31.948 65.2142 31.9328C65.3252 31.9328 65.3828 32.0569 65.3828 32.3026C65.3828 32.4679 65.3545 32.8421 65.2958 33.4207C65.2262 33.9992 65.1522 34.4788 65.0652 34.8617C65.0239 35.1009 64.9304 35.2575 64.7825 35.3293C64.6073 35.4163 64.2485 35.4598 63.7091 35.4598C61.6207 35.4302 59.5325 35.3874 57.4447 35.3315C56.7214 35.3434 55.8188 35.3652 54.7323 35.3946C54.4452 35.3946 54.3006 35.3271 54.3006 35.1825C54.2864 35.0639 54.3996 35.0041 54.6356 35.0041C54.9705 35.0041 55.2283 34.9747 55.411 34.9172C55.5159 34.8903 55.6123 34.8373 55.6912 34.7631C55.7701 34.689 55.829 34.596 55.8623 34.493C55.964 34.2367 56.0238 33.9656 56.0395 33.6904C56.1102 32.6681 56.1439 31.09 56.1439 28.9518V25.0377C56.1439 22.1263 56.1321 20.5548 56.107 20.3231C56.0961 19.9316 56.0276 19.6412 55.908 19.4531C55.7818 19.2433 55.5415 19.1084 55.1826 19.0508C54.9479 19.0028 54.7086 18.9809 54.4691 18.9855C54.2244 19.0007 54.1016 18.9333 54.1016 18.7854C54.1016 18.6603 54.2603 18.5951 54.5735 18.5951C55.7775 18.6103 56.7628 18.632 57.5241 18.6603C58.3431 18.6461 59.3186 18.6244 60.4431 18.5951C60.7465 18.5951 60.8955 18.6603 60.8955 18.7854C60.8955 18.9333 60.7683 19.0007 60.5149 18.9855C60.243 18.9855 59.9602 19.0073 59.6742 19.0508C59.4001 19.0943 59.2022 19.2139 59.0848 19.4096C58.9564 19.613 58.8868 19.9164 58.8726 20.3231C58.8607 20.6201 58.8531 21.0736 58.8531 21.6804C58.8389 22.2895 58.8314 23.4086 58.8314 25.0377V28.9497ZM73.7353 19.8337L70.5237 19.9207C69.9223 19.9349 69.4622 19.9784 69.1468 20.0513C68.8314 20.1514 68.59 20.3231 68.4312 20.5591C68.2333 20.9017 68.1158 21.1617 68.0723 21.3422C68.043 21.5162 67.9635 21.6033 67.8287 21.6033C67.6895 21.6033 67.6264 21.4869 67.6406 21.2552C67.6406 21.1465 67.67 20.9713 67.7254 20.7256C67.7689 20.4755 67.8124 20.2003 67.8559 19.9055C67.9907 19.2574 68.0723 18.8572 68.1006 18.7059C68.1594 18.4232 68.2409 18.2818 68.354 18.2818C68.4454 18.2818 68.5607 18.3221 68.7009 18.4015C68.826 18.4743 69.0185 18.5243 69.2784 18.5537C69.9581 18.6255 70.6759 18.6624 71.4317 18.6624H79.9539C81.2405 18.619 81.931 18.5461 82.0225 18.445C82.1334 18.445 82.191 18.5994 82.191 18.9104C82.1769 19.7044 82.1551 20.5591 82.129 21.4749C82.1138 21.7141 82.0463 21.8316 81.9267 21.8316C81.7723 21.8479 81.6929 21.6989 81.6929 21.3879L81.6733 21.1377C81.6733 20.8267 81.4885 20.5472 81.1176 20.3003C80.7391 20.0622 80.0767 19.9273 79.1328 19.898L76.4226 19.8326V28.9507C76.4085 31.0889 76.4421 32.68 76.5259 33.723C76.5629 34.034 76.6346 34.2917 76.7478 34.4951C76.8468 34.7192 77.0534 34.8606 77.3699 34.9193C77.7348 34.9755 78.1035 35.0035 78.4726 35.003C78.7032 35.003 78.8196 35.0639 78.8196 35.1836C78.8 35.3239 78.663 35.3957 78.4096 35.3957C76.8685 35.3674 75.7407 35.3456 75.0273 35.3304C74.3128 35.3456 73.4101 35.3674 72.3192 35.3957C72.03 35.3957 71.8875 35.3239 71.8875 35.1836C71.8733 35.0661 71.9886 35.0052 72.2344 35.0052C72.5618 35.0052 72.8217 34.977 73.0099 34.9182C73.1155 34.8879 73.2129 34.8339 73.2946 34.7605C73.3764 34.687 73.4404 34.5959 73.4819 34.494C73.5666 34.2917 73.6145 34.0242 73.6287 33.6925C73.6982 32.6724 73.7353 31.0965 73.7353 28.9616V19.8337ZM96.2821 34.6028C96.6824 34.6028 97.1544 34.5234 97.702 34.3635C98.2599 34.1982 98.8146 33.8774 99.3607 33.4076C99.9052 32.9138 100.357 32.1885 100.714 31.2238C101.071 30.2743 101.256 29.0062 101.271 27.4184C101.244 24.8974 100.643 22.9235 99.4647 21.4989C98.2749 20.0774 96.7762 19.3585 94.9702 19.3443C94.3674 19.3443 93.7583 19.4379 93.1429 19.6271C92.5133 19.836 91.9373 20.209 91.4196 20.7473C90.9027 21.2455 90.4843 21.9501 90.1691 22.8539C89.8429 23.7598 89.6759 24.9116 89.6759 26.3102C89.6759 28.6789 90.2629 30.6365 91.4417 32.1787C92.5905 33.7665 94.2043 34.5734 96.2821 34.6028ZM95.3799 35.7099C92.325 35.6512 90.1077 34.6898 88.724 32.8224C87.3656 31.0138 86.6913 29.0715 86.7087 26.9931C86.6913 24.9627 87.3735 23.0323 88.7461 21.1998C90.1116 19.3128 92.3904 18.3395 95.584 18.284C101.266 18.4036 104.165 21.1769 104.285 26.594C104.27 29.1933 103.472 31.3401 101.89 33.0389C100.315 34.7768 98.1441 35.6664 95.3799 35.7099ZM113.029 32.3907C113.055 33.2292 113.134 33.8372 113.26 34.2124C113.386 34.5691 113.558 34.7812 113.775 34.854C114.161 34.9693 114.534 35.0205 114.898 35.0063C115.143 35.0063 115.266 35.0661 115.266 35.1836C115.247 35.3239 115.079 35.3957 114.764 35.3957C113.873 35.3788 112.984 35.3571 112.095 35.3304C111.779 35.3456 111.006 35.3674 109.773 35.3957C109.459 35.4109 109.301 35.3412 109.301 35.1836C109.301 35.0661 109.416 35.0052 109.647 35.0052C109.965 35.0052 110.285 34.9693 110.615 34.8964C110.889 34.8246 111.075 34.5789 111.175 34.1569C111.266 33.7447 111.305 33.0694 111.29 32.1373L111.48 18.9659C111.466 18.4819 111.559 18.2307 111.764 18.2188C111.889 18.2188 112.012 18.2786 112.13 18.4015C112.258 18.532 112.398 18.7027 112.551 18.9126C113.342 19.8163 115.563 22.196 119.216 26.0448C120.035 26.8909 120.97 27.8763 122.019 28.9975C122.654 29.7124 123.299 30.4186 123.952 31.1161H124.055L123.846 21.1182C123.846 20.4504 123.792 19.9686 123.687 19.6717C123.562 19.39 123.369 19.2041 123.111 19.1171C122.737 19.0171 122.351 18.9731 121.964 18.9865C121.726 18.9865 121.616 18.9202 121.63 18.7876C121.63 18.7027 121.684 18.6461 121.795 18.619C121.909 18.6048 122.039 18.5972 122.187 18.5972C123.391 18.6114 124.258 18.6331 124.79 18.6624C124.915 18.6624 125.164 18.6472 125.534 18.619C125.912 18.6048 126.366 18.5972 126.89 18.5972C127.203 18.5831 127.369 18.645 127.381 18.7876C127.381 18.9202 127.256 18.9876 127.004 18.9876C126.814 18.9876 126.594 19.0094 126.348 19.0529C126.21 19.0799 126.081 19.1436 125.976 19.2373C125.87 19.3311 125.792 19.4514 125.749 19.5858C125.628 19.8675 125.56 20.3199 125.547 20.942L125.315 34.9834C125.315 35.4402 125.221 35.6664 125.032 35.6664C124.92 35.6664 124.807 35.6055 124.695 35.4827C124.558 35.3916 124.428 35.2894 124.307 35.177C122.182 33.011 120.069 30.8329 117.968 28.643C115.288 25.7773 113.583 23.9088 112.846 23.0421H112.78L113.029 32.3907Z" fill="white"/>
<path fill-rule="evenodd" clip-rule="evenodd" d="M147.315 28.9566C147.301 31.1371 147.334 32.7162 147.42 33.695C147.449 34.0278 147.52 34.2975 147.64 34.4999C147.736 34.7239 147.942 34.8663 148.258 34.9239C148.612 34.9794 148.969 35.0088 149.325 35.0088C149.568 35.0088 149.691 35.0686 149.691 35.1893C149.691 35.3286 149.536 35.3992 149.222 35.3992C148.14 35.38 147.057 35.359 145.975 35.3362C145.202 35.3503 144.301 35.3721 143.261 35.3992C142.962 35.3992 142.814 35.3286 142.814 35.1893C142.8 35.0686 142.902 35.011 143.125 35.011C143.458 35.011 143.713 34.9816 143.895 34.9239C143.999 34.8968 144.095 34.8437 144.173 34.7695C144.252 34.6954 144.31 34.6026 144.343 34.4999C144.431 34.2975 144.491 34.03 144.52 33.695C144.59 32.7162 144.622 31.1371 144.622 28.9566V25.0446C144.622 22.1332 144.611 20.5595 144.587 20.3279C144.576 19.9375 144.508 19.6481 144.388 19.4578C144.264 19.2479 144.024 19.1152 143.667 19.0576C143.392 19.0082 143.113 18.9856 142.832 18.9902C142.591 18.9902 142.469 18.9325 142.469 18.8118C142.469 18.6726 142.632 18.6019 142.96 18.6019C144.23 18.6172 145.26 18.6389 146.047 18.6672C148.091 18.6672 149.976 18.6607 151.706 18.6454C152.088 18.6313 152.38 18.6019 152.585 18.5584C152.687 18.4948 152.8 18.4505 152.919 18.4279C153.025 18.4431 153.075 18.5083 153.075 18.6236C153.063 18.7368 153.003 19.0695 152.895 19.6166C152.869 20.193 152.834 20.7911 152.79 21.4121C152.79 21.622 152.72 21.7253 152.58 21.7253C152.447 21.7253 152.373 21.6057 152.359 21.3686V20.988C152.345 20.8258 152.302 20.6675 152.232 20.5204C152.178 20.3615 152.027 20.2072 151.783 20.056C151.55 19.9396 151.23 19.8743 150.818 19.8602L147.505 19.795C147.377 19.795 147.315 19.8961 147.315 20.0995V25.6656C147.301 25.8026 147.348 25.8722 147.461 25.8722L150.199 25.8505C150.563 25.8505 150.883 25.844 151.161 25.8287C151.565 25.8287 151.876 25.6939 152.091 25.4264C152.176 25.2741 152.265 25.1979 152.364 25.1979C152.447 25.1979 152.488 25.2675 152.488 25.4046C152.488 25.4633 152.474 25.6178 152.447 25.8701C152.433 25.9712 152.411 26.1017 152.383 26.2616C152.373 26.4269 152.351 26.6009 152.321 26.7814C152.267 27.4612 152.239 28.0006 152.239 28.3986C152.239 28.4998 152.232 28.5911 152.218 28.6706C152.204 28.7717 152.136 28.8228 152.02 28.8228C151.909 28.8086 151.853 28.7032 151.853 28.5074C151.853 28.3334 151.811 28.105 151.727 27.8222C151.684 27.6558 151.578 27.4948 151.404 27.3361C151.313 27.2379 151.202 27.1601 151.078 27.1077C150.932 27.0601 150.782 27.031 150.629 27.0207C150.288 26.9772 149.748 26.9554 149.009 26.9554H147.461C147.363 26.9554 147.315 27.0207 147.315 27.1501V28.9555V28.9566ZM165.442 28.4987C165.539 28.4987 165.576 28.4552 165.547 28.3682L163.615 22.8782C163.601 22.7629 163.568 22.6977 163.51 22.6824C163.455 22.6977 163.414 22.7629 163.386 22.8782L161.423 28.3465C161.387 28.4487 161.417 28.4987 161.507 28.4987H165.442ZM161.08 29.6026C160.976 29.6026 160.909 29.6602 160.883 29.7787L159.734 32.9653C159.519 33.5602 159.411 34.0137 159.411 34.3247C159.408 34.4114 159.423 34.4976 159.456 34.578C159.488 34.6585 159.537 34.7314 159.598 34.7924C159.728 34.9359 159.954 35.0088 160.265 35.0088H160.588C160.813 35.0088 160.916 35.0686 160.902 35.1893C160.902 35.3297 160.785 35.3992 160.548 35.3992C159.775 35.3699 159.018 35.3514 158.274 35.3362C157.876 35.3514 157.039 35.3699 155.759 35.3992C155.487 35.3992 155.352 35.3297 155.352 35.1893C155.352 35.0697 155.439 35.0088 155.613 35.0088C155.836 35.0088 156.054 34.9947 156.269 34.9653C156.758 34.8924 157.135 34.6804 157.408 34.3269C157.561 34.1453 157.685 33.9332 157.784 33.6973C157.886 33.4797 157.988 33.2372 158.085 32.9697L163.447 19.0152C163.677 18.4073 163.877 18.1103 164.044 18.1256C164.216 18.1256 164.398 18.3594 164.584 18.8292C165.922 22.317 167.684 26.8739 169.875 32.502C170.294 33.4634 170.659 34.1029 170.972 34.4128C171.285 34.7097 171.548 34.8783 171.763 34.9218C172.092 34.9794 172.391 35.0088 172.661 35.0088C172.842 35.0088 172.934 35.0686 172.934 35.1893C172.934 35.2742 172.876 35.322 172.767 35.3362C172.621 35.3797 172.35 35.4014 171.953 35.4014C171.082 35.4014 169.736 35.3851 167.913 35.358C167.504 35.358 167.292 35.3003 167.279 35.1893C167.279 35.0697 167.375 35.0012 167.568 34.9871C167.772 34.9294 167.836 34.7608 167.768 34.4759L166.056 29.7559C166.016 29.6537 165.942 29.6026 165.839 29.6026H161.08Z" fill="white"/>
<path fill-rule="evenodd" clip-rule="evenodd" d="M179.886 18.7014C179.954 18.3175 180.071 18.125 180.24 18.125C180.34 18.1271 180.435 18.1659 180.507 18.2337C180.592 18.3349 180.7 18.5274 180.833 18.8101L186.724 31.3421L192.596 18.6579C192.737 18.3034 192.896 18.125 193.071 18.125C193.274 18.125 193.408 18.3533 193.46 18.8101L195.423 32.5471C195.553 33.8924 195.908 34.6418 196.474 34.794C197.093 34.9528 197.542 35.0246 197.816 35.0115C198.033 35.0115 198.149 35.0637 198.163 35.1692C198.163 35.2399 198.116 35.2954 198.016 35.3356C197.896 35.3791 197.76 35.4009 197.602 35.4009C196.141 35.3813 194.679 35.3389 193.218 35.2736C192.776 35.2323 192.566 35.1507 192.597 35.0322C192.597 34.931 192.674 34.8516 192.826 34.7929C192.906 34.7646 192.955 34.6733 192.986 34.5211C193.001 34.3764 192.986 34.1502 192.942 33.8359L191.644 24.0609H191.56L186.85 34.1328C186.433 35.006 186.167 35.4226 186.047 35.3791C185.964 35.3791 185.866 35.2758 185.752 35.0659C185.588 34.8092 185.436 34.5446 185.297 34.2731C184.996 33.651 184.558 32.7549 183.978 31.5857C183.575 30.8083 183.186 30.0241 182.811 29.2333C182.354 28.1784 181.603 26.534 180.563 24.3001H180.478L179.348 33.1453C179.311 33.514 179.289 33.863 179.289 34.1959C179.303 34.5961 179.521 34.8299 179.939 34.9027C180.328 34.9745 180.63 35.0115 180.847 35.0115C181.043 35.0115 181.15 35.0637 181.164 35.1692C181.15 35.3237 180.979 35.4009 180.647 35.4009L178.385 35.3356C177.814 35.3509 177.106 35.3726 176.26 35.4009C176.015 35.4009 175.888 35.3247 175.871 35.1692C175.871 35.0637 175.987 35.0105 176.209 35.0105C176.356 35.0246 176.572 35.0039 176.862 34.9451C177.15 34.8581 177.362 34.6374 177.505 34.2818C177.635 33.9577 177.717 33.5933 177.746 33.1888L179.886 18.7014Z" fill="white"/>
<path fill-rule="evenodd" clip-rule="evenodd" d="M204.6 25.0367C204.6 22.1285 204.589 20.5592 204.563 20.3275C204.537 19.5825 204.292 19.166 203.828 19.079C203.571 19.0222 203.307 18.9941 203.044 18.9952C202.821 19.0094 202.707 18.9343 202.707 18.7701C202.707 18.6603 202.879 18.6016 203.225 18.6016C204.255 18.619 205.194 18.6407 206.029 18.6668C206.759 18.6526 207.638 18.6309 208.664 18.6016C208.953 18.6016 209.103 18.6603 209.119 18.7701C209.119 18.9343 209.002 19.0072 208.77 18.992C208.579 18.992 208.361 19.0137 208.122 19.0572C207.847 19.1007 207.651 19.2203 207.529 19.4162C207.402 19.6195 207.332 19.9229 207.317 20.3296C207.302 20.6265 207.298 21.0801 207.298 21.6891C207.278 22.8081 207.27 23.9273 207.274 25.0464V28.9583C207.262 31.1835 207.288 32.8105 207.361 33.8393C207.402 34.1351 207.477 34.369 207.592 34.5462C207.7 34.755 207.912 34.8801 208.229 34.9236C208.587 34.9812 208.953 35.0106 209.327 35.0106C209.56 35.0106 209.677 35.0682 209.677 35.1889C209.665 35.3304 209.526 35.4011 209.265 35.4011C207.726 35.3717 206.606 35.3532 205.904 35.3379C205.178 35.3532 204.272 35.3717 203.185 35.4011C202.895 35.4011 202.752 35.3315 202.752 35.1911C202.737 35.0715 202.846 35.0128 203.087 35.0128C203.424 35.0128 203.682 34.9812 203.865 34.9236C204.255 34.8366 204.467 34.468 204.496 33.8176C204.567 32.8062 204.6 31.1878 204.6 28.9682V25.0367ZM220.137 28.9562C220.122 30.3809 220.144 31.4771 220.2 32.2439C220.257 33.0465 220.388 33.5445 220.591 33.7404C220.761 33.8872 221.036 34.0024 221.416 34.0884C221.793 34.1841 222.39 34.2298 223.211 34.2298C223.792 34.2298 224.296 34.1906 224.725 34.109C225.14 34.0536 225.478 33.8828 225.737 33.6C226.041 33.2172 226.23 32.7713 226.298 32.2656C226.298 32.0633 226.38 31.9546 226.542 31.9393C226.653 31.9393 226.714 32.0633 226.714 32.3091C226.714 32.4744 226.681 32.8485 226.627 33.4271C226.555 34.0057 226.479 34.4853 226.392 34.8682C226.35 35.1074 226.258 35.264 226.112 35.3358C225.933 35.4228 225.574 35.4663 225.031 35.4663C222.248 35.4228 220.152 35.3793 218.746 35.3379C218.019 35.3499 217.113 35.3717 216.024 35.4011C215.737 35.4011 215.59 35.3336 215.59 35.1889C215.575 35.0704 215.689 35.0106 215.927 35.0106C216.262 35.0106 216.524 34.9812 216.704 34.9236C216.809 34.8965 216.906 34.8435 216.986 34.7694C217.065 34.6953 217.124 34.6025 217.159 34.4995C217.251 34.2972 217.306 34.0296 217.335 33.6969C217.406 32.6746 217.439 31.0965 217.439 28.9583V25.0442C217.439 22.1329 217.428 20.5613 217.403 20.3296C217.391 19.9382 217.323 19.6477 217.202 19.4596C217.077 19.2497 216.834 19.1148 216.477 19.0572C216.241 19.0093 216 18.9874 215.759 18.992C215.513 19.0072 215.389 18.9398 215.389 18.7919C215.389 18.6668 215.552 18.6016 215.864 18.6016C217.072 18.6168 218.063 18.6385 218.827 18.6668C219.648 18.6526 220.625 18.6309 221.756 18.6016C222.058 18.6016 222.208 18.6668 222.208 18.7919C222.208 18.9398 222.085 19.0072 221.828 18.992C221.553 18.992 221.273 19.0137 220.984 19.0572C220.707 19.1007 220.512 19.2203 220.391 19.4162C220.263 19.6195 220.192 19.9229 220.182 20.3296C220.168 20.6265 220.158 21.0801 220.158 21.687C220.14 22.8059 220.133 23.9251 220.137 25.0442V28.9562Z" fill="white"/>
<path fill-rule="evenodd" clip-rule="evenodd" d="M235.023 29.6444C235.023 29.0669 234.983 28.6058 234.898 28.2632C234.817 27.9307 234.692 27.6102 234.528 27.3094C234.499 27.1865 234.327 26.8515 234.01 26.3089C233.637 25.6621 233.253 25.0211 232.86 24.386C232.171 23.2103 231.461 22.0465 230.731 20.895C230.165 20.0641 229.665 19.5192 229.232 19.2669C228.955 19.105 228.644 19.0082 228.324 18.9842C228.125 18.9994 228.022 18.9319 228.008 18.7851C228.022 18.6568 228.155 18.5938 228.421 18.5938C229.162 18.609 230.068 18.6307 231.14 18.659C231.377 18.659 231.707 18.6448 232.13 18.6155C232.531 18.6013 232.968 18.5938 233.447 18.5938C233.661 18.5938 233.764 18.6568 233.764 18.7851C233.764 18.8907 233.605 18.97 233.289 19.0277C233.089 19.0864 232.994 19.218 232.994 19.4301C232.994 19.6041 233.078 19.8542 233.247 20.1805C233.354 20.361 233.583 20.7634 233.943 21.3855C234.287 22.0097 234.668 22.7156 235.08 23.5062L236.913 26.8418C236.994 26.6754 237.19 26.3023 237.506 25.7216C237.808 25.1789 238.145 24.547 238.518 23.8314C239.077 22.8007 239.625 21.7643 240.162 20.7221C240.357 20.2305 240.458 19.8423 240.458 19.5606C240.456 19.4362 240.427 19.3138 240.373 19.2017C240.317 19.1147 240.197 19.0494 240.008 19.0059C239.759 18.9776 239.628 18.9025 239.614 18.7851C239.614 18.6568 239.737 18.5938 239.986 18.5938C240.665 18.6068 241.343 18.6285 242.022 18.659C242.821 18.6448 243.59 18.6231 244.33 18.5938C244.573 18.5938 244.704 18.6492 244.721 18.7634C244.704 18.9102 244.567 18.9842 244.308 18.9842C244.047 18.9842 243.732 19.0712 243.358 19.2452C242.977 19.4257 242.59 19.7922 242.188 20.3414C241.746 20.9657 241.024 22.1272 240.03 23.8325C239.61 24.5538 239.203 25.2815 238.807 26.0152C238.426 26.683 238.183 27.1507 238.072 27.4182C237.999 27.6139 237.943 27.7966 237.9 27.9728C237.852 28.1675 237.813 28.3535 237.787 28.5275C237.754 28.9027 237.743 29.2757 237.743 29.6444V31.4715C237.728 31.9131 237.748 32.6526 237.805 33.6868C237.82 34.0218 237.9 34.2894 238.048 34.4917C238.161 34.7157 238.377 34.8581 238.693 34.9158C239.053 34.9713 239.416 35.0006 239.776 35.0006C240.008 35.0006 240.119 35.0604 240.119 35.1811C240.102 35.3204 239.945 35.3932 239.658 35.3932L236.358 35.328C235.597 35.3421 234.697 35.3639 233.661 35.3932C233.344 35.3932 233.184 35.3204 233.184 35.1811C233.184 35.0626 233.301 35.0028 233.535 35.0028C233.837 35.0028 234.089 34.9734 234.293 34.9158C234.507 34.8581 234.671 34.7157 234.791 34.4917C234.888 34.2894 234.95 34.0218 234.963 33.6891C235.002 32.6559 235.023 31.9174 235.023 31.4769V29.6444Z" fill="white"/>
<path fill-rule="evenodd" clip-rule="evenodd" d="M14.0676 54.3382C14.0589 55.789 14.0828 56.8395 14.1382 57.491C14.1578 57.7118 14.2057 57.8901 14.2851 58.0261C14.3536 58.1751 14.4917 58.2687 14.7016 58.3078C14.9409 58.3459 15.1801 58.3622 15.4194 58.3622C15.5825 58.3622 15.6652 58.4035 15.6652 58.484C15.6652 58.5775 15.5597 58.6232 15.3498 58.6232C14.3536 58.6069 13.626 58.5916 13.1692 58.5819L11.3443 58.6232C11.1431 58.6232 11.0442 58.5775 11.0442 58.484C11.0344 58.4035 11.1018 58.3654 11.2519 58.3654C11.477 58.3654 11.6488 58.3459 11.7696 58.3078C11.8398 58.2901 11.9044 58.2549 11.9572 58.2055C12.0101 58.156 12.0496 58.0939 12.0719 58.025C12.1317 57.8901 12.1698 57.7118 12.1904 57.491C12.2361 56.8395 12.26 55.789 12.26 54.3371V51.7346C12.26 49.7976 12.2502 48.7547 12.2361 48.5992C12.2252 48.3371 12.1817 48.1467 12.1034 48.0206C12.0186 47.8813 11.8566 47.7922 11.6195 47.7508C11.434 47.7207 11.2462 47.7069 11.0583 47.7096C10.8951 47.7096 10.8125 47.6693 10.8125 47.5899C10.8125 47.4953 10.9213 47.4496 11.1431 47.4496C11.8339 47.4558 12.5245 47.4703 13.2149 47.4931C14.5896 47.4931 15.8566 47.4888 17.0192 47.479C17.2758 47.4681 17.4738 47.4496 17.6087 47.4213C17.6778 47.3788 17.754 47.3494 17.8338 47.3343C17.9034 47.3441 17.9403 47.3876 17.9403 47.4648C17.9294 47.5409 17.8893 47.7606 17.8196 48.125C17.8001 48.5078 17.7761 48.9058 17.7468 49.318C17.7468 49.4572 17.7011 49.5268 17.6065 49.5268C17.5173 49.5268 17.4662 49.4475 17.4564 49.2887V49.0385C17.4473 48.9307 17.4189 48.8253 17.3727 48.7275C17.3356 48.6209 17.2345 48.5176 17.0703 48.4164C16.9148 48.3392 16.6973 48.2957 16.4222 48.2859L14.1959 48.2424C14.1111 48.2424 14.0676 48.3099 14.0676 48.4447V52.15C14.0589 52.2414 14.0926 52.287 14.1676 52.287L16.0056 52.2729C16.2503 52.2729 16.4657 52.2675 16.6516 52.2577C16.9246 52.2577 17.1334 52.1685 17.278 51.9901C17.3335 51.889 17.3944 51.8379 17.4618 51.8379C17.5162 51.8379 17.5434 51.8846 17.5434 51.976C17.5355 52.1679 17.5123 52.3588 17.4738 52.547C17.4662 52.6557 17.452 52.771 17.4325 52.8917C17.3993 53.2494 17.3808 53.6082 17.377 53.9674C17.3777 54.0278 17.3729 54.0882 17.3628 54.1479C17.352 54.2153 17.3085 54.2491 17.2291 54.2491C17.1551 54.2392 17.1182 54.1696 17.1182 54.0391C17.1182 53.9239 17.0899 53.7738 17.0333 53.5835C16.993 53.4572 16.9175 53.3452 16.8158 53.2604C16.7541 53.1948 16.6793 53.1428 16.5961 53.1082C16.4992 53.0766 16.3988 53.0572 16.297 53.0505C15.9345 53.0156 15.5704 53.0011 15.2062 53.007H14.1676C14.1024 53.007 14.0676 53.0506 14.0676 53.1376V54.3382ZM38.9541 58.0979C39.2195 58.0979 39.5371 58.0446 39.9014 57.9391C40.2733 57.8282 40.6431 57.6161 41.0086 57.3029C41.3739 56.9744 41.6753 56.4905 41.9123 55.8488C42.1516 55.218 42.2755 54.3741 42.2854 53.3181C42.2658 51.6411 41.8644 50.3273 41.0781 49.3778C40.2843 48.4327 39.2836 47.9564 38.0787 47.9466C37.6763 47.9466 37.2696 48.0086 36.8584 48.1347C36.4201 48.2855 36.0251 48.5408 35.7078 48.8786C35.362 49.2115 35.0846 49.6791 34.8736 50.2816C34.6539 50.8841 34.5452 51.6508 34.5452 52.5807C34.5452 54.1576 34.9367 55.4584 35.7219 56.485C36.4887 57.5411 37.5665 58.0783 38.9541 58.0979ZM38.3528 58.8331C36.3125 58.795 34.8301 58.1534 33.9101 56.9124C33.0009 55.7096 32.5506 54.4176 32.5615 53.0364C32.5506 51.6846 33.0052 50.4001 33.921 49.1832C34.8344 47.9249 36.356 47.2789 38.4876 47.2397C42.2799 47.3224 44.2158 49.1658 44.2951 52.7689C44.2865 54.498 43.7546 55.9261 42.6986 57.0571C41.647 58.211 40.1972 58.8037 38.3528 58.8331ZM59.919 51.7357C59.919 49.7987 59.9092 48.7525 59.8929 48.5981C59.8853 48.3371 59.8397 48.1446 59.7602 48.0195C59.6754 47.8792 59.5156 47.7911 59.2763 47.7519C59.0914 47.7196 58.9038 47.7051 58.7162 47.7084C58.5509 47.7182 58.4693 47.6758 58.4693 47.5758C58.4693 47.492 58.5759 47.4507 58.7858 47.4507C59.6461 47.4605 60.3454 47.4746 60.8815 47.492C61.3915 47.4844 61.981 47.4703 62.6488 47.4507C62.8587 47.4507 62.9641 47.492 62.9641 47.5758C62.9641 47.6747 62.888 47.7182 62.7326 47.7084C62.5977 47.7084 62.4606 47.7226 62.3193 47.7519C62.1354 47.7813 62.005 47.8607 61.9255 47.9912C61.8408 48.1261 61.7951 48.3283 61.7853 48.5981C61.7755 48.796 61.7711 49.0972 61.7711 49.5007C61.7602 49.9064 61.7559 50.6514 61.7559 51.7357V53.8107C61.7559 54.857 61.8625 55.6498 62.0734 56.1903C62.2638 56.7537 62.5346 57.1735 62.8805 57.4486C63.0522 57.5791 63.2187 57.6824 63.3785 57.7585C63.5416 57.851 63.6972 57.9152 63.8419 57.9543C63.9974 57.9924 64.1442 58.0174 64.2844 58.0261C64.4302 58.0457 64.5607 58.0554 64.6782 58.0554C65.0001 58.0554 65.3383 57.9924 65.6961 57.8674C66.0518 57.7477 66.3704 57.5443 66.6553 57.2605C67.0501 56.8461 67.2971 56.3175 67.3927 55.677C67.4688 55.0462 67.5014 54.349 67.4917 53.5867V51.7357C67.4917 49.7987 67.483 48.7525 67.4634 48.5981C67.4558 48.3371 67.409 48.1446 67.3297 48.0195C67.2459 47.8792 67.086 47.7911 66.8467 47.7519C66.6752 47.7215 66.5011 47.707 66.3269 47.7084C66.1627 47.7182 66.08 47.6758 66.08 47.5758C66.08 47.492 66.1822 47.4507 66.3824 47.4507C66.9347 47.4505 67.487 47.4643 68.0388 47.492C68.1398 47.492 68.3694 47.4844 68.7239 47.4648C69.0611 47.455 69.3764 47.4507 69.6723 47.4507C69.8734 47.4507 69.9724 47.492 69.9724 47.5758C69.9724 47.6747 69.8876 47.7182 69.7136 47.7084C69.5831 47.7084 69.4427 47.7226 69.2981 47.7519C69.1165 47.7813 68.986 47.8607 68.9109 47.9912C68.8217 48.1261 68.7728 48.3283 68.763 48.5981C68.7544 48.796 68.7489 49.0972 68.7489 49.4996C68.7392 50.2443 68.7351 50.9889 68.737 51.7335V53.3148C68.7467 54.1435 68.6738 54.9516 68.5194 55.7422C68.3545 56.5173 67.9555 57.223 67.3764 57.764C66.8652 58.1979 66.3584 58.485 65.8538 58.6243C65.3535 58.7645 64.8641 58.8342 64.3889 58.8342C63.9941 58.8439 63.5015 58.7928 62.9065 58.6819C62.3149 58.5666 61.7429 58.2773 61.1958 57.8173C60.8304 57.4888 60.528 57.0147 60.292 56.3947C60.0419 55.7857 59.919 54.9516 59.919 53.8977V51.7357ZM86.823 56.6243C86.8415 57.1832 86.8926 57.5868 86.9775 57.8369C87.0623 58.0729 87.1753 58.2153 87.3203 58.2632C87.5788 58.3404 87.8278 58.3741 88.0728 58.3643C88.2336 58.3643 88.3163 58.4035 88.3163 58.4829C88.3021 58.5764 88.1902 58.6221 87.9798 58.6221C87.0645 58.6057 86.4696 58.5916 86.1988 58.5819C85.6827 58.6002 85.1664 58.6135 84.6501 58.6221C84.4391 58.6329 84.3325 58.5862 84.3325 58.4829C84.3325 58.4035 84.4098 58.3643 84.5653 58.3643C84.7773 58.3643 84.9927 58.3404 85.2124 58.2925C85.3972 58.2447 85.5201 58.0805 85.5854 57.801C85.6452 57.5259 85.6724 57.0777 85.6615 56.4556L85.7877 47.6954C85.7779 47.3724 85.842 47.206 85.9791 47.1951C86.0607 47.1951 86.1433 47.2365 86.2227 47.3191C86.3075 47.4061 86.4 47.5192 86.5033 47.6584C87.0307 48.2609 88.5156 49.8422 90.9536 52.4045C91.4996 52.9657 92.1229 53.6215 92.8242 54.3687C93.5105 55.1278 93.9407 55.5976 94.1149 55.776H94.185L94.0432 49.1244C94.0432 48.6807 94.0085 48.3632 93.9392 48.1619C93.9053 48.0765 93.8533 47.9994 93.7863 47.9358C93.7201 47.8721 93.6405 47.8236 93.5538 47.7932C93.3041 47.7278 93.0464 47.6995 92.7879 47.7096C92.6288 47.7096 92.5531 47.6639 92.5634 47.5747C92.5634 47.5192 92.602 47.4822 92.6761 47.4637C92.7525 47.4528 92.836 47.4485 92.9353 47.4485C93.7398 47.4594 94.3174 47.4736 94.6728 47.492C94.7579 47.492 94.9241 47.4822 95.1715 47.4637C95.4245 47.4528 95.7247 47.4485 96.0745 47.4485C96.2857 47.4398 96.3968 47.4811 96.4062 47.5747C96.4062 47.6639 96.3219 47.7096 96.1517 47.7096C96.0249 47.7096 95.8799 47.7237 95.7152 47.7497C95.6222 47.7673 95.5363 47.8095 95.4654 47.872C95.3953 47.9344 95.3425 48.0146 95.3134 48.1043C95.2346 48.2925 95.1889 48.5937 95.181 49.0081L95.0265 58.3502C95.0265 58.6514 94.9611 58.8037 94.8351 58.8037C94.7602 58.8037 94.6854 58.7624 94.6129 58.6808C94.5215 58.6207 94.434 58.5538 94.352 58.4807C92.9345 57.0383 91.5233 55.589 90.1191 54.1327C88.3305 52.224 87.1927 50.982 86.7012 50.4034H86.6577L86.823 56.6243ZM114.543 53.3648C114.543 55.0038 114.552 55.9989 114.572 56.3557C114.58 56.5437 114.599 56.7515 114.628 56.9777C114.639 57.2137 114.669 57.3801 114.725 57.4769C114.823 57.6161 115.025 57.7466 115.329 57.8674C115.628 58.0022 116.056 58.0696 116.613 58.0696C118.022 58.0892 119.125 57.7347 119.919 57.0071C120.366 56.5829 120.683 56.05 120.867 55.4084C121.045 54.7272 121.132 54.0254 121.124 53.3213C121.116 52.3719 120.966 51.5932 120.675 50.9809C120.556 50.697 120.407 50.4259 120.233 50.1718C120.071 49.9543 119.906 49.7716 119.743 49.6215C119.073 48.9907 118.37 48.5806 117.631 48.3947C116.891 48.2164 116.238 48.1326 115.665 48.1424C115.513 48.1424 115.339 48.1467 115.147 48.1565C115.004 48.1715 114.861 48.203 114.725 48.25C114.605 48.299 114.548 48.398 114.558 48.5469C114.548 49.1952 114.543 50.1804 114.543 51.5018V53.3648ZM112.749 51.7357C112.749 49.7976 112.741 48.7514 112.726 48.597C112.715 48.3371 112.671 48.1446 112.592 48.0195C112.508 47.8792 112.346 47.79 112.106 47.7519C111.922 47.7196 111.734 47.705 111.547 47.7084C111.382 47.7182 111.302 47.6715 111.302 47.5758C111.302 47.4909 111.406 47.4474 111.617 47.4474C112.487 47.4583 113.176 47.4725 113.685 47.4909L115.895 47.4474C116.89 47.432 117.884 47.5022 118.868 47.6573C119.919 47.8314 120.849 48.3229 121.66 49.1298C122.03 49.5062 122.356 50.0053 122.635 50.6242C122.901 51.2463 123.04 52.001 123.049 52.8928C123.04 53.815 122.886 54.6275 122.581 55.3246C122.271 56.0185 121.907 56.5797 121.485 57.0136C121.33 57.1821 121.116 57.366 120.84 57.5628C120.522 57.786 120.184 57.979 119.829 58.1392C119.058 58.5307 118.007 58.7373 116.676 58.7613C116.123 58.7507 115.57 58.7191 115.019 58.6667C114.553 58.6165 114.085 58.5886 113.616 58.583C113.135 58.5927 112.529 58.6047 111.808 58.6243C111.614 58.6243 111.519 58.5753 111.519 58.484C111.51 58.4046 111.582 58.3643 111.742 58.3643C111.966 58.3643 112.138 58.3448 112.259 58.3056C112.329 58.2876 112.393 58.2523 112.446 58.2028C112.499 58.1534 112.539 58.0915 112.561 58.0228C112.622 57.8891 112.66 57.7107 112.681 57.4888C112.726 56.8113 112.75 55.7585 112.75 54.3382L112.749 51.7357ZM143.028 54.0337C143.094 54.0337 143.117 54.0043 143.097 53.9467L141.8 50.2925C141.793 50.2175 141.769 50.174 141.73 50.1652C141.693 50.174 141.664 50.2175 141.648 50.2925L140.328 53.9314C140.303 53.9989 140.323 54.0337 140.386 54.0337H143.028ZM140.099 54.7678C140.028 54.7678 139.983 54.8069 139.963 54.8841L139.191 57.0049C139.047 57.3997 138.973 57.7009 138.973 57.9086C138.973 58.0337 139.017 58.1371 139.103 58.2197C139.19 58.3165 139.339 58.3643 139.549 58.3643H139.767C139.917 58.3643 139.987 58.4057 139.977 58.484C139.977 58.5764 139.898 58.6254 139.74 58.6254C139.231 58.6063 138.721 58.5918 138.211 58.5819C137.945 58.5905 137.382 58.6057 136.521 58.6254C136.34 58.6254 136.249 58.5764 136.249 58.484C136.249 58.4024 136.306 58.3643 136.424 58.3643C136.575 58.3643 136.721 58.3545 136.865 58.335C137.193 58.2871 137.447 58.1446 137.631 57.9086C137.736 57.7841 137.821 57.6435 137.882 57.4921C137.952 57.3475 138.02 57.1855 138.085 57.0071L141.689 47.7237C141.844 47.3212 141.976 47.1233 142.087 47.1332C142.207 47.1332 142.327 47.2897 142.453 47.6007C143.629 50.6359 144.815 53.6676 146.009 56.6961C146.289 57.3377 146.533 57.7618 146.743 57.9663C146.953 58.1643 147.133 58.2773 147.277 58.3067C147.497 58.3448 147.698 58.3643 147.879 58.3643C148.003 58.3643 148.063 58.4057 148.063 58.484C148.063 58.5405 148.025 58.571 147.949 58.5819C147.853 58.6102 147.668 58.6254 147.404 58.6254C146.818 58.6254 145.914 58.6145 144.688 58.596C144.413 58.596 144.27 58.559 144.26 58.4829C144.26 58.4057 144.325 58.3589 144.459 58.3502C144.594 58.311 144.638 58.198 144.592 58.0098L143.441 54.87C143.432 54.8391 143.411 54.8123 143.384 54.7938C143.358 54.7753 143.326 54.7662 143.294 54.7678H140.099ZM163.48 48.2718L161.336 48.3294C161.027 48.3296 160.72 48.3588 160.417 48.4164C160.223 48.4705 160.054 48.5905 159.939 48.7557C159.808 48.9819 159.729 49.1538 159.699 49.2745C159.681 49.3898 159.627 49.4485 159.537 49.4485C159.444 49.4485 159.403 49.3703 159.412 49.219C159.412 49.1462 159.432 49.0276 159.467 48.8645C159.497 48.6981 159.526 48.5143 159.555 48.3197C159.646 47.8879 159.699 47.6204 159.719 47.5214C159.758 47.3343 159.813 47.2397 159.888 47.2397C159.948 47.2397 160.025 47.2658 160.12 47.3191C160.24 47.3775 160.37 47.4119 160.504 47.4202C160.959 47.4691 161.437 47.4931 161.943 47.4931H167.631C168.49 47.4637 168.952 47.4159 169.012 47.3484C169.088 47.3484 169.126 47.4518 169.126 47.6562C169.117 48.1848 169.102 48.7536 169.083 49.3637C169.073 49.5225 169.029 49.6019 168.95 49.6019C168.846 49.6117 168.792 49.5127 168.792 49.305L168.782 49.1386C168.782 48.9319 168.655 48.7471 168.408 48.5817C168.155 48.423 167.715 48.3338 167.084 48.3142L165.273 48.2707V54.3382C165.264 55.7596 165.288 56.8178 165.344 57.5117C165.368 57.7184 165.416 57.8901 165.49 58.025C165.556 58.1751 165.697 58.2687 165.907 58.3078C166.143 58.3437 166.39 58.3622 166.644 58.3622C166.798 58.3622 166.876 58.4035 166.876 58.4829C166.862 58.5775 166.769 58.6232 166.601 58.6232C165.573 58.6057 164.821 58.5916 164.343 58.5819L162.535 58.6232C162.342 58.6232 162.247 58.5775 162.247 58.4829C162.238 58.4035 162.315 58.3654 162.477 58.3654C162.652 58.3709 162.827 58.3516 162.997 58.3078C163.067 58.2876 163.132 58.2516 163.186 58.2026C163.241 58.1536 163.283 58.0929 163.311 58.025C163.368 57.8901 163.4 57.7118 163.409 57.4899C163.456 56.8135 163.48 55.7618 163.48 54.3426V48.2718ZM208.818 58.0979C209.081 58.0979 209.401 58.0446 209.765 57.9391C210.138 57.8282 210.508 57.6161 210.872 57.3029C211.238 56.9744 211.539 56.4905 211.777 55.8488C212.016 55.218 212.139 54.3741 212.149 53.3181C212.13 51.6411 211.728 50.3273 210.941 49.3778C210.148 48.4327 209.147 47.9564 207.943 47.9466C207.54 47.9466 207.133 48.0086 206.722 48.1347C206.284 48.2855 205.889 48.5408 205.571 48.8786C205.226 49.2115 204.946 49.6791 204.739 50.2816C204.517 50.8841 204.408 51.6508 204.408 52.5807C204.408 54.1576 204.8 55.4584 205.586 56.485C206.35 57.5411 207.43 58.0783 208.818 58.0979ZM208.217 58.8331C206.176 58.795 204.695 58.1534 203.773 56.9124C202.864 55.7096 202.417 54.4176 202.425 53.0364C202.417 51.6846 202.87 50.4001 203.785 49.1832C204.699 47.9249 206.219 47.2789 208.351 47.2397C212.144 47.3224 214.081 49.1658 214.159 52.7689C214.15 54.498 213.615 55.9261 212.562 57.0571C211.507 58.211 210.06 58.8037 208.217 58.8331ZM231.26 56.6243C231.283 57.1832 231.331 57.5868 231.416 57.8369C231.503 58.0729 231.614 58.2153 231.758 58.2632C232.018 58.3404 232.267 58.3741 232.513 58.3643C232.673 58.3643 232.755 58.4035 232.755 58.4829C232.741 58.5764 232.628 58.6221 232.419 58.6221C231.506 58.6057 230.908 58.5916 230.637 58.5819C230.428 58.5916 229.91 58.6057 229.091 58.6221C228.88 58.6329 228.774 58.5862 228.774 58.4829C228.774 58.4035 228.849 58.3643 229.003 58.3643C229.216 58.3643 229.432 58.3404 229.651 58.2925C229.836 58.2447 229.959 58.0805 230.024 57.801C230.086 57.5259 230.111 57.0777 230.104 56.4556L230.226 47.6954C230.216 47.3724 230.282 47.206 230.417 47.1951C230.502 47.1951 230.584 47.2365 230.662 47.3191C230.746 47.4061 230.839 47.5192 230.942 47.6584C231.469 48.2609 232.954 49.8422 235.393 52.4045C235.94 52.9657 236.561 53.6215 237.263 54.3687C237.951 55.1278 238.38 55.5976 238.556 55.776H238.623L238.483 49.1244C238.483 48.6807 238.451 48.3632 238.377 48.1619C238.343 48.0763 238.291 47.9991 238.224 47.9354C238.157 47.8718 238.077 47.8233 237.99 47.7932C237.742 47.7275 237.485 47.6993 237.229 47.7096C237.066 47.7096 236.992 47.6639 237.001 47.5747C237.001 47.5192 237.043 47.4822 237.115 47.4637C237.191 47.4528 237.278 47.4485 237.373 47.4485C238.179 47.4594 238.759 47.4736 239.112 47.492C239.197 47.492 239.365 47.4822 239.61 47.4637C239.867 47.4528 240.165 47.4485 240.513 47.4485C240.723 47.4398 240.836 47.4811 240.845 47.5747C240.845 47.6639 240.762 47.7096 240.591 47.7096C240.465 47.7096 240.319 47.7237 240.156 47.7497C240.063 47.7669 239.977 47.8089 239.906 47.8714C239.835 47.9339 239.783 48.0143 239.755 48.1043C239.673 48.2925 239.626 48.5937 239.619 49.0081L239.467 58.3502C239.467 58.6514 239.4 58.8037 239.274 58.8037C239.198 58.8037 239.124 58.7624 239.054 58.6808C238.961 58.6207 238.874 58.5538 238.791 58.4807C237.373 57.0383 235.961 55.589 234.558 54.1327C232.769 52.224 231.63 50.982 231.14 50.4034H231.1L231.26 56.6243ZM184.685 51.7074C184.685 49.777 184.677 48.7362 184.661 48.5817C184.641 48.088 184.479 47.8129 184.171 47.7552C184 47.716 183.827 47.6967 183.653 47.6976C183.502 47.7073 183.428 47.6584 183.428 47.5508C183.428 47.4746 183.544 47.4365 183.771 47.4365C184.392 47.4441 185.012 47.4593 185.632 47.4822C186.118 47.4736 186.701 47.4583 187.383 47.4365C187.573 47.4365 187.675 47.4757 187.682 47.5508C187.682 47.6595 187.605 47.7073 187.451 47.6976C187.307 47.6993 187.163 47.7139 187.022 47.7411C186.838 47.7694 186.708 47.8498 186.628 47.9771C186.543 48.112 186.497 48.3142 186.488 48.5839C186.479 48.7819 186.474 49.0809 186.474 49.4866C186.463 49.8901 186.459 50.6329 186.459 51.715V54.311C186.448 55.7857 186.47 56.8657 186.517 57.5476C186.543 57.7455 186.597 57.9021 186.672 58.0174C186.742 58.1577 186.882 58.2415 187.092 58.2708C187.332 58.3067 187.573 58.3252 187.821 58.3252C187.977 58.3252 188.054 58.3676 188.054 58.4448C188.044 58.5384 187.953 58.5862 187.781 58.5862C186.757 58.5677 186.017 58.5536 185.547 58.5427L183.744 58.5862C183.554 58.5862 183.457 58.5384 183.457 58.447C183.447 58.3676 183.522 58.3285 183.679 58.3285C183.904 58.3285 184.076 58.3067 184.197 58.2708C184.457 58.2132 184.595 57.9663 184.615 57.5356C184.661 56.8635 184.685 55.7912 184.685 54.3164V51.7074Z" fill="white"/>
</g>
</g>
</g>
<defs>
<clipPath id="clip0_34064_133202">
<rect width="252.146" height="102.434" fill="white" transform="translate(0.453125)"/>
</clipPath>
<clipPath id="clip1_34064_133202">
<rect width="252.146" height="102.434" fill="white" transform="translate(0.453125)"/>
</clipPath>
<clipPath id="clip2_34064_133202">
<rect width="236.387" height="102.435" fill="white" transform="translate(8.33203)"/>
</clipPath>
</defs>
</svg>
