<svg width="249" height="285" viewBox="0 0 249 285" fill="none" xmlns="http://www.w3.org/2000/svg">
<g clip-path="url(#clip0_37483_134277)">
<path d="M112.97 274.175C112.97 279.687 113.625 284.154 110.878 284.154C108.034 284.154 105.194 278.066 105.194 272.556C105.194 267.043 109.725 264.197 110.879 264.197C112.034 264.197 112.97 268.666 112.97 274.175Z" fill="#FF9B2E"/>
<path d="M135.831 274.173C135.831 279.684 135.177 284.152 137.924 284.153C140.769 284.152 143.609 278.064 143.609 272.554C143.609 267.041 139.079 264.196 137.923 264.196C136.769 264.196 135.831 268.664 135.831 274.173Z" fill="#FF9B2E"/>
<path d="M167.515 186.695C174.961 163.7 179.717 145.175 185.08 144.695C190.63 144.201 187.947 169.119 180.498 192.116C173.054 215.11 160.37 227.773 158.116 227.975C155.86 228.173 160.07 209.689 167.515 186.695Z" fill="#FF9B2E"/>
<path d="M80.9383 186.695C73.4925 163.7 68.7366 145.175 63.3728 144.695C57.8236 144.201 60.5062 169.119 67.955 192.116C75.3987 215.11 88.0828 227.773 90.3372 227.975C92.5936 228.173 88.383 209.689 80.9383 186.695Z" fill="#FF9B2E"/>
<path d="M168.552 247.134C168.552 269.538 150.384 274.177 127.972 274.177H121.212C98.7996 274.177 80.6328 269.538 80.6328 247.134V199.81C80.6328 177.406 98.7996 159.242 121.212 159.242H127.972C150.384 159.242 168.552 177.406 168.552 199.81V247.134Z" fill="#FF9B2E"/>
<path opacity="0.2" d="M164.605 215.471C164.605 217.048 164.548 238.84 164.431 240.276C162.697 261.85 148.08 267.96 124.398 267.96C100.571 267.96 85.9229 261.777 84.3324 239.887C84.2365 238.567 84.1875 216.906 84.1875 215.471C84.1875 190.216 99.1349 169.742 124.398 169.742C149.661 169.742 164.605 190.216 164.605 215.471Z" fill="white"/>
<ellipse opacity="0.7" cx="124.325" cy="214.431" rx="43.325" ry="28.9" fill="url(#paint0_radial_37483_134277)"/>
<path d="M154.562 193.36C154.562 201.787 147.726 208.617 139.3 208.617C130.87 208.617 124.037 201.787 124.037 193.36C124.037 184.934 130.87 178.103 139.3 178.103C147.726 178.103 154.562 184.934 154.562 193.36Z" fill="#FF9B2E"/>
<path fill-rule="evenodd" clip-rule="evenodd" d="M151.646 193.358C151.646 200.175 146.118 205.701 139.3 205.701C132.481 205.701 126.953 200.175 126.953 193.358C126.953 186.542 132.481 181.016 139.3 181.016C146.118 181.016 151.646 186.542 151.646 193.358Z" fill="url(#paint1_radial_37483_134277)"/>
<path fill-rule="evenodd" clip-rule="evenodd" d="M145.939 193.358C145.939 197.025 142.966 199.998 139.298 199.998C135.63 199.998 132.656 197.025 132.656 193.358C132.656 189.691 135.63 186.719 139.298 186.719C142.966 186.719 145.939 189.691 145.939 193.358Z" fill="url(#paint2_radial_37483_134277)"/>
<path d="M142.398 193.363C142.398 195.078 141.007 196.469 139.293 196.469C137.577 196.469 136.186 195.078 136.186 193.363C136.186 191.649 137.577 190.258 139.293 190.258C141.007 190.258 142.398 191.649 142.398 193.363Z" fill="#2E2A49"/>
<ellipse cx="139.302" cy="190.085" rx="3.7" ry="2.84251" fill="url(#paint3_linear_37483_134277)"/>
<path d="M125.141 192.923C125.141 201.35 118.309 208.18 109.879 208.18C101.45 208.18 94.6152 201.35 94.6152 192.923C94.6152 184.495 101.45 177.666 109.879 177.666C118.309 177.666 125.141 184.495 125.141 192.923Z" fill="#FF9B2E"/>
<path fill-rule="evenodd" clip-rule="evenodd" d="M122.224 192.921C122.224 199.737 116.696 205.263 109.878 205.263C103.059 205.263 97.5312 199.737 97.5312 192.921C97.5312 186.104 103.059 180.578 109.878 180.578C116.696 180.578 122.224 186.104 122.224 192.921Z" fill="url(#paint4_radial_37483_134277)"/>
<path fill-rule="evenodd" clip-rule="evenodd" d="M116.519 192.922C116.519 196.589 113.545 199.562 109.877 199.562C106.208 199.562 103.234 196.589 103.234 192.922C103.234 189.254 106.208 186.281 109.877 186.281C113.545 186.281 116.519 189.254 116.519 192.922Z" fill="url(#paint5_radial_37483_134277)"/>
<path d="M112.984 192.917C112.984 194.633 111.591 196.023 109.877 196.023C108.16 196.023 106.769 194.633 106.769 192.917C106.769 191.202 108.16 189.81 109.877 189.81C111.591 189.81 112.984 191.202 112.984 192.917Z" fill="#2E2A49"/>
<ellipse cx="109.88" cy="189.639" rx="3.7" ry="2.84251" fill="url(#paint6_linear_37483_134277)"/>
<path d="M124.494 214.119C103.894 214.119 87.6911 210.335 80.4864 207.006C84.1564 210.329 101.341 215.466 124.494 215.466C147.469 215.466 164.9 210.29 168.531 206.969C161.294 210.306 144.935 214.119 124.494 214.119Z" fill="white"/>
<path d="M124.494 213.948C103.894 213.948 87.6911 210.163 80.4864 206.834C84.1564 210.157 101.341 215.293 124.494 215.293C147.469 215.293 164.9 210.12 168.531 206.797C161.294 210.136 144.935 213.948 124.494 213.948Z" fill="#6D0F0F"/>
<path d="M121.328 213.922V216.032C121.328 217.942 122.877 219.491 124.787 219.491C126.698 219.491 128.247 217.942 128.247 216.032V213.922H121.328Z" fill="#EDDD9A"/>
<path d="M121.875 213.922V215.701C121.875 217.313 123.18 218.618 124.792 218.618C126.403 218.618 127.71 217.313 127.71 215.701V213.922H121.875Z" fill="white"/>
<rect opacity="0.4" width="6.9192" height="2.03732" transform="matrix(1 0 0 -1 121.328 215.961)" fill="#E66D28"/>
<path d="M129.219 213.871C129.22 213.88 129.219 213.889 129.22 213.896L129.367 216.744C129.503 219.344 131.719 221.343 134.322 221.207C136.922 221.073 138.922 218.855 138.785 216.256L138.638 213.408C138.637 213.4 138.637 213.39 138.637 213.383L129.219 213.871Z" fill="#EDDD9A"/>
<path d="M129.953 213.834V213.854L130.078 216.256C130.191 218.449 132.061 220.133 134.255 220.021C136.447 219.907 138.133 218.036 138.02 215.845L137.895 213.443C137.895 213.436 137.895 213.428 137.893 213.422L129.953 213.834Z" fill="white"/>
<rect opacity="0.4" width="9.43117" height="2.77652" transform="matrix(-0.998662 0.051719 0.0517503 0.99866 138.633 213.383)" fill="#E66D28"/>
<path d="M139.609 213.236V213.252L139.806 214.923C139.986 216.448 141.368 217.54 142.894 217.36C144.422 217.181 145.512 215.798 145.333 214.272L145.137 212.601C145.137 212.596 145.135 212.591 145.134 212.586L139.609 213.236Z" fill="#EDDD9A"/>
<path d="M140.039 213.189V213.202L140.205 214.611C140.358 215.897 141.522 216.819 142.81 216.666C144.097 216.516 145.017 215.35 144.865 214.062L144.702 212.653C144.7 212.65 144.7 212.645 144.698 212.641L140.039 213.189Z" fill="white"/>
<rect opacity="0.4" width="5.56406" height="1.63913" transform="matrix(-0.99314 0.116928 0.116998 0.993132 145.133 212.586)" fill="#E66D28"/>
<path d="M146.406 212.459C146.408 212.466 146.411 212.472 146.411 212.48L146.8 214.692C147.155 216.712 149.082 218.061 151.104 217.706C153.125 217.35 154.473 215.424 154.118 213.404L153.728 211.191C153.728 211.185 153.726 211.179 153.724 211.172L146.406 212.459Z" fill="#EDDD9A"/>
<path d="M146.984 212.36C146.987 212.364 146.987 212.37 146.988 212.376L147.316 214.242C147.616 215.946 149.24 217.083 150.944 216.783C152.649 216.483 153.786 214.86 153.488 213.155L153.158 211.29C153.156 211.285 153.156 211.279 153.155 211.273L146.984 212.36Z" fill="white"/>
<rect opacity="0.4" width="7.43144" height="2.18662" transform="matrix(-0.984895 0.173154 0.173256 0.984877 153.727 211.172)" fill="#E66D28"/>
<path d="M156 210.69C156.002 210.696 156.004 210.702 156.004 210.709L156.515 212.738C156.979 214.592 158.858 215.716 160.711 215.25C162.567 214.785 163.689 212.906 163.226 211.054L162.715 209.025C162.715 209.02 162.713 209.013 162.71 209.008L156 210.69Z" fill="#EDDD9A"/>
<path d="M156.531 210.56C156.531 210.566 156.532 210.572 156.534 210.576L156.964 212.288C157.356 213.849 158.94 214.798 160.503 214.406C162.068 214.014 163.015 212.429 162.624 210.867L162.192 209.157C162.192 209.152 162.19 209.146 162.188 209.141L156.531 210.56Z" fill="white"/>
<rect opacity="0.4" width="6.91789" height="2.03649" transform="matrix(-0.969933 0.243371 0.24351 0.969898 162.711 209.008)" fill="#E66D28"/>
<path d="M118.87 213.851V213.872L118.749 216.192C118.64 218.311 116.834 219.94 114.714 219.829C112.593 219.72 110.966 217.913 111.076 215.795L111.196 213.474V213.453L118.87 213.851Z" fill="#EDDD9A"/>
<path d="M118.266 213.82V213.838L118.165 215.793C118.071 217.58 116.548 218.953 114.76 218.86C112.974 218.768 111.598 217.244 111.692 215.458L111.793 213.501C111.793 213.496 111.793 213.49 111.795 213.484L118.266 213.82Z" fill="white"/>
<rect opacity="0.4" width="7.68299" height="2.26423" transform="matrix(0.998656 0.0518301 0.0518616 -0.998654 111.078 215.711)" fill="#E66D28"/>
<path d="M110.11 213.298V213.314L109.913 214.985C109.733 216.51 108.35 217.602 106.826 217.423C105.297 217.244 104.207 215.86 104.386 214.334L104.582 212.663C104.582 212.658 104.585 212.654 104.586 212.648L110.11 213.298Z" fill="#EDDD9A"/>
<path d="M109.678 213.244V213.257L109.512 214.666C109.36 215.952 108.195 216.873 106.907 216.721C105.621 216.571 104.7 215.405 104.852 214.117L105.016 212.709C105.018 212.705 105.018 212.7 105.02 212.695L109.678 213.244Z" fill="white"/>
<rect opacity="0.4" width="5.56405" height="1.63912" transform="matrix(0.99314 0.116928 0.116999 -0.993132 104.391 214.273)" fill="#E66D28"/>
<path d="M103.996 212.688C103.995 212.695 103.995 212.703 103.993 212.71L103.598 215.144C103.238 217.368 101.142 218.877 98.9181 218.516C96.6948 218.155 95.1852 216.061 95.5453 213.838L95.9416 211.404C95.9416 211.397 95.9437 211.39 95.9458 211.383L103.996 212.688Z" fill="#EDDD9A"/>
<path d="M103.358 212.586C103.358 212.591 103.356 212.597 103.356 212.603L103.023 214.656C102.718 216.53 100.953 217.804 99.0758 217.499C97.202 217.196 95.9278 215.429 96.2325 213.555L96.566 211.501C96.5681 211.496 96.5692 211.491 96.5692 211.484L103.358 212.586Z" fill="white"/>
<rect opacity="0.4" width="8.15799" height="2.40175" transform="matrix(0.987112 0.160031 0.160125 -0.987097 95.5547 213.75)" fill="#E66D28"/>
<path d="M91.5298 210.421C91.5298 210.425 91.5298 210.428 91.5276 210.432L91.1548 211.839C90.8139 213.124 89.4971 213.888 88.2113 213.548C86.9276 213.207 86.1627 211.889 86.5026 210.606L86.8743 209.2C86.8765 209.196 86.8786 209.191 86.8786 209.188L91.5298 210.421Z" fill="#EDDD9A"/>
<path d="M91.1606 210.321C91.1584 210.325 91.1584 210.328 91.1563 210.332L90.842 211.519C90.5555 212.601 89.4443 213.245 88.3609 212.959C87.2786 212.671 86.633 211.561 86.9196 210.477L87.2349 209.291C87.2349 209.289 87.237 209.286 87.2392 209.281L91.1606 210.321Z" fill="white"/>
<rect opacity="0.4" width="4.81182" height="1.41553" transform="matrix(0.966599 0.256294 0.25644 -0.96656 86.5156 210.555)" fill="#E66D28"/>
<path opacity="0.2" d="M153.766 247.42C153.766 256.038 140.791 263.023 124.787 263.023C108.785 263.023 95.8105 256.038 95.8105 247.42C95.8105 238.802 108.785 231.817 124.787 231.817C140.791 231.817 153.766 238.802 153.766 247.42Z" fill="white"/>
<ellipse cx="124.553" cy="190.32" rx="36.655" ry="27.8195" fill="url(#paint7_linear_37483_134277)"/>
<path d="M119.011 167.596L124.053 163.675C124.053 163.675 119.786 149.969 112.01 148.198C120.102 155.168 119.011 167.596 119.011 167.596Z" fill="url(#paint8_linear_37483_134277)"/>
<path d="M101.584 150.48C109.658 154.401 111.458 164.728 111.458 164.728L114.702 160.45C114.702 160.45 108.434 150.473 101.822 150.478C101.743 150.473 101.666 150.479 101.584 150.48Z" fill="url(#paint9_linear_37483_134277)"/>
<path d="M95.6921 158.904C102.366 159.512 106.334 166.248 106.334 166.248L107.476 162.41C107.476 162.41 102.303 158.489 97.9217 158.489C97.1426 158.488 96.3881 158.614 95.6921 158.904Z" fill="url(#paint10_linear_37483_134277)"/>
<path d="M98.2873 168.486L100.11 166.561C100.11 166.561 97.5043 161.212 94.2035 160.973C97.9578 163.327 98.2873 168.486 98.2873 168.486Z" fill="url(#paint11_linear_37483_134277)"/>
<path d="M91.1343 166.387C94.2156 166.708 96.0138 169.848 96.0138 169.848L96.5652 168.08C96.5652 168.08 94.1615 166.208 92.1239 166.208C91.7802 166.208 91.4438 166.261 91.1343 166.387Z" fill="url(#paint12_linear_37483_134277)"/>
<path d="M90.8691 168.553C92.8901 169.389 93.4742 171.873 93.4742 171.873L94.2021 170.788C94.2021 170.788 92.5989 168.546 91.0229 168.546C90.972 168.546 90.92 168.547 90.8691 168.553Z" fill="url(#paint13_linear_37483_134277)"/>
<path d="M125.982 161.044L131.353 164.075C131.353 164.075 128.541 152.375 135.286 144.565C128.114 147.35 125.982 161.044 125.982 161.044Z" fill="url(#paint14_linear_37483_134277)"/>
<path d="M132.769 160.591L135.016 163.268C135.016 163.268 135.866 156.499 140.999 153.707C136.64 153.752 132.769 160.591 132.769 160.591Z" fill="url(#paint15_linear_37483_134277)"/>
<path d="M142.367 162.745L143.83 165.055C143.83 165.055 145.193 159.889 149.471 158.255C149.329 158.239 149.187 158.229 149.047 158.229C145.78 158.23 142.367 162.745 142.367 162.745Z" fill="url(#paint16_linear_37483_134277)"/>
<path d="M152.874 170.473L154.272 171.831C154.272 171.831 154.356 168.026 157.046 166.18C154.628 166.457 152.874 170.473 152.874 170.473Z" fill="url(#paint17_linear_37483_134277)"/>
<path d="M137.978 162.775L139.377 164.134C139.377 164.134 139.458 160.329 142.148 158.485C139.732 158.758 137.978 162.775 137.978 162.775Z" fill="url(#paint18_linear_37483_134277)"/>
<path d="M155.784 171.62L156.262 172.735C156.262 172.735 157.222 170.568 159.207 170.149C159.062 170.107 158.911 170.088 158.757 170.088C157.379 170.088 155.784 171.62 155.784 171.62Z" fill="url(#paint19_linear_37483_134277)"/>
<path d="M147.457 167.281L148.715 170.21C148.715 170.21 151.234 164.51 156.458 163.413C156.074 163.306 155.677 163.255 155.273 163.255C151.648 163.253 147.457 167.281 147.457 167.281Z" fill="url(#paint20_linear_37483_134277)"/>
</g>
<rect y="0.5" width="249" height="149" rx="8" fill="#22499C"/>
<path d="M38.8085 56.576C38.8085 57.552 38.5845 58.448 38.1365 59.264C37.6885 60.064 37.0005 60.712 36.0725 61.208C35.1445 61.704 33.9925 61.952 32.6165 61.952H30.0725V68H25.9685V51.152H32.6165C33.9605 51.152 35.0965 51.384 36.0245 51.848C36.9525 52.312 37.6485 52.952 38.1125 53.768C38.5765 54.584 38.8085 55.52 38.8085 56.576ZM32.3045 58.688C33.0885 58.688 33.6725 58.504 34.0565 58.136C34.4405 57.768 34.6325 57.248 34.6325 56.576C34.6325 55.904 34.4405 55.384 34.0565 55.016C33.6725 54.648 33.0885 54.464 32.3045 54.464H30.0725V58.688H32.3045ZM47.041 68.192C45.729 68.192 44.545 67.912 43.489 67.352C42.449 66.792 41.625 65.992 41.017 64.952C40.425 63.912 40.129 62.696 40.129 61.304C40.129 59.928 40.433 58.72 41.041 57.68C41.649 56.624 42.481 55.816 43.537 55.256C44.593 54.696 45.777 54.416 47.089 54.416C48.401 54.416 49.585 54.696 50.641 55.256C51.697 55.816 52.529 56.624 53.137 57.68C53.745 58.72 54.049 59.928 54.049 61.304C54.049 62.68 53.737 63.896 53.113 64.952C52.505 65.992 51.665 66.792 50.593 67.352C49.537 67.912 48.353 68.192 47.041 68.192ZM47.041 64.64C47.825 64.64 48.489 64.352 49.033 63.776C49.593 63.2 49.873 62.376 49.873 61.304C49.873 60.232 49.601 59.408 49.057 58.832C48.529 58.256 47.873 57.968 47.089 57.968C46.289 57.968 45.625 58.256 45.097 58.832C44.569 59.392 44.305 60.216 44.305 61.304C44.305 62.376 44.561 63.2 45.073 63.776C45.601 64.352 46.257 64.64 47.041 64.64ZM61.6743 68.192C60.5063 68.192 59.4663 67.992 58.5543 67.592C57.6423 67.192 56.9223 66.648 56.3943 65.96C55.8663 65.256 55.5703 64.472 55.5063 63.608H59.5623C59.6103 64.072 59.8263 64.448 60.2103 64.736C60.5943 65.024 61.0663 65.168 61.6263 65.168C62.1383 65.168 62.5303 65.072 62.8023 64.88C63.0903 64.672 63.2343 64.408 63.2343 64.088C63.2343 63.704 63.0343 63.424 62.6343 63.248C62.2343 63.056 61.5863 62.848 60.6903 62.624C59.7303 62.4 58.9303 62.168 58.2903 61.928C57.6503 61.672 57.0983 61.28 56.6343 60.752C56.1703 60.208 55.9383 59.48 55.9383 58.568C55.9383 57.8 56.1463 57.104 56.5623 56.48C56.9943 55.84 57.6183 55.336 58.4343 54.968C59.2663 54.6 60.2503 54.416 61.3863 54.416C63.0663 54.416 64.3863 54.832 65.3463 55.664C66.3223 56.496 66.8823 57.6 67.0263 58.976H63.2343C63.1703 58.512 62.9623 58.144 62.6103 57.872C62.2743 57.6 61.8263 57.464 61.2663 57.464C60.7863 57.464 60.4183 57.56 60.1623 57.752C59.9063 57.928 59.7783 58.176 59.7783 58.496C59.7783 58.88 59.9783 59.168 60.3783 59.36C60.7943 59.552 61.4343 59.744 62.2983 59.936C63.2903 60.192 64.0983 60.448 64.7223 60.704C65.3463 60.944 65.8903 61.344 66.3543 61.904C66.8343 62.448 67.0823 63.184 67.0983 64.112C67.0983 64.896 66.8743 65.6 66.4263 66.224C65.9943 66.832 65.3623 67.312 64.5303 67.664C63.7143 68.016 62.7623 68.192 61.6743 68.192ZM71.6731 53.216C70.9531 53.216 70.3611 53.008 69.8971 52.592C69.4491 52.16 69.2251 51.632 69.2251 51.008C69.2251 50.368 69.4491 49.84 69.8971 49.424C70.3611 48.992 70.9531 48.776 71.6731 48.776C72.3771 48.776 72.9531 48.992 73.4011 49.424C73.8651 49.84 74.0971 50.368 74.0971 51.008C74.0971 51.632 73.8651 52.16 73.4011 52.592C72.9531 53.008 72.3771 53.216 71.6731 53.216ZM73.7131 54.608V68H69.6091V54.608H73.7131ZM84.1512 64.52V68H82.0632C80.5752 68 79.4152 67.64 78.5832 66.92C77.7512 66.184 77.3352 64.992 77.3352 63.344V58.016H75.7032V54.608H77.3352V51.344H81.4392V54.608H84.1272V58.016H81.4392V63.392C81.4392 63.792 81.5352 64.08 81.7272 64.256C81.9192 64.432 82.2392 64.52 82.6872 64.52H84.1512ZM88.5012 53.216C87.7812 53.216 87.1892 53.008 86.7252 52.592C86.2772 52.16 86.0532 51.632 86.0532 51.008C86.0532 50.368 86.2772 49.84 86.7252 49.424C87.1892 48.992 87.7812 48.776 88.5012 48.776C89.2052 48.776 89.7812 48.992 90.2292 49.424C90.6932 49.84 90.9252 50.368 90.9252 51.008C90.9252 51.632 90.6932 52.16 90.2292 52.592C89.7812 53.008 89.2052 53.216 88.5012 53.216ZM90.5412 54.608V68H86.4372V54.608H90.5412ZM99.5393 64.16L102.443 54.608H106.811L102.059 68H96.9953L92.2433 54.608H96.6353L99.5393 64.16ZM121.163 61.088C121.163 61.472 121.139 61.872 121.091 62.288H111.803C111.867 63.12 112.131 63.76 112.595 64.208C113.075 64.64 113.659 64.856 114.347 64.856C115.371 64.856 116.083 64.424 116.483 63.56H120.851C120.627 64.44 120.219 65.232 119.627 65.936C119.051 66.64 118.323 67.192 117.443 67.592C116.563 67.992 115.579 68.192 114.491 68.192C113.179 68.192 112.011 67.912 110.987 67.352C109.963 66.792 109.163 65.992 108.587 64.952C108.011 63.912 107.723 62.696 107.723 61.304C107.723 59.912 108.003 58.696 108.563 57.656C109.139 56.616 109.939 55.816 110.963 55.256C111.987 54.696 113.163 54.416 114.491 54.416C115.787 54.416 116.939 54.688 117.947 55.232C118.955 55.776 119.739 56.552 120.299 57.56C120.875 58.568 121.163 59.744 121.163 61.088ZM116.963 60.008C116.963 59.304 116.723 58.744 116.243 58.328C115.763 57.912 115.163 57.704 114.443 57.704C113.755 57.704 113.171 57.904 112.691 58.304C112.227 58.704 111.939 59.272 111.827 60.008H116.963ZM127.718 59.552C127.718 57.888 128.078 56.408 128.798 55.112C129.518 53.8 130.518 52.784 131.798 52.064C133.094 51.328 134.558 50.96 136.19 50.96C138.19 50.96 139.902 51.488 141.326 52.544C142.75 53.6 143.702 55.04 144.182 56.864H139.67C139.334 56.16 138.854 55.624 138.23 55.256C137.622 54.888 136.926 54.704 136.142 54.704C134.878 54.704 133.854 55.144 133.07 56.024C132.286 56.904 131.894 58.08 131.894 59.552C131.894 61.024 132.286 62.2 133.07 63.08C133.854 63.96 134.878 64.4 136.142 64.4C136.926 64.4 137.622 64.216 138.23 63.848C138.854 63.48 139.334 62.944 139.67 62.24H144.182C143.702 64.064 142.75 65.504 141.326 66.56C139.902 67.6 138.19 68.12 136.19 68.12C134.558 68.12 133.094 67.76 131.798 67.04C130.518 66.304 129.518 65.288 128.798 63.992C128.078 62.696 127.718 61.216 127.718 59.552ZM159.919 54.608V68H155.815V66.176C155.399 66.768 154.831 67.248 154.111 67.616C153.407 67.968 152.623 68.144 151.759 68.144C150.735 68.144 149.831 67.92 149.047 67.472C148.263 67.008 147.655 66.344 147.223 65.48C146.791 64.616 146.575 63.6 146.575 62.432V54.608H150.655V61.88C150.655 62.776 150.887 63.472 151.351 63.968C151.815 64.464 152.439 64.712 153.223 64.712C154.023 64.712 154.655 64.464 155.119 63.968C155.583 63.472 155.815 62.776 155.815 61.88V54.608H159.919ZM166.971 50.24V68H162.867V50.24H166.971ZM177.409 64.52V68H175.321C173.833 68 172.673 67.64 171.841 66.92C171.009 66.184 170.593 64.992 170.593 63.344V58.016H168.961V54.608H170.593V51.344H174.697V54.608H177.385V58.016H174.697V63.392C174.697 63.792 174.793 64.08 174.985 64.256C175.177 64.432 175.497 64.52 175.945 64.52H177.409ZM192.919 54.608V68H188.815V66.176C188.399 66.768 187.831 67.248 187.111 67.616C186.407 67.968 185.623 68.144 184.759 68.144C183.735 68.144 182.831 67.92 182.047 67.472C181.263 67.008 180.655 66.344 180.223 65.48C179.791 64.616 179.575 63.6 179.575 62.432V54.608H183.655V61.88C183.655 62.776 183.887 63.472 184.351 63.968C184.815 64.464 185.439 64.712 186.223 64.712C187.023 64.712 187.655 64.464 188.119 63.968C188.583 63.472 188.815 62.776 188.815 61.88V54.608H192.919ZM199.971 56.84C200.451 56.104 201.051 55.528 201.771 55.112C202.491 54.68 203.291 54.464 204.171 54.464V58.808H203.043C202.019 58.808 201.251 59.032 200.739 59.48C200.227 59.912 199.971 60.68 199.971 61.784V68H195.867V54.608H199.971V56.84ZM218.757 61.088C218.757 61.472 218.733 61.872 218.685 62.288H209.397C209.461 63.12 209.725 63.76 210.189 64.208C210.669 64.64 211.253 64.856 211.941 64.856C212.965 64.856 213.677 64.424 214.077 63.56H218.445C218.221 64.44 217.813 65.232 217.221 65.936C216.645 66.64 215.917 67.192 215.037 67.592C214.157 67.992 213.173 68.192 212.085 68.192C210.773 68.192 209.605 67.912 208.581 67.352C207.557 66.792 206.757 65.992 206.181 64.952C205.605 63.912 205.317 62.696 205.317 61.304C205.317 59.912 205.597 58.696 206.157 57.656C206.733 56.616 207.533 55.816 208.557 55.256C209.581 54.696 210.757 54.416 212.085 54.416C213.381 54.416 214.533 54.688 215.541 55.232C216.549 55.776 217.333 56.552 217.893 57.56C218.469 58.568 218.757 59.744 218.757 61.088ZM214.557 60.008C214.557 59.304 214.317 58.744 213.837 58.328C213.357 57.912 212.757 57.704 212.037 57.704C211.349 57.704 210.765 57.904 210.285 58.304C209.821 58.704 209.533 59.272 209.421 60.008H214.557ZM88.0449 99.192C86.7329 99.192 85.5489 98.912 84.4929 98.352C83.4529 97.792 82.6289 96.992 82.0209 95.952C81.4289 94.912 81.1329 93.696 81.1329 92.304C81.1329 90.928 81.4369 89.72 82.0449 88.68C82.6529 87.624 83.4849 86.816 84.5409 86.256C85.5969 85.696 86.7809 85.416 88.0929 85.416C89.4049 85.416 90.5889 85.696 91.6449 86.256C92.7009 86.816 93.5329 87.624 94.1409 88.68C94.7489 89.72 95.0529 90.928 95.0529 92.304C95.0529 93.68 94.7409 94.896 94.1169 95.952C93.5089 96.992 92.6689 97.792 91.5969 98.352C90.5409 98.912 89.3569 99.192 88.0449 99.192ZM88.0449 95.64C88.8289 95.64 89.4929 95.352 90.0369 94.776C90.5969 94.2 90.8769 93.376 90.8769 92.304C90.8769 91.232 90.6049 90.408 90.0609 89.832C89.5329 89.256 88.8769 88.968 88.0929 88.968C87.2929 88.968 86.6289 89.256 86.1009 89.832C85.5729 90.392 85.3089 91.216 85.3089 92.304C85.3089 93.376 85.5649 94.2 86.0769 94.776C86.6049 95.352 87.2609 95.64 88.0449 95.64ZM103.95 89.016H101.742V99H97.6382V89.016H96.1502V85.608H97.6382V85.224C97.6382 83.576 98.1102 82.328 99.0542 81.48C99.9982 80.616 101.382 80.184 103.206 80.184C103.51 80.184 103.734 80.192 103.878 80.208V83.688C103.094 83.64 102.542 83.752 102.222 84.024C101.902 84.296 101.742 84.784 101.742 85.488V85.608H103.95V89.016ZM115.069 85.44V88.848H120.565V92.016H115.069V95.712H121.285V99H110.965V82.152H121.285V85.44H115.069ZM128.053 87.84C128.533 87.104 129.133 86.528 129.853 86.112C130.573 85.68 131.373 85.464 132.253 85.464V89.808H131.125C130.101 89.808 129.333 90.032 128.821 90.48C128.309 90.912 128.053 91.68 128.053 92.784V99H123.949V85.608H128.053V87.84ZM138.319 87.84C138.799 87.104 139.399 86.528 140.119 86.112C140.839 85.68 141.639 85.464 142.519 85.464V89.808H141.391C140.367 89.808 139.599 90.032 139.087 90.48C138.575 90.912 138.319 91.68 138.319 92.784V99H134.215V85.608H138.319V87.84ZM150.576 99.192C149.264 99.192 148.08 98.912 147.024 98.352C145.984 97.792 145.16 96.992 144.552 95.952C143.96 94.912 143.664 93.696 143.664 92.304C143.664 90.928 143.968 89.72 144.576 88.68C145.184 87.624 146.016 86.816 147.072 86.256C148.128 85.696 149.312 85.416 150.624 85.416C151.936 85.416 153.12 85.696 154.176 86.256C155.232 86.816 156.064 87.624 156.672 88.68C157.28 89.72 157.584 90.928 157.584 92.304C157.584 93.68 157.272 94.896 156.648 95.952C156.04 96.992 155.2 97.792 154.128 98.352C153.072 98.912 151.888 99.192 150.576 99.192ZM150.576 95.64C151.36 95.64 152.024 95.352 152.568 94.776C153.128 94.2 153.408 93.376 153.408 92.304C153.408 91.232 153.136 90.408 152.592 89.832C152.064 89.256 151.408 88.968 150.624 88.968C149.824 88.968 149.16 89.256 148.632 89.832C148.104 90.392 147.84 91.216 147.84 92.304C147.84 93.376 148.096 94.2 148.608 94.776C149.136 95.352 149.792 95.64 150.576 95.64ZM163.865 87.84C164.345 87.104 164.945 86.528 165.665 86.112C166.385 85.68 167.185 85.464 168.065 85.464V89.808H166.937C165.913 89.808 165.145 90.032 164.633 90.48C164.121 90.912 163.865 91.68 163.865 92.784V99H159.761V85.608H163.865V87.84Z" fill="white"/>
<defs>
<radialGradient id="paint0_radial_37483_134277" cx="0" cy="0" r="1" gradientUnits="userSpaceOnUse" gradientTransform="translate(124.325 214.431) scale(43.325 28.9222)">
<stop stop-color="white"/>
<stop offset="1" stop-color="white" stop-opacity="0"/>
</radialGradient>
<radialGradient id="paint1_radial_37483_134277" cx="0" cy="0" r="1" gradientUnits="userSpaceOnUse" gradientTransform="translate(139.299 193.358) scale(12.3464 12.3427)">
<stop stop-color="white"/>
<stop offset="0.56" stop-color="white"/>
<stop offset="0.97" stop-color="#D6D6D6"/>
<stop offset="1" stop-color="#C6C6C6"/>
</radialGradient>
<radialGradient id="paint2_radial_37483_134277" cx="0" cy="0" r="1" gradientUnits="userSpaceOnUse" gradientTransform="translate(139.298 193.358) scale(6.64141 6.63939)">
<stop stop-color="white"/>
<stop offset="0.66" stop-color="#A4E1A4"/>
<stop offset="1" stop-color="#00AA00"/>
</radialGradient>
<linearGradient id="paint3_linear_37483_134277" x1="139.308" y1="187.242" x2="139.308" y2="190.026" gradientUnits="userSpaceOnUse">
<stop offset="0.130208" stop-color="white"/>
<stop offset="1" stop-color="#999999" stop-opacity="0.1"/>
</linearGradient>
<radialGradient id="paint4_radial_37483_134277" cx="0" cy="0" r="1" gradientUnits="userSpaceOnUse" gradientTransform="translate(109.878 192.92) scale(12.3464 12.3427)">
<stop stop-color="white"/>
<stop offset="0.56" stop-color="white"/>
<stop offset="0.97" stop-color="#D6D6D6"/>
<stop offset="1" stop-color="#C6C6C6"/>
</radialGradient>
<radialGradient id="paint5_radial_37483_134277" cx="0" cy="0" r="1" gradientUnits="userSpaceOnUse" gradientTransform="translate(109.876 192.922) scale(6.64242 6.64039)">
<stop stop-color="white"/>
<stop offset="0.66" stop-color="#A4E1A4"/>
<stop offset="1" stop-color="#00AA00"/>
</radialGradient>
<linearGradient id="paint6_linear_37483_134277" x1="109.886" y1="186.797" x2="109.886" y2="189.581" gradientUnits="userSpaceOnUse">
<stop offset="0.130208" stop-color="white"/>
<stop offset="1" stop-color="#999999" stop-opacity="0.1"/>
</linearGradient>
<linearGradient id="paint7_linear_37483_134277" x1="124.62" y1="162.5" x2="124.62" y2="174.156" gradientUnits="userSpaceOnUse">
<stop stop-color="white"/>
<stop offset="1" stop-color="white" stop-opacity="0.2"/>
</linearGradient>
<linearGradient id="paint8_linear_37483_134277" x1="125.825" y1="162.297" x2="119.012" y2="167.598" gradientUnits="userSpaceOnUse">
<stop stop-color="#600000"/>
<stop offset="1" stop-color="#B01622"/>
</linearGradient>
<linearGradient id="paint9_linear_37483_134277" x1="115.849" y1="158.951" x2="111.458" y2="164.728" gradientUnits="userSpaceOnUse">
<stop stop-color="#600000"/>
<stop offset="1" stop-color="#B01622"/>
</linearGradient>
<linearGradient id="paint10_linear_37483_134277" x1="107.878" y1="161.062" x2="106.335" y2="166.248" gradientUnits="userSpaceOnUse">
<stop stop-color="#600000"/>
<stop offset="1" stop-color="#B01622"/>
</linearGradient>
<linearGradient id="paint11_linear_37483_134277" x1="100.751" y1="165.886" x2="98.2888" y2="168.487" gradientUnits="userSpaceOnUse">
<stop stop-color="#600000"/>
<stop offset="1" stop-color="#B01622"/>
</linearGradient>
<linearGradient id="paint12_linear_37483_134277" x1="96.7588" y1="167.458" x2="96.0141" y2="169.848" gradientUnits="userSpaceOnUse">
<stop stop-color="#600000"/>
<stop offset="1" stop-color="#B01622"/>
</linearGradient>
<linearGradient id="paint13_linear_37483_134277" x1="94.4577" y1="170.406" x2="93.4744" y2="171.873" gradientUnits="userSpaceOnUse">
<stop stop-color="#600000"/>
<stop offset="1" stop-color="#B01622"/>
</linearGradient>
<linearGradient id="paint14_linear_37483_134277" x1="124.093" y1="159.983" x2="131.35" y2="164.08" gradientUnits="userSpaceOnUse">
<stop stop-color="#600000"/>
<stop offset="1" stop-color="#B01622"/>
</linearGradient>
<linearGradient id="paint15_linear_37483_134277" x1="131.982" y1="159.649" x2="135.012" y2="163.271" gradientUnits="userSpaceOnUse">
<stop stop-color="#600000"/>
<stop offset="1" stop-color="#B01622"/>
</linearGradient>
<linearGradient id="paint16_linear_37483_134277" x1="141.852" y1="161.932" x2="143.83" y2="165.059" gradientUnits="userSpaceOnUse">
<stop stop-color="#600000"/>
<stop offset="1" stop-color="#B01622"/>
</linearGradient>
<linearGradient id="paint17_linear_37483_134277" x1="152.382" y1="169.996" x2="154.271" y2="171.832" gradientUnits="userSpaceOnUse">
<stop stop-color="#600000"/>
<stop offset="1" stop-color="#B01622"/>
</linearGradient>
<linearGradient id="paint18_linear_37483_134277" x1="137.486" y1="162.298" x2="139.376" y2="164.135" gradientUnits="userSpaceOnUse">
<stop stop-color="#600000"/>
<stop offset="1" stop-color="#B01622"/>
</linearGradient>
<linearGradient id="paint19_linear_37483_134277" x1="155.615" y1="171.227" x2="156.262" y2="172.735" gradientUnits="userSpaceOnUse">
<stop stop-color="#600000"/>
<stop offset="1" stop-color="#B01622"/>
</linearGradient>
<linearGradient id="paint20_linear_37483_134277" x1="147.011" y1="166.247" x2="148.713" y2="170.211" gradientUnits="userSpaceOnUse">
<stop stop-color="#600000"/>
<stop offset="1" stop-color="#B01622"/>
</linearGradient>
<clipPath id="clip0_37483_134277">
<rect width="173" height="147" fill="white" transform="translate(38 137.5)"/>
</clipPath>
</defs>
</svg>
