<svg width="21" height="21" viewBox="0 0 21 21" fill="none" xmlns="http://www.w3.org/2000/svg">
<path d="M10.5 1.75C15.3326 1.75 19.25 5.66738 19.25 10.5C19.25 15.3326 15.3326 19.25 10.5 19.25C5.66738 19.25 1.75 15.3326 1.75 10.5C1.75 5.66738 5.66738 1.75 10.5 1.75ZM10.5 14C10.2679 14 10.0454 14.0922 9.88128 14.2563C9.71719 14.4204 9.625 14.6429 9.625 14.875C9.625 15.1071 9.71719 15.3296 9.88128 15.4937C10.0454 15.6578 10.2679 15.75 10.5 15.75C10.7321 15.75 10.9546 15.6578 11.1187 15.4937C11.2828 15.3296 11.375 15.1071 11.375 14.875C11.375 14.6429 11.2828 14.4204 11.1187 14.2563C10.9546 14.0922 10.7321 14 10.5 14ZM10.5 5.6875C9.65877 5.6875 8.85199 6.02168 8.25715 6.61652C7.6623 7.21136 7.32812 8.01814 7.32812 8.85938C7.32812 9.09144 7.42031 9.314 7.58441 9.47809C7.7485 9.64219 7.97106 9.73438 8.20312 9.73438C8.43519 9.73438 8.65775 9.64219 8.82184 9.47809C8.98594 9.314 9.07812 9.09144 9.07812 8.85938C9.07841 8.60128 9.14895 8.34813 9.28216 8.12708C9.41537 7.90602 9.60624 7.72539 9.8343 7.60456C10.0624 7.48372 10.319 7.42724 10.5767 7.44117C10.8344 7.45509 11.0835 7.53891 11.2972 7.68361C11.5109 7.82832 11.6812 8.02847 11.7898 8.2626C11.8984 8.49672 11.9413 8.756 11.9138 9.01262C11.8862 9.26924 11.7894 9.51353 11.6336 9.71929C11.4778 9.92506 11.2689 10.0845 11.0294 10.1806C10.4379 10.4169 9.625 11.0224 9.625 12.0312V12.25C9.625 12.4821 9.71719 12.7046 9.88128 12.8687C10.0454 13.0328 10.2679 13.125 10.5 13.125C10.7321 13.125 10.9546 13.0328 11.1187 12.8687C11.2828 12.7046 11.375 12.4821 11.375 12.25C11.375 12.0365 11.4187 11.9297 11.6034 11.8387L11.6795 11.8038C12.3627 11.5289 12.929 11.025 13.2814 10.3783C13.6337 9.73165 13.7502 8.98256 13.6107 8.25946C13.4713 7.53636 13.0846 6.88429 12.5171 6.41504C11.9495 5.94578 11.2364 5.68857 10.5 5.6875Z" fill="white"/>
</svg>
