<svg width="69" height="69" viewBox="0 0 69 69" fill="none" xmlns="http://www.w3.org/2000/svg">
<circle cx="34.5" cy="34.5" r="34.5" fill="#4C7CF7"/>
<path d="M14.8401 28V18.914H18.0461C19.0681 18.914 19.8637 19.166 20.4331 19.67C21.0071 20.174 21.2941 20.888 21.2941 21.812C21.2941 22.7267 21.0071 23.436 20.4331 23.94C19.8637 24.444 19.0681 24.696 18.0461 24.696H16.5061V28H14.8401ZM16.5061 23.254H18.0461C18.5594 23.254 18.9467 23.1187 19.2081 22.848C19.4694 22.5773 19.6001 22.232 19.6001 21.812C19.6001 21.3827 19.4694 21.0303 19.2081 20.755C18.9467 20.4797 18.5594 20.342 18.0461 20.342H16.5061V23.254ZM27.6652 28V24.024C27.6652 23.52 27.5438 23.1397 27.3012 22.883C27.0585 22.6263 26.7412 22.498 26.3492 22.498C26.0178 22.498 25.7238 22.589 25.4672 22.771C25.2152 22.953 25.0168 23.2283 24.8722 23.597C24.7275 23.961 24.6552 24.416 24.6552 24.962H24.1092C24.1092 24.08 24.2188 23.3473 24.4382 22.764C24.6575 22.176 24.9678 21.7373 25.3692 21.448C25.7705 21.1587 26.2418 21.014 26.7832 21.014C27.3432 21.014 27.8098 21.14 28.1832 21.392C28.5612 21.6393 28.8435 21.9893 29.0302 22.442C29.2215 22.8947 29.3172 23.422 29.3172 24.024V28H27.6652ZM23.0032 28V18.396H24.6552V28H23.0032ZM36.0518 28L35.8418 26.348V23.618C35.8418 23.142 35.7438 22.7897 35.5478 22.561C35.3565 22.3323 35.0298 22.218 34.5678 22.218C34.3018 22.218 34.0708 22.2577 33.8748 22.337C33.6788 22.4163 33.5272 22.5307 33.4198 22.68C33.3172 22.8247 33.2658 23.002 33.2658 23.212H31.4598C31.4598 22.6987 31.5835 22.281 31.8308 21.959C32.0782 21.6323 32.4328 21.3943 32.8948 21.245C33.3615 21.091 33.9192 21.014 34.5678 21.014C35.1558 21.014 35.6692 21.1097 36.1078 21.301C36.5465 21.4877 36.8872 21.777 37.1298 22.169C37.3725 22.561 37.4938 23.0627 37.4938 23.674V28H36.0518ZM33.8258 28.196C33.2425 28.196 32.7548 28.0957 32.3628 27.895C31.9755 27.6897 31.6838 27.4213 31.4878 27.09C31.2918 26.7587 31.1938 26.3993 31.1938 26.012C31.1938 25.5827 31.3058 25.2233 31.5298 24.934C31.7585 24.64 32.0805 24.4207 32.4958 24.276C32.9112 24.1267 33.4012 24.052 33.9658 24.052C34.3345 24.052 34.6822 24.08 35.0088 24.136C35.3402 24.192 35.6692 24.2667 35.9958 24.36V25.326C35.7392 25.242 35.4592 25.1767 35.1558 25.13C34.8525 25.0833 34.5678 25.06 34.3018 25.06C33.9098 25.06 33.5878 25.1323 33.3358 25.277C33.0838 25.4217 32.9578 25.6667 32.9578 26.012C32.9578 26.264 33.0605 26.481 33.2658 26.663C33.4712 26.845 33.7978 26.936 34.2458 26.936C34.5865 26.936 34.8758 26.8613 35.1138 26.712C35.3518 26.5627 35.5315 26.376 35.6528 26.152C35.7788 25.928 35.8418 25.704 35.8418 25.48H36.2338C36.2338 25.97 36.1428 26.4227 35.9608 26.838C35.7788 27.2487 35.5082 27.5777 35.1488 27.825C34.7942 28.0723 34.3532 28.196 33.8258 28.196ZM42.4493 28.196C41.7959 28.196 41.2336 28.1073 40.7623 27.93C40.2956 27.748 39.9363 27.489 39.6843 27.153C39.4323 26.8123 39.3039 26.404 39.2993 25.928H40.8253C40.8393 26.264 40.9723 26.509 41.2243 26.663C41.4763 26.817 41.8193 26.894 42.2533 26.894C42.4913 26.894 42.7013 26.859 42.8833 26.789C43.0699 26.719 43.2146 26.6233 43.3173 26.502C43.4199 26.3807 43.4713 26.2453 43.4713 26.096C43.4713 25.9047 43.4013 25.7553 43.2613 25.648C43.1259 25.536 42.9066 25.4333 42.6033 25.34L41.1193 24.808C40.5873 24.6167 40.1789 24.3647 39.8943 24.052C39.6096 23.7393 39.4673 23.366 39.4673 22.932C39.4673 22.358 39.7263 21.896 40.2443 21.546C40.7669 21.1913 41.4646 21.014 42.3373 21.014C43.2053 21.014 43.8749 21.2053 44.3463 21.588C44.8223 21.966 45.0673 22.4467 45.0813 23.03H43.5273C43.5039 22.806 43.3966 22.6287 43.2053 22.498C43.0139 22.3673 42.7246 22.302 42.3373 22.302C41.9873 22.302 41.7119 22.3743 41.5113 22.519C41.3153 22.659 41.2173 22.8247 41.2173 23.016C41.2173 23.338 41.4926 23.5807 42.0433 23.744L43.6533 24.346C44.1759 24.5233 44.5819 24.752 44.8713 25.032C45.1606 25.312 45.3053 25.6667 45.3053 26.096C45.3053 26.4553 45.1839 26.796 44.9413 27.118C44.7033 27.4353 44.3696 27.6943 43.9403 27.895C43.5109 28.0957 43.0139 28.196 42.4493 28.196ZM49.8321 28.196C49.2534 28.196 48.7238 28.0467 48.2431 27.748C47.7624 27.4493 47.3774 27.0317 47.0881 26.495C46.7988 25.9537 46.6541 25.3213 46.6541 24.598C46.6541 23.8513 46.7964 23.2097 47.0811 22.673C47.3704 22.1363 47.7554 21.7257 48.2361 21.441C48.7168 21.1563 49.2488 21.014 49.8321 21.014C50.3734 21.014 50.8401 21.1237 51.2321 21.343C51.6288 21.5577 51.9461 21.8517 52.1841 22.225C52.4268 22.5937 52.5901 23.0113 52.6741 23.478C52.7581 23.9447 52.7628 24.4253 52.6881 24.92H47.9701V24.024H51.5191L51.1971 24.234C51.2111 24.0147 51.1994 23.793 51.1621 23.569C51.1294 23.345 51.0641 23.1397 50.9661 22.953C50.8681 22.7663 50.7281 22.617 50.5461 22.505C50.3688 22.3883 50.1401 22.33 49.8601 22.33C49.5241 22.33 49.2394 22.414 49.0061 22.582C48.7728 22.75 48.5954 22.9787 48.4741 23.268C48.3528 23.5573 48.2921 23.884 48.2921 24.248V24.906C48.2921 25.2887 48.3481 25.627 48.4601 25.921C48.5768 26.215 48.7471 26.446 48.9711 26.614C49.1998 26.782 49.4868 26.866 49.8321 26.866C50.1541 26.866 50.4248 26.7913 50.6441 26.642C50.8634 26.4927 51.0034 26.2687 51.0641 25.97H52.7301C52.6601 26.4087 52.4944 26.796 52.2331 27.132C51.9764 27.4633 51.6428 27.7247 51.2321 27.916C50.8214 28.1027 50.3548 28.196 49.8321 28.196ZM11.4201 49V46.66C11.4201 46.006 11.5101 45.442 11.6901 44.968C11.8701 44.488 12.1611 44.077 12.5631 43.735C12.9651 43.393 13.4961 43.099 14.1561 42.853L16.7211 41.899C17.1831 41.719 17.5191 41.506 17.7291 41.26C17.9391 41.014 18.0441 40.717 18.0441 40.369C18.0441 40.051 17.9181 39.769 17.6661 39.523C17.4141 39.271 17.0421 39.145 16.5501 39.145C16.0941 39.145 15.7011 39.283 15.3711 39.559C15.0411 39.835 14.8521 40.228 14.8041 40.738H11.6181C11.6121 39.79 11.8311 39.016 12.2751 38.416C12.7251 37.81 13.3221 37.366 14.0661 37.084C14.8101 36.796 15.6201 36.652 16.4961 36.652C17.3481 36.652 18.1221 36.808 18.8181 37.12C19.5201 37.432 20.0781 37.873 20.4921 38.443C20.9121 39.007 21.1221 39.679 21.1221 40.459C21.1221 41.077 21.0111 41.626 20.7891 42.106C20.5671 42.586 20.2101 43.015 19.7181 43.393C19.2261 43.765 18.5721 44.104 17.7561 44.41L15.2091 45.373C14.8611 45.505 14.6211 45.634 14.4891 45.76C14.3631 45.88 14.3001 46.039 14.3001 46.237V46.372H21.0861V49H11.4201ZM30.7597 49.224C30.1204 49.224 29.5324 49.0933 28.9957 48.832C28.4637 48.566 28.0367 48.1647 27.7147 47.628C27.3974 47.0867 27.2387 46.4007 27.2387 45.57C27.2387 44.7113 27.3974 44.0113 27.7147 43.47C28.0367 42.9287 28.4637 42.5297 28.9957 42.273C29.5324 42.0117 30.1204 41.881 30.7597 41.881C31.3851 41.881 31.9614 42.0117 32.4887 42.273C33.0161 42.5297 33.4384 42.9287 33.7557 43.47C34.0777 44.0113 34.2387 44.7113 34.2387 45.57C34.2387 46.4007 34.0777 47.0867 33.7557 47.628C33.4384 48.1647 33.0161 48.566 32.4887 48.832C31.9614 49.0933 31.3851 49.224 30.7597 49.224ZM30.6757 47.271C30.8904 47.271 31.0981 47.215 31.2987 47.103C31.5041 46.991 31.6744 46.8113 31.8097 46.564C31.9451 46.312 32.0127 45.9807 32.0127 45.57C32.0127 44.9307 31.8984 44.4803 31.6697 44.219C31.4411 43.9577 31.1657 43.827 30.8437 43.827C30.6291 43.827 30.4144 43.883 30.1997 43.995C29.9897 44.107 29.8147 44.2913 29.6747 44.548C29.5394 44.8 29.4717 45.1407 29.4717 45.57C29.4717 46.1907 29.5907 46.6293 29.8287 46.886C30.0714 47.1427 30.3537 47.271 30.6757 47.271ZM36.4565 49V41.503C36.4565 40.9617 36.5638 40.523 36.7785 40.187C36.9932 39.851 37.2732 39.606 37.6185 39.452C37.9638 39.2933 38.3278 39.214 38.7105 39.214C38.9718 39.214 39.2472 39.2327 39.5365 39.27C39.8258 39.3027 40.1035 39.3377 40.3695 39.375L39.9285 41.076C39.8352 41.0527 39.7325 41.0293 39.6205 41.006C39.5132 40.9827 39.4035 40.971 39.2915 40.971C39.1795 40.971 39.0815 40.992 38.9975 41.034C38.9135 41.076 38.8482 41.1413 38.8015 41.23C38.7548 41.314 38.7315 41.419 38.7315 41.545V49H36.4565ZM35.5395 43.554V42.105H39.8305V43.554H35.5395ZM46.2228 49V46.66C46.2228 46.006 46.3128 45.442 46.4928 44.968C46.6728 44.488 46.9638 44.077 47.3658 43.735C47.7678 43.393 48.2988 43.099 48.9588 42.853L51.5238 41.899C51.9858 41.719 52.3218 41.506 52.5318 41.26C52.7418 41.014 52.8468 40.717 52.8468 40.369C52.8468 40.051 52.7208 39.769 52.4688 39.523C52.2168 39.271 51.8448 39.145 51.3528 39.145C50.8968 39.145 50.5038 39.283 50.1738 39.559C49.8438 39.835 49.6548 40.228 49.6068 40.738H46.4208C46.4148 39.79 46.6338 39.016 47.0778 38.416C47.5278 37.81 48.1248 37.366 48.8688 37.084C49.6128 36.796 50.4228 36.652 51.2988 36.652C52.1508 36.652 52.9248 36.808 53.6208 37.12C54.3228 37.432 54.8808 37.873 55.2948 38.443C55.7148 39.007 55.9248 39.679 55.9248 40.459C55.9248 41.077 55.8138 41.626 55.5918 42.106C55.3698 42.586 55.0128 43.015 54.5208 43.393C54.0288 43.765 53.3748 44.104 52.5588 44.41L50.0118 45.373C49.6638 45.505 49.4238 45.634 49.2918 45.76C49.1658 45.88 49.1028 46.039 49.1028 46.237V46.372H55.8888V49H46.2228Z" fill="#B8CCFF"/>
</svg>
