<svg width="70" height="69" viewBox="0 0 70 69" fill="none" xmlns="http://www.w3.org/2000/svg">
<circle cx="35.2246" cy="34.5" r="34.5" fill="#9747FF"/>
<path d="M15.5647 28V18.914H18.7707C19.7927 18.914 20.5884 19.166 21.1577 19.67C21.7317 20.174 22.0187 20.888 22.0187 21.812C22.0187 22.7267 21.7317 23.436 21.1577 23.94C20.5884 24.444 19.7927 24.696 18.7707 24.696H17.2307V28H15.5647ZM17.2307 23.254H18.7707C19.284 23.254 19.6714 23.1187 19.9327 22.848C20.194 22.5773 20.3247 22.232 20.3247 21.812C20.3247 21.3827 20.194 21.0303 19.9327 20.755C19.6714 20.4797 19.284 20.342 18.7707 20.342H17.2307V23.254ZM28.3898 28V24.024C28.3898 23.52 28.2684 23.1397 28.0258 22.883C27.7831 22.6263 27.4658 22.498 27.0738 22.498C26.7424 22.498 26.4484 22.589 26.1918 22.771C25.9398 22.953 25.7414 23.2283 25.5968 23.597C25.4521 23.961 25.3798 24.416 25.3798 24.962H24.8338C24.8338 24.08 24.9434 23.3473 25.1628 22.764C25.3821 22.176 25.6924 21.7373 26.0938 21.448C26.4951 21.1587 26.9664 21.014 27.5078 21.014C28.0678 21.014 28.5344 21.14 28.9078 21.392C29.2858 21.6393 29.5681 21.9893 29.7548 22.442C29.9461 22.8947 30.0418 23.422 30.0418 24.024V28H28.3898ZM23.7278 28V18.396H25.3798V28H23.7278ZM36.7764 28L36.5664 26.348V23.618C36.5664 23.142 36.4684 22.7897 36.2724 22.561C36.0811 22.3323 35.7544 22.218 35.2924 22.218C35.0264 22.218 34.7954 22.2577 34.5994 22.337C34.4034 22.4163 34.2518 22.5307 34.1444 22.68C34.0418 22.8247 33.9904 23.002 33.9904 23.212H32.1844C32.1844 22.6987 32.3081 22.281 32.5554 21.959C32.8028 21.6323 33.1574 21.3943 33.6194 21.245C34.0861 21.091 34.6438 21.014 35.2924 21.014C35.8804 21.014 36.3938 21.1097 36.8324 21.301C37.2711 21.4877 37.6118 21.777 37.8544 22.169C38.0971 22.561 38.2184 23.0627 38.2184 23.674V28H36.7764ZM34.5504 28.196C33.9671 28.196 33.4794 28.0957 33.0874 27.895C32.7001 27.6897 32.4084 27.4213 32.2124 27.09C32.0164 26.7587 31.9184 26.3993 31.9184 26.012C31.9184 25.5827 32.0304 25.2233 32.2544 24.934C32.4831 24.64 32.8051 24.4207 33.2204 24.276C33.6358 24.1267 34.1258 24.052 34.6904 24.052C35.0591 24.052 35.4068 24.08 35.7334 24.136C36.0648 24.192 36.3938 24.2667 36.7204 24.36V25.326C36.4638 25.242 36.1838 25.1767 35.8804 25.13C35.5771 25.0833 35.2924 25.06 35.0264 25.06C34.6344 25.06 34.3124 25.1323 34.0604 25.277C33.8084 25.4217 33.6824 25.6667 33.6824 26.012C33.6824 26.264 33.7851 26.481 33.9904 26.663C34.1958 26.845 34.5224 26.936 34.9704 26.936C35.3111 26.936 35.6004 26.8613 35.8384 26.712C36.0764 26.5627 36.2561 26.376 36.3774 26.152C36.5034 25.928 36.5664 25.704 36.5664 25.48H36.9584C36.9584 25.97 36.8674 26.4227 36.6854 26.838C36.5034 27.2487 36.2328 27.5777 35.8734 27.825C35.5188 28.0723 35.0778 28.196 34.5504 28.196ZM43.1739 28.196C42.5206 28.196 41.9582 28.1073 41.4869 27.93C41.0202 27.748 40.6609 27.489 40.4089 27.153C40.1569 26.8123 40.0286 26.404 40.0239 25.928H41.5499C41.5639 26.264 41.6969 26.509 41.9489 26.663C42.2009 26.817 42.5439 26.894 42.9779 26.894C43.2159 26.894 43.4259 26.859 43.6079 26.789C43.7946 26.719 43.9392 26.6233 44.0419 26.502C44.1446 26.3807 44.1959 26.2453 44.1959 26.096C44.1959 25.9047 44.1259 25.7553 43.9859 25.648C43.8506 25.536 43.6312 25.4333 43.3279 25.34L41.8439 24.808C41.3119 24.6167 40.9036 24.3647 40.6189 24.052C40.3342 23.7393 40.1919 23.366 40.1919 22.932C40.1919 22.358 40.4509 21.896 40.9689 21.546C41.4916 21.1913 42.1892 21.014 43.0619 21.014C43.9299 21.014 44.5996 21.2053 45.0709 21.588C45.5469 21.966 45.7919 22.4467 45.8059 23.03H44.2519C44.2286 22.806 44.1212 22.6287 43.9299 22.498C43.7386 22.3673 43.4492 22.302 43.0619 22.302C42.7119 22.302 42.4366 22.3743 42.2359 22.519C42.0399 22.659 41.9419 22.8247 41.9419 23.016C41.9419 23.338 42.2172 23.5807 42.7679 23.744L44.3779 24.346C44.9006 24.5233 45.3066 24.752 45.5959 25.032C45.8852 25.312 46.0299 25.6667 46.0299 26.096C46.0299 26.4553 45.9086 26.796 45.6659 27.118C45.4279 27.4353 45.0942 27.6943 44.6649 27.895C44.2356 28.0957 43.7386 28.196 43.1739 28.196ZM50.5567 28.196C49.978 28.196 49.4484 28.0467 48.9677 27.748C48.487 27.4493 48.102 27.0317 47.8127 26.495C47.5234 25.9537 47.3787 25.3213 47.3787 24.598C47.3787 23.8513 47.521 23.2097 47.8057 22.673C48.095 22.1363 48.48 21.7257 48.9607 21.441C49.4414 21.1563 49.9734 21.014 50.5567 21.014C51.098 21.014 51.5647 21.1237 51.9567 21.343C52.3534 21.5577 52.6707 21.8517 52.9087 22.225C53.1514 22.5937 53.3147 23.0113 53.3987 23.478C53.4827 23.9447 53.4874 24.4253 53.4127 24.92H48.6947V24.024H52.2437L51.9217 24.234C51.9357 24.0147 51.924 23.793 51.8867 23.569C51.854 23.345 51.7887 23.1397 51.6907 22.953C51.5927 22.7663 51.4527 22.617 51.2707 22.505C51.0934 22.3883 50.8647 22.33 50.5847 22.33C50.2487 22.33 49.964 22.414 49.7307 22.582C49.4974 22.75 49.32 22.9787 49.1987 23.268C49.0774 23.5573 49.0167 23.884 49.0167 24.248V24.906C49.0167 25.2887 49.0727 25.627 49.1847 25.921C49.3014 26.215 49.4717 26.446 49.6957 26.614C49.9244 26.782 50.2114 26.866 50.5567 26.866C50.8787 26.866 51.1494 26.7913 51.3687 26.642C51.588 26.4927 51.728 26.2687 51.7887 25.97H53.4547C53.3847 26.4087 53.219 26.796 52.9577 27.132C52.701 27.4633 52.3674 27.7247 51.9567 27.916C51.546 28.1027 51.0794 28.196 50.5567 28.196ZM16.6541 36.814H18.7421V49H15.8621V40.279C15.5201 40.363 15.1991 40.429 14.8991 40.477C14.6051 40.525 14.3081 40.546 14.0081 40.54V37.804C14.4461 37.768 14.8721 37.675 15.2861 37.525C15.7061 37.375 16.1621 37.138 16.6541 36.814ZM29.2519 49.224C28.6126 49.224 28.0246 49.0933 27.4879 48.832C26.9559 48.566 26.5289 48.1647 26.2069 47.628C25.8896 47.0867 25.7309 46.4007 25.7309 45.57C25.7309 44.7113 25.8896 44.0113 26.2069 43.47C26.5289 42.9287 26.9559 42.5297 27.4879 42.273C28.0246 42.0117 28.6126 41.881 29.2519 41.881C29.8772 41.881 30.4536 42.0117 30.9809 42.273C31.5082 42.5297 31.9306 42.9287 32.2479 43.47C32.5699 44.0113 32.7309 44.7113 32.7309 45.57C32.7309 46.4007 32.5699 47.0867 32.2479 47.628C31.9306 48.1647 31.5082 48.566 30.9809 48.832C30.4536 49.0933 29.8772 49.224 29.2519 49.224ZM29.1679 47.271C29.3826 47.271 29.5902 47.215 29.7909 47.103C29.9962 46.991 30.1666 46.8113 30.3019 46.564C30.4372 46.312 30.5049 45.9807 30.5049 45.57C30.5049 44.9307 30.3906 44.4803 30.1619 44.219C29.9332 43.9577 29.6579 43.827 29.3359 43.827C29.1212 43.827 28.9066 43.883 28.6919 43.995C28.4819 44.107 28.3069 44.2913 28.1669 44.548C28.0316 44.8 27.9639 45.1407 27.9639 45.57C27.9639 46.1907 28.0829 46.6293 28.3209 46.886C28.5636 47.1427 28.8459 47.271 29.1679 47.271ZM34.9487 49V41.503C34.9487 40.9617 35.056 40.523 35.2707 40.187C35.4854 39.851 35.7654 39.606 36.1107 39.452C36.456 39.2933 36.82 39.214 37.2027 39.214C37.464 39.214 37.7394 39.2327 38.0287 39.27C38.318 39.3027 38.5957 39.3377 38.8617 39.375L38.4207 41.076C38.3274 41.0527 38.2247 41.0293 38.1127 41.006C38.0054 40.9827 37.8957 40.971 37.7837 40.971C37.6717 40.971 37.5737 40.992 37.4897 41.034C37.4057 41.076 37.3404 41.1413 37.2937 41.23C37.247 41.314 37.2237 41.419 37.2237 41.545V49H34.9487ZM34.0317 43.554V42.105H38.3227V43.554H34.0317ZM44.715 49V46.66C44.715 46.006 44.805 45.442 44.985 44.968C45.165 44.488 45.456 44.077 45.858 43.735C46.26 43.393 46.791 43.099 47.451 42.853L50.016 41.899C50.478 41.719 50.814 41.506 51.024 41.26C51.234 41.014 51.339 40.717 51.339 40.369C51.339 40.051 51.213 39.769 50.961 39.523C50.709 39.271 50.337 39.145 49.845 39.145C49.389 39.145 48.996 39.283 48.666 39.559C48.336 39.835 48.147 40.228 48.099 40.738H44.913C44.907 39.79 45.126 39.016 45.57 38.416C46.02 37.81 46.617 37.366 47.361 37.084C48.105 36.796 48.915 36.652 49.791 36.652C50.643 36.652 51.417 36.808 52.113 37.12C52.815 37.432 53.373 37.873 53.787 38.443C54.207 39.007 54.417 39.679 54.417 40.459C54.417 41.077 54.306 41.626 54.084 42.106C53.862 42.586 53.505 43.015 53.013 43.393C52.521 43.765 51.867 44.104 51.051 44.41L48.504 45.373C48.156 45.505 47.916 45.634 47.784 45.76C47.658 45.88 47.595 46.039 47.595 46.237V46.372H54.381V49H44.715Z" fill="#E2CBFF"/>
</svg>
