<svg width="1090" height="525" viewBox="0 0 1090 525" fill="none" xmlns="http://www.w3.org/2000/svg">
<ellipse opacity="0.6" cx="545.226" cy="500.034" rx="80.1677" ry="21.4712" fill="url(#paint0_radial_13903_162423)"/>
<mask id="mask0_13903_162423" style="mask-type:alpha" maskUnits="userSpaceOnUse" x="496" y="431" width="98" height="82">
<path d="M510.349 472.374C513.777 457.463 515.148 443.923 512.749 431.069H575.819C572.906 439.125 573.29 453.092 577.704 472.374C580.961 486.599 586.726 501.147 593.986 512.821H496.467C499.811 503.422 507.607 484.302 510.349 472.374Z" fill="#D9D9D9"/>
</mask>
<g mask="url(#mask0_13903_162423)">
<path fill-rule="evenodd" clip-rule="evenodd" d="M501.655 499.288L501.635 499.454H501.65C501.65 499.462 501.65 499.47 501.65 499.478C501.65 506.13 520.659 511.523 544.108 511.523C567.556 511.523 586.565 506.13 586.565 499.478C586.565 499.47 586.565 499.462 586.565 499.454H586.568L586.565 499.436C586.561 499.123 586.515 498.812 586.429 498.505L576.768 432.532H509.823L501.713 498.818C501.683 498.974 501.664 499.131 501.655 499.288Z" fill="#2D2C2E"/>
<path fill-rule="evenodd" clip-rule="evenodd" d="M574.579 448.855C574.127 451.97 560.648 454.468 544.085 454.468C527.485 454.468 513.982 451.958 513.588 448.834L511.382 465.603C511.351 465.726 511.335 465.85 511.333 465.975L511.311 466.143H511.338C511.662 470.118 526.209 473.318 544.106 473.318C562.004 473.318 576.551 470.118 576.875 466.143H576.912L576.873 465.852C576.869 465.806 576.863 465.76 576.855 465.714L574.579 448.855Z" fill="url(#paint1_linear_13903_162423)"/>
</g>
<ellipse cx="544.108" cy="425.27" rx="58.3461" ry="13.2417" fill="#3A393A"/>
<ellipse opacity="0.8" cx="544.108" cy="425.27" rx="51.9983" ry="11.7194" fill="url(#paint2_radial_13903_162423)"/>
<mask id="mask1_13903_162423" style="mask-type:alpha" maskUnits="userSpaceOnUse" x="-14" y="0" width="1032" height="433">
<path fill-rule="evenodd" clip-rule="evenodd" d="M1017.16 0.4375H-13.8574V424.513H507.043C507.043 428.74 523.739 432.167 544.335 432.167C564.93 432.167 581.626 428.74 581.626 424.513H1017.16V0.4375Z" fill="#D9D9D9"/>
</mask>
<g mask="url(#mask1_13903_162423)">
<path d="M609.46 353.628C588.246 375.944 581.139 417.978 581.139 433.11H507.298C507.298 420.639 505.485 393.704 483.806 357.736C460.245 318.647 415.705 321.92 382.209 308.059C342.852 291.774 312.774 257.603 273.396 217.637C215.498 158.875 161.708 209.193 128.279 127.51C95.1857 46.6453 17.5794 37.4831 0.900391 0.395508H1004.29C998.244 26.2891 954.677 34.8389 928.444 65.7008C895.654 104.278 900.487 146.362 846.789 173.075C793.091 199.788 785.113 239.64 745.424 280.127C705.736 320.615 681.367 315.609 663.459 320.017C645.551 324.425 630.674 331.312 609.46 353.628Z" fill="url(#paint3_linear_13903_162423)"/>
<path d="M621.05 318.373C589.069 330.673 574.106 358.255 565.198 433.973H525.99C516.203 355.825 504.604 335.497 469.625 320.357C425.901 301.432 416.112 274.676 413.502 244.656C410.891 214.637 408.281 166.998 350.853 167.977C293.425 168.956 234.306 108.063 217.054 62.581C203.253 26.1954 163.208 10.7343 144.91 -0.244141H879.36C850.147 15.1314 821.702 42.3812 812.476 84.6641C803.251 126.947 755.587 161.542 719.454 171.536C683.321 181.53 682.553 210.744 677.94 241.495C673.327 272.246 661.027 302.997 621.05 318.373Z" fill="url(#paint4_linear_13903_162423)"/>
<mask id="mask2_13903_162423" style="mask-type:alpha" maskUnits="userSpaceOnUse" x="289" y="0" width="513" height="439">
<rect x="289.193" y="0.4375" width="511.973" height="438.074" fill="url(#paint5_linear_13903_162423)"/>
</mask>
<g mask="url(#mask2_13903_162423)">
<mask id="mask3_13903_162423" style="mask-type:alpha" maskUnits="userSpaceOnUse" x="526" y="413" width="25" height="22">
<path fill-rule="evenodd" clip-rule="evenodd" d="M538.052 419.079C538.456 419.261 540.243 418.036 540.54 417.669C541.765 416.156 543.035 414.671 544.42 413.303C544.765 412.961 545.385 413.313 545.687 413.423C546.666 413.775 549.464 414.262 549.069 416.076C548.45 418.912 545.305 419.675 543.905 421.954C543.553 422.528 543.981 422.913 544.39 423.185C545.493 423.926 546.69 424.525 547.767 425.302C548.493 425.826 549.171 426.422 549.78 427.076C552.48 429.979 548.647 432.959 546.262 434.15C545.452 434.554 544.884 434.185 544.337 433.626C542.826 432.081 541.644 429.937 539.376 429.355C538.208 429.056 537.808 430.788 537.327 431.337C535.915 432.952 534.528 434.806 532.302 434.729C531.761 434.709 530.928 433.761 530.11 433.244C528.085 431.968 532.428 428.876 533.48 427.396C533.946 426.739 534.28 425.995 534.599 425.259C534.694 425.037 534.872 424.727 534.712 424.545C534.218 423.989 532.304 423.427 531.7 423.098C530.611 422.501 529.573 421.815 528.523 421.153C527.921 420.771 526.577 420.12 526.999 419.109C527.332 418.308 527.753 417.539 528.221 416.81C528.609 416.203 529.019 415.592 529.557 415.115C530.855 413.967 532.481 415.652 533.397 416.298C535.639 417.878 535.567 417.961 538.052 419.079Z" fill="#D9B564"/>
</mask>
<g mask="url(#mask3_13903_162423)">
<rect x="526.293" y="412.028" width="26.9092" height="23.6634" fill="#D9B564"/>
<ellipse opacity="0.3" cx="544.106" cy="425.27" rx="51.9983" ry="11.7194" fill="url(#paint6_radial_13903_162423)"/>
</g>
<path fill-rule="evenodd" clip-rule="evenodd" d="M661.194 282.615C659.694 283.351 658.219 284.142 656.681 284.796C655.069 285.483 653.411 286.064 651.751 286.636C650.991 286.898 649.666 286.933 649.109 287.719C648.709 288.286 649.194 290.15 649.306 290.515C649.476 291.069 650.084 292.766 650.871 293.046C652.491 293.622 655.646 290.323 656.506 292.801C657.646 296.091 657.939 297.259 658.461 300.674C658.639 301.842 658.381 305.244 660.199 305.93C660.451 306.025 660.736 306.075 661.006 306.043C663.911 305.703 663.544 304.622 663.339 301.862C663.069 298.195 661.596 294.838 661.626 291.144C661.631 290.363 661.744 289.297 662.706 289.002C664.236 288.533 665.301 291.713 665.566 292.382C666.896 295.734 667.554 297.883 670.381 300.364C671.126 301.018 673.249 302.341 674.409 301.969C674.961 301.792 675.096 301.033 675.406 300.546C675.861 299.835 676.529 299.211 676.744 298.397C676.916 297.748 675.794 297.406 675.189 297.112C674.239 296.648 672.506 296.238 671.904 295.143C670.561 292.709 669.499 290.13 668.434 287.565C668.126 286.826 668.371 286.349 669.016 285.95C669.786 285.47 671.966 285.039 672.266 283.853C672.491 282.964 671.376 280.184 670.334 280.022C669.611 279.909 668.869 280.089 668.154 280.236C667.416 280.388 666.714 280.675 666.001 280.92C664.394 281.469 662.719 281.866 661.194 282.615Z" fill="#3B53DF"/>
<path fill-rule="evenodd" clip-rule="evenodd" d="M683.539 227.12C683.824 225.259 682.939 222.004 682.681 220.21C682.594 219.589 682.556 218.551 683.164 218.087C683.744 217.645 685.446 217.475 686.111 217.393C686.674 217.323 687.236 217.191 687.804 217.209C689.311 217.255 689.771 218.698 689.909 219.981C690.074 221.504 689.401 224.76 690.301 226.325C690.729 227.072 691.714 227.267 692.454 227.216C695.134 227.03 699.071 226.302 699.434 229.386C699.564 230.479 700.169 234.191 695.899 233.505C694.889 233.343 693.869 233.226 692.849 233.183C692.494 233.168 691.234 233.374 691.091 233.888C690.371 236.502 693.256 242.778 688.761 243.386C687.954 243.495 687.129 243.494 686.316 243.426C682.971 243.147 684.374 237.684 684.504 236.028C684.539 235.572 684.629 234.275 684.239 233.87C683.024 232.605 679.464 233.282 678.204 233.388C677.876 233.416 676.036 233.771 675.701 233.433C674.914 232.639 674.821 230.152 674.419 229.24C674.004 228.301 675.869 228.361 676.771 228.195C678.914 227.801 680.511 227.397 681.749 228.012C682.319 228.296 683.204 227.763 683.539 227.12Z" fill="#D9B564"/>
<path fill-rule="evenodd" clip-rule="evenodd" d="M400.359 195.01C400.145 195.896 399.981 196.579 399.663 196.639C398.88 196.786 398.678 193.155 398.654 191.814C398.603 189.048 400.161 186.72 401.659 184.483C402.174 183.712 402.683 182.952 403.116 182.189C403.767 181.043 402.191 180.374 401.331 180.419C398.457 180.569 396.681 183.685 395.604 185.858C394.998 187.079 394.45 188.353 394.176 189.687C393.853 191.261 393.774 192.889 393.828 194.496C394.001 199.587 396.893 206.964 403.14 206.475C409.328 205.99 414.269 198.141 410.375 192.748C408.962 190.791 404.437 189.5 402.25 191.118C401.089 191.976 400.671 193.712 400.359 195.01ZM404.262 195.472C402.983 196.007 402.142 197.414 402.364 198.796C402.335 199.812 402.995 201.268 403.144 201.349C404.653 202.17 405.344 202.354 406.048 200.881C406.698 199.519 407.11 198.203 406.97 196.722C406.852 195.468 405.285 195.045 404.262 195.472Z" fill="#4DD4B3"/>
<path fill-rule="evenodd" clip-rule="evenodd" d="M703.668 147.229C704.69 147.875 705.955 148.902 706.645 149.917C707.545 151.244 706.948 153.464 705.158 153.607C702.33 153.832 699.985 151.833 697.553 150.826C696.77 150.502 695.138 150.185 694.598 151.21C694.223 151.921 694 152.703 693.713 153.454C693.62 153.697 693.295 154.463 693.545 154.749C695.625 157.143 699.543 156.763 701.525 159.242C702.428 160.367 702.65 161.82 702.753 163.22C702.798 163.834 702.748 164.472 702.558 165.057C702.168 166.249 701.735 167.458 701.03 168.496C697.015 174.418 689.943 173.925 684.383 170.526C682.64 169.461 682.635 167.175 682.788 165.41C682.873 164.456 683.345 162.712 684.683 162.796C686.545 162.914 687.533 164.775 688.9 165.707C689.763 166.295 691.388 166.652 692.398 166.731C693.098 166.786 694.69 167.005 695.38 166.271C696.398 165.193 695.583 163.033 694.945 162.037C692.993 158.989 686.835 160.596 686.778 156.099C686.763 154.843 687.658 152.537 687.908 151.672C688.453 149.796 688.863 146.701 690.53 145.248C693.13 142.979 696.25 144.004 699.075 145.195C700.618 145.845 702.25 146.337 703.668 147.229Z" fill="#DE7C4A"/>
<path fill-rule="evenodd" clip-rule="evenodd" d="M383.725 102.893C384.777 102.901 385.688 102.482 386.752 102.781C388.247 103.203 387.566 105.306 387.402 106.208C386.956 108.659 386.503 111.109 386.015 113.552C385.759 114.837 384.754 116.972 386.204 118.062C386.861 118.557 387.651 118.845 388.381 119.224C388.708 119.395 389.021 119.608 389.375 119.712C392.211 120.544 393.881 116.572 394.891 114.874C397.577 110.355 399.164 107.278 402.15 102.941C402.63 102.244 402.969 101.174 403.801 101.008C405.136 100.741 409.212 102.378 410.175 104.014C410.454 104.487 408.659 106.078 409.83 106.593C410.667 106.961 414.509 108.53 414.537 106.146C414.553 104.716 414.482 103.287 414.42 101.859C414.408 101.586 414.539 101.203 414.315 101.046C413.647 100.577 412.771 100.51 412.025 100.18C410.112 99.3322 408.24 98.3974 406.344 97.5136C404.662 96.7296 402.354 95.0989 400.527 96.6864C399.662 97.4374 399.11 98.9977 398.553 99.9345C396.425 103.51 394.219 107.039 392.07 110.602C391.334 111.822 390.678 113.09 389.898 114.282C389.85 114.355 389.633 114.406 389.639 114.319C389.913 110.693 390.397 107.085 390.716 103.462C390.811 102.387 390.852 100.987 390.304 99.9874C389.355 98.2601 386.609 98.626 385.127 98.5799C384.323 98.5547 383.507 98.3849 382.79 98.9321C381.289 100.077 381.447 102.876 383.725 102.893Z" fill="#E9529E"/>
<path fill-rule="evenodd" clip-rule="evenodd" d="M405.683 14.5456C405.282 13.6862 405.219 12.8393 405.475 11.8766C405.663 11.1702 406.367 10.6795 407.033 10.4831C408.632 10.0113 410.488 10.7052 411.086 12.3331C411.301 12.9189 411.081 13.5462 410.824 14.0764C410.11 15.548 408.738 16.2215 407.209 15.6069C406.761 15.4267 405.974 15.1689 405.683 14.5456Z" fill="#3B53DF"/>
<path fill-rule="evenodd" clip-rule="evenodd" d="M413.807 27.9226C413.962 26.8491 414.648 25.969 415.602 25.4767C416.985 24.7639 419.117 25.4745 419.55 27.0348C419.677 27.4903 419.7 28.0394 419.638 28.5062C419.432 30.05 417.885 31.5022 416.265 31.0863C415.587 30.9121 415.158 30.212 414.758 29.7183C414.379 29.2498 413.705 28.6292 413.807 27.9226Z" fill="#3B53DF"/>
<path fill-rule="evenodd" clip-rule="evenodd" d="M400.279 24.293C400.298 24.2778 400.209 24.3174 400.209 24.3174C399.942 24.2768 400.573 23.9106 400.8 23.7643C401.344 23.4144 401.948 23.167 402.506 22.8393C404.373 21.742 406.209 20.5911 408.075 19.4906C410.786 17.8911 413.55 16.3818 416.236 14.7399C418.071 13.6179 422.006 9.69688 424.424 12.4193C424.821 12.8664 425.15 13.3768 425.423 13.9082C426.788 16.5615 422.442 18.4882 420.988 19.3633C413.024 24.1569 410.636 25.6718 402.236 29.6749C401.279 30.131 400.577 28.5432 400.242 28.083C399.806 27.4839 398.315 26.1423 399.126 25.1673C399.434 24.7964 400.099 24.4348 400.279 24.293Z" fill="#3B53DF"/>
<path fill-rule="evenodd" clip-rule="evenodd" d="M484.982 25.3274C487.124 25.3331 489.223 24.9637 491.356 24.7688C493.689 24.5554 496.054 24.3966 498.378 24.1026C499.042 24.0182 500.405 23.4743 501.115 23.7137C502.965 24.3367 504.768 28.2121 502.353 29.2175C500.968 29.7943 500.658 29.6278 499.197 29.7751C494.953 30.2022 490.717 30.7124 486.468 31.1002C485.372 31.2003 484.029 31.2545 483.279 30.2658C482.331 29.0163 481.879 26.807 483.255 25.6516C483.622 25.3439 484.562 25.3516 484.982 25.3274Z" fill="#7F38E9"/>
<path fill-rule="evenodd" clip-rule="evenodd" d="M485.257 34.1341C487.941 33.6154 489.225 33.4584 491.676 33.3723C493.421 33.3109 495.142 32.936 496.87 32.6804C498.422 32.4508 501.61 31.5807 502.884 32.5703C503.87 33.3371 504.431 36.2425 503.531 37.6133C503.031 38.3744 501.49 38.4894 500.743 38.5875C495.282 39.3047 495.27 38.9083 489.815 39.4934C488.887 39.5927 487.201 40.2045 486.239 40.1129C484.23 39.9214 484.137 37.4159 484.11 35.9824C484.094 35.1647 484.398 34.4104 485.257 34.1341Z" fill="#7F38E9"/>
<path fill-rule="evenodd" clip-rule="evenodd" d="M563.423 6.29665C564.982 5.97216 566.599 6.05203 568.18 5.86508C572.542 5.34965 576.903 4.81849 581.25 4.19024C582.551 4.00229 585.266 3.12043 586.613 3.1721C588.86 3.25822 589.886 6.44965 588.645 8.08606C588.278 8.57029 586.786 9.17283 586.23 9.26993C578.084 10.6919 571.957 11.4652 563.729 12.2896C561.025 12.5605 560.799 8.74601 561.767 7.018C562.174 6.2929 562.76 6.43493 563.423 6.29665Z" fill="#E9529E"/>
<path fill-rule="evenodd" clip-rule="evenodd" d="M666.677 13.7742C667.3 15.0559 667.502 16.1442 666.81 17.2315C665.855 18.7366 663.26 16.739 662.6 15.7973C659.322 11.1109 660.602 6.36222 664.845 4.22511C669.43 1.91577 674.975 3.24292 676.722 9.84994C677.172 11.5585 677.337 13.3314 677.567 15.0834C677.607 15.3979 677.7 16.6035 678.112 16.8783C678.5 17.1369 678.78 16.1944 678.937 15.9468C679.435 15.158 679.81 14.2969 680.27 13.4842C680.61 12.8816 681.727 10.9357 682.352 10.5339C684.57 9.10836 687.115 11.4759 687.36 13.6492C687.447 14.4182 686.86 15.176 686.47 15.7426C684.795 18.1712 683.197 20.6558 681.415 23.0076C680.647 24.0197 679.232 25.3349 677.805 24.6732C676.682 24.154 675.592 23.5547 674.577 22.8501C670.215 19.8196 674.995 13.3998 671.16 10.0723C669.57 8.69202 666.557 8.31462 666.035 10.8394C665.78 12.0851 666.182 12.7588 666.677 13.7742Z" fill="#DE7C4A"/>
<path fill-rule="evenodd" clip-rule="evenodd" d="M656.07 79.5606C657.222 78.4643 659.282 76.7126 660.857 79.0913C661.304 79.7648 661.897 80.433 662.334 81.1111C663.464 82.8549 664.912 84.5205 665.382 86.7235C665.512 87.331 666.402 88.1425 666.734 87.1748C667.007 86.3863 666.812 84.8163 666.747 84.3787C665.972 79.2256 665.604 76.0864 665.594 70.8684C665.594 70.5759 665.704 70.2766 665.867 70.0345C666.317 69.3743 667.622 69.0318 668.172 68.8196C670.962 67.7428 676.564 65.1849 678.527 68.9447C679.512 70.8369 678.435 72.6391 676.345 72.828C675.232 72.9284 676.179 71.1766 675.184 71.0059C673.719 70.7543 670.75 70.2861 669.91 72.2158C669.337 73.5287 669.779 74.578 669.807 75.9074C669.897 79.9944 670.449 85.0017 670.389 89.0892C670.367 90.5951 669.864 91.8404 667.982 92.3585C666.097 92.8765 665.482 92.0505 664.612 90.9208C662.819 88.5895 661.412 84.5617 660.04 81.846C659.205 80.1951 656.467 84.3535 656.144 84.0782C655.812 83.7966 655.452 83.5141 655.244 83.1309C654.954 82.592 654.61 82.0779 654.382 81.5093C654.085 80.7702 655.437 80.1639 656.07 79.5606Z" fill="#4DD4B3"/>
<path fill-rule="evenodd" clip-rule="evenodd" d="M501.542 293.79C504.342 298.925 507.172 304.116 508.785 309.764C508.982 310.454 509.216 311.134 509.45 311.814C509.771 312.748 510.092 313.682 510.317 314.641C510.867 316.987 509.969 320.447 507.503 318.927C504.539 317.1 503.932 316.296 502.781 313.328C502.425 312.412 499.448 303.386 499.173 301.831C499.079 301.3 498.698 301.712 498.161 302.291C497.656 302.836 497.012 303.531 496.34 303.728C495.811 303.884 495.364 304.317 494.915 304.753C494.492 305.163 494.067 305.575 493.572 305.755C488.561 307.575 484.938 302.086 483.514 298.135C481.228 291.795 486.436 286.421 491.68 286.016C491.749 286.011 491.817 286.006 491.884 286.001C493.445 285.88 494.607 285.79 496.257 286.498C498.099 287.287 499.057 289.126 499.939 290.817C500.065 291.059 500.189 291.298 500.314 291.53C500.72 292.283 501.131 293.036 501.542 293.79ZM491.692 292.525C491.897 292.552 492.095 292.579 492.267 292.579L492.201 292.642C492.2 292.749 492.484 293.014 492.747 293.258C492.926 293.424 493.094 293.582 493.155 293.673C493.25 293.813 493.343 293.947 493.433 294.078C493.911 294.767 494.326 295.367 494.546 296.241C494.903 297.661 493.797 301.263 491.698 300.185C490.265 299.446 489.871 296.011 489.881 294.609C489.885 294.03 489.909 292.844 490.475 292.567C490.803 292.406 491.264 292.468 491.692 292.525Z" fill="#D9B564"/>
<path fill-rule="evenodd" clip-rule="evenodd" d="M609.085 333.986C609.545 333.991 610.194 332.813 610.349 332.551C611 331.435 612.504 329.625 611.104 328.345C608.008 325.517 597.174 321.501 595.67 322.075C594.756 322.424 594.38 323.048 593.871 323.815C593.214 324.803 591.764 326.49 592.638 327.856C593.117 328.605 596.134 332.928 597.023 334.445C597.157 334.675 598.282 336.335 597.933 336.754C597.587 337.171 594.976 337.298 594.568 337.388C593.06 337.715 586.346 338.099 585.003 339.42C584.412 340.001 581.83 344.302 582.005 344.527C582.347 344.971 590.138 349.292 591.482 350.704C594.379 353.75 597.685 353.807 597.681 352.726C597.68 352.374 598.46 353.021 598.737 352.804C599.43 352.257 601.33 349.097 601.601 348.283C602.17 346.581 597.488 345.098 597.275 345.36C597.065 345.618 596.187 350.27 595.209 348.962C593.278 346.384 589.173 344.085 589.236 343.608C589.457 341.936 594.904 342.063 596.955 341.796C598.082 341.649 599.238 341.806 600.362 341.631C602.386 341.319 603.686 339.001 604.114 337.258C604.318 336.432 603.407 335.666 603.012 335.149C601.327 332.955 599.684 330.729 597.993 328.537C597.761 328.238 596.456 327.174 597.08 326.558C599.523 324.142 606.776 330.754 606.675 330.943C606.401 331.46 605.598 332.668 606 333.372C606.495 334.241 608.234 335.044 609.084 334.116L609.085 333.986Z" fill="#E9529E"/>
<path fill-rule="evenodd" clip-rule="evenodd" d="M607.045 273.106C605.144 272.177 604.562 274.526 604.819 275.494C605.095 276.535 605.376 278.482 605.497 279.523C605.847 282.521 605.586 285.498 607.057 288.237C608.512 290.942 612.49 286.522 613.298 285.895C613.505 285.736 614.559 285.164 614.874 285.281C617.423 286.217 617.948 289.42 620.118 290.843C620.579 291.145 621.727 291.264 622.193 290.857C622.758 290.366 623.908 288.571 623.784 288.359C622.796 286.657 620.759 285.351 619.665 283.746C618.639 282.239 622.55 279.925 622.398 279.748C622.005 279.281 620.354 277.476 619.902 277.032C619.698 276.83 617.191 279.398 616.19 278.115C615.252 276.912 615.169 275.981 614.323 274.728C613.882 274.077 611.977 270.575 610.784 270.64C610.135 270.677 608.107 271.034 607.932 272.047C607.816 272.724 608.265 273.385 608.546 273.932C609.475 275.739 613.821 281.487 612.917 281.655C612.748 281.687 610.715 283.255 610.041 283.719C609.32 284.216 609.549 282.685 609.38 281.977C608.799 279.54 608.175 277.114 607.596 274.681C607.51 274.319 607.473 273.348 607.045 273.106Z" fill="#4DD4B3"/>
<path fill-rule="evenodd" clip-rule="evenodd" d="M448.525 267.48C448.101 266.549 452.246 264.362 452.663 264.158C454.485 263.262 456.524 262.478 458.157 261.277C459.369 260.386 460.817 259.815 462.075 258.978C464.469 257.386 466.794 255.369 469.367 254.114C470.288 253.664 471.154 252.908 472.142 252.671C472.384 252.614 472.959 252.371 473.23 252.516C474.357 253.123 474.897 253.877 475.485 255.022C475.594 255.234 476.227 256.662 476.012 256.867C475.028 257.798 473.431 258.781 472.307 259.865C470.809 261.31 468.818 262.543 467.024 263.611C465.838 264.32 464.651 265.149 463.54 265.967C461.847 267.213 459.716 267.929 457.833 268.845C456.461 269.514 455.126 270.261 453.755 270.927C453.116 271.236 452.037 271.903 451.309 271.663C450.201 271.301 449.309 270.375 448.779 269.322C448.52 268.808 448.765 268.009 448.525 267.48Z" fill="#7F38E9"/>
<path fill-rule="evenodd" clip-rule="evenodd" d="M460.945 270.383C459.906 270.58 456.646 274.132 457.059 275.816C457.154 276.2 457.342 276.57 457.53 276.938C457.734 277.338 457.937 277.737 458.018 278.15C458.24 279.291 459.113 280.452 460.165 280.976C461.804 281.794 464.648 280.596 465.916 279.56C466.058 279.445 466.211 279.327 466.368 279.207C467.077 278.664 467.875 278.052 468.101 277.197C469.161 273.201 464.621 269.686 460.945 270.383ZM461.297 274.37C460.967 274.682 460.544 276.711 461.008 277.183C461.458 277.637 463.302 277.644 463.879 277.093C463.982 276.995 464.07 276.816 464.158 276.634C464.242 276.462 464.326 276.288 464.427 276.179C464.603 275.987 464.279 275.323 464.18 275.12C464.175 275.11 464.17 275.101 464.167 275.094C463.778 274.292 462.134 273.578 461.297 274.37Z" fill="#7F38E9"/>
<path fill-rule="evenodd" clip-rule="evenodd" d="M457.299 245.794C456.305 246.503 455.628 250.468 457.469 252.285C457.878 252.689 458.211 253.085 458.512 253.443C459.485 254.601 460.128 255.366 461.944 254.751C463.896 254.087 465.425 252.25 465.933 250.348C466.681 247.547 464.032 244.571 461.54 243.555C460.563 243.156 459.146 244.312 458.071 245.187C457.784 245.421 457.522 245.635 457.299 245.794ZM461.437 247.529C460.309 246.981 460.296 248.116 460.296 248.116C459.37 248.992 460.007 251.673 461.519 250.937C462.608 250.405 462.471 248.029 461.437 247.529Z" fill="#7F38E9"/>
<path fill-rule="evenodd" clip-rule="evenodd" d="M544.919 333.565C543.969 336.83 543.326 339.97 544.088 343.314C544.425 344.792 545.191 346.789 546 348.078L546.018 348.107C546.494 348.864 546.984 349.644 547.666 350.222C550.197 352.366 553.489 350.742 555.131 348.389C557.669 344.75 558.609 340.232 557.807 335.879C556.984 331.416 553.132 325.951 547.927 328.417C546.418 329.13 545.28 332.325 544.919 333.565ZM548.533 338.696C548.271 337.723 549.713 335.479 550.607 335.359C551.516 335.234 552.708 335.357 553.131 337.091C553.542 338.781 553.311 340.521 552.656 342.096C552.471 342.54 552.114 343.167 551.712 343.464C550.928 344.038 549.881 343.491 549.507 342.71C549.142 341.948 548.996 341.102 548.848 340.24C548.759 339.726 548.67 339.207 548.533 338.696Z" fill="#4DD4B3"/>
<path fill-rule="evenodd" clip-rule="evenodd" d="M546.104 289.851C544.288 289.946 542.071 286.185 545.704 284.787C547.647 284.038 549.617 283.344 551.5 282.456C554.44 281.068 557.299 279.515 560.23 278.11C561.024 277.728 561.814 277.301 562.671 277.092C564.245 276.707 565.457 278.951 565.816 279.992C566.052 280.678 565.368 280.961 564.953 281.17C563.132 282.096 561.303 283.007 559.462 283.893C556.711 285.216 553.928 286.474 551.177 287.8C550.158 288.289 549.167 288.836 548.155 289.337C547.725 289.552 546.741 289.819 546.104 289.851Z" fill="#D9B564"/>
<path fill-rule="evenodd" clip-rule="evenodd" d="M540.186 260.992C541.045 260.57 541.411 261.426 542.031 261.663C543.652 262.285 545.307 262.819 546.977 263.293C550.372 264.259 553.802 265.101 557.219 265.987C559.085 266.471 562.379 266.685 563.108 269.082C563.315 269.761 563.223 270.499 563.221 271.211C563.219 271.755 563.179 272.302 563.097 272.841C562.808 274.713 562.187 274.858 560.316 275.347C557.915 275.976 553.182 276.864 550.894 277.905C548.826 278.846 546.853 280.004 544.98 281.287C544.173 281.841 543.671 282.753 542.914 283.372C542.723 283.529 541.838 282.678 541.616 282.251C540.989 281.045 539.912 279.615 539.666 278.225C539.379 276.597 542.116 276.031 542.979 275.749C546.296 274.668 549.608 273.57 552.95 272.566C554.121 272.214 557.514 272.234 557.384 270.442C557.297 269.249 554.352 269.621 553.9 269.486C550.199 268.393 545.105 268.637 541.594 266.793C541.175 266.573 539.392 266.713 538.965 266.378C537.233 265.021 538.55 261.796 540.186 260.992Z" fill="#D9B564"/>
<path fill-rule="evenodd" clip-rule="evenodd" d="M408.726 245.401C409.114 245.924 409.766 246.2 410.352 246.484C413.333 247.928 414.22 241.351 417.062 243.373C418.795 244.606 419.046 247.723 416.887 248.691C415.521 249.305 413.77 248.557 412.659 249.826C412.374 250.152 412.328 250.626 412.136 251.013C411.957 251.375 411.333 252.183 411.466 252.672C411.596 253.147 412.448 253.187 412.76 253.264C414.271 253.643 417.213 253.836 416.653 256.259C416.544 256.731 416.197 257.12 415.886 257.492C415.626 257.804 415.313 258.081 414.962 258.284C413.379 259.195 411.343 258.9 409.822 257.984C409.032 257.507 408.332 255.303 406.934 255.92C406.368 256.172 405.879 256.581 405.422 256.998C404.966 257.415 404.396 257.812 404.215 258.403C404.103 258.768 404.495 259.117 404.669 259.459C404.981 260.068 405.282 260.69 405.672 261.256C408.306 265.07 413.877 265.407 417.826 263.638C421.178 262.135 423.057 258.356 422.947 254.799C422.931 254.262 422.82 253.696 422.534 253.242C422.067 252.5 419.491 251.245 420.688 250.688C422.046 250.056 423.004 249.603 423.968 247.823C426.573 243.011 423.856 239.436 418.981 237.851C416.284 236.974 412.855 237.456 410.88 239.43C409.758 240.551 406.819 243.543 408.726 245.401Z" fill="#DE7C4A"/>
<path fill-rule="evenodd" clip-rule="evenodd" d="M518.106 352.077C517.797 351.758 516.786 351.885 516.465 352.037C513.499 353.453 513.685 353.697 510.991 355.559C506.723 358.51 505.58 358.886 501.702 362.368C500.715 363.255 499.887 364.523 499.879 365.913C499.873 366.919 500.871 369.03 501.093 369.969C501.353 371.067 500.998 371.841 501.649 372.864C502.59 374.349 505.086 373.758 506.374 373.768C510.874 373.798 515.374 373.86 519.873 373.96C520.521 373.975 523.293 374.639 523.737 373.411C523.954 372.812 523.595 371.287 523.495 370.715C523.403 370.184 523.211 368.556 522.813 368.102C522.24 367.453 521.05 367.408 520.297 367.388C516.876 367.303 515.543 367.301 512.151 367.79C510.622 368.012 509.117 368.384 507.589 368.619C507.455 368.638 506.711 368.581 506.703 368.274C506.647 366.005 509.043 365.216 510.593 364.26C513.186 362.658 515.747 361.006 518.341 359.406C519.002 358.996 520.769 358.195 521.155 357.401C521.329 357.042 521.145 356.58 520.983 356.216C520.499 355.125 518.932 352.933 518.106 352.077Z" fill="#3B53DF"/>
<path fill-rule="evenodd" clip-rule="evenodd" d="M552.033 378.062C552.328 377.198 554.145 377.523 554.68 377.353C556.141 376.884 558.898 375.291 560.702 376.215C564.382 378.099 564.255 380.74 567.936 382.54C569.076 383.099 573.793 382.175 574.222 382.587C574.35 382.709 574.773 385.482 574.47 385.769C572.908 387.247 567.309 389.361 564.99 386.978C563.422 385.365 561.799 383.174 560.382 381.666C559.192 380.4 553.788 384.097 552.727 383.064C551.859 382.218 551.708 379.013 552.033 378.062Z" fill="#7F38E9"/>
<path fill-rule="evenodd" clip-rule="evenodd" d="M549.879 392.968C549.035 392.746 548.84 388.193 550.386 387.15C550.981 386.748 555.477 384.554 557.304 385.932C559.771 387.791 561.81 391.211 565.086 392.806C567.254 393.864 570.744 392.254 572.103 391.588C573.377 390.964 574.604 393.687 573.997 394.872C573.225 396.38 570.993 396.168 569.429 396.934C568.548 397.366 565.3 399.016 564.313 398.529C561.555 397.169 558.31 395.429 557.984 392.756C557.46 388.45 551.474 393.39 549.879 392.968Z" fill="#7F38E9"/>
<path fill-rule="evenodd" clip-rule="evenodd" d="M331.35 53.4159C331.694 53.6965 333.737 52.9746 334.119 52.6971C335.693 51.5528 337.304 50.4465 338.996 49.4834C339.418 49.2423 339.925 49.7425 340.188 49.9267C341.044 50.52 343.621 51.7138 342.77 53.3645C341.439 55.9435 338.202 55.8678 336.261 57.7072C335.772 58.1706 336.087 58.6528 336.412 59.0214C337.285 60.0228 338.287 60.911 339.126 61.9393C339.691 62.6333 340.192 63.3849 340.612 64.1742C342.469 67.6766 337.996 69.5642 335.384 70.0974C334.497 70.2786 334.044 69.7749 333.66 69.0935C332.6 67.2102 332.013 64.8333 329.973 63.6851C328.922 63.0936 328.087 64.6634 327.48 65.0695C325.699 66.2645 323.879 67.6971 321.749 67.0468C321.232 66.8876 320.672 65.756 320.016 65.0453C318.39 63.2896 323.384 61.4252 324.784 60.2676C325.403 59.7539 325.918 59.1217 326.417 58.4929C326.566 58.303 326.818 58.05 326.711 57.8326C326.377 57.1671 324.673 56.1296 324.176 55.6553C323.278 54.7973 322.453 53.8658 321.609 52.9553C321.127 52.4308 319.997 51.4538 320.666 50.5864C321.195 49.8988 321.8 49.2648 322.441 48.6819C322.972 48.1963 323.526 47.7115 324.17 47.3903C325.721 46.6168 326.855 48.6647 327.573 49.5261C329.33 51.6322 329.24 51.6932 331.35 53.4159Z" fill="#D9B564"/>
<path fill-rule="evenodd" clip-rule="evenodd" d="M732.142 42.0401C732.359 41.6513 733.367 41.5128 733.717 41.5767C736.948 42.1761 736.832 42.4605 739.917 43.5617C744.803 45.3069 746.004 45.3751 750.651 47.7349C751.834 48.3352 752.962 49.3456 753.329 50.6866C753.595 51.6567 753.178 53.9546 753.206 54.9187C753.239 56.0469 753.782 56.7024 753.419 57.8592C752.894 59.5375 750.33 59.6121 749.088 59.9551C744.75 61.1487 740.419 62.3736 736.1 63.6344C735.477 63.8167 732.972 65.1753 732.225 64.1042C731.861 63.5816 731.813 62.0155 731.761 61.4377C731.713 60.9002 731.476 59.2786 731.744 58.7368C732.129 57.9617 733.267 57.6101 733.989 57.3961C737.271 56.4288 738.558 56.0814 741.961 55.6759C743.496 55.4946 745.046 55.4644 746.582 55.2957C746.717 55.2803 747.421 55.0321 747.349 54.7336C746.816 52.5275 744.297 52.3857 742.553 51.8635C739.633 50.9867 736.732 50.0535 733.813 49.1794C733.068 48.9552 731.154 48.6386 730.576 47.9717C730.314 47.6696 730.373 47.1759 730.435 46.7819C730.62 45.6032 731.566 43.0807 732.142 42.0401Z" fill="#3B53DF"/>
</g>
</g>
<defs>
<radialGradient id="paint0_radial_13903_162423" cx="0" cy="0" r="1" gradientUnits="userSpaceOnUse" gradientTransform="translate(545.226 500.034) rotate(90) scale(18.9727 70.8389)">
<stop offset="0.567063"/>
<stop offset="0.666667" stop-opacity="0.76"/>
<stop offset="0.880208" stop-opacity="0.28"/>
<stop offset="0.942708" stop-opacity="0.11"/>
<stop offset="1" stop-opacity="0"/>
</radialGradient>
<linearGradient id="paint1_linear_13903_162423" x1="512.119" y1="458.753" x2="575.634" y2="458.753" gradientUnits="userSpaceOnUse">
<stop stop-color="#FDFD7A"/>
<stop offset="0.880208" stop-color="#F3F338"/>
<stop offset="1" stop-color="#FDFD7A"/>
</linearGradient>
<radialGradient id="paint2_radial_13903_162423" cx="0" cy="0" r="1" gradientUnits="userSpaceOnUse" gradientTransform="translate(544.108 425.27) rotate(90) scale(9.94725 44.1355)">
<stop offset="0.68695" stop-color="#9255FF"/>
<stop offset="1" stop-color="#9255FF" stop-opacity="0"/>
</radialGradient>
<linearGradient id="paint3_linear_13903_162423" x1="540.72" y1="431.054" x2="540.72" y2="0.395508" gradientUnits="userSpaceOnUse">
<stop stop-color="#C7A9FF"/>
<stop offset="0.614705" stop-color="#975ADA"/>
<stop offset="1" stop-color="#7E1EB9"/>
</linearGradient>
<linearGradient id="paint4_linear_13903_162423" x1="545.085" y1="431.093" x2="545.085" y2="-0.244141" gradientUnits="userSpaceOnUse">
<stop stop-color="#B38EFE"/>
<stop offset="1" stop-color="#57008B"/>
</linearGradient>
<linearGradient id="paint5_linear_13903_162423" x1="545.18" y1="318.749" x2="545.18" y2="0.4375" gradientUnits="userSpaceOnUse">
<stop/>
<stop offset="1" stop-opacity="0.3"/>
</linearGradient>
<radialGradient id="paint6_radial_13903_162423" cx="0" cy="0" r="1" gradientUnits="userSpaceOnUse" gradientTransform="translate(544.106 413.551) rotate(90) scale(18.8595 83.6787)">
<stop offset="0.729167" stop-opacity="0"/>
<stop offset="0.854167" stop-opacity="0.19"/>
<stop offset="1"/>
</radialGradient>
</defs>
</svg>
