<svg width="2798" height="1473" viewBox="0 0 2798 1473" fill="none" xmlns="http://www.w3.org/2000/svg">
<path d="M185.139 970.224L234.096 1210.74C237.366 1226.78 234.52 1241.55 225.575 1255.06C216.629 1268.57 204.294 1276.92 188.569 1280.11C172.524 1283.38 157.743 1280.54 144.224 1271.6C130.706 1262.66 122.32 1250.17 119.058 1234.14L1.63738 657.363C-1.36849 640.937 1.50148 626.325 10.2633 613.526C19.2729 600.336 31.736 591.796 47.6527 587.889L408.189 514.589C485.662 501.175 548.154 520.869 595.664 573.661C620.287 601.047 636.259 632.7 643.566 668.619C646.308 682.089 647.803 695.982 648.043 710.29C649.186 765.168 632.957 811.049 599.365 847.935C573 876 538.217 895.598 495.031 906.718L661.545 1094.29C668.252 1102.6 672.617 1111.73 674.64 1121.68C675.623 1126.49 676.151 1131.56 676.231 1136.88C675.2 1153.13 668.404 1166.53 655.845 1177.1C647.971 1184.38 639.217 1189 629.592 1190.95C624.46 1192 618.999 1192.27 613.22 1191.78C597.031 1191.06 583.681 1184.59 573.176 1172.36L362.278 934.209L185.139 970.224ZM161.636 854.773L464.893 793.113C503.337 784.965 525.002 763.362 529.895 728.298C531.334 717.321 530.982 706.543 528.823 695.958C526.281 683.447 521.133 671.303 513.386 659.52C497.893 635.952 477.66 625.206 452.685 627.276L431.692 630.04L128.435 691.7L161.636 854.773ZM560.713 579.261C522.564 539.595 473.159 525.926 412.506 538.261C405.127 539.763 397.652 541.616 390.082 543.821C384.502 545.954 382 548.471 382.591 551.355C383.375 555.206 386.812 556.508 392.912 555.27C441.757 547.345 495.551 558.777 554.293 589.583C557.955 591.181 560.753 591.78 562.679 591.388C563.319 591.261 564.022 590.614 564.79 589.455C565.302 588.68 565.429 587.658 565.166 586.371C564.774 584.446 563.287 582.081 560.713 579.261Z" fill="white"/>
<path d="M852.458 885.66C855.656 901.374 852.786 915.986 843.84 929.488C834.959 943.317 822.495 951.865 806.451 955.125C790.726 958.321 776.072 955.293 762.49 946.033C748.972 937.086 740.609 924.758 737.412 909.044L658.971 523.729C655.774 508.015 658.652 493.403 667.597 479.893C676.479 466.064 688.782 457.556 704.507 454.36C720.552 451.092 735.365 454.096 748.948 463.356C762.466 472.295 770.82 484.623 774.018 500.337L852.458 885.66ZM751.634 488.857C743.631 479.134 733.439 473.358 721.031 471.536C715.188 470.722 709.695 470.833 704.563 471.88C700.07 472.791 696.057 474.444 692.54 476.825C689.59 478.767 688.215 480.213 688.407 481.171C686.888 486.828 686.352 490.774 686.808 493.019C687.071 494.305 687.847 494.817 689.126 494.553C694.898 491.709 700.19 489.8 705.003 488.825C720.408 485.693 733.367 491.07 743.879 504.963C745.422 505.985 746.517 506.433 747.157 506.297C750.922 498.524 752.937 494.441 753.193 494.058C753.448 493.666 753.504 493.155 753.376 492.516C753.185 491.549 752.601 490.335 751.634 488.857Z" fill="white"/>
<path d="M985.19 859.158C977.276 854.756 969.226 849.714 961.055 844.026C905.439 805.575 870.807 752.839 857.161 685.81L856.474 682.439C843.083 613.365 855.33 550.419 893.231 493.624C921.539 450.467 959.904 418.95 1008.33 399.089C1024.43 392.81 1040.66 388.008 1057.03 384.677C1089.44 378.086 1122.48 377.886 1156.16 384.061C1205.96 393.976 1249.29 417.224 1286.15 453.814C1322.37 490.54 1345.69 533.721 1356.14 583.366C1366.06 632.107 1361.66 680.258 1342.94 727.817C1324.21 775.376 1294.7 813.436 1254.39 842.005C1225.11 862.313 1192.72 876.414 1157.23 884.299C1122.65 896.674 1099.19 909.457 1086.84 922.655C1067.06 942.037 1054.49 965.636 1049.12 993.446C1046.09 1011.42 1046.35 1029.08 1049.87 1046.39C1051.7 1055.37 1054.33 1064.19 1057.76 1072.84C1070.13 1102.39 1091.04 1124.69 1120.5 1139.73C1149.39 1155.24 1179.88 1159.73 1211.97 1153.2C1227.7 1150.01 1242.32 1152.88 1255.84 1161.82C1269.74 1171.01 1278.29 1183.47 1281.49 1199.18C1284.69 1214.9 1281.68 1229.7 1272.48 1243.59C1263.54 1257.1 1251.2 1265.46 1235.48 1268.66C1185.35 1278.51 1136.27 1273.79 1088.23 1254.51C1039.42 1234.71 1001.07 1203.93 973.183 1162.18C954.084 1134.01 941.261 1103.87 934.738 1071.8C931.277 1054.81 929.582 1037.45 929.654 1019.74C929.414 967.682 943.356 920.434 971.472 877.98C975.821 871.421 980.394 865.149 985.19 859.158ZM1133.73 768.849C1170.51 760.7 1199.25 740.999 1219.95 709.737C1241.23 678.029 1248.12 643.731 1240.61 606.846C1234.21 575.425 1218.36 549.252 1193.05 528.353C1167.42 507.509 1138.55 497.019 1106.43 496.868C1096.42 496.9 1086.75 497.858 1077.44 499.752C1052.09 504.905 1029.4 517.368 1009.37 537.141C982.16 564.384 968.522 596.708 968.45 634.128C968.482 644.139 969.417 653.638 971.24 662.618C977.444 693.08 993.52 718.701 1019.47 739.473C1053.09 766.708 1091.17 776.494 1133.73 768.849ZM1225.62 444.579C1205.71 423.919 1179.04 411.137 1145.63 406.239C1124.56 402.844 1104.55 403.068 1085.62 406.918C1076.95 408.684 1068.45 411.24 1060.11 414.612C1054.53 416.745 1052 419.094 1052.53 421.658L1052.62 422.146C1053.34 425.669 1056.65 427.171 1062.56 426.635C1119.18 420.803 1171.37 430.063 1219.1 454.422C1222.84 456.339 1225.66 457.098 1227.59 456.706C1228.23 456.571 1228.97 456.091 1229.8 455.252C1230.25 454.158 1230.34 452.976 1230.08 451.689C1229.69 449.764 1228.2 447.399 1225.62 444.579ZM1258.23 1185.88C1250.23 1176.15 1240.03 1170.37 1227.63 1168.55C1221.78 1167.74 1216.29 1167.86 1211.16 1168.9C1206.67 1169.81 1202.66 1171.46 1199.13 1173.85C1196.18 1175.78 1193.43 1179.51 1190.88 1185.04C1189.67 1187.29 1189.2 1189.06 1189.46 1190.35C1189.78 1191.94 1191.56 1192.42 1194.76 1191.77L1195.72 1191.58C1201.49 1188.73 1206.79 1186.82 1211.6 1185.84C1227 1182.71 1239.96 1188.09 1250.47 1201.99C1251.25 1202.49 1251.96 1202.68 1252.6 1202.55C1254.21 1202.23 1255.74 1200.75 1257.21 1198.11C1259.51 1194.64 1260.47 1191.94 1260.08 1190.01L1259.97 1189.53C1259.78 1188.57 1259.2 1187.35 1258.23 1185.88Z" fill="white"/>
<path d="M1320.44 189.866C1317.24 174.152 1320.11 159.548 1329.05 146.038C1338.26 132.145 1350.72 123.597 1366.44 120.401C1382.17 117.205 1396.98 120.201 1410.88 129.397C1424.4 138.344 1432.76 150.672 1435.96 166.386L1471.5 341.004C1508.38 305.453 1550.09 282.947 1596.62 273.488C1613.63 270.029 1631.15 268.303 1649.2 268.303C1699.93 268.008 1746.65 282.396 1789.32 311.452C1830.07 339.238 1861.4 376.619 1883.33 423.595L1898.81 472.545L1937.98 664.962C1941.25 680.996 1938.41 695.768 1929.46 709.278C1920.19 722.851 1907.7 731.232 1891.97 734.436C1876.25 737.631 1861.47 734.787 1847.63 725.911C1834.11 716.971 1825.73 704.484 1822.46 688.45L1783.28 496.033C1765.87 435.116 1730.17 399.293 1676.19 388.555C1658.07 384.896 1640.34 384.824 1623.01 388.348C1613.71 390.241 1604.75 393.061 1596.16 396.816C1570.31 407.745 1549.69 424.634 1534.28 447.467C1524.38 462.838 1517.66 479.064 1514.12 496.152C1512.6 503.471 1512.64 521.67 1514.2 550.742L1553.37 743.16C1556.64 759.194 1553.8 773.966 1544.85 787.467C1535.59 801.041 1523.09 809.429 1507.37 812.625C1491.64 815.821 1476.86 812.984 1463.02 804.109C1449.5 795.169 1441.11 782.682 1437.85 766.648L1320.44 189.866ZM1412.41 154.139C1404.42 144.408 1394.22 138.632 1381.82 136.811C1375.97 135.996 1370.48 136.115 1365.35 137.154C1360.85 138.073 1356.84 139.719 1353.32 142.107C1350.37 144.041 1347.62 147.772 1345.07 153.3C1343.86 155.553 1343.38 157.319 1343.64 158.597C1343.97 160.203 1345.74 160.682 1348.94 160.027L1349.91 159.827C1355.68 156.991 1360.97 155.074 1365.79 154.099C1381.19 150.967 1394.15 156.344 1404.66 170.237C1405.44 170.748 1406.14 170.94 1406.78 170.812C1408.39 170.485 1409.92 169.007 1411.4 166.37C1413.7 162.895 1414.65 160.195 1414.26 158.269L1414.16 157.79C1413.96 156.831 1413.38 155.609 1412.41 154.139ZM1767.13 330.49C1747.22 309.831 1720.55 297.048 1687.14 292.151C1666.06 288.755 1646.06 288.979 1627.12 292.83C1618.46 294.595 1609.96 297.16 1601.62 300.523C1596.04 302.656 1593.51 305.013 1594.03 307.578L1594.13 308.057C1594.85 311.58 1598.17 313.082 1604.07 312.547C1660.7 306.715 1712.88 315.974 1760.61 340.333C1764.34 342.25 1767.17 343.009 1769.1 342.618C1769.74 342.49 1770.48 342.003 1771.31 341.164C1771.76 340.077 1771.85 338.887 1771.59 337.601C1771.2 335.683 1769.71 333.311 1767.13 330.49Z" fill="white"/>
<path d="M2266.25 658.329C2214.91 668.763 2164.05 663.578 2113.69 642.75C2059.48 621.044 2022.95 586.89 2004.11 540.298L1971.92 419.095L1952.52 321.349L1942.89 323.306C1927.17 326.502 1912.58 323.785 1899.13 315.165C1885.29 306.289 1876.71 293.674 1873.37 277.321C1870.19 261.606 1873.22 246.962 1882.49 233.389C1891.36 219.559 1903.67 211.051 1919.39 207.855L1929.02 205.898L1901.69 71.6811C1898.5 55.9665 1901.35 41.1947 1910.22 27.3656C1919.17 13.864 1931.66 5.47541 1947.71 2.21585C1963.76 -1.05169 1978.41 1.98417 1991.67 11.3075C2005.51 20.1834 2014.03 32.4786 2017.22 48.1931L2044.07 182.506L2123.49 166.36C2139.21 163.156 2153.86 166.192 2167.45 175.452C2181.29 184.327 2189.8 196.623 2193 212.337C2196.33 228.691 2193.36 243.663 2184.1 257.228C2175.09 270.418 2162.71 278.615 2147 281.81L2067.57 297.956L2087.44 395.607C2088.17 399.139 2090.35 410.715 2094.02 430.344C2095.2 437.782 2096.37 444.389 2097.54 450.165C2098.78 456.253 2100.05 461.677 2101.37 466.423C2109.28 493.865 2122.35 512.911 2140.56 523.577C2173.07 543.685 2207.12 550.117 2242.75 542.878C2258.79 539.611 2273.54 542.295 2286.99 550.915C2300.58 560.175 2309 572.822 2312.26 588.856C2315.53 604.89 2312.69 619.662 2303.73 633.171C2294.79 646.681 2282.3 655.061 2266.25 658.329ZM1994.15 35.85C1986.16 26.1192 1975.96 20.3511 1963.57 18.5296C1957.72 17.7147 1952.22 17.8266 1947.09 18.8731C1942.6 19.7839 1938.59 21.4377 1935.06 23.8184C1932.12 25.7518 1929.14 29.1951 1926.15 34.1483C1925.37 36.9765 1925.13 39.0296 1925.39 40.3159C1925.71 41.9217 1927.49 42.393 1930.69 41.7379L1931.65 41.5462C1937.43 38.7021 1942.71 36.7927 1947.53 35.8101C1962.94 32.6783 1975.89 38.0629 1986.41 51.956C1987.17 52.4673 1987.89 52.659 1988.53 52.5232C1990.13 52.1957 1991.67 50.7177 1993.14 48.0813C1995.44 44.606 1996.4 41.9057 1996 39.9883L1995.91 39.501C1995.71 38.5423 1995.12 37.328 1994.15 35.85ZM2169.45 197.589C2161.46 187.859 2151.25 182.083 2138.85 180.269C2133.01 179.454 2127.51 179.566 2122.37 180.613L2099.27 185.31C2097.29 188.713 2096.56 191.701 2097.09 194.266C2097.22 194.905 2097.54 195.68 2098.06 196.575C2099.99 199.523 2103.4 200.665 2108.28 200.01C2113.16 199.347 2118.01 198.532 2122.82 197.549C2138.22 194.418 2151.18 199.802 2161.7 213.695C2162.47 214.207 2163.18 214.398 2163.82 214.263C2165.43 213.935 2166.97 212.457 2168.43 209.821C2170.72 206.345 2171.68 203.645 2171.3 201.728L2171.19 201.24C2171 200.282 2170.42 199.067 2169.45 197.589Z" fill="white"/>
<path d="M1580.31 912.29C1520.95 921.582 1472.98 950.678 1436.39 999.571C1400.24 1049.34 1386.61 1104.44 1395.5 1164.87C1403.07 1216.4 1426.32 1260.32 1465.26 1296.61C1504.24 1333.23 1549.35 1352.8 1600.59 1355.34C1616.12 1356.21 1631.14 1355.58 1645.62 1353.47C1686.97 1347.43 1724.68 1329.23 1758.74 1298.88C1804.49 1257.74 1828.76 1206.88 1831.57 1146.32C1832.38 1130.84 1831.7 1115.75 1829.53 1101.02C1824.48 1066.67 1811.4 1034.27 1790.28 1003.83C1759.89 960.64 1720.09 932.143 1670.9 918.33C1641.63 910.069 1611.44 908.056 1580.31 912.29ZM1564.98 801.729C1657.25 789.825 1739.24 811.851 1810.97 867.799C1854.42 901.249 1887.74 943.384 1910.93 994.203C1924.58 1024.17 1933.73 1054.94 1938.37 1086.54C1941.58 1108.32 1942.52 1130.42 1941.19 1152.87C1937.94 1218.82 1916.4 1278.84 1876.57 1332.91C1837.09 1387.23 1786.75 1425.45 1725.57 1447.54C1704.83 1455.27 1683.74 1460.7 1662.31 1463.83C1630.93 1468.41 1598.67 1468.11 1565.54 1462.92C1510.43 1454.99 1460.8 1434.03 1416.66 1400.07C1363.33 1360.22 1325.46 1308.1 1303.05 1243.69C1295.53 1221.92 1290.15 1199.99 1286.9 1177.9C1280.68 1135.58 1282.74 1092.98 1293.08 1050.11C1308.85 985.455 1341.45 930.402 1390.88 884.96C1439.78 840.221 1496.76 812.634 1561.81 802.192L1564.98 801.729ZM1791.14 883.857C1773.18 862.35 1741.81 844.998 1697.02 831.8C1661.27 821.358 1632.07 817.787 1609.44 821.087C1604.31 821.838 1599.53 822.852 1595.09 824.123C1589.84 826.144 1587.37 828.229 1587.69 830.378C1588.23 834.053 1591.39 835.635 1597.17 835.1C1654.2 833.038 1716.8 852.1 1784.98 892.278C1788.1 894.642 1790.57 895.689 1792.37 895.425C1793.28 895.29 1793.97 894.722 1794.44 893.716C1794.95 893.013 1795.09 891.894 1794.87 890.36C1794.6 888.523 1793.35 886.35 1791.14 883.857Z" fill="#FF3A6A"/>
<path d="M1956.16 967.933C1953.13 953.042 1955.91 939.189 1964.51 926.374C1972.74 913.304 1984.17 905.283 1998.82 902.311C2025.72 896.838 2045.56 906.409 2058.35 931.016C2091.76 897.965 2131.76 876.546 2178.32 866.767C2225.23 857.228 2270.6 861.447 2314.41 879.438C2370.76 902.463 2413.47 944.086 2442.54 1004.31C2449.45 1018.4 2454.95 1035.47 2459.03 1055.53L2496.14 1237.81C2499.23 1253.01 2496.63 1266.98 2488.34 1279.74C2480.34 1292.44 2468.72 1300.34 2453.48 1303.44C2438.83 1306.42 2425.2 1303.65 2412.57 1295.14C2399.65 1286.7 2391.64 1274.88 2388.55 1259.69L2351.44 1077.4C2346.24 1051.88 2334.43 1029.76 2315.99 1011.05C2297.2 992.092 2275.48 980.213 2250.86 975.411C2233.65 971.944 2217.14 971.824 2201.29 975.044C2186.35 978.08 2171.88 984.191 2157.87 993.363C2129.21 1011.53 2110.75 1037.11 2102.54 1070.11C2097.8 1088.15 2097.24 1107.57 2100.86 1128.35L2137.97 1310.63C2141.05 1325.83 2138.46 1339.8 2130.16 1352.56C2121.87 1365.32 2110.24 1373.22 2095.3 1376.26C2080.66 1379.24 2067.03 1376.47 2054.4 1367.96C2041.48 1359.52 2033.47 1347.7 2030.38 1332.51L1956.16 967.933ZM2340.1 923.091C2322.08 903.342 2297.49 891.102 2266.33 886.365C2246.39 883.137 2227.74 883.289 2210.41 886.82C2202.04 888.522 2194.13 890.918 2186.67 894.018C2181.47 896.023 2179.12 898.236 2179.62 900.673L2179.71 901.129C2180.39 904.468 2183.48 905.898 2188.99 905.411C2241.44 900.122 2290.1 909.054 2334.96 932.206C2338.14 934.092 2340.63 934.851 2342.42 934.483C2343.32 934.307 2344.01 933.852 2344.48 933.117C2345.19 932.022 2345.45 931.024 2345.27 930.113C2344.84 927.988 2343.11 925.647 2340.1 923.091ZM2041.65 931.567C2034.17 922.332 2024.64 916.835 2013.09 915.069C2007.64 914.279 2002.52 914.366 1997.74 915.341C1993.55 916.196 1989.83 917.746 1986.55 919.991C1983.81 921.812 1981.26 925.335 1978.9 930.56C1977.77 932.693 1977.34 934.363 1977.59 935.578C1977.89 937.095 1979.54 937.551 1982.53 936.944L1983.42 936.76C1988.79 934.084 1993.72 932.294 1998.2 931.383C2012.55 928.467 2024.64 933.604 2034.48 946.786C2035.21 947.274 2035.86 947.457 2036.46 947.338C2037.96 947.034 2039.38 945.636 2040.73 943.143C2042.88 939.86 2043.76 937.311 2043.38 935.482L2043.29 935.026C2043.11 934.116 2042.56 932.965 2041.65 931.567Z" fill="#FF3A6A"/>
<path d="M2631.55 1026.41C2634.55 1041.18 2632.24 1054.87 2624.62 1067.49C2616.87 1079.52 2606.01 1086.95 2592.02 1089.8C2578.31 1092.59 2565.55 1089.96 2553.72 1081.91C2541.76 1073.27 2534.28 1061.56 2531.28 1046.8L2459.33 693.371C2456.38 678.903 2458.75 665.513 2466.43 653.186C2474.06 640.563 2484.72 632.862 2498.44 630.073C2512.42 627.229 2525.39 630.129 2537.34 638.765C2549.24 647.114 2556.66 658.523 2559.6 672.983L2631.55 1026.41ZM2628.17 1267.4C2614.47 1270.18 2601.67 1267.4 2589.78 1259.06C2577.83 1250.43 2570.38 1238.87 2567.43 1224.41C2564.48 1209.94 2566.86 1196.54 2574.54 1184.21C2582.17 1171.59 2592.83 1163.89 2606.53 1161.12C2620.52 1158.26 2633.49 1161.16 2645.44 1169.8C2657.35 1178.14 2664.76 1189.55 2667.71 1204.02C2670.66 1218.49 2668.31 1232.03 2660.69 1244.65C2653 1256.97 2642.16 1264.56 2628.17 1267.4ZM2539.57 660.456C2532.49 651.436 2523.5 645.892 2512.58 643.799C2507.47 643 2502.82 643.024 2498.62 643.871C2494.42 644.725 2490.81 646.235 2487.75 648.392C2485.75 650.03 2484.84 651.284 2485.02 652.171L2485.29 653.505C2485.59 654.975 2486.86 655.487 2489.1 655.031C2506.44 651.508 2522.55 654.84 2537.45 665.042C2538.75 665.697 2539.68 665.968 2540.24 665.857C2540.52 665.801 2540.77 665.593 2540.98 665.241C2541.48 664.834 2541.7 664.482 2541.64 664.187C2541.41 663.004 2540.71 661.758 2539.57 660.456ZM2651.57 1187C2644.49 1177.99 2635.53 1172.58 2624.67 1170.79C2619.56 1169.99 2614.77 1170.04 2610.29 1170.95C2606.38 1171.75 2602.89 1173.22 2599.83 1175.39C2597.28 1177.14 2594.91 1180.53 2592.74 1185.59C2591.7 1187.65 2591.3 1189.26 2591.54 1190.45C2591.84 1191.92 2593.39 1192.38 2596.18 1191.8L2597.02 1191.64C2602.04 1189.08 2606.64 1187.38 2610.83 1186.52C2624.27 1183.79 2635.63 1188.86 2644.95 1201.73C2645.63 1202.2 2646.25 1202.38 2646.81 1202.27C2648.21 1201.98 2649.54 1200.64 2650.8 1198.23C2652.77 1195.06 2653.58 1192.59 2653.22 1190.82L2653.13 1190.37C2652.95 1189.49 2652.43 1188.37 2651.57 1187Z" fill="#FF3A6A"/>
<path d="M657.002 232.62L719.006 133.899C723.579 126.413 730.127 121.7 738.649 119.766C747.003 117.873 754.861 119.311 762.216 124.088C769.539 128.698 774.151 135.177 776.046 143.526C778.021 152.218 776.702 160.215 772.097 167.533L710.037 266.007L808.567 328.018C815.93 332.804 820.574 339.451 822.517 347.967C824.412 356.316 823.077 364.233 818.496 371.719C813.891 379.037 807.408 383.646 799.054 385.54C790.532 387.473 782.601 386.139 775.287 381.529L676.637 318.999L614.177 418.096C609.564 425.414 603.081 430.023 594.735 431.917C586.205 433.85 578.282 432.516 570.96 427.906C563.605 423.129 558.976 416.562 557.073 408.213C555.139 399.697 556.458 391.692 561.031 384.206L623.091 285.74L524.552 223.721C517.23 219.111 512.585 212.464 510.61 203.772C508.716 195.423 510.067 187.594 514.679 180.276C519.252 172.79 525.8 168.076 534.33 166.143C542.684 164.25 550.534 165.688 557.897 170.465L657.002 232.62ZM765.773 136.184C761.392 131.087 755.876 128.131 749.233 127.308C746.107 126.941 743.173 127.068 740.447 127.692C738.065 128.227 735.946 129.162 734.092 130.472C732.541 131.542 730.998 133.42 729.455 136.096C729.079 137.614 728.967 138.717 729.127 139.396C729.319 140.25 730.27 140.482 731.973 140.091L732.485 139.979C735.531 138.389 738.329 137.302 740.887 136.727C749.073 134.866 756.052 137.582 761.832 144.868C762.248 145.132 762.632 145.228 762.975 145.148C763.823 144.956 764.63 144.149 765.382 142.719C766.565 140.842 767.044 139.388 766.813 138.365L766.749 138.109C766.637 137.598 766.309 136.959 765.773 136.184ZM517.877 194.329C517.725 195.263 517.717 195.982 517.829 196.494L517.885 196.749C518.117 197.772 519.18 198.874 521.059 200.057C522.354 201.016 523.425 201.399 524.281 201.207C524.624 201.127 524.92 200.88 525.184 200.464C527.247 191.397 532.371 185.932 540.557 184.079C543.115 183.495 546.105 183.264 549.543 183.384L550.054 183.264C551.757 182.88 552.509 182.257 552.317 181.41C552.165 180.723 551.589 179.781 550.598 178.574C548.048 176.825 545.841 175.802 543.987 175.506C541.748 175.115 539.43 175.195 537.048 175.738C534.322 176.353 531.619 177.504 528.957 179.189C523.321 182.792 519.628 187.842 517.877 194.329Z" fill="#FF3A6A"/>
<path d="M2655.82 593.174C2670.35 590.351 2684.04 591.202 2696.88 595.729C2709.67 600.004 2720.47 607.398 2729.27 617.909C2738.02 628.169 2743.81 640.566 2746.64 655.099C2749.46 669.632 2748.76 683.419 2744.53 696.462C2740.3 709.504 2733.08 720.527 2722.87 729.531C2712.61 738.285 2700.21 744.073 2685.68 746.896C2670.9 749.768 2657.11 749.066 2644.32 744.79C2631.48 740.264 2620.66 732.745 2611.85 722.234C2603.05 711.723 2597.24 699.201 2594.42 684.668C2591.59 670.135 2592.32 656.473 2596.6 643.682C2600.82 630.639 2608.07 619.741 2618.33 610.988C2628.54 601.983 2641.04 596.045 2655.82 593.174ZM2682.76 731.862C2700.8 728.358 2714.21 719.772 2723 706.104C2732.04 692.388 2734.78 676.384 2731.23 658.092C2727.67 639.801 2719.14 625.988 2705.62 616.652C2692.36 607.267 2676.71 604.327 2658.67 607.832C2640.38 611.385 2626.84 619.995 2618.05 633.663C2609.52 647.282 2607.02 663.237 2610.58 681.529C2614.13 699.82 2622.41 713.682 2635.43 723.116C2648.69 732.5 2664.47 735.416 2682.76 731.862ZM2701.47 647.491C2702.64 653.504 2702.01 658.957 2699.58 663.85C2697.35 668.443 2693.65 672.152 2688.48 674.976L2715.59 702.083L2691.98 707.059L2668.1 680.495L2661.71 681.737L2667.55 711.805L2648.01 715.601L2632.31 634.793L2668.39 627.784C2676.91 626.129 2684.12 627.07 2690 630.607C2696.14 634.095 2699.96 639.723 2701.47 647.491ZM2658.57 665.575L2673.98 662.582C2676.74 662.046 2678.85 660.856 2680.31 659.012C2682.02 657.119 2682.61 654.795 2682.08 652.039C2681.54 649.283 2680.15 647.473 2677.9 646.609C2675.85 645.447 2673.45 645.133 2670.7 645.668L2655.29 648.662L2658.57 665.575Z" fill="white"/>
</svg>
