<svg width="2798" height="1473" viewBox="0 0 2798 1473" fill="none" xmlns="http://www.w3.org/2000/svg">
<path d="M185.139 970.236L234.096 1210.76C237.366 1226.79 234.52 1241.56 225.575 1255.07C216.629 1268.58 204.294 1276.93 188.569 1280.13C172.524 1283.39 157.743 1280.55 144.224 1271.61C130.706 1262.67 122.32 1250.18 119.058 1234.15L1.63738 657.374C-1.36849 640.949 1.50148 626.337 10.2633 613.538C19.2729 600.348 31.736 591.808 47.6527 587.901L408.189 514.601C485.662 501.187 548.154 520.88 595.664 573.672C620.287 601.059 636.259 632.712 643.566 668.631C646.308 682.101 647.803 695.994 648.043 710.302C649.186 765.179 632.957 811.061 599.365 847.946C573 876.012 538.217 895.609 495.031 906.73L661.545 1094.3C668.252 1102.62 672.617 1111.75 674.64 1121.69C675.623 1126.5 676.151 1131.58 676.231 1136.9C675.2 1153.14 668.404 1166.54 655.845 1177.11C647.971 1184.39 639.217 1189.01 629.592 1190.97C624.46 1192.01 618.999 1192.28 613.22 1191.79C597.031 1191.07 583.681 1184.6 573.176 1172.38L362.278 934.221L185.139 970.236ZM161.636 854.785L464.893 793.125C503.337 784.976 525.002 763.374 529.895 728.31C531.334 717.332 530.982 706.555 528.823 695.97C526.281 683.459 521.133 671.315 513.386 659.531C497.893 635.963 477.66 625.218 452.685 627.287L431.692 630.051L128.435 691.711L161.636 854.785ZM560.713 579.273C522.564 539.607 473.159 525.937 412.506 538.273C405.127 539.775 397.652 541.628 390.082 543.833C384.502 545.966 382 548.483 382.591 551.367C383.375 555.218 386.812 556.52 392.912 555.281C441.757 547.356 495.551 558.789 554.293 589.595C557.955 591.192 560.753 591.792 562.679 591.4C563.319 591.272 564.022 590.625 564.79 589.467C565.302 588.692 565.429 587.669 565.166 586.383C564.774 584.458 563.287 582.093 560.713 579.273Z" fill="white"/>
<path d="M852.458 885.659C855.656 901.373 852.786 915.985 843.84 929.487C834.959 943.316 822.495 951.864 806.451 955.124C790.726 958.32 776.072 955.292 762.49 946.032C748.972 937.085 740.609 924.757 737.412 909.043L658.971 523.728C655.774 508.014 658.652 493.402 667.597 479.892C676.479 466.063 688.782 457.555 704.507 454.359C720.552 451.091 735.365 454.095 748.948 463.355C762.466 472.294 770.82 484.622 774.018 500.336L852.458 885.659ZM751.634 488.856C743.631 479.133 733.439 473.357 721.031 471.535C715.188 470.721 709.695 470.832 704.563 471.879C700.07 472.79 696.057 474.444 692.54 476.824C689.59 478.766 688.215 480.212 688.407 481.17C686.888 486.827 686.352 490.773 686.808 493.018C687.071 494.304 687.847 494.816 689.126 494.552C694.898 491.708 700.19 489.799 705.003 488.824C720.408 485.692 733.367 491.069 743.879 504.962C745.422 505.984 746.517 506.432 747.157 506.296C750.922 498.523 752.937 494.44 753.193 494.057C753.448 493.665 753.504 493.154 753.376 492.515C753.185 491.548 752.601 490.334 751.634 488.856Z" fill="white"/>
<path d="M985.19 859.169C977.276 854.767 969.226 849.726 961.055 844.038C905.439 805.586 870.807 752.85 857.161 685.822L856.474 682.45C843.083 613.376 855.33 550.43 893.231 493.636C921.539 450.479 959.904 418.962 1008.33 399.101C1024.43 392.821 1040.66 388.02 1057.03 384.688C1089.44 378.097 1122.48 377.898 1156.16 384.073C1205.96 393.988 1249.29 417.236 1286.15 453.826C1322.37 490.552 1345.69 533.733 1356.14 583.377C1366.06 632.119 1361.66 680.269 1342.94 727.828C1324.21 775.388 1294.7 813.448 1254.39 842.017C1225.11 862.325 1192.72 876.426 1157.23 884.311C1122.65 896.686 1099.19 909.469 1086.84 922.667C1067.06 942.048 1054.49 965.648 1049.12 993.458C1046.09 1011.43 1046.35 1029.09 1049.87 1046.4C1051.7 1055.38 1054.33 1064.2 1057.76 1072.85C1070.13 1102.4 1091.04 1124.7 1120.5 1139.75C1149.39 1155.25 1179.88 1159.74 1211.97 1153.22C1227.7 1150.02 1242.32 1152.89 1255.84 1161.83C1269.74 1171.02 1278.29 1183.48 1281.49 1199.19C1284.69 1214.91 1281.68 1229.71 1272.48 1243.61C1263.54 1257.11 1251.2 1265.47 1235.48 1268.67C1185.35 1278.53 1136.27 1273.8 1088.23 1254.52C1039.42 1234.72 1001.07 1203.94 973.183 1162.19C954.084 1134.02 941.261 1103.88 934.738 1071.82C931.277 1054.82 929.582 1037.46 929.654 1019.75C929.414 967.693 943.356 920.446 971.472 877.992C975.821 871.433 980.394 865.161 985.19 859.169ZM1133.73 768.86C1170.51 760.712 1199.25 741.01 1219.95 709.749C1241.23 678.04 1248.12 643.743 1240.61 606.857C1234.21 575.436 1218.36 549.264 1193.05 528.364C1167.42 507.521 1138.55 497.031 1106.43 496.879C1096.42 496.911 1086.75 497.87 1077.44 499.763C1052.09 504.916 1029.4 517.379 1009.37 537.152C982.16 564.395 968.522 596.719 968.45 634.14C968.482 644.151 969.417 653.65 971.24 662.629C977.444 693.092 993.52 718.713 1019.47 739.485C1053.09 766.719 1091.17 776.506 1133.73 768.86ZM1225.62 444.591C1205.71 423.931 1179.04 411.148 1145.63 406.251C1124.56 402.856 1104.55 403.079 1085.62 406.93C1076.95 408.696 1068.45 411.252 1060.11 414.624C1054.53 416.757 1052 419.105 1052.53 421.67L1052.62 422.157C1053.34 425.68 1056.65 427.182 1062.56 426.647C1119.18 420.815 1171.37 430.074 1219.1 454.433C1222.84 456.351 1225.66 457.11 1227.59 456.718C1228.23 456.582 1228.97 456.103 1229.8 455.264C1230.25 454.17 1230.34 452.987 1230.08 451.701C1229.69 449.776 1228.2 447.411 1225.62 444.591ZM1258.23 1185.89C1250.23 1176.16 1240.03 1170.38 1227.63 1168.56C1221.78 1167.75 1216.29 1167.87 1211.16 1168.91C1206.67 1169.83 1202.66 1171.47 1199.13 1173.86C1196.18 1175.79 1193.43 1179.52 1190.88 1185.05C1189.67 1187.31 1189.2 1189.07 1189.46 1190.36C1189.78 1191.96 1191.56 1192.43 1194.76 1191.78L1195.72 1191.59C1201.49 1188.74 1206.79 1186.83 1211.6 1185.85C1227 1182.72 1239.96 1188.1 1250.47 1202C1251.25 1202.5 1251.96 1202.69 1252.6 1202.57C1254.21 1202.24 1255.74 1200.76 1257.21 1198.12C1259.51 1194.65 1260.47 1191.95 1260.08 1190.02L1259.97 1189.54C1259.78 1188.58 1259.2 1187.36 1258.23 1185.89Z" fill="white"/>
<path d="M1320.44 189.853C1317.24 174.139 1320.11 159.535 1329.05 146.025C1338.26 132.132 1350.72 123.584 1366.44 120.388C1382.17 117.193 1396.98 120.188 1410.88 129.384C1424.4 138.332 1432.76 150.659 1435.96 166.373L1471.5 340.991C1508.38 305.44 1550.09 282.935 1596.62 273.475C1613.63 270.016 1631.15 268.291 1649.2 268.291C1699.93 267.995 1746.65 282.383 1789.32 311.44C1830.07 339.226 1861.4 376.607 1883.33 423.583L1898.81 472.532L1937.98 664.95C1941.25 680.984 1938.41 695.756 1929.46 709.265C1920.19 722.839 1907.7 731.219 1891.97 734.423C1876.25 737.618 1861.47 734.774 1847.63 725.898C1834.11 716.959 1825.73 704.472 1822.46 688.438L1783.28 496.02C1765.87 435.103 1730.17 399.28 1676.19 388.543C1658.07 384.884 1640.34 384.812 1623.01 388.335C1613.71 390.228 1604.75 393.048 1596.16 396.803C1570.31 407.732 1549.69 424.621 1534.28 447.454C1524.38 462.825 1517.66 479.051 1514.12 496.14C1512.6 503.458 1512.64 521.657 1514.2 550.729L1553.37 743.147C1556.64 759.181 1553.8 773.953 1544.85 787.455C1535.59 801.028 1523.09 809.417 1507.37 812.612C1491.64 815.808 1476.86 812.972 1463.02 804.096C1449.5 795.156 1441.11 782.669 1437.85 766.635L1320.44 189.853ZM1412.41 154.126C1404.42 144.395 1394.22 138.619 1381.82 136.798C1375.97 135.983 1370.48 136.103 1365.35 137.141C1360.85 138.06 1356.84 139.706 1353.32 142.095C1350.37 144.028 1347.62 147.759 1345.07 153.287C1343.86 155.54 1343.38 157.306 1343.64 158.584C1343.97 160.19 1345.74 160.669 1348.94 160.014L1349.91 159.814C1355.68 156.978 1360.97 155.061 1365.79 154.086C1381.19 150.954 1394.15 156.331 1404.66 170.224C1405.44 170.736 1406.14 170.927 1406.78 170.799C1408.39 170.472 1409.92 168.994 1411.4 166.358C1413.7 162.882 1414.65 160.182 1414.26 158.257L1414.16 157.777C1413.96 156.819 1413.38 155.596 1412.41 154.126ZM1767.13 330.478C1747.22 309.818 1720.55 297.035 1687.14 292.138C1666.06 288.743 1646.06 288.966 1627.12 292.817C1618.46 294.583 1609.96 297.147 1601.62 300.511C1596.04 302.644 1593.51 305 1594.03 307.565L1594.13 308.044C1594.85 311.568 1598.17 313.069 1604.07 312.534C1660.7 306.702 1712.88 315.961 1760.61 340.32C1764.34 342.238 1767.17 342.997 1769.1 342.605C1769.74 342.477 1770.48 341.99 1771.31 341.151C1771.76 340.065 1771.85 338.874 1771.59 337.588C1771.2 335.671 1769.71 333.298 1767.13 330.478Z" fill="white"/>
<path d="M2266.25 658.341C2214.91 668.774 2164.05 663.59 2113.69 642.762C2059.48 621.056 2022.95 586.902 2004.11 540.31L1971.92 419.107L1952.52 321.36L1942.89 323.318C1927.17 326.513 1912.58 323.797 1899.13 315.177C1885.29 306.301 1876.71 293.686 1873.37 277.332C1870.19 261.618 1873.22 246.974 1882.49 233.4C1891.36 219.571 1903.67 211.063 1919.39 207.867L1929.02 205.91L1901.69 71.6928C1898.5 55.9783 1901.35 41.2064 1910.22 27.3773C1919.17 13.8757 1931.66 5.48713 1947.71 2.22757C1963.76 -1.03997 1978.41 1.99589 1991.67 11.3192C2005.51 20.1951 2014.03 32.4903 2017.22 48.2048L2044.07 182.518L2123.49 166.372C2139.21 163.168 2153.86 166.204 2167.45 175.463C2181.29 184.339 2189.8 196.634 2193 212.349C2196.33 228.703 2193.36 243.674 2184.1 257.24C2175.09 270.43 2162.71 278.627 2147 281.822L2067.57 297.968L2087.44 395.619C2088.17 399.15 2090.35 410.726 2094.02 430.356C2095.2 437.793 2096.37 444.4 2097.54 450.177C2098.78 456.264 2100.05 461.689 2101.37 466.434C2109.28 493.877 2122.35 512.923 2140.56 523.588C2173.07 543.697 2207.12 550.128 2242.75 542.89C2258.79 539.623 2273.54 542.307 2286.99 550.927C2300.58 560.187 2309 572.833 2312.26 588.867C2315.53 604.902 2312.69 619.673 2303.73 633.183C2294.79 646.693 2282.3 655.073 2266.25 658.341ZM1994.15 35.8617C1986.16 26.131 1975.96 20.3628 1963.57 18.5413C1957.72 17.7264 1952.22 17.8383 1947.09 18.8848C1942.6 19.7956 1938.59 21.4494 1935.06 23.8301C1932.12 25.7635 1929.14 29.2068 1926.15 34.16C1925.37 36.9882 1925.13 39.0413 1925.39 40.3276C1925.71 41.9334 1927.49 42.4048 1930.69 41.7497L1931.65 41.5579C1937.43 38.7138 1942.71 36.8044 1947.53 35.8218C1962.94 32.69 1975.89 38.0747 1986.41 51.9677C1987.17 52.479 1987.89 52.6708 1988.53 52.5349C1990.13 52.2074 1991.67 50.7294 1993.14 48.093C1995.44 44.6177 1996.4 41.9174 1996 40L1995.91 39.5127C1995.71 38.554 1995.12 37.3397 1994.15 35.8617ZM2169.45 197.601C2161.46 187.87 2151.25 182.094 2138.85 180.281C2133.01 179.466 2127.51 179.578 2122.37 180.624L2099.27 185.322C2097.29 188.725 2096.56 191.713 2097.09 194.278C2097.22 194.917 2097.54 195.692 2098.06 196.586C2099.99 199.534 2103.4 200.677 2108.28 200.022C2113.16 199.359 2118.01 198.544 2122.82 197.561C2138.22 194.429 2151.18 199.814 2161.7 213.707C2162.47 214.218 2163.18 214.41 2163.82 214.274C2165.43 213.947 2166.97 212.469 2168.43 209.832C2170.72 206.357 2171.68 203.657 2171.3 201.739L2171.19 201.252C2171 200.293 2170.42 199.079 2169.45 197.601Z" fill="white"/>
<path d="M1580.31 912.278C1520.95 921.569 1472.98 950.665 1436.39 999.559C1400.24 1049.33 1386.61 1104.43 1395.5 1164.86C1403.07 1216.39 1426.32 1260.31 1465.26 1296.6C1504.24 1333.22 1549.35 1352.79 1600.59 1355.33C1616.12 1356.2 1631.14 1355.57 1645.62 1353.46C1686.97 1347.42 1724.68 1329.22 1758.74 1298.87C1804.49 1257.73 1828.76 1206.87 1831.57 1146.3C1832.38 1130.83 1831.7 1115.74 1829.53 1101.01C1824.48 1066.66 1811.4 1034.26 1790.28 1003.82C1759.89 960.628 1720.09 932.131 1670.9 918.317C1641.63 910.057 1611.44 908.043 1580.31 912.278ZM1564.98 801.716C1657.25 789.813 1739.24 811.839 1810.97 867.786C1854.42 901.237 1887.74 943.371 1910.93 994.19C1924.58 1024.16 1933.73 1054.93 1938.37 1086.53C1941.58 1108.31 1942.52 1130.41 1941.19 1152.85C1937.94 1218.81 1916.4 1278.83 1876.57 1332.9C1837.09 1387.22 1786.75 1425.43 1725.57 1447.53C1704.83 1455.26 1683.74 1460.69 1662.31 1463.81C1630.93 1468.4 1598.67 1468.1 1565.54 1462.91C1510.43 1454.98 1460.8 1434.02 1416.66 1400.05C1363.33 1360.21 1325.46 1308.09 1303.05 1243.68C1295.53 1221.91 1290.15 1199.98 1286.9 1177.89C1280.68 1135.57 1282.74 1092.97 1293.08 1050.1C1308.85 985.442 1341.45 930.389 1390.88 884.947C1439.78 840.208 1496.76 812.622 1561.81 802.18L1564.98 801.716ZM1791.14 883.844C1773.18 862.338 1741.81 844.985 1697.02 831.787C1661.27 821.346 1632.07 817.774 1609.44 821.074C1604.31 821.825 1599.53 822.84 1595.09 824.11C1589.84 826.131 1587.37 828.216 1587.69 830.365C1588.23 834.04 1591.39 835.622 1597.17 835.087C1654.2 833.026 1716.8 852.088 1784.98 892.265C1788.1 894.63 1790.57 895.676 1792.37 895.413C1793.28 895.277 1793.97 894.71 1794.44 893.703C1794.95 893 1795.09 891.881 1794.87 890.348C1794.6 888.51 1793.35 886.337 1791.14 883.844Z" fill="#FF3A6A"/>
<path d="M1956.16 967.933C1953.13 953.042 1955.91 939.189 1964.51 926.374C1972.74 913.304 1984.17 905.283 1998.82 902.311C2025.72 896.838 2045.56 906.409 2058.35 931.016C2091.76 897.965 2131.76 876.546 2178.32 866.767C2225.23 857.228 2270.6 861.447 2314.41 879.438C2370.76 902.463 2413.47 944.086 2442.54 1004.31C2449.45 1018.4 2454.95 1035.47 2459.03 1055.53L2496.14 1237.81C2499.23 1253.01 2496.63 1266.98 2488.34 1279.74C2480.34 1292.44 2468.72 1300.34 2453.48 1303.44C2438.83 1306.42 2425.2 1303.65 2412.57 1295.14C2399.65 1286.7 2391.64 1274.88 2388.55 1259.69L2351.44 1077.4C2346.24 1051.88 2334.43 1029.76 2315.99 1011.05C2297.2 992.092 2275.48 980.213 2250.86 975.411C2233.65 971.944 2217.14 971.824 2201.29 975.044C2186.35 978.08 2171.88 984.191 2157.87 993.363C2129.21 1011.53 2110.75 1037.11 2102.54 1070.11C2097.8 1088.15 2097.24 1107.57 2100.86 1128.35L2137.97 1310.63C2141.05 1325.83 2138.46 1339.8 2130.16 1352.56C2121.87 1365.32 2110.24 1373.22 2095.3 1376.26C2080.66 1379.24 2067.03 1376.47 2054.4 1367.96C2041.48 1359.52 2033.47 1347.7 2030.38 1332.51L1956.16 967.933ZM2340.1 923.091C2322.08 903.342 2297.49 891.102 2266.33 886.365C2246.39 883.137 2227.74 883.289 2210.41 886.82C2202.04 888.522 2194.13 890.918 2186.67 894.018C2181.47 896.023 2179.12 898.236 2179.62 900.673L2179.71 901.129C2180.39 904.468 2183.48 905.898 2188.99 905.411C2241.44 900.122 2290.1 909.054 2334.96 932.206C2338.14 934.092 2340.63 934.851 2342.42 934.483C2343.32 934.307 2344.01 933.852 2344.48 933.117C2345.19 932.022 2345.45 931.024 2345.27 930.113C2344.84 927.988 2343.11 925.647 2340.1 923.091ZM2041.65 931.567C2034.17 922.332 2024.64 916.835 2013.09 915.069C2007.64 914.279 2002.52 914.366 1997.74 915.341C1993.55 916.196 1989.83 917.746 1986.55 919.991C1983.81 921.812 1981.26 925.335 1978.9 930.56C1977.77 932.693 1977.34 934.363 1977.59 935.578C1977.89 937.095 1979.54 937.551 1982.53 936.944L1983.42 936.76C1988.79 934.084 1993.72 932.294 1998.2 931.383C2012.55 928.467 2024.64 933.604 2034.48 946.786C2035.21 947.274 2035.86 947.457 2036.46 947.338C2037.96 947.034 2039.38 945.636 2040.73 943.143C2042.88 939.86 2043.76 937.311 2043.38 935.482L2043.29 935.026C2043.11 934.116 2042.56 932.965 2041.65 931.567Z" fill="#FF3A6A"/>
<path d="M2631.55 1026.41C2634.55 1041.18 2632.24 1054.87 2624.62 1067.49C2616.87 1079.52 2606.01 1086.95 2592.02 1089.8C2578.31 1092.59 2565.55 1089.96 2553.72 1081.91C2541.76 1073.27 2534.28 1061.56 2531.28 1046.8L2459.33 693.371C2456.38 678.903 2458.75 665.513 2466.43 653.186C2474.06 640.563 2484.72 632.862 2498.44 630.073C2512.42 627.229 2525.39 630.129 2537.34 638.765C2549.24 647.114 2556.66 658.523 2559.6 672.983L2631.55 1026.41ZM2628.17 1267.4C2614.47 1270.18 2601.67 1267.4 2589.78 1259.06C2577.83 1250.43 2570.38 1238.87 2567.43 1224.41C2564.48 1209.94 2566.86 1196.54 2574.54 1184.21C2582.17 1171.59 2592.83 1163.89 2606.53 1161.12C2620.52 1158.26 2633.49 1161.16 2645.44 1169.8C2657.35 1178.14 2664.76 1189.55 2667.71 1204.02C2670.66 1218.49 2668.31 1232.03 2660.69 1244.65C2653 1256.97 2642.16 1264.56 2628.17 1267.4ZM2539.57 660.456C2532.49 651.436 2523.5 645.892 2512.58 643.799C2507.47 643 2502.82 643.024 2498.62 643.871C2494.42 644.725 2490.81 646.235 2487.75 648.392C2485.75 650.03 2484.84 651.284 2485.02 652.171L2485.29 653.505C2485.59 654.975 2486.86 655.487 2489.1 655.031C2506.44 651.508 2522.55 654.84 2537.45 665.042C2538.75 665.697 2539.68 665.968 2540.24 665.857C2540.52 665.801 2540.77 665.593 2540.98 665.241C2541.48 664.834 2541.7 664.482 2541.64 664.187C2541.41 663.004 2540.71 661.758 2539.57 660.456ZM2651.57 1187C2644.49 1177.99 2635.53 1172.58 2624.67 1170.79C2619.56 1169.99 2614.77 1170.04 2610.29 1170.95C2606.38 1171.75 2602.89 1173.22 2599.83 1175.39C2597.28 1177.14 2594.91 1180.53 2592.74 1185.59C2591.7 1187.65 2591.3 1189.26 2591.54 1190.45C2591.84 1191.92 2593.39 1192.38 2596.18 1191.8L2597.02 1191.64C2602.04 1189.08 2606.64 1187.38 2610.83 1186.52C2624.27 1183.79 2635.63 1188.86 2644.95 1201.73C2645.63 1202.2 2646.25 1202.38 2646.81 1202.27C2648.21 1201.98 2649.54 1200.64 2650.8 1198.23C2652.77 1195.06 2653.58 1192.59 2653.22 1190.82L2653.13 1190.37C2652.95 1189.49 2652.43 1188.37 2651.57 1187Z" fill="#FF3A6A"/>
<path d="M657.002 232.632L719.006 133.911C723.579 126.425 730.127 121.711 738.649 119.778C747.003 117.885 754.861 119.323 762.216 124.1C769.539 128.71 774.151 135.189 776.046 143.538C778.021 152.23 776.702 160.227 772.097 167.545L710.037 266.019L808.567 328.03C815.93 332.816 820.574 339.462 822.517 347.979C824.412 356.327 823.077 364.245 818.496 371.73C813.891 379.048 807.408 383.658 799.054 385.552C790.532 387.485 782.601 386.151 775.287 381.541L676.637 319.01L614.177 418.107C609.564 425.425 603.081 430.035 594.735 431.928C586.205 433.862 578.282 432.528 570.96 427.918C563.605 423.14 558.976 416.573 557.073 408.225C555.139 399.708 556.458 391.703 561.031 384.217L623.091 285.752L524.552 223.732C517.23 219.123 512.585 212.476 510.61 203.784C508.716 195.435 510.067 187.606 514.679 180.288C519.252 172.802 525.8 168.088 534.33 166.155C542.684 164.261 550.534 165.699 557.897 170.477L657.002 232.632ZM765.773 136.196C761.392 131.099 755.876 128.143 749.233 127.32C746.107 126.952 743.173 127.08 740.447 127.703C738.065 128.239 735.946 129.173 734.092 130.483C732.541 131.554 730.998 133.431 729.455 136.108C729.079 137.626 728.967 138.728 729.127 139.407C729.319 140.262 730.27 140.494 731.973 140.102L732.485 139.991C735.531 138.401 738.329 137.314 740.887 136.739C749.073 134.877 756.052 137.594 761.832 144.88C762.248 145.143 762.632 145.239 762.975 145.159C763.823 144.968 764.63 144.161 765.382 142.731C766.565 140.853 767.044 139.399 766.813 138.377L766.749 138.121C766.637 137.61 766.309 136.971 765.773 136.196ZM517.877 194.34C517.725 195.275 517.717 195.994 517.829 196.505L517.885 196.761C518.117 197.784 519.18 198.886 521.059 200.069C522.354 201.027 523.425 201.411 524.281 201.219C524.624 201.139 524.92 200.891 525.184 200.476C527.247 191.408 532.371 185.944 540.557 184.09C543.115 183.507 546.105 183.275 549.543 183.395L550.054 183.275C551.757 182.892 552.509 182.269 552.317 181.422C552.165 180.735 551.589 179.792 550.598 178.586C548.048 176.836 545.841 175.814 543.987 175.518C541.748 175.127 539.43 175.206 537.048 175.75C534.322 176.365 531.619 177.515 528.957 179.201C523.321 182.804 519.628 187.853 517.877 194.34Z" fill="#FF3A6A"/>
<path d="M2655.82 593.174C2670.35 590.351 2684.04 591.202 2696.88 595.729C2709.67 600.004 2720.47 607.398 2729.27 617.909C2738.02 628.169 2743.81 640.566 2746.64 655.099C2749.46 669.632 2748.76 683.419 2744.53 696.462C2740.3 709.504 2733.08 720.527 2722.87 729.531C2712.61 738.285 2700.21 744.073 2685.68 746.896C2670.9 749.768 2657.11 749.066 2644.32 744.79C2631.48 740.264 2620.66 732.745 2611.85 722.234C2603.05 711.723 2597.24 699.201 2594.42 684.668C2591.59 670.135 2592.32 656.473 2596.6 643.682C2600.82 630.639 2608.07 619.741 2618.33 610.988C2628.54 601.983 2641.04 596.045 2655.82 593.174ZM2682.76 731.862C2700.8 728.358 2714.21 719.772 2723 706.104C2732.04 692.388 2734.78 676.384 2731.23 658.092C2727.67 639.801 2719.14 625.988 2705.62 616.652C2692.36 607.267 2676.71 604.327 2658.67 607.832C2640.38 611.385 2626.84 619.995 2618.05 633.663C2609.52 647.282 2607.02 663.237 2610.58 681.529C2614.13 699.82 2622.41 713.682 2635.43 723.116C2648.69 732.5 2664.47 735.416 2682.76 731.862ZM2701.47 647.491C2702.64 653.504 2702.01 658.957 2699.58 663.85C2697.35 668.443 2693.65 672.152 2688.48 674.976L2715.59 702.083L2691.98 707.059L2668.1 680.495L2661.71 681.737L2667.55 711.805L2648.01 715.601L2632.31 634.793L2668.39 627.784C2676.91 626.129 2684.12 627.07 2690 630.607C2696.14 634.095 2699.96 639.723 2701.47 647.491ZM2658.57 665.575L2673.98 662.582C2676.74 662.046 2678.85 660.856 2680.31 659.012C2682.02 657.119 2682.61 654.795 2682.08 652.039C2681.54 649.283 2680.15 647.473 2677.9 646.609C2675.85 645.447 2673.45 645.133 2670.7 645.668L2655.29 648.662L2658.57 665.575Z" fill="white"/>
</svg>
