<svg width="34" height="34" viewBox="0 0 34 34" fill="none" xmlns="http://www.w3.org/2000/svg">
<path fill-rule="evenodd" clip-rule="evenodd" d="M16.7564 33.1539C25.9418 33.1539 33.388 25.8221 33.388 16.7779C33.388 7.73364 25.9418 0.401855 16.7564 0.401855C7.571 0.401855 0.124756 7.73364 0.124756 16.7779C0.124756 25.8221 7.571 33.1539 16.7564 33.1539ZM16.9165 1.03136C16.2983 1.03136 15.7971 1.53255 15.7971 2.1508V5.58054C15.7971 6.19879 16.2983 6.69998 16.9165 6.69998C17.5348 6.69998 18.036 6.19879 18.036 5.58054V2.1508C18.036 1.53255 17.5348 1.03136 16.9165 1.03136ZM5.50729 7.1488C5.07012 6.71835 5.07012 6.02046 5.50729 5.59001C5.94446 5.15956 6.65324 5.15956 7.09041 5.59001L9.57818 8.03954C10.0153 8.46998 10.0153 9.16788 9.57818 9.59832C9.14101 10.0288 8.43222 10.0288 7.99505 9.59832L5.50729 7.1488ZM32.7483 16.7775C32.7483 16.1688 32.2548 15.6753 31.6461 15.6753H28.0934C27.4847 15.6753 26.9912 16.1688 26.9912 16.7775C26.9912 17.3863 27.4847 17.8797 28.0934 17.8797H31.6461C32.2548 17.8797 32.7483 17.3863 32.7483 16.7775ZM26.4268 5.70199C26.864 5.27154 27.5728 5.27154 28.0099 5.70199C28.4471 6.13243 28.4471 6.83033 28.0099 7.26078L25.5222 9.71031C25.085 10.1408 24.3762 10.1408 23.939 9.71031C23.5019 9.27986 23.5019 8.58197 23.939 8.15152L26.4268 5.70199ZM16.9165 26.8554C16.2983 26.8554 15.7971 27.3566 15.7971 27.9749V31.4046C15.7971 32.0229 16.2983 32.5241 16.9165 32.5241C17.5348 32.5241 18.036 32.0229 18.036 31.4046V27.9749C18.036 27.3566 17.5348 26.8554 16.9165 26.8554ZM23.6252 25.0995C23.188 24.6691 23.188 23.9712 23.6252 23.5407C24.0623 23.1103 24.7711 23.1103 25.2083 23.5407L27.6961 25.9903C28.1332 26.4207 28.1332 27.1186 27.6961 27.5491C27.2589 27.9795 26.5501 27.9795 26.1129 27.5491L23.6252 25.0995ZM6.52162 16.7775C6.52162 16.1688 6.02813 15.6753 5.41939 15.6753H1.86673C1.25799 15.6753 0.764506 16.1688 0.764506 16.7775C0.764506 17.3863 1.25799 17.8797 1.86673 17.8797H5.41939C6.02813 17.8797 6.52162 17.3863 6.52162 16.7775ZM7.88225 23.8555C8.31941 23.4251 9.0282 23.4251 9.46537 23.8555C9.90254 24.286 9.90254 24.9839 9.46537 25.4143L6.9776 27.8638C6.54044 28.2943 5.83165 28.2943 5.39448 27.8638C4.95731 27.4334 4.95731 26.7355 5.39448 26.3051L7.88225 23.8555ZM12.8387 9.8862C12.3032 10.1906 12.1217 10.868 12.4333 11.3993L16.1027 17.6573C16.3265 18.039 16.744 18.2414 17.1598 18.2122C17.1884 18.2145 17.2172 18.2156 17.2463 18.2156H21.4386C22.0473 18.2156 22.5408 17.7221 22.5408 17.1133C22.5408 16.5046 22.0473 16.0111 21.4386 16.0111H17.7227L14.3722 10.2971C14.0607 9.76577 13.3741 9.58182 12.8387 9.8862Z" fill="white"/>
</svg>
