<svg width="21" height="22" viewBox="0 0 21 22" fill="none" xmlns="http://www.w3.org/2000/svg">
<path d="M10.7664 16.7812C11.3184 16.7812 11.7658 16.3338 11.7658 15.7818C11.7658 15.2299 11.3184 14.7825 10.7664 14.7825C10.2145 14.7825 9.76709 15.2299 9.76709 15.7818C9.76709 16.3338 10.2145 16.7812 10.7664 16.7812Z" fill="white"/>
<path d="M10.7666 0.651611C5.11089 0.651611 0.533203 5.22853 0.533203 10.885C0.533203 16.5407 5.11013 21.1184 10.7666 21.1184C16.4223 21.1184 21 16.5415 21 10.885C21 5.22929 16.4231 0.651611 10.7666 0.651611ZM10.7666 19.5194C5.99459 19.5194 2.13217 15.6576 2.13217 10.885C2.13217 6.113 5.99395 2.25058 10.7666 2.25058C15.5386 2.25058 19.401 6.11236 19.401 10.885C19.401 15.657 15.5392 19.5194 10.7666 19.5194Z" fill="white"/>
<path d="M10.7668 5.78833C9.00344 5.78833 7.56885 7.22292 7.56885 8.98626C7.56885 9.42782 7.92678 9.78575 8.36833 9.78575C8.80989 9.78575 9.16781 9.42782 9.16781 8.98626C9.16781 8.10459 9.88511 7.3873 10.7668 7.3873C11.6485 7.3873 12.3657 8.10459 12.3657 8.98626C12.3657 9.86793 11.6485 10.5852 10.7668 10.5852C10.3252 10.5852 9.9673 10.9432 9.9673 11.3847V13.3834C9.9673 13.825 10.3252 14.1829 10.7668 14.1829C11.2083 14.1829 11.5663 13.825 11.5663 13.3834V12.083C12.944 11.7271 13.9647 10.4737 13.9647 8.98626C13.9647 7.22292 12.5301 5.78833 10.7668 5.78833Z" fill="white"/>
</svg>
