<svg width="23" height="17" viewBox="0 0 23 17" fill="none" xmlns="http://www.w3.org/2000/svg">
<g filter="url(#filter0_d_7385_165043)">
<path d="M8.77951 13.0605C8.45075 13.0359 8.16424 13.2824 8.13959 13.6112C8.11493 13.9399 8.36146 14.2264 8.69022 14.2511L8.77951 13.0605ZM17.7913 4.18446C17.5469 3.96317 17.1694 3.98189 16.9481 4.22627L13.342 8.20871C13.1207 8.4531 13.1394 8.8306 13.3838 9.05189C13.6282 9.27318 14.0057 9.25446 14.227 9.01008L17.4324 5.47013L20.9724 8.6756C21.2168 8.89689 21.5943 8.87817 21.8156 8.63379C22.0369 8.3894 22.0181 8.0119 21.7737 7.79061L17.7913 4.18446ZM8.69022 14.2511C10.1848 14.3632 11.5472 14.4235 12.732 14.2972C13.9215 14.1703 14.9845 13.8505 15.8432 13.1604C17.568 11.774 18.2109 9.11648 17.9868 4.59739L16.7944 4.65652C17.018 9.16628 16.3179 11.247 15.0952 12.2298C14.4801 12.7242 13.6683 12.9967 12.6054 13.11C11.5376 13.2239 10.2697 13.1723 8.77951 13.0605L8.69022 14.2511Z" fill="white"/>
<path d="M14.6585 1.99831C14.9872 2.02297 15.2737 1.77644 15.2984 1.44768C15.3231 1.11892 15.0765 0.832414 14.7478 0.807757L14.6585 1.99831ZM5.64403 10.872C5.88708 11.0947 6.26469 11.0783 6.48744 10.8352L10.1175 6.87455C10.3402 6.6315 10.3238 6.25389 10.0808 6.03113C9.8377 5.80837 9.4601 5.82482 9.23734 6.06787L6.01063 9.58847L2.49003 6.36176C2.24698 6.13901 1.86937 6.15545 1.64662 6.3985C1.42386 6.64155 1.44031 7.01916 1.68335 7.24191L5.64403 10.872ZM14.7478 0.807757C13.2441 0.694985 11.8824 0.66386 10.6974 0.829159C9.50676 0.995229 8.4565 1.36457 7.61057 2.0823C5.91472 3.52118 5.26366 6.15711 5.45098 10.4579L6.64375 10.4059C6.45799 6.14112 7.15006 4.03877 8.38299 2.99267C9.00145 2.46793 9.81199 2.15811 10.8623 2.01161C11.9181 1.86434 13.1774 1.88723 14.6585 1.99831L14.7478 0.807757Z" fill="white"/>
</g>
<defs>
<filter id="filter0_d_7385_165043" x="0.580278" y="0.714111" width="22.2994" height="15.4727" filterUnits="userSpaceOnUse" color-interpolation-filters="sRGB">
<feFlood flood-opacity="0" result="BackgroundImageFix"/>
<feColorMatrix in="SourceAlpha" type="matrix" values="0 0 0 0 0 0 0 0 0 0 0 0 0 0 0 0 0 0 127 0" result="hardAlpha"/>
<feOffset dy="0.909468"/>
<feGaussianBlur stdDeviation="0.454734"/>
<feComposite in2="hardAlpha" operator="out"/>
<feColorMatrix type="matrix" values="0 0 0 0 0 0 0 0 0 0 0 0 0 0 0 0 0 0 0.25 0"/>
<feBlend mode="normal" in2="BackgroundImageFix" result="effect1_dropShadow_7385_165043"/>
<feBlend mode="normal" in="SourceGraphic" in2="effect1_dropShadow_7385_165043" result="shape"/>
</filter>
</defs>
</svg>
