<svg width="36" height="37" viewBox="0 0 36 37" fill="none" xmlns="http://www.w3.org/2000/svg">
<path d="M21.2173 3.79653L22.4535 11.4516L24.0996 11.1857L22.4535 11.4516C22.5429 12.0052 22.8036 12.5168 23.1989 12.9146L28.6654 18.4142L21.767 21.9554L22.5835 23.546L21.767 21.9554C21.2681 22.2115 20.862 22.6176 20.6059 23.1165L17.0647 30.0149L11.5651 24.5484C11.1673 24.1531 10.6557 23.8924 10.1021 23.803L2.44703 22.5668L5.94643 15.6471C6.1995 15.1467 6.28934 14.5795 6.20329 14.0253L5.01346 6.36296L12.6758 7.55279C13.23 7.63884 13.7972 7.54901 14.2976 7.29593L13.4908 5.70048L14.2976 7.29593L21.2173 3.79653ZM22.3073 3.2453L22.3083 3.24479L21.9049 2.44707L22.3083 3.24479C22.3079 3.24496 22.3076 3.24513 22.3073 3.2453Z" stroke="white" stroke-width="3.57572"/>
<path d="M25.3418 25.9131L32.5707 33.304" stroke="white" stroke-width="3.57572"/>
</svg>
