<svg width="24" height="22" viewBox="0 0 24 22" fill="none" xmlns="http://www.w3.org/2000/svg">
<path d="M13.832 0.561749C15.72 0.561749 17.368 0.921749 18.776 1.64175C20.184 2.34575 21.264 3.34575 22.016 4.64175C22.784 5.92175 23.168 7.40175 23.168 9.08175C23.168 10.4417 22.928 11.7057 22.448 12.8737C21.984 14.0417 21.288 14.9777 20.36 15.6817C19.448 16.3697 18.36 16.7138 17.096 16.7138C16.248 16.7138 15.544 16.5457 14.984 16.2097C14.44 15.8737 14.072 15.4017 13.88 14.7937C13.432 15.4177 12.856 15.9057 12.152 16.2577C11.448 16.5938 10.68 16.7618 9.848 16.7618C8.664 16.7618 7.728 16.4097 7.04 15.7057C6.368 14.9857 6.032 14.0097 6.032 12.7777C6.032 11.6097 6.272 10.5137 6.752 9.48975C7.232 8.44975 7.896 7.61775 8.744 6.99375C9.592 6.36975 10.544 6.05775 11.6 6.05775C12.944 6.05775 13.856 6.53775 14.336 7.49775L14.552 6.22575H17.864L16.808 12.2497C16.76 12.5377 16.736 12.7937 16.736 13.0177C16.736 13.7217 17.048 14.0737 17.672 14.0737C18.44 14.0737 19.024 13.5857 19.424 12.6097C19.84 11.6177 20.048 10.4817 20.048 9.20175C20.048 7.36175 19.464 5.92175 18.296 4.88175C17.144 3.84175 15.52 3.32175 13.424 3.32175C11.632 3.32175 10 3.75375 8.528 4.61775C7.072 5.48175 5.928 6.66575 5.096 8.16975C4.264 9.65775 3.848 11.2977 3.848 13.0897C3.848 15.0257 4.408 16.5298 5.528 17.6018C6.664 18.6738 8.248 19.2098 10.28 19.2098C11.864 19.2098 13.28 18.9218 14.528 18.3458L15.176 20.9618C13.608 21.6498 11.848 21.9938 9.896 21.9938C8.072 21.9938 6.464 21.6418 5.072 20.9378C3.696 20.2338 2.632 19.2338 1.88 17.9378C1.128 16.6418 0.752 15.1297 0.752 13.4017C0.752 10.9857 1.32 8.80175 2.456 6.84975C3.592 4.88175 5.152 3.34575 7.136 2.24175C9.136 1.12175 11.368 0.561749 13.832 0.561749ZM11.192 13.8097C11.64 13.8097 12.056 13.6737 12.44 13.4017C12.84 13.1297 13.152 12.7697 13.376 12.3217C13.616 11.8577 13.736 11.3617 13.736 10.8337C13.736 10.2897 13.584 9.84975 13.28 9.51375C12.976 9.16175 12.56 8.98575 12.032 8.98575C11.328 8.98575 10.744 9.28975 10.28 9.89775C9.816 10.5057 9.584 11.2257 9.584 12.0577C9.584 12.5857 9.72 13.0097 9.992 13.3297C10.264 13.6497 10.664 13.8097 11.192 13.8097Z" fill="black"/>
</svg>
