<svg width="24" height="24" viewBox="0 0 24 24" fill="none" xmlns="http://www.w3.org/2000/svg">
<path d="M12 0C5.3715 0 0 5.373 0 12C0 18.627 5.3715 24 12 24C18.6285 24 24 18.627 24 12C24 5.373 18.6285 0 12 0ZM17.5605 15.4395C17.8418 15.7208 17.9998 16.1022 17.9998 16.5C17.9998 16.8978 17.8418 17.2792 17.5605 17.5605C17.2792 17.8418 16.8978 17.9998 16.5 17.9998C16.1022 17.9998 15.7208 17.8418 15.4395 17.5605L12 14.121L8.5605 17.5605C8.42152 17.7003 8.25628 17.8112 8.07428 17.8869C7.89228 17.9626 7.69711 18.0016 7.5 18.0016C7.30289 18.0016 7.10772 17.9626 6.92572 17.8869C6.74372 17.8112 6.57848 17.7003 6.4395 17.5605C6.15829 17.2792 6.00032 16.8977 6.00032 16.5C6.00032 16.1023 6.15829 15.7208 6.4395 15.4395L9.879 12L6.4395 8.5605C6.15824 8.27924 6.00023 7.89776 6.00023 7.5C6.00023 7.10224 6.15824 6.72076 6.4395 6.4395C6.72076 6.15824 7.10224 6.00023 7.5 6.00023C7.89776 6.00023 8.27924 6.15824 8.5605 6.4395L12 9.879L15.4395 6.4395C15.7208 6.15824 16.1022 6.00023 16.5 6.00023C16.8978 6.00023 17.2792 6.15824 17.5605 6.4395C17.8418 6.72076 17.9998 7.10224 17.9998 7.5C17.9998 7.89776 17.8418 8.27924 17.5605 8.5605L14.121 12L17.5605 15.4395Z" fill="#02215F"/>
</svg>
