<svg width="19" height="20" viewBox="0 0 19 20" fill="none" xmlns="http://www.w3.org/2000/svg">
<path fill-rule="evenodd" clip-rule="evenodd" d="M3.5 6C3.5 4.4087 4.13214 2.88258 5.25736 1.75736C6.38258 0.632141 7.9087 0 9.5 0C11.0913 0 12.6174 0.632141 13.7426 1.75736C14.8679 2.88258 15.5 4.4087 15.5 6H16.5C17.0304 6 17.5391 6.21071 17.9142 6.58579C18.2893 6.96086 18.5 7.46957 18.5 8V18C18.5 18.5304 18.2893 19.0391 17.9142 19.4142C17.5391 19.7893 17.0304 20 16.5 20H2.5C1.96957 20 1.46086 19.7893 1.08579 19.4142C0.710714 19.0391 0.5 18.5304 0.5 18V8C0.5 7.46957 0.710714 6.96086 1.08579 6.58579C1.46086 6.21071 1.96957 6 2.5 6H3.5ZM9.5 2C10.5609 2 11.5783 2.42143 12.3284 3.17157C13.0786 3.92172 13.5 4.93913 13.5 6H5.5C5.5 4.93913 5.92143 3.92172 6.67157 3.17157C7.42172 2.42143 8.43914 2 9.5 2ZM11.5 12C11.5 12.3511 11.4076 12.6959 11.232 13C11.0565 13.304 10.804 13.5565 10.5 13.732V15C10.5 15.2652 10.3946 15.5196 10.2071 15.7071C10.0196 15.8946 9.76522 16 9.5 16C9.23478 16 8.98043 15.8946 8.79289 15.7071C8.60536 15.5196 8.5 15.2652 8.5 15V13.732C8.11874 13.5119 7.82078 13.1721 7.65231 12.7653C7.48384 12.3586 7.45429 11.9076 7.56824 11.4824C7.68219 11.0571 7.93326 10.6813 8.28253 10.4133C8.6318 10.1453 9.05975 10 9.5 10C10.0304 10 10.5391 10.2107 10.9142 10.5858C11.2893 10.9609 11.5 11.4696 11.5 12Z" fill="white"/>
</svg>
