<svg width="14" height="12" viewBox="0 0 14 12" fill="none" xmlns="http://www.w3.org/2000/svg">
<path d="M12.0943 3.02106C11.942 2.86884 11.7356 2.78333 11.5203 2.78333C11.305 2.78333 11.0985 2.86884 10.9462 3.02106L6.92713 7.04015L2.90803 3.02106C2.7549 2.87316 2.5498 2.79132 2.33691 2.79317C2.12403 2.79502 1.92038 2.88041 1.76984 3.03095C1.6193 3.18149 1.53391 3.38513 1.53206 3.59802C1.53021 3.81091 1.61205 4.01601 1.75995 4.16914L6.35309 8.76228C6.50535 8.91449 6.71183 9 6.92713 9C7.14243 9 7.34891 8.91449 7.50117 8.76228L12.0943 4.16914C12.2465 4.01688 12.332 3.8104 12.332 3.5951C12.332 3.3798 12.2465 3.17332 12.0943 3.02106Z" fill="#384466"/>
</svg>
