<svg width="18" height="17" viewBox="0 0 18 17" fill="none" xmlns="http://www.w3.org/2000/svg">
<path d="M0 14.5261C0 14.9884 0.17779 15.4318 0.494257 15.7587C0.810725 16.0856 1.23995 16.2692 1.6875 16.2692H16.3125C16.7601 16.2692 17.1893 16.0856 17.5057 15.7587C17.8222 15.4318 18 14.9884 18 14.5261V6.39148C18 5.92918 17.8222 5.4858 17.5057 5.1589C17.1893 4.832 16.7601 4.64835 16.3125 4.64835H1.6875C1.23995 4.64835 0.810725 4.832 0.494257 5.1589C0.17779 5.4858 0 5.92918 0 6.39148L0 14.5261ZM2.25 2.90522C2.25 3.05932 2.30926 3.20711 2.41475 3.31608C2.52024 3.42505 2.66332 3.48626 2.8125 3.48626H15.1875C15.3367 3.48626 15.4798 3.42505 15.5852 3.31608C15.6907 3.20711 15.75 3.05932 15.75 2.90522C15.75 2.75112 15.6907 2.60333 15.5852 2.49436C15.4798 2.38539 15.3367 2.32418 15.1875 2.32418H2.8125C2.66332 2.32418 2.52024 2.38539 2.41475 2.49436C2.30926 2.60333 2.25 2.75112 2.25 2.90522ZM4.5 0.581044C4.5 0.735146 4.55926 0.882937 4.66475 0.991904C4.77024 1.10087 4.91332 1.16209 5.0625 1.16209H12.9375C13.0867 1.16209 13.2298 1.10087 13.3352 0.991904C13.4407 0.882937 13.5 0.735146 13.5 0.581044C13.5 0.426942 13.4407 0.279151 13.3352 0.170184C13.2298 0.0612169 13.0867 0 12.9375 0H5.0625C4.91332 0 4.77024 0.0612169 4.66475 0.170184C4.55926 0.279151 4.5 0.426942 4.5 0.581044Z" fill="white"/>
</svg>
