<svg width="168" height="82" viewBox="0 0 168 82" fill="none" xmlns="http://www.w3.org/2000/svg">
<g filter="url(#filter0_d_22589_17231)">
<rect x="22.5859" y="17" width="123" height="38" rx="19" fill="url(#paint0_linear_22589_17231)"/>
<path d="M52.7288 37.3571H45.9431V44.1429C45.9431 44.5028 45.8001 44.848 45.5456 45.1025C45.2911 45.357 44.9459 45.5 44.5859 45.5C44.226 45.5 43.8808 45.357 43.6263 45.1025C43.3718 44.848 43.2288 44.5028 43.2288 44.1429V37.3571H36.4431C36.0831 37.3571 35.7379 37.2142 35.4834 36.9596C35.2289 36.7051 35.0859 36.3599 35.0859 36C35.0859 35.6401 35.2289 35.2949 35.4834 35.0404C35.7379 34.7858 36.0831 34.6429 36.4431 34.6429H43.2288V27.8571C43.2288 27.4972 43.3718 27.152 43.6263 26.8975C43.8808 26.643 44.226 26.5 44.5859 26.5C44.9459 26.5 45.2911 26.643 45.5456 26.8975C45.8001 27.152 45.9431 27.4972 45.9431 27.8571V34.6429H52.7288C53.0887 34.6429 53.4339 34.7858 53.6884 35.0404C53.943 35.2949 54.0859 35.6401 54.0859 36C54.0859 36.3599 53.943 36.7051 53.6884 36.9596C53.4339 37.2142 53.0887 37.3571 52.7288 37.3571Z" fill="white"/>
<path d="M63.6776 35.96C63.6776 34.5733 63.9776 33.34 64.5776 32.26C65.1776 31.1667 66.0109 30.32 67.0776 29.72C68.1576 29.1067 69.3776 28.8 70.7376 28.8C72.4042 28.8 73.8309 29.24 75.0176 30.12C76.2042 31 76.9976 32.2 77.3976 33.72H73.6376C73.3576 33.1333 72.9576 32.6867 72.4376 32.38C71.9309 32.0733 71.3509 31.92 70.6976 31.92C69.6442 31.92 68.7909 32.2867 68.1376 33.02C67.4842 33.7533 67.1576 34.7333 67.1576 35.96C67.1576 37.1867 67.4842 38.1667 68.1376 38.9C68.7909 39.6333 69.6442 40 70.6976 40C71.3509 40 71.9309 39.8467 72.4376 39.54C72.9576 39.2333 73.3576 38.7867 73.6376 38.2H77.3976C76.9976 39.72 76.2042 40.92 75.0176 41.8C73.8309 42.6667 72.4042 43.1 70.7376 43.1C69.3776 43.1 68.1576 42.8 67.0776 42.2C66.0109 41.5867 65.1776 40.74 64.5776 39.66C63.9776 38.58 63.6776 37.3467 63.6776 35.96ZM82.912 33.7C83.312 33.0867 83.812 32.6067 84.412 32.26C85.012 31.9 85.6786 31.72 86.412 31.72V35.34H85.472C84.6186 35.34 83.9786 35.5267 83.552 35.9C83.1253 36.26 82.912 36.9 82.912 37.82V43H79.492V31.84H82.912V33.7ZM98.5666 37.24C98.5666 37.56 98.5466 37.8933 98.5066 38.24H90.7666C90.82 38.9333 91.04 39.4667 91.4266 39.84C91.8266 40.2 92.3133 40.38 92.8866 40.38C93.74 40.38 94.3333 40.02 94.6666 39.3H98.3066C98.12 40.0333 97.78 40.6933 97.2866 41.28C96.8066 41.8667 96.2 42.3267 95.4666 42.66C94.7333 42.9933 93.9133 43.16 93.0066 43.16C91.9133 43.16 90.94 42.9267 90.0866 42.46C89.2333 41.9933 88.5666 41.3267 88.0866 40.46C87.6066 39.5933 87.3666 38.58 87.3666 37.42C87.3666 36.26 87.6 35.2467 88.0666 34.38C88.5466 33.5133 89.2133 32.8467 90.0666 32.38C90.92 31.9133 91.9 31.68 93.0066 31.68C94.0866 31.68 95.0466 31.9067 95.8866 32.36C96.7266 32.8133 97.38 33.46 97.8466 34.3C98.3266 35.14 98.5666 36.12 98.5666 37.24ZM95.0666 36.34C95.0666 35.7533 94.8666 35.2867 94.4666 34.94C94.0666 34.5933 93.5666 34.42 92.9666 34.42C92.3933 34.42 91.9066 34.5867 91.5066 34.92C91.12 35.2533 90.88 35.7267 90.7866 36.34H95.0666ZM99.6909 37.4C99.6909 36.2533 99.9042 35.2467 100.331 34.38C100.771 33.5133 101.364 32.8467 102.111 32.38C102.858 31.9133 103.691 31.68 104.611 31.68C105.398 31.68 106.084 31.84 106.671 32.16C107.271 32.48 107.731 32.9 108.051 33.42V31.84H111.471V43H108.051V41.42C107.718 41.94 107.251 42.36 106.651 42.68C106.064 43 105.378 43.16 104.591 43.16C103.684 43.16 102.858 42.9267 102.111 42.46C101.364 41.98 100.771 41.3067 100.331 40.44C99.9042 39.56 99.6909 38.5467 99.6909 37.4ZM108.051 37.42C108.051 36.5667 107.811 35.8933 107.331 35.4C106.864 34.9067 106.291 34.66 105.611 34.66C104.931 34.66 104.351 34.9067 103.871 35.4C103.404 35.88 103.171 36.5467 103.171 37.4C103.171 38.2533 103.404 38.9333 103.871 39.44C104.351 39.9333 104.931 40.18 105.611 40.18C106.291 40.18 106.864 39.9333 107.331 39.44C107.811 38.9467 108.051 38.2733 108.051 37.42ZM120.165 40.1V43H118.425C117.185 43 116.218 42.7 115.525 42.1C114.832 41.4867 114.485 40.4933 114.485 39.12V34.68H113.125V31.84H114.485V29.12H117.905V31.84H120.145V34.68H117.905V39.16C117.905 39.4933 117.985 39.7333 118.145 39.88C118.305 40.0267 118.572 40.1 118.945 40.1H120.165ZM132.59 37.24C132.59 37.56 132.57 37.8933 132.53 38.24H124.79C124.843 38.9333 125.063 39.4667 125.45 39.84C125.85 40.2 126.337 40.38 126.91 40.38C127.763 40.38 128.357 40.02 128.69 39.3H132.33C132.143 40.0333 131.803 40.6933 131.31 41.28C130.83 41.8667 130.223 42.3267 129.49 42.66C128.757 42.9933 127.937 43.16 127.03 43.16C125.937 43.16 124.963 42.9267 124.11 42.46C123.257 41.9933 122.59 41.3267 122.11 40.46C121.63 39.5933 121.39 38.58 121.39 37.42C121.39 36.26 121.623 35.2467 122.09 34.38C122.57 33.5133 123.237 32.8467 124.09 32.38C124.943 31.9133 125.923 31.68 127.03 31.68C128.11 31.68 129.07 31.9067 129.91 32.36C130.75 32.8133 131.403 33.46 131.87 34.3C132.35 35.14 132.59 36.12 132.59 37.24ZM129.09 36.34C129.09 35.7533 128.89 35.2867 128.49 34.94C128.09 34.5933 127.59 34.42 126.99 34.42C126.417 34.42 125.93 34.5867 125.53 34.92C125.143 35.2533 124.903 35.7267 124.81 36.34H129.09Z" fill="white"/>
</g>
<defs>
<filter id="filter0_d_22589_17231" x="0.585938" y="0" width="167" height="82" filterUnits="userSpaceOnUse" color-interpolation-filters="sRGB">
<feFlood flood-opacity="0" result="BackgroundImageFix"/>
<feColorMatrix in="SourceAlpha" type="matrix" values="0 0 0 0 0 0 0 0 0 0 0 0 0 0 0 0 0 0 127 0" result="hardAlpha"/>
<feOffset dy="5"/>
<feGaussianBlur stdDeviation="11"/>
<feColorMatrix type="matrix" values="0 0 0 0 0.958333 0 0 0 0 0.746701 0 0 0 0 0.848285 0 0 0 0.3 0"/>
<feBlend mode="normal" in2="BackgroundImageFix" result="effect1_dropShadow_22589_17231"/>
<feBlend mode="normal" in="SourceGraphic" in2="effect1_dropShadow_22589_17231" result="shape"/>
</filter>
<linearGradient id="paint0_linear_22589_17231" x1="22.5859" y1="36" x2="145.586" y2="36" gradientUnits="userSpaceOnUse">
<stop stop-color="#F60E44"/>
<stop offset="1" stop-color="#E31C5E"/>
</linearGradient>
</defs>
</svg>
