<svg width="21" height="22" viewBox="0 0 21 22" fill="none" xmlns="http://www.w3.org/2000/svg">
<path d="M4.85983 9.12618C4.93412 9.91189 4.51483 10.5933 3.92912 10.6405C3.3434 10.6869 2.80769 10.0883 2.73412 9.30261C2.65983 8.51618 3.07912 7.83547 3.66483 7.78832C4.25054 7.73618 4.78626 8.33404 4.85983 9.12618ZM8.21554 17.7826C8.80126 17.7362 9.21983 17.0555 9.14554 16.269C9.07197 15.4769 8.53554 14.879 7.95054 14.9319C7.36483 14.9783 6.94554 15.659 7.01983 16.4455C7.0934 17.2312 7.63054 17.8298 8.21554 17.7826ZM17.5013 7.78832C18.087 7.83475 18.5055 8.51547 18.4313 9.30189C18.3577 10.094 17.8213 10.6919 17.2355 10.6398C16.6498 10.5926 16.2313 9.91189 16.3055 9.12547C16.3791 8.33975 16.9155 7.74118 17.5013 7.78832ZM16.2884 12.8733C16.3627 12.0876 15.9434 11.4062 15.3584 11.359C14.7727 11.3126 14.237 11.9112 14.1627 12.6969C14.0884 13.4833 14.5077 14.164 15.0927 14.2112C15.6784 14.2633 16.2141 13.6655 16.2884 12.8733ZM13.2155 14.9312C13.8013 14.9776 14.2198 15.6583 14.1455 16.4447C14.072 17.2369 13.5355 17.8348 12.9498 17.7819C12.3641 17.7355 11.9455 17.0547 12.0198 16.2683C12.0934 15.4826 12.6298 14.884 13.2155 14.9312Z" fill="#384466"/>
<path d="M9.07087 0.965376L2.36444 3.86038C2.20801 3.93038 2.0673 4.02466 1.94301 4.13895C1.55461 4.23403 1.20942 4.45682 0.962794 4.77157C0.716173 5.08633 0.582425 5.4748 0.58301 5.87466V15.9961C0.583059 16.4123 0.704337 16.8196 0.932027 17.168C1.15972 17.5164 1.48396 17.791 1.86515 17.9582L8.79444 20.9961C9.00658 21.0889 9.22301 21.1375 9.43729 21.1461C10.1755 21.427 10.9912 21.427 11.7294 21.1461C11.9423 21.1375 12.1594 21.0889 12.3716 20.9961L19.3001 17.9582C19.6816 17.7911 20.0061 17.5164 20.2339 17.1678C20.4617 16.8192 20.583 16.4118 20.583 15.9954V5.87395C20.5837 5.48959 20.4601 5.11531 20.2307 4.8069C20.0013 4.49849 19.6784 4.27247 19.3101 4.16252C19.1848 4.03575 19.0371 3.93331 18.8744 3.86038L12.0959 0.965376C11.6199 0.752889 11.1046 0.643066 10.5834 0.643066C10.0622 0.643066 9.54679 0.752889 9.07087 0.965376ZM9.86872 9.79323V19.3618C9.86857 19.421 9.8537 19.4793 9.82544 19.5313C9.79717 19.5834 9.75641 19.6276 9.70682 19.66C9.65723 19.6923 9.60036 19.7119 9.54134 19.7168C9.48232 19.7217 9.423 19.7119 9.36872 19.6882L2.43801 16.6504C2.31098 16.5944 2.20299 16.5027 2.12726 16.3864C2.05153 16.27 2.01133 16.1342 2.01158 15.9954V5.87395C2.01165 5.81428 2.02667 5.75559 2.05526 5.70323C2.08385 5.65086 2.1251 5.60649 2.17525 5.57417C2.2254 5.54185 2.28285 5.52261 2.34235 5.5182C2.40185 5.5138 2.4615 5.52437 2.51587 5.54895L9.02801 8.49038C9.27869 8.60356 9.49137 8.78671 9.64051 9.01782C9.78964 9.24893 9.86888 9.51818 9.86872 9.79323ZM11.2973 19.3618V9.7918C11.2973 9.51687 11.3766 9.24778 11.5257 9.0168C11.6748 8.78583 11.8874 8.60279 12.138 8.48966L18.6501 5.54823C18.7046 5.52363 18.7643 5.51306 18.8238 5.5175C18.8834 5.52194 18.9409 5.54125 18.9911 5.57365C19.0412 5.60605 19.0825 5.65052 19.111 5.70298C19.1396 5.75544 19.1545 5.81422 19.1544 5.87395V15.9954C19.1543 16.134 19.1139 16.2696 19.0381 16.3857C18.9622 16.5017 18.8542 16.5932 18.7273 16.6489L11.7973 19.6875C11.743 19.7114 11.6836 19.7213 11.6245 19.7164C11.5653 19.7116 11.5084 19.6921 11.4587 19.6597C11.409 19.6273 11.3681 19.583 11.3398 19.5309C11.3115 19.4788 11.2967 19.4204 11.2966 19.3611M10.583 4.5718C9.39944 4.5718 8.44015 4.2518 8.44015 3.85752C8.44015 3.46323 9.39944 3.14323 10.583 3.14323C11.7666 3.14323 12.7259 3.46323 12.7259 3.85752C12.7259 4.2518 11.7666 4.5718 10.583 4.5718Z" fill="#384466"/>
</svg>
