<svg width="23" height="21" viewBox="0 0 23 21" fill="none" xmlns="http://www.w3.org/2000/svg">
<path d="M5.46553 8.69152C5.54522 9.45016 5.0954 10.1081 4.46703 10.1536C3.83866 10.1985 3.26393 9.62051 3.185 8.86187C3.10531 8.10254 3.55513 7.44528 4.1835 7.39976C4.81187 7.34941 5.3866 7.92667 5.46553 8.69152ZM9.06562 17.0497C9.69399 17.0048 10.143 16.3476 10.0633 15.5883C9.98442 14.8234 9.40892 14.2461 8.78132 14.2972C8.15295 14.342 7.70313 14.9993 7.78283 15.7586C7.86176 16.5172 8.43802 17.0952 9.06562 17.0497ZM19.0276 7.39976C19.6559 7.44459 20.105 8.10185 20.0253 8.86118C19.9464 9.62603 19.3709 10.2033 18.7425 10.1529C18.1141 10.1074 17.6651 9.45016 17.7448 8.69083C17.8237 7.93219 18.3992 7.35424 19.0276 7.39976ZM17.7264 12.3095C17.8061 11.5509 17.3563 10.893 16.7287 10.8474C16.1003 10.8026 15.5256 11.3806 15.4459 12.1392C15.3662 12.8985 15.816 13.5558 16.4436 13.6013C17.072 13.6517 17.6467 13.0744 17.7264 12.3095ZM14.4297 14.2965C15.0581 14.3413 15.5072 14.9986 15.4275 15.7579C15.3485 16.5228 14.7731 17.1 14.1447 17.049C13.5163 17.0042 13.0673 16.3469 13.147 15.5876C13.2259 14.8289 13.8014 14.251 14.4297 14.2965Z" fill="#EB147C"/>
<path d="M9.98294 0.811204L2.78812 3.60645C2.6203 3.67404 2.46933 3.76508 2.336 3.87542C1.91932 3.96723 1.54898 4.18234 1.2844 4.48625C1.01982 4.79016 0.876328 5.16524 0.876955 5.55133V15.324C0.877008 15.7259 1.00712 16.1191 1.25139 16.4555C1.49566 16.792 1.84352 17.0571 2.25247 17.2185L9.68638 20.1517C9.91398 20.2414 10.1462 20.2883 10.3761 20.2966C11.168 20.5678 12.0431 20.5678 12.8351 20.2966C13.0635 20.2883 13.2964 20.2414 13.524 20.1517L20.9572 17.2185C21.3664 17.0572 21.7145 16.792 21.9589 16.4554C22.2033 16.1188 22.3335 15.7254 22.3335 15.3233V5.55064C22.3342 5.17953 22.2016 4.81815 21.9555 4.52036C21.7094 4.22258 21.363 4.00434 20.9679 3.89818C20.8335 3.77579 20.675 3.67687 20.5005 3.60645L13.2282 0.811204C12.7177 0.606038 12.1648 0.5 11.6056 0.5C11.0464 0.5 10.4935 0.606038 9.98294 0.811204ZM10.8389 9.33488V18.5737C10.8387 18.6309 10.8228 18.6872 10.7925 18.7374C10.7621 18.7877 10.7184 18.8304 10.6652 18.8616C10.612 18.8929 10.551 18.9118 10.4877 18.9165C10.4244 18.9213 10.3607 18.9118 10.3025 18.8889L2.86705 15.9557C2.73076 15.9017 2.61491 15.8132 2.53367 15.7008C2.45242 15.5885 2.40929 15.4573 2.40956 15.3233V5.55064C2.40964 5.49303 2.42575 5.43636 2.45642 5.3858C2.48709 5.33524 2.53135 5.2924 2.58515 5.26119C2.63896 5.22999 2.70059 5.21141 2.76442 5.20715C2.82825 5.2029 2.89225 5.21311 2.95057 5.23684L9.93697 8.07692C10.2059 8.1862 10.4341 8.36303 10.5941 8.58618C10.7541 8.80933 10.8391 9.06931 10.8389 9.33488ZM12.3715 18.5737V9.3335C12.3715 9.06804 12.4566 8.80822 12.6166 8.5852C12.7765 8.36219 13.0046 8.18546 13.2735 8.07623L20.2598 5.23615C20.3182 5.21239 20.3823 5.20219 20.4462 5.20648C20.5101 5.21076 20.5718 5.2294 20.6256 5.26069C20.6794 5.29198 20.7237 5.33491 20.7543 5.38557C20.7849 5.43622 20.8009 5.49298 20.8009 5.55064V15.3233C20.8008 15.4572 20.7574 15.5881 20.676 15.7002C20.5946 15.8122 20.4788 15.9006 20.3426 15.9544L12.9079 18.8882C12.8497 18.9113 12.7859 18.9209 12.7225 18.9162C12.6591 18.9115 12.598 18.8926 12.5447 18.8614C12.4913 18.8301 12.4475 18.7873 12.4172 18.737C12.3868 18.6867 12.3716 18.631 12.3715 18.5737ZM11.6052 4.29337C10.3354 4.29337 9.3063 3.98439 9.3063 3.60369C9.3063 3.22299 10.3354 2.91402 11.6052 2.91402C12.875 2.91402 13.9041 3.22299 13.9041 3.60369C13.9041 3.98439 12.875 4.29337 11.6052 4.29337Z" fill="#EB147C"/>
</svg>
