<svg width="31" height="32" viewBox="0 0 31 32" fill="none" xmlns="http://www.w3.org/2000/svg">
<path d="M6.70723 13.1902C6.81865 14.3688 6.18973 15.391 5.31115 15.4617C4.43258 15.5313 3.62901 14.6335 3.51865 13.4549C3.40723 12.2752 4.03615 11.2542 4.91473 11.1835C5.7933 11.1052 6.59687 12.002 6.70723 13.1902ZM11.7408 26.1749C12.6194 26.1052 13.2472 25.0842 13.1358 23.9045C13.0254 22.7163 12.2208 21.8195 11.3433 21.8988C10.4647 21.9685 9.8358 22.9895 9.94722 24.1692C10.0576 25.3477 10.8633 26.2456 11.7408 26.1749ZM25.6694 11.1835C26.5479 11.2531 27.1758 12.2742 27.0644 13.4538C26.954 14.642 26.1494 15.5388 25.2708 15.4606C24.3922 15.3899 23.7644 14.3688 23.8758 13.1892C23.9861 12.0106 24.7908 11.1127 25.6694 11.1835ZM23.8501 18.811C23.9615 17.6324 23.3326 16.6102 22.4551 16.5395C21.5765 16.4699 20.7729 17.3677 20.6615 18.5463C20.5501 19.726 21.179 20.747 22.0565 20.8177C22.9351 20.896 23.7387 19.9992 23.8501 18.811ZM19.2408 21.8977C20.1194 21.9674 20.7472 22.9885 20.6358 24.1681C20.5254 25.3563 19.7208 26.2531 18.8422 26.1738C17.9636 26.1042 17.3358 25.0831 17.4472 23.9035C17.5576 22.7249 18.3622 21.827 19.2408 21.8977Z" fill="white"/>
<path d="M13.0248 0.948309L2.96511 5.29081C2.73047 5.39581 2.5194 5.53724 2.33297 5.70867C1.75038 5.85129 1.23258 6.18548 0.862648 6.6576C0.492716 7.12973 0.292095 7.71244 0.292972 8.31224V23.4944C0.293046 24.1187 0.474962 24.7296 0.816497 25.2522C1.15803 25.7749 1.6444 26.1868 2.21619 26.4376L12.6101 30.9944C12.9283 31.1337 13.253 31.2065 13.5744 31.2194C14.6817 31.6408 15.9053 31.6408 17.0126 31.2194C17.3319 31.2065 17.6576 31.1337 17.9758 30.9944L28.3687 26.4376C28.9408 26.1869 29.4275 25.7749 29.7693 25.252C30.111 24.7291 30.293 24.118 30.293 23.4933V8.31116C30.294 7.73463 30.1086 7.17321 29.7645 6.7106C29.4205 6.24798 28.9361 5.90894 28.3837 5.74402C28.1957 5.55387 27.9741 5.40021 27.7301 5.29081L17.5623 0.948309C16.8484 0.629577 16.0753 0.464844 15.2935 0.464844C14.5117 0.464844 13.7386 0.629577 13.0248 0.948309ZM14.2215 14.1901V28.5429C14.2213 28.6318 14.199 28.7192 14.1566 28.7972C14.1142 28.8753 14.0531 28.9416 13.9787 28.9902C13.9043 29.0387 13.819 29.0681 13.7305 29.0755C13.6419 29.0829 13.553 29.0681 13.4715 29.0326L3.07547 24.4758C2.88492 24.3919 2.72294 24.2543 2.60935 24.0798C2.49575 23.9053 2.43545 23.7015 2.43583 23.4933V8.31116C2.43593 8.22167 2.45846 8.13363 2.50134 8.05508C2.54423 7.97653 2.60611 7.90998 2.68133 7.8615C2.75656 7.81302 2.84273 7.78416 2.93198 7.77755C3.02123 7.77094 3.11071 7.78679 3.19226 7.82367L12.9605 12.2358C13.3365 12.4056 13.6555 12.6803 13.8792 13.027C14.1029 13.3736 14.2218 13.7775 14.2215 14.1901ZM16.3644 28.5429V14.1879C16.3644 13.7756 16.4833 13.3719 16.707 13.0254C16.9307 12.679 17.2496 12.4044 17.6255 12.2347L27.3937 7.82259C27.4753 7.78568 27.5649 7.76984 27.6542 7.7765C27.7436 7.78316 27.8298 7.81211 27.9051 7.86072C27.9803 7.90932 28.0422 7.97602 28.085 8.05472C28.1278 8.13341 28.1502 8.22158 28.1501 8.31116V23.4933C28.15 23.7013 28.0893 23.9047 27.9756 24.0788C27.8618 24.2529 27.6998 24.3901 27.5094 24.4737L17.1144 29.0315C17.0329 29.0673 16.9438 29.0822 16.8552 29.0749C16.7665 29.0676 16.681 29.0384 16.6065 28.9898C16.5319 28.9412 16.4707 28.8748 16.4282 28.7966C16.3858 28.7184 16.3635 28.6309 16.3633 28.5419M15.293 6.35795C13.5176 6.35795 12.0787 5.87795 12.0787 5.28652C12.0787 4.69509 13.5176 4.21509 15.293 4.21509C17.0683 4.21509 18.5073 4.69509 18.5073 5.28652C18.5073 5.87795 17.0683 6.35795 15.293 6.35795Z" fill="white"/>
</svg>
