<svg width="35" height="35" viewBox="0 0 35 35" fill="none" xmlns="http://www.w3.org/2000/svg">
<path opacity="0.4" d="M17.5 0C19.7981 -3.42448e-08 22.0738 0.452651 24.197 1.33211C26.3202 2.21157 28.2493 3.50061 29.8744 5.12563C31.4994 6.75066 32.7884 8.67984 33.6679 10.803C34.5474 12.9262 35 15.2019 35 17.5C35 19.7981 34.5474 22.0738 33.6679 24.197C32.7884 26.3202 31.4994 28.2493 29.8744 29.8744C28.2493 31.4994 26.3202 32.7884 24.197 33.6679C22.0738 34.5474 19.7981 35 17.5 35C12.8587 35 8.40752 33.1563 5.12563 29.8744C1.84374 26.5925 0 22.1413 0 17.5C0 12.8587 1.84374 8.40752 5.12563 5.12563C8.40752 1.84374 12.8587 6.91606e-08 17.5 0ZM17.5 23.3333C16.9198 23.3333 16.3634 23.5638 15.9532 23.974C15.543 24.3843 15.3125 24.9407 15.3125 25.5208C15.3125 26.101 15.543 26.6574 15.9532 27.0676C16.3634 27.4779 16.9198 27.7083 17.5 27.7083C18.0802 27.7083 18.6366 27.4779 19.0468 27.0676C19.457 26.6574 19.6875 26.101 19.6875 25.5208C19.6875 24.9407 19.457 24.3843 19.0468 23.974C18.6366 23.5638 18.0802 23.3333 17.5 23.3333ZM17.5 7.29167C17.1587 7.29155 16.8281 7.41117 16.5659 7.62968C16.3037 7.84819 16.1264 8.15175 16.065 8.4875L16.0417 8.75V18.9583L16.065 19.2208C16.1259 19.5571 16.3029 19.8613 16.5652 20.0803C16.8274 20.2993 17.1583 20.4193 17.5 20.4193C17.8417 20.4193 18.1726 20.2993 18.4348 20.0803C18.6971 19.8613 18.8741 19.5571 18.935 19.2208L18.9583 18.9583V8.75L18.935 8.4875C18.8736 8.15175 18.6963 7.84819 18.4341 7.62968C18.1719 7.41117 17.8413 7.29155 17.5 7.29167Z" fill="url(#paint0_linear_23580_96492)"/>
<defs>
<linearGradient id="paint0_linear_23580_96492" x1="-2.74349e-08" y1="17.5" x2="35" y2="17.5" gradientUnits="userSpaceOnUse">
<stop stop-color="#F60E44"/>
<stop offset="1" stop-color="#E31C5E"/>
</linearGradient>
</defs>
</svg>
