<svg width="60" height="56" viewBox="0 0 60 56" fill="none" xmlns="http://www.w3.org/2000/svg">
<path d="M7.5 55.3197C5.51088 55.3197 3.60322 54.5295 2.1967 53.123C0.790176 51.7165 0 49.8088 0 47.8197V37.1054C1.2703e-08 36.253 0.338647 35.4354 0.941443 34.8326C1.54424 34.2298 2.3618 33.8911 3.21429 33.8911C4.06677 33.8911 4.88433 34.2298 5.48713 34.8326C6.08992 35.4354 6.42857 36.253 6.42857 37.1054V47.8197C6.42857 48.4111 6.90857 48.8911 7.5 48.8911H52.5C52.7842 48.8911 53.0567 48.7783 53.2576 48.5773C53.4585 48.3764 53.5714 48.1039 53.5714 47.8197V37.1054C53.5714 36.253 53.9101 35.4354 54.5129 34.8326C55.1157 34.2298 55.9332 33.8911 56.7857 33.8911C57.6382 33.8911 58.4558 34.2298 59.0586 34.8326C59.6614 35.4354 60 36.253 60 37.1054V47.8197C60 49.8088 59.2098 51.7165 57.8033 53.123C56.3968 54.5295 54.4891 55.3197 52.5 55.3197H7.5Z" fill="#384466"/>
<path d="M46.2 15.5483C46.4983 15.8466 46.7349 16.2007 46.8963 16.5904C47.0578 16.9802 47.1409 17.3979 47.1409 17.8197C47.1409 18.2416 47.0578 18.6593 46.8963 19.049C46.7349 19.4387 46.4983 19.7929 46.2 20.0911C45.9017 20.3894 45.5476 20.626 45.1579 20.7875C44.7681 20.9489 44.3504 21.032 43.9286 21.032C43.5067 21.032 43.089 20.9489 42.6993 20.7875C42.3096 20.626 41.9554 20.3894 41.6571 20.0911L33.2143 11.6526V36.034C33.2143 36.8865 32.8756 37.7041 32.2728 38.3068C31.67 38.9096 30.8525 39.2483 30 39.2483C29.1475 39.2483 28.33 38.9096 27.7272 38.3068C27.1244 37.7041 26.7857 36.8865 26.7857 36.034V11.6526L18.3429 20.0911C18.0446 20.3894 17.6904 20.626 17.3007 20.7875C16.911 20.9489 16.4933 21.032 16.0714 21.032C15.6496 21.032 15.2319 20.9489 14.8421 20.7875C14.4524 20.626 14.0983 20.3894 13.8 20.0911C13.5017 19.7929 13.2651 19.4387 13.1037 19.049C12.9422 18.6593 12.8591 18.2416 12.8591 17.8197C12.8591 17.3979 12.9422 16.9802 13.1037 16.5904C13.2651 16.2007 13.5017 15.8466 13.8 15.5483L27.7286 1.61972C28.3312 1.01779 29.1482 0.679688 30 0.679688C30.8518 0.679688 31.6687 1.01779 32.2714 1.61972L46.2 15.5483Z" fill="#384466"/>
</svg>
