<svg width="172" height="67" viewBox="0 0 172 67" fill="none" xmlns="http://www.w3.org/2000/svg">
<g filter="url(#filter0_d_21869_96882)">
<rect x="22" y="17" width="128" height="38" rx="19" fill="url(#paint0_linear_21869_96882)"/>
<path d="M41.2594 29.9613C39.1681 32.3088 37.7329 35.6815 37.5996 35.9993L33.8887 34.4103L38.0404 30.2585C38.5223 29.7767 39.2193 29.5615 39.8959 29.6947L41.2594 29.9613ZM43.2891 40.8789C43.2891 40.8789 47.1231 39.2899 49.3271 37.0859C54.8628 31.5502 53.9402 27.2242 53.6429 26.2503C52.6691 25.9427 48.343 25.0304 42.8073 30.5661C40.6033 32.7701 39.0143 36.6041 39.0143 36.6041L43.2891 40.8789ZM49.932 38.6339C47.5844 40.7251 44.2117 42.1603 43.8939 42.2936L45.4829 46.0045L49.6347 41.8528C50.1165 41.371 50.3318 40.6739 50.1985 39.9973L49.932 38.6339ZM41.0646 41.904C41.0646 42.7549 40.716 43.5237 40.1625 44.0773C38.9528 45.2869 33.8887 46.0045 33.8887 46.0045C33.8887 46.0045 34.6063 40.9404 35.8159 39.7307C36.2452 39.2992 36.7931 39.0049 37.39 38.8853C37.9869 38.7658 38.6058 38.8263 39.1683 39.0591C39.7307 39.292 40.2112 39.6868 40.5489 40.1933C40.8865 40.6998 41.066 41.2953 41.0646 41.904ZM45.1651 32.6778C45.1651 31.5502 46.0877 30.6276 47.2154 30.6276C48.343 30.6276 49.2656 31.5502 49.2656 32.6778C49.2656 33.8055 48.343 34.7281 47.2154 34.7281C46.0877 34.7281 45.1651 33.8055 45.1651 32.6778Z" fill="white"/>
<path d="M66.8377 40.36H71.3177V43H63.4177V28.96H66.8377V40.36ZM72.269 37.4C72.269 36.2533 72.4823 35.2467 72.909 34.38C73.349 33.5133 73.9423 32.8467 74.689 32.38C75.4357 31.9133 76.269 31.68 77.189 31.68C77.9757 31.68 78.6623 31.84 79.249 32.16C79.849 32.48 80.309 32.9 80.629 33.42V31.84H84.049V43H80.629V41.42C80.2957 41.94 79.829 42.36 79.229 42.68C78.6423 43 77.9557 43.16 77.169 43.16C76.2623 43.16 75.4357 42.9267 74.689 42.46C73.9423 41.98 73.349 41.3067 72.909 40.44C72.4823 39.56 72.269 38.5467 72.269 37.4ZM80.629 37.42C80.629 36.5667 80.389 35.8933 79.909 35.4C79.4423 34.9067 78.869 34.66 78.189 34.66C77.509 34.66 76.929 34.9067 76.449 35.4C75.9823 35.88 75.749 36.5467 75.749 37.4C75.749 38.2533 75.9823 38.9333 76.449 39.44C76.929 39.9333 77.509 40.18 78.189 40.18C78.869 40.18 79.4423 39.9333 79.909 39.44C80.389 38.9467 80.629 38.2733 80.629 37.42ZM97.5432 31.84V43H94.1232V41.48C93.7765 41.9733 93.3032 42.3733 92.7032 42.68C92.1165 42.9733 91.4632 43.12 90.7432 43.12C89.8899 43.12 89.1365 42.9333 88.4832 42.56C87.8299 42.1733 87.3232 41.62 86.9632 40.9C86.6032 40.18 86.4232 39.3333 86.4232 38.36V31.84H89.8232V37.9C89.8232 38.6467 90.0165 39.2267 90.4032 39.64C90.7899 40.0533 91.3099 40.26 91.9632 40.26C92.6299 40.26 93.1565 40.0533 93.5432 39.64C93.9299 39.2267 94.1232 38.6467 94.1232 37.9V31.84H97.5432ZM106.8 31.72C108.106 31.72 109.146 32.1467 109.92 33C110.706 33.84 111.1 35 111.1 36.48V43H107.7V36.94C107.7 36.1933 107.506 35.6133 107.12 35.2C106.733 34.7867 106.213 34.58 105.56 34.58C104.906 34.58 104.386 34.7867 104 35.2C103.613 35.6133 103.42 36.1933 103.42 36.94V43H99.9998V31.84H103.42V33.32C103.766 32.8267 104.233 32.44 104.82 32.16C105.406 31.8667 106.066 31.72 106.8 31.72ZM112.796 37.42C112.796 36.26 113.03 35.2467 113.496 34.38C113.976 33.5133 114.636 32.8467 115.476 32.38C116.33 31.9133 117.303 31.68 118.396 31.68C119.796 31.68 120.963 32.0467 121.896 32.78C122.843 33.5133 123.463 34.5467 123.756 35.88H120.116C119.81 35.0267 119.216 34.6 118.336 34.6C117.71 34.6 117.21 34.8467 116.836 35.34C116.463 35.82 116.276 36.5133 116.276 37.42C116.276 38.3267 116.463 39.0267 116.836 39.52C117.21 40 117.71 40.24 118.336 40.24C119.216 40.24 119.81 39.8133 120.116 38.96H123.756C123.463 40.2667 122.843 41.2933 121.896 42.04C120.95 42.7867 119.783 43.16 118.396 43.16C117.303 43.16 116.33 42.9267 115.476 42.46C114.636 41.9933 113.976 41.3267 113.496 40.46C113.03 39.5933 112.796 38.58 112.796 37.42ZM132.446 31.72C133.726 31.72 134.752 32.1467 135.526 33C136.299 33.84 136.686 35 136.686 36.48V43H133.286V36.94C133.286 36.1933 133.092 35.6133 132.706 35.2C132.319 34.7867 131.799 34.58 131.146 34.58C130.492 34.58 129.972 34.7867 129.586 35.2C129.199 35.6133 129.006 36.1933 129.006 36.94V43H125.586V28.2H129.006V33.34C129.352 32.8467 129.826 32.4533 130.426 32.16C131.026 31.8667 131.699 31.72 132.446 31.72Z" fill="white"/>
</g>
<defs>
<filter id="filter0_d_21869_96882" x="0" y="0" width="172" height="82" filterUnits="userSpaceOnUse" color-interpolation-filters="sRGB">
<feFlood flood-opacity="0" result="BackgroundImageFix"/>
<feColorMatrix in="SourceAlpha" type="matrix" values="0 0 0 0 0 0 0 0 0 0 0 0 0 0 0 0 0 0 127 0" result="hardAlpha"/>
<feOffset dy="5"/>
<feGaussianBlur stdDeviation="11"/>
<feColorMatrix type="matrix" values="0 0 0 0 0.278431 0 0 0 0 0.85098 0 0 0 0 1 0 0 0 0.3 0"/>
<feBlend mode="normal" in2="BackgroundImageFix" result="effect1_dropShadow_21869_96882"/>
<feBlend mode="normal" in="SourceGraphic" in2="effect1_dropShadow_21869_96882" result="shape"/>
</filter>
<linearGradient id="paint0_linear_21869_96882" x1="150" y1="36.3333" x2="22.0046" y2="35.5671" gradientUnits="userSpaceOnUse">
<stop stop-color="#1C94C3"/>
<stop offset="1" stop-color="#3153C7"/>
</linearGradient>
</defs>
</svg>
