<svg width="30" height="30" viewBox="0 0 30 30" fill="none" xmlns="http://www.w3.org/2000/svg">
<path d="M0.660342 13.3027C1.08329 12.8776 1.65684 12.6388 2.25489 12.6388C2.85293 12.6388 3.42649 12.8776 3.84944 13.3027L15.0135 24.5268L26.1776 13.3027C26.603 12.8897 27.1727 12.6611 27.764 12.6663C28.3554 12.6714 28.9211 12.9099 29.3392 13.3303C29.7574 13.7507 29.9946 14.3194 29.9997 14.914C30.0049 15.5085 29.7775 16.0813 29.3667 16.5089L16.6081 29.3361C16.1851 29.7612 15.6116 30 15.0135 30C14.4155 30 13.8419 29.7612 13.419 29.3361L0.660342 16.5089C0.237525 16.0837 0 15.5071 0 14.9058C0 14.3046 0.237525 13.7279 0.660342 13.3027Z" fill="white"/>
<path d="M0.660342 0.663891C1.08329 0.238802 1.65684 0 2.25489 0C2.85293 0 3.42649 0.238802 3.84944 0.663891L15.0135 11.888L26.1776 0.663891C26.603 0.250849 27.1727 0.0222988 27.764 0.0274658C28.3554 0.0326328 28.9211 0.271101 29.3392 0.691511C29.7574 1.11192 29.9946 1.68064 29.9997 2.27517C30.0049 2.86969 29.7775 3.44247 29.3667 3.87012L16.6081 16.6973C16.1851 17.1224 15.6116 17.3612 15.0135 17.3612C14.4155 17.3612 13.8419 17.1224 13.419 16.6973L0.660342 3.87012C0.237525 3.4449 0 2.86826 0 2.267C0 1.66575 0.237525 1.08911 0.660342 0.663891Z" fill="white"/>
</svg>
