<svg width="43" height="24" viewBox="0 0 43 24" fill="none" xmlns="http://www.w3.org/2000/svg">
<rect x="0.5" width="42" height="24" rx="12" fill="url(#paint0_linear_21869_96870)"/>
<path d="M10.6395 16.64C10.0982 16.64 9.59883 16.5747 9.1415 16.444C8.6935 16.304 8.30617 16.108 7.9795 15.856C7.66217 15.5947 7.41483 15.282 7.2375 14.918C7.06017 14.554 6.9715 14.1433 6.9715 13.686C6.9715 13.1167 7.10683 12.6267 7.3775 12.216C7.6575 11.8053 8.02617 11.4927 8.4835 11.278C8.1195 11.0633 7.83483 10.7833 7.6295 10.438C7.42417 10.0927 7.3215 9.682 7.3215 9.206C7.3215 8.646 7.45683 8.17467 7.7275 7.792C8.0075 7.4 8.39483 7.09667 8.8895 6.882C9.3935 6.66733 9.97683 6.56 10.6395 6.56C11.2928 6.56 11.8668 6.66733 12.3615 6.882C12.8655 7.08733 13.2528 7.386 13.5235 7.778C13.8035 8.17 13.9435 8.64133 13.9435 9.192C13.9435 9.668 13.8408 10.0833 13.6355 10.438C13.4302 10.7833 13.1502 11.0633 12.7955 11.278C13.2528 11.4927 13.6168 11.8053 13.8875 12.216C14.1675 12.6267 14.3075 13.1167 14.3075 13.686C14.3075 14.2927 14.1535 14.82 13.8455 15.268C13.5375 15.7067 13.1082 16.0473 12.5575 16.29C12.0068 16.5233 11.3675 16.64 10.6395 16.64ZM10.6395 15.52C11.0688 15.52 11.4562 15.4453 11.8015 15.296C12.1468 15.1467 12.4222 14.9367 12.6275 14.666C12.8328 14.386 12.9355 14.0593 12.9355 13.686C12.9355 13.3033 12.8328 12.9813 12.6275 12.72C12.4222 12.4493 12.1468 12.244 11.8015 12.104C11.4562 11.9547 11.0688 11.88 10.6395 11.88C10.2102 11.88 9.81817 11.9547 9.4635 12.104C9.11817 12.244 8.84283 12.4493 8.6375 12.72C8.43217 12.9813 8.3295 13.3033 8.3295 13.686C8.3295 14.0593 8.43217 14.386 8.6375 14.666C8.84283 14.9367 9.11817 15.1467 9.4635 15.296C9.81817 15.4453 10.2102 15.52 10.6395 15.52ZM10.6395 10.774C10.9942 10.774 11.3208 10.7087 11.6195 10.578C11.9275 10.4473 12.1702 10.27 12.3475 10.046C12.5342 9.822 12.6275 9.55133 12.6275 9.234C12.6275 8.91667 12.5388 8.64133 12.3615 8.408C12.1935 8.17467 11.9555 7.99733 11.6475 7.876C11.3488 7.74533 11.0128 7.68 10.6395 7.68C10.2662 7.68 9.9255 7.74533 9.6175 7.876C9.31883 7.99733 9.08083 8.17467 8.9035 8.408C8.72617 8.64133 8.6375 8.91667 8.6375 9.234C8.6375 9.56067 8.72617 9.84067 8.9035 10.074C9.08083 10.298 9.31883 10.4707 9.6175 10.592C9.9255 10.7133 10.2662 10.774 10.6395 10.774ZM16.2112 16.5C16.1178 16.5 16.0385 16.472 15.9732 16.416C15.9172 16.3507 15.8892 16.2713 15.8892 16.178V15.17C15.8892 15.0767 15.9172 15.002 15.9732 14.946C16.0385 14.8807 16.1178 14.848 16.2112 14.848H17.2192C17.3125 14.848 17.3872 14.8807 17.4432 14.946C17.5085 15.002 17.5412 15.0767 17.5412 15.17V16.178C17.5412 16.2713 17.5085 16.3507 17.4432 16.416C17.3872 16.472 17.3125 16.5 17.2192 16.5H16.2112ZM19.9228 16.5C19.8201 16.5 19.7408 16.472 19.6848 16.416C19.6288 16.3507 19.6008 16.2713 19.6008 16.178V7.036C19.6008 6.93333 19.6288 6.854 19.6848 6.798C19.7408 6.73267 19.8201 6.7 19.9228 6.7H20.5668C20.6788 6.7 20.7628 6.728 20.8188 6.784C20.8748 6.83067 20.9075 6.868 20.9168 6.896L25.5648 14.036V7.036C25.5648 6.93333 25.5928 6.854 25.6488 6.798C25.7048 6.73267 25.7841 6.7 25.8868 6.7H26.5588C26.6615 6.7 26.7408 6.73267 26.7968 6.798C26.8621 6.854 26.8948 6.93333 26.8948 7.036V16.164C26.8948 16.2573 26.8621 16.3367 26.7968 16.402C26.7408 16.4673 26.6661 16.5 26.5728 16.5H25.9008C25.7981 16.5 25.7188 16.472 25.6628 16.416C25.6161 16.36 25.5835 16.3227 25.5648 16.304L20.9308 9.234V16.178C20.9308 16.2713 20.8981 16.3507 20.8328 16.416C20.7768 16.472 20.6975 16.5 20.5948 16.5H19.9228ZM32.4715 16.64C31.6595 16.64 30.9782 16.5187 30.4275 16.276C29.8768 16.024 29.4522 15.702 29.1535 15.31C28.8642 14.9087 28.7102 14.484 28.6915 14.036C28.6915 13.9613 28.7195 13.896 28.7755 13.84C28.8408 13.7747 28.9155 13.742 28.9995 13.742H29.7135C29.8255 13.742 29.9095 13.77 29.9655 13.826C30.0215 13.882 30.0588 13.9473 30.0775 14.022C30.1242 14.246 30.2362 14.47 30.4135 14.694C30.6002 14.9087 30.8568 15.0907 31.1835 15.24C31.5195 15.38 31.9488 15.45 32.4715 15.45C33.2742 15.45 33.8622 15.31 34.2355 15.03C34.6182 14.7407 34.8095 14.358 34.8095 13.882C34.8095 13.5553 34.7068 13.294 34.5015 13.098C34.3055 12.8927 34.0022 12.7107 33.5915 12.552C33.1808 12.3933 32.6488 12.2207 31.9955 12.034C31.3142 11.838 30.7495 11.6233 30.3015 11.39C29.8535 11.1567 29.5175 10.8673 29.2935 10.522C29.0788 10.1767 28.9715 9.738 28.9715 9.206C28.9715 8.702 29.1068 8.254 29.3775 7.862C29.6482 7.46067 30.0355 7.14333 30.5395 6.91C31.0528 6.67667 31.6735 6.56 32.4015 6.56C32.9802 6.56 33.4842 6.63933 33.9135 6.798C34.3522 6.94733 34.7162 7.15267 35.0055 7.414C35.2948 7.666 35.5142 7.94133 35.6635 8.24C35.8128 8.52933 35.8922 8.814 35.9015 9.094C35.9015 9.15933 35.8782 9.22467 35.8315 9.29C35.7848 9.346 35.7102 9.374 35.6075 9.374H34.8655C34.8002 9.374 34.7302 9.35533 34.6555 9.318C34.5902 9.28067 34.5388 9.21067 34.5015 9.108C34.4455 8.72533 34.2308 8.40333 33.8575 8.142C33.4842 7.88067 32.9988 7.75 32.4015 7.75C31.7948 7.75 31.3002 7.86667 30.9175 8.1C30.5442 8.33333 30.3575 8.69733 30.3575 9.192C30.3575 9.50933 30.4462 9.77533 30.6235 9.99C30.8008 10.1953 31.0808 10.3773 31.4635 10.536C31.8462 10.6947 32.3455 10.8627 32.9615 11.04C33.7082 11.2453 34.3195 11.4647 34.7955 11.698C35.2715 11.922 35.6215 12.2067 35.8455 12.552C36.0788 12.888 36.1955 13.322 36.1955 13.854C36.1955 14.442 36.0415 14.946 35.7335 15.366C35.4255 15.7767 34.9915 16.094 34.4315 16.318C33.8808 16.5327 33.2275 16.64 32.4715 16.64Z" fill="white"/>
<defs>
<linearGradient id="paint0_linear_21869_96870" x1="0.5" y1="12" x2="42.5" y2="12" gradientUnits="userSpaceOnUse">
<stop stop-color="#E81144"/>
<stop offset="1" stop-color="#E31C5E"/>
</linearGradient>
</defs>
</svg>
