<svg width="41" height="43" viewBox="0 0 41 43" fill="none" xmlns="http://www.w3.org/2000/svg">
<path d="M23.4375 20.3125V23.4375H21.4844C20.7495 23.4498 20.0493 23.7526 19.5369 24.2796C19.0246 24.8066 18.7416 25.515 18.75 26.25V39.375C18.75 40.9281 19.975 42.1875 21.4844 42.1875H37.8906C38.6255 42.1752 39.3257 41.8724 39.8381 41.3454C40.3504 40.8184 40.6334 40.11 40.625 39.375V26.25C40.625 24.6969 39.4 23.4375 37.8906 23.4375H35.9375V20.3125C35.9375 18.6549 35.279 17.0652 34.1069 15.8931C32.9348 14.721 31.3451 14.0625 29.6875 14.0625C28.0299 14.0625 26.4402 14.721 25.2681 15.8931C24.096 17.0652 23.4375 18.6549 23.4375 20.3125ZM29.6875 17.1875C30.5163 17.1875 31.3112 17.5167 31.8972 18.1028C32.4833 18.6888 32.8125 19.4837 32.8125 20.3125V23.4375H26.5625V20.3125C26.5625 19.4837 26.8917 18.6888 27.4778 18.1028C28.0638 17.5167 28.8587 17.1875 29.6875 17.1875ZM29.6875 35.1562C29.0659 35.1562 28.4698 34.9093 28.0302 34.4698C27.5907 34.0302 27.3438 33.4341 27.3438 32.8125C27.3438 32.1909 27.5907 31.5948 28.0302 31.1552C28.4698 30.7157 29.0659 30.4688 29.6875 30.4688C30.3091 30.4688 30.9052 30.7157 31.3448 31.1552C31.7843 31.5948 32.0313 32.1909 32.0313 32.8125C32.0313 33.4341 31.7843 34.0302 31.3448 34.4698C30.9052 34.9093 30.3091 35.1562 29.6875 35.1562ZM15.625 39.0625V26.25C15.625 23.4437 17.5875 20.9844 20.3125 20.4312V20.3125H4.6875C3.4443 20.3125 2.25201 20.8064 1.37294 21.6854C0.49386 22.5645 0 23.7568 0 25V26.5625C0 32.7219 5.8125 39.0625 15.625 39.0625ZM24.2188 8.59375C24.2188 6.31455 23.3133 4.12869 21.7017 2.51705C20.0901 0.905411 17.9042 0 15.625 0C13.3458 0 11.1599 0.905411 9.5483 2.51705C7.93666 4.12869 7.03125 6.31455 7.03125 8.59375C7.03125 10.873 7.93666 13.0588 9.5483 14.6704C11.1599 16.2821 13.3458 17.1875 15.625 17.1875C17.9042 17.1875 20.0901 16.2821 21.7017 14.6704C23.3133 13.0588 24.2188 10.873 24.2188 8.59375Z" fill="#02215F"/>
</svg>
