<svg width="50" height="50" viewBox="0 0 50 50" fill="none" xmlns="http://www.w3.org/2000/svg">
<path d="M23.4375 28.125C25.0951 28.125 26.6848 28.7835 27.8569 29.9556C29.029 31.1277 29.6875 32.7174 29.6875 34.375C29.6875 37.3906 27.8375 39.7812 25.2781 41.3438C22.7188 42.9 19.2969 43.75 15.625 43.75C11.9531 43.75 8.53125 42.9 5.97188 41.3438C3.40938 39.7812 1.5625 37.3906 1.5625 34.375C1.5625 32.7174 2.22098 31.1277 3.39308 29.9556C4.56519 28.7835 6.1549 28.125 7.8125 28.125H23.4375ZM44.2281 28.15C45.3824 28.2684 46.4518 28.8106 47.2293 29.6719C48.0069 30.5331 48.4374 31.6522 48.4375 32.8125C48.4375 35.2219 46.9688 37.2156 44.9937 38.5312C43.0094 39.8563 40.3531 40.625 37.5 40.625C35.3125 40.625 33.25 40.1688 31.5094 39.3656C32.3156 37.9188 32.8094 36.2531 32.8094 34.375C32.8094 32.0031 31.9219 29.8438 30.4688 28.1906C30.7229 28.149 30.9833 28.1271 31.25 28.125H43.75L44.2281 28.15ZM15.625 7.8125C17.9042 7.8125 20.0901 8.71791 21.7017 10.3296C23.3133 11.9412 24.2188 14.127 24.2188 16.4062C24.2188 18.6855 23.3133 20.8713 21.7017 22.4829C20.0901 24.0946 17.9042 25 15.625 25C13.3458 25 11.1599 24.0946 9.5483 22.4829C7.93666 20.8713 7.03125 18.6855 7.03125 16.4062C7.03125 14.127 7.93666 11.9412 9.5483 10.3296C11.1599 8.71791 13.3458 7.8125 15.625 7.8125ZM37.5062 10.9281C38.4427 10.9084 39.3737 11.0758 40.2446 11.4205C41.1155 11.7652 41.9088 12.2803 42.5781 12.9356C43.2474 13.5909 43.7791 14.3733 44.1421 15.2367C44.5051 16.1002 44.692 17.0274 44.692 17.9641C44.692 18.9007 44.5051 19.828 44.1421 20.6914C43.7791 21.5549 43.2474 22.3372 42.5781 22.9925C41.9088 23.6478 41.1155 24.1629 40.2446 24.5076C39.3737 24.8523 38.4427 25.0197 37.5062 25C35.6659 24.9612 33.914 24.2029 32.6261 22.8876C31.3383 21.5723 30.617 19.8048 30.617 17.9641C30.617 16.1233 31.3383 14.3558 32.6261 13.0405C33.914 11.7252 35.6659 10.9669 37.5062 10.9281Z" fill="#02215F"/>
</svg>

