<svg width="31" height="26" viewBox="0 0 31 26" fill="none" xmlns="http://www.w3.org/2000/svg">
<path d="M11.8691 6.38165C11.8691 4.6613 13.2678 3.2626 14.9881 3.2626H16.5476C18.268 3.2626 19.6667 4.6613 19.6667 6.38165V6.5571C19.6667 7.61953 19.1257 8.60885 18.2339 9.17906L16.1772 10.4998C15.5734 10.888 15.0767 11.4217 14.7327 12.0518C14.3887 12.6819 14.2084 13.3883 14.2083 14.1062V14.1744C14.2083 15.037 14.9053 15.7339 15.7679 15.7339C16.6305 15.7339 17.3274 15.037 17.3274 14.1744V14.1062C17.3274 13.7066 17.5321 13.3362 17.8635 13.1217L19.9201 11.801C21.7038 10.6509 22.7857 8.67708 22.7857 6.55223V6.37678C22.7857 2.9312 19.9932 0.138672 16.5476 0.138672H14.9881C11.5425 0.143545 8.75 2.93607 8.75 6.38165C8.75 7.24427 9.44691 7.94118 10.3095 7.94118C11.1721 7.94118 11.8691 7.24427 11.8691 6.38165ZM15.7679 21.9769C16.2849 21.9769 16.7807 21.7715 17.1463 21.406C17.5119 21.0404 17.7173 20.5445 17.7173 20.0275C17.7173 19.5105 17.5119 19.0147 17.1463 18.6491C16.7807 18.2835 16.2849 18.0781 15.7679 18.0781C15.2509 18.0781 14.755 18.2835 14.3894 18.6491C14.0238 19.0147 13.8185 19.5105 13.8185 20.0275C13.8185 20.5445 14.0238 21.0404 14.3894 21.406C14.755 21.7715 15.2509 21.9769 15.7679 21.9769Z" fill="white"/>
<path d="M22.9557 14.1374C23.4104 13.1623 24.5729 12.7392 25.548 13.1939L26.432 13.606C27.4071 14.0607 27.8302 15.2232 27.3755 16.1983L27.3291 16.2978C27.0483 16.9 26.4802 17.3177 25.824 17.4052L24.3092 17.6102C23.8643 17.6707 23.4417 17.8419 23.0802 18.1081C22.7187 18.3743 22.4298 18.7271 22.24 19.134L22.222 19.1726C21.994 19.6616 22.2048 20.2408 22.6937 20.4688C23.1827 20.6968 23.7619 20.486 23.9899 19.997L24.0079 19.9584C24.1135 19.7319 24.3275 19.576 24.572 19.5421L26.0868 19.337C27.4018 19.1566 28.5367 18.3238 29.0983 17.1194L29.1447 17.02C30.0554 15.067 29.2106 12.7461 27.2576 11.8354L26.3737 11.4232C24.4194 10.5153 22.0985 11.36 21.1878 13.313C20.9598 13.8019 21.1707 14.3811 21.6596 14.6091C22.1485 14.8371 22.7277 14.6263 22.9557 14.1374ZM21.0437 24.0074C21.3367 24.144 21.6721 24.1587 21.9759 24.0481C22.2797 23.9375 22.5272 23.7107 22.6639 23.4177C22.8005 23.1246 22.8151 22.7893 22.7046 22.4854C22.594 22.1816 22.3672 21.9341 22.0742 21.7975C21.7811 21.6608 21.4458 21.6462 21.1419 21.7568C20.8381 21.8674 20.5906 22.0941 20.454 22.3872C20.3173 22.6802 20.3027 23.0156 20.4133 23.3194C20.5239 23.6232 20.7506 23.8707 21.0437 24.0074Z" fill="white"/>
<path d="M4.21093 16.1937C3.75623 15.2186 4.17934 14.0561 5.15445 13.6014L6.0384 13.1892C7.01351 12.7345 8.17599 13.1576 8.63069 14.1327L8.67706 14.2322C8.95787 14.8343 8.91273 15.5381 8.55793 16.097L7.74129 17.3892C7.50164 17.7688 7.36115 18.2026 7.3327 18.6507C7.30426 19.0987 7.38878 19.5468 7.5785 19.9537L7.59654 19.9924C7.82453 20.4813 8.40374 20.6921 8.89268 20.4641C9.38162 20.2361 9.59243 19.6569 9.36444 19.168L9.34641 19.1293C9.24078 18.9028 9.2589 18.6388 9.39007 18.4296L10.2067 17.1375C10.9137 16.0141 11.0053 14.6094 10.4437 13.405L10.3973 13.3056C9.48661 11.3526 7.1657 10.5078 5.21272 11.4185L4.32877 11.8307C2.37708 12.7442 1.53234 15.0651 2.44303 17.0181C2.67102 17.507 3.25024 17.7178 3.73917 17.4898C4.22811 17.2618 4.43893 16.6826 4.21093 16.1937ZM10.5427 24.0027C10.8358 23.8661 11.0626 23.6186 11.1731 23.3147C11.2837 23.0109 11.2691 22.6756 11.1324 22.3825C10.9958 22.0895 10.7483 21.8627 10.4445 21.7521C10.1406 21.6415 9.80531 21.6562 9.51226 21.7928C9.21921 21.9295 8.99245 22.1769 8.88186 22.4808C8.77127 22.7846 8.78591 23.12 8.92256 23.413C9.05921 23.7061 9.30668 23.9328 9.61052 24.0434C9.91436 24.154 10.2497 24.1394 10.5427 24.0027Z" fill="white"/>
</svg>
