<svg width="2798" height="1473" viewBox="0 0 2798 1473" fill="none" xmlns="http://www.w3.org/2000/svg">
<path d="M185.639 970.236L234.596 1210.76C237.866 1226.79 235.02 1241.56 226.075 1255.07C217.129 1268.58 204.794 1276.93 189.069 1280.13C173.024 1283.39 158.243 1280.55 144.724 1271.61C131.206 1262.67 122.82 1250.18 119.558 1234.15L2.13738 657.374C-0.868489 640.949 2.00148 626.337 10.7633 613.538C19.7729 600.348 32.236 591.808 48.1527 587.901L408.689 514.601C486.162 501.187 548.654 520.88 596.164 573.672C620.786 601.059 636.759 632.712 644.066 668.631C646.808 682.101 648.303 695.994 648.543 710.302C649.686 765.179 633.458 811.061 599.865 847.946C573.5 876.012 538.717 895.609 495.531 906.73L662.045 1094.3C668.752 1102.62 673.117 1111.75 675.14 1121.69C676.123 1126.5 676.651 1131.58 676.731 1136.9C675.7 1153.14 668.904 1166.54 656.345 1177.11C648.471 1184.39 639.717 1189.01 630.092 1190.97C624.96 1192.01 619.499 1192.28 613.719 1191.79C597.531 1191.07 584.18 1184.6 573.676 1172.38L362.778 934.221L185.639 970.236ZM162.136 854.785L465.393 793.125C503.837 784.976 525.502 763.374 530.395 728.31C531.834 717.332 531.482 706.555 529.323 695.97C526.781 683.459 521.633 671.315 513.886 659.531C498.393 635.963 478.16 625.218 453.185 627.287L432.192 630.051L128.935 691.711L162.136 854.785ZM561.213 579.273C523.064 539.607 473.659 525.937 413.006 538.273C405.627 539.775 398.152 541.628 390.582 543.833C385.002 545.966 382.5 548.483 383.091 551.367C383.875 555.218 387.312 556.52 393.412 555.281C442.257 547.356 496.051 558.789 554.793 589.595C558.455 591.193 561.253 591.792 563.179 591.4C563.819 591.272 564.522 590.625 565.29 589.467C565.802 588.692 565.929 587.669 565.666 586.383C565.274 584.458 563.787 582.093 561.213 579.273Z" fill="white"/>
<path d="M852.958 885.659C856.156 901.373 853.286 915.985 844.34 929.487C835.459 943.316 822.995 951.864 806.951 955.124C791.226 958.32 776.572 955.292 762.99 946.032C749.472 937.085 741.109 924.757 737.912 909.043L659.471 523.728C656.274 508.014 659.152 493.402 668.097 479.892C676.979 466.063 689.282 457.555 705.007 454.359C721.052 451.091 735.865 454.095 749.448 463.355C762.966 472.294 771.32 484.622 774.518 500.336L852.958 885.659ZM752.134 488.856C744.131 479.133 733.939 473.357 721.531 471.535C715.688 470.721 710.195 470.832 705.063 471.879C700.57 472.79 696.557 474.444 693.04 476.824C690.09 478.766 688.715 480.212 688.907 481.17C687.388 486.827 686.852 490.773 687.308 493.018C687.571 494.304 688.347 494.816 689.626 494.552C695.398 491.708 700.69 489.799 705.503 488.824C720.908 485.692 733.867 491.069 744.379 504.962C745.922 505.984 747.017 506.432 747.657 506.296C751.422 498.523 753.437 494.44 753.693 494.057C753.948 493.665 754.004 493.154 753.876 492.515C753.685 491.548 753.101 490.334 752.134 488.856Z" fill="white"/>
<path d="M985.69 859.169C977.776 854.767 969.726 849.726 961.555 844.038C905.939 805.586 871.307 752.85 857.661 685.822L856.974 682.45C843.583 613.376 855.83 550.43 893.731 493.636C922.039 450.479 960.404 418.962 1008.83 399.101C1024.93 392.821 1041.16 388.02 1057.53 384.688C1089.94 378.097 1122.98 377.898 1156.66 384.073C1206.46 393.988 1249.79 417.236 1286.65 453.826C1322.87 490.552 1346.19 533.733 1356.64 583.377C1366.56 632.119 1362.16 680.269 1343.44 727.828C1324.71 775.388 1295.2 813.448 1254.89 842.017C1225.61 862.325 1193.22 876.426 1157.73 884.311C1123.15 896.686 1099.69 909.469 1087.34 922.667C1067.56 942.048 1054.99 965.648 1049.62 993.458C1046.59 1011.43 1046.85 1029.09 1050.37 1046.4C1052.2 1055.38 1054.83 1064.2 1058.26 1072.85C1070.63 1102.4 1091.54 1124.7 1121 1139.75C1149.89 1155.25 1180.38 1159.74 1212.47 1153.22C1228.2 1150.02 1242.82 1152.89 1256.34 1161.83C1270.24 1171.02 1278.79 1183.48 1281.99 1199.19C1285.19 1214.91 1282.18 1229.71 1272.98 1243.61C1264.04 1257.11 1251.7 1265.47 1235.98 1268.67C1185.85 1278.53 1136.77 1273.8 1088.73 1254.52C1039.92 1234.72 1001.57 1203.94 973.683 1162.19C954.584 1134.02 941.761 1103.88 935.238 1071.82C931.777 1054.82 930.082 1037.46 930.154 1019.75C929.914 967.693 943.856 920.446 971.972 877.992C976.321 871.433 980.894 865.161 985.69 859.169ZM1134.23 768.86C1171.01 760.712 1199.75 741.01 1220.45 709.749C1241.73 678.04 1248.62 643.743 1241.11 606.857C1234.71 575.436 1218.86 549.264 1193.55 528.364C1167.92 507.521 1139.05 497.031 1106.93 496.879C1096.92 496.911 1087.25 497.87 1077.94 499.763C1052.59 504.916 1029.9 517.379 1009.87 537.152C982.66 564.395 969.022 596.719 968.95 634.14C968.982 644.151 969.917 653.65 971.74 662.629C977.944 693.092 994.02 718.713 1019.97 739.484C1053.59 766.719 1091.67 776.506 1134.23 768.86ZM1226.12 444.591C1206.21 423.931 1179.54 411.148 1146.13 406.251C1125.06 402.856 1105.05 403.079 1086.12 406.93C1077.45 408.696 1068.95 411.252 1060.61 414.624C1055.03 416.757 1052.5 419.105 1053.03 421.67L1053.12 422.157C1053.84 425.68 1057.15 427.182 1063.06 426.647C1119.68 420.815 1171.87 430.074 1219.6 454.433C1223.34 456.351 1226.16 457.11 1228.09 456.718C1228.73 456.582 1229.47 456.103 1230.3 455.264C1230.75 454.17 1230.84 452.987 1230.58 451.701C1230.19 449.776 1228.7 447.411 1226.12 444.591ZM1258.73 1185.89C1250.73 1176.16 1240.53 1170.38 1228.13 1168.56C1222.28 1167.75 1216.79 1167.87 1211.66 1168.91C1207.17 1169.83 1203.16 1171.47 1199.63 1173.86C1196.68 1175.79 1193.93 1179.52 1191.38 1185.05C1190.17 1187.31 1189.7 1189.07 1189.96 1190.36C1190.28 1191.96 1192.06 1192.43 1195.26 1191.78L1196.22 1191.59C1201.99 1188.74 1207.29 1186.83 1212.1 1185.85C1227.5 1182.72 1240.46 1188.1 1250.97 1202C1251.75 1202.5 1252.46 1202.69 1253.1 1202.57C1254.71 1202.24 1256.24 1200.76 1257.71 1198.12C1260.01 1194.65 1260.97 1191.95 1260.58 1190.02L1260.47 1189.54C1260.28 1188.58 1259.7 1187.36 1258.73 1185.89Z" fill="white"/>
<path d="M1320.94 189.854C1317.74 174.139 1320.61 159.535 1329.55 146.025C1338.76 132.132 1351.22 123.584 1366.94 120.388C1382.67 117.193 1397.48 120.188 1411.38 129.384C1424.9 138.332 1433.26 150.659 1436.46 166.373L1472 340.991C1508.88 305.44 1550.59 282.935 1597.12 273.475C1614.13 270.016 1631.65 268.291 1649.7 268.291C1700.43 267.995 1747.15 282.383 1789.82 311.44C1830.57 339.226 1861.9 376.607 1883.83 423.583L1899.31 472.532L1938.48 664.95C1941.75 680.984 1938.91 695.756 1929.96 709.265C1920.69 722.839 1908.2 731.219 1892.47 734.423C1876.75 737.618 1861.97 734.774 1848.13 725.898C1834.61 716.959 1826.23 704.472 1822.96 688.438L1783.78 496.02C1766.37 435.103 1730.67 399.28 1676.69 388.543C1658.57 384.884 1640.84 384.812 1623.51 388.335C1614.21 390.228 1605.25 393.048 1596.66 396.803C1570.81 407.732 1550.19 424.621 1534.78 447.454C1524.88 462.825 1518.16 479.051 1514.62 496.14C1513.1 503.458 1513.14 521.657 1514.7 550.729L1553.87 743.147C1557.14 759.181 1554.3 773.953 1545.35 787.455C1536.09 801.028 1523.59 809.417 1507.87 812.612C1492.14 815.808 1477.36 812.972 1463.52 804.096C1450 795.156 1441.61 782.669 1438.35 766.635L1320.94 189.854ZM1412.91 154.126C1404.92 144.396 1394.72 138.619 1382.32 136.798C1376.47 135.983 1370.98 136.103 1365.85 137.141C1361.35 138.06 1357.34 139.706 1353.82 142.095C1350.87 144.028 1348.12 147.759 1345.57 153.287C1344.36 155.54 1343.88 157.306 1344.14 158.584C1344.47 160.19 1346.24 160.669 1349.44 160.014L1350.41 159.814C1356.18 156.978 1361.47 155.061 1366.29 154.086C1381.69 150.955 1394.65 156.331 1405.16 170.224C1405.94 170.736 1406.64 170.927 1407.28 170.799C1408.89 170.472 1410.42 168.994 1411.9 166.358C1414.2 162.882 1415.15 160.182 1414.76 158.257L1414.66 157.777C1414.46 156.819 1413.88 155.596 1412.91 154.126ZM1767.63 330.478C1747.72 309.818 1721.05 297.035 1687.64 292.138C1666.56 288.743 1646.56 288.966 1627.62 292.817C1618.96 294.583 1610.46 297.147 1602.12 300.511C1596.54 302.644 1594.01 305 1594.53 307.565L1594.63 308.044C1595.35 311.568 1598.67 313.069 1604.57 312.534C1661.2 306.702 1713.38 315.961 1761.11 340.32C1764.84 342.238 1767.67 342.997 1769.6 342.605C1770.24 342.477 1770.98 341.99 1771.81 341.151C1772.26 340.065 1772.35 338.874 1772.09 337.588C1771.7 335.671 1770.21 333.298 1767.63 330.478Z" fill="white"/>
<path d="M2266.75 658.341C2215.41 668.774 2164.55 663.59 2114.19 642.762C2059.98 621.056 2023.45 586.902 2004.61 540.31L1972.42 419.107L1953.02 321.36L1943.39 323.318C1927.67 326.513 1913.08 323.797 1899.63 315.177C1885.79 306.301 1877.21 293.686 1873.87 277.332C1870.69 261.618 1873.72 246.974 1882.99 233.4C1891.86 219.571 1904.17 211.063 1919.89 207.867L1929.52 205.91L1902.19 71.6928C1899 55.9783 1901.85 41.2064 1910.72 27.3773C1919.67 13.8757 1932.16 5.48712 1948.21 2.2276C1964.26 -1.03998 1978.91 1.99591 1992.17 11.3192C2006.01 20.1951 2014.53 32.4903 2017.72 48.2048L2044.57 182.518L2123.99 166.372C2139.71 163.168 2154.36 166.204 2167.95 175.463C2181.79 184.339 2190.3 196.634 2193.5 212.349C2196.83 228.703 2193.86 243.674 2184.6 257.24C2175.59 270.43 2163.21 278.627 2147.5 281.822L2068.07 297.968L2087.94 395.619C2088.67 399.15 2090.85 410.726 2094.52 430.356C2095.7 437.794 2096.87 444.4 2098.04 450.177C2099.28 456.264 2100.55 461.689 2101.87 466.434C2109.78 493.877 2122.85 512.923 2141.06 523.588C2173.57 543.697 2207.62 550.128 2243.25 542.89C2259.29 539.623 2274.04 542.307 2287.49 550.927C2301.08 560.187 2309.5 572.833 2312.76 588.867C2316.03 604.902 2313.19 619.673 2304.23 633.183C2295.29 646.693 2282.8 655.073 2266.75 658.341ZM1994.65 35.8617C1986.66 26.131 1976.46 20.3629 1964.07 18.5413C1958.22 17.7264 1952.72 17.8383 1947.59 18.8848C1943.1 19.7956 1939.09 21.4494 1935.56 23.8301C1932.62 25.7635 1929.64 29.2068 1926.65 34.16C1925.87 36.9882 1925.63 39.0413 1925.89 40.3276C1926.21 41.9334 1927.99 42.4048 1931.19 41.7496L1932.15 41.5579C1937.93 38.7138 1943.21 36.8044 1948.03 35.8218C1963.44 32.6901 1976.39 38.0746 1986.91 51.9677C1987.67 52.479 1988.39 52.6708 1989.03 52.5349C1990.63 52.2074 1992.17 50.7294 1993.64 48.093C1995.94 44.6177 1996.9 41.9174 1996.5 40.0001L1996.41 39.5127C1996.21 38.554 1995.62 37.3397 1994.65 35.8617ZM2169.95 197.601C2161.96 187.87 2151.75 182.094 2139.35 180.281C2133.51 179.466 2128.01 179.578 2122.87 180.624L2099.77 185.322C2097.79 188.725 2097.06 191.713 2097.59 194.278C2097.72 194.917 2098.04 195.692 2098.56 196.586C2100.49 199.534 2103.9 200.677 2108.78 200.022C2113.66 199.359 2118.51 198.544 2123.32 197.561C2138.72 194.429 2151.68 199.814 2162.2 213.707C2162.97 214.218 2163.68 214.41 2164.32 214.274C2165.93 213.947 2167.47 212.469 2168.93 209.832C2171.22 206.357 2172.18 203.657 2171.8 201.739L2171.69 201.252C2171.5 200.293 2170.92 199.079 2169.95 197.601Z" fill="white"/>
<path d="M1580.81 912.278C1521.45 921.569 1473.48 950.665 1436.89 999.559C1400.74 1049.33 1387.11 1104.43 1396 1164.86C1403.57 1216.39 1426.82 1260.31 1465.76 1296.6C1504.74 1333.22 1549.85 1352.79 1601.09 1355.33C1616.62 1356.2 1631.64 1355.57 1646.12 1353.46C1687.47 1347.42 1725.18 1329.22 1759.24 1298.87C1804.99 1257.73 1829.26 1206.87 1832.07 1146.3C1832.88 1130.83 1832.2 1115.74 1830.03 1101.01C1824.98 1066.66 1811.9 1034.26 1790.78 1003.82C1760.39 960.628 1720.59 932.13 1671.4 918.317C1642.13 910.057 1611.94 908.043 1580.81 912.278ZM1565.48 801.716C1657.75 789.813 1739.74 811.839 1811.47 867.786C1854.92 901.237 1888.24 943.371 1911.43 994.19C1925.08 1024.16 1934.23 1054.93 1938.87 1086.53C1942.08 1108.31 1943.02 1130.41 1941.69 1152.85C1938.44 1218.81 1916.9 1278.83 1877.07 1332.9C1837.59 1387.22 1787.25 1425.43 1726.07 1447.53C1705.33 1455.26 1684.24 1460.69 1662.81 1463.81C1631.43 1468.4 1599.17 1468.1 1566.04 1462.91C1510.93 1454.98 1461.3 1434.02 1417.16 1400.05C1363.83 1360.21 1325.96 1308.09 1303.55 1243.68C1296.03 1221.91 1290.65 1199.98 1287.4 1177.89C1281.18 1135.57 1283.24 1092.97 1293.58 1050.1C1309.35 985.442 1341.95 930.389 1391.38 884.947C1440.28 840.208 1497.26 812.622 1562.31 802.18L1565.48 801.716ZM1791.64 883.844C1773.68 862.338 1742.31 844.985 1697.52 831.787C1661.77 821.346 1632.57 817.774 1609.94 821.074C1604.81 821.825 1600.03 822.84 1595.59 824.11C1590.34 826.131 1587.87 828.216 1588.19 830.365C1588.73 834.04 1591.89 835.622 1597.67 835.087C1654.7 833.026 1717.3 852.088 1785.48 892.265C1788.6 894.63 1791.07 895.676 1792.87 895.413C1793.78 895.277 1794.47 894.71 1794.94 893.703C1795.45 893 1795.59 891.881 1795.37 890.348C1795.1 888.51 1793.85 886.337 1791.64 883.844Z" fill="#FF3A6A"/>
<path d="M1956.66 967.933C1953.63 953.042 1956.41 939.189 1965.01 926.374C1973.24 913.304 1984.67 905.283 1999.32 902.311C2026.22 896.838 2046.06 906.409 2058.85 931.016C2092.26 897.965 2132.26 876.546 2178.82 866.767C2225.73 857.228 2271.1 861.447 2314.91 879.438C2371.26 902.463 2413.97 944.086 2443.04 1004.31C2449.95 1018.4 2455.45 1035.47 2459.53 1055.53L2496.64 1237.81C2499.73 1253.01 2497.13 1266.98 2488.84 1279.74C2480.84 1292.44 2469.22 1300.34 2453.98 1303.44C2439.33 1306.42 2425.7 1303.65 2413.07 1295.14C2400.15 1286.7 2392.14 1274.88 2389.05 1259.69L2351.94 1077.4C2346.74 1051.88 2334.93 1029.76 2316.49 1011.05C2297.7 992.092 2275.98 980.213 2251.36 975.411C2234.15 971.944 2217.64 971.824 2201.79 975.044C2186.85 978.08 2172.38 984.191 2158.37 993.363C2129.71 1011.53 2111.25 1037.11 2103.04 1070.11C2098.3 1088.15 2097.74 1107.57 2101.36 1128.35L2138.47 1310.63C2141.55 1325.83 2138.96 1339.8 2130.66 1352.56C2122.37 1365.32 2110.74 1373.22 2095.8 1376.26C2081.16 1379.24 2067.53 1376.47 2054.9 1367.96C2041.98 1359.52 2033.97 1347.7 2030.88 1332.51L1956.66 967.933ZM2340.6 923.091C2322.58 903.341 2297.99 891.102 2266.83 886.365C2246.89 883.137 2228.24 883.289 2210.91 886.82C2202.54 888.522 2194.63 890.918 2187.17 894.018C2181.97 896.023 2179.62 898.236 2180.12 900.673L2180.21 901.129C2180.89 904.468 2183.98 905.898 2189.49 905.411C2241.94 900.122 2290.6 909.054 2335.46 932.206C2338.64 934.092 2341.13 934.851 2342.92 934.483C2343.82 934.307 2344.51 933.852 2344.98 933.117C2345.69 932.022 2345.95 931.024 2345.77 930.113C2345.34 927.988 2343.61 925.647 2340.6 923.091ZM2042.15 931.567C2034.67 922.332 2025.14 916.835 2013.59 915.069C2008.14 914.279 2003.02 914.366 1998.24 915.341C1994.05 916.196 1990.33 917.746 1987.05 919.991C1984.31 921.812 1981.76 925.335 1979.4 930.56C1978.27 932.693 1977.84 934.363 1978.09 935.578C1978.39 937.095 1980.04 937.551 1983.03 936.944L1983.92 936.76C1989.29 934.084 1994.22 932.294 1998.7 931.383C2013.05 928.467 2025.14 933.604 2034.98 946.786C2035.71 947.274 2036.36 947.457 2036.96 947.337C2038.46 947.034 2039.88 945.636 2041.23 943.143C2043.38 939.86 2044.26 937.311 2043.88 935.482L2043.79 935.026C2043.61 934.116 2043.06 932.965 2042.15 931.567Z" fill="#FF3A6A"/>
<path d="M2632.05 1026.41C2635.05 1041.18 2632.74 1054.87 2625.12 1067.49C2617.37 1079.52 2606.51 1086.95 2592.52 1089.8C2578.81 1092.59 2566.05 1089.96 2554.21 1081.91C2542.26 1073.27 2534.78 1061.56 2531.77 1046.8L2459.83 693.371C2456.88 678.903 2459.25 665.513 2466.93 653.186C2474.56 640.563 2485.22 632.862 2498.94 630.073C2512.92 627.229 2525.89 630.129 2537.84 638.765C2549.74 647.114 2557.16 658.523 2560.1 672.983L2632.05 1026.41ZM2628.67 1267.4C2614.97 1270.18 2602.17 1267.4 2590.28 1259.06C2578.33 1250.43 2570.87 1238.87 2567.93 1224.41C2564.98 1209.94 2567.36 1196.54 2575.04 1184.21C2582.67 1171.59 2593.33 1163.89 2607.03 1161.12C2621.02 1158.26 2633.99 1161.16 2645.94 1169.8C2657.85 1178.14 2665.26 1189.55 2668.21 1204.02C2671.16 1218.49 2668.81 1232.03 2661.19 1244.65C2653.5 1256.97 2642.66 1264.56 2628.67 1267.4ZM2540.07 660.456C2532.99 651.436 2524 645.892 2513.08 643.799C2507.97 643 2503.31 643.024 2499.12 643.87C2494.92 644.725 2491.31 646.235 2488.25 648.392C2486.25 650.03 2485.34 651.284 2485.52 652.171L2485.79 653.505C2486.09 654.975 2487.36 655.487 2489.6 655.031C2506.94 651.508 2523.05 654.84 2537.95 665.042C2539.25 665.697 2540.18 665.968 2540.74 665.857C2541.02 665.801 2541.27 665.593 2541.48 665.241C2541.98 664.834 2542.2 664.482 2542.14 664.187C2541.91 663.004 2541.21 661.758 2540.07 660.456ZM2652.07 1187C2644.99 1177.99 2636.03 1172.58 2625.17 1170.79C2620.06 1169.99 2615.27 1170.04 2610.79 1170.95C2606.88 1171.75 2603.39 1173.22 2600.33 1175.39C2597.78 1177.14 2595.41 1180.53 2593.24 1185.59C2592.2 1187.65 2591.8 1189.26 2592.04 1190.45C2592.34 1191.92 2593.89 1192.38 2596.68 1191.8L2597.52 1191.64C2602.54 1189.08 2607.14 1187.38 2611.33 1186.52C2624.76 1183.79 2636.13 1188.86 2645.45 1201.73C2646.13 1202.2 2646.75 1202.38 2647.31 1202.27C2648.71 1201.98 2650.03 1200.64 2651.3 1198.23C2653.27 1195.06 2654.08 1192.59 2653.72 1190.82L2653.63 1190.37C2653.45 1189.49 2652.93 1188.37 2652.07 1187Z" fill="#FF3A6A"/>
<path d="M657.502 232.632L719.506 133.911C724.079 126.425 730.627 121.711 739.149 119.778C747.503 117.885 755.361 119.323 762.716 124.1C770.039 128.71 774.651 135.189 776.546 143.538C778.521 152.23 777.202 160.227 772.597 167.545L710.537 266.019L809.067 328.03C816.43 332.816 821.074 339.462 823.017 347.979C824.912 356.327 823.577 364.245 818.996 371.73C814.391 379.048 807.908 383.658 799.554 385.552C791.032 387.485 783.101 386.151 775.787 381.541L677.137 319.01L614.677 418.107C610.064 425.425 603.581 430.035 595.235 431.928C586.705 433.862 578.782 432.528 571.46 427.918C564.105 423.14 559.476 416.573 557.573 408.225C555.639 399.708 556.958 391.703 561.531 384.217L623.591 285.752L525.052 223.732C517.73 219.123 513.085 212.476 511.11 203.784C509.216 195.435 510.567 187.606 515.179 180.288C519.752 172.802 526.3 168.088 534.83 166.155C543.184 164.261 551.034 165.699 558.397 170.477L657.502 232.632ZM766.273 136.196C761.892 131.099 756.376 128.143 749.733 127.32C746.607 126.952 743.673 127.08 740.947 127.703C738.565 128.239 736.446 129.173 734.592 130.483C733.041 131.554 731.498 133.431 729.955 136.108C729.579 137.626 729.467 138.728 729.627 139.407C729.819 140.262 730.77 140.494 732.473 140.102L732.985 139.991C736.031 138.401 738.829 137.314 741.387 136.739C749.573 134.877 756.552 137.594 762.332 144.88C762.748 145.143 763.132 145.239 763.475 145.159C764.323 144.968 765.13 144.161 765.882 142.731C767.065 140.853 767.544 139.399 767.313 138.377L767.249 138.121C767.137 137.61 766.809 136.971 766.273 136.196ZM518.377 194.34C518.225 195.275 518.217 195.994 518.329 196.505L518.385 196.761C518.617 197.784 519.68 198.886 521.559 200.069C522.854 201.027 523.925 201.411 524.781 201.219C525.124 201.139 525.42 200.891 525.684 200.476C527.747 191.408 532.871 185.944 541.057 184.09C543.615 183.507 546.605 183.275 550.043 183.395L550.554 183.275C552.257 182.892 553.009 182.269 552.817 181.422C552.665 180.735 552.089 179.792 551.098 178.586C548.548 176.836 546.341 175.814 544.487 175.518C542.248 175.127 539.93 175.206 537.548 175.75C534.822 176.365 532.119 177.515 529.457 179.201C523.821 182.804 520.128 187.853 518.377 194.34Z" fill="#FF3A6A"/>
<path d="M2656.32 593.174C2670.85 590.351 2684.54 591.202 2697.38 595.729C2710.17 600.004 2720.97 607.398 2729.77 617.909C2738.52 628.169 2744.31 640.566 2747.14 655.099C2749.96 669.632 2749.26 683.419 2745.03 696.462C2740.8 709.504 2733.58 720.527 2723.37 729.531C2713.11 738.285 2700.71 744.073 2686.18 746.896C2671.4 749.768 2657.61 749.066 2644.82 744.79C2631.98 740.264 2621.16 732.745 2612.35 722.234C2603.55 711.723 2597.74 699.201 2594.92 684.668C2592.09 670.135 2592.82 656.473 2597.1 643.682C2601.32 630.639 2608.57 619.741 2618.83 610.988C2629.04 601.983 2641.54 596.045 2656.32 593.174ZM2683.26 731.862C2701.3 728.358 2714.72 719.772 2723.5 706.104C2732.54 692.388 2735.28 676.384 2731.73 658.092C2728.17 639.801 2719.64 625.988 2706.12 616.652C2692.86 607.267 2677.21 604.327 2659.17 607.832C2640.88 611.385 2627.34 619.995 2618.55 633.663C2610.02 647.282 2607.53 663.237 2611.08 681.529C2614.63 699.82 2622.91 713.682 2635.93 723.116C2649.19 732.5 2664.97 735.416 2683.26 731.862ZM2701.97 647.491C2703.14 653.504 2702.51 658.957 2700.08 663.85C2697.85 668.443 2694.15 672.152 2688.98 674.976L2716.09 702.083L2692.48 707.059L2668.6 680.495L2662.21 681.737L2668.05 711.805L2648.51 715.601L2632.81 634.793L2668.89 627.784C2677.41 626.129 2684.62 627.07 2690.5 630.607C2696.64 634.095 2700.47 639.723 2701.97 647.491ZM2659.07 665.575L2674.48 662.582C2677.24 662.046 2679.35 660.856 2680.81 659.012C2682.52 657.119 2683.11 654.795 2682.58 652.039C2682.04 649.283 2680.65 647.473 2678.4 646.609C2676.36 645.447 2673.95 645.133 2671.2 645.668L2655.79 648.662L2659.07 665.575Z" fill="white"/>
</svg>
