<svg width="120" height="56" viewBox="0 0 120 56" fill="none" xmlns="http://www.w3.org/2000/svg">
<path d="M6.84543 36.6587L8.66035 45.5751C8.78157 46.1695 8.67606 46.7171 8.34443 47.2179C8.0128 47.7188 7.55552 48.0283 6.97257 48.1467C6.37777 48.2679 5.8298 48.1624 5.32865 47.831C4.82751 47.4996 4.51662 47.0367 4.39571 46.4423L0.0427436 25.0604C-0.0686885 24.4515 0.0377056 23.9098 0.362518 23.4353C0.696518 22.9464 1.15855 22.6298 1.7486 22.4849L15.1142 19.7676C17.9863 19.2703 20.3029 20.0004 22.0642 21.9575C22.977 22.9727 23.5691 24.1461 23.84 25.4777C23.9417 25.9771 23.9971 26.4921 24.006 27.0225C24.0484 29.0569 23.4467 30.7578 22.2014 32.1252C21.224 33.1657 19.9346 33.8922 18.3336 34.3044L24.5065 41.2579C24.7552 41.5662 24.917 41.9047 24.992 42.2734C25.0284 42.4517 25.048 42.6398 25.0509 42.837C25.0127 43.4391 24.7608 43.9361 24.2952 44.3279C24.0033 44.5977 23.6788 44.7689 23.322 44.8415C23.1317 44.8803 22.9293 44.8904 22.715 44.872C22.1149 44.8453 21.62 44.6054 21.2305 44.1523L13.4122 35.3235L6.84543 36.6587ZM5.97413 32.3787L17.2163 30.0929C18.6415 29.7908 19.4447 28.99 19.626 27.6901C19.6794 27.2832 19.6663 26.8836 19.5863 26.4912C19.4921 26.0274 19.3012 25.5772 19.0141 25.1404C18.4397 24.2667 17.6896 23.8683 16.7638 23.945L15.9855 24.0475L4.74334 26.3333L5.97413 32.3787ZM20.7685 22.1651C19.3543 20.6946 17.5228 20.1879 15.2743 20.6451C15.0007 20.7008 14.7236 20.7695 14.443 20.8513C14.2361 20.9304 14.1433 21.0236 14.1653 21.1306C14.1943 21.2733 14.3218 21.3216 14.5479 21.2757C16.3587 20.9819 18.3529 21.4057 20.5305 22.5477C20.6663 22.607 20.77 22.6292 20.8414 22.6147C20.8651 22.6099 20.8912 22.5859 20.9197 22.543C20.9386 22.5143 20.9434 22.4764 20.9336 22.4287C20.9191 22.3573 20.8639 22.2696 20.7685 22.1651Z" fill="white"/>
<path d="M31.5849 33.5247C31.7034 34.1073 31.597 34.649 31.2654 35.1495C30.9361 35.6622 30.4741 35.9791 29.8793 36.0999C29.2964 36.2184 28.7531 36.1061 28.2496 35.7629C27.7485 35.4311 27.4385 34.9742 27.3199 34.3916L24.412 20.1074C24.2935 19.5248 24.4002 18.9831 24.7318 18.4823C25.0611 17.9697 25.5172 17.6542 26.1001 17.5358C26.6949 17.4146 27.2441 17.526 27.7476 17.8693C28.2487 18.2007 28.5584 18.6577 28.677 19.2402L31.5849 33.5247ZM27.8472 18.8146C27.5505 18.4542 27.1726 18.2401 26.7127 18.1725C26.496 18.1423 26.2924 18.1465 26.1022 18.1853C25.9356 18.219 25.7869 18.2803 25.6565 18.3686C25.5471 18.4406 25.4961 18.4942 25.5032 18.5297C25.4469 18.7394 25.4271 18.8857 25.444 18.9689C25.4537 19.0166 25.4825 19.0356 25.5299 19.0258C25.7439 18.9204 25.9401 18.8496 26.1185 18.8134C26.6896 18.6973 27.17 18.8967 27.5597 19.4117C27.6169 19.4496 27.6575 19.4662 27.6812 19.4612C27.8208 19.173 27.8955 19.0216 27.905 19.0074C27.9144 18.9929 27.9165 18.974 27.9118 18.9503C27.9047 18.9144 27.883 18.8694 27.8472 18.8146Z" fill="white"/>
<path d="M36.5052 32.5421C36.2118 32.379 35.9134 32.1921 35.6105 31.9812C33.5487 30.5557 32.2649 28.6007 31.759 26.1159L31.7335 25.9909C31.2371 23.4302 31.6911 21.0967 33.0962 18.9913C34.1456 17.3914 35.5678 16.223 37.3629 15.4867C37.9598 15.2539 38.5617 15.0759 39.1683 14.9524C40.3698 14.7081 41.5949 14.7007 42.8432 14.9296C44.6896 15.2972 46.2958 16.159 47.6624 17.5155C49.0049 18.8769 49.8697 20.4777 50.2567 22.3181C50.6245 24.125 50.4615 25.9101 49.7674 27.6731C49.073 29.4362 47.9792 30.8472 46.4849 31.9063C45.3993 32.6591 44.1988 33.1819 42.8829 33.4742C41.6012 33.933 40.7313 34.4068 40.2735 34.8961C39.5403 35.6146 39.0741 36.4895 38.8752 37.5204C38.7629 38.1868 38.7724 38.8413 38.9031 39.4831C38.9707 39.816 39.0685 40.143 39.1956 40.4638C39.6541 41.559 40.4294 42.3859 41.5214 42.9436C42.5925 43.5184 43.7228 43.6849 44.9124 43.4429C45.4954 43.3244 46.0374 43.4308 46.5386 43.7622C47.0539 44.1031 47.3707 44.5648 47.4896 45.1474C47.6081 45.7299 47.4967 46.2787 47.1556 46.7938C46.824 47.2946 46.3667 47.6044 45.7837 47.7228C43.9255 48.0883 42.1059 47.9133 40.325 47.1983C38.5154 46.4644 37.0938 45.3233 36.0601 43.7755C35.3521 42.7312 34.8767 41.6141 34.6349 40.4253C34.5066 39.7953 34.4437 39.1517 34.4464 38.4951C34.4375 36.5653 34.9544 34.8138 35.9967 33.2399C36.1579 32.9968 36.3274 32.7643 36.5052 32.5421ZM42.0119 29.1943C43.3752 28.8922 44.4406 28.1618 45.2082 27.0029C45.9971 25.8274 46.2523 24.556 45.974 23.1886C45.7369 22.0237 45.1492 21.0535 44.2109 20.2787C43.2608 19.506 42.1903 19.1171 40.9999 19.1115C40.6285 19.1127 40.2702 19.1482 39.9252 19.2184C38.9855 19.4095 38.1441 19.8715 37.4014 20.6045C36.3929 21.6144 35.8873 22.8127 35.8846 24.2C35.8858 24.5711 35.9205 24.9232 35.9881 25.2561C36.2181 26.3854 36.814 27.3352 37.776 28.1053C39.0222 29.1149 40.4341 29.4777 42.0119 29.1943ZM45.4183 17.1731C44.6801 16.4072 43.6917 15.9333 42.4529 15.7518C41.6717 15.6259 40.9299 15.6342 40.2281 15.777C39.9069 15.8424 39.5918 15.9372 39.2827 16.0622C39.0759 16.1412 38.9819 16.2283 39.0015 16.3234L39.005 16.3414C39.0317 16.4721 39.1544 16.5277 39.3734 16.5079C41.4725 16.2917 43.4072 16.635 45.1768 17.538C45.3152 17.609 45.4198 17.6372 45.4912 17.6227C45.5152 17.6176 45.5425 17.5999 45.5733 17.5688C45.5899 17.5282 45.5932 17.4844 45.5837 17.4367C45.5692 17.3653 45.514 17.2776 45.4183 17.1731ZM46.6272 44.6542C46.3308 44.2935 45.9527 44.0794 45.493 44.0119C45.2761 43.9816 45.0725 43.9861 44.8822 44.0246C44.7156 44.0586 44.5672 44.1197 44.4365 44.2082C44.3271 44.2799 44.2252 44.4182 44.1306 44.6231C44.0856 44.7067 44.0681 44.7721 44.0779 44.8198C44.0897 44.879 44.1555 44.8968 44.2744 44.8725L44.3099 44.8654C44.5239 44.76 44.7201 44.6892 44.8985 44.6528C45.4696 44.5367 45.95 44.7363 46.3397 45.2513C46.3684 45.27 46.3948 45.2771 46.4185 45.2723C46.4781 45.2602 46.535 45.2054 46.5892 45.1077C46.6746 44.9788 46.7102 44.8787 46.6956 44.8074L46.6918 44.7896C46.6847 44.7541 46.663 44.7087 46.6272 44.6542Z" fill="white"/>
<path d="M48.9316 7.72961C48.8131 7.14705 48.9195 6.60565 49.2511 6.10483C49.5922 5.58979 50.0542 5.27289 50.6372 5.15442C51.2201 5.03596 51.7693 5.14702 52.2847 5.48791C52.7858 5.81962 53.0958 6.27661 53.2143 6.85917L54.532 13.3325C55.8991 12.0146 57.4452 11.1803 59.17 10.8296C59.8007 10.7014 60.4503 10.6374 61.1195 10.6374C63.0002 10.6264 64.7319 11.1598 66.3138 12.237C67.8244 13.2671 68.9861 14.6528 69.799 16.3943L70.3728 18.2089L71.825 25.3421C71.9462 25.9365 71.8407 26.4842 71.5091 26.985C71.1656 27.4882 70.7024 27.7989 70.1194 27.9176C69.5365 28.0361 68.9885 27.9306 68.4755 27.6016C67.9743 27.2702 67.6635 26.8073 67.5423 26.2129L66.0901 19.0797C65.4446 16.8214 64.121 15.4934 62.12 15.0953C61.4482 14.9597 60.7908 14.957 60.1486 15.0876C59.8037 15.1578 59.4717 15.2623 59.1531 15.4015C58.195 15.8067 57.4304 16.4328 56.8593 17.2793C56.4921 17.8491 56.2432 18.4506 56.1119 19.0841C56.0556 19.3554 56.0567 20.0301 56.1148 21.1078L57.567 28.241C57.6882 28.8354 57.5827 29.3831 57.2511 29.8836C56.9076 30.3868 56.4444 30.6977 55.8614 30.8162C55.2785 30.9347 54.7305 30.8295 54.2175 30.5005C53.7164 30.1691 53.4052 29.7062 53.2843 29.1118L48.9316 7.72961ZM52.3413 6.40514C52.0449 6.04441 51.6667 5.83028 51.2071 5.76275C50.9904 5.73255 50.7868 5.73699 50.5966 5.77549C50.43 5.80955 50.2812 5.87056 50.1506 5.95911C50.0415 6.03078 49.9395 6.1691 49.845 6.37404C49.8 6.45756 49.7822 6.52302 49.792 6.5704C49.8041 6.62993 49.8696 6.64771 49.9884 6.62342L50.0243 6.61601C50.2383 6.51087 50.4345 6.43979 50.6129 6.40366C51.184 6.28756 51.6644 6.48689 52.0541 7.00192C52.0828 7.02088 52.1089 7.02798 52.1326 7.02324C52.1922 7.0111 52.2491 6.95631 52.3036 6.85858C52.389 6.72974 52.4242 6.62964 52.4097 6.55826L52.4062 6.54049C52.3988 6.50495 52.3771 6.45964 52.3413 6.40514ZM65.4914 12.9428C64.7532 12.1769 63.7645 11.703 62.526 11.5215C61.7445 11.3956 61.003 11.4039 60.3009 11.5466C59.98 11.6121 59.6647 11.7071 59.3556 11.8318C59.1487 11.9109 59.055 11.9983 59.0743 12.0933L59.0779 12.1111C59.1045 12.2417 59.2275 12.2974 59.4462 12.2776C61.5457 12.0614 63.48 12.4046 65.2496 13.3076C65.388 13.3787 65.4929 13.4069 65.5643 13.3923C65.588 13.3876 65.6153 13.3695 65.6461 13.3384C65.6627 13.2982 65.6663 13.254 65.6565 13.2063C65.642 13.1353 65.5869 13.0473 65.4914 12.9428Z" fill="white"/>
<path d="M83.9946 25.0963C82.0914 25.4831 80.206 25.2909 78.3392 24.5188C76.3295 23.7141 74.9752 22.4479 74.2766 20.7207L73.0835 16.2275L72.3642 12.6039L72.0074 12.6765C71.4245 12.7949 70.8836 12.6942 70.3851 12.3747C69.8721 12.0456 69.5538 11.578 69.4302 10.9717C69.312 10.3892 69.4243 9.84628 69.7681 9.34309C70.097 8.83043 70.5534 8.51501 71.1361 8.39654L71.4929 8.32398L70.4799 3.34835C70.3617 2.76579 70.4672 2.21818 70.7962 1.70551C71.1278 1.20499 71.591 0.894009 72.1858 0.773172C72.7809 0.652039 73.3241 0.764584 73.8155 1.11021C74.3285 1.43925 74.6444 1.89506 74.763 2.47762L75.7582 7.4568L78.7025 6.85824C79.2852 6.73948 79.8284 6.85202 80.3322 7.19528C80.8452 7.52432 81.1605 7.98013 81.2791 8.56269C81.4027 9.16895 81.2927 9.72396 80.9492 10.2269C80.6152 10.7158 80.1565 11.0197 79.5738 11.1382L76.6292 11.7367L77.3659 15.3568C77.3929 15.4877 77.4738 15.9168 77.6098 16.6445C77.6537 16.9203 77.697 17.1652 77.7405 17.3793C77.7865 17.605 77.8336 17.8061 77.8822 17.982C78.1756 18.9994 78.6601 19.7054 79.3352 20.1008C80.5402 20.8463 81.8027 21.0847 83.1236 20.8164C83.7181 20.6952 84.2649 20.7947 84.7637 21.1143C85.2672 21.4576 85.5796 21.9264 85.7005 22.5208C85.8214 23.1152 85.7162 23.6628 85.3843 24.1636C85.0527 24.6645 84.5897 24.9751 83.9946 25.0963ZM73.9077 2.02004C73.6113 1.65931 73.2331 1.44547 72.7738 1.37795C72.5569 1.34774 72.3533 1.35188 72.163 1.39068C71.9964 1.42445 71.848 1.48575 71.717 1.57401C71.6079 1.64569 71.4977 1.77333 71.3865 1.95696C71.3578 2.0618 71.3489 2.13791 71.3584 2.1856C71.3705 2.24513 71.4363 2.2626 71.5549 2.23832L71.5907 2.23121C71.8047 2.12577 72.0006 2.05499 72.1793 2.01856C72.7504 1.90246 73.2308 2.10208 73.6208 2.61712C73.6489 2.63607 73.6756 2.64318 73.699 2.63814C73.7586 2.626 73.8155 2.57121 73.87 2.47347C73.9554 2.34464 73.9909 2.24454 73.9761 2.17345L73.9729 2.15539C73.9655 2.11985 73.9435 2.07483 73.9077 2.02004ZM80.4063 8.01596C80.1099 7.65523 79.7315 7.4411 79.2718 7.37387C79.0552 7.34366 78.8516 7.34781 78.661 7.38661L77.8045 7.56075C77.731 7.68692 77.7041 7.79769 77.7236 7.89276C77.7284 7.91645 77.7402 7.94518 77.7595 7.97835C77.8312 8.08764 77.9575 8.12999 78.1385 8.1057C78.3196 8.08112 78.4992 8.05091 78.6776 8.01448C79.2484 7.89839 79.7288 8.098 80.1188 8.61304C80.1476 8.63199 80.1736 8.6391 80.1974 8.63407C80.2572 8.62192 80.3141 8.56713 80.3684 8.4694C80.4534 8.34056 80.489 8.24046 80.4748 8.16938L80.4706 8.15131C80.4635 8.11577 80.4422 8.07076 80.4063 8.01596Z" fill="white"/>
<path d="M58.5656 34.5113C56.3651 34.8557 54.5867 35.9344 53.2305 37.7469C51.8904 39.592 51.3851 41.6347 51.7143 43.8749C51.995 45.7852 52.8571 47.4132 54.3007 48.7587C55.7457 50.1161 57.4181 50.8417 59.3175 50.9359C59.8933 50.9681 60.4499 50.9448 60.9869 50.8666C62.5197 50.6427 63.9176 49.968 65.1804 48.8428C66.8762 47.3176 67.776 45.4322 67.8803 43.1869C67.9102 42.6132 67.885 42.0538 67.8047 41.5079C67.6174 40.2344 67.1326 39.0332 66.3496 37.9048C65.2228 36.3037 63.7475 35.2472 61.924 34.7352C60.839 34.4289 59.7197 34.3543 58.5656 34.5113ZM57.9975 30.4126C61.4178 29.9713 64.4576 30.7878 67.1166 32.8619C68.7273 34.102 69.9625 35.664 70.8223 37.5479C71.3284 38.6588 71.6675 39.7996 71.8397 40.971C71.9585 41.7783 71.9932 42.5978 71.944 43.4298C71.8237 45.8749 71.025 48.0998 69.5485 50.1042C68.0848 52.1182 66.2189 53.5347 63.9508 54.3539C63.1818 54.6403 62.4 54.8417 61.6054 54.9575C60.4422 55.1275 59.2464 55.1163 58.0179 54.9241C55.9751 54.63 54.1353 53.8531 52.4988 52.5938C50.5221 51.1168 49.1179 49.1846 48.2872 46.7969C48.0083 45.9899 47.8089 45.1769 47.6886 44.358C47.458 42.7889 47.5341 41.2097 47.9176 39.6205C48.5024 37.2236 49.7109 35.1827 51.543 33.4981C53.3562 31.8395 55.4683 30.8169 57.8798 30.4298L57.9975 30.4126ZM66.3813 33.4572C65.7156 32.6599 64.5527 32.0166 62.8922 31.5274C61.5669 31.1403 60.4846 31.0079 59.6456 31.1302C59.4553 31.158 59.2781 31.1957 59.1136 31.2428C58.9189 31.3177 58.8273 31.395 58.8392 31.4747C58.8593 31.6109 58.9764 31.6695 59.1906 31.6497C61.3049 31.5733 63.6257 32.2799 66.1531 33.7694C66.2687 33.857 66.3602 33.8958 66.4272 33.8861C66.4607 33.881 66.4862 33.86 66.5037 33.8227C66.5226 33.7966 66.528 33.7551 66.5197 33.6983C66.5096 33.6302 66.4634 33.5496 66.3813 33.4572Z" fill="white"/>
<path d="M72.499 36.5738C72.3867 36.0217 72.4898 35.5082 72.8084 35.0331C73.1136 34.5486 73.5374 34.2512 74.0804 34.141C75.0776 33.9382 75.8132 34.293 76.2874 35.2052C77.5259 33.9799 79.0086 33.1859 80.7346 32.8234C82.4739 32.4698 84.1558 32.6261 85.7799 33.2931C87.8689 34.1467 89.4521 35.6897 90.5296 37.9222C90.786 38.4447 90.9899 39.0776 91.141 39.821L92.5168 46.5786C92.6314 47.1419 92.5351 47.6599 92.2275 48.1329C91.9311 48.6038 91.5002 48.8967 90.9354 49.0114C90.3924 49.1218 89.8871 49.0193 89.4189 48.7039C88.94 48.3909 88.643 47.9528 88.5283 47.3895L87.1526 40.6319C86.96 39.6859 86.5219 38.8658 85.8385 38.1722C85.1418 37.4694 84.3366 37.029 83.4238 36.851C82.786 36.7224 82.1737 36.718 81.5863 36.8374C81.0324 36.9499 80.496 37.1765 79.9768 37.5165C78.914 38.19 78.2297 39.1383 77.9254 40.3615C77.7496 41.0305 77.7289 41.7502 77.8631 42.5205L79.2389 49.2782C79.3533 49.8415 79.2569 50.3595 78.9493 50.8325C78.642 51.3055 78.2111 51.5984 77.6572 51.7109C77.1142 51.8214 76.6089 51.7189 76.141 51.4035C75.6618 51.0905 75.3648 50.6524 75.2504 50.0891L72.499 36.5738ZM86.7324 34.9114C86.0641 34.1792 85.1525 33.7255 83.9975 33.5499C83.2581 33.4302 82.567 33.4359 81.9245 33.5668C81.6142 33.6299 81.3208 33.7187 81.0443 33.8336C80.8517 33.908 80.7645 33.99 80.7829 34.0803L80.7862 34.0972C80.8116 34.221 80.926 34.274 81.1302 34.256C83.0747 34.0599 84.8786 34.391 86.5415 35.2493C86.6595 35.3192 86.7519 35.3473 86.8183 35.3337C86.8515 35.3272 86.877 35.3103 86.8945 35.2831C86.9209 35.2425 86.9306 35.2055 86.9238 35.1717C86.9078 35.0929 86.8438 35.0061 86.7324 34.9114ZM75.6683 35.2256C75.3909 34.8832 75.0376 34.6795 74.6094 34.614C74.4073 34.5847 74.2176 34.588 74.0404 34.6241C73.8851 34.6558 73.747 34.7132 73.6255 34.7965C73.5238 34.864 73.4293 34.9946 73.3418 35.1883C73.3001 35.2674 73.2841 35.3293 73.2932 35.3743C73.3045 35.4306 73.3656 35.4474 73.4764 35.4249L73.5096 35.4181C73.7087 35.3189 73.8913 35.2526 74.0576 35.2188C74.5892 35.1107 75.0376 35.3011 75.4025 35.7898C75.4294 35.8079 75.4537 35.8147 75.4759 35.8102C75.5314 35.799 75.5841 35.7472 75.6342 35.6548C75.7136 35.533 75.7462 35.4386 75.7323 35.3707L75.729 35.3539C75.7222 35.3201 75.7021 35.2774 75.6683 35.2256Z" fill="white"/>
<path d="M97.5374 38.7424C97.6488 39.2897 97.5632 39.7974 97.2805 40.2653C96.9933 40.711 96.5905 40.9868 96.0722 41.0922C95.5639 41.1956 95.0906 41.0981 94.652 40.7996C94.209 40.4794 93.9316 40.0455 93.8201 39.4982L91.1529 26.396C91.0435 25.8597 91.1315 25.3633 91.4163 24.9063C91.6991 24.4384 92.0944 24.1529 92.603 24.0495C93.121 23.9441 93.602 24.0516 94.0451 24.3717C94.4861 24.6812 94.7611 25.1042 94.8701 25.6402L97.5374 38.7424ZM97.4123 47.676C96.9044 47.7794 96.4299 47.6763 95.9889 47.3671C95.5458 47.047 95.2696 46.6184 95.1603 46.0823C95.0512 45.546 95.1392 45.0493 95.424 44.5923C95.7068 44.1244 96.1021 43.8389 96.6101 43.7361C97.1287 43.6304 97.6094 43.7376 98.0525 44.058C98.4938 44.3672 98.7685 44.7902 98.8778 45.3265C98.9872 45.8629 98.9001 46.3649 98.6176 46.8328C98.3328 47.2895 97.931 47.5709 97.4123 47.676ZM94.1278 25.1758C93.8652 24.8415 93.5318 24.6359 93.1272 24.5583C92.9376 24.5287 92.7651 24.5296 92.6095 24.561C92.4539 24.5927 92.3199 24.6487 92.2064 24.7286C92.1324 24.7893 92.0986 24.8358 92.1054 24.8687L92.1155 24.9182C92.1264 24.9727 92.1735 24.9916 92.2565 24.9747C92.8996 24.8441 93.4968 24.9676 94.0489 25.3458C94.0972 25.3701 94.1316 25.3802 94.1524 25.376C94.1627 25.374 94.1722 25.3663 94.1799 25.3532C94.1986 25.3381 94.2066 25.3251 94.2045 25.3141C94.1959 25.2703 94.1698 25.2241 94.1278 25.1758ZM98.2795 44.6957C98.0172 44.3616 97.685 44.1611 97.2825 44.0948C97.0929 44.0648 96.9153 44.0669 96.7494 44.1007C96.6045 44.1303 96.4749 44.1848 96.3617 44.2651C96.2669 44.3299 96.1792 44.4558 96.0989 44.6433C96.06 44.7197 96.0452 44.7795 96.0541 44.8233C96.0654 44.8781 96.1229 44.895 96.2263 44.8737L96.2574 44.8675C96.4435 44.7727 96.6139 44.7096 96.7695 44.6779C97.2674 44.5766 97.6888 44.7644 98.0344 45.2415C98.0596 45.259 98.0824 45.2658 98.1032 45.2617C98.155 45.251 98.2042 45.2012 98.251 45.1118C98.3242 44.9945 98.3542 44.9027 98.3408 44.8373L98.3376 44.8207C98.3308 44.7878 98.3115 44.7463 98.2795 44.6957Z" fill="white"/>
<path d="M24.3386 9.31534L26.6372 5.65559C26.8067 5.37808 27.0494 5.20334 27.3653 5.13167C27.675 5.06148 27.9663 5.11479 28.239 5.2919C28.5105 5.46279 28.6815 5.70298 28.7517 6.01247C28.8249 6.3347 28.776 6.63117 28.6053 6.90246L26.3046 10.553L29.9573 12.8519C30.2302 13.0293 30.4024 13.2757 30.4744 13.5914C30.5447 13.9009 30.4952 14.1944 30.3254 14.4719C30.1547 14.7432 29.9143 14.9141 29.6046 14.9843C29.2887 15.056 28.9947 15.0065 28.7235 14.8356L25.0664 12.5175L22.751 16.1912C22.58 16.4625 22.3396 16.6334 22.0302 16.7036C21.714 16.7752 21.4203 16.7258 21.1488 16.5549C20.8762 16.3778 20.7046 16.1343 20.6341 15.8248C20.5623 15.5091 20.6112 15.2123 20.7807 14.9348L23.0814 11.2846L19.4285 8.98541C19.157 8.81452 18.9848 8.56811 18.9116 8.24588C18.8414 7.93638 18.8914 7.64614 19.0624 7.37485C19.232 7.09734 19.4747 6.9226 19.7909 6.85093C20.1006 6.78073 20.3916 6.83404 20.6646 7.01115L24.3386 9.31534ZM28.3709 5.7403C28.2085 5.55134 28.004 5.44176 27.7577 5.41125C27.6418 5.39763 27.5331 5.40237 27.432 5.42547C27.3437 5.44531 27.2651 5.47996 27.1964 5.52853C27.1389 5.56822 27.0817 5.63782 27.0245 5.73704C27.0106 5.79331 27.0064 5.83418 27.0124 5.85935C27.0195 5.89105 27.0547 5.89963 27.1179 5.88512L27.1368 5.88097C27.2497 5.82204 27.3535 5.78176 27.4483 5.76043C27.7518 5.69143 28.0105 5.79212 28.2248 6.06223C28.2402 6.072 28.2544 6.07556 28.2671 6.0726C28.2986 6.06549 28.3285 6.03557 28.3564 5.98256C28.4002 5.91296 28.418 5.85906 28.4094 5.82115L28.407 5.81167C28.4029 5.79272 28.3907 5.76902 28.3709 5.7403ZM19.181 7.89581C19.1754 7.93046 19.1751 7.95711 19.1792 7.97607L19.1813 7.98555C19.1899 8.02346 19.2293 8.06433 19.2989 8.10816C19.347 8.1437 19.3867 8.15792 19.4184 8.15081C19.4311 8.14785 19.4421 8.13867 19.4519 8.12326C19.5283 7.78711 19.7183 7.58453 20.0218 7.51582C20.1166 7.4942 20.2274 7.48561 20.3549 7.49006L20.3738 7.48561C20.437 7.4714 20.4648 7.4483 20.4577 7.4169C20.4521 7.39143 20.4307 7.35648 20.394 7.31176C20.2995 7.2469 20.2177 7.20899 20.1489 7.19803C20.0659 7.18352 19.98 7.18649 19.8917 7.20662C19.7906 7.22943 19.6904 7.27208 19.5917 7.33457C19.3828 7.46814 19.2459 7.65532 19.181 7.89581Z" fill="white"/>
<path d="M100.785 26.1317L100.954 26.9338L99.8585 27.1308L100.552 30.4387L99.5456 30.6198L98.8516 27.3119L97.7565 27.5088L97.5883 26.7067L100.785 26.1317ZM105.971 25.1988L106.834 29.3089L105.827 29.49L105.31 27.0251L104.902 29.6563L104.09 29.8024L102.641 27.499L103.16 29.9697L102.153 30.1508L101.291 26.0408L102.48 25.8268L104.237 28.4636L104.788 25.4117L105.971 25.1988Z" fill="white"/>
</svg>
