<svg width="20" height="21" viewBox="0 0 20 21" fill="none" xmlns="http://www.w3.org/2000/svg">
<path d="M15.4906 10.9C16.1271 10.9 16.7376 11.1529 17.1877 11.6029C17.6378 12.053 17.8906 12.6635 17.8906 13.3V14.1C17.8906 17.2536 14.9146 20.5 9.89062 20.5C4.86662 20.5 1.89062 17.2536 1.89062 14.1V13.3C1.89062 12.6635 2.14348 12.053 2.59357 11.6029C3.04366 11.1529 3.65411 10.9 4.29063 10.9H15.4906ZM9.89062 0.5C11.0576 0.5 12.1767 0.96357 13.0019 1.78873C13.8271 2.61389 14.2906 3.73305 14.2906 4.9C14.2906 6.06695 13.8271 7.18611 13.0019 8.01127C12.1767 8.83643 11.0576 9.3 9.89062 9.3C8.72367 9.3 7.60452 8.83643 6.77936 8.01127C5.9542 7.18611 5.49063 6.06695 5.49063 4.9C5.49063 3.73305 5.9542 2.61389 6.77936 1.78873C7.60452 0.96357 8.72367 0.5 9.89062 0.5Z" fill="#02215F"/>
</svg>
