<svg width="147" height="67" viewBox="0 0 147 67" fill="none" xmlns="http://www.w3.org/2000/svg">
<g filter="url(#filter0_d_21869_96876)">
<rect x="22" y="17" width="103" height="38" rx="19" fill="url(#paint0_linear_21869_96876)"/>
<path d="M43.8894 38.9995C45.3622 38.9995 46.5561 37.8056 46.5561 36.3328C46.5561 34.86 45.3622 33.666 43.8894 33.666C42.4166 33.666 41.2227 34.86 41.2227 36.3328C41.2227 37.8056 42.4166 38.9995 43.8894 38.9995Z" fill="white"/>
<path d="M53.849 36.1069C53.0648 34.0786 51.7035 32.3245 49.9334 31.0614C48.1632 29.7984 46.0617 29.0817 43.8887 29C41.7156 29.0817 39.6141 29.7984 37.844 31.0614C36.0738 32.3245 34.7125 34.0786 33.9284 36.1069C33.8754 36.2533 33.8754 36.4137 33.9284 36.5602C34.7125 38.5885 36.0738 40.3426 37.844 41.6056C39.6141 42.8687 41.7156 43.5854 43.8887 43.6671C46.0617 43.5854 48.1632 42.8687 49.9334 41.6056C51.7035 40.3426 53.0648 38.5885 53.849 36.5602C53.9019 36.4137 53.9019 36.2533 53.849 36.1069ZM43.8887 40.667C43.0316 40.667 42.1938 40.4128 41.4811 39.9367C40.7685 39.4605 40.2131 38.7837 39.8851 37.9919C39.5571 37.2 39.4713 36.3287 39.6385 35.4881C39.8057 34.6475 40.2184 33.8754 40.8245 33.2693C41.4305 32.6633 42.2026 32.2506 43.0433 32.0834C43.8839 31.9161 44.7552 32.002 45.547 32.33C46.3388 32.6579 47.0156 33.2134 47.4918 33.926C47.968 34.6386 48.2221 35.4765 48.2221 36.3335C48.2204 37.4823 47.7632 38.5835 46.9509 39.3958C46.1386 40.2081 45.0374 40.6652 43.8887 40.667Z" fill="white"/>
<path d="M76.8419 28.96L71.8619 43H67.5819L62.6019 28.96H66.2419L69.7219 39.56L73.2219 28.96H76.8419ZM79.9913 30.68C79.3913 30.68 78.8979 30.5067 78.5113 30.16C78.1379 29.8 77.9513 29.36 77.9513 28.84C77.9513 28.3067 78.1379 27.8667 78.5113 27.52C78.8979 27.16 79.3913 26.98 79.9913 26.98C80.5779 26.98 81.0579 27.16 81.4313 27.52C81.8179 27.8667 82.0113 28.3067 82.0113 28.84C82.0113 29.36 81.8179 29.8 81.4313 30.16C81.0579 30.5067 80.5779 30.68 79.9913 30.68ZM81.6913 31.84V43H78.2713V31.84H81.6913ZM94.6897 37.24C94.6897 37.56 94.6697 37.8933 94.6297 38.24H86.8897C86.943 38.9333 87.163 39.4667 87.5497 39.84C87.9497 40.2 88.4364 40.38 89.0097 40.38C89.863 40.38 90.4564 40.02 90.7897 39.3H94.4297C94.243 40.0333 93.903 40.6933 93.4097 41.28C92.9297 41.8667 92.323 42.3267 91.5897 42.66C90.8564 42.9933 90.0364 43.16 89.1297 43.16C88.0364 43.16 87.063 42.9267 86.2097 42.46C85.3564 41.9933 84.6897 41.3267 84.2097 40.46C83.7297 39.5933 83.4897 38.58 83.4897 37.42C83.4897 36.26 83.723 35.2467 84.1897 34.38C84.6697 33.5133 85.3364 32.8467 86.1897 32.38C87.043 31.9133 88.023 31.68 89.1297 31.68C90.2097 31.68 91.1697 31.9067 92.0097 32.36C92.8497 32.8133 93.503 33.46 93.9697 34.3C94.4497 35.14 94.6897 36.12 94.6897 37.24ZM91.1897 36.34C91.1897 35.7533 90.9897 35.2867 90.5897 34.94C90.1897 34.5933 89.6897 34.42 89.0897 34.42C88.5164 34.42 88.0297 34.5867 87.6297 34.92C87.243 35.2533 87.003 35.7267 86.9097 36.34H91.1897ZM112.514 31.84L109.494 43H105.714L103.954 35.76L102.134 43H98.3739L95.3339 31.84H98.7539L100.334 39.82L102.214 31.84H105.834L107.734 39.78L109.294 31.84H112.514Z" fill="white"/>
</g>
<defs>
<filter id="filter0_d_21869_96876" x="0" y="0" width="147" height="82" filterUnits="userSpaceOnUse" color-interpolation-filters="sRGB">
<feFlood flood-opacity="0" result="BackgroundImageFix"/>
<feColorMatrix in="SourceAlpha" type="matrix" values="0 0 0 0 0 0 0 0 0 0 0 0 0 0 0 0 0 0 127 0" result="hardAlpha"/>
<feOffset dy="5"/>
<feGaussianBlur stdDeviation="11"/>
<feColorMatrix type="matrix" values="0 0 0 0 0.278431 0 0 0 0 0.85098 0 0 0 0 1 0 0 0 0.3 0"/>
<feBlend mode="normal" in2="BackgroundImageFix" result="effect1_dropShadow_21869_96876"/>
<feBlend mode="normal" in="SourceGraphic" in2="effect1_dropShadow_21869_96876" result="shape"/>
</filter>
<linearGradient id="paint0_linear_21869_96876" x1="125" y1="36.3333" x2="22.0024" y2="35.8372" gradientUnits="userSpaceOnUse">
<stop stop-color="#1C94C3"/>
<stop offset="0.643523" stop-color="#2A6AC6"/>
<stop offset="0.763193" stop-color="#2C62C6"/>
<stop offset="1" stop-color="#3153C7"/>
</linearGradient>
</defs>
</svg>
