<svg width="20" height="18" viewBox="0 0 20 18" fill="none" xmlns="http://www.w3.org/2000/svg">
<path fill-rule="evenodd" clip-rule="evenodd" d="M19.1255 0.23456C19.791 0.669799 19.9776 1.561 19.5423 2.22653L9.7552 17.1951C9.64116 17.3695 9.49062 17.517 9.31397 17.6276C9.13732 17.7381 8.93878 17.8089 8.73206 17.8352C8.52535 17.8615 8.3154 17.8426 8.11671 17.7797C7.91803 17.7169 7.73535 17.6117 7.58131 17.4714L1.24847 11.7143C0.965992 11.4575 0.797109 11.0989 0.778971 10.7176C0.760832 10.3363 0.894924 9.96333 1.15175 9.68086C1.40857 9.39838 1.76708 9.2295 2.14842 9.21136C2.52976 9.19322 2.90269 9.32731 3.18516 9.58414L8.26986 14.206L17.1335 0.651376C17.3425 0.332003 17.6697 0.108681 18.0432 0.0305167C18.4168 -0.0476474 18.8061 0.0257465 19.1255 0.23456Z" fill="white"/>
</svg>
