<svg width="20" height="20" viewBox="0 0 20 20" fill="none" xmlns="http://www.w3.org/2000/svg">
<path d="M1.05493 9H3C4.10457 9 5 9.89543 5 11V12C5 13.1046 5.89543 14 7 14C8.10457 14 9 14.8954 9 16V18.9451M6 1.93552V3.5C6 4.88071 7.11929 6 8.5 6H9C10.1046 6 11 6.89543 11 8C11 9.10457 11.8954 10 13 10C14.1046 10 15 9.10457 15 8C15 6.89543 15.8954 6 17 6L18.0645 6M13 18.4879V16C13 14.8954 13.8954 14 15 14H18.0645M19 10C19 14.9706 14.9706 19 10 19C5.02944 19 1 14.9706 1 10C1 5.02944 5.02944 1 10 1C14.9706 1 19 5.02944 19 10Z" stroke="#545F71" stroke-width="2" stroke-linecap="round" stroke-linejoin="round"/>
</svg>
