<svg width="20" height="20" viewBox="0 0 20 20" fill="none" xmlns="http://www.w3.org/2000/svg">
<path d="M1.50559 14.9649C1.75935 15.2186 2.10349 15.3611 2.46232 15.3611C2.82115 15.3611 3.16529 15.2186 3.41905 14.9649L10.1175 8.26641L16.816 14.9649C17.0713 15.2114 17.4131 15.3478 17.7679 15.3447C18.1227 15.3416 18.4621 15.1993 18.713 14.9484C18.9639 14.6975 19.1062 14.3581 19.1093 14.0033C19.1124 13.6485 18.976 13.3067 18.7295 13.0514L11.0743 5.39621C10.8205 5.14252 10.4764 5 10.1175 5C9.75872 5 9.41458 5.14252 9.16081 5.39621L1.50559 13.0514C1.25189 13.3052 1.10938 13.6493 1.10938 14.0082C1.10938 14.367 1.25189 14.7111 1.50559 14.9649Z" fill="white"/>
</svg>
