<svg width="20" height="16" viewBox="0 0 20 16" fill="none" xmlns="http://www.w3.org/2000/svg">
<path d="M0 1.49669C0 1.25825 0.0852477 1.02958 0.23699 0.860978C0.388732 0.692376 0.594538 0.597656 0.809134 0.597656H11.0582C11.2728 0.597656 11.4786 0.692376 11.6303 0.860978C11.7821 1.02958 11.8673 1.25825 11.8673 1.49669C11.8673 1.73513 11.7821 1.96381 11.6303 2.13241C11.4786 2.30101 11.2728 2.39573 11.0582 2.39573H0.809134C0.594538 2.39573 0.388732 2.30101 0.23699 2.13241C0.0852477 1.96381 0 1.73513 0 1.49669ZM0 7.49028C0 7.25184 0.0852477 7.02317 0.23699 6.85457C0.388732 6.68596 0.594538 6.59124 0.809134 6.59124H6.74278C6.95738 6.59124 7.16319 6.68596 7.31493 6.85457C7.46667 7.02317 7.55192 7.25184 7.55192 7.49028C7.55192 7.72872 7.46667 7.95739 7.31493 8.126C7.16319 8.2946 6.95738 8.38932 6.74278 8.38932H0.809134C0.594538 8.38932 0.388732 8.2946 0.23699 8.126C0.0852477 7.95739 0 7.72872 0 7.49028ZM0 13.4839C0 13.2454 0.0852477 13.0168 0.23699 12.8482C0.388732 12.6795 0.594538 12.5848 0.809134 12.5848H4.58509C4.79969 12.5848 5.0055 12.6795 5.15724 12.8482C5.30898 13.0168 5.39423 13.2454 5.39423 13.4839C5.39423 13.7223 5.30898 13.951 5.15724 14.1196C5.0055 14.2882 4.79969 14.3829 4.58509 14.3829H0.809134C0.594538 14.3829 0.388732 14.2882 0.23699 14.1196C0.0852477 13.951 0 13.7223 0 13.4839Z" fill="white"/>
<path d="M16.2035 0.899038V12.5146L18.5985 9.85346C18.6726 9.76513 18.7619 9.69428 18.8612 9.64514C18.9604 9.596 19.0676 9.56958 19.1762 9.56745C19.2849 9.56532 19.3928 9.58753 19.4935 9.63275C19.5943 9.67796 19.6858 9.74526 19.7626 9.83064C19.8395 9.91601 19.9 10.0177 19.9407 10.1296C19.9814 10.2416 20.0014 10.3615 19.9995 10.4822C19.9976 10.6029 19.9738 10.722 19.9296 10.8323C19.8853 10.9425 19.8216 11.0418 19.7421 11.1241L15.9661 15.3196C15.8144 15.488 15.6088 15.5825 15.3943 15.5825C15.1799 15.5825 14.9743 15.488 14.8226 15.3196L11.0466 11.1241C10.9671 11.0418 10.9033 10.9425 10.8591 10.8323C10.8149 10.722 10.7911 10.6029 10.7892 10.4822C10.7873 10.3615 10.8073 10.2416 10.848 10.1296C10.8886 10.0177 10.9492 9.91601 11.0261 9.83064C11.1029 9.74526 11.1944 9.67796 11.2952 9.63275C11.3959 9.58753 11.5038 9.56532 11.6125 9.56745C11.7211 9.56958 11.8283 9.596 11.9275 9.64514C12.0268 9.69428 12.1161 9.76513 12.1902 9.85346L14.5852 12.5146V0.899038C14.5852 0.660598 14.6705 0.431924 14.8222 0.263322C14.9739 0.0947197 15.1797 0 15.3943 0C15.6089 0 15.8147 0.0947197 15.9665 0.263322C16.1182 0.431924 16.2035 0.660598 16.2035 0.899038Z" fill="white"/>
</svg>
