<svg width="26" height="33" viewBox="0 0 26 33" fill="none" xmlns="http://www.w3.org/2000/svg">
<path d="M-1.44837 17.9451C-1.44837 17.9451 -4.74942 22.1796 -5.49992 28.9801C-5.49992 28.9801 -6.17517 36.1363 -2.59379 37.9147C-2.59379 37.9147 0.323692 39.3315 1.53823 36.1776C1.53823 36.1776 -2.16567 24.2729 -0.156173 16.8229C-0.156173 16.8229 -0.170405 16.47 -0.370289 16.5081C-0.547516 16.5363 -0.871854 16.856 -1.44837 17.9451Z" fill="url(#paint0_linear_19708_41922)"/>
<path opacity="0.3" d="M-1.33987 17.74C-1.33987 17.74 -0.727425 31.5694 0.698185 36.5752C0.698185 36.5752 0.0496293 36.5957 0.0944971 37.1726C0.0944971 37.1726 -1.55787 28.6608 -1.98425 18.721L-1.33987 17.74Z" fill="#181D1B"/>
<path d="M24.9294 12.3755C24.9294 12.3755 29.489 15.2106 32.5403 21.3343C32.5403 21.3343 35.6438 27.8178 32.8961 30.7229C32.8961 30.7229 30.6469 33.0595 28.4185 30.5185C28.4185 30.5185 27.7864 18.067 23.3293 11.7682C23.3293 11.7682 23.2209 11.432 23.4216 11.3988C23.5977 11.3642 24.0125 11.5523 24.9294 12.3755Z" fill="url(#paint1_linear_19708_41922)"/>
<path opacity="0.3" d="M24.7568 12.2209C24.7568 12.2209 28.9546 25.4121 29.3441 30.6023C29.3441 30.6023 29.9599 30.3977 30.1169 30.9546C30.1169 30.9546 28.7302 22.3955 25.7001 12.9193L24.7568 12.2209Z" fill="#181D1B"/>
<path d="M12.5323 24.8913C13.5678 26.5525 13.7321 33.3023 13.7549 35.9136C13.766 36.4539 14.2379 36.8598 14.7571 36.7673L18.1689 36.1599C19.2403 35.9692 19.0051 34.3141 17.9217 34.437C17.7719 34.455 17.6302 34.4714 17.4901 34.4964C16.7717 34.6155 16.2484 33.8252 16.6103 33.1835C18.7794 29.3685 19.6727 24.6435 19.9203 23.1212C19.9917 22.6624 19.7011 22.2243 19.2574 22.1196C18.6022 21.9738 17.5989 22.0212 16.5605 22.206C14.2612 22.6154 11.7935 23.702 12.5323 24.8913Z" fill="url(#paint2_linear_19708_41922)"/>
<path d="M18.3618 0.310695C17.3167 1.32519 15.4946 4.78004 16.4984 5.85501C17.4952 6.93121 20.9399 5.22559 21.985 4.2111C23.022 3.19073 23.0556 1.49853 22.0506 0.416459C21.4167 -0.262467 20.5282 -0.529522 19.6994 -0.381964C19.2089 -0.294658 18.7438 -0.0652296 18.3618 0.310695Z" fill="url(#paint3_linear_19708_41922)"/>
<path d="M22.2853 2.39248C22.0647 1.15338 21.3321 0.520952 19.8748 0.780293C18.4174 1.03963 18.1909 2.95589 18.3288 3.73061C18.5012 4.69902 18.9589 5.14393 20.2531 4.91354C21.5473 4.68315 22.5059 3.63157 22.2853 2.39248Z" fill="url(#paint4_linear_19708_41922)"/>
<path d="M-3.05354 4.88566C-3.61647 6.24686 -3.00778 7.8247 -1.68242 8.42453C-0.351421 9.01602 3.47029 9.42804 4.03448 8.07394C4.60559 6.71861 1.70313 4.10484 0.372126 3.51335C-0.116163 3.29236 -0.631879 3.23754 -1.12229 3.32485C-1.95117 3.47241 -2.69285 4.02966 -3.05354 4.88566Z" fill="url(#paint5_linear_19708_41922)"/>
<path d="M-2.59112 6.82137C-2.81171 5.58227 -2.34244 4.7359 -0.885124 4.47636C0.572194 4.21682 1.44616 5.93716 1.58408 6.71188C1.75648 7.68028 1.48039 8.25584 0.186234 8.48623C-1.10793 8.71662 -2.37053 8.06047 -2.59112 6.82137Z" fill="url(#paint6_linear_19708_41922)"/>
<path fill-rule="evenodd" clip-rule="evenodd" d="M9.86543 -1.5144C10.0827 -0.293757 9.86598 0.765717 9.38131 0.852C8.89663 0.938284 8.32756 0.018704 8.11026 -1.20194C7.89296 -2.42258 8.1097 -3.48206 8.59438 -3.56834C9.07906 -3.65462 9.64812 -2.73504 9.86543 -1.5144Z" fill="url(#paint7_linear_19708_41922)"/>
<path d="M9.79435 -1.06856C9.27748 0.04397 9.22003 1.12681 9.66453 1.34801C10.109 1.56921 10.8892 0.848045 11.4084 -0.267966C11.9253 -1.38049 11.9827 -2.46333 11.5382 -2.68453C11.4599 -2.72269 11.3686 -2.734 11.2704 -2.71653C10.8229 -2.63686 10.2211 -1.98424 9.79435 -1.06856Z" fill="url(#paint8_linear_19708_41922)"/>
<path d="M6.13957 -1.72341C5.79874 -1.36243 6.22633 -0.366011 7.09532 0.49973C7.96773 1.36793 8.94876 1.77551 9.28959 1.41453C9.63042 1.05354 9.20283 0.0571265 8.33384 -0.808615C7.61731 -1.5207 6.82739 -1.92553 6.37988 -1.84587C6.28172 -1.82839 6.19987 -1.78624 6.13957 -1.72341Z" fill="url(#paint9_linear_19708_41922)"/>
<path d="M-0.790502 7.80994C-0.790502 7.80994 -2.62245 17.3871 0.294315 34.4447C0.294315 34.4447 1.32126 48.6318 17.3532 45.7469C17.3532 45.7469 29.3718 44.5632 29.8709 33.8974C29.8709 33.8974 29.2407 24.296 25.0364 12.8023C25.0364 12.8023 21.7506 4.78388 20.2287 2.46453C20.2287 2.46453 16.9504 -1.63903 9.12691 -0.462122C9.12691 -0.462122 9.03443 -0.476497 8.88916 -0.450637C7.55272 -0.212719 0.662264 1.32231 -0.790502 7.80994Z" fill="url(#paint10_linear_19708_41922)"/>
<ellipse cx="10.9658" cy="10.5334" rx="10.8076" ry="10.4488" transform="rotate(-10.0942 10.9658 10.5334)" fill="url(#paint11_linear_19708_41922)"/>
<path d="M22.4411 21.5143C22.89 24.0357 19.159 26.8091 14.1068 27.7085C9.0554 28.6077 4.48683 26.6803 4.14694 24.771C3.69752 22.2465 8.13202 23.4209 13.1835 22.5216C18.2356 21.6222 21.9917 18.9897 22.4411 21.5143Z" fill="#FFF8E1"/>
<path d="M13.1572 22.0592C8.10698 22.9583 3.66992 21.7846 4.11879 24.306C4.56766 26.8274 9.03068 28.1469 14.0809 27.2479C19.1311 26.3488 22.8646 23.5702 22.4157 21.0488C22.2364 20.0416 21.5283 19.8595 20.4278 20.0554C18.7669 20.3511 16.1954 21.5183 13.1572 22.0592Z" fill="url(#paint12_linear_19708_41922)"/>
<path d="M9.73409 27.4801C11.0658 27.5887 12.5447 27.5192 14.0845 27.2451C15.5969 26.9758 16.9918 26.5401 18.1907 25.9908C17.3162 25.5231 15.984 24.9528 15.3935 25.41C14.4816 26.1246 13.4778 26.2 12.6849 25.9438C12.4712 25.8721 12.2045 25.855 11.9062 25.908C11.252 26.0245 10.4484 26.4841 9.73409 27.4801Z" fill="url(#paint13_radial_19708_41922)"/>
<path opacity="0.3" d="M15.8669 29.3906C15.4466 29.5199 14.9965 29.631 14.5209 29.7156C14.1044 29.7898 13.6987 29.8382 13.3085 29.8651C9.64274 30.055 7.66761 28.6525 8.32994 28.7229C8.85993 28.6897 10.6016 29.1324 12.6909 29.0114C13.2332 28.9824 13.7967 28.9203 14.361 28.8174C14.9718 28.7114 15.5662 28.5607 16.1218 28.3828C18.0619 27.7733 19.4901 26.7949 19.9889 26.6473C20.5753 26.361 19.2595 28.2846 15.8669 29.3906Z" fill="#181D1B"/>
<path d="M5.05525 22.8317C5.05776 22.9157 5.06751 22.9984 5.08319 23.0864C5.23288 23.9273 5.87103 24.5149 6.50994 24.4011C7.14765 24.2876 7.54503 23.5157 7.39533 22.6748C7.3865 22.6252 7.37526 22.576 7.36161 22.5273C6.7079 22.5579 6.12853 22.601 5.64513 22.687C5.42814 22.7256 5.23122 22.7722 5.05525 22.8317Z" fill="url(#paint14_linear_19708_41922)"/>
<path d="M5.7937 24.1079C5.97032 24.2564 6.17224 24.3024 6.24559 24.2103C6.31841 24.1182 6.23539 23.9229 6.05906 23.7747C5.88297 23.6262 5.68047 23.5798 5.60765 23.6718C5.53406 23.7642 5.61761 23.9595 5.7937 24.1079Z" fill="white"/>
<path d="M7.89607 22.5858C8.0459 23.4265 8.68388 24.0141 9.32222 23.9008C9.90694 23.7964 10.2859 23.1475 10.2362 22.396C9.39477 22.4497 8.60409 22.4736 7.88563 22.5029C7.88578 22.5297 7.89043 22.5584 7.89607 22.5858Z" fill="url(#paint15_linear_19708_41922)"/>
<path d="M8.6062 23.607C8.78258 23.7557 8.98474 23.8014 9.05809 23.7093C9.13091 23.6172 9.04789 23.4219 8.87156 23.2738C8.69494 23.1253 8.49297 23.0788 8.41991 23.1711C8.34656 23.2632 8.43011 23.4585 8.6062 23.607Z" fill="white"/>
<path d="M12.1361 23.3998C12.6696 23.3048 13.0356 22.7501 13.052 22.078C12.2722 22.2124 11.5092 22.2963 10.7769 22.3562C11.0009 23.0472 11.5679 23.501 12.1361 23.3998Z" fill="url(#paint16_linear_19708_41922)"/>
<path d="M11.4188 23.1058C11.595 23.2542 11.7975 23.3 11.8702 23.2079C11.9433 23.116 11.8604 22.9205 11.684 22.7724C11.5075 22.6238 11.305 22.5774 11.2325 22.6698C11.1593 22.7619 11.2424 22.9572 11.4188 23.1058Z" fill="white"/>
<path d="M13.6291 21.9679C13.8749 22.5966 14.4127 22.9949 14.9481 22.8995C15.5237 22.7971 15.9049 22.1573 15.8615 21.4137C15.1571 21.6188 14.4092 21.8118 13.6291 21.9679Z" fill="url(#paint17_linear_19708_41922)"/>
<path d="M14.2297 22.6051C14.4056 22.7537 14.6081 22.7996 14.6809 22.7075C14.7542 22.6153 14.671 22.4201 14.4946 22.272C14.3182 22.1234 14.1159 22.0767 14.0429 22.1691C13.9696 22.2613 14.0527 22.4565 14.2297 22.6051Z" fill="white"/>
<path d="M16.3729 21.2601C16.5745 22.0041 17.1671 22.5046 17.7623 22.3983C18.4005 22.2844 18.7969 21.5129 18.6469 20.6726C18.6389 20.6272 18.6289 20.5835 18.6171 20.5415C17.9387 20.7559 17.1868 21.0119 16.3729 21.2601Z" fill="url(#paint18_linear_19708_41922)"/>
<path d="M17.0417 22.105C17.2184 22.2534 17.4203 22.2994 17.4936 22.2073C17.5665 22.1153 17.4834 21.92 17.3071 21.7718C17.1305 21.6234 16.9288 21.5765 16.8555 21.6692C16.7826 21.7612 16.8657 21.9565 17.0417 22.105Z" fill="white"/>
<path d="M19.1213 20.3851C19.1267 20.4507 19.1334 20.516 19.1453 20.583C19.295 21.4238 19.9343 22.0112 20.572 21.8976C21.2109 21.7839 21.6095 21.0118 21.4598 20.171C21.4499 20.1152 21.4389 20.0608 21.4246 20.0083C21.1433 19.965 20.8066 19.9879 20.4233 20.0561C20.0363 20.125 19.6005 20.2409 19.1213 20.3851Z" fill="url(#paint19_linear_19708_41922)"/>
<path d="M19.8562 21.604C20.0326 21.7528 20.2347 21.7985 20.3081 21.7063C20.3809 21.6143 20.2979 21.419 20.1216 21.2708C19.9455 21.1223 19.743 21.0759 19.6699 21.1682C19.5966 21.2603 19.6801 21.4555 19.8562 21.604Z" fill="white"/>
<path opacity="0.3" d="M10.8938 11.856C11.412 14.7666 9.53871 17.5342 6.70987 18.0378C3.88139 18.5414 1.16768 16.5904 0.649516 13.6797C0.131485 10.7698 2.00516 8.00213 4.83363 7.49859C7.66248 6.99499 10.3758 8.94607 10.8938 11.856Z" fill="#181D1B"/>
<path fill-rule="evenodd" clip-rule="evenodd" d="M10.56 11.9152C11.0446 14.6371 9.29262 17.2255 6.64687 17.6965C4.00113 18.1675 1.46351 16.3428 0.978946 13.6209C0.49438 10.8989 2.24636 8.31056 4.89211 7.83955C7.53785 7.36855 10.0755 9.19327 10.56 11.9152Z" fill="url(#paint20_radial_19708_41922)"/>
<path fill-rule="evenodd" clip-rule="evenodd" d="M8.34883 12.3089C8.60951 13.7732 7.66702 15.1656 6.24373 15.419C4.82044 15.6724 3.45532 14.6907 3.19465 13.2265C2.93397 11.7622 3.87646 10.3698 5.29975 10.1164C6.72304 9.86303 8.08816 10.8446 8.34883 12.3089Z" fill="url(#paint21_radial_19708_41922)"/>
<path d="M6.9765 12.5529C7.0985 13.2382 6.65799 13.889 5.99185 14.0076C5.32609 14.1261 4.68767 13.6674 4.56567 12.982C4.44373 12.2971 4.88455 11.6459 5.55031 11.5273C6.21645 11.4087 6.85456 11.8679 6.9765 12.5529Z" fill="#2D2A49"/>
<ellipse cx="5.53907" cy="11.4579" rx="1.45737" ry="1.15207" transform="rotate(-10.0942 5.53907 11.4579)" fill="url(#paint22_linear_19708_41922)"/>
<path opacity="0.3" d="M21.8313 9.9087C22.3495 12.8194 20.4762 15.587 17.6474 16.0906C14.8189 16.5941 12.1052 14.6431 11.587 11.7324C11.069 8.82253 12.9427 6.05486 15.7711 5.55133C18.6 5.04773 21.3133 6.9988 21.8313 9.9087Z" fill="#181D1B"/>
<path fill-rule="evenodd" clip-rule="evenodd" d="M21.4976 9.96792C21.9821 12.6898 20.2301 15.2782 17.5844 15.7492C14.9386 16.2202 12.401 14.3955 11.9164 11.6736C11.4319 8.95167 13.1839 6.36329 15.8296 5.89229C18.4754 5.42128 21.013 7.24601 21.4976 9.96792Z" fill="url(#paint23_radial_19708_41922)"/>
<path fill-rule="evenodd" clip-rule="evenodd" d="M19.2863 10.3616C19.547 11.8259 18.6045 13.2183 17.1812 13.4717C15.7579 13.7251 14.3928 12.7435 14.1321 11.2792C13.8715 9.81495 14.814 8.42253 16.2372 8.16915C17.6605 7.91577 19.0257 8.89738 19.2863 10.3616Z" fill="url(#paint24_radial_19708_41922)"/>
<path d="M17.914 10.6056C18.036 11.2909 17.5955 11.9417 16.9294 12.0603C16.2636 12.1788 15.6252 11.7201 15.5032 11.0348C15.3812 10.3498 15.822 9.69859 16.4878 9.58007C17.154 9.46148 17.7921 9.92066 17.914 10.6056Z" fill="#2D2A49"/>
<ellipse cx="16.4746" cy="9.51064" rx="1.45737" ry="1.15207" transform="rotate(-10.0942 16.4746 9.51064)" fill="url(#paint25_linear_19708_41922)"/>
<path opacity="0.2" d="M15.392 26.447C15.4204 26.6064 14.83 26.8445 14.0733 26.9793C13.3166 27.114 12.6806 27.0941 12.6522 26.9347C12.6239 26.7757 13.214 26.5376 13.9707 26.4029C14.7274 26.2682 15.3637 26.288 15.392 26.447Z" fill="white"/>
<defs>
<linearGradient id="paint0_linear_19708_41922" x1="-5.69292" y1="19.7738" x2="0.213732" y2="18.8259" gradientUnits="userSpaceOnUse">
<stop stop-color="#00BBF1"/>
<stop offset="1" stop-color="#1F81B3"/>
</linearGradient>
<linearGradient id="paint1_linear_19708_41922" x1="29.5443" y1="12.627" x2="23.6734" y2="13.7757" gradientUnits="userSpaceOnUse">
<stop stop-color="#00BBF1"/>
<stop offset="1" stop-color="#1F81B3"/>
</linearGradient>
<linearGradient id="paint2_linear_19708_41922" x1="11.4678" y1="23.1143" x2="19.7089" y2="21.6472" gradientUnits="userSpaceOnUse">
<stop stop-color="#3FA7F3"/>
<stop offset="1" stop-color="#0071BA"/>
</linearGradient>
<linearGradient id="paint3_linear_19708_41922" x1="22.1745" y1="-1.36926" x2="15.2673" y2="-0.139607" gradientUnits="userSpaceOnUse">
<stop stop-color="#00BBF1"/>
<stop offset="1" stop-color="#1F81B3"/>
</linearGradient>
<linearGradient id="paint4_linear_19708_41922" x1="18.2425" y1="3.24583" x2="22.3084" y2="2.522" gradientUnits="userSpaceOnUse">
<stop stop-color="#0F86C2"/>
<stop offset="1" stop-color="#02A2E1"/>
</linearGradient>
<linearGradient id="paint5_linear_19708_41922" x1="-3.78617" y1="3.25212" x2="3.12108" y2="2.02247" gradientUnits="userSpaceOnUse">
<stop stop-color="#00BBF1"/>
<stop offset="1" stop-color="#1F81B3"/>
</linearGradient>
<linearGradient id="paint6_linear_19708_41922" x1="1.49777" y1="6.22709" x2="-2.56815" y2="6.95092" gradientUnits="userSpaceOnUse">
<stop stop-color="#0F86C2"/>
<stop offset="1" stop-color="#02A2E1"/>
</linearGradient>
<linearGradient id="paint7_linear_19708_41922" x1="7.71698" y1="-3.41238" x2="9.47215" y2="-3.72484" gradientUnits="userSpaceOnUse">
<stop stop-color="#00BBF1"/>
<stop offset="1" stop-color="#1F81B3"/>
</linearGradient>
<linearGradient id="paint8_linear_19708_41922" x1="8.82498" y1="-2.28031" x2="11.7123" y2="-2.79432" gradientUnits="userSpaceOnUse">
<stop stop-color="#00BBF1"/>
<stop offset="1" stop-color="#1F81B3"/>
</linearGradient>
<linearGradient id="paint9_linear_19708_41922" x1="5.9383" y1="-1.7664" x2="8.82542" y2="-2.28037" gradientUnits="userSpaceOnUse">
<stop stop-color="#00BBF1"/>
<stop offset="1" stop-color="#1F81B3"/>
</linearGradient>
<linearGradient id="paint10_linear_19708_41922" x1="-5.49135" y1="2.11364" x2="23.5617" y2="-3.05848" gradientUnits="userSpaceOnUse">
<stop stop-color="#00BBF1"/>
<stop offset="1" stop-color="#1F81B3"/>
</linearGradient>
<linearGradient id="paint11_linear_19708_41922" x1="10.9658" y1="0.0846539" x2="10.9658" y2="12.896" gradientUnits="userSpaceOnUse">
<stop stop-color="white" stop-opacity="0.38"/>
<stop offset="1" stop-color="white" stop-opacity="0"/>
</linearGradient>
<linearGradient id="paint12_linear_19708_41922" x1="21.8914" y1="18.1037" x2="23.1279" y2="25.0497" gradientUnits="userSpaceOnUse">
<stop stop-color="#600700"/>
<stop offset="1" stop-color="#AE1722"/>
</linearGradient>
<radialGradient id="paint13_radial_19708_41922" cx="0" cy="0" r="1" gradientUnits="userSpaceOnUse" gradientTransform="translate(13.9053 26.4145) rotate(-10.0942) scale(3.09097 1.14469)">
<stop stop-color="#FD721B"/>
<stop offset="1" stop-color="#BC1A21"/>
</radialGradient>
<linearGradient id="paint14_linear_19708_41922" x1="5.70068" y1="24.4454" x2="5.4799" y2="23.2052" gradientUnits="userSpaceOnUse">
<stop stop-color="#D9DADB"/>
<stop offset="0.16" stop-color="#D9DADB"/>
<stop offset="0.82" stop-color="white"/>
<stop offset="1" stop-color="white"/>
</linearGradient>
<linearGradient id="paint15_linear_19708_41922" x1="8.4459" y1="23.9175" x2="8.31456" y2="22.8128" gradientUnits="userSpaceOnUse">
<stop stop-color="#D9DADB"/>
<stop offset="0.16" stop-color="#D9DADB"/>
<stop offset="0.82" stop-color="white"/>
<stop offset="1" stop-color="white"/>
</linearGradient>
<linearGradient id="paint16_linear_19708_41922" x1="11.3417" y1="23.4726" x2="11.1897" y2="22.6191" gradientUnits="userSpaceOnUse">
<stop stop-color="#D9DADB"/>
<stop offset="0.16" stop-color="#D9DADB"/>
<stop offset="0.82" stop-color="white"/>
<stop offset="1" stop-color="white"/>
</linearGradient>
<linearGradient id="paint17_linear_19708_41922" x1="14.1738" y1="22.9667" x2="14.0174" y2="22.0882" gradientUnits="userSpaceOnUse">
<stop stop-color="#D9DADB"/>
<stop offset="0.16" stop-color="#D9DADB"/>
<stop offset="0.82" stop-color="white"/>
<stop offset="1" stop-color="white"/>
</linearGradient>
<linearGradient id="paint18_linear_19708_41922" x1="16.9203" y1="22.4945" x2="16.6701" y2="21.3745" gradientUnits="userSpaceOnUse">
<stop stop-color="#D9DADB"/>
<stop offset="0.16" stop-color="#D9DADB"/>
<stop offset="0.82" stop-color="white"/>
<stop offset="1" stop-color="white"/>
</linearGradient>
<linearGradient id="paint19_linear_19708_41922" x1="19.7638" y1="21.9417" x2="19.543" y2="20.7016" gradientUnits="userSpaceOnUse">
<stop stop-color="#D9DADB"/>
<stop offset="0.16" stop-color="#D9DADB"/>
<stop offset="0.82" stop-color="white"/>
<stop offset="1" stop-color="white"/>
</linearGradient>
<radialGradient id="paint20_radial_19708_41922" cx="0" cy="0" r="1" gradientUnits="userSpaceOnUse" gradientTransform="translate(5.76988 12.7674) rotate(-10.0942) scale(4.86586 5.00596)">
<stop stop-color="white"/>
<stop offset="0.56" stop-color="white"/>
<stop offset="0.96" stop-color="#DBDBDB"/>
<stop offset="1" stop-color="#C4C4C4"/>
</radialGradient>
<radialGradient id="paint21_radial_19708_41922" cx="0" cy="0" r="1" gradientUnits="userSpaceOnUse" gradientTransform="translate(5.77165 12.7678) rotate(-10.0942) scale(2.61761 2.69297)">
<stop stop-color="white"/>
<stop offset="0.72" stop-color="#8DD5B3"/>
<stop offset="1" stop-color="#00A156"/>
</radialGradient>
<linearGradient id="paint22_linear_19708_41922" x1="5.54173" y1="10.3058" x2="5.54173" y2="11.4342" gradientUnits="userSpaceOnUse">
<stop stop-color="white"/>
<stop offset="1" stop-color="#999999" stop-opacity="0.1"/>
</linearGradient>
<radialGradient id="paint23_radial_19708_41922" cx="0" cy="0" r="1" gradientUnits="userSpaceOnUse" gradientTransform="translate(16.7073 10.8202) rotate(-10.0942) scale(4.86587 5.00596)">
<stop stop-color="white"/>
<stop offset="0.56" stop-color="white"/>
<stop offset="0.96" stop-color="#DBDBDB"/>
<stop offset="1" stop-color="#C4C4C4"/>
</radialGradient>
<radialGradient id="paint24_radial_19708_41922" cx="0" cy="0" r="1" gradientUnits="userSpaceOnUse" gradientTransform="translate(16.7092 10.8204) rotate(-10.0942) scale(2.61761 2.69297)">
<stop stop-color="white"/>
<stop offset="0.72" stop-color="#8DD5B3"/>
<stop offset="1" stop-color="#00A156"/>
</radialGradient>
<linearGradient id="paint25_linear_19708_41922" x1="16.4773" y1="8.35857" x2="16.4773" y2="9.48695" gradientUnits="userSpaceOnUse">
<stop stop-color="white"/>
<stop offset="1" stop-color="#999999" stop-opacity="0.1"/>
</linearGradient>
</defs>
</svg>
