<svg width="27" height="32" viewBox="0 0 27 32" fill="none" xmlns="http://www.w3.org/2000/svg">
<path d="M30.0157 -3.44273C26.8293 -4.72988 26.7562 1.28214 23.1703 8.22987C19.5425 15.2572 19.3293 15.3151 23.4491 17.4414C29.9441 20.793 34.6285 -1.57898 30.0157 -3.44273Z" fill="#FF122F"/>
<path opacity="0.2" d="M29.7107 -2.09358C27.0303 -3.1761 26.969 1.88099 23.9517 7.72538C20.9013 13.6368 20.7211 13.6853 24.1863 15.4734C29.6502 18.2932 33.5909 -0.525979 29.7107 -2.09358Z" fill="white"/>
<path d="M-11.0071 20.2424C-10.5289 16.8395 -5.28609 19.7823 2.52431 20.1504C10.4241 20.5223 10.5806 20.3668 10.3618 24.9979C10.0171 32.2984 -11.7 25.1694 -11.0071 20.2424Z" fill="#FF122F"/>
<path opacity="0.2" d="M-9.68695 20.6536C-9.28427 17.7911 -4.87405 20.2665 1.69599 20.5757C8.34115 20.8893 8.47272 20.7578 8.28867 24.6528C7.99923 30.7943 -10.2695 24.7977 -9.68695 20.6536Z" fill="white"/>
<path d="M29.0424 10.1594C24.5953 2.45667 13.3877 -2.53462 5.68408 1.91309C-2.01905 6.36049 -3.3005 18.5623 1.14667 26.265C4.22622 31.5989 10.2743 35.159 15.0877 33.3347C17.2254 32.5248 17.5876 28.001 19.9563 26.6334C22.469 25.1827 26.6893 27.0493 28.512 25.5033C29.2022 24.9175 29.7579 24.2053 30.187 23.4011C32.0966 19.8171 31.4897 14.3982 29.0424 10.1594Z" fill="#FF122F"/>
<path d="M-9.03449 8.75561C-8.88921 8.85942 -8.72529 8.95524 -8.55114 9.04654C-8.55162 9.04751 -8.55199 9.04807 -8.55289 9.04893C-4.11784 11.55 0.49093 12.7552 3.7319 10.884C6.15112 9.48727 7.5199 6.59084 8.06133 3.08587C7.09016 2.46322 3.80702 0.869052 1.4293 1.07929C2.32746 1.41625 2.6 1.52533 3.23791 2.07014C0.520582 2.13265 -2.9675 2.91839 -5.62158 5.19314C-3.24668 4.08322 -2.43043 4.2777 -1.78872 4.40123C-3.02179 5.14818 -6.21345 5.35064 -8.58559 7.8529C-8.13982 7.60281 -6.33111 6.54884 -5.57979 6.69755C-5.76408 6.9108 -8.53032 7.796 -9.03449 8.75561Z" fill="#FF122F"/>
<path d="M-7.26306 10.9907C-7.1065 10.9458 -6.93712 10.9128 -6.75935 10.8872C-6.75928 10.8861 -6.75958 10.8856 -6.75962 10.8849C-2.18955 10.0761 2.13769 10.4343 4.35775 13.0242C6.01473 14.9567 6.31486 17.8617 5.71929 21.0385C4.69547 21.2796 1.39006 21.657 -0.590512 20.7571C0.284208 20.7391 0.550998 20.7277 1.26448 20.4521C-1.05267 19.5762 -3.81377 17.8454 -5.40713 15.0862C-3.70109 16.7594 -2.94073 16.839 -2.35109 16.927C-3.18546 15.9121 -5.86818 14.772 -7.15006 11.9027C-6.84247 12.2528 -5.60675 13.7063 -4.91547 13.8057C-5.00977 13.5666 -7.12014 11.9684 -7.26306 10.9907Z" fill="#FF122F"/>
<path d="M18.9695 -7.41248C18.9865 -7.23461 18.9873 -7.04459 18.9795 -6.84827C18.9804 -6.84806 18.9815 -6.8484 18.9825 -6.84859C18.9312 -1.75737 17.6705 2.83656 14.4296 4.70773C12.0104 6.10447 8.81732 5.8418 5.51095 4.55835C5.45783 3.40568 5.71881 -0.234691 7.08948 -2.18858C6.93195 -1.24213 6.89067 -0.951857 7.04353 -0.127014C8.45633 -2.44903 10.8808 -5.07693 14.1779 -6.23805C12.0292 -4.73629 11.7895 -3.93215 11.5754 -3.3145C12.8385 -4.00875 14.6099 -6.67172 17.9633 -7.47508C17.5238 -7.21407 15.7064 -6.17452 15.4598 -5.44966C15.7367 -5.50262 17.8861 -7.45551 18.9695 -7.41248Z" fill="#FF122F"/>
<path d="M20.0182 -4.75957C19.9012 -4.64661 19.7878 -4.51623 19.6772 -4.37539C19.6762 -4.37587 19.6759 -4.37639 19.6751 -4.37661C16.6896 -0.823249 14.8365 3.10321 15.9694 6.32079C16.8142 8.72218 19.1799 10.4346 22.2292 11.5071C22.9496 10.7411 24.9294 8.06708 25.1401 5.90206C24.6872 6.65062 24.5441 6.87579 23.9482 7.35619C24.3487 4.91123 24.2299 1.65496 22.6373 -1.10467C23.2335 1.20922 22.922 1.90769 22.7037 2.46219C22.2415 1.23245 22.596 -1.66121 20.752 -4.20599C20.9014 -3.76457 21.5423 -1.9677 21.2827 -1.31932C21.1221 -1.52006 20.7936 -4.14711 20.0182 -4.75957Z" fill="#FF122F"/>
<path opacity="0.2" d="M20.8228 4.92252C20.7373 3.56894 20.3999 2.13841 19.6536 0.845778C20.1254 2.67744 19.879 3.23013 19.7057 3.66912C19.3404 2.69564 19.621 0.405284 18.1614 -1.60827C18.2795 -1.25905 18.7865 0.163034 18.5814 0.676222C18.4548 0.516916 18.1946 -1.56221 17.5812 -2.04724C17.488 -1.95738 17.3983 -1.85386 17.3103 -1.74237L17.3094 -1.74394C17.0408 -1.4244 16.7839 -1.10126 16.5407 -0.775578C16.6808 -1.70713 16.7508 -2.69113 16.7609 -3.69994C16.7597 -3.6996 16.7596 -3.69986 16.7586 -3.69967C16.7652 -3.8554 16.7643 -4.00543 16.7507 -4.14609C15.8931 -4.18033 14.1917 -2.63462 13.9727 -2.59253C14.1677 -3.16649 15.6065 -3.9892 15.9545 -4.19532C13.3003 -3.56008 11.8985 -1.45221 10.8987 -0.902738C11.0681 -1.39184 11.2573 -2.02805 12.9584 -3.21663C10.3487 -2.29762 8.42955 -0.217499 7.3113 1.62014C7.1911 0.967252 7.22363 0.737544 7.34815 -0.0118882C6.74247 0.851243 6.41132 2.12796 6.2436 3.24786C5.18961 2.83331 3.91759 2.48219 2.86778 2.57486C3.5788 2.84188 3.79452 2.92827 4.29932 3.35911C2.14875 3.40872 -0.612016 4.03057 -2.71326 5.83141C-0.833085 4.95231 -0.187253 5.10642 0.321256 5.20416C-0.65476 5.79541 -3.1814 5.95564 -5.05835 7.93644C-4.70585 7.73812 -3.27448 6.90375 -2.67942 7.02159C-2.82585 7.19044 -5.01517 7.89104 -5.41383 8.65061C-5.29905 8.73283 -5.16932 8.80849 -5.03119 8.88069C-5.03156 8.88125 -5.03193 8.88181 -5.03256 8.88252C-4.15382 9.37813 -3.26668 9.80957 -2.39014 10.1542C-2.79381 10.202 -3.20207 10.2628 -3.61286 10.3355C-3.61297 10.336 -3.61267 10.3365 -3.61222 10.3373C-3.753 10.3578 -3.88727 10.3837 -4.01115 10.4191C-3.89809 11.193 -2.22784 12.458 -2.15295 12.6472C-2.70018 12.5684 -3.67822 11.4182 -3.9219 11.1416C-2.90709 13.4119 -0.783552 14.3142 -0.123674 15.1176C-0.589983 15.0479 -1.19185 14.985 -2.54244 13.6607C-1.72539 15.0758 -0.519903 16.1488 0.726164 16.9177C0.820378 20.252 1.69621 23.6253 3.29411 26.393C7.49191 33.6638 12.8049 30.0541 19.6485 26.1029C26.4924 22.1516 32.275 19.3552 28.0772 12.0845C26.4172 9.20933 23.8014 6.68278 20.8228 4.92252Z" fill="white"/>
<ellipse opacity="0.9" cx="14.3593" cy="16.3976" rx="14.8391" ry="9.19222" transform="rotate(-30 14.3593 16.3976)" fill="url(#paint0_radial_18821_11904)"/>
<path d="M26.848 12.367C27.5937 13.6586 27.1512 15.3104 25.8592 16.0563L8.05928 26.3331C6.76732 27.079 5.11557 26.6363 4.36987 25.3447C3.62417 24.0531 4.06663 22.4013 5.3586 21.6554L23.1586 11.3786C24.4505 10.6327 26.1023 11.0754 26.848 12.367Z" fill="white"/>
<path d="M9.7578 11.0161C11.0209 13.2038 10.2718 16.0012 8.08394 17.2644C5.8958 18.5277 3.09838 17.7779 1.83532 15.5902C0.572103 13.4022 1.32155 10.6049 3.50969 9.34158C5.69757 8.0784 8.49458 8.82817 9.7578 11.0161Z" fill="#DA4854"/>
<path fill-rule="evenodd" clip-rule="evenodd" d="M9.5003 11.1638C10.6816 13.2099 9.98042 15.8263 7.93416 17.0077C5.88789 18.1891 3.27143 17.4882 2.09012 15.4421C0.908812 13.396 1.61 10.7796 3.65626 9.59817C5.70253 8.41676 8.31899 9.11772 9.5003 11.1638Z" fill="url(#paint1_radial_18821_11904)"/>
<path fill-rule="evenodd" clip-rule="evenodd" d="M7.79136 12.1524C8.42685 13.2531 8.04964 14.6607 6.94883 15.2962C5.84802 15.9318 4.44046 15.5547 3.80497 14.454C3.16947 13.3532 3.54668 11.9457 4.64749 11.3102C5.7483 10.6746 7.15586 11.0517 7.79136 12.1524Z" fill="url(#paint2_radial_18821_11904)"/>
<path d="M6.72738 12.765C7.02467 13.2799 6.84824 13.9382 6.33354 14.2354C5.81831 14.5329 5.15997 14.3565 4.86268 13.8416C4.5654 13.3267 4.74182 12.6683 5.25705 12.3709C5.77175 12.0737 6.43009 12.2501 6.72738 12.765Z" fill="#2E2A49"/>
<ellipse cx="5.23093" cy="12.3176" rx="1.28134" ry="0.984699" transform="rotate(-30 5.23093 12.3176)" fill="url(#paint3_radial_18821_11904)"/>
<path d="M19.453 5.41918C20.7162 7.60713 19.9671 10.4046 17.7785 11.6682C15.5906 12.9314 12.7932 12.1815 11.5299 9.99353C10.2667 7.80558 11.0162 5.00826 13.2041 3.74509C15.3927 2.48146 18.1897 3.23123 19.453 5.41918Z" fill="#DA4854"/>
<path fill-rule="evenodd" clip-rule="evenodd" d="M19.1959 5.56712C20.3772 7.61326 19.676 10.2297 17.6297 11.4112C15.5834 12.5926 12.9668 11.8916 11.7855 9.84549C10.6042 7.79935 11.3054 5.18288 13.3517 4.00144C15.398 2.82 18.0145 3.52098 19.1959 5.56712Z" fill="url(#paint4_radial_18821_11904)"/>
<path fill-rule="evenodd" clip-rule="evenodd" d="M17.4828 6.55574C18.1183 7.65645 17.741 9.06397 16.6402 9.69953C15.5394 10.3351 14.1319 9.95799 13.4964 8.85728C12.8609 7.75656 13.2381 6.34904 14.3389 5.71349C15.4397 5.07793 16.8473 5.45502 17.4828 6.55574Z" fill="url(#paint5_radial_18821_11904)"/>
<path d="M16.4225 7.16806C16.72 7.68324 16.5436 8.34156 16.0288 8.63873C15.5139 8.93604 14.8558 8.75952 14.5584 8.24434C14.2611 7.72942 14.4372 7.07125 14.9522 6.77393C15.4669 6.47677 16.1253 6.65314 16.4225 7.16806Z" fill="#2E2A49"/>
<ellipse cx="14.9223" cy="6.72187" rx="1.28134" ry="0.984699" transform="rotate(-30 14.9223 6.72187)" fill="url(#paint6_radial_18821_11904)"/>
<path d="M5.29312 21.5487C4.00417 22.2929 3.56454 23.9486 4.30865 25.2375C5.05556 26.5312 6.70647 26.9734 7.99543 26.2293L25.7985 15.9507C27.0874 15.2065 27.5298 13.5556 26.7829 12.2619C26.0388 10.9731 24.3851 10.526 23.0962 11.2701L5.29312 21.5487Z" fill="url(#paint7_linear_18821_11904)"/>
<path d="M5.13672 21.6416L5.36175 22.0314C5.5653 22.3839 6.01667 22.5053 6.36926 22.3017C6.72237 22.0979 6.8427 21.6464 6.63915 21.2939L6.41411 20.9041L5.13672 21.6416Z" fill="#EDDD9A"/>
<path d="M5.23633 21.584L5.42621 21.9129C5.59776 22.21 5.97824 22.3119 6.27566 22.1402C6.57335 21.9683 6.67531 21.5879 6.50376 21.2907L6.31388 20.9619L5.23633 21.584Z" fill="white"/>
<rect width="1.47501" height="0.434141" transform="matrix(-0.866025 0.5 0.5 0.866025 6.41406 20.9043)" fill="#E66D28"/>
<path d="M6.81471 20.6727C6.81516 20.6735 6.81581 20.6752 6.81641 20.6762L7.03949 21.0626C7.24304 21.4152 7.69466 21.5364 8.04725 21.3328C8.39984 21.1293 8.52068 20.6775 8.31713 20.325L8.09405 19.9386C8.09345 19.9375 8.09229 19.9361 8.09184 19.9354L6.81471 20.6727Z" fill="#EDDD9A"/>
<path d="M6.91602 20.6152L7.1059 20.9441C7.27745 21.2413 7.65766 21.3433 7.95508 21.1716C8.2525 20.9999 8.35472 20.6193 8.18317 20.3222L7.99329 19.9933L6.91602 20.6152Z" fill="white"/>
<rect width="1.47499" height="0.434141" transform="matrix(-0.866025 0.5 0.5 0.866025 8.0918 19.9355)" fill="#E66D28"/>
<path d="M8.49219 19.7041L8.71722 20.0939C8.92077 20.4464 9.37214 20.5678 9.72525 20.3639C10.0778 20.1603 10.1984 19.7088 9.99488 19.3562L9.76985 18.9664L8.49219 19.7041Z" fill="#EDDD9A"/>
<path d="M8.59206 19.6463C8.59225 19.6473 8.59285 19.6483 8.59345 19.6493L8.78168 19.9754C8.95323 20.2725 9.3337 20.3744 9.63113 20.2027C9.92855 20.031 10.0305 19.6505 9.85896 19.3534L9.67074 19.0274C9.67014 19.0263 9.66927 19.0254 9.66882 19.0247L8.59206 19.6463Z" fill="white"/>
<rect width="1.47532" height="0.43384" transform="matrix(0.866025 -0.5 -0.5 -0.866025 8.70898 20.0801)" fill="#E66D28"/>
<path d="M10.1719 18.7354L10.3969 19.1251C10.6005 19.4777 11.0518 19.599 11.4049 19.3952C11.7575 19.1916 11.8781 18.74 11.6746 18.3875L11.4495 17.9977L10.1719 18.7354Z" fill="#EDDD9A"/>
<path d="M10.2715 18.6777L10.4614 19.0066C10.6329 19.3038 11.0134 19.4057 11.3111 19.2338C11.6085 19.0621 11.7105 18.6816 11.5389 18.3845L11.3491 18.0556L10.2715 18.6777Z" fill="white"/>
<rect width="1.4753" height="0.43384" transform="matrix(0.866025 -0.5 -0.5 -0.866025 10.3887 19.1113)" fill="#E66D28"/>
<path d="M11.8477 17.7666L12.0727 18.1564C12.2762 18.5089 12.7276 18.6303 13.0802 18.4267C13.4333 18.2229 13.5536 17.7714 13.3501 17.4189L13.1251 17.0291L11.8477 17.7666Z" fill="#EDDD9A"/>
<path d="M11.9492 17.709L12.1391 18.0379C12.3107 18.335 12.6911 18.4369 12.9885 18.2652C13.2862 18.0934 13.3882 17.7129 13.2166 17.4158L13.0268 17.0869L11.9492 17.709Z" fill="white"/>
<rect width="1.47501" height="0.433842" transform="matrix(0.866025 -0.5 -0.5 -0.866025 12.0645 18.1426)" fill="#E66D28"/>
<path d="M13.5259 16.7976C13.5264 16.7983 13.5267 16.8002 13.5273 16.8012L13.7504 17.1876C13.954 17.5402 14.4059 17.6612 14.7582 17.4578C15.1116 17.2538 15.2319 16.8024 15.0283 16.4498L14.8033 16.0601L13.5259 16.7976Z" fill="#EDDD9A"/>
<path d="M13.6275 16.7399C13.6279 16.7407 13.628 16.7421 13.6286 16.7431L13.8168 17.0691C13.9884 17.3663 14.3691 17.468 14.6663 17.2965C14.9642 17.1245 15.0662 16.744 14.8946 16.4468L14.7048 16.118L13.6275 16.7399Z" fill="white"/>
<rect width="1.47501" height="0.434141" transform="matrix(-0.866025 0.5 0.5 0.866025 14.8047 16.0605)" fill="#E66D28"/>
<path d="M15.2051 15.8291L15.4301 16.2189C15.6337 16.5714 16.085 16.6928 16.4381 16.4889C16.7907 16.2854 16.9116 15.8336 16.708 15.4811L16.4849 15.0947C16.4843 15.0936 16.4829 15.0924 16.4825 15.0916L15.2051 15.8291Z" fill="#EDDD9A"/>
<path d="M15.3052 15.7712C15.3051 15.7723 15.3057 15.7733 15.3063 15.7743L15.4946 16.1004C15.6661 16.3975 16.0466 16.4994 16.3443 16.3276C16.6417 16.1559 16.7437 15.7754 16.5721 15.4783L16.3822 15.1494L15.3052 15.7712Z" fill="white"/>
<rect width="1.47558" height="0.43384" transform="matrix(0.866025 -0.5 -0.5 -0.866025 15.4219 16.2051)" fill="#E66D28"/>
<path d="M16.8848 14.8604L17.1098 15.2501C17.3133 15.6027 17.7647 15.724 18.1173 15.5205C18.4704 15.3166 18.5907 14.8652 18.3872 14.5126L18.1622 14.1228L16.8848 14.8604Z" fill="#EDDD9A"/>
<path d="M16.9844 14.8018L17.1743 15.1306C17.3458 15.4278 17.7263 15.5297 18.0234 15.3581C18.3214 15.1861 18.4233 14.8057 18.2518 14.5085L18.0619 14.1796L16.9844 14.8018Z" fill="white"/>
<rect width="1.47499" height="0.434141" transform="matrix(-0.866025 0.5 0.5 0.866025 18.1582 14.123)" fill="#E66D28"/>
<path d="M18.5605 13.8906L18.7856 14.2804C18.9891 14.6329 19.4405 14.7543 19.7931 14.5507C20.1465 14.3467 20.2668 13.8953 20.0632 13.5427L19.8382 13.153L18.5605 13.8906Z" fill="#EDDD9A"/>
<path d="M18.6602 13.833L18.85 14.1619C19.0216 14.459 19.4021 14.561 19.6992 14.3894C19.9972 14.2174 20.0991 13.8369 19.9276 13.5398L19.7377 13.2109L18.6602 13.833Z" fill="white"/>
<rect width="1.47501" height="0.43384" transform="matrix(0.866025 -0.5 -0.5 -0.866025 18.7773 14.2666)" fill="#E66D28"/>
<path d="M20.2402 12.9219L20.4653 13.3116C20.6688 13.6642 21.1202 13.7856 21.4725 13.5821C21.8254 13.3784 21.9462 12.9267 21.7427 12.5741L21.5196 12.1878C21.519 12.1867 21.5176 12.1855 21.5171 12.1847L20.2402 12.9219Z" fill="#EDDD9A"/>
<path d="M20.3398 12.8643L20.5297 13.1931C20.7013 13.4903 21.0818 13.5922 21.3789 13.4206C21.6763 13.2489 21.7788 12.8682 21.6073 12.571L21.419 12.245C21.4184 12.244 21.4173 12.2432 21.4169 12.2424L20.3398 12.8643Z" fill="white"/>
<rect width="1.47501" height="0.434141" transform="matrix(-0.866025 0.5 0.5 0.866025 21.5156 12.1846)" fill="#E66D28"/>
<path d="M21.9185 11.9528C21.9189 11.9536 21.9193 11.9555 21.9199 11.9565L22.143 12.3429C22.3466 12.6955 22.7984 12.8165 23.151 12.6129C23.5036 12.4094 23.6239 11.9579 23.4204 11.6054L23.1954 11.2156L21.9185 11.9528Z" fill="#EDDD9A"/>
<path d="M22.0176 11.8955L22.2075 12.2244C22.379 12.5215 22.7592 12.6236 23.0567 12.4519C23.3541 12.2802 23.4558 11.8999 23.2842 11.6027L23.0944 11.2738L22.0176 11.8955Z" fill="white"/>
<rect width="1.4744" height="0.434141" transform="matrix(-0.866025 0.5 0.5 0.866025 23.1953 11.2158)" fill="#E66D28"/>
<path d="M7.86711 26.3017L7.64238 25.9125C7.43853 25.5594 7.55942 25.1083 7.91201 24.9048C8.26513 24.7009 8.71594 24.8219 8.91979 25.175L9.14453 25.5642L7.86711 26.3017Z" fill="#EDDD9A"/>
<path d="M7.96553 26.2442L7.77595 25.9158C7.6041 25.6182 7.70606 25.2377 8.00348 25.066C8.30116 24.8941 8.68164 24.996 8.85349 25.2937L9.04307 25.6221L7.96553 26.2442Z" fill="white"/>
<rect width="1.47501" height="0.434143" transform="matrix(-0.866025 0.5 0.5 0.866025 8.92773 25.1885)" fill="#E66D28"/>
<path d="M9.54511 25.3328C9.54466 25.332 9.5438 25.3311 9.5432 25.3301L9.32012 24.9437C9.11627 24.5906 9.23741 24.1394 9.59 23.9359C9.94285 23.7321 10.3939 23.853 10.5978 24.2061L10.8225 24.5953L9.54511 25.3328Z" fill="#EDDD9A"/>
<path d="M9.64522 25.2754L9.45564 24.9471C9.28379 24.6494 9.38549 24.2691 9.68291 24.0974C9.98059 23.9255 10.3611 24.0274 10.5329 24.3251L10.7211 24.6511C10.7214 24.6516 10.7215 24.653 10.722 24.6538L9.64522 25.2754Z" fill="white"/>
<rect width="1.47501" height="0.434141" transform="matrix(0.866025 -0.5 -0.5 -0.866025 9.54492 25.333)" fill="#E66D28"/>
<path d="M11.2228 24.3641C11.2224 24.3633 11.2215 24.3624 11.2209 24.3614L10.9979 23.975C10.794 23.6219 10.9151 23.1707 11.268 22.967C11.6206 22.7634 12.0719 22.8841 12.2758 23.2372L12.4988 23.6236C12.4994 23.6246 12.4998 23.6258 12.5002 23.6266L11.2228 24.3641Z" fill="#EDDD9A"/>
<path d="M11.3232 24.3065C11.3225 24.3059 11.3219 24.3048 11.3216 24.3043L11.1334 23.9783C10.9615 23.6807 11.0637 23.3 11.3609 23.1285C11.6583 22.9567 12.0391 23.0585 12.2109 23.3562L12.3992 23.6822C12.3995 23.6827 12.3998 23.6839 12.4002 23.6847L11.3232 24.3065Z" fill="white"/>
<rect width="1.47529" height="0.434143" transform="matrix(-0.866025 0.5 0.5 0.866025 12.2832 23.25)" fill="#E66D28"/>
<path d="M12.9003 23.3955L12.6756 23.0062C12.4717 22.6531 12.5931 22.2018 12.9457 21.9982C13.2986 21.7945 13.7494 21.9155 13.9532 22.2686L14.178 22.6578L12.9003 23.3955Z" fill="#EDDD9A"/>
<path d="M13.0009 23.3378C13.0002 23.3371 12.9996 23.3361 12.9993 23.3356L12.8111 23.0096C12.6393 22.7119 12.7415 22.3313 13.0389 22.1596C13.3363 21.9879 13.7168 22.0898 13.8886 22.3874L14.0782 22.7158L13.0009 23.3378Z" fill="white"/>
<rect width="1.47499" height="0.434141" transform="matrix(0.866025 -0.5 -0.5 -0.866025 12.9004 23.3955)" fill="#E66D28"/>
<path d="M14.58 22.4267L14.3553 22.0375C14.1514 21.6844 14.2723 21.2333 14.6249 21.0298C14.978 20.8259 15.4288 20.9469 15.6327 21.3L15.8574 21.6892L14.58 22.4267Z" fill="#EDDD9A"/>
<path d="M14.6784 22.3692L14.4888 22.0408C14.317 21.7432 14.419 21.3627 14.7164 21.191C15.0141 21.0191 15.3945 21.121 15.5664 21.4187L15.756 21.747L14.6784 22.3692Z" fill="white"/>
<rect width="1.47501" height="0.434143" transform="matrix(-0.866025 0.5 0.5 0.866025 15.6426 21.3125)" fill="#E66D28"/>
<path d="M16.2597 21.457L16.035 21.0677C15.8311 20.7147 15.952 20.2636 16.3043 20.0602C16.6572 19.8565 17.1085 19.9772 17.3124 20.3302L17.5371 20.7195L16.2597 21.457Z" fill="#EDDD9A"/>
<path d="M16.3581 21.3994L16.1685 21.0711C15.9967 20.7734 16.0986 20.393 16.3955 20.2215C16.6932 20.0497 17.0739 20.1515 17.2458 20.4491L17.434 20.7751C17.4343 20.7757 17.4344 20.777 17.4349 20.7778L16.3581 21.3994Z" fill="white"/>
<rect width="1.47499" height="0.434143" transform="matrix(-0.866025 0.5 0.5 0.866025 17.3164 20.3447)" fill="#E66D28"/>
<path d="M17.936 20.4889C17.9355 20.4881 17.9344 20.4874 17.9338 20.4864L17.7107 20.1C17.5069 19.7469 17.6283 19.2955 17.9809 19.092C18.3335 18.8884 18.7843 19.0094 18.9882 19.3625L19.2129 19.7517L17.936 20.4889Z" fill="#EDDD9A"/>
<path d="M18.0344 20.4304C18.034 20.4296 18.0328 20.4289 18.0325 20.4284L17.8443 20.1023C17.6725 19.8047 17.7749 19.4239 18.0721 19.2523C18.3695 19.0806 18.75 19.1826 18.9218 19.4802L19.1114 19.8086L18.0344 20.4304Z" fill="white"/>
<rect width="1.4744" height="0.434143" transform="matrix(-0.866025 0.5 0.5 0.866025 18.9961 19.375)" fill="#E66D28"/>
<path d="M19.6132 19.5205L19.3885 19.1312C19.1846 18.7781 19.3055 18.3271 19.6586 18.1232C20.0115 17.9195 20.4623 18.0405 20.6661 18.3936L20.8909 18.7828L19.6132 19.5205Z" fill="#EDDD9A"/>
<path d="M19.7141 19.4616C19.7136 19.4609 19.7125 19.4601 19.7122 19.4596L19.524 19.1336C19.3521 18.8359 19.4546 18.4552 19.7518 18.2836C20.0492 18.1119 20.4297 18.2138 20.6016 18.5115L20.7911 18.8398L19.7141 19.4616Z" fill="white"/>
<rect width="1.47501" height="0.434141" transform="matrix(0.866025 -0.5 -0.5 -0.866025 19.6133 19.5195)" fill="#E66D28"/>
<path d="M21.2929 18.5507L21.0682 18.1615C20.8643 17.8084 20.9852 17.3574 21.338 17.1536C21.6909 16.9499 22.1417 17.0709 22.3455 17.424L22.5703 17.8132L21.2929 18.5507Z" fill="#EDDD9A"/>
<path d="M21.3913 18.4932L21.2017 18.1648C21.0299 17.8672 21.1318 17.4867 21.4295 17.3148C21.727 17.1431 22.1074 17.245 22.2793 17.5427L22.4689 17.8711L21.3913 18.4932Z" fill="white"/>
<rect width="1.47503" height="0.434143" transform="matrix(-0.866025 0.5 0.5 0.866025 22.3535 17.4365)" fill="#E66D28"/>
<path d="M22.9692 17.5817C22.9687 17.5809 22.9676 17.5802 22.967 17.5791L22.7439 17.1927C22.5401 16.8397 22.6615 16.3883 23.0141 16.1847C23.3672 15.9809 23.818 16.1019 24.0219 16.4549L24.2466 16.8442L22.9692 17.5817Z" fill="#EDDD9A"/>
<path d="M23.071 17.5244L22.8814 17.1961C22.7096 16.8984 22.8115 16.518 23.109 16.3462C23.4066 16.1744 23.7871 16.2763 23.959 16.574L24.1486 16.9023L23.071 17.5244Z" fill="white"/>
<rect width="1.47499" height="0.434143" transform="matrix(-0.866025 0.5 0.5 0.866025 24.0293 16.4688)" fill="#E66D28"/>
<path d="M24.6484 16.6132L24.4236 16.224C24.2198 15.8709 24.3407 15.4199 24.6938 15.216C25.0464 15.0124 25.4977 15.1331 25.7015 15.4862L25.9263 15.8754L24.6484 16.6132Z" fill="#EDDD9A"/>
<path d="M24.7473 16.5554C24.7463 16.5549 24.7457 16.5539 24.7454 16.5534L24.5572 16.2273C24.3853 15.9297 24.4876 15.5491 24.785 15.3773C25.0824 15.2056 25.4632 15.3074 25.635 15.6051L25.8232 15.9311C25.8235 15.9316 25.8236 15.9329 25.8241 15.9337L24.7473 16.5554Z" fill="white"/>
<rect width="1.4756" height="0.434141" transform="matrix(0.866025 -0.5 -0.5 -0.866025 24.6484 16.6133)" fill="#E66D28"/>
<path d="M10.5192 2.67635C10.7722 3.15446 11.3556 3.31077 11.8562 3.08338C12.2495 2.91027 12.7998 2.31515 13.4715 1.64996C14.3014 0.831757 15.3163 -0.0932269 16.4189 -0.452443C13.1097 -0.0444144 11.4103 1.08312 10.9264 1.33941C10.9206 1.34274 10.9091 1.34942 10.8975 1.35609C10.4409 1.6197 10.2697 2.20401 10.5192 2.67635Z" fill="url(#paint8_linear_18821_11904)"/>
<path d="M2.56293 6.16684C2.09902 6.45779 0.272856 7.36572 -1.73512 10.0276C-0.872709 9.25227 0.435791 8.83585 1.55934 8.5262C2.47126 8.2771 3.2618 8.09807 3.60834 7.84406C4.05557 7.52421 4.21193 6.94079 3.92433 6.4827C3.64007 6.03039 3.04841 5.88654 2.59183 6.15015C2.58027 6.15683 2.56871 6.1635 2.56293 6.16684Z" fill="url(#paint9_linear_18821_11904)"/>
<defs>
<radialGradient id="paint0_radial_18821_11904" cx="0" cy="0" r="1" gradientUnits="userSpaceOnUse" gradientTransform="translate(14.3593 16.3976) rotate(90) scale(9.17437 14.8391)">
<stop stop-color="white" stop-opacity="0.85"/>
<stop offset="0.40414" stop-color="white" stop-opacity="0.36"/>
<stop offset="0.681066" stop-color="#EC8F3A" stop-opacity="0.24"/>
<stop offset="1" stop-color="#EC8F3A" stop-opacity="0"/>
</radialGradient>
<radialGradient id="paint1_radial_18821_11904" cx="0" cy="0" r="1" gradientUnits="userSpaceOnUse" gradientTransform="translate(5.79513 13.3032) rotate(-30) scale(4.27827 4.2779)">
<stop stop-color="white"/>
<stop offset="0.56" stop-color="white"/>
<stop offset="0.97" stop-color="#D6D6D6"/>
<stop offset="1" stop-color="#C6C6C6"/>
</radialGradient>
<radialGradient id="paint2_radial_18821_11904" cx="0" cy="0" r="1" gradientUnits="userSpaceOnUse" gradientTransform="translate(5.79813 13.3033) rotate(-30) scale(2.30154 2.30134)">
<stop stop-color="white"/>
<stop offset="0.78" stop-color="#73B6F0"/>
<stop offset="1" stop-color="#007AE3"/>
</radialGradient>
<radialGradient id="paint3_radial_18821_11904" cx="0" cy="0" r="1" gradientUnits="userSpaceOnUse" gradientTransform="translate(5.23093 14.3908) rotate(-90) scale(3.05795 3.97916)">
<stop offset="0.401042" stop-color="#2E2A49"/>
<stop offset="0.546875" stop-color="#2E2A49" stop-opacity="0"/>
<stop offset="0.645833" stop-color="white" stop-opacity="0"/>
<stop offset="0.760417" stop-color="#B0C5FB" stop-opacity="0.33"/>
<stop offset="0.984375" stop-color="white"/>
</radialGradient>
<radialGradient id="paint4_radial_18821_11904" cx="0" cy="0" r="1" gradientUnits="userSpaceOnUse" gradientTransform="translate(15.4907 7.70636) rotate(-30) scale(4.27838 4.27801)">
<stop stop-color="white"/>
<stop offset="0.56" stop-color="white"/>
<stop offset="0.97" stop-color="#D6D6D6"/>
<stop offset="1" stop-color="#C6C6C6"/>
</radialGradient>
<radialGradient id="paint5_radial_18821_11904" cx="0" cy="0" r="1" gradientUnits="userSpaceOnUse" gradientTransform="translate(15.4894 7.70696) rotate(-30) scale(2.30154 2.30134)">
<stop stop-color="white"/>
<stop offset="0.78" stop-color="#73B6F0"/>
<stop offset="1" stop-color="#007AE3"/>
</radialGradient>
<radialGradient id="paint6_radial_18821_11904" cx="0" cy="0" r="1" gradientUnits="userSpaceOnUse" gradientTransform="translate(14.9223 8.79513) rotate(-90) scale(3.05795 3.97916)">
<stop offset="0.401042" stop-color="#2E2A49"/>
<stop offset="0.546875" stop-color="#2E2A49" stop-opacity="0"/>
<stop offset="0.645833" stop-color="white" stop-opacity="0"/>
<stop offset="0.760417" stop-color="#B0C5FB" stop-opacity="0.33"/>
<stop offset="0.984375" stop-color="white"/>
</radialGradient>
<linearGradient id="paint7_linear_18821_11904" x1="5.74107" y1="27.7182" x2="2.94366" y2="22.8729" gradientUnits="userSpaceOnUse">
<stop stop-color="#600000"/>
<stop offset="1" stop-color="#B01622"/>
</linearGradient>
<linearGradient id="paint8_linear_18821_11904" x1="8.86932" y1="-0.181405" x2="14.6489" y2="-3.51825" gradientUnits="userSpaceOnUse">
<stop stop-color="#600000"/>
<stop offset="1" stop-color="#B01622"/>
</linearGradient>
<linearGradient id="paint9_linear_18821_11904" x1="2.27441" y1="3.62496" x2="-3.50515" y2="6.96179" gradientUnits="userSpaceOnUse">
<stop stop-color="#600000"/>
<stop offset="1" stop-color="#B01622"/>
</linearGradient>
</defs>
</svg>
