<svg width="26" height="33" viewBox="0 0 26 33" fill="none" xmlns="http://www.w3.org/2000/svg">
<path d="M21.7565 31.5957C22.8668 32.8336 24.0146 38.4573 24.4313 40.6366C24.5149 41.0895 24.9682 41.3597 25.3863 41.2061L28.1338 40.1964C28.9965 39.8793 28.553 38.529 27.67 38.7911C27.5481 38.8281 27.4327 38.8627 27.3199 38.9041C26.74 39.1095 26.1863 38.5251 26.3912 37.9349C27.6243 34.4239 27.6597 30.3389 27.6377 29.0287C27.6283 28.6343 27.321 28.3104 26.9361 28.288C26.3693 28.2623 25.5417 28.4495 24.7055 28.7568C22.8539 29.4372 20.9636 30.7092 21.7565 31.5957Z" fill="url(#paint0_linear_19708_41621)"/>
<path d="M7.76825 35.333C7.48946 35.5993 7.46499 36.0451 7.71326 36.3517C8.54494 37.3644 11.2172 40.4543 14.4305 42.3313C14.9689 42.6483 14.9253 43.4522 14.3505 43.6713C14.2377 43.7127 14.1274 43.7611 14.0104 43.8118C13.1679 44.1839 13.7044 45.5001 14.5671 45.183L17.3146 44.1733C17.7327 44.0196 17.9032 43.5201 17.6736 43.1209C16.5799 41.1904 13.8128 36.1617 13.8572 34.4994C13.8873 33.3104 11.6232 33.5652 9.77162 34.2457C8.93543 34.553 8.18357 34.9463 7.76825 35.333Z" fill="url(#paint1_linear_19708_41621)"/>
<path d="M-5.72635 38.0943C-1.05157 50.8145 4.077 46.7577 4.4541 45.9034C4.4541 45.9034 8.53916 46.5616 7.53479 43.2019C7.4601 42.9657 7.39761 42.7627 7.34325 42.5818C7.34221 42.6449 7.33966 42.671 7.33966 42.671C7.33966 42.671 6.63658 40.23 7.34325 42.5818C7.38662 42.1389 7.51234 40.1718 6.68569 39.308C5.74617 38.3351 3.37786 39.8081 3.37786 39.8081C3.37786 39.8081 -6.82681 29.7229 -6.03251 11.9922C-6.03251 11.9922 -10.3971 25.3853 -5.72635 38.0943Z" fill="url(#paint2_linear_19708_41621)"/>
<path d="M33.43 28.7631C33.43 28.7631 30.6714 29.1742 30.5855 30.5241C30.515 31.7176 31.8846 33.1351 32.2044 33.4445C31.22 31.1948 32.2649 33.5101 32.2649 33.5101C32.2649 33.5101 32.2461 33.4919 32.2044 33.4445C32.2801 33.6175 32.364 33.8127 32.46 34.0411C33.8703 37.2516 36.5569 34.1048 36.5569 34.1048C37.3975 34.5115 43.9325 34.2818 39.2578 21.5617C34.587 8.85267 22.5884 1.47329 22.5884 1.47329C34.6753 14.4699 33.43 28.7631 33.43 28.7631Z" fill="url(#paint3_linear_19708_41621)"/>
<path opacity="0.1" fill-rule="evenodd" clip-rule="evenodd" d="M27.6441 29.6607C27.6455 29.4087 27.6437 29.1952 27.6408 29.0273C27.6315 28.6329 27.3241 28.309 26.9393 28.2866C26.3724 28.2609 25.5448 28.4481 24.7086 28.7554C22.8571 29.4359 20.9668 30.7078 21.7596 31.5943C22.0174 31.8818 22.2772 32.4056 22.5295 33.068C24.5498 31.9832 26.2425 30.8414 27.6441 29.6607Z" fill="black"/>
<path opacity="0.1" fill-rule="evenodd" clip-rule="evenodd" d="M14.3126 36.3699C14.0217 35.594 13.8424 34.9323 13.854 34.4992C13.8841 33.3102 11.6199 33.565 9.76837 34.2455C8.93217 34.5528 8.18032 34.9461 7.76499 35.3328C7.48621 35.5991 7.46174 36.0449 7.71001 36.3515C7.86977 36.546 8.09746 36.8172 8.38385 37.1418C10.1666 37.1711 12.1377 36.9355 14.3126 36.3699Z" fill="black"/>
<path d="M18.0362 -5.09229C16.9642 -3.59442 15.4725 1.12511 16.9608 2.24862C18.4408 3.37519 22.3409 0.486267 23.413 -1.0116C24.4735 -2.51502 24.1367 -4.63806 22.6452 -5.77018C21.7052 -6.47977 20.5411 -6.61853 19.5438 -6.25202C18.9538 -6.03516 18.4269 -5.64618 18.0362 -5.09229Z" fill="url(#paint4_linear_19708_41621)"/>
<path d="M23.2161 -3.58162C22.6551 -5.10792 21.6028 -5.75498 19.8624 -5.11549C18.1219 -4.47601 18.2879 -1.99474 18.6386 -1.04045C19.077 0.152418 19.7462 0.619881 21.2917 0.0518883C22.8372 -0.516105 23.777 -2.05531 23.2161 -3.58162Z" fill="url(#paint5_linear_19708_41621)"/>
<path d="M6.06652 0.369185C-7.91932 6.61846 -6.66153 13.6553 -7.01035 19.8182C-7.30875 25.652 -1.41516 43.3208 20.0077 33.4065C41.4306 23.4922 32.0818 7.84756 23.3805 2.12639C15.8886 -2.75242 8.54365 -0.585565 6.58065 0.135859C6.2409 0.260721 6.06652 0.369185 6.06652 0.369185Z" fill="url(#paint6_linear_19708_41621)"/>
<path d="M29.0762 8.29771C33.1094 14.4919 32.3222 19.9283 29.6893 24.8895C27.042 29.8115 15.0746 37.0051 4.53192 34.6675C-3.74442 32.7839 -6.25437 23.8557 -7.01523 19.9199C-7.23277 25.857 -1.26012 43.2745 20.0113 33.4159C39.5661 24.3657 33.4827 10.4943 25.6374 3.83749C26.7065 4.99762 27.8905 6.47049 29.0762 8.29771Z" fill="url(#paint7_linear_19708_41621)"/>
<path d="M-1.84181 25.4928C-1.84181 25.4928 -3.18039 32.0419 7.30937 33.359C17.6634 34.6706 23.4815 29.5729 26.6711 26.0221C28.2967 24.2215 29.5805 20.7626 29.2202 18.2536C28.5944 14.0029 24.4085 12.9137 21.7153 15.9225C19.4304 18.4771 18.3016 19.2424 14.319 20.5263C7.50306 22.727 5.73546 21.906 2.05035 22.3614C1.51061 22.4214 1.04487 22.5373 0.6324 22.6889C-1.68923 23.5421 -1.84181 25.4928 -1.84181 25.4928Z" fill="url(#paint8_radial_19708_41621)"/>
<mask id="mask0_19708_41621" style="mask-type:alpha" maskUnits="userSpaceOnUse" x="-2" y="14" width="32" height="20">
<path d="M-1.84181 25.4928C-1.84181 25.4928 -3.18039 32.0419 7.30937 33.359C17.6634 34.6706 23.4815 29.5729 26.6711 26.0221C28.2967 24.2215 29.5805 20.7626 29.2202 18.2536C28.5944 14.0029 24.4085 12.9137 21.7153 15.9225C19.4304 18.4771 18.3016 19.2424 14.319 20.5263C7.50306 22.727 5.73546 21.906 2.05035 22.3614C1.51061 22.4214 1.04487 22.5373 0.6324 22.6889C-1.68923 23.5421 -1.84181 25.4928 -1.84181 25.4928Z" fill="url(#paint9_radial_19708_41621)"/>
</mask>
<g mask="url(#mask0_19708_41621)">
<path d="M13.3898 20.6115C13.8276 21.3263 14.4096 21.9303 15.0622 22.3338C16.2447 23.0642 17.7816 23.3199 18.52 22.0857C19.0309 21.2323 18.9887 19.9754 18.513 18.9418C18.3738 18.6385 18.2166 18.3351 18.0415 18.0538C17.3417 18.9892 16.4167 19.7607 14.9823 20.2092C14.4261 20.3829 13.8976 20.5124 13.3898 20.6115Z" fill="white"/>
<path d="M22.4424 14.2317C22.4424 14.2317 22.1015 15.4253 21.6828 15.0623C21.5827 15.2353 20.8834 15.6281 20.7936 15.8301C19.9111 17.8093 19.0423 18.0188 19.0423 18.0188C19.8846 18.9858 20.8018 19.6309 21.6368 19.8253C22.9773 20.1383 24.8621 19.0772 24.3712 17.1622C23.6214 15.1218 23.4202 15.478 22.4424 14.2317Z" fill="white"/>
<path d="M7.23005 21.8072C7.15647 22.0098 7.08335 22.3571 7.05841 22.6276C7.08655 23.7347 7.43471 25.0876 8.34852 25.7996C9.1357 26.413 10.7639 26.2327 11.5575 25.1796C12.5246 23.4902 11.8686 21.8149 11.8893 20.8668C10.6697 21.3151 10.2493 21.4627 9.25627 21.5657C9.25627 21.5657 8.1458 21.6912 7.23005 21.8072Z" fill="white"/>
<path d="M5.23677 25.0765C4.34762 26.2255 3.35838 26.6297 2.20152 25.8341C1.29963 25.2141 0.864147 24.0081 1.01608 22.958C1.05522 22.6862 1.1241 22.4531 1.21934 22.2518C1.5187 22.1709 2.14808 22.0514 2.51397 22.014C3.94669 21.867 5.99517 21.9246 5.99517 21.9246C5.91666 22.7595 5.84023 23.9125 5.23677 25.0765Z" fill="white"/>
<path d="M1.83158 23.6949C2.75459 21.8837 5.49227 22.4708 5.90535 22.8448C5.97558 22.6209 5.94321 22.3925 5.97255 22.1584C4.5524 21.7559 3.51565 22.1504 2.09193 22.3219C1.72835 22.3655 1.39974 22.4322 1.10072 22.5151C1.00189 22.7056 0.928082 22.9253 0.882827 23.1805C0.707312 24.1664 1.18312 25.3522 1.98971 25.8428C2.51405 26.0762 2.255 25.9508 2.86691 26.1671C2.2774 25.722 1.14094 25.0501 1.83158 23.6949Z" fill="#F5C5A9"/>
</g>
<path d="M15.1944 28.8858C14.924 29.1815 14.6422 29.5031 14.2561 29.5796C14.0736 29.6176 13.8822 29.5934 13.7017 29.5798C12.4127 29.472 11.0653 29.6256 10.0025 30.3433C8.9921 31.0126 8.30656 32.2604 8.48195 33.4825C16.8643 34.1744 22.1119 30.5958 25.352 27.3989C24.1086 26.3076 22.3716 25.7829 20.7392 25.9249C20.0991 25.9785 19.4796 26.1262 18.8798 26.3466C17.4822 26.8602 16.2182 27.7754 15.1944 28.8858Z" fill="url(#paint10_radial_19708_41621)"/>
<path opacity="0.2" d="M25.3565 27.3994C24.6941 26.8198 23.8949 26.405 23.0476 26.1598C23.0876 26.2663 23.1178 26.3764 23.1263 26.4894C23.1865 27.2933 22.6648 28.0052 22.0927 28.5423C21.3899 29.2018 20.5695 29.7279 19.6812 30.0882C19.4878 30.1664 19.2856 30.2378 19.0762 30.2303C18.4798 30.2088 18.0855 29.5974 17.748 29.0851C17.4104 28.5727 16.8514 28.0346 16.2958 28.2425C16.3722 28.0523 16.4481 27.8614 16.5248 27.6707C16.0495 28.0374 15.6043 28.446 15.1976 28.886C14.9284 29.1775 14.6461 29.4991 14.2595 29.5787C14.2587 29.579 14.2574 29.5786 14.2567 29.5789L15.8436 30.0869C16.1399 30.1819 16.4476 30.2834 16.6747 30.5031C16.9019 30.7228 17.0185 31.098 16.8548 31.3625C16.7322 31.5605 16.4945 31.6427 16.274 31.7073C14.3525 32.2674 12.3266 32.4735 10.3197 32.3129C10.1226 32.2971 9.91997 32.2761 9.74202 32.1836C9.34165 31.9752 9.17823 31.4284 9.314 30.9968C9.32561 30.9596 9.34818 30.9289 9.36304 30.8939C8.72658 31.5897 8.35081 32.5411 8.48258 33.48C16.8642 34.1719 22.1136 30.5962 25.3565 27.3994Z" fill="white"/>
<path fill-rule="evenodd" clip-rule="evenodd" d="M16.0441 29.6628C16.5562 29.899 16.9348 30.2687 17.15 30.5659C17.2592 30.7145 17.3352 30.8424 17.3799 30.9353C17.4234 31.027 17.4482 31.0787 17.4482 31.0787C17.4482 31.0787 17.2634 30.9465 16.9738 30.7645C16.6834 30.5811 16.2841 30.3655 15.837 30.1587C15.3886 29.954 14.9667 29.7923 14.6411 29.6932C14.3176 29.5929 14.0996 29.54 14.0996 29.54C14.0996 29.54 14.1524 29.524 14.2463 29.4954C14.3423 29.4669 14.4832 29.4388 14.6615 29.4222C15.0159 29.387 15.531 29.4282 16.0441 29.6628Z" fill="#831434"/>
<ellipse cx="11.0691" cy="14.0037" rx="17.0914" ry="13.4569" transform="rotate(-20.1789 11.0691 14.0037)" fill="url(#paint11_linear_19708_41621)" fill-opacity="0.7"/>
<path fill-rule="evenodd" clip-rule="evenodd" d="M15.2459 8.27237C16.4292 11.492 14.8683 15.0282 11.7595 16.1707C8.65076 17.3132 5.17141 15.6294 3.98816 12.4097C2.80492 9.1901 4.36584 5.6539 7.47459 4.5114C10.5833 3.3689 14.0627 5.05274 15.2459 8.27237Z" fill="#89C072"/>
<path fill-rule="evenodd" clip-rule="evenodd" d="M14.6831 8.47964C15.7479 11.3771 14.343 14.5594 11.5451 15.5877C8.74726 16.6159 5.61592 15.1007 4.55109 12.2033C3.48626 9.30585 4.89117 6.12347 7.68904 5.09522C10.4869 4.06697 13.6183 5.58223 14.6831 8.47964Z" fill="url(#paint12_radial_19708_41621)"/>
<path fill-rule="evenodd" clip-rule="evenodd" d="M12.2184 9.27614C12.7912 10.8349 12.0354 12.5469 10.5303 13.1C9.0251 13.6532 7.34054 12.838 6.7677 11.2793C6.19485 9.72062 6.95065 8.0086 8.45582 7.45544C9.96099 6.90227 11.6456 7.71743 12.2184 9.27614Z" fill="url(#paint13_radial_19708_41621)"/>
<path d="M10.7669 9.80901C11.0347 10.5379 10.6812 11.3387 9.97766 11.5972C9.27278 11.8563 8.48482 11.475 8.21696 10.7461C7.9491 10.0173 8.30252 9.2162 9.00741 8.95715C9.71096 8.69859 10.499 9.08015 10.7669 9.80901Z" fill="#2E2A49"/>
<path fill-rule="evenodd" clip-rule="evenodd" d="M24.1269 8.09695C24.9157 10.2434 23.8751 12.6008 21.8026 13.3625C19.7301 14.1242 17.4105 13.0016 16.6217 10.8552C15.8328 8.70877 16.8735 6.3513 18.946 5.58963C21.0185 4.82797 23.338 5.95053 24.1269 8.09695Z" fill="#89C072"/>
<path fill-rule="evenodd" clip-rule="evenodd" d="M23.751 8.23383C24.4608 10.1654 23.5242 12.287 21.659 12.9725C19.7937 13.658 17.7062 12.6478 16.9963 10.7162C16.2864 8.78463 17.223 6.66304 19.0883 5.97754C20.9535 5.29205 23.0411 6.30222 23.751 8.23383Z" fill="url(#paint14_radial_19708_41621)"/>
<path fill-rule="evenodd" clip-rule="evenodd" d="M22.2979 8.6994C22.6798 9.73854 22.176 10.8799 21.1725 11.2487C20.1691 11.6174 19.046 11.074 18.6641 10.0349C18.2822 8.99571 18.7861 7.85437 19.7896 7.48559C20.793 7.11681 21.916 7.66025 22.2979 8.6994Z" fill="url(#paint15_radial_19708_41621)"/>
<path d="M21.3309 9.05562C21.5095 9.54152 21.2738 10.0754 20.8048 10.2478C20.3348 10.4205 19.8095 10.1663 19.631 9.68036C19.4524 9.19446 19.688 8.66041 20.1579 8.48771C20.627 8.31533 21.1523 8.56971 21.3309 9.05562Z" fill="#2E2A49"/>
<path fill-rule="evenodd" clip-rule="evenodd" d="M4.61123 15.2639C5.40006 17.4104 4.35944 19.7678 2.28694 20.5295C0.214442 21.2912 -2.10513 20.1686 -2.89396 18.0222C-3.68279 15.8758 -2.64217 13.5183 -0.569673 12.7566C1.50283 11.995 3.8224 13.1175 4.61123 15.2639Z" fill="#89C072"/>
<path fill-rule="evenodd" clip-rule="evenodd" d="M4.23729 15.4018C4.94718 17.3334 4.01057 19.455 2.14532 20.1405C0.280076 20.826 -1.80748 19.8158 -2.51737 17.8842C-3.22726 15.9526 -2.29065 13.831 -0.425404 13.1455C1.43984 12.46 3.5274 13.4702 4.23729 15.4018Z" fill="url(#paint16_radial_19708_41621)"/>
<path fill-rule="evenodd" clip-rule="evenodd" d="M2.59286 15.9357C2.97476 16.9749 2.47089 18.1162 1.46745 18.485C0.464001 18.8538 -0.659041 18.3103 -1.04094 17.2712C-1.42283 16.232 -0.918968 15.0907 0.0844777 14.7219C1.08792 14.3531 2.21097 14.8966 2.59286 15.9357Z" fill="url(#paint17_radial_19708_41621)"/>
<path d="M1.62779 16.2919C1.80636 16.7778 1.57068 17.3117 1.10164 17.4841C0.63172 17.6568 0.106419 17.4026 -0.0721562 16.9167C-0.250732 16.4308 -0.0151169 15.8967 0.454808 15.724C0.923844 15.5517 1.44921 15.806 1.62779 16.2919Z" fill="#2E2A49"/>
<defs>
<linearGradient id="paint0_linear_19708_41621" x1="20.6043" y1="30.2644" x2="27.2407" y2="27.8254" gradientUnits="userSpaceOnUse">
<stop stop-color="#FFF166"/>
<stop offset="1" stop-color="#24B34B"/>
</linearGradient>
<linearGradient id="paint1_linear_19708_41621" x1="7.23661" y1="35.1777" x2="13.8731" y2="32.7387" gradientUnits="userSpaceOnUse">
<stop stop-color="#FFF166"/>
<stop offset="1" stop-color="#24B34B"/>
</linearGradient>
<linearGradient id="paint2_linear_19708_41621" x1="-14.2123" y1="15.0041" x2="-3.5313" y2="11.0787" gradientUnits="userSpaceOnUse">
<stop stop-color="#FFF166"/>
<stop offset="1" stop-color="#24B34B"/>
</linearGradient>
<linearGradient id="paint3_linear_19708_41621" x1="20.0909" y1="2.39687" x2="30.7719" y2="-1.52851" gradientUnits="userSpaceOnUse">
<stop stop-color="#FFF166"/>
<stop offset="1" stop-color="#24B34B"/>
</linearGradient>
<linearGradient id="paint4_linear_19708_41621" x1="22.3997" y1="-8.02974" x2="14.0889" y2="-4.97544" gradientUnits="userSpaceOnUse">
<stop stop-color="#FFF166"/>
<stop offset="1" stop-color="#24B34B"/>
</linearGradient>
<linearGradient id="paint5_linear_19708_41621" x1="18.4192" y1="-1.6376" x2="23.2748" y2="-3.4221" gradientUnits="userSpaceOnUse">
<stop stop-color="#58B452"/>
<stop offset="1" stop-color="#B4D360"/>
</linearGradient>
<linearGradient id="paint6_linear_19708_41621" x1="-13.7193" y1="4.59439" x2="24.0307" y2="-9.27916" gradientUnits="userSpaceOnUse">
<stop stop-color="#FFF166"/>
<stop offset="1" stop-color="#24B34B"/>
</linearGradient>
<linearGradient id="paint7_linear_19708_41621" x1="-11.9875" y1="9.30511" x2="25.7618" y2="-4.56817" gradientUnits="userSpaceOnUse">
<stop stop-color="#FFF166"/>
<stop offset="1" stop-color="#24B34B"/>
</linearGradient>
<radialGradient id="paint8_radial_19708_41621" cx="0" cy="0" r="1" gradientUnits="userSpaceOnUse" gradientTransform="translate(14.7386 25.4748) rotate(-20.1789) scale(12.5556 5.79278)">
<stop stop-color="#7D3825"/>
<stop offset="0.54" stop-color="#4F0000"/>
<stop offset="1" stop-color="#2D0000"/>
</radialGradient>
<radialGradient id="paint9_radial_19708_41621" cx="0" cy="0" r="1" gradientUnits="userSpaceOnUse" gradientTransform="translate(14.7386 25.4748) rotate(-20.1789) scale(12.5556 5.79278)">
<stop stop-color="#7D3825"/>
<stop offset="0.54" stop-color="#4F0000"/>
<stop offset="1" stop-color="#2D0000"/>
</radialGradient>
<radialGradient id="paint10_radial_19708_41621" cx="0" cy="0" r="1" gradientUnits="userSpaceOnUse" gradientTransform="translate(16.7273 29.9245) rotate(-20.1789) scale(6.5882 2.50646)">
<stop stop-color="#FF721B"/>
<stop offset="1" stop-color="#BE1622"/>
</radialGradient>
<linearGradient id="paint11_linear_19708_41621" x1="11.0691" y1="0.546836" x2="10.9619" y2="18.6583" gradientUnits="userSpaceOnUse">
<stop stop-color="white"/>
<stop offset="1" stop-color="#C4C4C4" stop-opacity="0"/>
</linearGradient>
<radialGradient id="paint12_radial_19708_41621" cx="0" cy="0" r="1" gradientUnits="userSpaceOnUse" gradientTransform="translate(9.61713 10.3414) rotate(-20.1789) scale(5.39728 5.5893)">
<stop stop-color="white"/>
<stop offset="0.56" stop-color="white"/>
<stop offset="0.97" stop-color="#D6D6D6"/>
<stop offset="1" stop-color="#C6C6C6"/>
</radialGradient>
<radialGradient id="paint13_radial_19708_41621" cx="0" cy="0" r="1" gradientUnits="userSpaceOnUse" gradientTransform="translate(9.49296 10.2779) rotate(-20.1789) scale(2.90357 3.00686)">
<stop stop-color="white"/>
<stop offset="0.69" stop-color="#99D5B0"/>
<stop offset="1" stop-color="#00973B"/>
</radialGradient>
<radialGradient id="paint14_radial_19708_41621" cx="0" cy="0" r="1" gradientUnits="userSpaceOnUse" gradientTransform="translate(20.3737 9.47497) rotate(-20.1789) scale(3.59819 3.7262)">
<stop stop-color="white"/>
<stop offset="0.56" stop-color="white"/>
<stop offset="0.97" stop-color="#D6D6D6"/>
<stop offset="1" stop-color="#C6C6C6"/>
</radialGradient>
<radialGradient id="paint15_radial_19708_41621" cx="0" cy="0" r="1" gradientUnits="userSpaceOnUse" gradientTransform="translate(20.481 9.36726) rotate(-20.1789) scale(1.93571 2.00457)">
<stop stop-color="white"/>
<stop offset="0.69" stop-color="#99D5B0"/>
<stop offset="1" stop-color="#00973B"/>
</radialGradient>
<radialGradient id="paint16_radial_19708_41621" cx="0" cy="0" r="1" gradientUnits="userSpaceOnUse" gradientTransform="translate(0.859988 16.6429) rotate(-20.1789) scale(3.59819 3.7262)">
<stop stop-color="white"/>
<stop offset="0.56" stop-color="white"/>
<stop offset="0.97" stop-color="#D6D6D6"/>
<stop offset="1" stop-color="#C6C6C6"/>
</radialGradient>
<radialGradient id="paint17_radial_19708_41621" cx="0" cy="0" r="1" gradientUnits="userSpaceOnUse" gradientTransform="translate(0.775903 16.6036) rotate(-20.1789) scale(1.93571 2.00458)">
<stop stop-color="white"/>
<stop offset="0.69" stop-color="#99D5B0"/>
<stop offset="1" stop-color="#00973B"/>
</radialGradient>
</defs>
</svg>
