<svg width="86" height="107" viewBox="0 0 86 107" fill="none" xmlns="http://www.w3.org/2000/svg">
<path d="M93.0843 99.4898C107.007 100.637 118.423 99.9154 117.87 106.843C117.296 114.011 101.337 119.905 87.4138 118.755C73.4924 117.609 67.217 105.599 67.4494 102.688C67.6846 99.7724 79.1633 98.3428 93.0843 99.4898Z" fill="#FF9B2E"/>
<path d="M-18.6794 41.4443C-27.7429 30.814 -33.8256 21.1258 -39.1242 25.6198C-44.6067 30.2732 -40.0696 46.6696 -31.0048 57.3008C-21.9433 67.9313 -8.53017 66.0077 -6.29966 64.117C-4.07249 62.2255 -9.61603 52.0724 -18.6794 41.4443Z" fill="#FF9B2E"/>
<path d="M71.8847 141.031C57.3026 169.49 31.1415 163.525 2.5938 148.897L-6.01747 144.485C-34.5652 129.857 -54.686 112.108 -40.1039 83.6489L-9.30247 23.5361C5.27964 -4.9227 40.2418 -16.1377 68.7896 -1.50999L77.4008 2.90237C105.949 17.5301 117.268 52.4596 102.686 80.9184L71.8847 141.031Z" fill="#FF9B2E"/>
<path opacity="0.2" d="M87.4706 98.2394C86.444 100.243 72.1886 127.887 71.1042 129.635C54.8536 155.907 32.2581 154.128 2.09285 138.671C-28.2569 123.12 -42.8913 105.707 -30.6693 76.8621C-29.9326 75.1234 -15.8967 47.5769 -14.9623 45.7533C1.47538 13.6731 33.8403 -2.57727 66.0193 13.9111C98.1983 30.3994 103.908 66.1592 87.4706 98.2394Z" fill="white"/>
<ellipse opacity="0.7" cx="36.9882" cy="71.1625" rx="62.0066" ry="41.2383" transform="rotate(27.1303 36.9882 71.1625)" fill="url(#paint0_radial_19708_32673)"/>
<path d="M89.0631 63.5974C83.5781 74.3021 70.4252 78.5158 59.6916 73.016C48.954 67.5141 44.6957 54.379 50.1807 43.6743C55.665 32.971 68.8145 28.7538 79.5522 34.2557C90.2857 39.7555 94.5474 52.8941 89.0631 63.5974Z" fill="#FF9B2E"/>
<path fill-rule="evenodd" clip-rule="evenodd" d="M85.3493 61.694C80.9125 70.3528 70.2748 73.7644 61.5893 69.314C52.9038 64.8636 49.4595 54.2365 53.8963 45.5776C58.333 36.9188 68.9707 33.5072 77.6562 37.9576C86.3417 42.408 89.786 53.0351 85.3493 61.694Z" fill="url(#paint1_radial_19708_32673)"/>
<path fill-rule="evenodd" clip-rule="evenodd" d="M78.0784 57.9697C75.6917 62.6275 69.9695 64.4626 65.2974 62.0687C60.6253 59.6747 58.7725 53.9581 61.1591 49.3004C63.5457 44.6426 69.268 42.8074 73.9401 45.2014C78.6122 47.5953 80.465 53.3119 78.0784 57.9697Z" fill="url(#paint2_radial_19708_32673)"/>
<path d="M73.576 55.6627C72.46 57.8407 69.7825 58.6994 67.5992 57.5806C65.4131 56.4605 64.5462 53.7857 65.6622 51.6077C66.7782 49.4297 69.4556 48.571 71.6417 49.6911C73.825 50.8099 74.692 53.4847 73.576 55.6627Z" fill="#2E2A49"/>
<path d="M51.8795 43.8396C46.3945 54.5442 33.247 58.7608 22.5094 53.2589C11.7731 47.7577 7.51211 34.6211 12.9971 23.9165C18.4821 13.2118 31.6337 8.99736 42.3699 14.4986C53.1076 20.0005 57.3645 33.1349 51.8795 43.8396Z" fill="#FF9B2E"/>
<path fill-rule="evenodd" clip-rule="evenodd" d="M48.1617 41.9366C43.725 50.5955 33.0873 54.0071 24.4018 49.5567C15.7163 45.1063 12.272 34.4792 16.7088 25.8203C21.1455 17.1615 31.7832 13.7499 40.4687 18.2003C49.1542 22.6507 52.5985 33.2778 48.1617 41.9366Z" fill="url(#paint3_radial_19708_32673)"/>
<path fill-rule="evenodd" clip-rule="evenodd" d="M40.9006 38.2135C38.5136 42.8719 32.7905 44.7074 28.1177 42.3131C23.4448 39.9187 21.5918 34.2013 23.9788 29.5428C26.3658 24.8844 32.0889 23.0489 36.7617 25.4432C41.4345 27.8376 43.2875 33.555 40.9006 38.2135Z" fill="url(#paint4_radial_19708_32673)"/>
<path d="M36.397 35.9064C35.2803 38.0858 32.6001 38.9431 30.4167 37.8244C28.2293 36.7035 27.3638 34.0294 28.4805 31.8501C29.5964 29.6721 32.2732 28.8113 34.4607 29.9321C36.644 31.0509 37.513 33.7284 36.397 35.9064Z" fill="#2E2A49"/>
<ellipse cx="34.5681" cy="29.7107" rx="5.29165" ry="4.05317" transform="rotate(27.1303 34.5681 29.7107)" fill="url(#paint5_linear_19708_32673)"/>
<ellipse cx="72.0408" cy="48.9099" rx="5.29165" ry="4.05317" transform="rotate(27.1303 72.0408 48.9099)" fill="url(#paint6_linear_19708_32673)"/>
<path d="M37.2573 70.3494C11.0177 56.9044 -7.15882 41.5224 -14.1691 32.5913C-11.6571 39.2073 6.88825 56.949 36.3804 72.0607C65.6447 87.0555 91.216 91.8574 98.0039 90.0083C86.6123 89.5241 63.2933 83.6901 37.2573 70.3494Z" fill="white"/>
<path d="M37.3738 70.1256C11.1342 56.6806 -7.04163 41.2973 -14.0519 32.3662C-11.5399 38.9822 7.00613 56.7226 36.4983 71.8342C65.7626 86.829 91.3325 91.6336 98.1211 89.7832C86.7288 89.3004 63.4098 83.4663 37.3738 70.1256Z" fill="#6D0F0F"/>
<path d="M33.3555 68.0317L31.9823 70.7116C30.7388 73.1385 31.7039 76.1165 34.137 77.3631C36.5714 78.6105 39.5522 77.6545 40.7958 75.2276L42.1689 72.5477L33.3555 68.0317Z" fill="#EDDD9A"/>
<path d="M34.043 68.3853L32.8847 70.6458C31.8359 72.6926 32.6484 75.2028 34.7015 76.2548C36.7532 77.3061 39.268 76.5007 40.3168 74.4539L41.475 72.1934L34.043 68.3853Z" fill="white"/>
<rect opacity="0.4" width="9.90308" height="2.90785" transform="matrix(0.889971 0.456016 0.456016 -0.889971 32.0312 70.6201)" fill="#E66D28"/>
<path d="M43.4286 73.1137C43.4237 73.1266 43.4168 73.1367 43.4133 73.1469L41.7471 76.8602C40.2288 80.2514 41.7502 84.2368 45.1533 85.7636C48.5529 87.2904 52.5438 85.7776 54.0614 82.3878L55.7277 78.6744C55.7319 78.6629 55.7381 78.6507 55.743 78.6413L43.4286 73.1137Z" fill="#EDDD9A"/>
<path d="M44.3958 73.5484L44.3826 73.5741L42.9783 76.706C41.6949 79.5651 42.9812 82.9262 45.8486 84.2144C48.7154 85.5006 52.0793 84.2251 53.362 81.3673L54.7663 78.2354C54.7712 78.2259 54.776 78.2165 54.7775 78.207L44.3958 73.5484Z" fill="white"/>
<rect opacity="0.4" width="13.4983" height="3.96279" transform="matrix(-0.912307 -0.409508 -0.409218 0.912437 55.7422 78.6396)" fill="#E66D28"/>
<path d="M57.0811 79.0903L57.0707 79.1106L56.2341 81.3618C55.4709 83.4165 56.5196 85.7063 58.58 86.4733C60.6436 87.2438 62.9322 86.1978 63.6976 84.1425L64.5355 81.892C64.5389 81.8852 64.539 81.8784 64.5411 81.871L57.0811 79.0903Z" fill="#EDDD9A"/>
<path d="M57.6626 79.309L57.6542 79.3252L56.9489 81.2234C56.3056 82.9571 57.1891 84.8872 58.9288 85.5343C60.6658 86.1835 62.5972 85.303 63.2412 83.568L63.9506 81.6719C63.95 81.6664 63.9535 81.6597 63.9535 81.6528L57.6626 79.309Z" fill="white"/>
<rect opacity="0.4" width="7.96332" height="2.33945" transform="matrix(-0.937075 -0.349127 -0.348457 0.937325 64.543 81.8716)" fill="#E66D28"/>
<path d="M66.2518 82.5379C66.2504 82.5474 66.2489 82.5569 66.2441 82.5664L65.301 85.6306C64.4379 88.4284 66.0144 91.4002 68.8215 92.268C71.6272 93.1352 74.597 91.5689 75.46 88.7711L76.4038 85.7055C76.4079 85.6974 76.4087 85.6892 76.4108 85.6784L66.2518 82.5379Z" fill="#EDDD9A"/>
<path d="M67.0469 82.7846C67.0468 82.7914 67.0427 82.7996 67.0406 82.807L66.2441 85.3913C65.5177 87.7518 66.8454 90.2562 69.212 90.9872C71.5779 91.7196 74.0835 90.4005 74.8133 88.04L75.6064 85.4557C75.6072 85.4475 75.6113 85.4394 75.6134 85.432L67.0469 82.7846Z" fill="white"/>
<rect opacity="0.4" width="10.6355" height="3.12094" transform="matrix(-0.95535 -0.295477 -0.294475 0.955659 76.4102 85.6792)" fill="#E66D28"/>
<path d="M79.6196 86.5583C79.6189 86.5665 79.6174 86.576 79.6133 86.5841L78.9421 89.4956C78.3276 92.1526 79.9893 94.8077 82.6527 95.4243C85.3187 96.0456 87.9724 94.3908 88.5876 91.7358L89.2567 88.825C89.2602 88.8183 89.2616 88.8087 89.2624 88.8006L79.6196 86.5583Z" fill="#EDDD9A"/>
<path d="M80.3768 86.7335C80.3733 86.7402 80.3705 86.749 80.3705 86.7558L79.8034 89.21C79.2866 91.4491 80.6868 93.6883 82.9325 94.2105C85.181 94.734 87.4188 93.3392 87.9376 91.0995L88.5013 88.6453C88.504 88.6399 88.5055 88.6304 88.5062 88.6222L80.3768 86.7335Z" fill="white"/>
<rect opacity="0.4" width="9.89977" height="2.90686" transform="matrix(-0.974047 -0.226348 -0.224934 0.974374 89.2617 88.7998)" fill="#E66D28"/>
<path d="M30.2622 66.3332L30.2491 66.3589L28.584 69.2274C27.0669 71.8472 23.7049 72.7377 21.0767 71.2134C18.4463 69.6897 17.5499 66.3336 19.0683 63.7145L20.7321 60.8454L20.7459 60.8183L30.2622 66.3332Z" fill="#EDDD9A"/>
<path d="M29.5167 65.9004L29.5049 65.9234L28.1033 68.3411C26.8208 70.5499 23.9869 71.2994 21.7702 70.015C19.5549 68.7313 18.7949 65.8978 20.0768 63.6903L21.479 61.2713C21.4825 61.2645 21.4867 61.2564 21.4929 61.2511L29.5167 65.9004Z" fill="white"/>
<rect opacity="0.4" width="10.9962" height="3.23164" transform="matrix(0.865212 0.501407 0.501682 -0.865052 19.125 63.6123)" fill="#E66D28"/>
<path d="M19.4668 59.9125L19.4564 59.9328L18.1178 61.9267C16.8959 63.7464 14.4241 64.2305 12.5987 63.0082C10.7679 61.7832 10.2802 59.3146 11.5014 57.4929L12.8387 55.4983C12.8422 55.4915 12.8476 55.4875 12.8525 55.4814L19.4668 59.9125Z" fill="#EDDD9A"/>
<path d="M18.9478 59.5652L18.9395 59.5814L17.8107 61.2627C16.7793 62.7974 14.6966 63.2076 13.1551 62.1736C11.6137 61.1429 11.2003 59.0609 12.2323 57.5248L13.3577 55.8434C13.3618 55.8387 13.3653 55.832 13.3708 55.8279L18.9478 59.5652Z" fill="white"/>
<rect opacity="0.4" width="7.9633" height="2.33944" transform="matrix(0.830725 0.556683 0.557278 -0.830326 11.5469 57.4224)" fill="#E66D28"/>
<path d="M12.0724 55.1494C12.0669 55.1568 12.0614 55.1677 12.0545 55.1744L9.96648 58.0089C8.0605 60.5985 4.40915 61.1478 1.81079 59.2374C-0.786202 57.3277 -1.34625 53.6829 0.559726 51.0933L2.6484 48.2608C2.65325 48.2513 2.66012 48.2446 2.66769 48.2365L12.0724 55.1494Z" fill="#EDDD9A"/>
<path d="M11.3314 54.6059C11.3279 54.6126 11.321 54.6194 11.3176 54.6261L9.55643 57.0167C7.94837 59.1988 4.87086 59.6646 2.67814 58.0526C0.488799 56.444 0.0158337 53.3681 1.62389 51.1861L3.38505 48.7955C3.39123 48.7901 3.39605 48.7841 3.40021 48.776L11.3314 54.6059Z" fill="white"/>
<rect opacity="0.4" width="11.6754" height="3.42797" transform="matrix(0.805784 0.59221 0.592992 -0.805208 0.632812 50.9932)" fill="#E66D28"/>
<path opacity="0.2" d="M52.8665 131.756C47.2574 142.703 26.1845 143.108 5.79888 132.663C-14.584 122.219 -26.564 104.878 -20.9549 93.9307C-15.3458 82.9839 5.72709 82.5789 26.11 93.023C46.4956 103.468 58.4756 120.81 52.8665 131.756Z" fill="white"/>
<ellipse cx="52.849" cy="40.062" rx="52.4626" ry="39.698" transform="rotate(27.1303 52.849 40.062)" fill="url(#paint7_linear_19708_32673)"/>
<path d="M60.5446 7.66924L69.5197 5.97923C69.5197 5.97923 73.0055 -14.216 64.2528 -21.5405C70.0241 -7.40521 60.5446 7.66924 60.5446 7.66924Z" fill="url(#paint8_linear_19708_32673)"/>
<path d="M73.6897 3.89595L78.5592 11.2512C78.5592 11.2512 82.5916 -5.44609 96.2656 -10.965C85.3182 -12.1074 73.6897 3.89595 73.6897 3.89595Z" fill="url(#paint9_linear_19708_32673)"/>
<path d="M82.6387 7.74985L83.7581 12.6159C83.7581 12.6159 89.2463 4.57262 97.6019 4.37674C92.0199 1.58875 82.6387 7.74985 82.6387 7.74985Z" fill="url(#paint10_linear_19708_32673)"/>
<defs>
<radialGradient id="paint0_radial_19708_32673" cx="0" cy="0" r="1" gradientUnits="userSpaceOnUse" gradientTransform="translate(36.9882 71.1625) scale(62.0066 41.27)">
<stop stop-color="white"/>
<stop offset="1" stop-color="white" stop-opacity="0"/>
</radialGradient>
<radialGradient id="paint1_radial_19708_32673" cx="0" cy="0" r="1" gradientUnits="userSpaceOnUse" gradientTransform="translate(69.6224 53.6359) rotate(27.1303) scale(17.6708 17.6166)">
<stop stop-color="white"/>
<stop offset="0.56" stop-color="white"/>
<stop offset="0.97" stop-color="#D6D6D6"/>
<stop offset="1" stop-color="#C6C6C6"/>
</radialGradient>
<radialGradient id="paint2_radial_19708_32673" cx="0" cy="0" r="1" gradientUnits="userSpaceOnUse" gradientTransform="translate(69.6191 53.6349) rotate(27.1303) scale(9.5055 9.47632)">
<stop stop-color="white"/>
<stop offset="0.66" stop-color="#A4E1A4"/>
<stop offset="1" stop-color="#00AA00"/>
</radialGradient>
<radialGradient id="paint3_radial_19708_32673" cx="0" cy="0" r="1" gradientUnits="userSpaceOnUse" gradientTransform="translate(32.4359 33.8783) rotate(27.1303) scale(17.6708 17.6165)">
<stop stop-color="white"/>
<stop offset="0.56" stop-color="white"/>
<stop offset="0.97" stop-color="#D6D6D6"/>
<stop offset="1" stop-color="#C6C6C6"/>
</radialGradient>
<radialGradient id="paint4_radial_19708_32673" cx="0" cy="0" r="1" gradientUnits="userSpaceOnUse" gradientTransform="translate(32.4389 33.8784) rotate(27.1303) scale(9.50693 9.47775)">
<stop stop-color="white"/>
<stop offset="0.66" stop-color="#A4E1A4"/>
<stop offset="1" stop-color="#00AA00"/>
</radialGradient>
<linearGradient id="paint5_linear_19708_32673" x1="34.5778" y1="25.6575" x2="34.5778" y2="29.6273" gradientUnits="userSpaceOnUse">
<stop offset="0.130208" stop-color="white"/>
<stop offset="1" stop-color="#999999" stop-opacity="0.1"/>
</linearGradient>
<linearGradient id="paint6_linear_19708_32673" x1="72.0504" y1="44.8568" x2="72.0504" y2="48.8266" gradientUnits="userSpaceOnUse">
<stop offset="0.130208" stop-color="white"/>
<stop offset="1" stop-color="#999999" stop-opacity="0.1"/>
</linearGradient>
<linearGradient id="paint7_linear_19708_32673" x1="52.9445" y1="0.363968" x2="52.9445" y2="16.9976" gradientUnits="userSpaceOnUse">
<stop stop-color="white"/>
<stop offset="1" stop-color="white" stop-opacity="0.2"/>
</linearGradient>
<linearGradient id="paint8_linear_19708_32673" x1="72.6731" y1="5.38513" x2="60.5514" y2="7.70505" gradientUnits="userSpaceOnUse">
<stop stop-color="#600000"/>
<stop offset="1" stop-color="#B01622"/>
</linearGradient>
<linearGradient id="paint9_linear_19708_32673" x1="71.9748" y1="1.31432" x2="78.529" y2="11.2711" gradientUnits="userSpaceOnUse">
<stop stop-color="#600000"/>
<stop offset="1" stop-color="#B01622"/>
</linearGradient>
<linearGradient id="paint10_linear_19708_32673" x1="82.2491" y1="6.03932" x2="83.7329" y2="12.6216" gradientUnits="userSpaceOnUse">
<stop stop-color="#600000"/>
<stop offset="1" stop-color="#B01622"/>
</linearGradient>
</defs>
</svg>
