<svg width="26" height="33" viewBox="0 0 26 33" fill="none" xmlns="http://www.w3.org/2000/svg">
<path d="M-4.59414 24.9535C-5.83908 25.939 -7.64698 25.7292 -8.63291 24.4845C-9.61885 23.2398 -9.40936 21.4318 -8.16466 20.446C-6.91948 19.4608 1.70405 14.2726 2.68975 15.517C3.67538 16.7619 -3.34997 23.9676 -4.59414 24.9535Z" fill="#DB1375"/>
<path opacity="0.2" d="M-4.98375 24.2121C-5.89878 24.9364 -7.22792 24.7824 -7.95311 23.8676C-8.67747 22.9526 -8.52305 21.6236 -7.60825 20.899C-6.69315 20.1742 -0.354581 16.3615 0.369837 17.276C1.09473 18.1911 -4.06894 23.4876 -4.98375 24.2121Z" fill="white"/>
<path d="M25.5338 35.9657C25.849 37.5215 27.367 38.5276 28.9228 38.2122C30.4785 37.8964 31.4848 36.3793 31.1688 34.8233C30.8529 33.2676 27.6084 23.7412 26.053 24.0565C24.4968 24.3724 25.2182 34.4096 25.5338 35.9657Z" fill="#DB1375"/>
<path opacity="0.2" d="M26.3086 35.6506C26.5409 36.7943 27.6563 37.5337 28.7993 37.3021C29.9434 37.0699 30.6829 35.9549 30.4511 34.8112C30.2192 33.6671 27.8334 26.6651 26.6896 26.8969C25.5463 27.1289 26.0768 34.5069 26.3086 35.6506Z" fill="white"/>
<path d="M27.3746 31.9421C27.9332 30.4139 28.3444 28.992 28.6126 27.6655C28.7949 28.0756 28.9756 28.5023 29.1506 28.9334C28.8638 30.1316 28.4776 31.3984 27.9874 32.7394C27.4617 34.1775 26.7849 35.6263 25.9977 37.0458C25.7712 36.7276 25.606 36.3586 25.5236 35.9512C25.5228 35.9476 25.5216 35.9423 25.5204 35.9386C26.2558 34.6222 26.8865 33.2773 27.3746 31.9421Z" fill="#B21F5B"/>
<path d="M29.8227 19.8433C27.8532 20.3882 26.076 20.1773 25.8524 19.3723C25.6304 18.5672 27.0461 17.4731 29.0159 16.9281C30.9857 16.3828 32.7627 16.5933 32.9856 17.3986C33.2091 18.2033 31.7927 19.2976 29.8227 19.8433Z" fill="#DB1375"/>
<path d="M28.0315 22.6231C26.1142 21.9137 24.7955 20.7039 25.0854 19.9203C25.3752 19.1371 27.1642 19.0771 29.0811 19.7864C30.9979 20.4956 32.317 21.7055 32.0268 22.489C31.737 23.2722 29.9483 23.3323 28.0315 22.6231Z" fill="#DB1375"/>
<path d="M26.0488 15.4641C24.7701 17.0578 24.2602 18.7736 24.9122 19.2968C25.5643 19.8192 27.1289 18.9509 28.4083 17.3576C29.6869 15.7634 30.1968 14.0476 29.5446 13.5247C28.8928 13.002 27.3275 13.8698 26.0488 15.4641Z" fill="#DB1375"/>
<path d="M2.42549 9.82689C3.57904 11.5131 5.07344 12.4984 5.76319 12.0276C6.4524 11.5553 6.0761 9.80609 4.92211 8.11923C3.76823 6.43185 2.27457 5.44693 1.58472 5.91831C0.895185 6.38948 1.27192 8.13929 2.42549 9.82689Z" fill="#DB1375"/>
<path d="M2.00199 13.1085C3.92471 13.8028 5.71317 13.7288 5.99659 12.9429C6.28024 12.1574 4.95205 10.9579 3.02933 10.2636C1.10697 9.56938 -0.681489 9.64335 -0.96491 10.4293C-1.24856 11.2148 0.0796302 12.4142 2.00199 13.1085Z" fill="#DB1375"/>
<path d="M8.13375 8.91478C8.08285 10.9579 7.36609 12.5976 6.53078 12.5771C5.69548 12.5561 5.05924 10.8831 5.10975 8.84042C5.16064 6.79734 5.8774 5.15758 6.71271 5.1785C7.54802 5.19904 8.18426 6.87169 8.13375 8.91478Z" fill="#DB1375"/>
<path d="M27.5969 31.6242C31.369 21.3053 27.1063 16.7978 16.7858 13.0251C6.46637 9.25282 0.300931 9.94828 -3.47117 20.2672C-6.18238 27.6839 -5.12695 38.7739 -1.01382 40.3291C2.27885 41.5738 2.91919 38.9579 6.78684 40.3782C10.604 41.7809 9.16581 44.3382 12.189 45.4169C17.4334 47.2876 24.6451 39.6991 27.5969 31.6242Z" fill="#DB1375"/>
<path opacity="0.2" d="M30.4852 22.4035C30.7193 21.7699 29.739 20.8143 28.2565 20.189C28.3617 20.1649 28.4685 20.1376 28.5752 20.1083C30.2835 19.6362 31.5112 18.6869 31.318 17.9885C31.125 17.2906 29.5833 17.108 27.8752 17.5805C27.7684 17.6102 27.6637 17.6418 27.5609 17.675C28.5108 16.3769 28.8605 15.0532 28.3328 14.6302C27.7676 14.1764 26.411 14.9299 25.3013 16.3115C24.1923 17.6938 23.7512 19.1816 24.3158 19.6348C24.5092 19.79 24.7956 19.8041 25.1323 19.6995L25.1329 19.7009C24.7962 19.7835 24.5617 19.9389 24.4716 20.1642C22.6365 18.4326 19.6999 17.1282 15.8072 15.7052C12.0293 14.3242 9.01152 13.4385 6.53435 13.5157C6.56902 13.3052 6.48576 13.0657 6.3063 12.8192C6.3063 12.8192 6.30715 12.8191 6.30728 12.8188C6.30728 12.8188 6.30813 12.8187 6.30826 12.8183C6.49811 13.1154 6.72605 13.2894 6.9739 13.2954C7.69838 13.3135 8.32016 11.8917 8.36399 10.12C8.40733 8.34861 7.85613 6.89773 7.13152 6.88005C6.45618 6.86329 5.86942 8.10025 5.75778 9.70483C5.70096 9.61331 5.64102 9.52147 5.57853 9.42992C4.57789 7.96721 3.28253 7.11273 2.68426 7.52137C2.08658 7.93063 2.41296 9.44813 3.41337 10.9103C3.476 11.0015 3.53999 11.0912 3.60445 11.1774C2.06827 10.6992 0.703168 10.7974 0.473398 11.4326C0.227207 12.1139 1.37938 13.1543 3.04671 13.7565C3.36359 13.8707 3.67607 13.9613 3.97703 14.0278C1.75829 14.9341 0.0493457 17.1042 -1.40603 21.0855C-4.75742 30.2535 -2.32142 36.866 6.84667 40.2175C16.0148 43.5689 22.1411 40.0863 25.4925 30.9183C26.9599 26.904 27.043 24.1306 25.9031 21.9999C26.2355 22.1917 26.6121 22.3684 27.0206 22.5202C28.6824 23.135 30.2336 23.0828 30.4852 22.4035Z" fill="white"/>
<ellipse opacity="0.5" cx="11.9524" cy="26.2161" rx="15.3978" ry="14.3746" transform="rotate(20.08 11.9524 26.2161)" fill="url(#paint0_radial_19708_41702)"/>
<path d="M11.6212 27.1472C7.10371 25.4958 4.62096 21.2702 3.98228 18.1188C3.84744 20.9826 6.16371 26.332 11.2408 28.188C16.2784 30.0295 21.5635 27.4254 23.2988 25.1475C20.7685 27.1486 16.1039 28.7858 11.6212 27.1472Z" fill="white"/>
<path d="M11.6702 27.0101C7.15267 25.3587 4.66979 21.1335 4.03124 17.9817C3.89626 20.8458 6.21241 26.1957 11.2895 28.0516C16.3271 29.8931 21.6124 27.2883 23.3477 25.0107C20.8173 27.0119 16.1529 28.6488 11.6702 27.0101Z" fill="#6D0F0F"/>
<path d="M26.3949 17.3369C24.451 22.6546 18.4583 25.3513 13.0086 23.3591C7.55993 21.3674 4.71812 15.4412 6.66198 10.1235C8.60585 4.80593 14.5996 2.10961 20.0483 4.10137C25.498 6.09353 28.3387 12.0193 26.3949 17.3369Z" fill="#DB1375"/>
<path fill-rule="evenodd" clip-rule="evenodd" d="M24.9885 16.6676C23.2907 21.312 18.149 23.7007 13.5042 22.0027C8.85935 20.3048 6.4703 15.1633 8.16808 10.5189C9.86586 5.87443 15.0076 3.48582 19.6524 5.18375C24.2972 6.88168 26.6863 12.0232 24.9885 16.6676Z" fill="url(#paint1_radial_19708_41702)"/>
<path fill-rule="evenodd" clip-rule="evenodd" d="M22.5446 15.7739C21.3402 19.0686 17.6927 20.7631 14.3976 19.5586C11.1026 18.3541 9.40779 14.7067 10.6122 11.412C11.8166 8.11722 15.4641 6.42274 18.7592 7.62725C22.0542 8.83176 23.749 12.4791 22.5446 15.7739Z" fill="url(#paint2_radial_19708_41702)"/>
<path d="M19.3678 14.6127C18.8043 16.1542 17.0984 16.9466 15.5568 16.3831C14.0152 15.8196 13.2226 14.1138 13.7861 12.5723C14.3494 11.0312 16.0554 10.2384 17.597 10.8019C19.1386 11.3654 19.9311 13.0716 19.3678 14.6127Z" fill="#49482A"/>
<path opacity="0.2" d="M17.2861 37.7392C16.4173 40.116 11.9475 40.6665 7.30267 38.9686C2.65854 37.2709 -0.403129 33.9672 0.465691 31.5905C1.33425 29.2145 5.80476 28.6642 10.4489 30.3619C15.0937 32.0598 18.1547 35.3632 17.2861 37.7392Z" fill="white"/>
<ellipse cx="17.6562" cy="10.646" rx="3.5365" ry="2.71709" transform="rotate(20.08 17.6562 10.646)" fill="url(#paint3_radial_19708_41702)"/>
<defs>
<radialGradient id="paint0_radial_19708_41702" cx="0" cy="0" r="1" gradientUnits="userSpaceOnUse" gradientTransform="translate(11.9524 24.7596) rotate(90) scale(15.8031 14.4506)">
<stop stop-color="#D9D9D9"/>
<stop offset="0.224916" stop-color="#E4E4E4" stop-opacity="0.36"/>
<stop offset="0.521135" stop-color="#C57730" stop-opacity="0.24"/>
<stop offset="1" stop-opacity="0"/>
</radialGradient>
<radialGradient id="paint1_radial_19708_41702" cx="0" cy="0" r="1" gradientUnits="userSpaceOnUse" gradientTransform="translate(16.5784 13.5932) rotate(20.08) scale(8.95452 8.95375)">
<stop stop-color="white"/>
<stop offset="0.56" stop-color="white"/>
<stop offset="0.97" stop-color="#D6D6D6"/>
<stop offset="1" stop-color="#C6C6C6"/>
</radialGradient>
<radialGradient id="paint2_radial_19708_41702" cx="0" cy="0" r="1" gradientUnits="userSpaceOnUse" gradientTransform="translate(16.5782 13.593) rotate(20.08) scale(6.35234 6.35178)">
<stop stop-color="white"/>
<stop offset="1" stop-color="#9757EE"/>
</radialGradient>
<radialGradient id="paint3_radial_19708_41702" cx="0" cy="0" r="1" gradientUnits="userSpaceOnUse" gradientTransform="translate(17.6562 16.3668) rotate(-90) scale(8.43785 10.9825)">
<stop offset="0.401042" stop-color="#2E2A49"/>
<stop offset="0.546875" stop-color="#2E2A49" stop-opacity="0"/>
<stop offset="0.645833" stop-color="white" stop-opacity="0"/>
<stop offset="0.760417" stop-color="#B0C5FB" stop-opacity="0.33"/>
<stop offset="0.984375" stop-color="white"/>
</radialGradient>
</defs>
</svg>
