<svg width="32" height="32" viewBox="0 0 63 72" fill="none" xmlns="http://www.w3.org/2000/svg">
<g filter="url(#filter0_d_18821_11903)">
<g clip-path="url(#clip0_18821_11903)">
<rect x="16.5059" y="12" width="25.9623" height="32" rx="4" fill="#9E1107"/>
<path d="M46.0157 8.55727C42.8293 7.27012 42.7562 13.2821 39.1703 20.2299C35.5425 27.2572 35.3293 27.3151 39.4491 29.4414C45.9441 32.793 50.6285 10.421 46.0157 8.55727Z" fill="#FF122F"/>
<path opacity="0.2" d="M45.7107 9.90642C43.0303 8.8239 42.969 13.881 39.9517 19.7254C36.9013 25.6368 36.7211 25.6853 40.1863 27.4734C45.6502 30.2932 49.5909 11.474 45.7107 9.90642Z" fill="white"/>
<path d="M4.99285 32.2424C5.47107 28.8395 10.7139 31.7823 18.5243 32.1504C26.4241 32.5223 26.5806 32.3668 26.3618 36.9979C26.0171 44.2984 4.29995 37.1694 4.99285 32.2424Z" fill="#FF122F"/>
<path opacity="0.2" d="M6.31305 32.6536C6.71573 29.7911 11.126 32.2665 17.696 32.5757C24.3411 32.8893 24.4727 32.7578 24.2887 36.6528C23.9992 42.7943 5.73055 36.7977 6.31305 32.6536Z" fill="white"/>
<path d="M45.0424 22.1594C40.5953 14.4567 29.3877 9.46538 21.6841 13.9131C13.981 18.3605 12.6995 30.5623 17.1467 38.265C20.2262 43.5989 26.2743 47.159 31.0877 45.3347C33.2254 44.5248 33.5876 40.001 35.9563 38.6334C38.469 37.1827 42.6893 39.0493 44.512 37.5033C45.2022 36.9175 45.7579 36.2053 46.187 35.4011C48.0966 31.8171 47.4897 26.3982 45.0424 22.1594Z" fill="#FF122F"/>
<path d="M6.96551 20.7556C7.11079 20.8594 7.27471 20.9552 7.44886 21.0465C7.44838 21.0475 7.44801 21.0481 7.44711 21.0489C11.8822 23.55 16.4909 24.7552 19.7319 22.884C22.1511 21.4873 23.5199 18.5908 24.0613 15.0859C23.0902 14.4632 19.807 12.8691 17.4293 13.0793C18.3275 13.4162 18.6 13.5253 19.2379 14.0701C16.5206 14.1327 13.0325 14.9184 10.3784 17.1931C12.7533 16.0832 13.5696 16.2777 14.2113 16.4012C12.9782 17.1482 9.78655 17.3506 7.41441 19.8529C7.86018 19.6028 9.66889 18.5488 10.4202 18.6976C10.2359 18.9108 7.46968 19.796 6.96551 20.7556Z" fill="#FF122F"/>
<path d="M8.73694 22.9907C8.8935 22.9458 9.06288 22.9128 9.24065 22.8872C9.24072 22.8861 9.24042 22.8856 9.24038 22.8849C13.8105 22.0761 18.1377 22.4343 20.3578 25.0242C22.0147 26.9567 22.3149 29.8617 21.7193 33.0385C20.6955 33.2796 17.3901 33.657 15.4095 32.7571C16.2842 32.7391 16.551 32.7277 17.2645 32.4521C14.9473 31.5762 12.1862 29.8454 10.5929 27.0862C12.2989 28.7594 13.0593 28.839 13.6489 28.927C12.8145 27.9121 10.1318 26.772 8.84994 23.9027C9.15753 24.2528 10.3932 25.7063 11.0845 25.8057C10.9902 25.5666 8.87986 23.9684 8.73694 22.9907Z" fill="#FF122F"/>
<path d="M34.9695 4.58752C34.9865 4.76539 34.9873 4.95541 34.9795 5.15173C34.9804 5.15194 34.9815 5.1516 34.9825 5.15141C34.9312 10.2426 33.6705 14.8366 30.4296 16.7077C28.0104 18.1045 24.8173 17.8418 21.511 16.5584C21.4578 15.4057 21.7188 11.7653 23.0895 9.81142C22.9319 10.7579 22.8907 11.0481 23.0435 11.873C24.4563 9.55097 26.8808 6.92307 30.1779 5.76195C28.0292 7.26371 27.7895 8.06785 27.5754 8.6855C28.8385 7.99125 30.6099 5.32828 33.9633 4.52492C33.5238 4.78593 31.7064 5.82548 31.4598 6.55034C31.7367 6.49738 33.8861 4.54449 34.9695 4.58752Z" fill="#FF122F"/>
<path d="M36.0182 7.24043C35.9012 7.35339 35.7878 7.48377 35.6772 7.62461C35.6762 7.62413 35.6759 7.62361 35.6751 7.62339C32.6896 11.1768 30.8365 15.1032 31.9694 18.3208C32.8142 20.7222 35.1799 22.4346 38.2292 23.5071C38.9496 22.7411 40.9294 20.0671 41.1401 17.9021C40.6872 18.6506 40.5441 18.8758 39.9482 19.3562C40.3487 16.9112 40.2299 13.655 38.6373 10.8953C39.2335 13.2092 38.922 13.9077 38.7037 14.4622C38.2415 13.2325 38.596 10.3388 36.752 7.79401C36.9014 8.23543 37.5423 10.0323 37.2827 10.6807C37.1221 10.4799 36.7936 7.85289 36.0182 7.24043Z" fill="#FF122F"/>
<path opacity="0.2" d="M36.8228 16.9225C36.7373 15.5689 36.3999 14.1384 35.6536 12.8458C36.1254 14.6774 35.879 15.2301 35.7057 15.6691C35.3404 14.6956 35.621 12.4053 34.1614 10.3917C34.2795 10.7409 34.7865 12.163 34.5814 12.6762C34.4548 12.5169 34.1946 10.4378 33.5812 9.95276C33.488 10.0426 33.3983 10.1461 33.3103 10.2576L33.3094 10.2561C33.0408 10.5756 32.7839 10.8987 32.5407 11.2244C32.6808 10.2929 32.7508 9.30887 32.7609 8.30006C32.7597 8.3004 32.7596 8.30014 32.7586 8.30033C32.7652 8.1446 32.7643 7.99457 32.7507 7.85391C31.8931 7.81967 30.1917 9.36538 29.9727 9.40747C30.1677 8.83351 31.6065 8.0108 31.9545 7.80468C29.3003 8.43992 27.8985 10.5478 26.8987 11.0973C27.0681 10.6082 27.2573 9.97195 28.9584 8.78337C26.3487 9.70238 24.4295 11.7825 23.3113 13.6201C23.1911 12.9673 23.2236 12.7375 23.3481 11.9881C22.7425 12.8512 22.4113 14.128 22.2436 15.2479C21.1896 14.8333 19.9176 14.4822 18.8678 14.5749C19.5788 14.8419 19.7945 14.9283 20.2993 15.3591C18.1488 15.4087 15.388 16.0306 13.2867 17.8314C15.1669 16.9523 15.8127 17.1064 16.3213 17.2042C15.3452 17.7954 12.8186 17.9556 10.9416 19.9364C11.2942 19.7381 12.7255 18.9037 13.3206 19.0216C13.1742 19.1904 10.9848 19.891 10.5862 20.6506C10.7009 20.7328 10.8307 20.8085 10.9688 20.8807C10.9684 20.8812 10.9681 20.8818 10.9674 20.8825C11.8462 21.3781 12.7333 21.8096 13.6099 22.1542C13.2062 22.202 12.7979 22.2628 12.3871 22.3355C12.387 22.336 12.3873 22.3365 12.3878 22.3373C12.247 22.3578 12.1127 22.3837 11.9889 22.4191C12.1019 23.193 13.7722 24.458 13.847 24.6472C13.2998 24.5684 12.3218 23.4182 12.0781 23.1416C13.0929 25.4119 15.2164 26.3142 15.8763 27.1176C15.41 27.0479 14.8082 26.985 13.4576 25.6607C14.2746 27.0758 15.4801 28.1488 16.7262 28.9177C16.8204 32.252 17.6962 35.6253 19.2941 38.393C23.4919 45.6638 28.8049 42.0541 35.6485 38.1029C42.4924 34.1516 48.275 31.3552 44.0772 24.0845C42.4172 21.2093 39.8014 18.6828 36.8228 16.9225Z" fill="white"/>
<ellipse opacity="0.9" cx="30.3593" cy="28.3976" rx="14.8391" ry="9.19222" transform="rotate(-30 30.3593 28.3976)" fill="url(#paint0_radial_18821_11903)"/>
<path d="M42.848 24.367C43.5937 25.6586 43.1512 27.3104 41.8592 28.0563L24.0593 38.3331C22.7673 39.079 21.1156 38.6363 20.3699 37.3447C19.6242 36.0531 20.0666 34.4013 21.3586 33.6554L39.1586 23.3786C40.4505 22.6327 42.1023 23.0754 42.848 24.367Z" fill="white"/>
<path d="M25.7578 23.0161C27.0209 25.2038 26.2718 28.0012 24.0839 29.2644C21.8958 30.5277 19.0984 29.7779 17.8353 27.5902C16.5721 25.4022 17.3216 22.6049 19.5097 21.3416C21.6976 20.0784 24.4946 20.8282 25.7578 23.0161Z" fill="#DA4854"/>
<path fill-rule="evenodd" clip-rule="evenodd" d="M25.5003 23.1638C26.6816 25.2099 25.9804 27.8263 23.9342 29.0077C21.8879 30.1891 19.2714 29.4882 18.0901 27.4421C16.9088 25.396 17.61 22.7796 19.6563 21.5982C21.7025 20.4168 24.319 21.1177 25.5003 23.1638Z" fill="url(#paint1_radial_18821_11903)"/>
<path fill-rule="evenodd" clip-rule="evenodd" d="M23.7914 24.1524C24.4269 25.2531 24.0496 26.6607 22.9488 27.2962C21.848 27.9318 20.4405 27.5547 19.805 26.454C19.1695 25.3532 19.5467 23.9457 20.6475 23.3102C21.7483 22.6746 23.1559 23.0517 23.7914 24.1524Z" fill="url(#paint2_radial_18821_11903)"/>
<path d="M22.7274 24.765C23.0247 25.2799 22.8482 25.9382 22.3335 26.2354C21.8183 26.5329 21.16 26.3565 20.8627 25.8416C20.5654 25.3267 20.7418 24.6683 21.257 24.3709C21.7718 24.0737 22.4301 24.2501 22.7274 24.765Z" fill="#2E2A49"/>
<ellipse cx="21.2309" cy="24.3176" rx="1.28134" ry="0.984699" transform="rotate(-30 21.2309 24.3176)" fill="url(#paint3_radial_18821_11903)"/>
<path d="M35.453 17.4192C36.7162 19.6071 35.9671 22.4046 33.7785 23.6682C31.5906 24.9314 28.7932 24.1815 27.5299 21.9935C26.2667 19.8056 27.0162 17.0083 29.2041 15.7451C31.3927 14.4815 34.1897 15.2312 35.453 17.4192Z" fill="#DA4854"/>
<path fill-rule="evenodd" clip-rule="evenodd" d="M35.1959 17.5671C36.3772 19.6133 35.676 22.2297 33.6297 23.4112C31.5834 24.5926 28.9668 23.8916 27.7855 21.8455C26.6042 19.7994 27.3054 17.1829 29.3517 16.0014C31.398 14.82 34.0145 15.521 35.1959 17.5671Z" fill="url(#paint4_radial_18821_11903)"/>
<path fill-rule="evenodd" clip-rule="evenodd" d="M33.4828 18.5557C34.1183 19.6564 33.741 21.064 32.6402 21.6995C31.5394 22.3351 30.1319 21.958 29.4964 20.8573C28.8609 19.7566 29.2381 18.349 30.3389 17.7135C31.4397 17.0779 32.8473 17.455 33.4828 18.5557Z" fill="url(#paint5_radial_18821_11903)"/>
<path d="M32.4225 19.1681C32.72 19.6832 32.5436 20.3416 32.0288 20.6387C31.5139 20.936 30.8558 20.7595 30.5584 20.2443C30.2611 19.7294 30.4372 19.0712 30.9522 18.7739C31.4669 18.4768 32.1253 18.6531 32.4225 19.1681Z" fill="#2E2A49"/>
<ellipse cx="30.9223" cy="18.7219" rx="1.28134" ry="0.984699" transform="rotate(-30 30.9223 18.7219)" fill="url(#paint6_radial_18821_11903)"/>
<path d="M21.2931 33.5487C20.0042 34.2929 19.5645 35.9486 20.3087 37.2375C21.0556 38.5312 22.7065 38.9734 23.9954 38.2293L41.7985 27.9507C43.0874 27.2065 43.5298 25.5556 42.7829 24.2619C42.0388 22.9731 40.3851 22.526 39.0962 23.2701L21.2931 33.5487Z" fill="url(#paint7_linear_18821_11903)"/>
<path d="M21.1367 33.6416L21.3618 34.0314C21.5653 34.3839 22.0167 34.5053 22.3693 34.3017C22.7224 34.0979 22.8427 33.6464 22.6391 33.2939L22.4141 32.9041L21.1367 33.6416Z" fill="#EDDD9A"/>
<path d="M21.2363 33.584L21.4262 33.9129C21.5978 34.21 21.9782 34.3119 22.2757 34.1402C22.5734 33.9683 22.6753 33.5879 22.5038 33.2907L22.3139 32.9619L21.2363 33.584Z" fill="white"/>
<rect width="1.47501" height="0.434141" transform="matrix(-0.866025 0.5 0.5 0.866025 22.4141 32.9043)" fill="#E66D28"/>
<path d="M22.8147 32.6727C22.8152 32.6735 22.8158 32.6752 22.8164 32.6762L23.0395 33.0626C23.243 33.4152 23.6947 33.5364 24.0473 33.3328C24.3998 33.1293 24.5207 32.6775 24.3171 32.325L24.094 31.9386C24.0934 31.9375 24.0923 31.9361 24.0918 31.9354L22.8147 32.6727Z" fill="#EDDD9A"/>
<path d="M22.916 32.6152L23.1059 32.9441C23.2774 33.2413 23.6577 33.3433 23.9551 33.1716C24.2525 32.9999 24.3547 32.6193 24.1832 32.3222L23.9933 31.9933L22.916 32.6152Z" fill="white"/>
<rect width="1.47499" height="0.434141" transform="matrix(-0.866025 0.5 0.5 0.866025 24.0918 31.9355)" fill="#E66D28"/>
<path d="M24.4922 31.7041L24.7172 32.0939C24.9208 32.4464 25.3721 32.5678 25.7253 32.3639C26.0778 32.1603 26.1984 31.7088 25.9949 31.3562L25.7698 30.9664L24.4922 31.7041Z" fill="#EDDD9A"/>
<path d="M24.5921 31.6463C24.5922 31.6473 24.5928 31.6483 24.5934 31.6493L24.7817 31.9754C24.9532 32.2725 25.3337 32.3744 25.6311 32.2027C25.9286 32.031 26.0305 31.6505 25.859 31.3534L25.6707 31.0274C25.6701 31.0263 25.6693 31.0254 25.6688 31.0247L24.5921 31.6463Z" fill="white"/>
<rect width="1.47532" height="0.43384" transform="matrix(0.866025 -0.5 -0.5 -0.866025 24.709 32.0801)" fill="#E66D28"/>
<path d="M26.1719 30.7354L26.3969 31.1251C26.6005 31.4777 27.0518 31.599 27.4049 31.3952C27.7575 31.1916 27.8781 30.74 27.6746 30.3875L27.4495 29.9977L26.1719 30.7354Z" fill="#EDDD9A"/>
<path d="M26.2715 30.6777L26.4614 31.0066C26.6329 31.3038 27.0134 31.4057 27.3111 31.2338C27.6085 31.0621 27.7105 30.6816 27.5389 30.3845L27.3491 30.0556L26.2715 30.6777Z" fill="white"/>
<rect width="1.4753" height="0.43384" transform="matrix(0.866025 -0.5 -0.5 -0.866025 26.3887 31.1113)" fill="#E66D28"/>
<path d="M27.8477 29.7666L28.0727 30.1564C28.2762 30.5089 28.7276 30.6303 29.0802 30.4267C29.4333 30.2229 29.5536 29.7714 29.3501 29.4189L29.1251 29.0291L27.8477 29.7666Z" fill="#EDDD9A"/>
<path d="M27.9492 29.709L28.1391 30.0379C28.3107 30.335 28.6911 30.4369 28.9885 30.2652C29.2862 30.0934 29.3882 29.7129 29.2166 29.4158L29.0268 29.0869L27.9492 29.709Z" fill="white"/>
<rect width="1.47501" height="0.433842" transform="matrix(0.866025 -0.5 -0.5 -0.866025 28.0645 30.1426)" fill="#E66D28"/>
<path d="M29.5259 28.7976C29.5264 28.7983 29.5267 28.8002 29.5273 28.8012L29.7504 29.1876C29.954 29.5402 30.4059 29.6612 30.7582 29.4578C31.1116 29.2538 31.2319 28.8024 31.0283 28.4498L30.8033 28.0601L29.5259 28.7976Z" fill="#EDDD9A"/>
<path d="M29.6275 28.7399C29.6279 28.7407 29.628 28.7421 29.6286 28.7431L29.8168 29.0691C29.9884 29.3663 30.3691 29.468 30.6663 29.2965C30.9642 29.1245 31.0662 28.744 30.8946 28.4468L30.7048 28.118L29.6275 28.7399Z" fill="white"/>
<rect width="1.47501" height="0.434141" transform="matrix(-0.866025 0.5 0.5 0.866025 30.8047 28.0605)" fill="#E66D28"/>
<path d="M31.2051 27.8291L31.4301 28.2189C31.6337 28.5714 32.085 28.6928 32.4381 28.4889C32.7907 28.2854 32.9116 27.8336 32.708 27.4811L32.4849 27.0947C32.4843 27.0936 32.4829 27.0924 32.4825 27.0916L31.2051 27.8291Z" fill="#EDDD9A"/>
<path d="M31.3052 27.7712C31.3051 27.7723 31.3057 27.7733 31.3063 27.7743L31.4946 28.1004C31.6661 28.3975 32.0466 28.4994 32.3443 28.3276C32.6417 28.1559 32.7437 27.7754 32.5721 27.4783L32.3822 27.1494L31.3052 27.7712Z" fill="white"/>
<rect width="1.47558" height="0.43384" transform="matrix(0.866025 -0.5 -0.5 -0.866025 31.4219 28.2051)" fill="#E66D28"/>
<path d="M32.8848 26.8604L33.1098 27.2501C33.3133 27.6027 33.7647 27.724 34.1173 27.5205C34.4704 27.3166 34.5907 26.8652 34.3872 26.5126L34.1622 26.1228L32.8848 26.8604Z" fill="#EDDD9A"/>
<path d="M32.9844 26.8018L33.1743 27.1306C33.3458 27.4278 33.7263 27.5297 34.0234 27.3581C34.3214 27.1861 34.4233 26.8057 34.2518 26.5085L34.0619 26.1796L32.9844 26.8018Z" fill="white"/>
<rect width="1.47499" height="0.434141" transform="matrix(-0.866025 0.5 0.5 0.866025 34.1582 26.123)" fill="#E66D28"/>
<path d="M34.5605 25.8906L34.7856 26.2804C34.9891 26.6329 35.4405 26.7543 35.7931 26.5507C36.1465 26.3467 36.2668 25.8953 36.0632 25.5427L35.8382 25.153L34.5605 25.8906Z" fill="#EDDD9A"/>
<path d="M34.6602 25.833L34.85 26.1619C35.0216 26.459 35.4021 26.561 35.6992 26.3894C35.9972 26.2174 36.0991 25.8369 35.9276 25.5398L35.7377 25.2109L34.6602 25.833Z" fill="white"/>
<rect width="1.47501" height="0.43384" transform="matrix(0.866025 -0.5 -0.5 -0.866025 34.7773 26.2666)" fill="#E66D28"/>
<path d="M36.2402 24.9219L36.4653 25.3116C36.6688 25.6642 37.1202 25.7856 37.4725 25.5821C37.8254 25.3784 37.9462 24.9267 37.7427 24.5741L37.5196 24.1878C37.519 24.1867 37.5176 24.1855 37.5171 24.1847L36.2402 24.9219Z" fill="#EDDD9A"/>
<path d="M36.3398 24.8643L36.5297 25.1931C36.7013 25.4903 37.0818 25.5922 37.3789 25.4206C37.6763 25.2489 37.7788 24.8682 37.6073 24.571L37.419 24.245C37.4184 24.244 37.4173 24.2432 37.4169 24.2424L36.3398 24.8643Z" fill="white"/>
<rect width="1.47501" height="0.434141" transform="matrix(-0.866025 0.5 0.5 0.866025 37.5156 24.1846)" fill="#E66D28"/>
<path d="M37.9185 23.9528C37.9189 23.9536 37.9193 23.9555 37.9199 23.9565L38.143 24.3429C38.3466 24.6955 38.7984 24.8165 39.151 24.6129C39.5036 24.4094 39.6239 23.9579 39.4204 23.6054L39.1954 23.2156L37.9185 23.9528Z" fill="#EDDD9A"/>
<path d="M38.0176 23.8955L38.2075 24.2244C38.379 24.5215 38.7592 24.6236 39.0567 24.4519C39.3541 24.2802 39.4558 23.8999 39.2842 23.6027L39.0944 23.2738L38.0176 23.8955Z" fill="white"/>
<rect width="1.4744" height="0.434141" transform="matrix(-0.866025 0.5 0.5 0.866025 39.1953 23.2158)" fill="#E66D28"/>
<path d="M23.8671 38.3017L23.6424 37.9125C23.4385 37.5594 23.5594 37.1083 23.912 36.9048C24.2651 36.7009 24.7159 36.8219 24.9198 37.175L25.1445 37.5642L23.8671 38.3017Z" fill="#EDDD9A"/>
<path d="M23.9655 38.2442L23.776 37.9158C23.6041 37.6182 23.7061 37.2377 24.0035 37.066C24.3012 36.8941 24.6816 36.996 24.8535 37.2937L25.0431 37.6221L23.9655 38.2442Z" fill="white"/>
<rect width="1.47501" height="0.434143" transform="matrix(-0.866025 0.5 0.5 0.866025 24.9277 37.1885)" fill="#E66D28"/>
<path d="M25.5451 37.3328C25.5447 37.332 25.5438 37.3311 25.5432 37.3301L25.3201 36.9437C25.1163 36.5906 25.2374 36.1394 25.59 35.9359C25.9429 35.7321 26.3939 35.853 26.5978 36.2061L26.8225 36.5953L25.5451 37.3328Z" fill="#EDDD9A"/>
<path d="M25.6452 37.2754L25.4556 36.9471C25.2838 36.6494 25.3855 36.2691 25.6829 36.0974C25.9806 35.9255 26.3611 36.0274 26.5329 36.3251L26.7211 36.6511C26.7214 36.6516 26.7215 36.653 26.722 36.6538L25.6452 37.2754Z" fill="white"/>
<rect width="1.47501" height="0.434141" transform="matrix(0.866025 -0.5 -0.5 -0.866025 25.5449 37.333)" fill="#E66D28"/>
<path d="M27.2228 36.3641C27.2224 36.3633 27.2215 36.3624 27.2209 36.3614L26.9979 35.975C26.794 35.6219 26.9151 35.1707 27.268 34.967C27.6206 34.7634 28.0719 34.8841 28.2758 35.2372L28.4988 35.6236C28.4994 35.6246 28.4998 35.6258 28.5002 35.6266L27.2228 36.3641Z" fill="#EDDD9A"/>
<path d="M27.3232 36.3065C27.3225 36.3059 27.3219 36.3048 27.3216 36.3043L27.1334 35.9783C26.9615 35.6807 27.0637 35.3 27.3609 35.1285C27.6583 34.9567 28.0391 35.0585 28.2109 35.3562L28.3992 35.6822C28.3995 35.6827 28.3998 35.6839 28.4002 35.6847L27.3232 36.3065Z" fill="white"/>
<rect width="1.47529" height="0.434143" transform="matrix(-0.866025 0.5 0.5 0.866025 28.2832 35.25)" fill="#E66D28"/>
<path d="M28.9003 35.3955L28.6756 35.0062C28.4717 34.6531 28.5931 34.2018 28.9457 33.9982C29.2986 33.7945 29.7494 33.9155 29.9532 34.2686L30.178 34.6578L28.9003 35.3955Z" fill="#EDDD9A"/>
<path d="M29.0009 35.3378C29.0002 35.3371 28.9996 35.3361 28.9993 35.3356L28.8111 35.0096C28.6393 34.7119 28.7415 34.3313 29.0389 34.1596C29.3363 33.9879 29.7168 34.0898 29.8886 34.3874L30.0782 34.7158L29.0009 35.3378Z" fill="white"/>
<rect width="1.47499" height="0.434141" transform="matrix(0.866025 -0.5 -0.5 -0.866025 28.9004 35.3955)" fill="#E66D28"/>
<path d="M30.58 34.4267L30.3553 34.0375C30.1514 33.6844 30.2723 33.2333 30.6249 33.0298C30.978 32.8259 31.4288 32.9469 31.6327 33.3L31.8574 33.6892L30.58 34.4267Z" fill="#EDDD9A"/>
<path d="M30.6784 34.3692L30.4888 34.0408C30.317 33.7432 30.419 33.3627 30.7164 33.191C31.0141 33.0191 31.3945 33.121 31.5664 33.4187L31.756 33.747L30.6784 34.3692Z" fill="white"/>
<rect width="1.47501" height="0.434143" transform="matrix(-0.866025 0.5 0.5 0.866025 31.6426 33.3125)" fill="#E66D28"/>
<path d="M32.2597 33.457L32.035 33.0677C31.8311 32.7147 31.952 32.2636 32.3043 32.0602C32.6572 31.8565 33.1085 31.9772 33.3124 32.3302L33.5371 32.7195L32.2597 33.457Z" fill="#EDDD9A"/>
<path d="M32.3581 33.3994L32.1685 33.0711C31.9967 32.7734 32.0986 32.393 32.3955 32.2215C32.6932 32.0497 33.0739 32.1515 33.2458 32.4491L33.434 32.7751C33.4343 32.7757 33.4344 32.777 33.4349 32.7778L32.3581 33.3994Z" fill="white"/>
<rect width="1.47499" height="0.434143" transform="matrix(-0.866025 0.5 0.5 0.866025 33.3164 32.3447)" fill="#E66D28"/>
<path d="M33.936 32.4889C33.9355 32.4881 33.9344 32.4874 33.9338 32.4864L33.7107 32.1C33.5069 31.7469 33.6283 31.2955 33.9809 31.092C34.3335 30.8884 34.7843 31.0094 34.9882 31.3625L35.2129 31.7517L33.936 32.4889Z" fill="#EDDD9A"/>
<path d="M34.0344 32.4304C34.034 32.4296 34.0328 32.4289 34.0325 32.4284L33.8443 32.1023C33.6725 31.8047 33.7749 31.4239 34.0721 31.2523C34.3695 31.0806 34.75 31.1826 34.9218 31.4802L35.1114 31.8086L34.0344 32.4304Z" fill="white"/>
<rect width="1.4744" height="0.434143" transform="matrix(-0.866025 0.5 0.5 0.866025 34.9961 31.375)" fill="#E66D28"/>
<path d="M35.6132 31.5205L35.3885 31.1312C35.1846 30.7781 35.3055 30.3271 35.6586 30.1232C36.0115 29.9195 36.4623 30.0405 36.6661 30.3936L36.8909 30.7828L35.6132 31.5205Z" fill="#EDDD9A"/>
<path d="M35.7141 31.4616C35.7136 31.4609 35.7125 31.4601 35.7122 31.4596L35.524 31.1336C35.3521 30.8359 35.4546 30.4552 35.7518 30.2836C36.0492 30.1119 36.4297 30.2138 36.6016 30.5115L36.7911 30.8398L35.7141 31.4616Z" fill="white"/>
<rect width="1.47501" height="0.434141" transform="matrix(0.866025 -0.5 -0.5 -0.866025 35.6133 31.5195)" fill="#E66D28"/>
<path d="M37.2929 30.5507L37.0682 30.1615C36.8643 29.8084 36.9852 29.3574 37.338 29.1536C37.6909 28.9499 38.1417 29.0709 38.3455 29.424L38.5703 29.8132L37.2929 30.5507Z" fill="#EDDD9A"/>
<path d="M37.3913 30.4932L37.2017 30.1648C37.0299 29.8672 37.1318 29.4867 37.4295 29.3148C37.727 29.1431 38.1074 29.245 38.2793 29.5427L38.4689 29.8711L37.3913 30.4932Z" fill="white"/>
<rect width="1.47503" height="0.434143" transform="matrix(-0.866025 0.5 0.5 0.866025 38.3535 29.4365)" fill="#E66D28"/>
<path d="M38.9692 29.5817C38.9687 29.5809 38.9676 29.5802 38.967 29.5791L38.7439 29.1927C38.5401 28.8397 38.6615 28.3883 39.0141 28.1847C39.3672 27.9809 39.818 28.1019 40.0219 28.4549L40.2466 28.8442L38.9692 29.5817Z" fill="#EDDD9A"/>
<path d="M39.071 29.5244L38.8814 29.1961C38.7096 28.8984 38.8115 28.518 39.109 28.3462C39.4066 28.1744 39.7871 28.2763 39.959 28.574L40.1486 28.9023L39.071 29.5244Z" fill="white"/>
<rect width="1.47499" height="0.434143" transform="matrix(-0.866025 0.5 0.5 0.866025 40.0293 28.4688)" fill="#E66D28"/>
<path d="M40.6484 28.6132L40.4236 28.224C40.2198 27.8709 40.3407 27.4199 40.6938 27.216C41.0464 27.0124 41.4977 27.1331 41.7015 27.4862L41.9263 27.8754L40.6484 28.6132Z" fill="#EDDD9A"/>
<path d="M40.7473 28.5554C40.7463 28.5549 40.7457 28.5539 40.7454 28.5534L40.5572 28.2273C40.3853 27.9297 40.4876 27.5491 40.785 27.3773C41.0824 27.2056 41.4632 27.3074 41.635 27.6051L41.8232 27.9311C41.8235 27.9316 41.8236 27.9329 41.8241 27.9337L40.7473 28.5554Z" fill="white"/>
<rect width="1.4756" height="0.434141" transform="matrix(0.866025 -0.5 -0.5 -0.866025 40.6484 28.6133)" fill="#E66D28"/>
<path d="M26.5192 14.6763C26.7722 15.1545 27.3556 15.3108 27.8562 15.0834C28.2495 14.9103 28.7998 14.3152 29.4715 13.65C30.3014 12.8318 31.3163 11.9068 32.4189 11.5476C29.1097 11.9556 27.4103 13.0831 26.9264 13.3394C26.9206 13.3427 26.9091 13.3494 26.8975 13.3561C26.4409 13.6197 26.2697 14.204 26.5192 14.6763Z" fill="url(#paint8_linear_18821_11903)"/>
<path d="M18.5629 18.1668C18.099 18.4578 16.2729 19.3657 14.2649 22.0276C15.1273 21.2523 16.4358 20.8358 17.5593 20.5262C18.4713 20.2771 19.2618 20.0981 19.6083 19.8441C20.0556 19.5242 20.2119 18.9408 19.9243 18.4827C19.6401 18.0304 19.0484 17.8865 18.5918 18.1502C18.5803 18.1568 18.5687 18.1635 18.5629 18.1668Z" fill="url(#paint9_linear_18821_11903)"/>
</g>
</g>
<defs>
<filter id="filter0_d_18821_11903" x="-3.49414" y="0" width="65.9629" height="72" filterUnits="userSpaceOnUse" color-interpolation-filters="sRGB">
<feFlood flood-opacity="0" result="BackgroundImageFix"/>
<feColorMatrix in="SourceAlpha" type="matrix" values="0 0 0 0 0 0 0 0 0 0 0 0 0 0 0 0 0 0 127 0" result="hardAlpha"/>
<feOffset dy="8"/>
<feGaussianBlur stdDeviation="10"/>
<feColorMatrix type="matrix" values="0 0 0 0 0.521569 0 0 0 0 0.0117647 0 0 0 0 0.0745098 0 0 0 0.3 0"/>
<feBlend mode="normal" in2="BackgroundImageFix" result="effect1_dropShadow_18821_11903"/>
<feBlend mode="normal" in="SourceGraphic" in2="effect1_dropShadow_18821_11903" result="shape"/>
</filter>
<radialGradient id="paint0_radial_18821_11903" cx="0" cy="0" r="1" gradientUnits="userSpaceOnUse" gradientTransform="translate(30.3593 28.3976) rotate(90) scale(9.17437 14.8391)">
<stop stop-color="white" stop-opacity="0.85"/>
<stop offset="0.40414" stop-color="white" stop-opacity="0.36"/>
<stop offset="0.681066" stop-color="#EC8F3A" stop-opacity="0.24"/>
<stop offset="1" stop-color="#EC8F3A" stop-opacity="0"/>
</radialGradient>
<radialGradient id="paint1_radial_18821_11903" cx="0" cy="0" r="1" gradientUnits="userSpaceOnUse" gradientTransform="translate(21.7951 25.3032) rotate(-30) scale(4.27827 4.2779)">
<stop stop-color="white"/>
<stop offset="0.56" stop-color="white"/>
<stop offset="0.97" stop-color="#D6D6D6"/>
<stop offset="1" stop-color="#C6C6C6"/>
</radialGradient>
<radialGradient id="paint2_radial_18821_11903" cx="0" cy="0" r="1" gradientUnits="userSpaceOnUse" gradientTransform="translate(21.7981 25.3033) rotate(-30) scale(2.30154 2.30134)">
<stop stop-color="white"/>
<stop offset="0.78" stop-color="#73B6F0"/>
<stop offset="1" stop-color="#007AE3"/>
</radialGradient>
<radialGradient id="paint3_radial_18821_11903" cx="0" cy="0" r="1" gradientUnits="userSpaceOnUse" gradientTransform="translate(21.2309 26.3908) rotate(-90) scale(3.05795 3.97916)">
<stop offset="0.401042" stop-color="#2E2A49"/>
<stop offset="0.546875" stop-color="#2E2A49" stop-opacity="0"/>
<stop offset="0.645833" stop-color="white" stop-opacity="0"/>
<stop offset="0.760417" stop-color="#B0C5FB" stop-opacity="0.33"/>
<stop offset="0.984375" stop-color="white"/>
</radialGradient>
<radialGradient id="paint4_radial_18821_11903" cx="0" cy="0" r="1" gradientUnits="userSpaceOnUse" gradientTransform="translate(31.4907 19.7064) rotate(-30) scale(4.27838 4.27801)">
<stop stop-color="white"/>
<stop offset="0.56" stop-color="white"/>
<stop offset="0.97" stop-color="#D6D6D6"/>
<stop offset="1" stop-color="#C6C6C6"/>
</radialGradient>
<radialGradient id="paint5_radial_18821_11903" cx="0" cy="0" r="1" gradientUnits="userSpaceOnUse" gradientTransform="translate(31.4894 19.707) rotate(-30) scale(2.30154 2.30134)">
<stop stop-color="white"/>
<stop offset="0.78" stop-color="#73B6F0"/>
<stop offset="1" stop-color="#007AE3"/>
</radialGradient>
<radialGradient id="paint6_radial_18821_11903" cx="0" cy="0" r="1" gradientUnits="userSpaceOnUse" gradientTransform="translate(30.9223 20.7951) rotate(-90) scale(3.05795 3.97916)">
<stop offset="0.401042" stop-color="#2E2A49"/>
<stop offset="0.546875" stop-color="#2E2A49" stop-opacity="0"/>
<stop offset="0.645833" stop-color="white" stop-opacity="0"/>
<stop offset="0.760417" stop-color="#B0C5FB" stop-opacity="0.33"/>
<stop offset="0.984375" stop-color="white"/>
</radialGradient>
<linearGradient id="paint7_linear_18821_11903" x1="21.7411" y1="39.7182" x2="18.9437" y2="34.8729" gradientUnits="userSpaceOnUse">
<stop stop-color="#600000"/>
<stop offset="1" stop-color="#B01622"/>
</linearGradient>
<linearGradient id="paint8_linear_18821_11903" x1="24.8693" y1="11.8186" x2="30.6489" y2="8.48175" gradientUnits="userSpaceOnUse">
<stop stop-color="#600000"/>
<stop offset="1" stop-color="#B01622"/>
</linearGradient>
<linearGradient id="paint9_linear_18821_11903" x1="18.2744" y1="15.625" x2="12.4948" y2="18.9618" gradientUnits="userSpaceOnUse">
<stop stop-color="#600000"/>
<stop offset="1" stop-color="#B01622"/>
</linearGradient>
<clipPath id="clip0_18821_11903">
<rect x="16.5059" y="12" width="25.9623" height="32" rx="4" fill="white"/>
</clipPath>
</defs>
</svg>
