<svg width="26" height="33" viewBox="0 0 26 33" fill="none" xmlns="http://www.w3.org/2000/svg">
<path d="M-9.0036 38.4155C-7.81775 39.5944 -5.89631 39.5896 -4.71352 38.4039C-3.53073 37.2187 -0.191539 31.9506 -1.37857 30.7711C-2.56502 29.5915 -7.82821 32.9477 -9.011 34.1335C-10.1944 35.3193 -10.1906 37.2365 -9.0036 38.4155Z" fill="#1496DB"/>
<path d="M37.079 36.4977C37.8843 38.6667 36.7748 41.0784 34.6009 41.8837C32.4268 42.6895 25.062 43.419 24.2567 41.2501C23.4512 39.082 29.5109 34.8352 31.6854 34.0292C33.8589 33.2241 36.2741 34.329 37.079 36.4977Z" fill="#1496DB"/>
<path d="M32.1012 -2.22876C34.2852 -0.0943835 34.3214 3.40499 32.1809 5.58755C30.0412 7.76922 22.8403 11.5756 20.6561 9.44093C18.4709 7.30774 22.1297 0.0408083 24.27 -2.14087C26.4106 -4.32402 29.9161 -4.36254 32.1012 -2.22876Z" fill="#1496DB"/>
<path d="M31.7775 -0.0666726C33.2683 1.63297 33.0969 4.21843 31.3919 5.70865C29.6886 7.19831 26.6191 8.11613 25.1281 6.41678C23.6359 4.71683 24.288 1.04441 25.9916 -0.446119C27.6963 -1.93605 30.2859 -1.76603 31.7775 -0.0666726Z" fill="#0076AA"/>
<path opacity="0.3" d="M29.4037 2.77266C30.274 3.74122 29.8869 5.50321 28.5395 6.70885C27.1934 7.91397 25.397 8.10614 24.527 7.13848C23.6571 6.16964 24.0433 4.40789 25.3901 3.20222C26.7374 1.99717 28.5335 1.80469 29.4037 2.77266Z" fill="#2E2A49"/>
<path d="M-11.808 7.16102C-12.9286 10.0022 -11.5305 13.2103 -8.68435 14.3262C-5.83953 15.442 2.28786 15.9703 3.40809 13.129C4.52918 10.2889 -1.7817 5.15391 -4.62706 4.03837C-7.47249 2.9219 -10.6875 4.32025 -11.808 7.16102Z" fill="#1496DB"/>
<path d="M33.0828 18.2963C35.5979 30.0571 30.6642 41.0819 18.8794 43.6022C7.09411 46.1225 -1.91722 38.0799 -4.43233 26.3191C-6.94744 14.5583 -2.01387 3.53302 9.77139 1.01269C21.5562 -1.50756 30.5677 6.53546 33.0828 18.2963Z" fill="#1496DB"/>
<path opacity="0.2" d="M30.3687 17.3371C32.562 27.5928 28.2595 37.2066 17.983 39.4043C7.7064 41.6019 -0.15137 34.5887 -2.3446 24.333C-4.53782 14.0774 -0.235717 4.46412 10.0409 2.26642C20.3174 0.0687217 28.1755 7.08146 30.3687 17.3371Z" fill="white"/>
<path d="M31.1343 16.5815C31.2011 15.4358 31.1176 14.2748 30.8699 13.1165C29.1178 4.92341 19.8112 -0.0318899 10.0831 2.04852C0.35495 4.12893 -6.11087 12.4572 -4.35873 20.6503C-4.07582 21.9732 -3.59596 23.2117 -2.94917 24.3498C-3.02995 25.4141 -2.96277 26.4903 -2.73365 27.5617C-1.10375 35.1832 8.10374 39.6751 17.8319 37.5947C27.56 35.5143 34.1249 27.6493 32.495 20.0278C32.2307 18.7919 31.7671 17.6382 31.1343 16.5815Z" fill="url(#paint0_radial_19708_42048)"/>
<path d="M22.0938 19.3034C21.8721 18.2669 20.785 17.5187 19.2068 17.1462C19.2057 17.135 19.2058 17.1235 19.2051 17.1122C17.6246 16.7373 15.5508 16.7398 13.3593 17.2085C11.2057 17.6691 9.33962 18.4942 8.05314 19.4602C8.05729 19.4716 8.06184 19.4829 8.06639 19.4943C8.06453 19.4955 8.06267 19.4968 8.06122 19.4979C8.06122 19.4979 8.06139 19.4987 8.06188 19.4991C6.73835 20.4946 6.02898 21.6398 6.25376 22.6908C6.69688 24.7629 10.6019 25.6851 14.9758 24.7497L15.0161 24.7411C17.1958 24.275 19.0808 23.4352 20.3679 22.4542C20.3655 22.4492 20.3616 22.4445 20.3584 22.4397C21.6354 21.4571 22.3144 20.3349 22.0938 19.3034Z" fill="white"/>
<path fill-rule="evenodd" clip-rule="evenodd" d="M22.0539 19.1176C22.4975 21.1918 19.3115 23.6316 14.9378 24.5669C10.5641 25.5023 6.65888 24.579 6.21529 22.5048C5.77171 20.4305 8.95769 17.9908 13.3314 17.0554C17.7051 16.1201 21.6103 17.0434 22.0539 19.1176Z" fill="url(#paint1_linear_19708_42048)"/>
<path d="M9.157 24.654C10.7317 25.0231 12.7941 25.0182 14.9742 24.5519C17.1542 24.0857 19.0382 23.2467 20.3242 22.2658C18.965 20.25 16.4642 19.1528 13.9352 19.6936C11.4062 20.2345 9.57284 22.2586 9.157 24.654Z" fill="url(#paint2_radial_19708_42048)"/>
<path opacity="0.2" d="M16.845 20.9135C17.0115 21.6922 15.9395 22.5814 14.4508 22.8997C12.9616 23.2182 11.6193 22.8454 11.4528 22.0666C11.2862 21.2879 12.3586 20.3986 13.8478 20.0802C15.3366 19.7618 16.6785 20.1347 16.845 20.9135Z" fill="white"/>
<path d="M13.3271 17.0567C11.1739 17.5172 9.30746 18.3424 8.02139 19.3083C8.27752 20.0526 9.05601 20.5053 9.84614 20.3363L17.9247 18.6087C18.7031 18.4422 19.2245 17.7307 19.1729 16.9604C17.5929 16.5858 15.519 16.588 13.3271 17.0567Z" fill="#EDDD9A"/>
<path d="M13.331 17.0568C11.3393 17.4828 9.59249 18.1458 8.40278 19.0393C8.63967 19.7275 9.36 20.1607 10.0912 20.0044L17.5622 18.4066C18.2824 18.2526 18.7628 17.5778 18.7147 16.8658C17.2542 16.5187 15.3578 16.6234 13.331 17.0568Z" fill="white"/>
<path d="M13.4471 17.617C15.5527 17.1667 17.5482 17.1477 19.1024 17.4791C19.1548 17.3028 19.178 17.1149 19.1651 16.9233C17.5851 16.5487 15.5112 16.5509 13.3193 17.0196C11.1657 17.4802 9.29965 18.3053 8.01366 19.2716C8.07621 19.4547 8.17098 19.6195 8.28912 19.7623C9.56876 18.8419 11.3731 18.0605 13.4471 17.617Z" fill="#E66D28"/>
<path d="M8.96086 13.2394C9.48626 15.6962 7.91625 18.1143 5.45436 18.6408C2.99247 19.1673 0.571165 17.6027 0.0457693 15.1459C-0.479626 12.6892 1.08989 10.2707 3.55178 9.74421C6.01366 9.21773 8.43547 10.7826 8.96086 13.2394Z" fill="#1496DB"/>
<path d="M24.7009 10.0062C25.2264 12.4634 23.6565 14.8819 21.1942 15.4085C18.7323 15.935 16.3113 14.3699 15.7858 11.9127C15.2604 9.45592 16.8296 7.03796 19.2915 6.51147C21.7538 5.9849 24.1755 7.54939 24.7009 10.0062Z" fill="#1496DB"/>
<path d="M16.8042 6.8967C17.4365 9.85344 15.5471 12.7647 12.583 13.3986C9.62053 14.0321 6.70569 12.1483 6.07338 9.19154C5.44106 6.2348 7.33045 3.32356 10.2929 2.69002C13.257 2.05613 16.1719 3.93996 16.8042 6.8967Z" fill="#1496DB"/>
<path d="M8.35866 13.3675C8.81307 15.4923 7.45539 17.585 5.32534 18.0405C3.19569 18.4959 1.10128 17.1415 0.646873 15.0167C0.19238 12.8915 1.54991 10.8001 3.67955 10.3447C5.80961 9.88918 7.90417 11.2423 8.35866 13.3675Z" fill="#1496DB"/>
<path fill-rule="evenodd" clip-rule="evenodd" d="M8.10915 13.4206C8.5342 15.4082 7.26419 17.3647 5.27249 17.7907C3.28079 18.2166 1.32163 16.9506 0.896578 14.9631C0.471526 12.9755 1.74154 11.019 3.73324 10.593C5.72494 10.1671 7.6841 11.4331 8.10915 13.4206Z" fill="url(#paint3_radial_19708_42048)"/>
<path fill-rule="evenodd" clip-rule="evenodd" d="M6.44013 13.778C6.66876 14.8471 5.98562 15.8995 4.91428 16.1287C3.84294 16.3578 2.7891 15.6768 2.56047 14.6077C2.33183 13.5386 3.01498 12.4861 4.08631 12.257C5.15765 12.0279 6.21149 12.7089 6.44013 13.778Z" fill="url(#paint4_radial_19708_42048)"/>
<path d="M5.40981 13.9985C5.51673 14.4985 5.19686 14.9913 4.69587 15.0984C4.19447 15.2056 3.70144 14.8867 3.59452 14.3867C3.4876 13.8868 3.80706 13.3941 4.30846 13.2869C4.80946 13.1797 5.30289 13.4986 5.40981 13.9985Z" fill="#2E2A49"/>
<ellipse cx="4.31755" cy="13.3653" rx="1.10441" ry="0.846444" transform="rotate(-12.0712 4.31755 13.3653)" fill="url(#paint5_linear_19708_42048)"/>
<path d="M24.0971 10.1359C24.5515 12.2607 23.1937 14.3526 21.064 14.808C18.9344 15.2634 16.8397 13.9099 16.3853 11.7851C15.9308 9.65987 17.2886 7.56763 19.4182 7.11219C21.5479 6.65676 23.6426 8.01067 24.0971 10.1359Z" fill="#1496DB"/>
<path fill-rule="evenodd" clip-rule="evenodd" d="M23.8472 10.1891C24.2723 12.1766 23.0023 14.1331 21.0106 14.559C19.019 14.985 17.0599 13.719 16.6348 11.7315C16.2098 9.74401 17.4798 7.78753 19.4714 7.36161C21.4631 6.93568 23.4222 8.2016 23.8472 10.1891Z" fill="url(#paint6_radial_19708_42048)"/>
<path fill-rule="evenodd" clip-rule="evenodd" d="M22.1827 10.5457C22.4114 11.6149 21.7282 12.6674 20.6567 12.8966C19.5853 13.1257 18.5314 12.4447 18.3027 11.3755C18.074 10.3062 18.7573 9.2537 19.8287 9.02457C20.9001 8.79544 21.9541 9.47646 22.1827 10.5457Z" fill="url(#paint7_radial_19708_42048)"/>
<path d="M21.1501 10.7665C21.2571 11.2665 20.9379 11.7587 20.4369 11.8658C19.9355 11.973 19.4426 11.6545 19.3356 11.1545C19.2287 10.6546 19.5483 10.1623 20.0497 10.0551C20.5507 9.94794 21.0432 10.2666 21.1501 10.7665Z" fill="#2E2A49"/>
<ellipse cx="20.0344" cy="10.005" rx="1.10441" ry="0.846444" transform="rotate(-12.0712 20.0344 10.005)" fill="url(#paint8_linear_19708_42048)"/>
<path d="M16.1917 7.02755C16.7557 9.66492 15.0698 12.261 12.4278 12.8261C9.78412 13.3914 7.18468 11.7117 6.62067 9.07437C6.05665 6.437 7.74173 3.84105 10.3854 3.27569C13.0274 2.71068 15.6277 4.39019 16.1917 7.02755Z" fill="#1496DB"/>
<path fill-rule="evenodd" clip-rule="evenodd" d="M15.8807 7.09398C16.4082 9.5606 14.8321 11.9887 12.3603 12.5173C9.88858 13.0459 7.45723 11.4748 6.92973 9.00819C6.40223 6.54158 7.97835 4.11348 10.4501 3.58489C12.9218 3.0563 15.3532 4.62737 15.8807 7.09398Z" fill="url(#paint9_radial_19708_42048)"/>
<path fill-rule="evenodd" clip-rule="evenodd" d="M13.8116 7.53598C14.0954 8.86294 13.2475 10.1692 11.9177 10.4535C10.588 10.7379 9.28002 9.89272 8.99625 8.56576C8.71247 7.2388 9.56037 5.93256 10.8901 5.64819C12.2198 5.36383 13.5278 6.20902 13.8116 7.53598Z" fill="url(#paint10_radial_19708_42048)"/>
<path d="M12.5312 7.8099C12.6639 8.43039 12.2672 9.04143 11.6455 9.1744C11.0229 9.30754 10.4114 8.91209 10.2787 8.2916C10.146 7.67111 10.5422 7.05975 11.1648 6.92661C11.7865 6.79364 12.3985 7.18942 12.5312 7.8099Z" fill="#2E2A49"/>
<ellipse cx="11.1518" cy="6.8635" rx="1.37047" ry="1.05128" transform="rotate(-12.0712 11.1518 6.8635)" fill="url(#paint11_linear_19708_42048)"/>
<defs>
<radialGradient id="paint0_radial_19708_42048" cx="0" cy="0" r="1" gradientUnits="userSpaceOnUse" gradientTransform="translate(13.572 18.0193) rotate(77.9288) scale(21.958 26.2415)">
<stop stop-color="#D9D9D9"/>
<stop offset="0.224916" stop-color="#E4E4E4" stop-opacity="0.36"/>
<stop offset="0.521135" stop-color="#C530B6" stop-opacity="0.13"/>
<stop offset="1" stop-opacity="0"/>
</radialGradient>
<linearGradient id="paint1_linear_19708_42048" x1="6.95272" y1="26.2468" x2="5.3634" y2="18.7163" gradientUnits="userSpaceOnUse">
<stop stop-color="#600000"/>
<stop offset="1" stop-color="#B01622"/>
</linearGradient>
<radialGradient id="paint2_radial_19708_42048" cx="0" cy="0" r="1" gradientUnits="userSpaceOnUse" gradientTransform="translate(14.4546 22.1229) rotate(-12.0712) scale(4.40576 1.91674)">
<stop stop-color="#FF721B"/>
<stop offset="1" stop-color="#BE1622"/>
</radialGradient>
<radialGradient id="paint3_radial_19708_42048" cx="0" cy="0" r="1" gradientUnits="userSpaceOnUse" gradientTransform="translate(4.50277 14.192) rotate(-12.0712) scale(3.68783 3.68019)">
<stop stop-color="white"/>
<stop offset="0.56" stop-color="white"/>
<stop offset="0.97" stop-color="#D6D6D6"/>
<stop offset="1" stop-color="#C6C6C6"/>
</radialGradient>
<radialGradient id="paint4_radial_19708_42048" cx="0" cy="0" r="1" gradientUnits="userSpaceOnUse" gradientTransform="translate(4.50063 14.1923) rotate(-12.0712) scale(1.98369 1.97958)">
<stop stop-color="white"/>
<stop offset="0.66" stop-color="#A4E1A4"/>
<stop offset="1" stop-color="#00AA00"/>
</radialGradient>
<linearGradient id="paint5_linear_19708_42048" x1="4.31957" y1="12.5189" x2="4.31957" y2="13.3479" gradientUnits="userSpaceOnUse">
<stop stop-color="white"/>
<stop offset="1" stop-color="#999999" stop-opacity="0.1"/>
</linearGradient>
<radialGradient id="paint6_radial_19708_42048" cx="0" cy="0" r="1" gradientUnits="userSpaceOnUse" gradientTransform="translate(20.2412 10.9601) rotate(-12.0712) scale(3.68774 3.68009)">
<stop stop-color="white"/>
<stop offset="0.56" stop-color="white"/>
<stop offset="0.97" stop-color="#D6D6D6"/>
<stop offset="1" stop-color="#C6C6C6"/>
</radialGradient>
<radialGradient id="paint7_radial_19708_42048" cx="0" cy="0" r="1" gradientUnits="userSpaceOnUse" gradientTransform="translate(20.2428 10.9605) rotate(-12.0712) scale(1.98389 1.97978)">
<stop stop-color="white"/>
<stop offset="0.66" stop-color="#A4E1A4"/>
<stop offset="1" stop-color="#00AA00"/>
</radialGradient>
<linearGradient id="paint8_linear_19708_42048" x1="20.0364" y1="9.15853" x2="20.0364" y2="9.98756" gradientUnits="userSpaceOnUse">
<stop stop-color="white"/>
<stop offset="1" stop-color="#999999" stop-opacity="0.1"/>
</linearGradient>
<radialGradient id="paint9_radial_19708_42048" cx="0" cy="0" r="1" gradientUnits="userSpaceOnUse" gradientTransform="translate(11.4053 8.05091) rotate(-12.0712) scale(4.57667 4.56718)">
<stop stop-color="white"/>
<stop offset="0.56" stop-color="white"/>
<stop offset="0.97" stop-color="#D6D6D6"/>
<stop offset="1" stop-color="#C6C6C6"/>
</radialGradient>
<radialGradient id="paint10_radial_19708_42048" cx="0" cy="0" r="1" gradientUnits="userSpaceOnUse" gradientTransform="translate(11.4039 8.05091) rotate(-12.0712) scale(2.46211 2.457)">
<stop stop-color="white"/>
<stop offset="0.66" stop-color="#A4E1A4"/>
<stop offset="1" stop-color="#00AA00"/>
</radialGradient>
<linearGradient id="paint11_linear_19708_42048" x1="11.1543" y1="5.81222" x2="11.1543" y2="6.84188" gradientUnits="userSpaceOnUse">
<stop stop-color="white"/>
<stop offset="1" stop-color="#999999" stop-opacity="0.1"/>
</linearGradient>
</defs>
</svg>
