<svg width="26" height="33" viewBox="0 0 26 33" fill="none" xmlns="http://www.w3.org/2000/svg">
<path d="M29.5098 -2.94273C26.3234 -4.22988 26.2504 1.78214 22.6644 8.72987C19.0367 15.7572 18.8234 15.8151 22.9432 17.9414C29.4382 21.293 34.1227 -1.07898 29.5098 -2.94273Z" fill="#FF122F"/>
<path opacity="0.2" d="M29.2048 -1.59358C26.5245 -2.6761 26.4632 2.38099 23.4459 8.22538C20.3954 14.1368 20.2153 14.1853 23.6805 15.9734C29.1444 18.7932 33.085 -0.0259786 29.2048 -1.59358Z" fill="white"/>
<path d="M-11.513 20.7424C-11.0348 17.3395 -5.79195 20.2823 2.01845 20.6504C9.9182 21.0223 10.0747 20.8668 9.85593 25.4979C9.51124 32.7984 -12.2059 25.6694 -11.513 20.7424Z" fill="#FF122F"/>
<path opacity="0.2" d="M-10.1928 21.1536C-9.79013 18.2911 -5.37991 20.7665 1.19013 21.0757C7.83529 21.3893 7.96686 21.2578 7.78281 25.1528C7.49337 31.2943 -10.7753 25.2977 -10.1928 21.1536Z" fill="white"/>
<path d="M28.5366 10.6594C24.0894 2.95667 12.8819 -2.03462 5.17822 2.41309C-2.52491 6.86049 -3.80635 19.0623 0.64081 26.765C3.72036 32.0989 9.76846 35.659 14.5818 33.8347C16.7195 33.0248 17.0818 28.501 19.4505 27.1334C21.9631 25.6827 26.1835 27.5493 28.0062 26.0033C28.6963 25.4175 29.2521 24.7053 29.6812 23.9011C31.5908 20.3171 30.9838 14.8982 28.5366 10.6594Z" fill="#FF122F"/>
<path d="M-9.54035 9.25561C-9.39507 9.35942 -9.23115 9.45524 -9.057 9.54654C-9.05748 9.54751 -9.05785 9.54807 -9.05874 9.54893C-4.6237 12.05 -0.0149292 13.2552 3.22604 11.384C5.64526 9.98727 7.01404 7.09084 7.55547 3.58587C6.5843 2.96322 3.30116 1.36905 0.923442 1.57929C1.8216 1.91625 2.09415 2.02533 2.73205 2.57014C0.014723 2.63265 -3.47336 3.41839 -6.12744 5.69314C-3.75254 4.58322 -2.93629 4.7777 -2.29458 4.90123C-3.52765 5.64818 -6.71931 5.85064 -9.09145 8.3529C-8.64567 8.10281 -6.83697 7.04884 -6.08565 7.19755C-6.26993 7.4108 -9.03618 8.296 -9.54035 9.25561Z" fill="#FF122F"/>
<path d="M-7.76892 11.4907C-7.61236 11.4458 -7.44298 11.4128 -7.26521 11.3872C-7.26514 11.3861 -7.26544 11.3856 -7.26548 11.3849C-2.69541 10.5761 1.63183 10.9343 3.85189 13.5242C5.50888 15.4567 5.809 18.3617 5.21343 21.5385C4.18961 21.7796 0.8842 22.157 -1.09637 21.2571C-0.221651 21.2391 0.0451389 21.2277 0.758617 20.9521C-1.55853 20.0762 -4.31963 18.3454 -5.91299 15.5862C-4.20695 17.2594 -3.44659 17.339 -2.85695 17.427C-3.69132 16.4121 -6.37404 15.272 -7.65592 12.4027C-7.34832 12.7528 -6.11261 14.2063 -5.42133 14.3057C-5.51563 14.0666 -7.626 12.4684 -7.76892 11.4907Z" fill="#FF122F"/>
<path d="M18.4637 -6.91248C18.4807 -6.73461 18.4814 -6.54459 18.4737 -6.34827C18.4745 -6.34806 18.4757 -6.3484 18.4766 -6.34859C18.4253 -1.25737 17.1647 3.33656 13.9237 5.20773C11.5045 6.60447 8.31146 6.3418 5.00509 5.05835C4.95197 3.90568 5.21295 0.265309 6.58362 -1.68858C6.42609 -0.742126 6.38481 -0.451857 6.53767 0.372986C7.95047 -1.94903 10.375 -4.57693 13.672 -5.73805C11.5233 -4.23629 11.2836 -3.43215 11.0695 -2.8145C12.3327 -3.50875 14.1041 -6.17172 17.4574 -6.97508C17.018 -6.71407 15.2006 -5.67452 14.954 -4.94966C15.2308 -5.00262 17.3803 -6.95551 18.4637 -6.91248Z" fill="#FF122F"/>
<path d="M19.5123 -4.25957C19.3954 -4.14661 19.2819 -4.01623 19.1713 -3.87539C19.1704 -3.87587 19.1701 -3.87639 19.1693 -3.87661C16.1837 -0.323249 14.3306 3.60321 15.4635 6.82079C16.3083 9.22218 18.6741 10.9346 21.7233 12.0071C22.4437 11.2411 24.4235 8.56708 24.6342 6.40206C24.1813 7.15062 24.0383 7.37579 23.4424 7.85619C23.8429 5.41123 23.724 2.15496 22.1314 -0.604673C22.7276 1.70922 22.4162 2.40769 22.1979 2.96219C21.7356 1.73245 22.0901 -1.16121 20.2462 -3.70599C20.3955 -3.26457 21.0364 -1.4677 20.7769 -0.819321C20.6162 -1.02006 20.2878 -3.64711 19.5123 -4.25957Z" fill="#FF122F"/>
<path opacity="0.2" d="M20.3169 5.42252C20.2314 4.06894 19.894 2.63841 19.1477 1.34578C19.6196 3.17744 19.3731 3.73013 19.1998 4.16912C18.8345 3.19564 19.1151 0.905284 17.6556 -1.10827C17.7736 -0.759055 18.2806 0.663034 18.0756 1.17622C17.9489 1.01692 17.6888 -1.06221 17.0753 -1.54724C16.9822 -1.45738 16.8924 -1.35386 16.8045 -1.24237L16.8036 -1.24394C16.5349 -0.924399 16.2781 -0.601262 16.0349 -0.275578C16.175 -1.20713 16.2449 -2.19113 16.2551 -3.19994C16.2539 -3.1996 16.2537 -3.19986 16.2528 -3.19967C16.2593 -3.3554 16.2584 -3.50543 16.2449 -3.64609C15.3872 -3.68033 13.6858 -2.13462 13.4669 -2.09253C13.6618 -2.66649 15.1006 -3.4892 15.4486 -3.69532C12.7945 -3.06008 11.3926 -0.952215 10.3929 -0.402738C10.5622 -0.891841 10.7514 -1.52805 12.4526 -2.71663C9.84287 -1.79762 7.92369 0.282501 6.80544 2.12014C6.68524 1.46725 6.71777 1.23754 6.84229 0.488112C6.23661 1.35124 5.90546 2.62796 5.73774 3.74786C4.68375 3.33331 3.41173 2.98219 2.36192 3.07486C3.07294 3.34188 3.28866 3.42827 3.79346 3.85911C1.64289 3.90872 -1.11788 4.53057 -3.21912 6.33141C-1.33894 5.45231 -0.693113 5.60642 -0.184604 5.70416C-1.16062 6.29541 -3.68726 6.45564 -5.56421 8.43644C-5.21171 8.23812 -3.78034 7.40375 -3.18528 7.52159C-3.33171 7.69044 -5.52103 8.39104 -5.91969 9.15061C-5.80491 9.23283 -5.67518 9.30849 -5.53705 9.38069C-5.53742 9.38125 -5.53779 9.38181 -5.53842 9.38252C-4.65968 9.87813 -3.77254 10.3096 -2.896 10.6542C-3.29967 10.702 -3.70793 10.7628 -4.11872 10.8355C-4.11883 10.836 -4.11853 10.8365 -4.11808 10.8373C-4.25886 10.8578 -4.39313 10.8837 -4.51701 10.9191C-4.40395 11.693 -2.7337 12.958 -2.65881 13.1472C-3.20604 13.0684 -4.18408 11.9182 -4.42776 11.6416C-3.41295 13.9119 -1.28941 14.8142 -0.629533 15.6176C-1.09584 15.5479 -1.6977 15.485 -3.0483 14.1607C-2.23125 15.5758 -1.02576 16.6488 0.220304 17.4177C0.314519 20.752 1.19035 24.1253 2.78825 26.893C6.98605 34.1638 12.299 30.5541 19.1427 26.6029C25.9866 22.6516 31.7691 19.8552 27.5713 12.5845C25.9114 9.70933 23.2956 7.18278 20.3169 5.42252Z" fill="white"/>
<ellipse opacity="0.9" cx="13.8534" cy="16.8976" rx="14.8391" ry="9.19222" transform="rotate(-30 13.8534 16.8976)" fill="url(#paint0_radial_19708_41516)"/>
<path d="M26.3421 12.867C27.0878 14.1586 26.6454 15.8104 25.3534 16.5563L7.55342 26.8331C6.26146 27.579 4.60972 27.1363 3.86401 25.8447C3.11831 24.5531 3.56077 22.9013 4.85274 22.1554L22.6527 11.8786C23.9447 11.1327 25.5964 11.5754 26.3421 12.867Z" fill="white"/>
<path d="M9.25194 11.5161C10.515 13.7038 9.76596 16.5012 7.57808 17.7644C5.38994 19.0277 2.59252 18.2779 1.32946 16.0902C0.0662433 13.9022 0.815692 11.1049 3.00383 9.84158C5.19171 8.5784 7.98872 9.32817 9.25194 11.5161Z" fill="#DA4854"/>
<path fill-rule="evenodd" clip-rule="evenodd" d="M8.99444 11.6638C10.1758 13.7099 9.47456 16.3263 7.4283 17.5077C5.38203 18.6891 2.76557 17.9882 1.58426 15.9421C0.402952 13.896 1.10414 11.2796 3.1504 10.0982C5.19667 8.91676 7.81313 9.61772 8.99444 11.6638Z" fill="url(#paint1_radial_19708_41516)"/>
<path fill-rule="evenodd" clip-rule="evenodd" d="M7.2855 12.6524C7.921 13.7531 7.54378 15.1607 6.44297 15.7962C5.34216 16.4318 3.93461 16.0547 3.29911 14.954C2.66361 13.8532 3.04082 12.4457 4.14163 11.8102C5.24244 11.1746 6.65 11.5517 7.2855 12.6524Z" fill="url(#paint2_radial_19708_41516)"/>
<path d="M6.22152 13.265C6.51881 13.7799 6.34238 14.4382 5.82768 14.7354C5.31245 15.0329 4.65411 14.8565 4.35682 14.3416C4.05954 13.8267 4.23596 13.1683 4.75119 12.8709C5.26589 12.5737 5.92423 12.7501 6.22152 13.265Z" fill="#2E2A49"/>
<ellipse cx="4.72507" cy="12.8176" rx="1.28134" ry="0.984699" transform="rotate(-30 4.72507 12.8176)" fill="url(#paint3_radial_19708_41516)"/>
<path d="M18.9471 5.91918C20.2103 8.10713 19.4613 10.9046 17.2726 12.1682C15.0847 13.4314 12.2873 12.6815 11.0241 10.4935C9.76087 8.30558 10.5103 5.50826 12.6982 4.24509C14.8869 2.98146 17.6839 3.73123 18.9471 5.91918Z" fill="#DA4854"/>
<path fill-rule="evenodd" clip-rule="evenodd" d="M18.69 6.06712C19.8713 8.11326 19.1701 10.7297 17.1238 11.9112C15.0775 13.0926 12.461 12.3916 11.2796 10.3455C10.0983 8.29935 10.7995 5.68288 12.8458 4.50144C14.8921 3.32 17.5087 4.02098 18.69 6.06712Z" fill="url(#paint4_radial_19708_41516)"/>
<path fill-rule="evenodd" clip-rule="evenodd" d="M16.9769 7.05574C17.6124 8.15645 17.2352 9.56397 16.1344 10.1995C15.0336 10.8351 13.626 10.458 12.9905 9.35728C12.355 8.25656 12.7322 6.84904 13.833 6.21349C14.9338 5.57793 16.3414 5.95502 16.9769 7.05574Z" fill="url(#paint5_radial_19708_41516)"/>
<path d="M15.9167 7.66806C16.2141 8.18324 16.0377 8.84156 15.523 9.13873C15.008 9.43604 14.3499 9.25952 14.0525 8.74434C13.7552 8.22942 13.9314 7.57125 14.4463 7.27393C14.9611 6.97677 15.6194 7.15314 15.9167 7.66806Z" fill="#2E2A49"/>
<ellipse cx="14.4165" cy="7.22187" rx="1.28134" ry="0.984699" transform="rotate(-30 14.4165 7.22187)" fill="url(#paint6_radial_19708_41516)"/>
<path d="M4.78726 22.0487C3.49831 22.7929 3.05868 24.4486 3.80279 25.7375C4.5497 27.0312 6.20062 27.4734 7.48957 26.7293L25.2926 16.4507C26.5816 15.7065 27.024 14.0556 26.2771 12.7619C25.533 11.4731 23.8793 11.026 22.5903 11.7701L4.78726 22.0487Z" fill="url(#paint7_linear_19708_41516)"/>
<path d="M4.63086 22.1416L4.85589 22.5314C5.05944 22.8839 5.51081 23.0053 5.8634 22.8017C6.21651 22.5979 6.33684 22.1464 6.13329 21.7939L5.90825 21.4041L4.63086 22.1416Z" fill="#EDDD9A"/>
<path d="M4.73047 22.084L4.92035 22.4129C5.0919 22.71 5.47238 22.8119 5.7698 22.6402C6.06749 22.4683 6.16946 22.0879 5.9979 21.7907L5.80802 21.4619L4.73047 22.084Z" fill="white"/>
<rect width="1.47501" height="0.434141" transform="matrix(-0.866025 0.5 0.5 0.866025 5.9082 21.4043)" fill="#E66D28"/>
<path d="M6.30885 21.1727C6.3093 21.1735 6.30995 21.1752 6.31055 21.1762L6.53363 21.5626C6.73718 21.9152 7.1888 22.0364 7.54139 21.8328C7.89398 21.6293 8.01482 21.1775 7.81127 20.825L7.58819 20.4386C7.58759 20.4375 7.58643 20.4361 7.58598 20.4354L6.30885 21.1727Z" fill="#EDDD9A"/>
<path d="M6.41016 21.1152L6.60004 21.4441C6.77159 21.7413 7.1518 21.8433 7.44922 21.6716C7.74664 21.4999 7.84886 21.1193 7.67731 20.8222L7.48743 20.4933L6.41016 21.1152Z" fill="white"/>
<rect width="1.47499" height="0.434141" transform="matrix(-0.866025 0.5 0.5 0.866025 7.58594 20.4355)" fill="#E66D28"/>
<path d="M7.98633 20.2041L8.21136 20.5939C8.41491 20.9464 8.86628 21.0678 9.2194 20.8639C9.57199 20.6603 9.69257 20.2088 9.48902 19.8562L9.26399 19.4664L7.98633 20.2041Z" fill="#EDDD9A"/>
<path d="M8.0862 20.1463C8.08639 20.1473 8.08699 20.1483 8.08759 20.1493L8.27582 20.4754C8.44737 20.7725 8.82784 20.8744 9.12527 20.7027C9.42269 20.531 9.52466 20.1505 9.3531 19.8534L9.16488 19.5274C9.16428 19.5263 9.16342 19.5254 9.16296 19.5247L8.0862 20.1463Z" fill="white"/>
<rect width="1.47532" height="0.43384" transform="matrix(0.866025 -0.5 -0.5 -0.866025 8.20312 20.5801)" fill="#E66D28"/>
<path d="M9.66602 19.2354L9.89105 19.6251C10.0946 19.9777 10.546 20.099 10.8991 19.8952C11.2517 19.6916 11.3722 19.24 11.1687 18.8875L10.9437 18.4977L9.66602 19.2354Z" fill="#EDDD9A"/>
<path d="M9.76562 19.1777L9.95551 19.5066C10.1271 19.8038 10.5075 19.9057 10.8052 19.7338C11.1027 19.5621 11.2046 19.1816 11.0331 18.8845L10.8432 18.5556L9.76562 19.1777Z" fill="white"/>
<rect width="1.4753" height="0.43384" transform="matrix(0.866025 -0.5 -0.5 -0.866025 9.88281 19.6113)" fill="#E66D28"/>
<path d="M11.3418 18.2666L11.5668 18.6564C11.7704 19.0089 12.2217 19.1303 12.5743 18.9267C12.9275 18.7229 13.0478 18.2714 12.8442 17.9189L12.6192 17.5291L11.3418 18.2666Z" fill="#EDDD9A"/>
<path d="M11.4434 18.209L11.6332 18.5379C11.8048 18.835 12.1853 18.9369 12.4827 18.7652C12.7804 18.5934 12.8823 18.2129 12.7108 17.9158L12.5209 17.5869L11.4434 18.209Z" fill="white"/>
<rect width="1.47501" height="0.433842" transform="matrix(0.866025 -0.5 -0.5 -0.866025 11.5586 18.6426)" fill="#E66D28"/>
<path d="M13.0201 17.2976C13.0205 17.2983 13.0209 17.3002 13.0215 17.3012L13.2446 17.6876C13.4481 18.0402 13.9 18.1612 14.2523 17.9578C14.6057 17.7538 14.726 17.3024 14.5225 16.9498L14.2974 16.5601L13.0201 17.2976Z" fill="#EDDD9A"/>
<path d="M13.1216 17.2399C13.1221 17.2407 13.1221 17.2421 13.1227 17.2431L13.311 17.5691C13.4825 17.8663 13.8633 17.968 14.1604 17.7965C14.4584 17.6245 14.5603 17.244 14.3888 16.9468L14.1989 16.618L13.1216 17.2399Z" fill="white"/>
<rect width="1.47501" height="0.434141" transform="matrix(-0.866025 0.5 0.5 0.866025 14.2988 16.5605)" fill="#E66D28"/>
<path d="M14.6992 16.3291L14.9243 16.7189C15.1278 17.0714 15.5792 17.1928 15.9323 16.9889C16.2849 16.7854 16.4057 16.3336 16.2022 15.9811L15.9791 15.5947C15.9785 15.5936 15.9771 15.5924 15.9766 15.5916L14.6992 16.3291Z" fill="#EDDD9A"/>
<path d="M14.7993 16.2712C14.7993 16.2723 14.7999 16.2733 14.8005 16.2743L14.9887 16.6004C15.1603 16.8975 15.5407 16.9994 15.8384 16.8276C16.1358 16.6559 16.2378 16.2754 16.0662 15.9783L15.8764 15.6494L14.7993 16.2712Z" fill="white"/>
<rect width="1.47558" height="0.43384" transform="matrix(0.866025 -0.5 -0.5 -0.866025 14.916 16.7051)" fill="#E66D28"/>
<path d="M16.3789 15.3604L16.6039 15.7501C16.8075 16.1027 17.2589 16.224 17.6114 16.0205C17.9646 15.8166 18.0849 15.3652 17.8813 15.0126L17.6563 14.6228L16.3789 15.3604Z" fill="#EDDD9A"/>
<path d="M16.4785 15.3018L16.6684 15.6306C16.8399 15.9278 17.2204 16.0297 17.5176 15.8581C17.8155 15.6861 17.9175 15.3057 17.7459 15.0085L17.5561 14.6796L16.4785 15.3018Z" fill="white"/>
<rect width="1.47499" height="0.434141" transform="matrix(-0.866025 0.5 0.5 0.866025 17.6523 14.623)" fill="#E66D28"/>
<path d="M18.0547 14.3906L18.2797 14.7804C18.4833 15.1329 18.9346 15.2543 19.2872 15.0507C19.6406 14.8467 19.7609 14.3953 19.5574 14.0427L19.3323 13.653L18.0547 14.3906Z" fill="#EDDD9A"/>
<path d="M18.1543 14.333L18.3442 14.6619C18.5157 14.959 18.8962 15.061 19.1934 14.8894C19.4913 14.7174 19.5933 14.3369 19.4217 14.0398L19.2318 13.7109L18.1543 14.333Z" fill="white"/>
<rect width="1.47501" height="0.43384" transform="matrix(0.866025 -0.5 -0.5 -0.866025 18.2715 14.7666)" fill="#E66D28"/>
<path d="M19.7344 13.4219L19.9594 13.8116C20.163 14.1642 20.6143 14.2856 20.9667 14.0821C21.3195 13.8784 21.4404 13.4267 21.2368 13.0741L21.0137 12.6878C21.0131 12.6867 21.0117 12.6855 21.0113 12.6847L19.7344 13.4219Z" fill="#EDDD9A"/>
<path d="M19.834 13.3643L20.0239 13.6931C20.1954 13.9903 20.5759 14.0922 20.8731 13.9206C21.1705 13.7489 21.273 13.3682 21.1014 13.071L20.9132 12.745C20.9126 12.744 20.9115 12.7432 20.911 12.7424L19.834 13.3643Z" fill="white"/>
<rect width="1.47501" height="0.434141" transform="matrix(-0.866025 0.5 0.5 0.866025 21.0098 12.6846)" fill="#E66D28"/>
<path d="M21.4126 12.4528C21.4131 12.4536 21.4135 12.4555 21.4141 12.4565L21.6371 12.8429C21.8407 13.1955 22.2926 13.3165 22.6452 13.1129C22.9978 12.9094 23.1181 12.4579 22.9145 12.1054L22.6895 11.7156L21.4126 12.4528Z" fill="#EDDD9A"/>
<path d="M21.5117 12.3955L21.7016 12.7244C21.8732 13.0215 22.2534 13.1236 22.5508 12.9519C22.8482 12.7802 22.9499 12.3999 22.7784 12.1027L22.5885 11.7738L21.5117 12.3955Z" fill="white"/>
<rect width="1.4744" height="0.434141" transform="matrix(-0.866025 0.5 0.5 0.866025 22.6895 11.7158)" fill="#E66D28"/>
<path d="M7.36125 26.8017L7.13652 26.4125C6.93267 26.0594 7.05356 25.6083 7.40615 25.4048C7.75927 25.2009 8.21008 25.3219 8.41393 25.675L8.63867 26.0642L7.36125 26.8017Z" fill="#EDDD9A"/>
<path d="M7.45967 26.7442L7.27009 26.4158C7.09824 26.1182 7.2002 25.7377 7.49762 25.566C7.7953 25.3941 8.17578 25.496 8.34763 25.7937L8.53721 26.1221L7.45967 26.7442Z" fill="white"/>
<rect width="1.47501" height="0.434143" transform="matrix(-0.866025 0.5 0.5 0.866025 8.42188 25.6885)" fill="#E66D28"/>
<path d="M9.03925 25.8328C9.0388 25.832 9.03794 25.8311 9.03734 25.8301L8.81426 25.4437C8.61041 25.0906 8.73155 24.6394 9.08414 24.4359C9.437 24.2321 9.88807 24.353 10.0919 24.7061L10.3166 25.0953L9.03925 25.8328Z" fill="#EDDD9A"/>
<path d="M9.13936 25.7754L8.94978 25.4471C8.77793 25.1494 8.87963 24.7691 9.17705 24.5974C9.47473 24.4255 9.8552 24.5274 10.0271 24.8251L10.2153 25.1511C10.2156 25.1516 10.2157 25.153 10.2161 25.1538L9.13936 25.7754Z" fill="white"/>
<rect width="1.47501" height="0.434141" transform="matrix(0.866025 -0.5 -0.5 -0.866025 9.03906 25.833)" fill="#E66D28"/>
<path d="M10.717 24.8641C10.7165 24.8633 10.7157 24.8624 10.7151 24.8614L10.492 24.475C10.2881 24.1219 10.4093 23.6707 10.7621 23.467C11.1147 23.2634 11.5661 23.3841 11.7699 23.7372L11.993 24.1236C11.9936 24.1246 11.9939 24.1258 11.9944 24.1266L10.717 24.8641Z" fill="#EDDD9A"/>
<path d="M10.8174 24.8065C10.8166 24.8059 10.816 24.8048 10.8157 24.8043L10.6275 24.4783C10.4557 24.1807 10.5579 23.8 10.8551 23.6285C11.1525 23.4567 11.5332 23.5585 11.7051 23.8562L11.8933 24.1822C11.8936 24.1827 11.8939 24.1839 11.8944 24.1847L10.8174 24.8065Z" fill="white"/>
<rect width="1.47529" height="0.434143" transform="matrix(-0.866025 0.5 0.5 0.866025 11.7773 23.75)" fill="#E66D28"/>
<path d="M12.3945 23.8955L12.1697 23.5062C11.9659 23.1531 12.0873 22.7018 12.4399 22.4982C12.7927 22.2945 13.2435 22.4155 13.4474 22.7686L13.6721 23.1578L12.3945 23.8955Z" fill="#EDDD9A"/>
<path d="M12.4951 23.8378C12.4944 23.8371 12.4938 23.8361 12.4935 23.8356L12.3052 23.5096C12.1334 23.2119 12.2356 22.8313 12.533 22.6596C12.8305 22.4879 13.2109 22.5898 13.3828 22.8874L13.5724 23.2158L12.4951 23.8378Z" fill="white"/>
<rect width="1.47499" height="0.434141" transform="matrix(0.866025 -0.5 -0.5 -0.866025 12.3945 23.8955)" fill="#E66D28"/>
<path d="M14.0741 22.9267L13.8494 22.5375C13.6456 22.1844 13.7664 21.7333 14.119 21.5298C14.4721 21.3259 14.923 21.4469 15.1268 21.8L15.3515 22.1892L14.0741 22.9267Z" fill="#EDDD9A"/>
<path d="M14.1726 22.8692L13.983 22.5408C13.8111 22.2432 13.9131 21.8627 14.2105 21.691C14.5082 21.5191 14.8887 21.621 15.0605 21.9187L15.2501 22.247L14.1726 22.8692Z" fill="white"/>
<rect width="1.47501" height="0.434143" transform="matrix(-0.866025 0.5 0.5 0.866025 15.1367 21.8125)" fill="#E66D28"/>
<path d="M15.7538 21.957L15.5291 21.5677C15.3253 21.2147 15.4461 20.7636 15.7985 20.5602C16.1513 20.3565 16.6026 20.4772 16.8065 20.8302L17.0312 21.2195L15.7538 21.957Z" fill="#EDDD9A"/>
<path d="M15.8523 21.8994L15.6627 21.5711C15.4908 21.2734 15.5928 20.893 15.8897 20.7215C16.1874 20.5497 16.5681 20.6515 16.7399 20.9491L16.9282 21.2751C16.9285 21.2757 16.9286 21.277 16.929 21.2778L15.8523 21.8994Z" fill="white"/>
<rect width="1.47499" height="0.434143" transform="matrix(-0.866025 0.5 0.5 0.866025 16.8105 20.8447)" fill="#E66D28"/>
<path d="M17.4301 20.9889C17.4297 20.9881 17.4286 20.9874 17.428 20.9864L17.2049 20.6C17.001 20.2469 17.1224 19.7955 17.475 19.592C17.8276 19.3884 18.2784 19.5094 18.4823 19.8625L18.707 20.2517L17.4301 20.9889Z" fill="#EDDD9A"/>
<path d="M17.5286 20.9304C17.5281 20.9296 17.527 20.9289 17.5267 20.9284L17.3385 20.6023C17.1666 20.3047 17.2691 19.9239 17.5662 19.7523C17.8637 19.5806 18.2441 19.6826 18.416 19.9802L18.6056 20.3086L17.5286 20.9304Z" fill="white"/>
<rect width="1.4744" height="0.434143" transform="matrix(-0.866025 0.5 0.5 0.866025 18.4902 19.875)" fill="#E66D28"/>
<path d="M19.1073 20.0205L18.8826 19.6312C18.6788 19.2781 18.7996 18.8271 19.1528 18.6232C19.5056 18.4195 19.9564 18.5405 20.1603 18.8936L20.385 19.2828L19.1073 20.0205Z" fill="#EDDD9A"/>
<path d="M19.2082 19.9616C19.2078 19.9609 19.2067 19.9601 19.2064 19.9596L19.0181 19.6336C18.8463 19.3359 18.9488 18.9552 19.2459 18.7836C19.5434 18.6119 19.9238 18.7138 20.0957 19.0115L20.2853 19.3398L19.2082 19.9616Z" fill="white"/>
<rect width="1.47501" height="0.434141" transform="matrix(0.866025 -0.5 -0.5 -0.866025 19.1074 20.0195)" fill="#E66D28"/>
<path d="M20.787 19.0507L20.5623 18.6615C20.3585 18.3084 20.4793 17.8574 20.8322 17.6536C21.185 17.4499 21.6358 17.5709 21.8397 17.924L22.0644 18.3132L20.787 19.0507Z" fill="#EDDD9A"/>
<path d="M20.8855 18.9932L20.6959 18.6648C20.524 18.3672 20.626 17.9867 20.9237 17.8148C21.2211 17.6431 21.6016 17.745 21.7734 18.0427L21.963 18.3711L20.8855 18.9932Z" fill="white"/>
<rect width="1.47503" height="0.434143" transform="matrix(-0.866025 0.5 0.5 0.866025 21.8477 17.9365)" fill="#E66D28"/>
<path d="M22.4633 18.0817C22.4629 18.0809 22.4618 18.0802 22.4612 18.0791L22.2381 17.6927C22.0342 17.3397 22.1556 16.8883 22.5082 16.6847C22.8613 16.4809 23.3122 16.6019 23.516 16.9549L23.7407 17.3442L22.4633 18.0817Z" fill="#EDDD9A"/>
<path d="M22.5651 18.0244L22.3756 17.6961C22.2037 17.3984 22.3057 17.018 22.6031 16.8462C22.9008 16.6744 23.2813 16.7763 23.4531 17.074L23.6427 17.4023L22.5651 18.0244Z" fill="white"/>
<rect width="1.47499" height="0.434143" transform="matrix(-0.866025 0.5 0.5 0.866025 23.5234 16.9688)" fill="#E66D28"/>
<path d="M24.1425 17.1132L23.9178 16.724C23.7139 16.3709 23.8348 15.9199 24.1879 15.716C24.5405 15.5124 24.9918 15.6331 25.1957 15.9862L25.4204 16.3754L24.1425 17.1132Z" fill="#EDDD9A"/>
<path d="M24.2414 17.0554C24.2405 17.0549 24.2399 17.0539 24.2396 17.0534L24.0513 16.7273C23.8795 16.4297 23.9817 16.0491 24.2791 15.8773C24.5766 15.7056 24.9573 15.8074 25.1292 16.1051L25.3174 16.4311C25.3177 16.4316 25.3178 16.4329 25.3182 16.4337L24.2414 17.0554Z" fill="white"/>
<rect width="1.4756" height="0.434141" transform="matrix(0.866025 -0.5 -0.5 -0.866025 24.1426 17.1133)" fill="#E66D28"/>
<path d="M10.0134 3.17635C10.2663 3.65446 10.8497 3.81077 11.3504 3.58338C11.7436 3.41027 12.2939 2.81515 12.9656 2.14996C13.7955 1.33176 14.8104 0.406773 15.9131 0.0475567C12.6038 0.455586 10.9045 1.58312 10.4205 1.83941C10.4148 1.84274 10.4032 1.84942 10.3916 1.85609C9.93505 2.1197 9.7638 2.70401 10.0134 3.17635Z" fill="url(#paint8_linear_19708_41516)"/>
<path d="M2.05707 6.66684C1.59316 6.95779 -0.233004 7.86572 -2.24098 10.5276C-1.37857 9.75227 -0.0700688 9.33585 1.05348 9.0262C1.9654 8.7771 2.75594 8.59807 3.10248 8.34406C3.54971 8.02421 3.70607 7.44079 3.41847 6.9827C3.13421 6.53039 2.54256 6.38654 2.08597 6.65015C2.07441 6.65683 2.06285 6.6635 2.05707 6.66684Z" fill="url(#paint9_linear_19708_41516)"/>
<defs>
<radialGradient id="paint0_radial_19708_41516" cx="0" cy="0" r="1" gradientUnits="userSpaceOnUse" gradientTransform="translate(13.8534 16.8976) rotate(90) scale(9.17437 14.8391)">
<stop stop-color="white" stop-opacity="0.85"/>
<stop offset="0.40414" stop-color="white" stop-opacity="0.36"/>
<stop offset="0.681066" stop-color="#EC8F3A" stop-opacity="0.24"/>
<stop offset="1" stop-color="#EC8F3A" stop-opacity="0"/>
</radialGradient>
<radialGradient id="paint1_radial_19708_41516" cx="0" cy="0" r="1" gradientUnits="userSpaceOnUse" gradientTransform="translate(5.28927 13.8032) rotate(-30) scale(4.27827 4.2779)">
<stop stop-color="white"/>
<stop offset="0.56" stop-color="white"/>
<stop offset="0.97" stop-color="#D6D6D6"/>
<stop offset="1" stop-color="#C6C6C6"/>
</radialGradient>
<radialGradient id="paint2_radial_19708_41516" cx="0" cy="0" r="1" gradientUnits="userSpaceOnUse" gradientTransform="translate(5.29227 13.8033) rotate(-30) scale(2.30154 2.30134)">
<stop stop-color="white"/>
<stop offset="0.78" stop-color="#73B6F0"/>
<stop offset="1" stop-color="#007AE3"/>
</radialGradient>
<radialGradient id="paint3_radial_19708_41516" cx="0" cy="0" r="1" gradientUnits="userSpaceOnUse" gradientTransform="translate(4.72507 14.8908) rotate(-90) scale(3.05795 3.97916)">
<stop offset="0.401042" stop-color="#2E2A49"/>
<stop offset="0.546875" stop-color="#2E2A49" stop-opacity="0"/>
<stop offset="0.645833" stop-color="white" stop-opacity="0"/>
<stop offset="0.760417" stop-color="#B0C5FB" stop-opacity="0.33"/>
<stop offset="0.984375" stop-color="white"/>
</radialGradient>
<radialGradient id="paint4_radial_19708_41516" cx="0" cy="0" r="1" gradientUnits="userSpaceOnUse" gradientTransform="translate(14.9848 8.20636) rotate(-30) scale(4.27838 4.27801)">
<stop stop-color="white"/>
<stop offset="0.56" stop-color="white"/>
<stop offset="0.97" stop-color="#D6D6D6"/>
<stop offset="1" stop-color="#C6C6C6"/>
</radialGradient>
<radialGradient id="paint5_radial_19708_41516" cx="0" cy="0" r="1" gradientUnits="userSpaceOnUse" gradientTransform="translate(14.9836 8.20696) rotate(-30) scale(2.30154 2.30134)">
<stop stop-color="white"/>
<stop offset="0.78" stop-color="#73B6F0"/>
<stop offset="1" stop-color="#007AE3"/>
</radialGradient>
<radialGradient id="paint6_radial_19708_41516" cx="0" cy="0" r="1" gradientUnits="userSpaceOnUse" gradientTransform="translate(14.4165 9.29513) rotate(-90) scale(3.05795 3.97916)">
<stop offset="0.401042" stop-color="#2E2A49"/>
<stop offset="0.546875" stop-color="#2E2A49" stop-opacity="0"/>
<stop offset="0.645833" stop-color="white" stop-opacity="0"/>
<stop offset="0.760417" stop-color="#B0C5FB" stop-opacity="0.33"/>
<stop offset="0.984375" stop-color="white"/>
</radialGradient>
<linearGradient id="paint7_linear_19708_41516" x1="5.23521" y1="28.2182" x2="2.4378" y2="23.3729" gradientUnits="userSpaceOnUse">
<stop stop-color="#600000"/>
<stop offset="1" stop-color="#B01622"/>
</linearGradient>
<linearGradient id="paint8_linear_19708_41516" x1="8.36346" y1="0.318595" x2="14.143" y2="-3.01825" gradientUnits="userSpaceOnUse">
<stop stop-color="#600000"/>
<stop offset="1" stop-color="#B01622"/>
</linearGradient>
<linearGradient id="paint9_linear_19708_41516" x1="1.76855" y1="4.12496" x2="-4.01101" y2="7.46179" gradientUnits="userSpaceOnUse">
<stop stop-color="#600000"/>
<stop offset="1" stop-color="#B01622"/>
</linearGradient>
</defs>
</svg>
