<svg width="312" height="186" viewBox="0 0 312 186" fill="none" xmlns="http://www.w3.org/2000/svg">
<rect width="312" height="186" rx="31.8333" fill="#312759" fill-opacity="0.25"/>
<path d="M60.7845 52.4975H46.1925L43.5045 59.9375H38.8965L50.9925 26.6735H56.0325L68.0805 59.9375H63.4725L60.7845 52.4975ZM59.5365 48.9455L53.4885 32.0495L47.4405 48.9455H59.5365ZM86.1683 33.1535C89.3683 33.1535 91.9603 34.1295 93.9443 36.0815C95.9283 38.0015 96.9203 40.7855 96.9203 44.4335V59.9375H92.6003V45.0575C92.6003 42.4335 91.9443 40.4335 90.6323 39.0575C89.3203 37.6495 87.5283 36.9455 85.2563 36.9455C82.9523 36.9455 81.1123 37.6655 79.7363 39.1055C78.3923 40.5455 77.7203 42.6415 77.7203 45.3935V59.9375H73.3523V33.6335H77.7203V37.3775C78.5843 36.0335 79.7523 34.9935 81.2243 34.2575C82.7283 33.5215 84.3763 33.1535 86.1683 33.1535ZM113.367 60.3695C111.351 60.3695 109.543 60.0335 107.943 59.3615C106.343 58.6575 105.079 57.6975 104.151 56.4815C103.223 55.2335 102.711 53.8095 102.615 52.2095H107.127C107.255 53.5215 107.863 54.5935 108.951 55.4255C110.071 56.2575 111.527 56.6735 113.319 56.6735C114.983 56.6735 116.295 56.3055 117.255 55.5695C118.215 54.8335 118.695 53.9055 118.695 52.7855C118.695 51.6335 118.183 50.7855 117.159 50.2415C116.135 49.6655 114.551 49.1055 112.407 48.5615C110.455 48.0495 108.855 47.5375 107.607 47.0255C106.391 46.4815 105.335 45.6975 104.439 44.6735C103.575 43.6175 103.143 42.2415 103.143 40.5455C103.143 39.2015 103.543 37.9695 104.343 36.8495C105.143 35.7295 106.279 34.8495 107.751 34.2095C109.223 33.5375 110.903 33.2015 112.791 33.2015C115.703 33.2015 118.055 33.9375 119.847 35.4095C121.639 36.8815 122.599 38.8975 122.727 41.4575H118.359C118.263 40.0815 117.703 38.9775 116.679 38.1455C115.687 37.3135 114.343 36.8975 112.647 36.8975C111.079 36.8975 109.831 37.2335 108.903 37.9055C107.975 38.5775 107.511 39.4575 107.511 40.5455C107.511 41.4095 107.783 42.1295 108.327 42.7055C108.903 43.2495 109.607 43.6975 110.439 44.0495C111.303 44.3695 112.487 44.7375 113.991 45.1535C115.879 45.6655 117.415 46.1775 118.599 46.6895C119.783 47.1695 120.791 47.9055 121.623 48.8975C122.487 49.8895 122.935 51.1855 122.967 52.7855C122.967 54.2255 122.567 55.5215 121.767 56.6735C120.967 57.8255 119.831 58.7375 118.359 59.4095C116.919 60.0495 115.255 60.3695 113.367 60.3695ZM164.174 33.6335L155.966 59.9375H151.454L145.118 39.0575L138.782 59.9375H134.27L126.014 33.6335H130.478L136.526 55.7135L143.054 33.6335H147.518L153.902 55.7615L159.854 33.6335H164.174ZM192.509 45.7775C192.509 46.6095 192.461 47.4895 192.365 48.4175H171.341C171.501 51.0095 172.381 53.0415 173.981 54.5135C175.613 55.9535 177.581 56.6735 179.885 56.6735C181.773 56.6735 183.341 56.2415 184.589 55.3775C185.869 54.4815 186.765 53.2975 187.277 51.8255H191.981C191.277 54.3535 189.869 56.4175 187.757 58.0175C185.645 59.5855 183.021 60.3695 179.885 60.3695C177.389 60.3695 175.149 59.8095 173.165 58.6895C171.213 57.5695 169.677 55.9855 168.557 53.9375C167.437 51.8575 166.877 49.4575 166.877 46.7375C166.877 44.0175 167.421 41.6335 168.509 39.5855C169.597 37.5375 171.117 35.9695 173.069 34.8815C175.053 33.7615 177.325 33.2015 179.885 33.2015C182.381 33.2015 184.589 33.7455 186.509 34.8335C188.429 35.9215 189.901 37.4255 190.925 39.3455C191.981 41.2335 192.509 43.3775 192.509 45.7775ZM187.997 44.8655C187.997 43.2015 187.629 41.7775 186.893 40.5935C186.157 39.3775 185.149 38.4655 183.869 37.8575C182.621 37.2175 181.229 36.8975 179.693 36.8975C177.485 36.8975 175.597 37.6015 174.029 39.0095C172.493 40.4175 171.613 42.3695 171.389 44.8655H187.997ZM202.642 37.9055C203.41 36.4015 204.498 35.2335 205.906 34.4015C207.346 33.5695 209.09 33.1535 211.138 33.1535V37.6655H209.986C205.09 37.6655 202.642 40.3215 202.642 45.6335V59.9375H198.274V33.6335H202.642V37.9055ZM240.18 45.7775C240.18 46.6095 240.132 47.4895 240.036 48.4175H219.012C219.172 51.0095 220.052 53.0415 221.652 54.5135C223.284 55.9535 225.252 56.6735 227.556 56.6735C229.444 56.6735 231.012 56.2415 232.26 55.3775C233.54 54.4815 234.436 53.2975 234.948 51.8255H239.652C238.948 54.3535 237.54 56.4175 235.428 58.0175C233.316 59.5855 230.692 60.3695 227.556 60.3695C225.06 60.3695 222.82 59.8095 220.836 58.6895C218.884 57.5695 217.348 55.9855 216.228 53.9375C215.108 51.8575 214.548 49.4575 214.548 46.7375C214.548 44.0175 215.092 41.6335 216.18 39.5855C217.268 37.5375 218.788 35.9695 220.74 34.8815C222.724 33.7615 224.996 33.2015 227.556 33.2015C230.052 33.2015 232.26 33.7455 234.18 34.8335C236.1 35.9215 237.572 37.4255 238.596 39.3455C239.652 41.2335 240.18 43.3775 240.18 45.7775ZM235.668 44.8655C235.668 43.2015 235.3 41.7775 234.564 40.5935C233.828 39.3775 232.82 38.4655 231.54 37.8575C230.292 37.2175 228.9 36.8975 227.364 36.8975C225.156 36.8975 223.268 37.6015 221.7 39.0095C220.164 40.4175 219.284 42.3695 219.06 44.8655H235.668ZM244.314 46.6895C244.314 44.0015 244.858 41.6495 245.946 39.6335C247.034 37.5855 248.522 36.0015 250.41 34.8815C252.33 33.7615 254.474 33.2015 256.842 33.2015C258.89 33.2015 260.794 33.6815 262.554 34.6415C264.314 35.5695 265.658 36.8015 266.586 38.3375V24.4175H271.002V59.9375H266.586V54.9935C265.722 56.5615 264.442 57.8575 262.746 58.8815C261.05 59.8735 259.066 60.3695 256.794 60.3695C254.458 60.3695 252.33 59.7935 250.41 58.6415C248.522 57.4895 247.034 55.8735 245.946 53.7935C244.858 51.7135 244.314 49.3455 244.314 46.6895ZM266.586 46.7375C266.586 44.7535 266.186 43.0255 265.386 41.5535C264.586 40.0815 263.498 38.9615 262.122 38.1935C260.778 37.3935 259.29 36.9935 257.658 36.9935C256.026 36.9935 254.538 37.3775 253.194 38.1455C251.85 38.9135 250.778 40.0335 249.978 41.5055C249.178 42.9775 248.778 44.7055 248.778 46.6895C248.778 48.7055 249.178 50.4655 249.978 51.9695C250.778 53.4415 251.85 54.5775 253.194 55.3775C254.538 56.1455 256.026 56.5295 257.658 56.5295C259.29 56.5295 260.778 56.1455 262.122 55.3775C263.498 54.5775 264.586 53.4415 265.386 51.9695C266.186 50.4655 266.586 48.7215 266.586 46.7375Z" fill="white"/>
<rect x="1.98958" y="1.98958" width="308.021" height="182.021" rx="29.8437" stroke="white" stroke-opacity="0.3" stroke-width="3.97917"/>
</svg>
