<svg width="384" height="159" viewBox="0 0 384 159" fill="none" xmlns="http://www.w3.org/2000/svg">
<path d="M89.9634 66.26L82.3184 58.615C80.4484 59.1283 78.5417 59.385 76.5984 59.385C73.0417 59.385 69.7967 58.56 66.8634 56.91C63.9301 55.2233 61.6017 52.895 59.8784 49.925C58.1917 46.9183 57.3484 43.545 57.3484 39.805C57.3484 36.065 58.1917 32.71 59.8784 29.74C61.6017 26.7333 63.9301 24.405 66.8634 22.755C69.7967 21.0683 73.0417 20.225 76.5984 20.225C80.1917 20.225 83.4551 21.0683 86.3884 22.755C89.3217 24.405 91.6317 26.715 93.3184 29.685C95.0051 32.655 95.8484 36.0283 95.8484 39.805C95.8484 43.4717 95.0417 46.7717 93.4284 49.705C91.8151 52.6383 89.5967 54.9483 86.7734 56.635L96.4534 66.26H89.9634ZM62.4634 39.805C62.4634 42.8483 63.0684 45.525 64.2784 47.835C65.5251 50.145 67.2117 51.9233 69.3384 53.17C71.5017 54.4167 73.9217 55.04 76.5984 55.04C79.2751 55.04 81.6767 54.4167 83.8034 53.17C85.9667 51.9233 87.6534 50.145 88.8634 47.835C90.1101 45.525 90.7334 42.8483 90.7334 39.805C90.7334 36.725 90.1101 34.0483 88.8634 31.775C87.6534 29.465 85.9851 27.6867 83.8584 26.44C81.7317 25.1933 79.3117 24.57 76.5984 24.57C73.8851 24.57 71.4651 25.1933 69.3384 26.44C67.2117 27.6867 65.5251 29.465 64.2784 31.775C63.0684 34.0483 62.4634 36.725 62.4634 39.805ZM129.293 28.86V59H124.288V54.545C123.335 56.085 121.996 57.295 120.273 58.175C118.586 59.0183 116.716 59.44 114.663 59.44C112.316 59.44 110.208 58.9633 108.338 58.01C106.468 57.02 104.983 55.5533 103.883 53.61C102.82 51.6667 102.288 49.3017 102.288 46.515V28.86H107.238V45.855C107.238 48.825 107.99 51.1167 109.493 52.73C110.996 54.3067 113.05 55.095 115.653 55.095C118.33 55.095 120.438 54.27 121.978 52.62C123.518 50.97 124.288 48.5683 124.288 45.415V28.86H129.293ZM165.244 42.775C165.244 43.7283 165.189 44.7367 165.079 45.8H140.989C141.172 48.77 142.18 51.0983 144.014 52.785C145.884 54.435 148.139 55.26 150.779 55.26C152.942 55.26 154.739 54.765 156.169 53.775C157.635 52.7483 158.662 51.3917 159.249 49.705H164.639C163.832 52.6017 162.219 54.9667 159.799 56.8C157.379 58.5967 154.372 59.495 150.779 59.495C147.919 59.495 145.352 58.8533 143.079 57.57C140.842 56.2867 139.082 54.4717 137.799 52.125C136.515 49.7417 135.874 46.9917 135.874 43.875C135.874 40.7583 136.497 38.0267 137.744 35.68C138.99 33.3333 140.732 31.5367 142.969 30.29C145.242 29.0067 147.845 28.365 150.779 28.365C153.639 28.365 156.169 28.9883 158.369 30.235C160.569 31.4817 162.255 33.205 163.429 35.405C164.639 37.5683 165.244 40.025 165.244 42.775ZM160.074 41.73C160.074 39.8233 159.652 38.1917 158.809 36.835C157.965 35.4417 156.81 34.3967 155.344 33.7C153.914 32.9667 152.319 32.6 150.559 32.6C148.029 32.6 145.865 33.4067 144.069 35.02C142.309 36.6333 141.3 38.87 141.044 41.73H160.074ZM182.52 59.495C180.21 59.495 178.139 59.11 176.305 58.34C174.472 57.5333 173.024 56.4333 171.96 55.04C170.897 53.61 170.31 51.9783 170.2 50.145H175.37C175.517 51.6483 176.214 52.8767 177.46 53.83C178.744 54.7833 180.412 55.26 182.465 55.26C184.372 55.26 185.875 54.8383 186.975 53.995C188.075 53.1517 188.625 52.0883 188.625 50.805C188.625 49.485 188.039 48.5133 186.865 47.89C185.692 47.23 183.877 46.5883 181.42 45.965C179.184 45.3783 177.35 44.7917 175.92 44.205C174.527 43.5817 173.317 42.6833 172.29 41.51C171.3 40.3 170.805 38.7233 170.805 36.78C170.805 35.24 171.264 33.8283 172.18 32.545C173.097 31.2617 174.399 30.2533 176.085 29.52C177.772 28.75 179.697 28.365 181.86 28.365C185.197 28.365 187.892 29.2083 189.945 30.895C191.999 32.5817 193.099 34.8917 193.245 37.825H188.24C188.13 36.2483 187.489 34.9833 186.315 34.03C185.179 33.0767 183.639 32.6 181.695 32.6C179.899 32.6 178.469 32.985 177.405 33.755C176.342 34.525 175.81 35.5333 175.81 36.78C175.81 37.77 176.122 38.595 176.745 39.255C177.405 39.8783 178.212 40.3917 179.165 40.795C180.155 41.1617 181.512 41.5833 183.235 42.06C185.399 42.6467 187.159 43.2333 188.515 43.82C189.872 44.37 191.027 45.2133 191.98 46.35C192.97 47.4867 193.484 48.9717 193.52 50.805C193.52 52.455 193.062 53.94 192.145 55.26C191.229 56.58 189.927 57.625 188.24 58.395C186.59 59.1283 184.684 59.495 182.52 59.495ZM206.691 32.985V50.75C206.691 52.2167 207.002 53.2617 207.626 53.885C208.249 54.4717 209.331 54.765 210.871 54.765H214.556V59H210.046C207.259 59 205.169 58.3583 203.776 57.075C202.382 55.7917 201.686 53.6833 201.686 50.75V32.985H197.781V28.86H201.686V21.27H206.691V28.86H214.556V32.985H206.691ZM223.205 23.965C222.251 23.965 221.445 23.635 220.785 22.975C220.125 22.315 219.795 21.5083 219.795 20.555C219.795 19.6017 220.125 18.795 220.785 18.135C221.445 17.475 222.251 17.145 223.205 17.145C224.121 17.145 224.891 17.475 225.515 18.135C226.175 18.795 226.505 19.6017 226.505 20.555C226.505 21.5083 226.175 22.315 225.515 22.975C224.891 23.635 224.121 23.965 223.205 23.965ZM225.625 28.86V59H220.62V28.86H225.625ZM247.3 59.495C244.477 59.495 241.91 58.8533 239.6 57.57C237.327 56.2867 235.53 54.4717 234.21 52.125C232.927 49.7417 232.285 46.9917 232.285 43.875C232.285 40.795 232.945 38.0817 234.265 35.735C235.622 33.3517 237.455 31.5367 239.765 30.29C242.075 29.0067 244.66 28.365 247.52 28.365C250.38 28.365 252.965 29.0067 255.275 30.29C257.585 31.5367 259.4 33.3333 260.72 35.68C262.077 38.0267 262.755 40.7583 262.755 43.875C262.755 46.9917 262.058 49.7417 260.665 52.125C259.308 54.4717 257.457 56.2867 255.11 57.57C252.763 58.8533 250.16 59.495 247.3 59.495ZM247.3 55.095C249.097 55.095 250.783 54.6733 252.36 53.83C253.937 52.9867 255.202 51.7217 256.155 50.035C257.145 48.3483 257.64 46.295 257.64 43.875C257.64 41.455 257.163 39.4017 256.21 37.715C255.257 36.0283 254.01 34.7817 252.47 33.975C250.93 33.1317 249.262 32.71 247.465 32.71C245.632 32.71 243.945 33.1317 242.405 33.975C240.902 34.7817 239.692 36.0283 238.775 37.715C237.858 39.4017 237.4 41.455 237.4 43.875C237.4 46.3317 237.84 48.4033 238.72 50.09C239.637 51.7767 240.847 53.0417 242.35 53.885C243.853 54.6917 245.503 55.095 247.3 55.095ZM284.021 28.31C287.687 28.31 290.657 29.4283 292.931 31.665C295.204 33.865 296.341 37.055 296.341 41.235V59H291.391V41.95C291.391 38.9433 290.639 36.6517 289.136 35.075C287.632 33.4617 285.579 32.655 282.976 32.655C280.336 32.655 278.227 33.48 276.651 35.13C275.111 36.78 274.341 39.1817 274.341 42.335V59H269.336V28.86H274.341V33.15C275.331 31.61 276.669 30.4183 278.356 29.575C280.079 28.7317 281.967 28.31 284.021 28.31ZM315.186 59.495C312.876 59.495 310.805 59.11 308.971 58.34C307.138 57.5333 305.69 56.4333 304.626 55.04C303.563 53.61 302.976 51.9783 302.866 50.145H308.036C308.183 51.6483 308.88 52.8767 310.126 53.83C311.41 54.7833 313.078 55.26 315.131 55.26C317.038 55.26 318.541 54.8383 319.641 53.995C320.741 53.1517 321.291 52.0883 321.291 50.805C321.291 49.485 320.705 48.5133 319.531 47.89C318.358 47.23 316.543 46.5883 314.086 45.965C311.85 45.3783 310.016 44.7917 308.586 44.205C307.193 43.5817 305.983 42.6833 304.956 41.51C303.966 40.3 303.471 38.7233 303.471 36.78C303.471 35.24 303.93 33.8283 304.846 32.545C305.763 31.2617 307.065 30.2533 308.751 29.52C310.438 28.75 312.363 28.365 314.526 28.365C317.863 28.365 320.558 29.2083 322.611 30.895C324.665 32.5817 325.765 34.8917 325.911 37.825H320.906C320.796 36.2483 320.155 34.9833 318.981 34.03C317.845 33.0767 316.305 32.6 314.361 32.6C312.565 32.6 311.135 32.985 310.071 33.755C309.008 34.525 308.476 35.5333 308.476 36.78C308.476 37.77 308.788 38.595 309.411 39.255C310.071 39.8783 310.878 40.3917 311.831 40.795C312.821 41.1617 314.178 41.5833 315.901 42.06C318.065 42.6467 319.825 43.2333 321.181 43.82C322.538 44.37 323.693 45.2133 324.646 46.35C325.636 47.4867 326.15 48.9717 326.186 50.805C326.186 52.455 325.728 53.94 324.811 55.26C323.895 56.58 322.593 57.625 320.906 58.395C319.256 59.1283 317.35 59.495 315.186 59.495Z" fill="white"/>
<circle opacity="0.3" cx="131" cy="98" r="19" transform="rotate(-90 131 98)" fill="white"/>
<ellipse opacity="0.3" cx="192.5" cy="98" rx="19" ry="18.5" transform="rotate(-90 192.5 98)" fill="white"/>
<ellipse opacity="0.3" cx="253.5" cy="98" rx="19" ry="18.5" transform="rotate(-90 253.5 98)" fill="white"/>
<ellipse opacity="0.3" cx="314.5" cy="98" rx="19" ry="18.5" transform="rotate(-90 314.5 98)" fill="white"/>
<path fill-rule="evenodd" clip-rule="evenodd" d="M69.6667 79.3346C59.3574 79.3346 51 87.692 51 98.0013C51 108.311 59.3574 116.668 69.6667 116.668L69.6667 79.3346Z" fill="white"/>
<path opacity="0.3" fill-rule="evenodd" clip-rule="evenodd" d="M69.666 116.668C79.9753 116.668 88.3327 108.311 88.3327 98.0013C88.3327 87.692 79.9753 79.3346 69.666 79.3346L69.666 116.668Z" fill="white"/>
<path d="M65.1024 125.96V122.972H71.8704V149H68.5584V125.96H65.1024Z" fill="white"/>
<path d="M122.982 146.372C126.03 143.924 128.418 141.92 130.146 140.36C131.874 138.776 133.326 137.132 134.502 135.428C135.702 133.7 136.302 132.008 136.302 130.352C136.302 128.792 135.918 127.568 135.15 126.68C134.406 125.768 133.194 125.312 131.514 125.312C129.882 125.312 128.61 125.828 127.698 126.86C126.81 127.868 126.33 129.224 126.258 130.928H123.09C123.186 128.24 124.002 126.164 125.538 124.7C127.074 123.236 129.054 122.504 131.478 122.504C133.95 122.504 135.906 123.188 137.346 124.556C138.81 125.924 139.542 127.808 139.542 130.208C139.542 132.2 138.942 134.144 137.742 136.04C136.566 137.912 135.222 139.568 133.71 141.008C132.198 142.424 130.266 144.08 127.914 145.976H140.298V148.712H122.982V146.372Z" fill="white"/>
<path d="M184.06 129.524C184.228 127.316 185.08 125.588 186.616 124.34C188.152 123.092 190.144 122.468 192.592 122.468C194.224 122.468 195.628 122.768 196.804 123.368C198.004 123.944 198.904 124.736 199.504 125.744C200.128 126.752 200.44 127.892 200.44 129.164C200.44 130.652 200.008 131.936 199.144 133.016C198.304 134.096 197.2 134.792 195.832 135.104V135.284C197.392 135.668 198.628 136.424 199.54 137.552C200.452 138.68 200.908 140.156 200.908 141.98C200.908 143.348 200.596 144.584 199.972 145.688C199.348 146.768 198.412 147.62 197.164 148.244C195.916 148.868 194.416 149.18 192.664 149.18C190.12 149.18 188.032 148.52 186.4 147.2C184.768 145.856 183.856 143.96 183.664 141.512H186.832C187 142.952 187.588 144.128 188.596 145.04C189.604 145.952 190.948 146.408 192.628 146.408C194.308 146.408 195.58 145.976 196.444 145.112C197.332 144.224 197.776 143.084 197.776 141.692C197.776 139.892 197.176 138.596 195.976 137.804C194.776 137.012 192.964 136.616 190.54 136.616H189.712V133.88H190.576C192.784 133.856 194.452 133.496 195.58 132.8C196.708 132.08 197.272 130.976 197.272 129.488C197.272 128.216 196.852 127.196 196.012 126.428C195.196 125.66 194.02 125.276 192.484 125.276C190.996 125.276 189.796 125.66 188.884 126.428C187.972 127.196 187.432 128.228 187.264 129.524H184.06Z" fill="white"/>
<path d="M243.62 143.204V140.72L256.256 123.224H260.18V140.36H263.78V143.204H260.18V149H256.94V143.204H243.62ZM257.084 126.644L247.4 140.36H257.084V126.644Z" fill="white"/>
<path d="M322.025 125.816H309.389V134.024C309.941 133.256 310.757 132.632 311.837 132.152C312.917 131.648 314.081 131.396 315.329 131.396C317.321 131.396 318.941 131.816 320.189 132.656C321.437 133.472 322.325 134.54 322.853 135.86C323.405 137.156 323.681 138.536 323.681 140C323.681 141.728 323.357 143.276 322.709 144.644C322.061 146.012 321.065 147.092 319.721 147.884C318.401 148.676 316.757 149.072 314.789 149.072C312.269 149.072 310.229 148.424 308.669 147.128C307.109 145.832 306.161 144.104 305.825 141.944H309.029C309.341 143.312 310.001 144.38 311.009 145.148C312.017 145.916 313.289 146.3 314.825 146.3C316.721 146.3 318.149 145.736 319.109 144.608C320.069 143.456 320.549 141.944 320.549 140.072C320.549 138.2 320.069 136.76 319.109 135.752C318.149 134.72 316.733 134.204 314.861 134.204C313.589 134.204 312.473 134.516 311.513 135.14C310.577 135.74 309.893 136.568 309.461 137.624H306.365V122.936H322.025V125.816Z" fill="white"/>
</svg>
